/* XPM */
static char *_7ad200461054590b5ae7e3458ffb981bV8oTwOUbDRpngjd[] = {
/* columns rows colors chars-per-pixel */
"64 64 110 2 ",
"   c #F4C799",
".  c #EAA267",
"X  c #C17A58",
"o  c #9E5A52",
"O  c #885659",
"+  c #C3AEA0",
"@  c #BD7F64",
"#  c #AD6754",
"$  c #DF945D",
"%  c #C57E59",
"&  c #BF7958",
"*  c #BB7557",
"=  c #AD6755",
"-  c #AE6C5C",
";  c #E8B489",
":  c #EAA166",
">  c #E79B5E",
",  c #E89B5F",
"<  c #E89B5E",
"1  c #E2965E",
"2  c #C77F59",
"3  c #E2975E",
"4  c #DF935D",
"5  c #C6805B",
"6  c #C08163",
"7  c #BF7A5A",
"8  c #C18263",
"9  c #BB7659",
"0  c #A45F54",
"q  c #F3C291",
"w  c #E59E66",
"e  c #A25E52",
"r  c #8F5B59",
"t  c #C3A797",
"y  c #BD7E62",
"u  c #AE6755",
"i  c #AE6856",
"p  c #E09864",
"a  c #CB855D",
"s  c #C68562",
"d  c #C57F5A",
"f  c #C78662",
"g  c #C17B5A",
"h  c #B16B56",
"j  c #DF945E",
"k  c #C8A58F",
"l  c #C18061",
"z  c #C9A68F",
"x  c #BC7D61",
"c  c #E39B64",
"v  c #C57E5A",
"b  c #B77157",
"n  c #B47157",
"m  c #BB7B60",
"M  c #B77258",
"N  c #A96454",
"B  c #DE935D",
"V  c #DF935C",
"C  c #C68662",
"Z  c #C7A58F",
"A  c #C08061",
"S  c #BC7C61",
"D  c #DA8F5C",
"F  c #B67258",
"G  c #C78360",
"H  c #B16B57",
"J  c #AE6855",
"K  c #A86354",
"L  c #985B50",
"P  c #DC925D",
"I  c #BF7857",
"U  c #BF7957",
"Y  c #BF7A59",
"T  c #C18161",
"R  c #A96456",
"E  c #C27F5F",
"W  c #B16C57",
"Q  c #EBB789",
"!  c #E09964",
"~  c #D98F5C",
"^  c #BF7A58",
"/  c #E1965E",
"(  c #AD6B5B",
")  c #E1AC83",
"_  c #E19964",
"`  c #E9A166",
"'  c #BD7D61",
"]  c #A45F53",
"[  c #9F5C52",
"{  c #C57F5B",
"}  c #8C514E",
"|  c #E89C5F",
" . c #B97457",
".. c #C17C5A",
"X. c #A96354",
"o. c #A45E53",
"O. c #CB845B",
"+. c #C67F59",
"@. c #BE7858",
"#. c #BA7557",
"$. c #E2965D",
"%. c #C78460",
"&. c #A96554",
"*. c #C7A48F",
"=. c #BC7C60",
"-. c #9F5B52",
";. c #91554F",
":. c #DB915C",
">. c #BD7658",
",. c white",
/* pixels */
"  . X o O + @ # $ % & & & & * = $ % & & & & * - ; : > , , < 1 2 3 % & & & & * = 4 5 6 7 7 8 9 = $ % & & & & * = $ % & & & & * 0 ",
"q w X e r t y u $ % & & & & * = $ % & & & & * i p a s d d f g h j % & & & & * u 4 f k l l z x u $ % & & & & * = $ % & & & & * 0 ",
"c v * b n m M N B % & & & & * = $ % & & & & * = V C Z A A k S = $ % & & & & * = D g S 9 9 x F N B % & & & & * = $ % & & & & * 0 ",
"G H = J J u K L P % & & & & * = $ % I & & U * = 4 5 A Y Y T 9 = $ % & & & & * R E W = = = u K L P % & & & & * = $ % I & & U * 0 ",
"Q ! V 4 4 4 ~ ^ / % & & & & * = 4 5 A Y Y T 9 = $ % I & & U * = $ % & & & & * ( ) _ V 4 4 4 ~ ^ / % & & & & * = 4 5 A Y Y T 9 0 ",
"` a C 5 5 f g h j % & & & & * u 4 f k l l z x u $ % & & & & * = $ % & & & & * i ! a C 5 5 f g h j % & & & & * u 4 f k l l z ' ] ",
"> s Z A A k S = $ % & & & & * = D g S 9 9 x F N B % & & & & * = $ % & & & & * = V C Z A A k S = $ % & & & & * = D g S 9 9 x M [ ",
", { A Y Y T 9 = $ % & & & & * R E W = = = u K L P % & & & & * = $ % I & & U * = 4 5 A Y Y T 9 = $ % & & & & * R E W = = = u N } ",
"| % I & & U * = $ % & & & & * ( ) _ V 4 4 4 ~ ^ / % & & & & * = 4 5 A Y Y T 9 = $ % I & & U * = $ % & & & & * ( ) _ V 4 4 4 ~  .",
"| % & & & & * = $ % & & & & * i ! a C 5 5 f g h j % & & & & * u 4 f k l l z x u $ % & & & & * = $ % & & & & * i ! a C 5 5 f ..X.",
"| % & & & & * = $ % & & & & * = V C Z A A k S = $ % & & & & * = D g S 9 9 x F N B % & & & & * = $ % & & & & * = V C Z A A k S o.",
"| % & & & & * = $ % I & & U * = 4 5 A Y Y T 9 = $ % & & & & * R E W = = = u K L P % & & & & * = $ % I & & U * = 4 5 A Y Y T 9 0 ",
"| % & & & & * = 4 5 A Y Y T 9 = $ % I & & U * = $ % & & & & * ( ) _ V 4 4 4 ~ ^ / % & & & & * = 4 5 A Y Y T 9 = $ % I & & U * 0 ",
"| % & & & & * u 4 f k l l z x u $ % & & & & * = $ % & & & & * i ! a C 5 5 f g h j % & & & & * u 4 f k l l z x u $ % & & & & * 0 ",
"| % & & & & * = D g S 9 9 x F N B % & & & & * = $ % & & & & * = V C Z A A k S = $ % & & & & * = D g S 9 9 x F N B % & & & & * 0 ",
"| % & & & & * R E W = = = u K L P % & & & & * = $ % I & & U * = 4 5 A Y Y T 9 = $ % & & & & * R E W = = = u K L P % & & & & * 0 ",
"| % & & & & * ( ) _ V 4 4 4 ~ ^ / % & & & & * = 4 5 A Y Y T 9 = $ % I & & U * = $ % & & & & * ( ) _ 4 $ $ $ ~ ^ / % & & & & * 0 ",
"| % & & & & * i ! a C 5 5 f g h j % & & & & * u 4 f k l l z x u $ % & & & & * = $ % & & & & * i ! O.% % % +.X h j % & & & & * 0 ",
"| % & & & & * = V C Z A A k S = $ % & & & & * = D g S 9 9 x F N B % & & & & * = $ % & & & & * = 4 % @.& & & #.= $ % & & & & * 0 ",
"| % I & & U * = 4 5 A Y Y T 9 = $ % & & & & * R E W = = = u K L P % & & & & * = $ % I & & U * = $ % & & & & * = $ % & & & & * 0 ",
", { A Y Y T 9 = $ % I & & U * = $ % & & & & * ( ) _ V 4 4 4 ~ ^ / % & & & & * = 4 5 A Y Y T 9 = $ % & & & & * = $ % & & & & * 0 ",
"< f k l l z x u $ % & & & & * = $ % & & & & * i ! a C 5 5 f g h j % & & & & * u 4 f k l l z x u $ % & & & & * = $ % & & & & * 0 ",
"$.g S 9 9 x F N B % & & & & * = $ % & & & & * = V C Z A A k S = $ % & & & & * = D g S 9 9 x F N B % & & & & * = $ % & & & & * 0 ",
"%.H = = = u K L P % & & & & * = $ % I & & U * = 4 5 A Y Y T 9 = $ % & & & & * R E W = = = u K L P % & & & & * = $ % I & & U * 0 ",
"Q ! V 4 4 4 ~ ^ / % & & & & * = 4 5 A Y Y T 9 = $ % I & & U * = $ % & & & & * ( ) _ V 4 4 4 ~ ^ / % & & & & * = 4 5 A Y Y T 9 0 ",
"` a C 5 5 f g h j % & & & & * u 4 f k l l z x u $ % & & & & * = $ % & & & & * i ! a C 5 5 f g h j % & & & & * u 4 f k l l z ' ] ",
"> s Z A A k S = $ % & & & & * = D g S 9 9 x F N B % & & & & * = $ % & & & & * = V C Z A A k S = $ % & & & & * = D g S 9 9 x M [ ",
", { A Y Y T 9 = $ % & & & & * R E W = = = u K L P % & & & & * = $ % I & & U * = 4 5 A Y Y T 9 = $ % & & & & * R E W = = = u N } ",
"| % I & & U * = $ % & & & & * ( ) _ V 4 4 4 ~ ^ / % & & & & * = 4 5 A Y Y T 9 = $ % I & & U * = $ % & & & & * ( ) _ V 4 4 4 ~  .",
"| % & & & & * = $ % & & & & * i ! a C 5 5 f g h j % & & & & * u 4 f k l l z x u $ % & & & & * = $ % & & & & * i ! a C 5 5 f ..X.",
"| % & & & & * = $ % & & & & * = V C Z A A k S = $ % & & & & * = D g S 9 9 x F N B % & & & & * = $ % & & & & * = V C Z A A k S o.",
"| % & & & & * = $ % I & & U * = 4 5 A Y Y T 9 = $ % & & & & * R E W = = = u K L P % & & & & * = $ % I & & U * = 4 5 A Y Y T 9 0 ",
"| % & & & & * = 4 5 A Y Y T 9 = $ % I & & U * = $ % & & & & * ( ) _ V 4 4 4 ~ ^ / % & & & & * = 4 5 A Y Y T 9 = $ % I & & U * 0 ",
"| % & & & & * u 4 f k l l z x u $ % & & & & * = $ % & & & & * i ! a C 5 5 f g h j % & & & & * u 4 f k l l z x u $ % & & & & * 0 ",
"| % & & & & * = D g S 9 9 x F N B % & & & & * = $ % & & & & * = V C Z A A k S = $ % & & & & * = D g S 9 9 x F N B % & & & & * 0 ",
"| % & & & & * R E W = = = u K L P % & & & & * = $ % I & & U * = 4 5 A Y Y T 9 = $ % & & & & * R E W = = = u K L P % & & & & * 0 ",
"| % & & & & * ( ) _ V 4 4 4 ~ ^ / % & & & & * = 4 5 A Y Y T 9 = $ % I & & U * = $ % & & & & * ( ) _ V 4 4 4 ~ ^ / % & & & & * 0 ",
"| % & & & & * i ! a C 5 5 f g h j % & & & & * u 4 f k l l z x u $ % & & & & * = $ % & & & & * i ! a C 5 5 f g h j % & & & & * 0 ",
"| % & & & & * = V C Z A A k S = $ % & & & & * = D g S 9 9 x F N B % & & & & * = $ % & & & & * = V C Z A A k S = $ % & & & & * 0 ",
"| % I & & U * = 4 5 A Y Y T 9 = $ % & & & & * R E W = = = u K L P % & & & & * = $ % I & & U * = 4 5 A Y Y T 9 = $ % & & & & * 0 ",
", { A Y Y T 9 = $ % I & & U * = $ % & & & & * ( ) _ V 4 4 4 ~ ^ / % & & & & * = 4 5 A Y Y T 9 = $ % I & & U * = $ % & & & & * 0 ",
"< f k l l z x u $ % & & & & * = $ % & & & & * i ! a C 5 5 f g h j % & & & & * u 4 f k l l z x u $ % & & & & * = $ % & & & & * 0 ",
"$.g S 9 9 x F N B % & & & & * = $ % & & & & * = V C Z A A k S = $ % & & & & * = D g S 9 9 x F N B % & & & & * = $ % & & & & * 0 ",
"%.H = = = u K L P % & & & & * = $ % I & & U * = 4 5 A Y Y T 9 = $ % & & & & * R E W = = = u K L P % & & & & * = $ % I & & U * 0 ",
"Q ! V 4 4 4 ~ ^ / % & & & & * = 4 5 A Y Y T 9 = $ % I & & U * = $ % & & & & * ( ) _ V 4 4 4 ~ ^ / % & & & & * = 4 5 A Y Y T 9 0 ",
"` a C 5 5 f g h j % & & & & * u 4 f k l l z x u $ % & & & & * = $ % & & & & * i ! a C 5 5 f g h j % & & & & * u 4 f k l l z ' ] ",
"> s Z A A k S = $ % & & & & * = D g S 9 9 x F N B % & & & & * = $ % & & & & * = V C Z A A k S = $ % & & & & * = D g S 9 9 x M [ ",
", { A Y Y T 9 = $ % & & & & * R E W = = = u K L P % & & & & * = $ % I & & U * = 4 5 A Y Y T 9 = $ % & & & & * R E W = = = u N } ",
"| % I & & U * = $ % & & & & * ( ) _ V 4 4 4 ~ ^ / % & & & & * = 4 5 A Y Y T 9 = $ % I & & U * = $ % & & & & * ( ) _ V 4 4 4 ~  .",
"| % & & & & * = $ % & & & & * i ! a C 5 5 f g h j % & & & & * u 4 f k l l z x u $ % & & & & * = $ % & & & & * i ! a C 5 5 f ..X.",
"| % & & & & * = $ % & & & & * = V C Z A A k S = $ % & & & & * = D g S 9 9 x F N B % & & & & * = $ % & & & & * = V C Z A A k S o.",
"| % & & & & * = $ % I & & U * = 4 5 A Y Y T 9 = $ % & & & & * R E W = = = u K L P % & & & & * = $ % I & & U * = 4 5 A Y Y T 9 0 ",
"| % & & & & * = 4 5 A Y Y T 9 = $ % I & & U * = $ % & & & & * ( ) _ V 4 4 4 ~ ^ / % & & & & * = 4 5 A Y Y T 9 = $ % I & & U * 0 ",
"| % & & & & * u 4 f k l l z x u $ % & & & & * = $ % & & & & * i ! a C 5 5 f g h j % & & & & * u 4 f k l l z x u $ % & & & & * 0 ",
"| % & & & & * = D g S 9 9 x F N B % & & & & * = $ % & & & & * = V C Z A A k S = $ % & & & & * = D g S 9 9 x F N B % & & & & * 0 ",
"| % & & & & * R E W = = = u K L P % & & & & * = $ % I & & U * = 4 5 A Y Y T 9 = $ % & & & & * R E W = = = u K L P % & & & & * 0 ",
"| % & & & & * ( ) _ V 4 4 4 ~ ^ / % & & & & * = 4 5 A Y Y T 9 = $ % I & & U * = $ % & & & & * ( ) _ V 4 4 4 ~ ^ / % & & & & * 0 ",
"| % & & & & * i ! a C 5 5 f g h j % & & & & * u 4 f k l l z x u $ % & & & & * = $ % & & & & * i ! a C 5 5 f g h j % & & & & * 0 ",
"| % & & & & * = V C Z A A k S = $ % & & & & * = D g S 9 9 x F N B % & & & & * = $ % & & & & * = V C Z A A k S = $ % & & & & * 0 ",
"| % I & & U * = 4 5 A Y Y T 9 = $ % & & & & * R E W = = = u K L P % & & & & * = $ % I & & U * = 4 5 A Y Y T 9 = $ % & & & & * 0 ",
", { A Y Y T 9 = $ % I & & U * = $ % & & & & * ( ) _ V 4 4 4 ~ ^ / % & & & & * = 4 5 A Y Y T 9 = $ % I & & U * = $ % & & & & * 0 ",
"< f k l l z x u $ % & & & & * = $ % & & & & * i ! a C 5 5 f g h j % & & & & * u 4 f k l l z x u $ % & & & & * = $ % & & & & * 0 ",
"3 g S 9 9 ' M &.B % & & & & * = $ % & & & & * = V s *.A A k =.= $ % & & & & * = D ..S 9 9 ' M &.B % & & & & * = $ % & & & & * 0 ",
"X K o.0 0 ] -.;.:.+.& & & & * = $ % & & & & * = 4 5 6 7 7 8 9 = $ % & & & & * K >.K o.0 0 ] -.;.:.+.& & & & * = $ % & & & & * 0 "
};
