/* XPM */
static char *e576a08bf63e4713e3795a6928aa7e32poFYHkHs1XZd1mxk[] = {
/* columns rows colors chars-per-pixel */
"64 64 204 2 ",
"   c #0065C3",
".  c #016CC6",
"X  c #086EC6",
"o  c #0067CB",
"O  c #016DCA",
"+  c #0371C6",
"@  c #0B74C7",
"#  c #0273CB",
"$  c #0A75CB",
"%  c #047ACD",
"&  c #0A7BCC",
"*  c #107CCC",
"=  c #0175D2",
"-  c #027AD4",
";  c #087DD7",
":  c #0075DD",
">  c #017CDB",
",  c #087ED8",
"<  c #0076E0",
"1  c #007DE1",
"2  c #0B80CF",
"3  c #0284D4",
"4  c #0A85D3",
"5  c #038AD6",
"6  c #0B8BD6",
"7  c #0181DE",
"8  c #0984DC",
"9  c #038DD9",
"0  c #0B8CD9",
"q  c #148DD7",
"w  c #198DD6",
"e  c #118ED8",
"r  c #1B8ED8",
"t  c #0491DB",
"y  c #0E93DB",
"u  c #019ADE",
"i  c #0C99DF",
"p  c #1D92D6",
"a  c #1094DC",
"s  c #1098DF",
"d  c #199ADF",
"f  c #2093D5",
"g  c #2798D6",
"h  c #2A9AD6",
"j  c #2396D9",
"k  c #2299D9",
"l  c #2C9DDA",
"z  c #1FA0DF",
"x  c #2EA2DB",
"c  c #34A6DC",
"v  c #35A8DD",
"b  c #3BB1DF",
"n  c #0184E3",
"m  c #0A86E3",
"M  c #038AE4",
"N  c #0B8BE3",
"B  c #038AE8",
"V  c #118CE3",
"C  c #0293E5",
"Z  c #0A94E5",
"A  c #039BE3",
"S  c #0A99E5",
"D  c #0594E8",
"F  c #0995E9",
"G  c #039CE9",
"H  c #0C9DEB",
"J  c #1190E3",
"K  c #109AE0",
"L  c #1C98E5",
"P  c #129DEA",
"I  c #219FE8",
"U  c #229CE5",
"Y  c #04A3E4",
"T  c #0AA6E3",
"R  c #04A9E7",
"E  c #02A3EA",
"W  c #0EA1EC",
"Q  c #03ABEC",
"!  c #0BADEC",
"~  c #12A3ED",
"^  c #1BA5EB",
"/  c #13ACEC",
"(  c #1CACEB",
")  c #02B4ED",
"_  c #0BB2EC",
"`  c #02B9EE",
"'  c #02B8EF",
"]  c #09B9ED",
"[  c #16B0E7",
"{  c #1DB2E7",
"}  c #18B3E7",
"|  c #13B1EC",
" . c #1BB3ED",
".. c #17BBEE",
"X. c #1CBCEF",
"o. c #02ACF0",
"O. c #14AEF1",
"+. c #1AAFF1",
"@. c #02B5F1",
"#. c #0EB4F5",
"$. c #01B9F2",
"%. c #05B9F1",
"&. c #02BBF2",
"*. c #0DBDF4",
"=. c #15B5F3",
"-. c #1BB4F3",
";. c #13BAF5",
":. c #1BBAF4",
">. c #10BDF8",
",. c #1CBCF8",
"<. c #23A4E4",
"1. c #21AEE6",
"2. c #25A6EA",
"3. c #29A7EB",
"4. c #24A9ED",
"5. c #23ACEB",
"6. c #2BACEB",
"7. c #21B3E7",
"8. c #23B2EA",
"9. c #2CB0EE",
"0. c #2EBAED",
"q. c #3DB2E3",
"w. c #33B1E9",
"e. c #33BEEE",
"r. c #21B7F3",
"t. c #21B7F4",
"y. c #20BAF5",
"u. c #2EBFF4",
"i. c #20BFF8",
"p. c #04C1F4",
"a. c #0AC3F5",
"s. c #12C4F6",
"d. c #1CC3F7",
"f. c #1CC9F7",
"g. c #15C5F9",
"h. c #14C5F9",
"j. c #1BC4FA",
"k. c #13CCFB",
"l. c #1ACBFD",
"z. c #1CCBFD",
"x. c #1CCBFB",
"c. c #1DD0FD",
"v. c #33C0ED",
"b. c #23C4F7",
"n. c #2FC3F4",
"m. c #27CFF7",
"M. c #25CBF4",
"N. c #2ACDF3",
"B. c #25C6F8",
"V. c #24CCFC",
"C. c #2ACDFB",
"Z. c #32C6F4",
"A. c #39C6F2",
"S. c #34C9F3",
"D. c #3EC9F2",
"F. c #31C6F8",
"G. c #30CBFA",
"H. c #2CD2F6",
"J. c #24D2FE",
"K. c #2CD3FD",
"L. c #2CD8FF",
"P. c #34D5F6",
"I. c #3BD3F4",
"U. c #33D3F8",
"Y. c #33D9FF",
"T. c #3FDAFB",
"R. c #4AC7EF",
"E. c #4CC9EF",
"W. c #52C5EA",
"Q. c #53CAEB",
"!. c #59CDEB",
"~. c #56D1ED",
"^. c #5AD6EF",
"/. c #43CAF4",
"(. c #4DCBF2",
"). c #46CFF8",
"_. c #51CDF2",
"`. c #45D1F6",
"'. c #4BD4F4",
"]. c #40D7FC",
"[. c #4DD1F8",
"{. c #42DBFD",
"}. c #41DCFC",
"|. c #53D2F4",
" X c #5AD6F0",
".X c #53D8F8",
"XX c #46E3FD",
"oX c #45E4FE",
"OX c #4CE1FC",
"+X c #53E4FA",
"@X c #5AE6FC",
"#X c #54EAFC",
"$X c #5CEBFE",
"%X c #5EF1FF",
"&X c #67E4F7",
"*X c #69E3F6",
"=X c #6AE6F7",
"-X c #6AE5F9",
";X c #60EFFF",
":X c #6EEEFA",
">X c #71EEFA",
",X c #61F1FF",
"<X c #6EF1FD",
"1X c #72F3FD",
/* pixels */
"n n n n n n n n n 1 6.1XN n n n n n n n n n n n &.3 O M n n n n m m m m m m m m m 1 6.1XN n m m m m m m m m n M %.4 $ B M m m N ",
"n n n n n n n n M = d }.B n n n n n n n n n n M z.) 9 = = > n n n n n n n n n n n = d {.B n n n n n n n n n n M z.! 9 = = 7 n M ",
"> n n n n n n n > . 6 g.7 > 7 n n n n n n n n M ( m.{   . = > > > n n n n n n n > . 0 g.> > > n n n n n n n n M ( H.{   . = > , ",
". - n n n n n n % X 9 ` % . = n n n n n n n n 7   Q.Q.O % $ $ # . > n n n n n n % X 9 ` $ . = n n n n n n n n 7   !.Q.. $ $ # @ ",
". . O # n B > . *X{.g.` &.3 . # n n n n n n > # O X 6 %.f.@X@Xd.# . O % n B > . *X].g.&.@.3 . % n n n n n n > # O X 6 %.f.@X@XV.",
"Y R t   # o w ~.XXt.D G z._ 5 . # O - n = = # . A A ! x.W 4.4.H Y Y 9   # o r ~.XXr.D D z._ 5 . = # - n = - # . u u ! l.W 5.4.~ ",
"Q o.E 5 0 p b .X:.D 1 n -.h._ 3 5 0 0 > . . % i &.p.*.-.n 1 1 n o.@.H 4 6 p q..X:.D 1 m -.h.) 3 3 0 0 - . . % i &.&.*.-.n 1 1 n ",
"n > C p.z.$X_.: n n n n 1 -.x.&.&.l. .. & + a J.) &.Q 1 n n n n n 1 C p.z.;X(.: n n n n > t.x.&.&.c. .. $ O a J.) %.E 1 n n n M ",
"n n n n n M M n n n n n 1 |.#X) B n H K.:X}.=.n n ;.:.n n n n n n n n M M N M n n n n n 1 .X#X) B n P K.:XT.=.n 7 ;.=.n n n n m ",
"n n n n n n n n n n n n n L 5.@.n 1 B ~ 6.^ D n 1 )./.: n n n n n n n n n n n n n n n n n U 8.) n 1 B ~ 6.^ F n > `./.: n n n m ",
"n n n n n n n n n n n n n M G &.n n n 1 1 1 n n 1 A.'.<.> > 7 n n n n n n n n n n n n n n M E &.n n n 1 1 1 n n 1 D.'.I 7 > 7 m ",
"n n n n n n n n n n n n n Q p.) M n n n n n n n n G m.>X& . = n n n n n n n n n n n n n n Q p.) n n n n n n n n n G H.>X$ . = N ",
". > B n n n n n n n n n n Q Q n n n n n n n n n n n ~ L.C.e   O . > M n n n n n n n n n n Q Q n n n n n n n n n n n ~ L.V.6   # ",
"R 3 O = n n n n n n 7 = O / ;.1 n n n n n n n n n n m y s.) Y Y R - o = n n n n n n 7 = O | =.1 n n n n n n n n n n m i s.! Y T ",
"Q <.j 0 - 7 n n n 7 = . 4 :.=.> > n n n n n n > > > = . ) @.Q Q o.z f 0 > n n n n 7 = . 4 :.=.> > n n n n n n > > > = . ) @.Q _ ",
"> (.,XV.% - n n n % . & K.s.u . . > n n n n > # # + . % @.C 1 n 1 |.%XM.% > n n n = . & K.a.u . . > n n n n > # # # # % ) D 1 m ",
"n n 6.1X] 3 O # .   4 V.1Xl . # # O . . .   3 ) ) % 3 @.M n n n n n w.<X] 3 O # O   6 V.1Xh . # # . . . .   3 ) ) - 3 ) M n n m ",
"n n N 6.c.0   # ( ( Z.$XH._ 9 .   5 Y R  . .:.c.#X} Q x.M n n n n n N 9.c.6   # ( / Z.$XU.| 5 .   9 Y Y  .( :.c.#X[ Q z.n n n m ",
"n n n 1 :.S 3 9 x.j.n.(.E &.) e h X.a.Q :.,.,.:._.I.M.-.M n n n n n n n -.Z 3 9 l.j.F.(.E &.) 6 g ..p.Q ,.,.,.t.|.P.M.-.M n n m ",
"n n n n > ! a.&.&.C 1 1 1 E s.Y.<X}.O.1 1 1 1 n : |.|.> n n n n n n n n 1 o.p.&.&.M 1 1 1 E s.Y.<X}.O.1 1 1 1 n : |.|.1 n n n m ",
"n n n n : (.$Xz.B n n n n 1 6.:XJ M n n n n n n 1 i.,.1 n n n n n n n n < (.@Xf.B n n n n n 9.:XZ B M n n n n n 1 b.t.1 n n n m ",
"n n n M E.OXG.H n n n n n 1 ^ {.- > n n n n n n n D / :.= > n n n n n N R.OXG.F n n n n n 1 ^ {.= > n n n n n n n Z / -.- > n m ",
"n n n 8 @Xn.S 1 n n n n 7 > Z g.+ = > > > > > n n 1 H f.# = 7 n n n 1 8 $XZ.S 1 n n n n > : S g.# = > > > > 7 n n 1 H f.# = n m ",
"n n > # z.0 O n n n n n # . 5 ) % # $ # $ + = n n 1 G ` % . = n n n > $ V.6 O n n n n n # . 9 %.% # # # @ + = n n 1 G ) $ . = m ",
"n - . O @.3   . + 7 7 #   u &.&.@.d.V.C.1XN.C X n = y J..   . O n = . + @.3   O # 7 7 #   A &.&.) j.V.C.>XM.u . n # a V..   . X ",
"= . %  .+XZ.! A . # # . W.U.;.C C H H W 2.b.*.C - O 5 h.Q.e./ A =   %  .OXn.! u . # # . W.K.*.C G H W W 6.B.*.C - . 9 h.Q.0.! T ",
"5 5 1.oX|.n.>.&.9 # & c |.Z.~ 1 n 1 1 1 1 W b.N.$   3 p.'.Z.;.Q 5 4 1.oX|.F.>.&.9 # & x |.Z.~ 1 n 1 1 1 1 ~ b.M.# . 5 p..XF.#._ ",
"` g.{.&Xn > C &.p.3 l 1Xn 1 n n n n n n M > 3.>X& O 9 &.> > 1 n &.k.}.-Xn 1 C &.p.3 l 1X7 1 n n n n n n M > 6.>X% . 9 @.> > 1 n ",
"n n B B n n n M ) x.:.m n n n n n n n n n 1 ~ L.) ) E n n n n n n M B N n n n M ) x.-.m n n n n n n n n n 1 ~ L.) ) E n n n n m ",
"n n n n n n n n x.O.D n n n n n n n n n n n B W ) k.=.n n n n n n n n n n n n M x.O.Z n n n n n n n n n n n B W ) k.=.1 n n n m ",
"n n n n n n n n :.W M n n n n n n n n n n n n n *.,.~ n n n n n n n n n n n n n :.H M n n n n n n n n n n n n n *.d.~ n n n n m ",
"n n n n n n n n 1 Q ! N n n n n n n n n n n n M V.H > n n n n n n n n n n n n n 1 Q Q N n n n n n n n n n n n B V.H > n n n n m ",
"n n n n n n n n n 1 6.:XN n n n n n n n n n n n &.3 # n n n n n n n n n n n n n n 1 6.:Xm n n n n n n n n n n M &.3 = n n n n m ",
"n n n n n n n n M = d }.B n n n n n n n n n n M z.) 9 % % 7 n n n n n n n n n n M = d }.B n n n n n n n n n n M l.) 9 = = 7 n m ",
"> n n n n n n n > . 5 g.> > > n n n n n n n n M ^ H.7.  . = > - > n n n n n n n > . 0 g.> > 7 n n n n n n n n M ( H.7.  . = > ; ",
". > n n n n n n & # 9 &.% . = n n n n n n n n n   W.Q.O % $ $ $ . > n n n n n n & # 9 ) % . = n n n n n n n n 7   Q.Q.O % & $ $ ",
". O O # n B > . -X}.g.&.&.3 . % n n n n n n > O O X 5 %.f.@X$Xd.# . O # n B > # =XT.s.&.&.3 . % n n n n n n > # O X 5 %.f.$X@XM.",
"R R t   # O w  XXX-.D D x._ 9   # O = n = = # . Y A _ x.H ^ ^ H R R t   # o p ^.XX-.D D x._ 5 . # O = n = = # . Y Y _ x.H ^ ^ P ",
"Q Q Y 5 y k q.[.:.D 1 n +.h._ 3 5 y 0 - . . % s &.p.*.-.n 1 1 n Q o.Y 5 y k q.[.=.B 1 m -.h._ 3 5 y 0 = . . % K &.&.*.+.n 1 1 n ",
"n 1 C &.z.$X(.: n n n n > -.V.&.&.l. .. & # a J.@.%.Q 1 n n n n n 1 C p.z.;X(.: n n n n > r.V.&.&.x. .+ & # a J.@.&.E 1 n n n m ",
"n n n n n M m n n n n n 1 .X#X) B n H K.:X}.=.n n ;.:.n n n n n n n n n n M M n n n n n 1 .X#X) B n W L.>X}.=.n n :.=.n n n n m ",
"n n n n n n n n n n n n n L ( ) n n B H 3.^ D n 1 ).).< n n n n n n n n n n n n n n n n n L ( @.n n B W 3.^ Z n 1 './.< n n n m ",
"n n n n n n n n n n n n n M E &.n n n 1 1 1 n n 1 A.'.2.> > > n n n n n n n n n n n n n n M E &.M n n 1 1 1 n n 1 A.'.<.> > > M ",
"n n n n n n n n n n n n n Q p.) n n n n n n n n n G m.>X2 . % n n n n n n n n n n n n n n Q p.) M n n n n n n n n G N.>X& . = m ",
". > B n n n n n n n n n n Q Q n n n n n n n n n n n ~ L.K.0   O . > M n n n n n n n n n n Q Q n n n n n n n n n n n ~ L.J.6   X ",
"R 3 O # n n n n n n 7 % . | ;.1 n n n n n n n n n n m y a._ Y R R 3 o = n n n n n n 7 = O | =.1 n n n n n n n n n n 8 y *.! Y T ",
"Q <.k 0 - n n n n 7 = . 6 :.=.= > n n n n n n - > > = . ) @.o.Q o.<.k 0 > n n n n 7 = . 6 :.=.- > n n n n n n - > > = . ) @.o.! ",
"> E.,XV.& > n 7 n % + & K.s.u . . > n n n n > # $ + # - ) C 1 n > _.%XV.% > n 7 n = + 4 K.s.u . . > n n n n > # $ # # % ) C 1 8 ",
"n n 6.1X*.3 . # .   6 V.1Xl   # # O . . .   3 ` @.3 3 @.M n n n n n w.<X%.3 O # .   6 V.1Xh . # # O O . .   3 &.@.- 3 @.M n n m ",
"n n N 6.c.0   # (  .S.;XH._ 5 .   9 Y R  . .:.c.#X} Q x.B n n n n n N 6.J.6   # (  .S.;XH._ 5     9 Y R  . .:.c.#X} Q x.m n n m ",
"n n n n -.i 3 9 x.j.u.(.E $.) e l X.a.Q :.:.:.-._.I.M.-.B n n n n n n n -.i 3 t x.g.u.(.E $.) e l X.a.Q :.:.:.-.(.I.M.+.m n n m ",
"n n n n 1 ! a.&.` C 1 1 1 E a.Y.<X{.O.1 1 1 1 n : |.|.> n n n n n n n n 1 ! a.&.@.M 1 1 1 E s.Y.<XT.O.1 1 1 1 n : |.(.> n n n m ",
"n n n n < (.$Xf.B n n n n 1 6.<XV n n n n n n n 1 i.i.> n n n n n n n n 1 _.$Xf.B n n n n 1 6.:XN n n n n n n n n b.:.1 n n n m ",
"n n n M (.OXC.F n n n n n 1 ~ {.- > n n n n n n n D ~ -.= > n n n n n N _.OXC.F n n n n n 1 ^ {.= > n n n n n n n D / -.% 7 n m ",
"n n n 8 @Xn.Z 1 n n n n > = Z h.# = > - > - > n n 1 H x.# = 7 n n n > 8 @Xn.Z 1 n n n n > = S s.+ = > - - - > n n 1 H f.+ = 7 m ",
"n n - # z.6 O n 7 n n 7 # . 9 %.% # $ $ & $ = n n n C ` % . = n n n - $ z.6 O n n n n 7 # . 9 ) % $ $ $ & $ = n n 1 C ) # . = m ",
"n = . O @.3   O + > 7 #   u &.&.&.d.V.C.1XN.A . n = e V..   . O n - . # @.3   O O 7 > #   A &.&.` x.V.H.1XN.C . n O a V..   . X ",
"#   -  .+XS./ A . # # . Q.U.;.C C H H H 2.b.s.A - . 5 h.~.v.| Y =   3 -.+XZ./ A . # O . Q.U.;.C C H H H 3.B.s.u - . 9 h.~.e.! T ",
"5 0 5.oX|.u.*.&.t # & v _.n.~ 1 n 1 1 1 1 H b.N.$   5 &.[.n.#.Q 9 0 8.oX_.u.*.&.t # * v |.n.W 1 n 1 1 1 1 W b.N.$ . 5 p.|.n.#.! ",
"&.h.{.=Xn < C @.p.5 l 1Xn 1 n n n n n n M 1 3.:X& # 9 @.1 1 1 n @.h.{.*Xn 1 C %.p.3 x <Xn 1 n n n n n n M 1 6.:X& # 9 %.> 1 1 m ",
"M M B M n n n M ) x.t.7 n n n n n n n n n n P L.] ) E n n n n n n n m N n n n B ) x.r.7 n n n n n n n n n 1 ~ L.%.) E n n n n m ",
"n n n n n n n m z.O.B n n n n n n n n n n n B H ) k.=.1 n n n n n n n n n n n M f.O.B n n n n n n n n n n n B W ) k.=.1 n n n m ",
"n n n n n n n n -.W M n n n n n n n n n n n n n *.:.~ n n n n n n n n n n n n n -.H M n n n n n n n n n n n n n *.;.~ n n n n m ",
"m m m m m m m m 1 ! _ m m m m m m m m m m m m N K.P > N m m m m m m m m m m m m > ! ! m m m m m m m m m m m m N K.P > N m m m V "
};
