/* XPM */
static char *_51e8135771e438de9cdeecb9fe6f8a9b3yMlobaResmVcaQ[] = {
/* columns rows colors chars-per-pixel */
"64 64 249 2 ",
"   c #0A0300",
".  c #0D0A04",
"X  c #130B02",
"o  c #1C0D04",
"O  c #1B0A08",
"+  c #181204",
"@  c #15110D",
"#  c #1C130A",
"$  c #1C190C",
"%  c #070E16",
"&  c #191615",
"*  c #260803",
"=  c #261604",
"-  c #22140C",
";  c #24190E",
":  c #391509",
">  c #250B11",
",  c #261617",
"<  c #251B12",
"1  c #2A1B13",
"2  c #371313",
"3  c #193519",
"4  c #1A351B",
"5  c #27251A",
"6  c #362C1C",
"7  c #233B1A",
"8  c #101B22",
"9  c #2B1723",
"0  c #172D25",
"q  c #1A3424",
"w  c #2A2725",
"e  c #382927",
"r  c #243927",
"t  c #383627",
"y  c #48190A",
"u  c #5B1701",
"i  c #4A1816",
"p  c #46291B",
"a  c #512912",
"s  c #6F2D15",
"d  c #693517",
"f  c #511F2D",
"g  c #582A26",
"h  c #46322D",
"j  c #473A2C",
"k  c #57392A",
"l  c #533E33",
"z  c #6C2C2A",
"x  c #683727",
"c  c #763B28",
"v  c #294119",
"b  c #384C1E",
"n  c #3E501E",
"m  c #2B4225",
"M  c #384A29",
"N  c #3A502F",
"B  c #374931",
"V  c #79441D",
"C  c #49492A",
"Z  c #485728",
"A  c #535A2C",
"S  c #4D4833",
"D  c #584536",
"F  c #5B463A",
"G  c #475833",
"H  c #585435",
"J  c #64462C",
"K  c #684939",
"L  c #724E3C",
"P  c #7A4939",
"I  c #69573C",
"U  c #78543B",
"Y  c #58652C",
"T  c #5A6735",
"R  c #566A36",
"E  c #626C2E",
"W  c #676A38",
"Q  c #71693D",
"!  c #677537",
"~  c #727B3A",
"^  c #2E2A43",
"/  c #5F4642",
"(  c #664B44",
")  c #695547",
"_  c #785846",
"`  c #7A504C",
"'  c #79634A",
"]  c #6E7A40",
"[  c #7E685B",
"{  c #7B6A60",
"}  c #853C32",
"|  c #96531B",
" . c #8E4F2C",
".. c #894538",
"X. c #844E3B",
"o. c #86553A",
"O. c #955939",
"+. c #A75B38",
"@. c #B75E38",
"#. c #9A6F35",
"$. c #986239",
"%. c #A6683D",
"&. c #B8683C",
"*. c #B2733D",
"=. c #C6693E",
"-. c #C1723D",
";. c #8A5A46",
":. c #8A5748",
">. c #89574F",
",. c #975D46",
"<. c #A65C48",
"1. c #B15E4E",
"2. c #876449",
"3. c #936547",
"4. c #9B6246",
"5. c #95644A",
"6. c #9D644B",
"7. c #94714E",
"8. c #876956",
"9. c #996756",
"0. c #966A53",
"q. c #997359",
"w. c #A2654D",
"e. c #A76848",
"r. c #AD6B4C",
"t. c #B96541",
"y. c #B46A43",
"u. c #BC6C44",
"i. c #B6644B",
"p. c #B26D4D",
"a. c #BA694A",
"s. c #A97448",
"d. c #B27245",
"f. c #BD7143",
"g. c #B5764B",
"h. c #BE724B",
"j. c #A56B52",
"k. c #AC6C53",
"l. c #A96857",
"z. c #B86757",
"x. c #B26D53",
"c. c #BC6C52",
"v. c #B36D5A",
"b. c #A57555",
"n. c #AB7458",
"m. c #AB7A59",
"M. c #B47253",
"N. c #BA7454",
"B. c #B87B56",
"V. c #B5745A",
"C. c #B9755C",
"Z. c #BB7A5C",
"A. c #907667",
"S. c #B86961",
"D. c #AA7867",
"F. c #B57767",
"G. c #BB7363",
"H. c #BD7C62",
"J. c #C26D44",
"K. c #C26D49",
"L. c #C27345",
"P. c #C4744B",
"I. c #C9764B",
"U. c #C5794A",
"Y. c #CA7B4C",
"T. c #C26D58",
"R. c #C67A52",
"E. c #CB7B54",
"W. c #C67758",
"Q. c #CC7D5A",
"!. c #D17A54",
"~. c #C26A64",
"^. c #C77765",
"/. c #C37D63",
"(. c #C77A71",
"). c #78853B",
"_. c #798542",
"`. c #7F9145",
"'. c #808D3F",
"]. c #828D44",
"[. c #889745",
"{. c #929E48",
"}. c #AD835B",
"|. c #BA855B",
" X c #B8925D",
".X c #93A247",
"XX c #95A44A",
"oX c #9DAC4C",
"OX c #A1B04D",
"+X c #9C806C",
"@X c #988A79",
"#X c #A68568",
"$X c #B48566",
"%X c #B98667",
"&X c #A88A74",
"*X c #B78C72",
"=X c #A9947E",
"-X c #BA9477",
";X c #C8814C",
":X c #C98359",
">X c #D28454",
",X c #D3845C",
"<X c #D68A5B",
"1X c #C9935A",
"2X c #D39A5E",
"3X c #E2925D",
"4X c #C18B65",
"5X c #C88668",
"6X c #C58D6A",
"7X c #D88660",
"8X c #DC8B64",
"9X c #D58A69",
"0X c #C49264",
"qX c #CA936C",
"wX c #D59E67",
"eX c #D49768",
"rX c #C78B72",
"tX c #D38D75",
"yX c #CD9572",
"uX c #CD9974",
"iX c #C6987A",
"pX c #D19A75",
"aX c #D89678",
"sX c #D49C7A",
"dX c #E5936C",
"fX c #E49A6B",
"gX c #E79873",
"hX c #ED9C75",
"jX c #CEA466",
"kX c #DBA36A",
"lX c #D9A478",
"zX c #E6A774",
"xX c #F3A47A",
"cX c #AA9B85",
"vX c #B99983",
"bX c #D08E80",
"nX c #C69B82",
"mX c #D99B83",
"MX c #C9A489",
"NX c #CEA98E",
"BX c #D6AC8C",
"VX c #CEAD91",
"CX c #D0AD91",
"ZX c #D5B79A",
"AX c #D4B99B",
"SX c #E6A585",
"DX c #EFB188",
"FX c #D9BFA0",
"GX c #DAC0A0",
/* pixels */
"# yXL.r.5X8X,X,.- uXL.r.C.u.P.6.- 6XY.M.C.u.t.j.- uXU.r.M.u.h.,.= iXN.d.5X9X5X$.- uXL.r.C.u.P.6.- 6XY.M.C.u.t.j.$ yXL.p.j.P.u.r.",
"X %X>XZ.5Xu.R.w.- pXU.p.M.u.P.w.; qXY.M.H.R.h.j.O pXY.r.x.P.E.k.= rXQ.;X5Xc.W.e.- pXU.p.M.u.P.w.; qXY.M.H.E.h.j.# uXY.p.j.P.P.G.",
"# 4X;XaX5X&.u.k.- pXU.p.k.u.P.j.; yXY.M.H.7XE.w.O pXY.r.C.!.,Xn.= 5XQ.eX:Xi.c.s.- pXU.p.k.u.P.j.; yXY.M.H.7XR.w.# uXI.p.n.<X,XH.",
"- qXL.aXM.E.u.w.- yXL.p.x.E.P.j.- yXU.p.H.dXE.6.- yXL.r.5X8X,X4.= yXP.eXg.W.a.e.- yXL.p.x.E.P.j.- yXU.p.H.dXE.6.# qXJ.p.Z.eX>Xk.",
"X uXU.:Xr.E.P.,.; yXf.p.V.8XR.j.- uXL.M.Z.gXE.6.- yXL.r.H.E.E.,.= sXE.:Xe.W.R.$.; yXf.p.V.8XR.j.- uXL.M.Z.gXE.6.$ qXL.p.V.,XP.r.",
"X uX>Xr.V.u.R.w.; qXf.M.V.hXR.j.- pXL.M.C.dXE.6.- pXY.M.M.t.P.j.+ sX,Xe.B.i.W.e.; qXu.x.V.hXR.j.- pXL.M.C.dXE.6.$ uXY.N.j.f.u.C.",
"@ iX%.k.H.y.+.j.; qXL.M.V.hXP.j.- pXL.C.M.8XP.j.- yXY.Z.H.u.u.j.; iXe.e.|.i.<.j.; qXL.M.V.hXP.j.- pXL.B.M.8XP.j.$ 6XY.W.V.f.&.C.",
"& *Xs V.n.N.s 9.- yXU.N.M.hXu.w.- uXu.N.r.,Xu.w.; 6XL.5XaXE.u.4.< *Xs B.n.C.s 5.- yXU.N.M.hXu.w.- uXu.N.r.,Xu.w.< 4XJ.5XrX:Xu.k.",
"o q.%X%X|.%X}.|.# sXL.r.M.hXI.w.< <Xu.F.W.t.5Xe.9 |.U.H.qXL.^.6.= D.%X|.}.%X}.|.# sXf.r.M.hXI.w.< <Xu.F.W.t.5X&.9 :XU.%X<XI.k.M.",
"% % ; = < + <   # qXU.p.V.7XP.4.# <XP.P <.a...O.> 1XL.H.zXY.T.6.% & # + ; . ;   # qXU.p.V.7XI.4.# <XR.P <.a...O.& 8XL.%XfX!.k.M.",
"> ` ..} ..:.1...- 4X>XB.Z.P.P.4.$ zXN.k H./.s n.O kX-.C.zXU.W.j.> ` ..} ..:.w...- 4X>XB.Z.P.P.4.$ zXN.k H./.s n.@ fXf.F.hXI.x.N.",
"* ;.u <./.l.s w.- 4X>X9XZ.u.P.w.% V d / z x K g - kX&.x.5X&.W.e.: ;.u +.5Xn.s w.- 4X>X9XZ.u.P.w.% V d / z x K g & fX&.n.,X=.M.g.",
"& @Xx 6.D.9.x 9.- qX;XgXV.u.J.j.% d a e : i p ; - 1XL.v.g.+.^.$., &Xx 6.D.9.x 9.- qX;XgXV.u.J.j.8 d y e : i p ; @ <XL.n.K.&.C.p.",
"* mXdXK.i.T.tXi.- uXL.aXC.u.u.j.8 sX;.> >.9.2 >.- 1X>Xv.B.u.^.e.* mXdXJ.t.c.9Xi.- uXL.aXC.u.u.j.8 sX;.> >.9.2 >.@ <XE.D.h.P.V.M.",
"= }.g.&.Y.%.U.| # pX*.9X5Xu.J.w.& eXM.K ,.N.:.w.& qXQ.:.B.h.<.6.: }.g.&.Y.%.U.| # pX*.9X5Xu.J.w.& eXM.K ,.c.:.w.& eXQ.;.N.E.O.M.",
"X NXG.a.C.l.v.v.- pXf.:XtXu.P.w.- 3XP.D.e.+.W.&.& jXp.g ,.O.x 3.= NXH.i.C.v.C.M.- pXf.:XtXu.P.w.- 3XI.rXE.@.Q.&.@ aXp.g r.a.d r.",
"o yXL.SXx.u.,X,.@ xXy.j.P.I.x.<.- yX4.l j D o.;., s.o.j t j D U # qX&.DX,.y.:X,.. xXy.j.P.I.z.<.- yXU.5X5X&.u.4.1 q.9.>.2.q.` 5.",
"X pXY.5Xr.P.hXj.5 ;Xf.rXu.J.5Xr.- 6XO.l H W Q _ @ y 1 C Z W T 6 # yXU.n.D K 4X6.5 ;Xf.rXu.J.5Xr.; qXL.:XtXP.E.j.O : : i * * 2 * ",
"o qXL.zXZ.P.,Xk.. fXf.c e.+.c O.1 qX%.L H W ~ I w &Xe Z Y ).].Q t 0.4.' ~ Q 2.;.. fXu.c %.+.c O.1 qXf.M.SXP.L.w.w vXP : ;.` f ;.",
"# yX&.SXZ.u.&.w.& DX5XK mXtX;.*X; qXf.;.D A ! A 5 ) w Z Y ~ ]._.B D J W {.].H L & pX3.j 8.8.F 8.< qXL.g.SXu.u.6.X -X6.s O.9.` 6.",
"X pXL.Z.M.P.P.w.8 s P ) P P ( k o q.$.L S M Z M 4 r 0 M Z Y ~ ! B t A ).oX[.S D 8 a j C S H H C < %XU.M.SXu.P.j.i %X5X^.h.M.G.B.",
"o 4X>Xe.tXu.P.w.8 V a , : y : : < D D S B m q 0 0 r m N m M Y Z M G ).XXoX[.N r w C T ! `.[._.H 5 $XU.g.aXu.P.w.: qXh.i.<XQ.1.f.",
"# 4XU.N.SXP.&.w.& zX .2 P ,.k K 6 C T _._.R m 0 r G )._.G m M M N R XXoXOX].N r C ! [..XoXXX~ I < yXL.r.Z.u.E.4.* uXN.a.<X9X^.&.",
"X lX&.g.H.dXu.j.; >Xy.9.w.W.,.X.5 C W XX.X~ A N M B ~ XX].G m m Z ! [.oXoX`.N M ! [.oXOXoX~ I X.- pX&.r.M.E.8Xk.> iXg.W.fXW.w.g.",
"X uXL.M.V.xXE.<.o lXu.M.5X7Xu.6.# 2.U W ~ E Z b m q Y ).{.`.R M Z E ! ).~ G m b Z Y ! [.] ' O.6.o qXY.M.V.dXxXj.+ yXY.N.mXh.u.C.",
"+ yXI.N.n.7XP.r.- pXL.M.aXE.u.j.1 %XO.t M M r 4 q q Y E ).[.! N Z E E E A r 4 7 v v b W ' r.y.j.1 yXY.r.r.E.8X4.# yXI.M.sXh.u.v.",
"# qXI.x.k.f.u.k.; 6XU.M.mXK.u.j.- m.U S G G N m q 0 Z Y E ).R B M Y Y Y M q 4 4 4 4 4 t _ o.%.j.- 6XU.r.w.u.E.,.$ yXL.p.rXh.h.v.",
"# qXI.p.V.u.P.r.; qXL.M.rXu.u.6.< 8.Q ].].`.).Y m q v Z Y E Z r 7 Z Z M q 4 4 4 q r B B H H U ;.- pX<X5X5X,X8XF.$ yXL.p.H.u.a.v.",
"X yXI.p.H.R.E.w.# pXL.x.V.P.u.;.< ) _..XXX.X).E Z 7 4 v Z Y N q 4 v m r r m m r m G ! _._._.Q I < yX<X5XtX,X7XH.# uXL.p.n.t.a.x.",
". uXL.Z.5X:XQ.<.o sXf.p.w.P.P.;.5 C ~ ).).~ ! Y Y Z 7 4 v b m q 4 4 4 M R ] R N M A )..XoXoX].Q 6 m.u.g.V.u.u.6.# uXL.x.k.f.P.v.",
". sXL.9X%XP.P.w.# yXU.M.k.u.P.;.< t C C Z Z A Y Y Y b 4 4 4 4 4 4 4 m E XXoXXX] N M Y ).'.'.{.].H 8.%.p.H.P.P.6.$ uXL.N.n.R.Q.v.",
"X lXL.aXH.y.&.j.; 4XY.M.H.&.P.5.# F k l t 7 M Z Z Z Z v 4 4 4 4 4 4 n ~ XXoXOXXXR m Z Z A A ~ .X_.I X.M.rX,XE.j.$ yX&.N.V.9X7Xv.",
"* bXc.gXE.T.<.i.- qX&.N.M.E.,Xw., 0XP.>.t w 7 7 7 7 7 4 0 4 4 4 4 7 b ! [..XoXXXR r r 0 t j W _.! H o.v.s.xXi.%.$ qXE.x.*.9X^.d.",
"  -XB.f.y.g.|.e.; pXL.M.Z.8X,Xw.O 1Xh.>.j l t 0 0 0 0 0 0 0 0 t C j r M Y ! [.{.R S ) j ;.Z.2.S w D o.l.g.xXR.%.+ 6XE.x.*.W.z.d.",
"+ NX|.&.h.B.s.e.- yXU.r.Z.dXP.4.2 1XI.9.l L U J J J J J J J J L 2.0.' ) B B T ! G S _ j ,.8Xy.o.1 s.u.(.e.dX9X$.+ qXW.Z.g.h.z.d.",
"X iX .@.a.x.s e.- yXU.e.Z.hXu.6.O kXu.:.D ;.7.3.3.3.3.3.3.3.3.q.$X-X*X#X' ) S B H 8.q.l 5.gXu.5.O wXu.l.B.>Xi.%.$ uXW./.1Xh.z.g.",
"1 vX,.tXbXbX9.iX- pXY.e.Z.hXP.j.; 1XP.5.D 2.b.b.b.b.b.b.b.b.b.$XiXMXMXnX*X#X' ) 8.*X#XD 5.gXP.j.; 1XP.G.e.P.^.e.$ qXT.W.eXh.z.d.",
". h k J k k K p - yXU.r.V.8XL.j.w |.E.0.D 2.m.m.m.m.m.m.m.m.m.$XiXNXNXNXMXnX&X#X*XMX&XF ,.7XL.j.w |.E.F.e.a.~.4.o uXa.N.kXh.z.d.",
"  t k y p p k : o qXL.Z.M.Y.P.6.. lXy.g K _ 0.m.m.m.m.m.m.m.m.$XiXNXNXNXNXNXMXMXMXnXA.) 5.U.P.6.. lXy.z V.y.s 6.o pXK.N.zXh.S.d.",
"* 9...} v.F.,.k.- yXU.5XV.u.P.6.w |.p.:.L ) _ 0.0.0.0.0.0.0.0.q.&XvXvXvXvXvXvXvXvX&X' 0.k.u.P.6.w |.p.:.4.x...;.+ lXK.M.kXp.S.d.",
"@ w.u 5.G.i.d :.1 uXU.aXV.h.y.j.% p 2 9 e ) _ F F F F F F F F ( ' { { { { { { { { A.A.8.w.h.y.j.% p 2 9 # 9 9 + - 6X/.C.t./.9.a.",
"@ aXg.n.G.a.$.F.; 4XL.SXk.u.R.6.w *XP e l 8.A.8.[ [ [ [ [ [ [ A.@X@X@X@X@X@X@X@X@XcX=X( ;.y.R.6.w *XP p K ` f J = 5Xp./.J.y.*XJ.",
"  aX>X5.C.u.B.l.= eXL.gXZ.u.R.w.o pXO.g l 2.$X*X*X*X*X*X*X*X*X-XVXAXAXAXAXAXAXAXAXCX&X/ 5.y.R.w.o pXO.s o.<.z $.= aXR.x.!.e.F.J.",
"# 9Xf.e.^.J.B.<.o SX-.5X5Xu.u.j.= eXR.;.l ;.m.m.m.m.m.m.m.m.m.%XnXCXCXCXCXCXCXCXVXNX&XF j.y.u.j.= eXR.V.%.^.~.d.o qX%Xc t.j.P +.",
"+ aXY.6XT.@.g.r.= pX-.:XH.u.P.w.- |.W.q.D 2.m.m.m.m.m.m.m.m.n.$XiXNXNXNXNXCXCXCXCXNX&XF 5.y.P.w.- |.W.rXd.T.~.$.e *X#X` V.D.` n.",
"  aXY.lXc.J.1Xx.1 |.U.W.k.a.:X6.< yXW.j.I _ b.m.m.m.m.m.m.m.m.%XnXNXNXNXZXAXZXAXZXMXD.( ;.a.:X6.< yXW.5XqXc.S.s.  J i p a 2 e y ",
". aXU.lXW.!.lXz.< 6XP.4.j.N.e.9.# qXc.6.7.L 2.b.m.m.m.m.m.m.$X-XMXNXNXCXAXAXAXAXCX=X8.L 5.N.e.9.# qXc.k.kXc.S.s.& 5.g p s g e d ",
"@ 5Xf.lXc.+.:X<.X BXd.d F.p.s 9.1 5XW.N.1XK _ b.m.m.m.m.m.m.$X-XMXNXNXZXAXAXFXAXVX+XK d F.p.s 9.1 5XW.N.zXR.^.$.; uX;.: P A.2 4.",
"X yXI.9Xn.h.u.k.5 #.|.D.#X}.*X}.o sXL.r.rXK _ b.m.m.m.m.m.m.m.$XiXNXNXVXAXFXAXAXCX+XK 9.#X}.*X}.o sXL.r.SXP.u.,.& eXu.<.s.&.c.M.",
"+ qXI.5X%Xh.u.k.% a y 9 = : i * O yXf.M.rXP _ 0.b.m.m.m.m.m.m.$X-XMXNXZXAXAXAXZXvX8.p , = : i * O yXf.M.mXP.P.j.@ eXP.v.|.h.c.p.",
"# yXL.N.yXh.u.r.^ &Xc f ( P g ( - yXL.M.5X+.U L 0.m.m.m.m.m.m.m.$X-XNXNXZXGXZXvX8.[ x f ( P g ( - yXL.M.5Xt.P.w.& eXI.G.qXR.T.r.",
"+ sXJ.p.yX7Xh.w.  jX .x o.e.c 2.- yXL.M.C.u.N.L D 0.b.b.b.b.b.b.b.D.*XMXMXNXvX8.w  X .x o.e.c 2.- yXL.M.C.K.,X6.& eXK.G.qXR.T.p.",
"  BX&.p.%XgXP.w.- 2X;XH.s.>XQ.%.o yXL.M.V.,XgX0.6 K F F F F F D D F ( ) ) ' _ _ < 1X;XH.s.>XQ.%.o yXL.M.V.7XhXn.& qXK.G.qXR.c.p.",
"  BXJ.x.V.aXE.w., :Xu.(.5XE.T.e.o sXL.M.x.7XhXj.; 2.o._ 8.o.U K 1 8.U L _ 0.4.;., :Xu.(.5XE.T.e.o sXL.M.x.7XhXj.@ qXP.^.eXR.c.r.",
"X sXL.N.n.E.P.w., pXu.S.SXE.i.k.- sXf.M.k.P.E.4.- %Xh.r.6Xy.y.,.- %Xh.e.j.h.h.6., pXu.S.SXE.i.k.- sXf.M.k.P.E.4.& qXP.G.qXL.c.x.",
"# 6XI.N.V.&.P.r.@ jX;XM.2X-.h.$.O pX&.B.x.u.h.j.1 qXU.r.5Xu.a.j.1 %X>XM.V.&.P.j.@ jX;XM.2X-.h.$.O pX&.B.x.u.h.j.& qXJ.v.|.y.a.N.",
"X uXc.w.1X9X(.$.; yXL.p.Z.t.P.w.- qXL.N.x.K.&.j.O sXu.r.V.t.R.,.+ sXh.%.5X9XW.$.; yXL.p.Z.t.P.w.- qXL.N.x.K.&.j.$ yXL.p.j.P.u.r.",
"# 4XQ.W.2Xa.~.%.- yXL.M.V.t.P.j.; yXU.N.V.E.u.j.o sXU.r.M.u.Q.j.= rXE.;XeXa.R.j.- yXL.M.V.t.P.j.; yXU.N.V.E.u.j.# uXY.p.j.P.P.G.",
"X 4X,X9Xd.t.~.$.- yXU.x.x.u.h.j.; yXU.M.H.8XR.w.# yXY.r.C.,X,Xn.= 5X!.<Xg.i.c.$.- yXU.M.x.u.h.j.; yXU.M.H.8XR.w.# uXI.p.n.<X,XH.",
"- qXQ.SX*.W.~.%.- yXL.p.x.E.P.j.- yXL.M.H.dXE.6.- 6XY.r./.dXE.6.= yXP.zXd.W.E.$.- yXL.p.x.E.P.j.- yXL.M.H.dXE.6.# qXJ.p.Z.eX>Xk.",
"- |.T.tX*.a.~.%.; yXf.p.V.8XE.j.- yXL.p.H.dXE.4.; 6XY.r.Z.,XP.4.= %Xu.eXg.T.R.e.; yXf.p.V.8XE.j.- yXL.p.H.dXE.4.$ qXL.p.V.,XP.r.",
"  qX5Xw.*.i.(.$.; yXf.p.V.hXE.j.- pXU.M.H.dXE.6.- yXE.M.x.u.u.j.X iX:X%.s.a.^.4.; yXf.p.V.hXE.j.- pXU.M.H.dXE.6.$ yXY.N.j.f.u.C.",
"X BXC.6.g.W.S.$.- yXU.M.V.xXP.w.- yXU.M.V.7XP.w.- uXU.Z.H.&.P.j.+ NXN.%.B.~.r.6.- yXU.M.V.xXP.w.- yXU.M.V.7XP.w.$ qXY.W.V.f.&.C.",
"& #Xu l.g.<.i $.- yXY.M.x.hXP.6.- yXL.M.M.E.u.w.- yX&.5XaXP.P.,.; *Xu s.B.<.u 5.- yXY.M.x.hXP.6.- yXL.M.M.E.u.w.< 4XJ.5XrX:Xu.k."
};
