/* XPM */
static char *da9609913ce24d36a7f8b62ba2b15834ijo26WJR3ffVrWNo[] = {
/* columns rows colors chars-per-pixel */
"64 64 249 2 ",
"   c #0B0602",
".  c #170B05",
"X  c #1C0D04",
"o  c #181204",
"O  c #15110E",
"+  c #1C130A",
"@  c #1C190C",
"#  c #070E16",
"$  c #191615",
"%  c #1C1B19",
"&  c #260803",
"*  c #261604",
"=  c #22140C",
"-  c #24190E",
";  c #391509",
":  c #261915",
">  c #331112",
",  c #2A2519",
"<  c #332012",
"1  c #0F1A22",
"2  c #2D1724",
"3  c #1B2722",
"4  c #2B2425",
"5  c #37282A",
"6  c #35342A",
"7  c #531805",
"8  c #4A1816",
"9  c #482A1A",
"0  c #512710",
"q  c #6F2B0A",
"w  c #672B1C",
"e  c #693517",
"r  c #77381B",
"t  c #511F2D",
"y  c #4F2B29",
"u  c #5A3728",
"i  c #58392A",
"p  c #663827",
"a  c #6B302E",
"s  c #773B28",
"d  c #364319",
"f  c #32482E",
"g  c #295738",
"h  c #396B29",
"j  c #3D782C",
"k  c #356F38",
"l  c #79441D",
"z  c #4D4D31",
"x  c #684D2F",
"c  c #68493A",
"v  c #7B4635",
"b  c #7A4939",
"n  c #456B2A",
"m  c #596B36",
"M  c #4B7636",
"N  c #6B703A",
"B  c #37384C",
"V  c #374E48",
"C  c #316A43",
"Z  c #3E4766",
"A  c #544A4F",
"S  c #734F49",
"D  c #4D6C49",
"F  c #766B47",
"G  c #7A7A48",
"H  c #484B66",
"J  c #575468",
"K  c #495473",
"L  c #505670",
"P  c #665966",
"I  c #5D657C",
"U  c #706973",
"Y  c #853C32",
"T  c #924D1C",
"R  c #894928",
"E  c #984C28",
"W  c #894538",
"Q  c #8D5534",
"!  c #955738",
"~  c #A7552D",
"^  c #AC5B35",
"/  c #B65D34",
"(  c #8C6D3C",
")  c #9A6F35",
"_  c #986239",
"`  c #A56A3D",
"'  c #B8673C",
"]  c #B2733D",
"[  c #C7683B",
"{  c #C6703D",
"}  c #885A46",
"|  c #8A574A",
" . c #88554E",
".. c #965B47",
"X. c #995E46",
"o. c #A65D47",
"O. c #B15E4E",
"+. c #876646",
"@. c #9B6246",
"#. c #9D644B",
"$. c #96684B",
"%. c #996756",
"&. c #986A56",
"*. c #8F7452",
"=. c #A76847",
"-. c #A2654D",
";. c #AD6B4C",
":. c #B96541",
">. c #BC6C44",
",. c #B26D4D",
"<. c #B86849",
"1. c #AA7449",
"2. c #BD7143",
"3. c #B47449",
"4. c #BE724B",
"5. c #A56B52",
"6. c #AC6C53",
"7. c #A96958",
"8. c #B26D53",
"9. c #BC6C52",
"0. c #B56B59",
"q. c #AC7255",
"w. c #A97659",
"e. c #B47253",
"r. c #BA7454",
"t. c #B97B56",
"y. c #B5745A",
"u. c #B9755C",
"i. c #BB7A5C",
"p. c #8A6D6C",
"a. c #B86961",
"s. c #A97869",
"d. c #B57767",
"f. c #B97463",
"g. c #BD7C62",
"h. c #C26D44",
"j. c #C26E49",
"k. c #C27345",
"l. c #C4744B",
"z. c #C9764B",
"x. c #C5794A",
"c. c #CA7B4C",
"v. c #D5764A",
"b. c #C26D57",
"n. c #C67A52",
"m. c #CB7B54",
"M. c #C87858",
"N. c #C26A64",
"B. c #C57A64",
"V. c #C77A71",
"C. c #468736",
"Z. c #548C37",
"A. c #4D993A",
"S. c #639B3E",
"D. c #58A93B",
"F. c #6BB53A",
"G. c #6DC739",
"H. c #74CD36",
"J. c #77D438",
"K. c #7FE134",
"L. c #3F8B47",
"P. c #478B48",
"I. c #528B48",
"U. c #4A9746",
"Y. c #5B954E",
"T. c #6D8B51",
"R. c #56AA45",
"E. c #57A44B",
"W. c #5AB547",
"Q. c #5DBB4A",
"!. c #6CAE4A",
"~. c #6A9E60",
"^. c #67C847",
"/. c #62C44C",
"(. c #6ED142",
"). c #71D241",
"_. c #81DC33",
"`. c #84E231",
"'. c #878452",
"]. c #988557",
"[. c #AD835B",
"{. c #BA855B",
"}. c #95906B",
"|. c #AD8D6D",
" X c #B98667",
".X c #B98768",
"XX c #B78971",
"oX c #B9A77A",
"OX c #C9814C",
"+X c #C9835A",
"@X c #D28454",
"#X c #D3845C",
"$X c #D68A5B",
"%X c #C8935A",
"&X c #D39A5E",
"*X c #E2925D",
"=X c #C18B65",
"-X c #C78768",
";X c #D88660",
":X c #DC8B64",
">X c #D48B6A",
",X c #C6916D",
"<X c #CA936C",
"1X c #D49768",
"2X c #C98C72",
"3X c #D38D75",
"4X c #C69677",
"5X c #CD9572",
"6X c #CD9974",
"7X c #D19A75",
"8X c #D89679",
"9X c #D49C7A",
"0X c #E5936C",
"qX c #E49A6B",
"wX c #E79874",
"eX c #ED9C75",
"rX c #D5A36A",
"tX c #D9A478",
"yX c #E6A773",
"uX c #F3A47A",
"iX c #586582",
"pX c #6C7690",
"aX c #74839A",
"sX c #7D8DA8",
"dX c #B7988A",
"fX c #8291A8",
"gX c #8998B1",
"hX c #A99FA6",
"jX c #8EA0B9",
"kX c #93A5BE",
"lX c #9AA6BD",
"zX c #CE9584",
"xX c #DA9B82",
"cX c #D4A88B",
"vX c #E5A485",
"bX c #EFB188",
"nX c #E8C5B3",
"mX c #99AAC2",
"MX c #A7B7CC",
"NX c #B1BFD3",
"BX c #B9C6D8",
"VX c #C5C7D1",
"CX c #CECFD5",
"ZX c #C1CCDC",
"AX c #CDD6E2",
"SX c #D0D7E1",
"DX c #DDE1E6",
"FX c #EDEFF0",
"GX c #F6F5F3",
/* pixels */
"+ 5Xk.;.-X:X#XX.= 6Xk.;.u.>.l.#.= ,Xc.e.u.>.:.5.= 6Xx.;.e.>.4.X.* 4Xr.3.-X>X-X_ = 6Xk.;.u.>.l.#.= ,Xc.e.u.>.:.5.@ 5Xk.,.-.l.>.;.",
".  X@Xi.-X>.n.-.= 7Xx.,.e.>.l.-.- <Xc.e.g.n.4.5.X 7Xc.;.8.l.m.6.* 2Xm.OX-X9.M.=.= 7Xx.,.e.>.l.-.- <Xc.e.g.M.4.5.+ 6Xc.,.-.l.l.f.",
"+ =XOX8X-X' >.6.= 7Xx.,.6.>.l.5.- 5Xc.e.g.;Xm.-.X 7Xc.;.u.m.#Xw.* -Xm.1X+X<.9.1.= 7Xx.,.6.>.l.5.- 5Xc.e.g.;Xn.-.+ 6Xz.,.q.$X#Xg.",
"= <Xk.8Xe.m.>.-.= 5Xk.,.8.m.l.5.= 5Xx.,.g.0Xm.#.= 4X4.;.-X:X#X@.* 5Xl.1X3.M.<.=.= 5Xk.,.8.m.l.5.= 5Xx.,.g.0Xm.#.+ <Xh.,.i.1X@X6.",
". 6Xx.+X;.m.l.X.- 5X2.,.y.:Xn.5.= 6Xk.e.i.wXm.#., T.I.*.g.m.m.X.* 9XM.+X=.M.n._ - 5X2.,.y.:Xn.5.= 6Xk.e.i.wXm.#.@ <Xk.,.y.#Xl.;.",
". 6X@X;.y.>.n.-.- <X2.e.y.eXn.5.= 7Xk.e.u.0Xm.#., I.F.!.'.:.l.5.o 9X#X=.t.<.M.=.- <X>.8.y.eXn.5.= 7Xk.e.u.0Xm.#.@ 6Xc.r.-.2.>.u.",
"O 4X` 6.g.<.^ 5.- <Xk.e.y.eXl.5.= 7Xk.u.e.:Xl.5., I.J.G.~.4.>.5.- 4X=.=.{.<.o.-.- <Xk.e.y.eXl.5.= 7Xk.t.e.:Xl.5.@ ,Xc.M.y.2.' u.",
"$ XXq y.w.r.r %.= 5Xx.r.e.eX>.-.= 6X>.r.;.#X>.-., I.H.G.~.{.>.@.: XXq t.w.u.r $.= 5Xx.r.e.eX>.-.= 6X>.r.;.#X>.-.: =Xh.-X2X+X>.6.",
"X *. X X{. X[.{.+ 9Xk.;.e.eXz.-.: $X>.d.M.:.-X=.6 I.Q.J.J.Y. X#.* s. X{.[. X[.{.+ 9X2.;.e.eXz.-.: $X>.d.M.:.-X' 2 +Xx. X$Xz.6.e.",
"# # - * : o :   + <Xx.,.y.;Xl.@.+ $Xl.b o.4.W ! , I.W.J.J.P.T.*.# $ + o -   -   + <Xx.,.y.;Xz.@.+ $Xn.b o.<.W ! $ :Xk. XqXm.6.e.",
"= S W Y W | O.W = =X@Xt.i.l.l.@.@ yXr.i g.B.w w., I.Q.(.H.F.U.*.= S W F F F -.W = =X@Xt.i.l.l.@.@ yXr.i g.B.w w.O qX] d.eXv.8.r.",
"& } 7 o.B.7.r -.= =X@X>Xi.>.l.-.# l e A a p c 9 , I.R./.(.`.U.*.; } x !.R.Y.b -.= =X@X>Xi.>.l.-.# l e A a p c y $ qX' w.#X[ e.3.",
"$ }.p #.s.%.p %.= <XOXwXy.>.h.5.# e 0 5 ; 8 y - , n A.W.(._.U.G 2 }.Y.J.H.W.D &.= <XOXwXy.>.h.5.1 e 0 5 ; 8 y - O $Xk.w.j.' u.,.",
"& xX0Xj.O.b.3X<.= 6Xk.8Xu.>.>.5.1 9X} =  .%.<  ., n A.W./.^.U.*.6 !._.).R.T.=X<.= 6Xk.8Xu.>.>.5.1 9X} =  .%.<  .O $Xm.s.4.l.y.e.",
"* [.3.' c.` x.T + 7X] >X-X>.h.-.$ 1Xe.c X.r.| -., n A.W././.U.Y.S.J.H.A.N ( x.T + 7X] >X-X>.h.-.$ 1Xe.c X.9.| -.$ 1Xm.} r.m.! e.",
". cXf.<.u.7.0.0.= 7X2.+X3X>.l.-.= *Xz.2XM./ m.' : '.Z.A.W.U.P.U.^.J.D.N $.0.u.e.= 7X2.+X3X>.l.-.= *Xz.2XM./ m.' O 8X,.y ;.<.e ;.",
"X 5Xk.vX8.>.#X..O uX<.5.l.z.8.o.= 5Xx.-X-X' >.@.: 1.m C.C.g C R./.W.h 4X;.l.#X..  uX<.5.l.z.0.o.= 5Xx.-X-X' >.@.: *.%. .+.*.S $.",
". 7Xc.-X;.l.eX5., OX2.2X>.h.-X;.= <Xk.+X3Xl.m.5.$ 0 M k h h g U.Q.A.n  X;.l.uX-., OX2.2X>.h.-X;.- <Xk.+X3Xl.m.5.X ; ; 8 & & > & ",
"X <Xk.yXi.l.#X6.  qX2.s =.^ s ! : <X2.e.vXl.].Y.P.~.U.L.P.R.C k j M 1.8X-X>.:X5.  qX2.s =.^ s ! : <X2.e.vXl.k.-.4 dXb ; } S t } ",
"+ 5X' vXi.>.' -.$ bX-Xc xX3X} XX- <Xk.3.vX].!.G.G.G.G.Q.R.U.g D d ].' vXg.>.>.#.$ bX-Xc xX3X} XX- <Xk.3.vX>.>.#.. XX#.w ! %.S #.",
". 7Xk.i.e.l.l.-.1 q b S b b S i X <Xx.q.oX!.H.`.`.K.K.H.R.k g F + 9X2.-X;.l.l.-.1 q b S b b S i X <Xx.e.vX>.l.5.8  X-XB.4.e.f.t.",
"X =X@X=.3X>.l.-.3 l 0 : ; 8 ; ; X 5Xx.].E.J.)././././.W.C.h g +.: XXt.q..X3.3.$.3 l 0 : ; 8 ; ; X 5Xx.3.8X>.l.-.; <X4.O.$Xm.O.2.",
"+ =Xx.r.vXl.' -.$ yXR < b X.p ..= 7X].!._.(.^././.R.R.C.j P.C F f I.Y.Y.Y.Y.Y.Y.f yXR > b X.p ..= 7Xk.;.i.>.m.@.& 6Xr.<.$X>XB.' ",
". tX' 3.g.0X>.5.- @X<.%.-.M.#.o.- }.!.J.)./.Q.R.R.j j G |.].C D M E.Q.Q.^.J.J.J.Z.T.T.&.-.r.#.o.= 7X' ;.e.m.:Xq.= 4X3.M.qXM.-.3.",
". 6Xk.e.y.uXm.o.X tX>.e.-X;X>.5.f ~.^.G.A.A.C.C.M G ( 1.xXl.+.D k C.A.A.D.J.J.J.G.R.I.'..X;X>.5.X <Xc.e.y.0XuX5.o 5Xc.r.xX4.>.u.",
"o 5Xz.r.q.;Xl.;.= 7Xk.e.8Xm.>.5.D E.W.E.m m N m f ,Xx.e.8XM.4.A g m m m M A.R.W.G.F.T.T.4Xm.>.5.: 5Xc.;.;.m.:X@.+ 5Xz.e.9X4.>.0.",
"+ <Xz.8.6.2.>.6.- ,Xx.e.xXj.>.5., G n N 5.>.n.@.: <Xk.,.2Xl.l.D f ,Xc.e.F n n n h G x.e.8Xj.>.5.= ,Xx.;.-.>.m.X.@ 5Xk.,.2X4.4.0.",
"+ <Xz.,.y.>.l.;.- <Xk.e.2X>.>.5.= ,X{..X-X#X:Xd.- <Xk.;.g.j.l.D f ,Xc.;.q.=.=.$., .Xk.e.2X>.>.5.= 7X$X-X-X#X:Xd.@ 5Xk.,.g.>.<.0.",
". 5Xz.,.g.n.m.-.+ 7Xk.8.y.l.>.#.= 7X$X-X3X#X#Xg.= 6X].T.T.G T.D f <Xx.,.B.m.l.#.+ 7Xk.e.y.l.>.#.= 7X$X-X3X#X;Xg.+ 6Xk.,.q.:.<.8.",
"  6Xk.i.-X+Xm.o.X 9X2.,.-.l.l.#.+ <Xk.,.y.>.>.$.6 }.!.D.D.D.P.C g ].].].].[.m.#.X 9X2.,.-.l.l.#.= <Xk.3.y.>.>.#.+ 6Xk.8.6.2.l.0.",
"  9Xk.>X Xl.l.-.+ 5Xx.e.6.>.l.-.- 7Xk.,.g.l.n.}.U.A.J.`.`.J.U.L.C g P.U.U.T.1.$.= 5Xx.e.6.>.l.-.: 7Xk.,.g.l.l.#.@ 6Xk.r.q.n.m.0.",
". tXk.8Xg.<.' 5.- =Xc.e.g.' l.5.X 5Xk.e.2X#X'.!.`.`.(.^.^.^.R.P.C g W.J.`.H.I.I.d =Xc.e.g.' l.5.X 5Xk.e.2X#Xm.-.@ 5X' r.y.>X#X0.",
"& zX9.wXM.b.o.<.= <X' r.e.m.#X-.: <Xn.0.1.}.F.J.(.(.W.Q././.R.C.k C U.^.(.H.H.J.Z.].' r.e.m.#X-.: <Xn.0.1.uX<.` @ <XM.8.] >XB.3.",
"  XXt.2.<.3.{.=.- 7Xk.e.i.:X#X-.X %X4.7.'.E.G.)././.Q.W.W.E.C.N f C k R.Q.^.J.J.G.!.*.e.i.:X#X-.X %X4.7.3.uXn.` o ,XM.8.] M.0.3.",
"o cX{.' 4.t.1.=.= 5Xx.;.i.0Xl.@.< %Xz.s.P.Q./.Q.Q.Q.Q.R.C.M m *.6 C m Z.R././.Q.J.H.S.*.i.0Xl.@.< %Xz.V.=.0X>X_ o <XM.i.3.4.0.3.",
". 4XR / <.8.q =.= 5Xx.=.i.eX>.#.X rX>.&.M W.R.A.A.A.A.C.n m =.5.4 D Q N C.R.Q.R.W.H.J.I.w.eX>.#.X rX>.7.t.@X<.` @ 6XM.B.%X4.0.3.",
"< dX..3XzXzX%.4X= 7Xc.=.i.eXl.5.- %Xl.f.$.m h h h h h '.4X3.>.-.6 D ..5X'.M R.A.R.W.^.P.w.eXl.5.- %Xl.f.=.l.B.=.@ <Xb.M.1X4.0.3.",
"  y i x i i c 9 = 5Xx.;.y.:Xk.5.4 {.m.d.=.#.&.+.6 ].( w.8Xl.>.5.4 g i x z z j j j C.C.j *.:Xk.5.4 {.m.d.=.<.N.@.o 6X<.r.rX4.0.3.",
"  6 i 8 9 9 i ; X <Xk.i.e.c.l.#.  tX:.a y.:.w #.- 7X' e.xXl.k.5.3 g i 0 9 9 z d d G N N 5.c.l.#.  tX:.a y.:.w #.o 7Xj.r.yX4.a.3.",
"& %.W Y 0.d.X.6.= 5Xx.-Xy.>.l.#.4 {.,.| @.8.W } X 7X3.w.zX,.;.$.6 V S  .%.p.$.5.= 5Xx.-Xy.>.l.#.4 {.,.| @.8.W } o tXj.e.rX,.a.3.",
"O -.7 $.f.<.e | : 6Xx.8Xy.4.<.5.# 9 > 2 + 2 2 o % <XP H H H H V V H H H H H A } : 5Xx.8Xy.4.<.5.# 9 > 2 + 2 2 o = ,XB.u.:.B.%.4.",
"O 8X3.w.f.<._ d.- =Xk.vX6.>.n.#.4 XXb y c S t c B P | v u p Q z z ..! p u u i A B p.k.vX6.>.n.#.4 XXb y c S t x * -X,.B.h.<.XXh.",
"  8X@X$.u.>.t.7.* 1Xk.wXi.>.n.-.X 7X! w Q o.a U iXA ! ~ R E [ c z R / E E ~ R i I U | 8Xi.>.n.-.X 7X! w Q o.a _ * 8Xn.8.v.=.d.h.",
"+ >X2.=.B.h.t.o.X vX{ -X-X>.>.5.* 1Xn.y.` B.P I p.R / [ [ ' { c z R ' [ [ [ ^ R p.pXJ =X-X>.>.5.* 1Xn.y.` B.N.3.X <X Xs :.5.b ^ ",
"o 8Xc.,Xb./ 3.;.* 7X{ +Xg.>.l.-.= {.M.2X3.b.p.U =./ { v.[ ^ / z z / v.v.' ^ / / ' p.U  Xg.>.l.-.= {.M.2X3.b.N._ 5 XX|.S y.s.S q.",
"  8Xc.tX9.h.%X8.: {.x.M.6.<.+X#.: 5XM.-X<X9.p.pXhX' / E r r ~ z z / v.E r R v.' |.fXU g.6.<.+X#.: 5XM.-X<X9.a.1.  x 8 9 0 < 5 0 ",
"  8Xx.tXM.m.tX0.: ,Xl.@.5.r.=.%.+ <X9.6.rX<.p.pXlXhX} R ~ ' { R u R R r w r ' dXlXsXU #.5.r.=.%.+ <X9.6.rX9.a.1.$ $.y y w y 5 e ",
"O -X2.tX9.^ +Xo.. cX3.e d.,.q %.: 2XM.r.yXn.p.pXmXBXdXdX4X^ ~ ~ E E E E 5.dXcXVXMXsXU p d.,.q %.: -XM.r.yXn.B._ - 6X} ; b p.< @.",
". 5Xz.>Xq.4.>.6., ) {.s.|.[.XX[.X 9Xk.;.vXl.p.pXmXBXFXGXCX+.} =X0X0X0X0XnXGXFXZXMXsXU s.|.[.XX[.X 9Xk.;.vXl.>.X.$ 1X>.o.1.' 9.e.",
"o <Xz.-X X4.>.6.# 0 8 2 * ; 8 & X 5X2.e.xXl.p.pXkXmXBXZXSXFXFXGXGXGXGXGXDXZXBXmXkXsXL 5 * ; 8 & X 5X2.e.xXl.l.5.O 1Xl.0.{.4.9.,.",
"+ 5Xk.r.5X4.>.;.B |.s t S b y S = 5Xk.e.-X:.P iXfXkXmXNXZXAXAXAXAXAXAXAXAXBXmXmXgXpXH t S b y S = 5Xk.e.-X:.l.-.$ 1Xz.f.<Xn.b.;.",
"o 9Xh.,.5X;X4.-.  rXR p Q =.s +.= 5Xk.e.u.j.d.U iXfXjXMXZXZXBXBXBXBXZXZXZXBXkXgXpXU S p Q =.s +.= 5Xk.e.u.j.#X#.$ 1Xj.f.<Xn.b.,.",
"  cX' ,. XwXl.-.= &XOXg.1.@Xm.` X 5Xk.e.y.;XeXp.K aXjXMXNXBXBXZXZXZXZXBXNXMXkXsXL U OXg.1.@Xm.` X 5Xk.e.y.;XeXw.$ <Xj.f.<Xn.9.,.",
"  cXh.8.y.8Xm.-.: +X>.V.-XM.b.=.X 9Xk.e.8.;XeX&.H pXgXkXkXmXBXBXBXBXBXmXkXkXjXaXL p.>.V.-XM.b.=.X 9Xk.e.8.;XeX5.O <Xl.B.1Xn.9.;.",
". 9Xk.r.q.m.l.-.: 7X>.a.vXm.<.6.= 9X2.e.6.l.m.@.5 L pXgXkXkXmXmXmXmXmXkXkXjXaXK B 6X>.a.vXm.<.6.= 9X2.e.6.l.m.@.$ <Xl.f.<Xk.9.8.",
"+ ,Xz.r.y.' l.;.O rXOXe.&X{ 4._ X 7X' t.8.>.4.5.4 H K pXfXfXfXfXfXfXfXfXfXaXK Z 4 rXOXe.&X{ 4._ X 7X' t.8.>.4.5.$ <Xh.0.{.<.<.r.",
". 6X9.-.%X>XV._ - 5Xk.,.i.:.l.-.= <Xk.r.8.j.' 5.: H K L iXiXiXiXiXiXiXiXiXiXK Z 5 5Xk.,.i.:.l.-.= <Xk.r.8.j.' 5.@ 5Xk.,.-.l.>.;.",
"+ =Xm.M.&X<.N.` = 5Xk.e.y.:.l.5.- 5Xx.r.y.m.>.5.: K iXK Z J P J B P P P J K iXH 5 5Xk.e.y.:.l.5.- 5Xx.r.y.m.>.5.+ 6Xc.,.-.l.l.f.",
". =X#X>X3.:.N._ = 5Xx.8.8.>.4.5.- 5Xx.e.g.:Xn.-., J I L A -X#Xw.- -Xm.$Xp.L iXH 5 5Xx.e.8.>.4.5.- 5Xx.e.g.:Xn.-.+ 6Xz.,.q.$X#Xg.",
"= <Xm.vX] M.N.` = 5Xk.,.8.m.l.5.= 5Xk.e.g.0Xm.#.- XXt.%.d.0Xm.#.* 5Xl.yX1.f.u.+.: 5Xk.,.8.m.l.5.= 5Xk.e.g.0Xm.#.+ <Xh.,.i.1X@X6.",
"= {.b.3X] <.N.` - 5X2.,.y.:Xm.5.= 5Xk.,.g.0Xm.@.- ,Xc.;.i.#Xl.@.*  X>.1X3.b.n.=.- 5X2.,.y.:Xm.5.= 5Xk.,.g.0Xm.@.@ <Xk.,.y.#Xl.;.",
"  <X-X-.] <.V._ - 5X2.,.y.eXm.5.= 7Xx.e.g.0Xm.#.= 5Xm.e.8.>.>.5.. 4X+X` 1.<.B.@.- 5X2.,.y.eXm.5.= 7Xx.e.g.0Xm.#.@ 5Xc.r.-.2.>.u.",
". cXu.#.3.M.a._ = 5Xx.e.y.uXl.-.= 5Xx.e.y.;Xl.-.= 6Xx.i.g.' l.5.o cXr.` t.N.;.#.= 5Xx.e.y.uXl.-.= 5Xx.e.y.;Xl.-.@ <Xc.M.y.2.' u.",
"$ |.7 7.3.o.8 _ = 5Xc.e.8.eXl.#.= 5Xk.e.e.m.>.-.= 5X' -X8Xl.l.X.- XX7 1.t.o.7 $.= 5Xc.e.8.eXl.#.= 5Xk.e.e.m.>.-.: =Xh.-X2X+X>.6."
};
