/* XPM */
static char *floor_overlay__1_1695914225[] = {
/* columns rows colors chars-per-pixel */
"64 64 252 2 ",
"   c #0A0300",
".  c #0D0A04",
"X  c #130B02",
"o  c #1B0A07",
"O  c #1C0D04",
"+  c #161104",
"@  c #1C1404",
"#  c #15110E",
"$  c #1C130A",
"%  c #1C190C",
"&  c #070E16",
"*  c #191615",
"=  c #260803",
"-  c #2F0C0F",
";  c #271605",
":  c #22140C",
">  c #24190E",
",  c #391509",
"<  c #251814",
"1  c #2A1B13",
"2  c #361B12",
"3  c #381A19",
"4  c #25221A",
"5  c #372215",
"6  c #3D261E",
"7  c #0F1A22",
"8  c #2D1723",
"9  c #192123",
"0  c #2B2125",
"q  c #3D2824",
"w  c #3E2F31",
"e  c #491A0A",
"r  c #591802",
"t  c #491915",
"y  c #4B220A",
"u  c #55260E",
"i  c #412318",
"p  c #46291C",
"a  c #5B2916",
"s  c #722A0A",
"d  c #6D2D11",
"f  c #682B19",
"g  c #693517",
"h  c #511F2D",
"j  c #422922",
"k  c #452A26",
"l  c #552B26",
"z  c #47302F",
"x  c #54352A",
"c  c #583829",
"v  c #443433",
"b  c #4D3A35",
"n  c #493639",
"m  c #563B38",
"M  c #6C2C29",
"N  c #673828",
"B  c #783527",
"V  c #763B29",
"C  c #683B37",
"Z  c #723733",
"A  c #79441D",
"S  c #5F402F",
"D  c #5B443B",
"F  c #6F442D",
"G  c #654337",
"H  c #69493A",
"J  c #764938",
"K  c #7A4939",
"L  c #2E2A43",
"P  c #4C3A45",
"I  c #583E48",
"U  c #683D44",
"Y  c #5D4449",
"T  c #574657",
"R  c #5C4554",
"E  c #5B4A5C",
"W  c #4F5352",
"Q  c #664746",
"!  c #724E47",
"~  c #78594B",
"^  c #634C5A",
"/  c #69535C",
"(  c #785658",
")  c #7C614E",
"_  c #6C6159",
"`  c #5D4E64",
"'  c #5F5067",
"]  c #604F63",
"[  c #625064",
"{  c #6A5462",
"}  c #745763",
"|  c #636864",
" . c #832E0D",
".. c #8A320E",
"X. c #97350C",
"o. c #9B350A",
"O. c #852E1E",
"+. c #8D2F1D",
"@. c #88371A",
"#. c #8E301E",
"$. c #993C13",
"%. c #A53707",
"&. c #A73807",
"*. c #A83807",
"=. c #A43708",
"-. c #A5390A",
";. c #A13C11",
":. c #8A3322",
">. c #883626",
",. c #8B382A",
"<. c #9A4B1C",
"1. c #A5481E",
"2. c #8D4C2B",
"3. c #9A482E",
"4. c #894736",
"5. c #875439",
"6. c #955839",
"7. c #A85029",
"8. c #A95B37",
"9. c #B55D36",
"0. c #9A6F35",
"q. c #986239",
"w. c #A4693D",
"e. c #B4643D",
"r. c #B96A3D",
"t. c #B2733C",
"y. c #C2703D",
"u. c #895747",
"i. c #8A5A46",
"p. c #995E46",
"a. c #905249",
"s. c #955D4A",
"d. c #855952",
"f. c #A65C47",
"g. c #B15E4E",
"h. c #8B6749",
"j. c #9B6246",
"k. c #966448",
"l. c #9D644B",
"z. c #866756",
"x. c #956656",
"c. c #9A6755",
"v. c #977559",
"b. c #A76748",
"n. c #A2654D",
"m. c #AD6B4C",
"M. c #B56747",
"N. c #B96541",
"B. c #BC6C44",
"V. c #B26D4D",
"C. c #BC6C4B",
"Z. c #AA7347",
"A. c #B27245",
"S. c #BD7143",
"D. c #B3724C",
"F. c #BE724B",
"G. c #B87A4A",
"H. c #A56B52",
"J. c #AC6C53",
"K. c #A96857",
"L. c #B86757",
"P. c #B26D53",
"I. c #BC6C52",
"U. c #B36D5A",
"Y. c #AC7255",
"T. c #A9755A",
"R. c #B47253",
"E. c #BA7454",
"W. c #BA7B55",
"Q. c #B5745A",
"!. c #B9755C",
"~. c #BB7A5C",
"^. c #895E61",
"/. c #8F6D65",
"(. c #B06462",
"). c #B86961",
"_. c #A97667",
"`. c #B57767",
"'. c #BB7363",
"]. c #B27D61",
"[. c #BD7C62",
"{. c #A57971",
"}. c #C26D44",
"|. c #C26D49",
" X c #C27345",
".X c #C4744B",
"XX c #C9764B",
"oX c #C5794A",
"OX c #CA7B4C",
"+X c #C26D57",
"@X c #C67A52",
"#X c #CB7B54",
"$X c #C67758",
"%X c #CC7D5A",
"&X c #D27952",
"*X c #C26A64",
"=X c #C77765",
"-X c #C37D63",
";X c #C77A71",
":X c #AD835B",
">X c #B78658",
",X c #BC845D",
"<X c #9A8474",
"1X c #AA8766",
"2X c #BB8566",
"3X c #B68868",
"4X c #B8926D",
"5X c #A88B75",
"6X c #BD8470",
"7X c #B78971",
"8X c #BA9772",
"9X c #C9814C",
"0X c #C98259",
"qX c #D28454",
"wX c #D3845C",
"eX c #D68A5A",
"rX c #C9935A",
"tX c #D39A5E",
"yX c #E2925D",
"uX c #C78768",
"iX c #C58D6A",
"pX c #D88660",
"aX c #DC8B64",
"sX c #D48B6A",
"dX c #CA936C",
"fX c #D09566",
"gX c #D49768",
"hX c #C98C72",
"jX c #D38D75",
"kX c #CD9572",
"lX c #C59A75",
"zX c #CD9974",
"xX c #DB9676",
"cX c #D19A75",
"vX c #D69579",
"bX c #D49C7A",
"nX c #E18F69",
"mX c #E5936C",
"MX c #E49A6B",
"NX c #E79773",
"BX c #ED9C75",
"VX c #CCA36D",
"CX c #DBA36A",
"ZX c #D9A478",
"AX c #E6A773",
"SX c #F3A47A",
"DX c #B99786",
"FX c #CE9383",
"GX c #DA9B82",
"HX c #D6A889",
"JX c #E6A485",
"KX c #EFB188",
/* pixels */
"$ kX Xm.-XaXwXp.: zX Xm.!.B..Xl.: iXOXR.!.B.e.H.$ kXoXm.R.B.F.p.; lXD.A.uXsXuX6.: zX Xm.!.B..Xl.> iXOXR.E.B.N.H.% kX XV.n..XB.m.",
"X 2X0X~.uXB.@Xn.: cXoXV.R.B..Xn.< dXOXR.[.@Xm.k.: kXOXm.J.oX#XJ.= hX0X9XfXC.$Xb.> cXoXV.R.B.B.n.> dXOXR.[.$X.XH.$ kXOXV.H.oX.X).",
"$ iX9XxXuXr.B.J.: cXoXV.J.B..XH.> kXOXR.[.wXp.G 1 7XF.b.Q.#X0XT.1 uX@XfX0XM.I.Z.$ zXF.m.H.f.6.u.> kXOXR.[.pX@Xb.$ zX.XV.Y.eXwX[.",
": dXF.NXR.#XB.l.: kX XV.P.#X.XH.: kXoXV.[.mXj.m v D G H x.:X3X1Xv.3XY.T.i.b.b.k.< ].6.5.H G 6.x.: kX.XV.[.mX#Xl.$ kX}.V.~.gX0XJ.",
"X zXoX0Xm.#XoXp.> kXS.V.!.aX@XH.: zX XR.~.NXF.J v b ~ v.4X8X8XlX8XVX8Xz.b b m b z b v v n s.F.H.: zX XR.~.NX#Xl.% dX.XV.Q.wX.Xm.",
"X zXqXm.Q.B.@Xn.< dXS.R.Q.BX@XH.: cX XR.!.aX@Xu.q Y <X8X4X4X8X4X1X1X4X) b v v v v v b G d.mX@XH.: cX XR.!.mX#Xl.% zXOXE.H.r.B.!.",
"# lXw.J.[.M.8.H.> dX XR.!.BX.XH.: cX X'.V.M.3.,.B ! <X8X8X1X<X<X<X:X8Xz.D Q D b z c F p.Y.BX.XH.: cX XW.E.aX.XH.% iXOX$XQ.S.r.!.",
"* 7Xs Q.T.E.B l.: kXoXE.R.BXB.n.: kXB.E.f.8.:.:.2.v.4XVX8X1X:Xv.1XVX8X1X~ :Xz.J B #.#.#.>.I.e.n.: zXB.E.m.wXB.n.> iX}.uXhX0XB.J.",
"X v.3X2X>X2X:X>X$ bX Xm.R.BXXXn.> eXB.`.$X8.4.>.5.4XVXVXVX1X1XVXlX8X4X1X1X1Xl.2.+.#.#.#.,.=XXXb.< eXB.`.+XN.uXN.8 0XoX2XeXOXJ.R.",
"& 7 > > < X <   $ dXoXV.Q.wX.Xj.$ eX.XK f.M.Z K :X8X5X) D D D ) ) z.) ) v.u.,.:.+.+.#.,.n.wXXXj.% eX.XK f.I.4.6.* aX.X2XMX%XJ.R.",
"= ! 4.,.4.a.g.4.: iXqXW.~..X.Xj.% AXE.c [.[.M v.1X~ S w v v w w w D ) 1X4.:.+.#.:.:.3.V.~..X.Xj.% AXE.x [.-Xf T.# MXr.`.BX&XP.E.",
"= u.r f.-XK.B n.: 2XqXsX~.B..Xn.7 A g Y M N H N V B ) ) ) _ _ Q ~ :X8Xh.,.#.#.#.O.3..XsX~.B..Xn.7 A g Y M N H l * MXr.T.&Xy.R.D.",
"* <XN n._.c.N c.$ dX9XBXQ.B.}.H.& g u q , t j 2 a :.5.Y D D v.4X1X4Xb.>.#.#.+.O.Z ! c.xXQ.B.}.H.7 g e q , t k < # eX XQ.|.r.!.V.",
"= FXNX|.g.+XjXM.: zXoXxX!.B.B.H.7 bXi.: d.x.3 d.t >.H D w D z.8X4Xv.:.+.#.#.O.Z ^ ] / `.E.B.B.H.7 cXd.: d.c.3 d.# eX#X_..X.X!.P.",
"; 1XG.r.oXw.oX<.$ bXt.sXuXB.}.n.* gXP.G p.E.a.p.6 B N z v b ) <Xv.4.+.+.#.O.C ^ ` ` ] _.uXB.B.n.* gXP.H p.I.a.n.* gX%Xu.E.#X6.R.",
"o HX).C.!.K.Q.U.: cXB.uXjXB..Xn.: nXXXhX#X9.%Xf.w Z O.K Y W _ {.v.>.+.+.@.C ^ ` ` ` { d.jXC..Xn.: yX.XhX#X9.%Xe.# vXV.l b.C.g m.",
"O dX XJXU.B.wXs.# SXA.H..X.XP.f.: kXoXuXuXe.B.i.n Z +.4./ W | DXn.+.#.#.O.U T ` ' ' [ { C..XL.f.: kX.XuXuXe.B.j.1 v.c.d.i.v.( j.",
"X vXOXdXm.oXBXH.4 oXB.iXB.}.uXm.: dX X0XjX.X#Xs.z B +.! W W | z.,.+.#.#.>.U T T ` ' [ [ j.}.uXm.> dXS.0XjX.X#XH.$ , , t = = - = ",
"O dX XSX!..XwXJ.. MXS.V b.8.V 6.1 dXB.R.AX.XF.d.P Z #.d.| | | l.,.#.+.B U E ` T T ' ' ' d.8.V 6.< kXS.R.JX.X Xn.0 DXK - u.d.l a.",
"O kXe.JX~.B.e.n.* KXfXG GXjXi.7X< dX XD.JXB.M.( T U :.d.W | z.4.#.:.B R ` ` ` ` T ` ' ' } `.u.6X> dX XD.JXB.B.l.  8Xn.f 6.c.! l.",
"X zX X~.R..X.Xn.7 d J / K K Q c O dXoXR.JX}.m.( ` U B C W W C :.O.Z ^ ' ` ' ' ` T Y ` ` ` Q Q c O dXoXR.JX}..XH.t 3X-X=XF.R.'.W.",
"O uX0XA.jXB..Xn.9 A a < , e , , O dXoXD.GXC.n.{ ` R Z m W Y B >.U ] ' ' ' ' ' ` P m R ` ' m 3 , O kXoXD.vXB..Xn.- fX Xg.wX%Xg.S.",
"$ iXoXE.JX.Xe.n.* AX2.3 K p.N s.> cX Xm.'.M.x.` ` T C S W C Z U ` ' ' ' ' ' ' ` w 6XH T ` ^ C a.: cX Xm.~.B.#Xl.= zXR.I.eXsX=XM.",
"X ZXr.D.[.mXB.H.> qXM.c.n.$Xn.f.: cXr.m.J.c.} ` T E Q C m C U ` ` ' ' ' ' ' ' ` P D.u.E ` ^ ~ f.: cXr.m.R.#XaXY.: kXD.$XMX%Xl.G.",
"X zX XR.Q.SX#Xf.o ZXB.R.uXpX}.H.O dXOXR.K./.{ ` T T ] C m I ` ` ` ' ' ' ' ' ' ` w 1X! ` ` ] s.c.= dXOXR.Q.mXSXH.X kXOXE.GXF.B.!.",
"X kXXXE.Y.wX.Xm.: cX XR.vX#XB.H.1 kXOXm.m.x.} ] ` T ` I I ` ` ] ' ' ' ' ' ' ` ` T ( [ [ ' ( b.H.1 dXOXm.m.#XaXj.$ kXXXR.bX.XB.U.",
"$ dXXXP.J.S.B.J.< iX.XR.GX|.B.H.> iX.XV.n.p.( ` ` T ` I ` ` ' ' ' ' ' ' ' ` ` ` T ` ' ' [ d.M.H.> iX.Xm.n.B.#Xj.% kX XV.hXF.F.U.",
"$ dXXXV.Q.B..XK.> dX XR.hXB.B.H.: cXeXuXhX~.^.` ` ` ' ' ' ' ' ' ' ' ' ' ' ` ` ` ` ' ' ' } b.N.H.> zXeXhXuXwXaX`.% kX XV.-XB.C.U.",
"X kXXXV.[.@X#Xn.$ cX XP.Q..XB.l.: cXeXsXjX$X/.^ P T ' ' ' ' ' ' ' ' ' ' T I P P I T ' ^ z.F.B.l.: kXeXhXjXwXpX[.@ zX XV.Y.N.C.U.",
". kX X[.uX%X%Xf.O bXS.V.n..X.Xl.$ dX XV.Q.M.s.Y P P ` ' ' ' ' ' ' ' ` I z k k w k v T ( s..X.Xl.: dX XD.Q.B.B.l.$ zX XP.J.B..XU.",
". bX XgX2X.X.Xn.$ dXoXR.J.B..Xn.> cX XV.[..Xl.Y v P ' ' ' ' ' ' ' ' ` n q i q q 6 k m x.K.}..Xn.1 cX XV.%XF..Xl.% zX.XE.J.@X%XU.",
"X ZX XxX[.M.e.H.> iXOXR.[.e..XH.O kX XR.hXwXV.H v I ' ' ' ' ' ' ' ' ` P q 6 6 q q k Q n.[.e..XH.= dX XR.hXwX#XH.% kXr.E.Q.sXeXU.",
"= FXI.NX@X+Xf.M.> dXr.E.R.#XwXn.< dX@XU.Z.SXf.F P ' ' ' ' ' ' ' ' ' ` T w q q q q P ^ x.P.#XwXn.< dX@XU.D.SXM.w.% dX$XV.t.sX=XA.",
"  8XW.S.M.D.,Xj.> cX XR.!.aXwXn.o rXF.K.D.SXI.~ T ' ' ' ' ' ' ' ' ' ` ` T P n v P E ^ ( !.aXwXn.o fXF.J.D.SX@Xw.+ iX$XP.t.$XL.A.",
"@ HX>Xr. XW.Z.m.: kXoXm.~.mX.Xj.3 rX.X;Xb.mX`.( ` ' ' ' [ ' ' ' ' ' ' ' ' ` ` T ` ` ] / Y.nX.Xj.3 rX.X;Xb.mXsXq.+ dX$X[.G.F.L.A.",
"o lX2.9.C.P.s M.> kX Xb.~.BXB.l.: CXB.J.W.qXs./ ` ' ' ' ' ' ' ' ' ' ' ' ' ' ' ' ' ' [ ] x.NXB.l.O CXB.K.W.wXM.0.% zX%X=XrXF.L.G.",
"2 DXs.jXjXFXc.lX: cXOXb.~.BXoXH.< rX.X'.b.V.^.[ ' ' ' ' ' ' ' ' ' ' ' ' ' ' ' ' ' ' ' ] ( xXoXH.< rX|.'.b..X=Xb.% dX+X$XfXF.L.A.",
"  v c G c c H p : kX.Xb.Q.aX XH.0 ,X#X`.l.l.} ] ' ' ' ' ' ' ' ' ' ' ' ' ' ' ' ' ' ' ' ' / [.B.H.0 >X$X`.b.|.*Xk.$ kXC.E.CXF.L.A.",
"  w c e p p c , O dX X~.P.OXoXl.. ZXM.M U.d.T ' ' ' ' ' ' ' ' ' ' ' ' ' ' ' ' ' ' ' ' [ ] s.C.l.X ZXM.M Q.M.f l.@ cX|.E.AXF.).A.",
"= x.4.,.U.`.p.J.: kXOXuXQ.B.oXl.0 ,Xb.a.u.( ] ' ' ' ' ' ' ' ' ' ' ' ' ' ' ' ' ' ' ' ' ] ` ( m.l.0 >XV.a.j.V.4.u.+ ZX|.D.CXV.).A.",
"# n.r k.'.M.g a.< zXoXvX!.F.M.H.& i - 8 0 T ` ` ' ' ' ' ' ' ' ' ' ' ' ' ' ' ' ' ' ' ' ' [ ] s.l.& p - 8 : 8 8 + : iX-X!.N.-Xc.C.",
"# cXD.T.'.C.q.`.> iX XAXJ.C.#Xl.0 6XK k Q ] ` ' [ ] ' ' ' ' ' [ ' ' ' ' ' ' ' ' ' [ ' ' ^ / H.s.0 7XK k H ! h F ; uXV.-X}.M.7X}.",
"  vX0Xk.!.B.W.K.; fXoXNX~.B.OXn.O cX6.f 5.d.U / T [ ` ' ' ` ` ] ' [ ' ' ` ' ' ` ` [ / ^.d.n.E.n.O vX6.f 5.f.Z 6.; xXoXP.&Xb.`.}.",
"$ sXS.b.=X}.~.f.@ JXr.iXhXB.B.H.; fX.XQ.w.'.(.l.0 /.Q U R ^ R R T ^ E T R R Q ! w {.l.].uXB.B.H.; gX+XE.w.=X*XA.O dX3XV r.H.K 8.",
"+ xXOXiX+X9.G.K.; cXy.0X[.B..Xl.> ,X$XhXA.I.*Xw.0 ].4.g g B B V l d.F N B B B 5.> kXr.0X2XB..Xn.: ,X$XhXA.E.*Xq.q 6X1X! I._.( Y.",
". vXOXZXI.}.rXP.1 ,XoX$XK.C.0Xl.> kX$XuXdXI.L.Z.& g d  .....X.s y ~.$.....X.$.3.2 ,XoX$XJ.C.0Xl.> kX$XuXdXI.L.Z.  F t p a 3 q y ",
". xXoXZX$X%XZXL.> iX.Xj.J.E.e.x.$ kXI.K.CXC.).Z.9 5.d o.o.=.=.X.e $X1.-.X.o.&.7.1 dX.Xj.H.E.e.x.$ kXI.J.CXC.).Z.* k.l k f l w g ",
"$ uXS.ZXI.8.0Xf.X HXA.g `.V.s c.1 hX$XE.AX.X=Xq.* gX2.o.=.=.&.X.a W.1.*.=.%.&.1.= HXA.g `.V.s x.1 uX%XR.AX$X=Xq.> zXi., K /.3 p.",
"X kXXXsXY.F.B.J.4 0.,X_.1X:X7X:XO bX.Xm.JX.XB.j.> iX8.o.*.&.&.1.u ~.7.&.%.=.-.1.5 0.2X`.1X:X7X:XO bX.Xm.JXXXB.p.* gXB.f.Z.e.I.R.",
"+ dX.XuX2X.XB.J.& u e 3 ; , t = O kXS.R.vX.X.XH.> dXe.o.-.*.&.;.u ,X9.%.*.=.-.1.: u e 8 ; , t = o kXB.R.GX|..XH.# gX.XU.2XF.I.V.",
"$ kX XE.kXC.B.n.L 5XV h Q J l Q : kX XR.uXN..Xn.> dXr.$.*.*.&.;.a W.9.=.*.*.*.1.z 5XF l Q K l Q : kX XR.hXe..Xn.* gXXX=XdX@X+Xm.",
"+ bX}.V.kXpX.Xn.  VX2.N 5.b.V i.: kX XR.'.|.wXl.> iXB.$.-.*.&.-.u 2X8.-.*.*.*.$., VX2.g 5.b.B h.: kX XR.!.|.wXl.* gX|.).fX@X+XV.",
"  HXr.V.2XNX.Xn.> gX9X[.Z.qX%Xw.O kX XR.!.pXBXT.$ iXt.$.o.=.&.o.s uX8.o.*.*.*.$.r rX9X-XZ.qX%Xw.O kX XR.Q.pXBXT.* dX|.'.dX@XE.V.",
"  HX}.P.!.xX#Xn.< 0XB.;XuXOXI.b.O bX XR.U.pXBXJ.: 2X8.$.X.X.o.o.s W.e.$.%.*.*.o.a W.B.;X-X@X+Xb.O bX XP.P.pXBXH.# fX.X=XgX@XI.m.",
"X bX XE.Y.#X.Xn.< bXB.L.JX#XM.J.< bXS.V.H. XoX5.> p.@.X.X.X...X.s b.e.X.%.*.*.o.d ,XB.).JX#XM.J.: bXS.E.J..X#Xj.* dX.X'.fX.XI.P.",
": iXXXE.Q.r..XH.# VX9XR.tX XF.q.O dX8.b.u.5.J G 5 c a f f d d f a 6.e.$.%.%.%.o.s >X9XR.tX XF.q.O cXr.W.P.B..XH.% dX}.Q.>XM.M.E.",
"X cXI.n.rXsX;Xq.> dX XV.~.N..Xl.> h.J N c x l p 6 p 6 p p j p p 5 v.8.X.o.=.o.o.s R. XV.~.N..Xn.: dX XE.P.|.r.H.% zX XV.n.oXB.n.",
"$ 2X%X$XtXC.*Xb.: zX XR.Q.N..Xl.4 x p j j j j j 6 x x x c N F G > _.M.@....... .a Y. XR.Q.N..XH.> kXoXE.Q.#XB.H.$ zXOXV.H.oX.X'.",
"X iXpXsXA.r.*Xq.: kXoXP.U.B.F.l.1 i.J J K i.5.H > x.6.u.s.P.E.c.; -XC.F a f a a i c.S.R.P.B.F.H.> kXoXR.[.aX@Xn.$ zXoXV.Y.eXwX[.",
"> dX#XJXt.$X+Xw.: kX XV.P.#X.XH.$ iXr.m.!.sXF.p.: 2XOXV.-XmX#Xl.; dXb.N j 6 q 6 6 H w.V.P.@X.XH.> kX XR.[.mX#Xl.$ dX}.V.~.gX#XJ.",
"$ ,X+XjXt.C.).b.> kXS.V.Q.aX#XH.: kX XV.~.mX%Xj.> iXOXm.~.wX.Xj.; ].6.x j q j p 6 x K m.Q.aX#XH.: kX XV.[.mX#Xj.% dX XV.Q.wX.Xb.",
"  dXuXn.t.M.;Xq.> kXS.V.Q.BX#XH.: cX.XR.[.mX#Xl.: zX#XR.J.B.B.H.X lXD.k j 6 q 6 6 z F A.Q.BX#XH.: cXoXP.[.mX#Xl.% kXOXE.H.S.B.!.",
"X HX!.l.G.=XL.q.: kX.XR.Q.SXoXn.: kXoXR.Q.pX.Xn.: zXoX~.[.N..XH.+ HXZ.F x k j j 6 S 5.P.Q.SX.Xn.> kXoXR.Q.wX.Xn.% dXOX$XQ. Xr.!.",
"* 1Xr K.G.f.t q.: kXOXR.P.BX.Xl.> kX XR.D.%XB.n.: kXy.uXvX.X.Xs.> 7Xr k.i.F y G 2 c.A.R.P.BX.Xl.: kX XR.Q.#XB.n.> uX}.uXhX%XB.J."
};
