/* XPM */
static char *cd9621bb9ea74b33c2d591264bbb07dedXuO5obxCp0uC0ri[] = {
/* columns rows colors chars-per-pixel */
"64 64 249 2 ",
"   c #010101",
".  c #0B0504",
"X  c #0B0509",
"o  c #080608",
"O  c #0C0909",
"+  c #140403",
"@  c #130A03",
"#  c #1B0C04",
"$  c #130D0C",
"%  c #1D0C09",
"&  c #07120B",
"*  c #161104",
"=  c #1C1404",
"-  c #15110E",
";  c #1C120B",
":  c #1C190C",
">  c #060512",
",  c #130C13",
"<  c #151213",
"1  c #1A1515",
"2  c #1F1719",
"3  c #270505",
"4  c #250904",
"5  c #370505",
"6  c #271606",
"7  c #22140C",
"8  c #24190E",
"9  c #38150A",
"0  c #2E0C13",
"q  c #241511",
"w  c #271615",
"e  c #251A12",
"r  c #2C1B13",
"t  c #261C1D",
"y  c #291D1D",
"u  c #341E15",
"i  c #381916",
"p  c #092D07",
"a  c #083806",
"s  c #2A211A",
"d  c #372419",
"f  c #0F0421",
"g  c #140629",
"h  c #13142A",
"j  c #281C21",
"k  c #321625",
"l  c #362C2C",
"z  c #470506",
"x  c #530607",
"c  c #48190A",
"v  c #5B1701",
"b  c #4B1616",
"n  c #6E0F0F",
"m  c #452A1C",
"M  c #4A2A1A",
"N  c #552C12",
"B  c #542D1A",
"V  c #6D3011",
"C  c #54192D",
"Z  c #6E0A38",
"A  c #452B23",
"S  c #562A25",
"D  c #4E3423",
"F  c #49332D",
"G  c #523525",
"H  c #563626",
"J  c #5A3A2A",
"K  c #5E393A",
"L  c #6C2B2A",
"P  c #653927",
"I  c #763828",
"U  c #2D512A",
"Y  c #68452C",
"T  c #794629",
"R  c #664737",
"E  c #6D4A30",
"W  c #794934",
"Q  c #7A4939",
"!  c #7B5438",
"~  c #250B4F",
"^  c #271A46",
"/  c #290B5B",
"(  c #2C0B63",
")  c #320E6A",
"_  c #350D77",
"`  c #530A4E",
"'  c #780A51",
"]  c #500C64",
"[  c #650B64",
"{  c #4F514E",
"}  c #734E4A",
"|  c #4D6F4C",
" . c #737373",
".. c #860C0F",
"X. c #89080B",
"o. c #95070A",
"O. c #A6080A",
"+. c #B40909",
"@. c #BD0809",
"#. c #843B07",
"$. c #C60707",
"%. c #C80707",
"&. c #C50709",
"*. c #C30809",
"=. c #96531B",
"-. c #894D2D",
";. c #864A36",
":. c #895739",
">. c #945937",
",. c #A75D39",
"<. c #B75E38",
"1. c #9A6F35",
"2. c #91613C",
"3. c #986239",
"4. c #A7693D",
"5. c #B8683C",
"6. c #AD743B",
"7. c #B9703F",
"8. c #C2703D",
"9. c #890A42",
"0. c #885846",
"q. c #985D46",
"w. c #875550",
"e. c #A65C47",
"r. c #B15E4E",
"t. c #8E6C4E",
"y. c #986447",
"u. c #9D644B",
"i. c #996756",
"p. c #96615E",
"a. c #A76747",
"s. c #A36C44",
"d. c #A2654D",
"f. c #AA654E",
"g. c #AD6B4C",
"h. c #B66747",
"j. c #B96541",
"k. c #BC6C44",
"l. c #B26D4D",
"z. c #BB6D4B",
"x. c #A97349",
"c. c #B27245",
"v. c #BD7143",
"b. c #B3734C",
"n. c #BE724B",
"m. c #B37A4E",
"M. c #B97B4B",
"N. c #A56B52",
"B. c #AC6C53",
"V. c #AA6858",
"C. c #B86757",
"Z. c #B26D53",
"A. c #BC6C52",
"S. c #B36D5A",
"D. c #AB7257",
"F. c #B47253",
"G. c #BA7454",
"H. c #B97C55",
"J. c #B5745A",
"K. c #B9755C",
"L. c #BB7A5C",
"P. c #9A6F68",
"I. c #B86961",
"U. c #AA7769",
"Y. c #B97565",
"T. c #BD7C62",
"R. c #C26D44",
"E. c #C26D49",
"W. c #C27345",
"Q. c #C4744B",
"!. c #C9764B",
"~. c #C5794A",
"^. c #CA7B4C",
"/. c #C26D58",
"(. c #C67A52",
"). c #CB7B54",
"_. c #C87859",
"`. c #D17953",
"'. c #C26A64",
"]. c #C57964",
"[. c #C77A71",
"{. c #AD845A",
"}. c #BB845A",
"|. c #99877B",
" X c #AE8D6E",
".X c #B98667",
"XX c #BA886A",
"oX c #B88A71",
"OX c #C9814C",
"+X c #C88457",
"@X c #D3845C",
"#X c #D58958",
"$X c #C8935A",
"%X c #D8955C",
"&X c #E0955D",
"*X c #E79B5F",
"=X c #E99B5E",
"-X c #C18B65",
";X c #C88668",
":X c #C58D6A",
">X c #D88660",
",X c #D88B67",
"<X c #CA936C",
"1X c #D49768",
"2X c #C98C72",
"3X c #D38D75",
"4X c #CD9572",
"5X c #CD9974",
"6X c #C89678",
"7X c #D19A75",
"8X c #D89678",
"9X c #D49C7A",
"0X c #E59B61",
"qX c #EA9E61",
"wX c #E4956C",
"eX c #EC9B75",
"rX c #D6A368",
"tX c #D9A579",
"yX c #EAA368",
"uX c #F4A363",
"iX c #E7A977",
"pX c #F3A47A",
"aX c #390D83",
"sX c #3B0D8A",
"dX c #3F1081",
"fX c #411188",
"gX c #949596",
"hX c #B2998C",
"jX c #B3A598",
"kX c #B4B5B3",
"lX c #CE9383",
"zX c #D99B82",
"xX c #D6AC8E",
"cX c #E5A585",
"vX c #EAB990",
"bX c #BCC1BC",
"nX c #ECC29E",
"mX c #F0C39D",
"MX c #D8C6B3",
"NX c #EAC7AA",
"BX c #F2D2B6",
"VX c #D2D1D0",
"CX c #F3DCC6",
"ZX c #EEE3D5",
"AX c #F8E8D7",
"SX c #EAEBE6",
"DX c #FAF3EA",
"FX c #F7F9F8",
"GX c #FDFDFD",
/* pixels */
"; 4XW.g.;X,X@Xq.7 5XW.g.K.k.Q.u.7 :X^.F.K.k.j.N.7 5X~.g.F.k.n.q.6 6XG.c.;X,X;X3.7 5XW.g.K.k.Q.u.7 :X^.F.K.k.j.N.: 4XW.l.d.Q.k.f.",
"@ .X+XL.;Xk.(.d.7 7X~.l.F.k.Q.d.8 <X^.F.T.(.n.N.% 7X^.g.Z.Q.).B.6 2X_.OX;XA._.s.7 7X~.l.F.k.Q.d.8 <X^.F.T.).n.N.; 5X^.l.d.Q.Q.Y.",
"; -XOX8X;X5.k.B.7 7X~.W H -.Q.N.8 4X^.F.T.>X).d.% 7X^.g.K.`.@XD.6 ;X_.1X+Xh.A.x.7 7X~.l.B.k.Q.N.8 4X^.F.T.:.P Q ; 5X!.l.D.#X@XT.",
"7 <XW.8XF.).k.d.7 4Xk.u   H Q.N.7 4X~.l.T.wX).u.7 4XW.g.;X,X@Xy.6 4XQ.1Xb._.z.s.7 4XW.l.Z.).Q.N.7 4X~.l.T.m   m ; <XR.l.L.1X+XB.",
"@ 5X~.+Xg.).Q.q.8 4Xk.u   m :.Q 7 5XW.F.L.eX).u.7 4XW.g.T.).).q.6 9X).+Xa._.(.3.8 4Xv.l.J.,X(.N.7 5X5.;.:.u   m : <XW.l.J.@XQ.f.",
"@ 5X#Xg.J.k.(.d.w <Xk.u       $ ; 7XW.F.K.wX).u.7 7X^.F.F.j.Q.N.= 9X@Xa.H.h._.s.w <Xk.Z.J.eX(.N.7 7X-.. o     m : 5X^.G.d.v.k.K.",
"- 6X4.B.T.h.,.N.8 <Xk.u       $ ; <Xk.Z.g.@Xk.u.7 :XW.F.J.j.j.u.7 oX,.s.H.e.q.y.8 .Xk.g.B.wXk.u.7 <X-..       A : :X^._.J.v.5.K.",
"1 oXV J.D.G.I i.7 4XW.u   O t t @ d r r r u r w o s r u d u r w o y # r r r 4 w . d r r r d r w . d r t 2 .   m e -XR.;X2X@Xk.B.",
"# t..X.X}..X{.}.; 9Xk.u   O t t .                                                                   O t t .   M j @X~..X#X!.B.F.",
"> < 8 6 e * e . ; <XW.u   O t t < $ $ $ $ $ $ $ $ $     d E E E E E E E E E w   o $ $ $ $ $ $ $ $ $ 1 t t .   m 1 ,XW..XwX`.B.F.",
"0 } ;.;.;.0.r.;.7 -XOXd   O t y y y y y y y y y j t .   E qXqXqXqXqXqXqXqX0XA   O t j y y y y y y y t t t o   D $ wX7.Y.eX`.Z.G.",
"4 0.v e.].V.I d.7 -XOXJ q w t t t t t t t t t t t t q ; ! qX*X*X*X*X*X*X*X&XJ ; q t t t t t t t t t t t t ; $ i 1 wX7.D.@X8.F.b.",
"1 |.P u.U.i.P i.7 <XOX3XN.T o o t t t t t t t 1 o ; x.+X%X0X*X*X*X*X*X*X*X=X#X$Xy.O . 2 y t t t t t 1 . o i A w - #XW.D.E.5.K.l.",
"4 zXwXE.r./.3Xh.7 5XW.8XK.-.. o t y y t t t y <   $ +X=X=X=X*X*X*X*X*X*X*X*X*XqXs.o   1 y t t t t j 1   @ 0.i w.- #X).U.n.Q.J.F.",
"6 {.M.7.^.4.~.=.; 7Xv.,X;X,.T J $ $ 1 t t < , A ! 0.vXBXvX*X*X*X*X*X=X=X*X0XvXBXxX! ! s $ 1 y t 1 , d A P h.0.d.1 1X_.0.G.).>.F.",
"+ xXY.h.K.V.S.S.7 7Xv.+X3Xk.Q.u..   $ t t o   Y =XyXDXGXBX*X*X*X*X*X*X=X=X0XZXGXAXqX&Xd   O t t O   B 2X).<._.5.- 8Xl.S f.z.V g.",
"# 4XW.cXZ.k.@Xq.- pXh.N.~.!.Z.e.@ y r t t e e ! iXcXVXVXMXiXiXqX*X*X*XqXiXiXMXVXMXiXiXJ e e t e @ d Y ;X;X5.k.y.r t.i.w.t.t.} y.",
"+ 7X^.;Xg.Q.eXN.s OXv.2Xk.R.;Xg.7 -XT o $ m.#XvXDXZXl <  .DXAXiX*X*X*XvXDXDX{ , { DXDXtX%Xy.. @ 7 -Xk.+X3XQ.).N.% 9 9 b 4 4 0 4 ",
"# <XW.iXL.Q.@XB.@ wXv.I a.,.I >.r <XT   $ }.=XmXGXSXl    .GXDXiX*X*X*XvXGXFX{   { FXGXvX=Xs.  o 7 <Xv.F.cXQ.W.d.j hXQ 5 0.} C 0.",
"; 4X5.cXL.k.5.d.1 vX;XR zX3X0.oX; R W :.y.%X=XiXmXvXgXgXjXmXnXyX0X*X*XiXnXnXjXgXjXnXnXiX=X+X:.0.d R -.b.cXk.k.u.+ oXu.L >.i.} u.",
"@ 7XW.L.F.Q.Q.d.h V Q } Q Q } H .   Y uXqX0X=X*X*XyXDXGXBX=XqX=X=X*X*X=X=XqXAXGXAX0X*X0X*X=XuX0Xm   B F.cXk.Q.N.b .X;X].n.F.Y.H.",
"# -X+Xa.3Xk.Q.d.h T N t 9 c 9 9 .   D H.M.%X=X=X=XyXCXAXxXM.}.&X*X*X=X%XH.H.NXAXBXqX*X0X0X%XM.m.d   B b.8Xk.Q.d.5 <Xn.h.#X_.r.v.",
"; -X~.G.cXQ.5.d.1 iX-.i Q q.P q..   . @ 7 +XqX*X0X=XqXyX:.O r +X=X*XqXx.$ $ x.yXyX*X=X*XqXs.$ @ o   B g.L.k.).y.4 5XG.z.#X,X].5.",
"+ tX7.b.T.wXk.N.8 #Xc.i.d._.u.e.o .     $ }.0X0X0X0X0XqX:.  ; +XqX*XqXx.. . s.qX0X0X*X*X=Xy.o     . B g.F.).,XD.0 6Xb._.wX_.d.M.",
"@ 5XW.F.J.pX).e.# tXk.F.;X>Xk.N.# i.P   . A G G G G G G s   ; +XqX=XqXx..   d G G G G G H d   . @ i.4.F.J.wXpXN.* 4X^.G.zXn.k.K.",
"* 4X!.G.D.>XQ.f.7 7XW.F.8X).k.N.r 4X:.                      ; +XqX*XqXx..                     o w 4X^.g.g.).,Xy.; 4X!.F.9Xn.k.S.",
"; <X!.Z.B.v.k.B.w :X~.F.zXE.k.N.7 :X-.    o O O O O O O o   ; +X=X*XqXx..   . O O O O O O .   o ; :X~.g.d.k.).q.: 4XW.l.2Xn.n.S.",
"; <X!.l.J.k.Q.f.8 <XW.F.2Xk.k.N.7 7X>.  o 2 t t t t t t <   ; +X=X=X=Xx..   1 t t t t t t 1   O 7 7X#X;X;X@X,XY.: 4XW.l.T.k.z.S.",
"@ 4X!.l.T.(.).d.; 7XW.Z.J.Q.k.u.7 7X>.. . t t t t t t t <   ; +X*X&X*Xs..   1 t t t t t t 1 . @ 7 7X#X;X3X@X>XT.; 5XW.l.D.j.z.Z.",
"@ 5XW.L.;X@X_.e.# 9Xv.l.d.Q.Q.y.@ D n X.X.4 O O O O O O o   o d m m m s     . O O O O O O 5 X.X.5 A T b.J.k.k.u.; 5XW.Z.B.v.Q.S.",
"@ 9XW.,X.XQ.Q.d.; 4X~.F.B.k.Q.u.o   x %.@.3                                               z &.*.5   M l.T.Q.Q.u.: 5XW.G.D.(._.S.",
"@ tXW.8XT.h.5.N.8 -X^.F.T.5.Q.u..   x &.+.3   q D D D D D D D D D D D D D D D D D D D $   z *.@.5   B F.2X@X).d.: 4X7.G.J.,X>XS.",
"4 lXA.eX)./.e.h.7 <X7.G.F.).@Xy.X   x &.+.3   Y 0X0X0X0X0X0X0X0X0X0X0X0X0X0X0X0X*X0X%Xd   z *.@.5   G S.x.pXh.4.: <X).Z.6.,X].c.",
". oXH.v.h.b.}.s.8 7XW.F.L.,X@Xy..   x &.+.5 . Y &X%X0X*X*X*X*X*X*X*X*X*X0X0X*X*X*X&X%Xm . z *.@.5   M V.b.pX(.4.* :X).Z.6._.C.c.",
"= xX}.5.n.H.x.a.7 4X~.g.L.wXQ.q.@   x &.*.O.o.n d D +X=X*X*X*X*X*X*X*X*X*X0X*XqXm.d d ..o.O.$.@.5   B [.a.wX,X3.* <X_.L.M.n.C.c.",
"+ 6X-.<.h.Z.V a.7 4X~.a.L.eXk.q..   x &.$.%.%.n   $ +XqXqXqXqXqXqXqXqXqXqXqXqXyXx.    o.%.$.$.@.5   M V.H.#Xh.4.: 5X_.].$Xn.C.M.",
"d hXq.3X3XlXi.6X7 7X^.a.L.eXQ.u.o   x &.&.&.%.o.x x :.2.2.2.2.2.2.2.2.2.2.2.2.2.W x x O.$.$.$.@.5   B Y.a.Q.].s.: <X/._.1Xn.C.c.",
"o F J Y J J R M 7 4X~.g.J.,XW.u.O   x &.&.&.&.$.&.+.3                           5 @.&.&.&.$.&.@.5   G Y.s.z.'.y.= 5Xz.G.rXn.C.c.",
". l J c M M J 9 # <XW.L.F.^.Q.y.. ; x +.+.*.$.$.&.+.3   O < < o       o < < o   5 *.$.&.&.*.+.+.5 1 S L J.h.L u.= 7XE.G.yXn.I.c.",
"4 i.;.;.S.Y.q.B.7 4X~.;XJ.k.Q.u.j x.I 3 5 O.$.$.&.+.3   { VXbXU p p p { VXVXU   5 *.$.$.&.o.3 3 r x.a.0.y.Z.;.0.* tXE.F.rXl.I.c.",
"- d.v y.Y.h.V 0.r 5X~.8XJ.n.h.N.> M 0   + O.%.$.&.+.3    .GXSXU a a a | GXGX{   5 @.$.$.%.X.  o > M 0 j ; k k * 7 :X].K.j.].i.z.",
"- 8Xb.D.Y.h.3.Y.8 -XW.cXB.k.(.u.j oXH   o Z 9.O.&.+.3    .GXSXU a a a | FXFX{   5 @.&.9.9.C o o t oXQ A R } C Y 6 ;Xl.].R.h.oXR.",
". 8X+Xy.K.k.H.V.6 1XW.eXL.k.(.d.# 7XP   > _ sX' %.+.3    .GXSXU a a a | GXGX{   5 &.&.[ sX/   o # 7X>.L :.e.L 3.6 8X(.Z.`.a.Y.R.",
"; ,Xv.s.].R.H.e.# cX8.;X;Xk.k.N.6 1X;.  > _ sX` o.X.z 5 } kXkXU a a a U kXkXK 5 x o.X.] sX/   X 6 1X(.J.4.].'.c.# <X.XI j.N.Q ,.",
"* 8X^.:X/.<.M.f.6 7X8.+XT.k.Q.d.7 }.:.  > ) sX~ . # O.*.n O O p a a a p O O X.*.X.+ X ( sX/   X 7 }._.2Xc./.'.3.l oX X} J.U.} D.",
". 8X^.tXA.R.$XZ.r }.~._.B.z.@Xu.e 4X;.  > ) fX~   + o.&.n   o p a a a p   . X.&.... o ( fX/   X 7 4X_.;X<XA.I.x.. Y b M N i l c ",
"@ 8X~.tX_.`.tXC.e :XQ.y.N.G.a.i.; <XQ   @ p.Y.}   o ` [ ] ( / & & & & h / ( ] [ ` o . w.Y.w.o X % <XA.B.rXA.I.x.1 y.S A L S l V ",
"- ;Xv.tXA.,.+Xe.@ xXc.V Y.l.V i.r ;X;.  $ +XuX:.  > _ sXsXsX_ >       g sXsXsXsX( o . m.uXs.o o 7 ;X_.G.yX(.].3.8 5X0.9 Q P.i y.",
"@ 4X!.,XD.n.k.B.s 1.}.U. X{.oX{.# 9X,.m R y.s.J   > _ sXsXsX_ g g g g ~ sXsXsXsX(   . E s.:.F G # 9XW.g.cXQ.k.q.1 1Xk.e.x.5.A.F.",
"* <X!.;X.Xn.k.B.> N c k 6 9 b 4 % 4Xv.F.8Xu o o   > _ sXsXsXsXsXsXsXsXsXsXsXsXsX( o     o 4 b 4 % 4Xv.F.zXQ.Q.N.- 1XQ.S.}.n.A.l.",
"; 4XW.G.4Xn.k.f.^  XI C } Q S } 7 4XW.F.;Xm @ @   < ) aXaXaXaXdXdXdXdX_ _ _ aXaX/ $ X . o d S } 7 4XW.F.;Xj.Q.d.1 1X!.Y.<X(./.g.",
"* 9XR.l.4X>Xn.d.. rX-.P :.s.I t.7 4XW.F.J.a.l.:.7 D.k f f f g L I L I S f f f f , {.T S T 2.I t.7 4XW.F.K.E.@Xu.1 1XE.Y.<X(./.l.",
". xX7.l..XeXQ.d.7 %XOXT.x.#X_.4.# 4XW.F.J.>XeXD.7 :Xr       . V #.#.#.N         + %XOXT.x.#X_.4.# 4XW.F.J.>XeXD.1 <XE.Y.<X(.A.l.",
". xXR.Z.J.8X).d.t +Xk.[.;X)./.a.# 9XW.F.B.a.d.W # 0.7       . V #.#.#.N         o :.-.w.0.e./.a.# 9XW.F.Z.>XeXN.- <XQ.].1X(.A.g.",
"@ 9XW.G.D.).Q.d.t 7Xk.I.cX).h.B.7 9Xv.F.d.u                 + V #.#.#.N                   H h.B.7 9Xv.F.B.Q.).y.1 <XQ.Y.<XW.A.Z.",
"; :X!.G.J.5.Q.f.- rXOXF.%X8.n.3.% 7X5.F.d.r                 . V V V V N                   M h.>.% 7X5.H.Z.k.n.N.1 <XR.S.}.h.h.G.",
"@ 5XA.d.$X,X[.3.8 4XW.l.L.j.Q.d.7 <X>.r w o                   @ # # # @                   @ 8 r 7 <XW.G.Z.E.5.N.: 4XW.l.d.Q.k.f.",
"; -X_._.%Xz.'.4.7 4XW.F.J.j.Q.N.8 4X-.                                                        X 7 4X~.G.J.).k.N.; 5X^.l.d.Q.Q.Y.",
"@ -X@X,Xc.j.'.3.7 4X~.Z.Z.k.n.N.8 4X-.                                                        o 7 4X~.F.T.,X(.d.; 5X!.l.D.#X@XT.",
"7 <X_.cX6._.'.4.7 4XW.l.Z.).Q.N.7 4X-.                                                        o ; 4XW.F.T.wX).u.; <XR.l.L.1X+XB.",
"7 }./.3X6.z.'.4.8 4Xv.l.J.,X).N.7 4X>.w q w q ; . q 7 ; q w 7 ; . q 7 e 7 q q ; . e 7 7 q w 7 w 7 4XW.l.T.wX).y.: <XW.l.J.@XQ.f.",
". <X;Xd.6.h.[.3.8 4Xv.l.J.eX).N.7 7X~.a.D.>Xz.0.7 .Xz.d.d.4.4.y.@ XXG.>.y.e.S.:.7 .X4.a.N.,Xz.y.7 7X~.F.T.wX).u.: 4X^.G.d.v.k.K.",
"@ xXK.u.M._.I.3.7 4X~.F.J.pXQ.d.7 4X~.F.J.>XQ.d.7 5X~.L.T.5.Q.N.* xXG.4.H.'.f.u.7 4X~.F.J.pXQ.d.7 4X~.F.J.>XQ.d.: <X^._.J.v.5.K.",
"1  Xv V.M.e.b 3.7 4X^.F.Z.eXQ.u.7 4XW.F.F.).k.d.7 4X7.;X8XQ.Q.q.8 oXv x.H.e.v y.7 4X^.F.Z.eXQ.u.7 4XW.F.F.).k.d.e -XR.;X2X@Xk.B."
};
