/* XPM */
static char *_d16d8986a6e494fa44f9b563f14aa28VOXQ0cEbUTuYWnty[] = {
/* columns rows colors chars-per-pixel */
"64 64 233 2 ",
"   c #050506",
".  c #060907",
"X  c #0A0906",
"o  c #04050B",
"O  c #050A0C",
"+  c #0B0B0D",
"@  c #120D09",
"#  c #06170A",
"$  c #13110E",
"%  c #1A1C0B",
"&  c #040912",
"*  c #0B0B12",
"=  c #070A1A",
"-  c #0B1117",
";  c #121215",
":  c #191617",
">  c #1B1B1B",
",  c #2F1912",
"<  c #261C19",
"1  c #112814",
"2  c #282519",
"3  c #382819",
"4  c #313010",
"5  c #353819",
"6  c #070C24",
"7  c #0B122A",
"8  c #161627",
"9  c #1C1C23",
"0  c #0D1C35",
"q  c #191B35",
"w  c #281C27",
"e  c #152729",
"r  c #1F362F",
"t  c #192936",
"y  c #282427",
"u  c #362725",
"i  c #3A3428",
"p  c #282536",
"a  c #332935",
"s  c #29343C",
"d  c #373638",
"f  c #52300B",
"g  c #442C1E",
"h  c #45361D",
"j  c #472D25",
"k  c #493527",
"l  c #4E3A2D",
"z  c #563728",
"x  c #533B2C",
"c  c #453536",
"v  c #553B34",
"b  c #623F2E",
"n  c #613D34",
"m  c #0D4A0A",
"M  c #184A0B",
"N  c #164A15",
"B  c #114F16",
"V  c #175719",
"C  c #264516",
"Z  c #2D5114",
"A  c #176915",
"S  c #137311",
"D  c #2A6A0F",
"F  c #134B27",
"G  c #334F2A",
"H  c #187826",
"J  c #287926",
"K  c #534A1D",
"L  c #674B17",
"P  c #70551D",
"I  c #487114",
"U  c #484827",
"Y  c #5A4729",
"T  c #594836",
"R  c #545031",
"E  c #66462A",
"W  c #705228",
"Q  c #684836",
"!  c #64433A",
"~  c #754D3A",
"^  c #665836",
"/  c #6C533D",
"(  c #78553A",
")  c #5E7827",
"_  c #706D2C",
"`  c #64633A",
"'  c #756637",
"]  c #171F41",
"[  c #1B2643",
"{  c #1F2D53",
"}  c #2D334C",
"|  c #222E55",
" . c #293657",
".. c #2E3C63",
"X. c #4F3F43",
"o. c #573D47",
"O. c #3D4441",
"+. c #314169",
"@. c #544C4B",
"#. c #5F5545",
"$. c #694B44",
"%. c #754D47",
"&. c #695547",
"*. c #7C5542",
"=. c #785848",
"-. c #6F5354",
";. c #6B6648",
":. c #78644C",
">. c #6D6E55",
",. c #7A6255",
"<. c #6A5A66",
"1. c #5F6B6E",
"2. c #786C6D",
"3. c #8B5B13",
"4. c #9B6311",
"5. c #875A27",
"6. c #845738",
"7. c #88643C",
"8. c #947032",
"9. c #A9752C",
"0. c #855C43",
"q. c #885946",
"w. c #8D534B",
"e. c #945B4A",
"r. c #875652",
"t. c #9A5B51",
"y. c #A15F4F",
"u. c #A45F54",
"i. c #88644A",
"p. c #996647",
"a. c #9C644A",
"s. c #977848",
"d. c #8E6C56",
"f. c #956852",
"g. c #A76D44",
"h. c #A2654C",
"j. c #A56B4D",
"k. c #A96B4D",
"l. c #A57348",
"z. c #B4774A",
"x. c #A36652",
"c. c #AC6655",
"v. c #AD6A54",
"b. c #AD6B5B",
"n. c #B16B57",
"m. c #AE7154",
"M. c #AA7756",
"N. c #B47253",
"B. c #BB7557",
"V. c #B27B55",
"C. c #BE7957",
"Z. c #B67258",
"A. c #BB7659",
"S. c #BF7958",
"D. c #8A786B",
"F. c #90776A",
"G. c #BC7D61",
"H. c #C17D56",
"J. c #C47E59",
"K. c #0C8509",
"L. c #188718",
"P. c #1B8729",
"I. c #0E9223",
"U. c #358720",
"Y. c #4A8413",
"T. c #728D2C",
"R. c #798750",
"E. c #72877F",
"W. c #94863A",
"Q. c #AA8437",
"!. c #C4823A",
"~. c #95884A",
"^. c #BB8056",
"/. c #B18E51",
"(. c #B6935C",
"). c #95AF49",
"_. c #B2B55A",
"`. c #938976",
"'. c #B1946A",
"]. c #89BA7C",
"[. c #AFAA74",
"{. c #C98857",
"}. c #C6805B",
"|. c #CB855D",
" X c #D38C58",
".X c #D98F5C",
"XX c #DF935D",
"oX c #D29C59",
"OX c #E1965E",
"+X c #E79B5E",
"@X c #E89C5F",
"#X c #CCB35D",
"$X c #E0AA5B",
"%X c #C38261",
"&X c #D89461",
"*X c #CC9874",
"=X c #E19964",
"-X c #CDA465",
";X c #D4BA6F",
":X c #E9A166",
">X c #D4C476",
",X c #ECD27C",
"<X c #7D7589",
"1X c #837C91",
"2X c #7DB489",
"3X c #B79984",
"4X c #9FA992",
"5X c #A9A6AA",
"6X c #B3B3BE",
"7X c #C7A58F",
"8X c #C8A58F",
"9X c #E1AC83",
"0X c #E9B68A",
"qX c #C3B3A8",
"wX c #CFC382",
"eX c #D5C388",
"rX c #E9D388",
"tX c #F3D294",
"yX c #FBE394",
"uX c #D5D2B5",
"iX c #EFD3A9",
"pX c #EEE4B3",
"aX c #B9BAC8",
"sX c #D5D2CB",
"dX c #CFCDD9",
"fX c #E2DCDE",
"gX c #ECEED8",
"hX c #DBDEE6",
"jX c #E7DDE7",
"kX c #D7E2E4",
"lX c #E9F8E7",
"zX c #EDF2EC",
"xX c #F6F7F8",
/* pixels */
"tX:XH.t.r.qXG.c.XXJ.S.S.S.S.B.c.XXJ.S.S.S.S.B.b.0X:X+X@X@X@XOXJ.OX}.C.S.S.S.B.c.XX}.%XS.S.%XA.c.XXJ.S.S.S.S.B.c.XXJ.S.S.S.S.B.u.",
"tX=XH.u.r.7XG.c.XXJ.S.S.S.S.B.c.XXJ.S.S.S.S.B.c.=X|.%XJ.J.%XJ.n.XXJ.S.S.S.S.B.c.XX%X8X%X%X8XG.c.XXJ.S.S.S.S.B.c.XXJ.S.S.S.S.B.u.",
"=XJ.B.Z.Z.G.Z.c.XXJ.S.S.S.S.B.c.XXJ.S.S.S.S.B.c.XX%X7X%X%X8XG.c.XXJ.H.C.S.S.B.c..XH.G.A.A.G.Z.c.XXJ.S.S.S.S.B.c.XXJ.S.S.S.S.B.u.",
"%Xn.c.c.c.c.c.t.XXJ.S.S.S.S.B.c.XXJ.C.S.S.C.B.c.XX}.0.Y R R ^ Y W E p.C.S.S.B.c.J.n.c.c.c.c.c.t.XXJ.S.S.S.S.B.c.XXJ.C.S.S.C.B.u.",
"0X=XXXXXXXXX.XS.OXJ.S.S.S.S.B.c.XX}.%XS.S.%XA.c.XX( 4 N B m m m m 1 G ^ a.C.B.b.9X=XXXXXXXXX.XS.OXJ.S.S.S.S.B.c.XX}.%XS.S.%XA.u.",
":X|.%X}.}.%XH.n.XXJ.S.S.S.S.B.c.XX%X8X%X%X8XG.c.8.Z Z A H P.I.H P.H V C Y h.B.c.=X|.%X}.}.%XH.n.XXJ.S.S.S.S.B.c.XX%X8X%X%X8XG.u.",
"+X%X7X%X%X8XG.c.XXJ.S.S.S.S.B.c..XH.G.A.A.G.Z.h.Y C A S I.I.I.I.I.L.P.G R a.Z.c.XX%X7X%X%X8XG.c.XXJ.S.S.S.S.B.c..XH.G.A.A.G.Z.t.",
"@XJ.%XS.S.%XA.c.XXJ.S.S.S.S.B.c.J.n.c.c.c.c.c.~ U V A S S K.K.K.K.L.S N R h.B.c.XX}.%XS.S.%XA.c.XXJ.S.S.S.S.B.c.J.n.c.c.c.c.c.w.",
"@XJ.C.S.S.C.B.c.XXJ.S.S.S.S.B.b.9X=XXXXXXXXX XY C J A S U.D D D Y.D D G R a.A.c.XXJ.C.S.S.C.B.c.XXJ.S.S.S.S.B.b.9X=XXXXXXXXX.XB.",
"@XJ.S.S.S.S.B.c.XXJ.S.S.S.S.B.c.=X|.%X}.}.%Xm.5 m A A I ).T.) )._.T._ R / 3XS.c.XXJ.S.S.S.S.B.c.XXJ.S.S.S.S.B.c.=X|.%X}.}.%XJ.c.",
"@XJ.S.S.S.S.B.c.XXJ.S.S.S.S.B.c.XX%X7X%X%X8XM.5 m J D T._._.#X,XrX>X(.U ( S.Z.c.XXJ.S.S.S.S.B.c.XXJ.S.S.S.S.B.c.XX%X7X%X%X8XG.u.",
"@XJ.S.S.S.S.B.c.XXJ.C.S.S.C.B.c.XX}.%XS.S.%Xj.5 V D D I W.#X,XyXyXyX[.^ *.c.c.t.XXJ.S.S.S.S.B.c.XXJ.C.S.S.C.B.c.XX}.%XS.S.%XA.u.",
"@XJ.S.S.S.S.B.c.XX}.%XS.S.%XA.c.XXJ.C.S.H.H.h.5 M V D I Z _ #XrXyX>X' ' ^..X.XS.OXJ.S.S.S.S.B.c.XX}.%XS.S.%XA.c.XXJ.C.S.S.C.B.u.",
"@XJ.S.S.S.S.B.c.XX%X8X%X%X8XG.c.XXJ.S.S.H.H.N.Q C M I ) _ P L s.wX~.4 ( S.%XH.n.XXJ.S.S.S.S.B.c.XX%X8X%X%X8XG.c.XXJ.S.S.S.S.B.u.",
"@XJ.S.S.S.S.B.c..XH.G.A.A.G.Z.c.XXJ.S.S.H.C.B.e.5 G R.~.;XW.L (.9X~ , 6.S.8XG.c.XXJ.S.S.S.S.B.c..XH.G.A.A.G.Z.c.XXJ.S.S.S.S.B.u.",
"@XJ.S.S.S.S.B.c.J.n.c.c.c.c.c.t.XXJ.S.S.C.C.B.h.' ` [.[.rX;X-XtX0Xp.f 6.B.%XA.c.XXJ.S.S.S.S.B.c.J.n.c.c.c.c.c.t.XXJ.S.S.S.S.B.u.",
"@XJ.S.S.S.S.B.b.9X=XXXXXXXXX.XS.OXJ.S.S.S.S.B.c.^.7._ ~.;XtXyXiX*XV.E 6.B.H.B.c.XXJ.S.S.S.S.B.b.9X=XXXXXXXXX.XS.OXJ.S.S.S.S.B.u.",
"@XJ.S.S.S.S.B.c.=X|.%X}.}.%XH.n.XXJ.S.S.S.S.B.c..XM.' L 9.$XoX{.M.6.W a.C.H.B.c.XXJ.S.S.S.S.B.c.=X|.J.J.J.J.H.n.XXJ.S.S.S.S.B.u.",
"@XJ.S.S.S.S.B.c.XX%X7X%X%X8XG.c.XXJ.S.S.S.S.B.c..XN.E f 3.9.!.z.6.6.a.N.C.C.B.c.XXJ.S.S.S.S.B.c.XXJ.S.S.S.S.B.c.XXJ.S.S.S.S.B.u.",
"@XJ.C.S.S.C.B.c.XX}.%XS.S.%XA.c.XXJ.S.S.S.S.B.x.f.=.%.7.8.4.9.9.W ( v.C.C.C.B.c.XXJ.C.S.S.C.B.c.XXJ.S.S.S.S.B.c.XXJ.S.S.S.S.B.u.",
"@XJ.%XS.S.%XA.c.XXJ.C.S.S.C.B.c.XXJ.S.S.S.S.Z.r.<.2.qXiX-X9.3.5.f.,.=.M.C.S.B.c.XX}.%XS.S.%XA.c.XXJ.S.S.S.S.B.c.XXJ.S.S.S.S.B.u.",
"@X%X8X%X%X8XG.c.XXJ.S.S.S.S.B.c.XXJ.S.S.S.S.x.o.1XdXjXgXiX-X/.~.qXqX2.=.m.C.B.c.XX%X8X%X%X8XG.c.XXJ.S.S.S.S.B.c.XXJ.S.S.S.S.B.u.",
"OXH.G.A.A.G.Z.c.XXJ.S.S.S.S.B.c.XXJ.S.S.S.N.d.<.aXxXjXsXpXpXeX[.uXzX5X-.e.B.B.c..XH.G.A.A.G.Z.c.XXJ.S.S.S.S.B.c.XXJ.S.S.S.S.B.u.",
"%Xn.c.c.c.c.c.t.XXJ.S.S.S.S.B.c.XXJ.C.S.C.j.T E.hXxXhXsXgXgXuX4XsXxX6X@.0.B.B.c.J.n.c.c.c.c.c.t.XXJ.S.S.S.S.B.c.XXJ.C.S.S.C.B.u.",
"0X=XXXXXXXXX.XS.OXJ.S.S.S.S.B.c.XX}.%XS.C.M.h `.gXhXdXhXxXxXlXfXzXxX1Xy *.B.B.b.9X=XXXXXXXXX.XS.OXJ.S.S.S.S.B.c.XX}.%XS.S.%XA.u.",
":X|.%X}.}.%XH.n.XXJ.S.S.S.S.B.c.XX%X8X^.S.'.Y [.uX5X2.6XxXxXxXxXxXfX@.< 0.B.B.c.=X|.%X}.}.%XH.n.XXJ.S.S.S.S.B.c.XX%X8X%X%X8XG.u.",
"+X%X7X%X%X8XG.c.XXJ.S.S.S.S.B.c..XJ.G.A.N.7.8.wXpX`.c <XaXaXdXxXfXD.c u q.A.Z.c.XX%X7XG.%X8XG.c.XXJ.S.S.S.S.B.c..XH.G.A.A.G.Z.t.",
"@XJ.%XS.S.%XA.c.XXJ.S.S.S.S.B.c.J.n.c.c.h.W W.rX0X,.<.5XdXhXkXxXgX2.l &./ a.Z.c.}.Q ~ v.C.%XA.c.XXJ.S.S.S.S.B.c.J.n.c.c.c.c.c.w.",
"@XJ.C.S.S.C.B.c.XXJ.S.S.S.S.A.b.9X=XXXXX X5.Q.rX(.z -.5XkXlXlXlXgXR.U >.T i.m.~ =.=.&.q.m.C.B.c.XXJ.S.S.S.S.B.b.9X=XXXXXXXXX.XB.",
"@XJ.S.S.S.S.B.c.XXJ.S.S.S.S.A.c.=X|.%XH.g.5.Q.(.8.0.2.1.E.2X2X4X].) Z ` k T / &.d.F.,.&.x.C.B.c.XXJ.S.S.S.S.B.c.=X|.%X}.}.%XJ.c.",
"@XJ.S.S.S.S.B.c.XXJ.S.S.S.S.B.c.XX%X7XS.6.s.$XQ.L p.D.G F J H J U.J M C 4 k / i./.T T =.v.C.B.c.XXJ.S.S.S.S.B.c.XX%X7X%X%X8XG.u.",
"@XJ.S.S.S.S.B.c.XXJ.C.S.S.C.B.c.XX}.S.g.7.(.;X8.5.k.D.G F H H L.S J N 1 i %.f.q.Q 2 ! k.B.S.B.c.XXJ.C.S.S.C.B.c.XX}.%XS.S.%XA.u.",
"@XJ.S.S.S.S.B.c.XX}.%XS.S.%XA.c.XXJ.N.5.l.-X(.W g.V.-.r 1 F V V B V N > / M.i.&.T Q a.B.S.S.B.c.XX}.%XS.S.%XA.c.XXJ.C.S.S.C.B.u.",
"@XJ.S.S.S.S.B.c.XX%X8X%X%X8XG.c.XXC.N.5.l.-Xs./ ^.f.d t e # # # # # 1 8 o.$.3 v l.m.N.C.S.S.B.c.XX%X8X%X%X8XG.c.XXJ.S.S.S.S.B.u.",
"@XJ.S.S.S.S.B.c..XH.G.A.A.G.Z.c.XXC.g.P 8.~.' 0. Xd.d t s e 1 # . . # p a y u ( {.C.B.S.S.S.B.c..XH.G.A.A.G.Z.c.XXJ.S.S.S.S.B.u.",
"@XJ.S.S.S.S.B.c.J.n.c.c.c.c.c.t.XXH.( f f P K 0.&Xd.s 0 e e t e O . O e y T &.Y g.j.v.B.S.S.B.c.J.n.c.c.c.c.c.t.XXJ.S.S.S.S.B.u.",
"@XJ.S.S.S.S.B.b.9X=XXXXXXXXX.XS.XXz.K L W.Y 4 0.'.@.[ 0 6 = - - & O o y y #.;.4 4 3 E j.S.S.B.b.9X=XXXXXXXXX.XS.OXJ.S.S.S.S.B.u.",
"@XJ.S.S.S.S.B.c.=X|.%X}.}.%XH.c.XX6.^ '.>X~.4 U D.} {  .[ 7 = & & & . $ 2 i G U ^ k k p.S.S.B.c.=X|.%X}.}.%XH.n.XXJ.S.S.S.S.B.u.",
"@XJ.S.S.S.S.B.c.XX%X7X%X%X8XG.c.XXY >.'.' ~.U > s } ..+. .[ q - o o   X 2 2 4 ` ' R 6.N.S.S.B.c.XX%X7X%X%X8XG.c.XXJ.S.S.S.S.B.u.",
"@XJ.C.S.S.C.B.c.XX}.%XS.S.%XA.c.XXE ;.[._ ^ U O.t  .+.| [ q 8 o o +   X y : % ^ ;.R p.C.C.C.B.c.XX}.%XS.S.%XA.c.XXJ.S.S.S.S.B.u.",
"@XJ.%XS.S.%XA.c.XXJ.C.S.S.C.B.c.XXp.^ [.` 4 >.<X} { ..| 0 6 & u g @ X + > 9 $ i s.^ / k.S.%XA.c.XXJ.C.S.S.C.B.c.XXJ.S.S.S.S.B.u.",
"@X%X8X%X%X8XG.c.XXJ.S.S.S.S.B.c.XXi.;.4X;.T @.} [  ...q 6 & < ~ E @ X + ; p y c i.i.#.&.M.8XG.c.XXJ.S.S.S.S.B.c.XXJ.S.S.S.S.B.u.",
"OXH.G.A.A.G.Z.c.XXJ.S.S.S.S.B.c.XXQ 2.qX&.i w 7 ] ..| 6 = & k e.W @ X o = q a %.i.=.=.T *.Z.Z.c.XXJ.S.S.S.S.B.c.XXJ.S.S.S.S.B.u.",
"%Xn.c.c.c.c.c.t.XXJ.S.S.S.S.B.c.XXY ,.F.i < : 8 { ..[ 6 o < ~ x.p.3 X * 6 q p %.x.&.%.$.v *.x.t.XXJ.S.S.S.S.B.c.XXJ.C.S.S.C.B.u.",
"0X=XXXXXXXXX.XS.OXJ.S.S.S.S.B.c.V.T i.v , u w 8 } [ 7 =   j a.c. Xz X o 7 q p =.9XV.:.i.=.$.a.N.OXJ.S.S.S.S.B.c.XX}.%XS.S.%XA.u.",
":X|.%X}.}.%XH.n.XXJ.S.S.S.S.B.c.*.$.F.z u u w w } 8 & * . k h.c.XXb + o - 8 p $.&XS.f.=.i.&.@.w.XXJ.S.S.S.S.B.c.XX%X8X%X%X8XG.u.",
"+X%X7X%X%X8XG.c.XXJ.S.S.S.S.B.c.~ ~ ! , j v u a p 8 & o $ E k.c.XXb + * O 8 q a k.^.3Xi.&.D.$.o.S.J.S.S.S.S.B.c..XH.G.A.A.G.Z.t.",
"@XJ.%XS.S.%XA.c.XXJ.S.S.S.S.Z.t.! Q j , u ,.X.a 9 * *   3 e.Z.c.XXb * O . - 9 y j.J.G.N.=.&.=.o.=.m.S.S.S.S.B.c.J.n.c.c.c.c.c.w.",
"@XJ.C.S.S.C.B.c.XXJ.S.S.S.S.B.$.$.j.E E g u d d : o +   j h.B.c.XXE + O O - 9 y l.J.C.S.v.%.$.%.&.%.x.B.S.S.B.b.9X=XXXXXXXXX.XB.",
"@XJ.S.S.S.S.B.c.XXJ.S.S.S.B.Z.n ( p.l 2 i < < > + * ; o k j.B.c.XXQ $ + O - 9 y l.J.S.S.B.v.$.$.f.T j 0.N.B.C.c.=X|.%X}.}.%XJ.c.",
"@XJ.S.S.S.S.B.c.XXJ.S.S.S.C.Z.v 6./ &.k x i 2 ; * * * o z j.B.c..Xz X   + ; : y l.J.H.H.C.B.j.! i.i.$.v k e.Z.c.XX%X7X%X%X8XG.u.",
"@XJ.S.S.S.S.B.c.XXJ.S.S.S.B.Z.! ( x *.p.l : > > > < * < q.B.B.c.J.z @   + > ; < g.J.H.S.S.C.B.e./ l *.q.! j z w.XX}.%XS.S.%XA.u.",
"@XJ.S.S.S.S.B.c.XX}.%XS.S.G.q.v 0.x ( N.p.Q u > : * + j a.C.B.b.9XC.g +   + < Q {.J.S.S.S.S.B.c.C.0.T l 0.i.*.j ~ k.C.C.S.C.B.u.",
"@XJ.S.S.S.S.B.c.XX%X8X%X%X8X/ v / Q a.B.C.v.u * ; O < ~ N.S.B.c.=X|.T $ + + + j H.J.S.S.S.S.B.c.XX}.`.*.E @.l b p.N.S.S.S.S.B.u.",
"@XJ.S.S.S.S.B.c..XH.G.A.Z.A.! ! / ( v.C.B.~ : * * < Q v.S.S.B.c.XXp.i X + +   : x ~ k.S.S.S.B.c..XH.A.n.q./ ~ w. XH.S.S.S.S.B.u.",
"@XJ.S.S.S.S.B.c.J.n.c.c.c.c.n v x ~ N.C.q.< * * o : Q v.S.C.B.c.XXE @ + + .   + : 2 ~ N.S.S.B.c.J.n.c.c.x.y.t.e.XXJ.S.S.S.S.B.u.",
"@XJ.S.S.S.S.B.b.9X=XXXXXXXXX( 2 x e.N.q.c * o o & + j a.S.%XA.c.XXz X X   +   + < $ j a.S.S.B.b.9X=XOXOXXXXX.XS.OXJ.S.S.S.S.B.u.",
"@XJ.S.S.S.S.B.c.=X|.%X}.}.%Xq.k 7.N.B.T y 9 9 : : + i a.%X8XG.c.XX( % + < :     +   3 a.S.S.B.c.=X|.%X}.}.%XH.n.XXJ.S.S.S.S.B.u.",
"@XJ.S.S.S.S.B.c.XX%X7X%X%X8Xm.w.{.H.Z.v 8 9 9 : * ; x h.A.G.Z.c.XXN.b g ( b 3 3 g 3 b j.S.S.B.c.XX%X7X%X%X8XG.c.XXJ.S.S.S.S.B.u.",
"@XJ.C.S.S.C.B.c.XX}.%XS.S.%XA.c.XXJ.B.! u u u u 3 j q.x.c.c.c.t.XXJ.k.h.N.k.a.w.z.h.k.B.S.C.B.c.XX}.%XS.S.%XA.c.XXJ.S.S.S.S.B.u.",
"@XJ.%XS.S.%XA.c.XXJ.C.S.S.C.B.c.XXJ.C.j.p.p.e.w.'.^. XXXXXOX.XS.OXJ.S.S.C.C.B.c.XX}.%XH.S.%XA.c.XXJ.C.S.S.C.B.c.XXJ.S.S.S.S.B.u.",
"@X%X8X%X%X8XG.c.XXJ.S.S.S.S.B.c.XXJ.S.S.S.S.B.c.&X|.%XJ.}.%XH.n.XXJ.S.S.C.C.B.c.XX%X8X%X%X8XG.c.XXJ.S.S.S.S.B.c.XXJ.S.S.S.S.B.u.",
"OXH.G.A.A.G.Z.c.XXJ.S.S.S.S.B.c.XXJ.S.S.S.S.B.c.XX%X7XG.%X8XG.c.XXJ.S.S.S.S.B.c..XJ.G.A.A.G.Z.c.XXJ.S.S.S.S.B.c.XXJ.S.S.S.S.B.u.",
"H.c.u.u.u.u.t.w.XXJ.S.S.S.S.B.c.XXJ.S.S.S.S.B.c.XXJ.%XS.S.%XA.c.XXJ.S.S.S.S.B.c.A.c.u.u.u.u.t.w.XXJ.S.S.S.S.B.c.XXJ.S.S.S.S.B.u."
};
