/* XPM */
static char *_4f66868c4c045a8a055a7e6de91f6achWmWwocB29QC8ISl[] = {
/* columns rows colors chars-per-pixel */
"64 64 246 2 ",
"   c #0B0300",
".  c #0C0A04",
"X  c #130B02",
"o  c #1A0A05",
"O  c #161104",
"+  c #1C1404",
"@  c #15110E",
"#  c #1C130A",
"$  c #1C190C",
"%  c #070F16",
"&  c #191615",
"*  c #260803",
"=  c #261604",
"-  c #22140C",
";  c #24190E",
":  c #33110E",
">  c #251912",
",  c #221F1C",
"<  c #39270C",
"1  c #23211D",
"2  c #271922",
"3  c #2D2825",
"4  c #38292A",
"5  c #38312B",
"6  c #38332F",
"7  c #5B1701",
"8  c #491814",
"9  c #4B2F0E",
"0  c #523C06",
"q  c #6E3015",
"w  c #511F2D",
"e  c #543128",
"r  c #423C37",
"t  c #443F3A",
"y  c #6C3827",
"u  c #5A4207",
"i  c #5C4916",
"p  c #79590C",
"a  c #674C16",
"s  c #785C18",
"d  c #7B601E",
"f  c #474139",
"g  c #4A443E",
"h  c #514631",
"j  c #6A5726",
"k  c #734C32",
"l  c #796533",
"z  c #4D4741",
"x  c #534C46",
"c  c #594F45",
"v  c #564E48",
"b  c #5A5148",
"n  c #59524D",
"m  c #5D5650",
"M  c #63584B",
"N  c #7B504E",
"B  c #635B54",
"V  c #695F58",
"C  c #6A6057",
"Z  c #6A6058",
"A  c #736855",
"S  c #776C64",
"D  c #786D65",
"F  c #7D7874",
"G  c #853C32",
"H  c #905917",
"J  c #9F7202",
"K  c #846314",
"L  c #AB7607",
"P  c #8E4D36",
"I  c #AF5D38",
"U  c #886925",
"Y  c #836A2E",
"T  c #90732D",
"R  c #9F6533",
"E  c #986239",
"W  c #8B733A",
"Q  c #967A37",
"!  c #A7683B",
"~  c #B8693D",
"^  c #A77B31",
"/  c #AD743B",
"(  c #C6693E",
")  c #8A5848",
"_  c #995D46",
"`  c #855B53",
"'  c #A65D47",
"]  c #B15E4E",
"[  c #996646",
"{  c #9D644B",
"}  c #867346",
"|  c #90734D",
" . c #996756",
".. c #8B7C56",
"X. c #85745B",
"o. c #A66947",
"O. c #A2654D",
"+. c #AA654E",
"@. c #AD6B4C",
"#. c #B96541",
"$. c #BC6C44",
"%. c #B26D4D",
"&. c #B9684A",
"*. c #AB744B",
"=. c #BD7143",
"-. c #B47549",
";. c #BE724B",
":. c #A56B52",
">. c #AC6C53",
",. c #AA6858",
"<. c #B26D53",
"1. c #B86B56",
"2. c #AC7257",
"3. c #B47253",
"4. c #BA7454",
"5. c #B87B56",
"6. c #B5745A",
"7. c #B9755C",
"8. c #BB7A5C",
"9. c #9A6F68",
"0. c #83776E",
"q. c #887B72",
"w. c #B17064",
"e. c #B97565",
"r. c #BD7C62",
"t. c #C26D46",
"y. c #C27345",
"u. c #C57A47",
"i. c #C4744B",
"p. c #C9764B",
"a. c #C5794A",
"s. c #CA7B4C",
"d. c #C26D57",
"f. c #C67A52",
"g. c #CB7B54",
"h. c #C87859",
"j. c #D17A54",
"k. c #C36F68",
"l. c #C57A64",
"z. c #BB8212",
"x. c #9F823B",
"c. c #A58434",
"v. c #AB8935",
"b. c #AD8B36",
"n. c #C78A15",
"m. c #D39614",
"M. c #DBA00F",
"N. c #DBA217",
"B. c #F2AE08",
"V. c #F3B008",
"C. c #E3A612",
"Z. c #D4A42D",
"A. c #DDAB2D",
"S. c #DFAF39",
"D. c #F6C13D",
"F. c #F8C23D",
"G. c #9C8448",
"H. c #9A8758",
"J. c #B99845",
"K. c #A88951",
"L. c #BA855B",
"P. c #988864",
"I. c #918379",
"U. c #99877B",
"Y. c #B48262",
"T. c #B98667",
"R. c #A6946A",
"E. c #B48C70",
"W. c #A69876",
"Q. c #B6A47B",
"!. c #CB8358",
"~. c #D28454",
"^. c #D3845C",
"/. c #D68B5B",
"(. c #C79052",
"). c #C9A854",
"_. c #CFAC54",
"`. c #C68968",
"'. c #D88660",
"]. c #D98B66",
"[. c #CA936B",
"{. c #D49768",
"}. c #C88B72",
"|. c #D38D75",
" X c #CD9572",
".X c #CD9974",
"XX c #C89678",
"oX c #D19A75",
"OX c #D79879",
"+X c #E5936C",
"@X c #E49A6B",
"#X c #EA9672",
"$X c #ED9C75",
"%X c #DBB065",
"&X c #D9A478",
"*X c #E9AE71",
"=X c #F8C648",
"-X c #FAC74A",
";X c #F8C954",
":X c #E7C36A",
">X c #FACF66",
",X c #FAD06A",
"<X c #F3CE73",
"1X c #F9D479",
"2X c #FFDA7E",
"3X c #988C82",
"4X c #979797",
"5X c #A19186",
"6X c #A99D8A",
"7X c #B19A8C",
"8X c #B19F93",
"9X c #AAA495",
"0X c #B4A295",
"qX c #B3A990",
"wX c #B4AB94",
"eX c #A1A1A1",
"rX c #AFAFAF",
"tX c #B6B2A8",
"yX c #B8B7B4",
"uX c #BFBFBE",
"iX c #D29683",
"pX c #D0AB8D",
"aX c #E6A586",
"sX c #C5BEAD",
"dX c #D3C29B",
"fX c #FFDC83",
"gX c #FFDD89",
"hX c #FFE197",
"jX c #D1C8B1",
"kX c #E3D2AB",
"lX c #FFE7AB",
"zX c #FEEAB6",
"xX c #FFECBC",
"cX c #BFBFC0",
"vX c #BFC0C0",
"bX c #C2C2C2",
"nX c #CCC9C3",
"mX c #CDCDCE",
"MX c #D4D1CA",
"NX c #D4D4D1",
"BX c #D8D8D6",
"VX c #DBDBDB",
"CX c #E4DFD5",
"ZX c #F6E9CA",
"AX c #DEDFE0",
"SX c #FAF5E9",
/* pixels */
"#  Xy.@.`.].^._ - .Xy.@.7.$.i.{ - `.s.3.7.$.#.:.- .Xa.@.3.$.;._ = XX4.-.`.].`.E - .Xy.@.7.$.i.{ - `.s.3.7.$.#.:.$  Xy.%.O.i.$.+.",
"X T.!.8.`.$.f.O.- oXa.%.3.$.i.O.; [.s.3.r.f.;.:.# oXs.@.<.i.g.>.= }.g.!.`.1.h.o.- oXa.%.3.$.i.O.; [.s.3.r.g.;.:.# .Xs.%.O.i.i.e.",
"# `.~.OX`.~ $.>.- oXa.%.>.$.i.:.;  Xs.3.r.'.g.O.# oXs.@.7.j.^.2.= `.g.{.!.&.1.*.- oXa.%.>.$.i.:.;  Xs.3.r.'.f.O.# .Xp.%.2./.^.r.",
"- [.y.OX3.g.$.O.-  Xy.%.<.g.i.:.-  Xa.%.r.+Xg.{ -  Xy.@.`.].^.[ =  Xi.{.-.h.$.o.-  Xy.%.<.g.i.:.-  Xa.%.r.+Xg.{ # [.t.%.8.{.!.>.",
"X .Xa.!.@.g.i._ ;  X=.%.6.].f.:.- .Xy.3.8.#Xg.{ -  Xy.@.r.g.g._ = OXg.!.o.h.f.E ;  X=.%.6.].f.:.- .Xy.3.8.#Xg.{ $ [.y.%.6.^.i.+.",
"X .X~.@.6.$.f.O.> [.=.3.6.$Xf.:.- oXy.3.7.+Xg.{ - oXs.3.3.#.i.:.+ OX^.o.5.&.h.o.> [.$.<.6.$Xf.:.- oXy.3.7.+Xg.{ $ .Xs.4.O.=.$.7.",
"@ XX! >.r.#.I :.; [.y.3.6.$Xi.:.- oXy.7.3.].i.:.-  Xs.8.r.$.$.:.; XXo.o.L.&.' O.; [.y.3.6.$Xi.:.- oXy.5.3.].i.:.$ `.s.h.6.=.~ 7.",
"& E.q 6.2.4.q  .-  Xa.4.3.$X$.O.- .X$.4.@.^.$.O.; `.y.`.{ a a i < j q 5.2.7.q [ -  Xa.4.3.$X$.O.- .X$.4.@.^.$.O.> `.t.`.}.!.$.>.",
"o | T.T.L.T.Y.L.# OXy.@.3.$Xp.O.> /.$.e.h.#.`.o.2 *.R [ Y j j j j j [ [ [ Y.Y.L.# OX=.@.3.$Xp.O.> /.$.e.h.#.`.~ 2 !.a.T./.p.>.3.",
"% % ; = > O >   - [.u.%.3.^.i.[ - /.i.k ' $.P E - Y 0 0 } W.W.W.W.R.i 0 0 + ; . - [.u.%.3.^.p.[ - /.i.k ' $.P E & ].y.T.@Xj.>.3.",
"- N P G P ) ] P J n.n.n.n.n.n.z.J m.n.L n.n.L z.9 H.Q.p p W dXCXsXs p Q Q.j K L J n.n.n.n.n.n.z.J m.n.L n.n.L n.@ @X~ e.$Xp.<.4.",
"* ) 7 ' l.,.q O.M.N.A.A.A.A.A.A.A.A.A.A.A.A.A.Z.T H.R.Q Y | kXSXMXl T G.R.Q b.A.A.A.A.A.A.A.A.A.A.A.A.A.A.N.N.N.& @X~ 2.^.( 3.-.",
"& U.y { w. .y  .B.=XfX2X2X2X2X2X2X2X2X2X2X2X2X2XfXx.i P.R.Q.kXSXCXR.R.} u %XfX2X2X2X2X2X2X2X2X2X2X2X2X2X2X=XF.F.@ /.y.2.t.~ 7.%.",
"* iX+Xt.] d.|.&.B.=XfX2X2X2X2X2X2X2X2X2X2X2X2X2XfXx.0 i i l kXSXjXi i u u :XfXfX2X2X2X2X2X2X2X2X2X2X2X2X2X=XF.F.@ /.g.w.;.i.6.3.",
"= Y.-.~ s.! a.H B.=XfX2X2X2X2X2X2X2X2X2X2X2X:X).).U u u 0 j kXZXsX0 0 u u b.).).1X2X2X2X2X2X2X2X2X2X2X2X2X=XF.F.& {.g.) 4.g.E 3.",
"X pXe.&.7.,.1.1.B.=XfX2X2X2X2X2X2X2X<X<X<X<XJ.s s s s s u j kXkXQ.0 s s s s s U :X<X<X<X1X2X2X2X2X2X2X2X2X=XF.F.@ OX%.e +.$.q @.",
"o  Xy.aX<.$.^._ B.=XfX2X2X2X2X2XfX2X^ K K K H.tXtXtXtXtXl j kXSXjX0 5XtXtXtXtX9XU K K K _.fXfXfX2X2X2X2X2X=XD.F.> .. .` ) | N [ ",
"o oXs.`.@.i.$X:.B.=XfX2X2X2X2X_.J.J.H.P.P.P.6XbXbXbXbXbXA j pXjX6X0 9XbXvXcXvXyXP.P.P.P.K.J.J.:X2X2X2X2X2X=XF.F.# : : 8 * * : * ",
"o [.y.*X8.i.^.>.B.=XfX2X2X1X:XQ s d wXbXbXbXbXvXuXuXuXbXA i R.W...0 9XbXuXuXuXuXbXbXbXbXH.s d ).<X2X2X2X2X=XF.F.3 7Xk : ) N w ) ",
"#  X~ aX8.$.~ O.B.=XfX2XfX%XK W.yXyXuXuXbXvXbXcXuXuXuXcXA i R.W...0 9XbXuXuXuXuXvXuXuXuXyXtXtXW c.2X2X2X2X=XF.F.X E.{ q E  .N { ",
"X oXy.8.3.i.i.O.B.=XfXfX_.K.R.tXbXvXuXuXbXmXmXmXmXmXmXmXwXP.l l } 5XjXNXmXmXmXmXmXbXuXbXbXbXuX6XH.b.:XfX2X=XF.F.8 T.`.l.;.3.e.5.",
"o `.!.o.|.$.i.O.B.=X2X:Xc.} uXbXuXuXuXbXbXBXVXVXVXVXVXVXVXsXj j ..VXVXVXVXVXVXVXVXmXbXbXbXbXuXbX9XY _.<X2X=XF.F.: [.;.#./.g.] =.",
"# `.a.4.aXi.~ O.B.=X:XK W.uXvXuXuXuXuXnXBXBXBXVXVXVXVXBXBXBXNXNXNXVXVXVXBXBXVXVXBXBXBXBXnXuXvXuXuXyXY v.2X=XF.F.* .X4.&./.].l.~ ",
"o &X~ -.r.+X$.:.B.=X:Xp W.bXvXuXbXNXNXNXBXBXBXVXBXVXVXVXVXVXVXVXVXVXVXVXBXBXVXVXBXBXBXBXNXmXvXcXcXuXY c.2X=XF.F.- XX%.h.@Xh.O.-.",
"X .Xy.3.6.$Xg.' B.=X:Xp W.bXvXbXmXBXVXBXVXVXBXVXVXVXVXVXNXmXmXmXmXmXBXBXBXBXVXVXVXVXVXVXVXNXbXbXjXuXY c.2X=XF.F.O  Xs.4.iX;.$.7.",
"O  Xp.4.2.'.i.+.B.=X:Xp W.bXvXNXVXBXBXVXVXVXVXBXVXVXVXVXyXeXeXeXeXeXmXVXBXBXVXVXVXVXVXVXBXBXBXnXuXyXY c.2X=XD.F.#  Xp.3.OX;.$.1.",
"# [.p.<.>.=.$.>.B.=X1X%XG.H.uXNXVXVXVXVXVXVXBXBXBXVXNX4X4XeXeXeXeXeX4XrXBXVXVXVXVXBXVXVXBXBXBXmX9X} ).:X2X=XF.F.$  Xy.%.}.;.;.1.",
"# [.p.%.6.$.i.+.B.=XfXfX(.Q 6XnXVXVXVXVXVXVXBXBXBXVXmX4X4X4X4X4X4X4X4XrXBXVXVXVXBXBXVXVXVXVXBXtXR.^ :XfX2X=XF.F.$  Xy.%.r.$.$.1.",
"X  Xp.%.r.f.g.O.B.=XfX2X2X%Xs wXBXBXBXVXVXVXBXBXBXBXBXBXeXF F F F 3XbXBXVXBXBXBXBXBXBXVXBXBXNX| ^ 2X2X2X2X=XF.F.# .Xy.%.2.#.$.<.",
". .Xy.8.`.!.g.' V.>XlXfX2X<X%XG.W } jXAXAXAXVXBXBXBXBXVXmXbXbXbXbXbXNXBXVXVXBXVXVXVXAXAXW.W W ).:X2X2XhXlX;XF.F.# .Xy.<.>.=.i.1.",
". OXy.|.T.i.i.O.V.,XxXfX2X2X2XJ.^ c.Q.wXwXqXjXVXVXVXVXVXVXVXVXVXVXVXVXVXVXVXVXNXwXwXqXwXK.^ c.:XfX2X2XhXxX;XD.F.$ .Xy.4.2.f.g.1.",
"X &Xy.OXr.#.~ :.V.,XzXfX2X2X2X2X2X1XT p p p R.NXNXNXNXNXNXNXNXNXNXNXNXNXNXNXNXjXU p p p _.2X2X2X2X2X2XhXzX;XD.F.$  X~ 4.6.].'.1.",
"* iX1.#Xg.d.' &.V.=XgX2X2X2X2X2X2X2X:X%X:X:XJ.Y Y Y Y Y Y Y Y Y Y Y Y Y Y Y Y W %X:X:X:X<X2X2X2X2X2X2XfXfX=XF.F.$ [.g.<./ ].l.-.",
"  E.5.=.#.-.L.o.B.;XhXfX2X2X2X2X2X2X2X2X2XfX%Xv.v.v.v.v.v.v.v.v.v.v.v.v.v.v.v.b.<XfX2X2X2X2X2X2X2X2X2XgXhX=XF.F.O `.g.<./ h.1.-.",
"+ pXL.~ ;.5.*.o.V.,XxXgXfXfXfXfXfXfXfXfXfXfXfXfXfXfXfXfXfXfXfXfXfXfXfXfXfXfXfXfXfXfXfXfXfXfXfXfXfXfXfXhXxX;XF.F.O [.h.8.-.;.1.-.",
"o XXP I &.<.q o.V.,XZXxXxXxXxXxXxXxXxXxXxXxXxXxXxXxXxXxXxXxXxXxXxXxXxXxXxXxXxXxXxXxXxXxXxXxXxXxXxXxXxXZXxX;XF.F.$ .Xh.l.(.;.1.-.",
"< 7X_ |.iXiX .XXV.F.,X,X,X,X,X,X,X,X,X,X,X,X,X,X,X,X,X,X,X,X,X,X,X,X,X,X,X,X,X,X,X,X,X,X,X,X,X,X,X,X,X,X>X=XF.F.$ [.d.h.{.;.1.-.",
". e e k e e k 9 M.M.C.C.C.C.C.C.C.C.C.C.C.C.C.C.C.C.C.C.C.C.C.C.C.C.C.C.C.C.C.C.C.C.C.C.C.C.C.C.C.C.C.C.C.S.S.S.+ .X$.4.@X;.1.-.",
"  5 e 8 9 9 e : h M X.X.X.X.X.X.X.X.X.X.X.X.X.X.X.X.X.X.X.X.X.X.X.X.X.X.X.X.X.X.X.X.X.X.X.X.X.X.X.X.X.X.X.h h h + oXt.4.*X;.w.-.",
"*  .P G 1.e._ >.6 n S m n n n n n n n n n n n n n n n n n n n n n n n n n n n n n n n n n n n n n n n B S r 6 6 O &Xt.3.@X%.w.-.",
"@ O.7 [ e.&.q ) 6 n Z g x n n n n n n n n n n n n n n n x z g f g z v n n n n n n n n n n n n n n b g b S r 6 6 - `.l.7.#.l. .&.",
"@ OX-.2.e.&.E e.6 v V g q.0X8X8X8X8X8X8X8X8X8X8X8X8X8X0Xq.V g f x S 5X0X8X8X8X8X8X8X8X8X8X8X8X8X8X7Xn v C r 6 6 = `.%.l.t.&.E.t.",
"  OX!.[ 7.$.5.,.6 v C x D I.I.I.I.I.I.I.I.I.I.I.I.I.I.I.3Xq.g t B 5XI.I.I.I.I.I.I.I.I.I.I.I.I.I.I.I.M n C r 6 6 = OXf.<.j.o.e.t.",
"# |.=.o.l.t.5.' 6 v C c C S S S S S S S S S S S S D 0.S 5X5Xg t C 0X0.D 0.D S S S S S S S S S S S S n M C r 6 6 o [.T.y #.:.k I ",
"O OXs.`.d.I -.+.6 v V g B D S S S S S S S S S S S 3X6XD 5X5Xg t C 0X0.I.8X0.S S S S S S S S S S S S x v C r 6 6 4 E.R.N 6.w.N 2.",
"  OXs.&X1.t.(.<.6 v V g B D S S S S S S S S S S S B n S 5X5Xg t C 0Xq.V v S S S S S S S S S S S S S x v C r 6 6   k 8 9 9 : 4 9 ",
". OXa.&Xh.j.&X1.6 v V g B D S S S S S S S S S S D f 3 S 5X5Xg t C 0Xq.v 1 V D S S S S S S S S S S S x v C r 6 6 & [ e w q e 4 q ",
"@ `.=.&X1.I !.' 6 v V g B D S S S S S S S S S S D g 3 S 5X5Xg t C 0Xq.v 3 C D S S S S S S S S S S S x v C r 6 6 ; .X) : k 9.: [ ",
"X  Xp.|.2.;.$.>.6 v V g B D S S S S S S S S S S S C B S 5X5Xg t C 0Xq.Z B S S S S S S S S S S S S S x v C r 6 6 & {.$.' *.~ 1.3.",
"O [.p.`.T.;.$.>.6 v C x B D S S D S S S S S S S S D D S 5X5Xg t C 0Xq.S D S S S S S S S S S S S S S v n C r 6 6 @ {.i.1.L.;.1.%.",
"#  Xy.4. X;.$.+.6 v Z b Z D S S S S S S S S S S S S S S 5X3Xg t V 0Xq.S S S S S S S S S S S S S S S M M C r 6 6 & {.p.e.[.f.d.@.",
"O OXt.%. X^.;.O.6 v C z B D D D D D D D D D D D D D D D 0.S g f n 0.D D D D D D D D D D D D D D D S v n C r 6 6 & {.t.e.[.f.d.%.",
"  pX~ %.T.#Xi.O.6 v V g n B B B B B B B B B B B B B B B B n g f z B B B B B B B B B B B B B B B B B z v C r 6 6 & [.t.e.[.f.1.%.",
"  pXt.<.6.OXg.O.6 v C z g g g g g g g g g g g g g g g g g g g g g g g g g g g g g g g g g g g g g g g n C r 6 6 @ [.i.l.{.f.1.@.",
"X OXy.4.2.g.i.O.6 n S C C C C C C C C C C C C C C C C C C C C C C C C C C C C C C C C C C C C C C C V Z S t 6 6 & [.i.e.[.y.1.<.",
"# `.p.4.6.~ i.+.3 r z g g g g g g g g g g g g g g g g g g g g g g g g g g g g g g g g g g g g g g g g z z 5 3 3 & [.t.1.L.#.&.4.",
"X .X1.O.(.].l.E , , , , , , , , , , , , , , , , , , , , , , , , , , , , , , , , , , , , , , , , , , , , , 1 1 1 $  Xy.%.O.i.$.+.",
"# `.g.h.{.&.k.! -  Xy.3.6.#.i.:.;  Xa.4.6.g.$.:.o OXa.@.3.$.g.:.= }.g.!.{.&.i.O.-  Xy.3.6.#.i.:.;  Xa.4.6.g.$.:.# .Xs.%.O.i.i.e.",
"X `.^.|.-.#.k.E -  Xa.<.<.$.;.:.;  Xa.3.r.].f.O.#  Xs.@.7.^.^.2.= `.j./.-.&.1.E -  Xa.3.<.$.;.:.;  Xa.3.r.].f.O.# .Xp.%.2./.^.r.",
"- [.g.aX/ h.k.! -  Xy.%.<.g.i.:.-  Xy.3.r.+Xg.{ - `.s.@.l.+Xg.{ =  Xi.*X-.h.g.E -  Xy.%.<.g.i.:.-  Xy.3.r.+Xg.{ # [.t.%.8.{.!.>.",
"- L.d.|./ $.k.! ;  X=.%.6.].g.:.-  Xy.%.r.+Xg.[ ; `.s.@.8.^.i.[ = T.$.{.-.d.f.o.;  X=.%.6.].g.:.-  Xy.%.r.+Xg.[ $ [.y.%.6.^.i.+.",
"  [.`.O./ &.l.E ;  X=.%.6.$Xg.:.- oXa.3.r.+Xg.{ -  Xg.3.<.$.$.:.X XX!.! *.&.l.[ ;  X=.%.6.$Xg.:.- oXa.3.r.+Xg.{ $  Xs.4.O.=.$.7.",
"X pX7.{ -.h.w.E -  Xa.3.6.$Xi.O.-  Xa.3.6.'.i.O.- .Xa.8.r.~ i.:.O pX4.! 5.k.+.{ -  Xa.3.6.$Xi.O.-  Xa.3.6.'.i.O.$ [.s.h.6.=.~ 7.",
"& R.7 ,.-.' 8 E -  Xs.3.<.$Xi.{ -  Xy.3.3.g.$.O.-  X~ `.OXi.i._ ; E.7 *.5.' 7 [ -  Xs.3.<.$Xi.{ -  Xy.3.3.g.$.O.> `.t.`.}.!.$.>."
};
