/* XPM */
static char *result[] = {
/* columns rows colors chars-per-pixel */
"64 64 171 2 ",
"   c #040404",
".  c #0A0704",
"X  c #0C0806",
"o  c #0E0E0E",
"O  c #140B05",
"+  c #180D06",
"@  c #110E0D",
"#  c #190F08",
"$  c #14100E",
"%  c #1B120B",
"&  c #131312",
"*  c #191817",
"=  c #171718",
"-  c #171818",
";  c #1B1B1C",
":  c #241104",
">  c #2C1605",
",  c #23160A",
"<  c #26190D",
"1  c #2F1B0D",
"2  c #351A06",
"3  c #3B1D07",
"4  c #3A1E09",
"5  c #211710",
"6  c #271B11",
"7  c #2D1D15",
"8  c #3E220D",
"9  c #342110",
"0  c #35251E",
"q  c #1F2021",
"w  c #212222",
"e  c #272829",
"r  c #2B2B2B",
"t  c #332521",
"y  c #3A2D27",
"u  c #3C332B",
"i  c #343434",
"p  c #3E3935",
"a  c #3C3C3D",
"s  c #442007",
"d  c #442108",
"f  c #4B2509",
"g  c #512709",
"h  c #54290B",
"j  c #5C2D0B",
"k  c #422714",
"l  c #543014",
"z  c #5A381C",
"x  c #67330E",
"c  c #6C350E",
"v  c #73390F",
"b  c #723910",
"n  c #7A3D11",
"m  c #462A22",
"M  c #492D22",
"N  c #493628",
"B  c #543426",
"V  c #533B23",
"C  c #553329",
"Z  c #543B2C",
"A  c #5E3B2B",
"S  c #423D3B",
"D  c #623E2C",
"F  c #734018",
"G  c #7E4418",
"H  c #5A422A",
"J  c #5F4234",
"K  c #6E482D",
"L  c #734620",
"P  c #784D27",
"I  c #634332",
"U  c #764B37",
"Y  c #744438",
"T  c #7D4D3C",
"R  c #7F503A",
"E  c #3F4040",
"W  c #444444",
"Q  c #474848",
"!  c #4C4C4C",
"~  c #4F4F50",
"^  c #4F5050",
"/  c #555555",
"(  c #5C5C5C",
")  c #636363",
"_  c #696969",
"`  c #7D7D7E",
"'  c #854313",
"]  c #8B4513",
"[  c #8D4817",
"{  c #814A1F",
"}  c #8F4D1C",
"|  c #914E1C",
" . c #865227",
".. c #88582E",
"X. c #935523",
"o. c #975D2C",
"O. c #9A5E2C",
"+. c #825B34",
"@. c #8B5D33",
"#. c #81523B",
"$. c #9C602D",
"%. c #966132",
"&. c #9B6534",
"*. c #94633D",
"=. c #9A673F",
"-. c #9E6A3A",
";. c #A06C3C",
":. c #834D41",
">. c #8B5642",
",. c #815843",
"<. c #8F5B42",
"1. c #8C514E",
"2. c #8D5E49",
"3. c #945E43",
"4. c #955849",
"5. c #98594F",
"6. c #885659",
"7. c #8F5B59",
"8. c #945750",
"9. c #9B5B51",
"0. c #A45F54",
"q. c #92624A",
"w. c #A66D46",
"e. c #A5694C",
"r. c #AA6C4D",
"t. c #AF714D",
"y. c #B3764A",
"u. c #A76155",
"i. c #AC6655",
"p. c #AD6955",
"a. c #AD6B5B",
"s. c #B16A57",
"d. c #AC7357",
"f. c #B67256",
"g. c #BB7557",
"h. c #BF7857",
"j. c #B67258",
"k. c #BB7659",
"l. c #BF7958",
"z. c #977F70",
"x. c #BC7D61",
"c. c #C47D59",
"v. c #C48252",
"b. c #C88652",
"n. c #CF8C54",
"m. c #C6805B",
"M. c #CA835C",
"N. c #D28B59",
"B. c #D98F5C",
"V. c #D5915F",
"C. c #DF935D",
"Z. c #E2965E",
"A. c #E69B5E",
"S. c #E89C5F",
"D. c #C38261",
"F. c #C88763",
"G. c #CA8864",
"H. c #DB9561",
"J. c #E19964",
"K. c #D5A37E",
"L. c #E9A166",
"P. c #B49886",
"I. c #C7A58F",
"U. c #C8A58F",
"Y. c #C3A797",
"T. c #CBA791",
"R. c #CCA891",
"E. c #E1AC83",
"W. c #EAB689",
"Q. c #C3AEA0",
"!. c #F4C595",
/* pixels */
"!.L.c.9.6.Q.x.p.C.c.l.l.l.l.g.i.C.m.h.h.l.l.g.a.W.L.A.Z.n.n.b.t.v.r.e.e.f.c.g.p.C.M.x.l.l.D.k.p.C.c.l.l.h.l.g.i.C.c.h.l.l.l.g.u.",
"!.J.c.0.7.Y.x.p.Z.c.l.l.l.l.g.i.C.c.h.h.l.l.k.i.H.c.D.e.7 % < * < % # * #.g.f.i.C.F.T.x.D.T.x.p.C.c.l.l.l.l.g.p.Z.c.l.l.l.l.g.0.",
"J.c.g.f.f.x.j.u.C.c.l.l.l.l.g.i.C.m.l.l.l.l.l.i.K 7 0 t W o i ^ ^ a X E y 7 6 m N.c.x.k.k.x.j.u.C.c.l.l.l.l.g.i.C.m.h.h.h.l.g.0.",
"F.s.i.i.p.p.u.5.C.c.l.l.l.l.g.p.C.c.h.l.c.r.B m $ ; a E ) Q r ! / i E ) ! a e . M M >.p.i.p.u.9.C.m.l.l.l.l.g.i.C.c.h.h.l.h.g.0.",
"W.J.Z.C.C.C.B.l.Z.c.l.l.l.l.g.i.C.m.x.c.e.I r e r i ^ _ _ _ E i a i _ _ _ / i r e e I y.Z.C.V.l.C.m.l.l.l.l.g.i.Z.m.x.c.l.D.k.0.",
"L.M.F.M.c.M.c.s.Z.c.l.l.l.l.g.i.C.F.T.d.I e ) _ _ E e ^ ^ ^ ^ e & ~ ! ~ / i i _ _ _ i Z r.F.c.a.C.c.l.l.l.h.k.i.C.F.U.x.D.I.x.0.",
"S.F.U.x.x.I.x.i.C.c.l.l.l.l.g.i.V.c.j.A w _ _ _ _ ) a . $ + O O O $ O O   i ( _ _ _ ( i N P.k.p.C.c.h.l.l.l.g.p.B.c.x.k.k.x.j.9.",
"S.c.x.c.c.D.k.i.Z.c.h.l.l.l.k.i.l.i.M X w ) _ _ _ p X % +.G n n { @.n n > X r ) _ ) r i W y p.i.C.m.h.h.l.l.g.i.c.s.p.i.i.i.i.1.",
"J.c.h.h.h.h.k.i.C.c.h.h.h.l.g.a.K.Z a / a e ( r = k x F -.| ] ] X.;.[ ] v F H ; - ; a ( ) Q 0 4.Z.c.l.l.l.l.k.a.E.H.C.C.C.C.B.g.",
"S.c.h.h.h.h.k.i.Z.c.h.h.l.l.k.p.H.6 W _ ( a r V l b ] | ;.[ ] ] X.;.[ ] ] O.@.h f . ! _ _ / @ 4.Z.c.l.l.l.l.g.p.J.G.F.m.m.F.c.u.",
"S.c.c.h.h.l.g.i.C.c.c.h.h.h.h.9.#.u / _ ( S d *.X.] ] } ;.} ] ] X.-.[ ] ] o.&.[ ] d u / _ / X B v.c.l.l.l.l.g.p.Z.F.U.x.x.T.k.u.",
"S.c.l.l.l.l.h.i.C.c.h.h.h.c.h.:.@ ( _ _ W + ' -.X.] ] } ;.} ] ] X.;.[ ] ] o.&.] ] ] > i ) Q ; X =.M.h.l.h.h.g.p.C.c.x.c.c.x.j.u.",
"S.c.c.g.l.l.k.i.Z.c.x.c.l.D.h.:.@ ! ) ) W : ' -.X.] ] | ;.} ] ] X.-.[ ] ] o.&.] ] ] 8 i W w / & =.M.x.c.l.x.k.p.C.c.h.h.l.l.g.u.",
"S.M.g.c.h.l.g.i.Z.D.T.x.x.T.x.:.@ o ! a 1 n [ -.X.] ] | ;.} ] ] X.-.[ ] ] o.&.] ] ] ..N e ( ) * *.F.U.x.D.I.x.p.C.m.l.l.l.l.f.u.",
"S.c.c.g.h.h.g.a.B.c.x.g.h.x.>.t ! ! r X > ] [ -.X.] ] [ ;.} ] ] X.-.[ ] ] o.&.] ] ' -.z q _ ) ^ u U x.h.f.x.f.i.C.m.l.l.h.l.g.u.",
"S.c.g.c.h.h.g.u.c.s.i.i.a.a.Y & ) _ w : x ] [ -.X.] ] | ;.[ ] ] X.-.[ ] ] o.&.] ] ] &.P k p _ _ ; C s.i.i.i.i.5.C.c.l.l.l.h.f.u.",
"S.c.h.h.g.h.g.p.E.J.Z.C.C.Z.q.* ) _ w d [ ] [ -.X.] ] } -.} ] ] X.-.[ ] ] o.&.] ] ] &.O.j & ) _ w K Z.Z.Z.C.B.h.Z.c.h.h.l.l.g.u.",
"S.m.h.h.c.g.k.p.H.M.F.m.m.G.#.& ( _ w d ] ] [ -.| ] ] } -.} ] ] X.-.[ ] ] o.&.] ] ] &.O.j & ) _ w D c.c.c.c.c.s.C.c.h.h.l.l.g.0.",
"S.m.c.h.h.h.g.i.C.F.T.D.D.T.,.& / ( ; d [ ] [ -.X.] ] } ;.} ] ] X.-.[ ] ] o.&.] ] ] &.O.j & / ( * A c.c.h.l.g.i.C.c.c.h.l.l.g.0.",
"S.c.c.h.l.c.g.i.C.c.x.l.l.D.#.  $ $   d ] ] [ -.X.] ] } ;.} ] ] X.-.] ] ] o.&.] ] ] &.O.j   @ &   D c.g.h.c.g.i.C.m.h.h.l.h.g.0.",
"S.c.x.l.l.D.k.i.C.c.l.l.h.c.#.& Q ^ * s [ ] [ ;.X.] ] } -.} ] ] X.-.[ ] ] o.&.] ] ] &.$.j o Q ! = A c.g.c.g.g.i.C.c.h.l.l.l.g.0.",
"S.F.U.D.D.I.x.i.C.c.l.l.h.c.T & ) _ w s ] ] [ -.X.] ] } -.} ] ] X.-.[ ] ] o.&.] ] ' &.O.j & ) _ q A c.g.g.c.g.i.C.c.l.l.l.l.g.0.",
"Z.c.x.k.k.x.j.u.C.c.k.k.h.c.R & ) _ w s ] ] [ -.X.] ] } ;.} ] ] X.-.[ ] ] o.&.] [ ] &.$.j & ) _ q A c.c.c.g.g.i.C.m.l.l.l.l.g.0.",
"F.p.i.p.i.i.i.5.C.c.c.h.h.c.R & ) _ w s ] ] [ -.X.] ] } ;.} ] ] X.-.[ ' ] o.&.' c x P L s & ) _ w A c.g.g.c.g.i.C.c.h.l.l.h.g.0.",
"W.J.C.C.C.C.B.l.Z.c.c.l.h.l.T & / ( ; s ] ] [ ;.X.] ] [ -.| ] ] X.-.[ ] ] o.&.b O & X $ $ & / ( ; A c.l.l.l.k.i.C.m.x.c.l.D.k.u.",
"L.M.F.c.m.F.c.p.C.c.l.h.h.c.#.  $ o   d ] ] [ ;.X.] ] | -.| ] ] X.-.[ ] ] o.&.b $ ` i ! _   o &   A c.l.l.l.k.i.C.F.I.D.x.T.k.0.",
"A.F.I.D.x.T.x.i.C.c.l.l.l.c.#.& Q ^ ; d ] ] [ -.X.] ] | ;.| ] ] X.-.[ ] ] o.&.b X e o * q o Q ! = A c.g.l.l.k.i.V.c.x.k.k.x.j.9.",
"S.m.x.l.l.D.k.p.C.c.l.l.l.c.R & ) _ q d ] ] [ -.X.] ] } -.[ ] ] X.-.[ [ ] o.&.' h g z z 2 & ) _ q A c.l.l.l.k.i.c.s.p.i.i.p.p.1.",
"S.c.h.h.l.h.g.i.C.c.h.h.h.c.R & ) _ w d [ ] [ -.X.] ] [ ;.| ] ] X.-.[ ] ] o.&.] [ ] &.$.j & ) _ q A c.g.l.l.g.p.E.J.C.Z.C.C.B.j.",
"S.c.h.h.l.l.g.i.C.m.h.h.l.l.R & ) _ w d [ ] [ -.X.] ] } -.| ' ] X.-.[ ] ] o.&.] ] ] &.O.j & ) _ q A c.c.l.l.g.p.H.M.F.m.M.F.c.u.",
"S.m.c.h.l.l.g.i.C.c.c.h.l.c.T & / ( ; d ] ] [ -.X.] ] } ;.| ] ] X.-.[ ] ] o.&.] ] ] &.O.j & / ( ; A c.g.h.h.g.p.Z.F.T.x.x.U.x.0.",
"S.c.h.h.h.l.g.p.C.m.h.h.l.c.R   o o   d ] [ [ -.X.] ] [ ;.| ] ] X.-.] ] ] o.&.] ] ] &.O.j   o o   A c.g.h.h.g.p.C.m.x.l.c.x.k.0.",
"S.c.l.h.l.h.k.i.Z.c.x.c.h.F.#.& Q ^ * s [ ] } -.X.] ] } -.} ] ] X.-.[ ] ] o.&.] ] ] &.o.j o Q ! - H D.c.l.D.k.i.C.c.l.l.l.h.g.0.",
"S.c.l.l.l.l.g.i.C.F.T.x.x.R.,.& ) _ w s ] n 8 8 8 2 g | ;.[ ] ] X.-.[ ] ] o.&.] ] ] &.$.j & ) _ w J R.x.x.T.x.p.C.m.l.l.l.l.g.0.",
"S.c.l.l.l.l.g.i.B.c.x.h.k.x.T & ) _ q s ] ' 8     O h | ;.} ] ] X.-.[ ] ] o.&.] ] ] &.O.j & ) _ q A x.h.k.x.j.i.C.c.l.l.l.l.g.0.",
"S.c.l.l.l.l.k.i.c.s.i.i.a.s.Y & ) _ q s ] ' x 9 , d v } ;.} ] ] X.-.[ ] ] o.&.] ] ] &.o.j & ) _ q C s.i.i.i.u.5.C.c.l.l.l.l.g.u.",
"S.c.c.h.g.c.g.p.E.J.Z.C.H.Z.*.& / ( ; d [ v + +.X.s > } ;.} ] ] X.-.[ ] ' o.&.] ] ] &.$.j & / ( ; K J.C.C.C.B.l.Z.c.l.l.h.l.g.0.",
"S.m.h.h.c.g.g.i.H.G.F.c.M.F.#.  o $   d ] v # +.X.s > } ;.| ] ] X.-.[ ] ] o.&.] ] ] &.%.j   o $   D G.c.c.F.c.p.C.c.l.l.l.l.g.0.",
"S.c.h.h.g.c.g.i.Z.F.I.x.D.T.,.& Q ^ ; d [ ' x 4 , d b } ;.[ ] ] X.-.[ ] ] o.&.] ] ] &.$.j o Q ! = I T.D.x.T.x.i.C.c.l.l.l.l.g.0.",
"S.c.h.l.c.g.g.i.Z.c.x.c.l.F.R & ) _ q d ] ] ] D l c [ } ;.[ ] ] X.-.[ ] ] o.&.] ] ] &.$.j & ) _ w A D.l.c.D.g.i.C.m.l.l.l.l.g.0.",
"S.m.D.l.l.x.k.p.C.c.h.h.h.c.R & ) _ w d [ ] [ ;.X.] ] } ;.} ] ] X.-.[ ] ] o.&.] ] ] &.O.j & ) _ ; A c.l.h.h.g.i.C.c.h.h.h.l.g.u.",
"S.F.U.x.D.T.x.p.C.m.h.h.l.l.R & ) _ w d ] ] [ -.X.] ] | ;.} ] ] X.-.[ ] ] o.&.] ] ] &.O.j & ) _ w A c.l.l.c.g.i.C.m.h.h.h.l.g.0.",
"Z.c.x.k.k.x.j.i.C.c.l.l.l.c.R & / ( ; d ] ] [ -.X.] ] } =.| ] ] X.-.[ ] ] %.&.] ] ] &.O.j & / ( ; A c.g.l.l.g.i.C.c.c.h.l.h.g.0.",
"M.s.i.i.i.p.u.5.C.c.l.l.l.c.R   o o   d ] [ [ -.X.] ] } ;.| ] ] X.-.[ ] ' o.&.] ] ] &.O.j   o o   A c.l.l.l.g.i.C.m.h.h.l.h.g.0.",
"W.H.C.C.C.C.B.l.Z.m.h.l.h.c.#.$ Q ^ * s ] ] [ ;.X.] ] } ;.} ] ] X.-.[ ] ] o.&.] ] ] &.O.j o Q ^ = A c.h.l.l.k.i.C.c.D.l.l.x.l.u.",
"L.M.F.m.m.F.c.p.C.c.h.l.h.c.R & ) _ w s [ ] [ -.X.] ] [ ;.[ ] ] X.-.[ ] ] o.&.] ] ] &.O.j & ) _ w A c.l.l.l.g.i.C.F.Y.D.x.T.k.u.",
"S.F.I.D.x.T.x.i.C.m.l.l.l.l.R & ) _ w s ] ] [ -.X.] ] } ;.} ] ] X.-.[ [ ] o.&.] ' ] &.o.j & ) _ q A c.h.l.l.k.p.B.c.x.k.k.x.j.9.",
"A.m.x.l.l.D.k.i.C.c.l.l.l.c.#.& ) _ w s ] ] [ -.X.] ] } ;.} ] ] X.-.[ ' ] o.&.] [ ] &.$.j & ) _ q A l.h.l.l.k.u.m.p.i.i.i.p.p.1.",
"J.m.c.c.l.h.g.i.C.c.h.l.l.c.R & / ( q d ] ] [ -.X.] ] | ;.} ] ] X.-.[ ] ] o.&.] ] ] &.o.j & / ( ; A c.l.g.c.g.p.E.J.Z.C.C.C.B.g.",
"S.m.h.h.l.l.g.i.C.m.h.h.h.c.R   o o   d [ ] [ -.X.] ] [ ;.} ] ] X.-.[ ] ] o.&.] ' ] %.o.j   o $   A c.l.g.c.g.i.J.M.F.m.c.F.c.u.",
"S.m.h.g.l.l.k.i.C.c.c.h.h.c.#.o Q ~ * d ] ] [ -.X.] ] | ;.} ] ] X.-.[ ] ] o.&.n > + < < O o Q ! = A c.h.c.g.h.i.Z.F.T.x.D.U.x.0.",
"S.c.h.h.h.l.g.i.Z.c.g.h.l.c.#.& ) _ w d [ ] [ -.X.] ] } -.[ ] ] X.-.] ] ] o.&.b X ( w i ! & ) _ q A c.h.k.c.k.i.C.c.x.l.l.x.k.0.",
"S.c.h.h.h.h.g.p.C.c.x.c.l.F.R & ) _ q d ] ] [ -.X.] ] } =.| ] ] X.-.[ ] ] o.&.b @ / w i Q & ) _ q A F.c.c.x.k.i.Z.c.h.l.h.h.g.0.",
"S.c.h.h.l.h.g.i.C.F.T.x.x.R.,.& ) _ q 8 ] ] [ -.X.] ] } ;.| ] ] X.-.[ ] ] o.&.n > : < < O & ) _ q D R.x.x.T.x.i.C.c.l.l.l.l.g.0.",
"S.c.c.h.l.l.g.p.B.c.x.h.k.x.R & / ( 5 d ] ] [ ;.X.] ] } ;.| ] ] X.-.[ ' ] o.&.] ' ] &.o.j & / ( q Z x.k.k.x.j.i.C.c.l.l.l.l.g.0.",
"S.m.h.h.h.l.g.i.x.s.i.i.a.s.Y   & &   d [ ] ] -.X.] ] [ ;.[ ] ] X.-.[ ] ] o.&.] ] ] &.o.j   o o   C a.i.i.i.0.9.C.c.l.l.l.l.g.0.",
"S.c.h.l.l.l.k.p.E.J.C.Z.C.Z.*.$ Q ! * d ] ] [ ;.X.] ] } -.} ] ] X.-.[ ] ] o.&.] ] ] &.O.j o Q ^ & K Z.C.C.C.C.l.Z.c.l.l.l.l.g.u.",
"S.c.l.l.l.l.k.p.J.M.F.m.c.F.#.& ) _ w d ] ] ] ;.X.] ] } ;.} ] ] X.-.[ ] ] o.&.] ] ] &.$.j & ) _ q I G.M.c.F.l.s.C.c.h.h.l.h.f.u.",
"S.c.c.l.l.l.g.i.Z.F.I.x.x.T.,.& ) _ w d [ ] [ ;.X.] ] } ;.} ] ] X.-.[ ] ] o.&.] ] ] &.O.j & ) _ w J T.x.x.T.x.i.C.m.h.h.l.l.g.u.",
"S.c.g.l.l.h.g.i.Z.c.x.c.c.F.#.* ) _ w d [ ] [ ;.X.] ] [ w.| ] ] X.;.[ [ ] $.&.] ] ] &.$.j & ) _ q A D.l.l.D.k.i.Z.c.h.h.l.h.f.u.",
"S.c.D.c.c.D.k.i.H.c.h.l.l.l.T & / ( 5 3 n n n @.{ n n G @.G n n { @.G n n  ...n n n .. .f & / ( ; A c.g.l.h.g.i.C.c.l.l.l.l.g.u.",
"S.F.U.x.x.I.x.i.Z.c.h.l.l.c.#.X @ @ o X + + # # + + # O % # # + + % O + O % # O + O % # O X @ & X I c.h.l.l.g.p.C.c.l.l.l.l.f.u.",
"Z.c.x.g.g.x.f.u.C.c.l.l.h.h.r.:.w.3.*.>.4.>.>.#.w.q.z.q.2.z.2.:.w.3.>.<.>.>.>.#.w.>.>.>.>.>.:.T w.r.h.h.h.l.g.p.C.m.l.l.l.h.g.u.",
"c.u.0.u.0.0.0.8.C.c.l.l.h.h.h.s.J.c.c.c.c.c.c.s.J.D.D.c.c.D.c.i.Z.M.c.c.c.c.h.i.c.i.u.u.u.u.0.5.Z.m.l.h.h.h.g.p.C.c.l.l.l.h.g.0."
};
