/* XPM */
static char *eb868523e38a434de77d7aefb3e9a902Vav1XsIEpPkyFCiW[] = {
/* columns rows colors chars-per-pixel */
"64 64 51 1 ",
"  c #3F9B36",
". c #37963F",
"X c #39973D",
"o c #3B993A",
"O c #5EAD0F",
"+ c #5BAB13",
"@ c #53A61D",
"# c #56A819",
"$ c #58A918",
"% c #61AE0C",
"& c #66B106",
"* c #6BB400",
"= c #64B009",
"- c #469F2D",
"; c #419C32",
": c #4DA225",
"> c #49A129",
", c #51A520",
"< c #2A8F4E",
"1 c #2C934D",
"2 c #2E9B4E",
"3 c #349442",
"4 c #319346",
"5 c #339444",
"6 c #309248",
"7 c #309F4E",
"8 c #298E50",
"9 c #2A9050",
"0 c #2B9256",
"q c #2B9358",
"w c #2C955A",
"e c #2D975C",
"r c #2D985E",
"t c #31A34D",
"y c #32A44D",
"u c #36AF4B",
"i c #33A84C",
"p c #34AB4C",
"a c #36AE4C",
"s c #37B34B",
"d c #2E9A61",
"f c #2F9D65",
"g c #309D66",
"h c #319F68",
"j c #31A16B",
"k c #32A36D",
"l c #33A46F",
"z c #33A570",
"x c #34A672",
"c c #34A774",
"v c #35A976",
/* pixels */
"8272222119988888888888888>******=388888>**********%.888088888888",
"82usssuaappiytt7188888884%*******:88888o**********><888888888888",
"88yssssssssssssa188888883@$+%=&**%588881+********><8888888888<48",
"882usssssssssss28888888888<115.o;-388888:*******:<8888888888<>#1",
"888tssssssssssy8888888888888888888888888o******:<8888888888<>*&.",
"8882ussssssssa288888888888888822221988881O****:18888888888<>***>",
"8888tssssssss788888888888888882sssapy2888:***,18888888888<>****O",
"18882ussssssp988888888888888881ussssy9888o**,18888888888<>******",
";8888tssssss28888888888<1.;4888isssa188881O@1888829888883$&*****",
"#<8882usssst8888888<6X-@O&%4888tsss288888<o188881a28888881X>+&**",
"%38888tsssa1888888X#%*****@<8882sst8888888888888tss2888888881X>+",
"X488881ass2888<4884$******;88881up98888888888881assa288888888881",
"8888888tsy9888;@<883O****=588889y288888888888882ssssp18888888888",
"88888881p28883%=4888X=***#<88888188888888888881psssssy9888888888",
"8888888818881$** 8888 &**-888888888888888888882ssssssst888888888",
"888888888888>***:88888-*&3888888888881o1888889psssssuai288888888",
"hhhhhhe8888o&***O18888<:#<888888881X:O+1888882yt722211988843888w",
"vvvvvx08884+****&X8888813888888<3-$&**:888888888888888888o+-8880",
"kvvvvd888<@******>888888888884;#&*****o88<<<888888888881>&*-8888",
"evvvk9888;*******$<888888<1o@%*******%188<888888888888.$***-8888",
"9kvve<883=*******&38888883+**********,888888888888881-=****-8888",
"<rvj8881$*********;888888<>********** 88888888888883#******-8888",
"80kw888X$%&*******@<888888<-********%68888888888883+*******-8888",
"8808888<<6. >@+%&*%48888888<-*******,8888888888888<X:%*****-8888",
"8888888888888814X;>488888888<-****** 888888889q8888884;$&**-8888",
"88888888888888888888888888888<-&***%488888880jj888888881o,=-8888",
"888888888888888888888819888888<-&**@8888888wkvx08888888888558888",
"8888888888088888888888yy18888888-&*;888888rxvvvw<888888888888888",
"8158888888jr8888888889psp28888888-+488889fvvvvvd<888928888888888",
"<>@<888880xxw888888881ussu2888888<3<8880jvvvvvvj88881ay188888888",
"-*%68888<rvvl088888882sssssy1888888888wlvvvvvvvl98881usa29888888",
"***o88888hvvvj98888882ssssssp28888888dxvvvvvvvvcw8882ssssy28888X",
"***>88880zvvvvg888888tsssssssa288888qkvvvvvvvvvvr<882sssssy188X%",
"***$<88<evvvvvvd88888yssssssssa2888889whxvvvvvvvg8882sssi29885+*",
"***=5888gvvvvvvce8889psssssui218888888<80dkcvvvvk8882sy298886$**",
"****;889lvvvvvvxj9881usssp728888888888888<8wgzvvx08822888881#***",
"****:8<wvvzkgdw098882sat2988888888888888888<80ejxe<888888883$&**",
"=***+180rw088<<8888812988888888888888888888888<8008888888888<3-@",
"4 ,%=.88<888888888888888888888888888X38888888888888888888888888<",
"8881o4888888888888888888888888888888>=:.<88888888888888918888888",
"888888888888o:>>>>>>X888888892888888 **&@o1888888888881y78888888",
"888888888888o&*****&o8888888ti9888883&****$;1888888882ast8888888",
"888888888888<@*****@<8888882su2888881O******+3888889tsssy8888129",
"7298888888888X&***&.8888882usst88888<#******,188881yssssy88882up",
"sspt298888888<@***:8888882asssp988888>*****:188882asssssp98889ps",
"ssssspt2188888X&*=3888881psssss288888;****:18889tsssssssa98888ts",
"ssssssssa28888<@*>888889ysssssst88888.&**:<88882asssssssa188882s",
"sssssssst988888X+488889ysssssssa188881%*:<8888881tasssssu188881p",
"ssssssst8888888<3888881yasssssss28888<#:<8888888881tassss288888t",
"ssssss78888888888888888812tpssssy88888318888888888881tass2888882",
"ssssst888138888888888888888927iua18888888888831888888817a2888888",
"ysss78888:$<888888888888888888812188888888881$>88888888811888888",
"2ss28888o&*o88888888888888888888888888888888X&& 8888888888888888",
"1p288881+**@<88888<8888888888888888881188888>**%X888888888888888",
"8288888:***&388880e088<88888888888882pt88881+***+488888888888888",
"888888o&****:888<wcxkge0888888888897usy8888X&****#1888w08<888888",
"888886+*****%48889lvvvvxkw88888882ysssp9888>******:<88fxgw8<8888",
"8888<:*******-8888gvvvvvf9881o<81yssssu1881+*****%#58<dvvcje9<88",
"88884#O%&****O188<rvvvxr8888 %388927ius288o&&+@-X4<88<evvvvvkd08",
"8888<<143o;>:@.8880xvzw88881$*:888888122883 3188888888wvvvvvvvk0",
"8888888888888<<8888kk088888;**=388888888888888888888880xvvvvvjw8",
"8888888888888888888w0888881+***:888888X;318888888888889lvvvzd888",
"88888888888888888888888888;****=388888o&&O@-X4<88888888kvcg08888",
"88888888888888888888888881+*****>888881O****&%#-X188888jze888888"
};
