/* XPM */
static char *_fc93542645941e9c650c7e043f3f8f9quRVgaqj94EfcW0m[] = {
/* columns rows colors chars-per-pixel */
"64 64 256 2 ",
"   c #0A0300",
".  c #0E0A03",
"X  c #070807",
"o  c #130B02",
"O  c #1C0D04",
"+  c #1D0D0A",
"@  c #160402",
"#  c #161104",
"$  c #1C1404",
"%  c #1C130A",
"&  c #1C190C",
"*  c #16130B",
"=  c #030813",
"-  c #0B1619",
";  c #1B1414",
":  c #181716",
">  c #14100F",
",  c #260803",
"<  c #360B04",
"1  c #241503",
"2  c #22140C",
"3  c #24190E",
"4  c #2A1805",
"5  c #391509",
"6  c #250B11",
"7  c #251511",
"8  c #241A12",
"9  c #2A1B13",
"0  c #26161C",
"q  c #381918",
"w  c #370D14",
"e  c #25221A",
"r  c #332012",
"t  c #0D1921",
"y  c #161F26",
"u  c #271922",
"i  c #331822",
"p  c #300F2A",
"a  c #2C2124",
"s  c #25262F",
"d  c #3A282A",
"f  c #3E3023",
"g  c #192123",
"h  c #48190A",
"j  c #5B1701",
"k  c #461D15",
"l  c #4D1317",
"z  c #492209",
"x  c #51280D",
"c  c #47291A",
"v  c #5A2915",
"b  c #51321E",
"n  c #712B0A",
"m  c #672A1D",
"M  c #693517",
"N  c #78341B",
"B  c #692C0B",
"V  c #511F2D",
"C  c #442726",
"Z  c #562A26",
"A  c #583829",
"S  c #47302F",
"D  c #682C29",
"F  c #663727",
"G  c #773B28",
"H  c #782C2E",
"J  c #631D00",
"K  c #79441D",
"L  c #684839",
"P  c #7A4939",
"I  c #6A472C",
"U  c #2E2A43",
"Y  c #5F4342",
"T  c #684A45",
"R  c #794845",
"E  c #7D5856",
"W  c #6C544D",
"Q  c #7B604F",
"!  c #853C32",
"~  c #894538",
"^  c #895734",
"/  c #955838",
"(  c #8E4F2C",
")  c #AA5D38",
"_  c #B75E38",
"`  c #986239",
"'  c #9A6F35",
"]  c #A36C3E",
"[  c #A8673A",
"{  c #B5643D",
"}  c #B5693D",
"|  c #BC6D3D",
" . c #BB663A",
".. c #AD743B",
"X. c #B9703F",
"o. c #96531B",
"O. c #C1723D",
"+. c #C6693E",
"@. c #924C46",
"#. c #885A47",
"$. c #995E46",
"%. c #975B47",
"&. c #855B53",
"*. c #8E5249",
"=. c #A45C49",
"-. c #A85D46",
";. c #B75E47",
":. c #AB5E54",
">. c #896544",
",. c #9B6246",
"<. c #9D644B",
"1. c #966649",
"2. c #996756",
"3. c #927357",
"4. c #A36343",
"5. c #AD6341",
"6. c #A26A44",
"7. c #AB6C45",
"8. c #A2654D",
"9. c #AA654E",
"0. c #A36A4D",
"q. c #AD6B4C",
"w. c #B36544",
"e. c #B96541",
"r. c #B46B43",
"t. c #BC6C44",
"y. c #B6644B",
"u. c #B26D4D",
"i. c #BC6C4B",
"p. c #BB654B",
"a. c #AC734B",
"s. c #A87444",
"d. c #B27245",
"f. c #BD7143",
"g. c #B3724C",
"h. c #BE724B",
"j. c #B87A4A",
"k. c #A56B52",
"l. c #AC6C53",
"z. c #AA6858",
"x. c #B26D53",
"c. c #BC6C52",
"v. c #B36D5A",
"b. c #B86757",
"n. c #AC7155",
"m. c #AC735B",
"M. c #AA7657",
"N. c #B47253",
"B. c #BA7454",
"V. c #BB7B55",
"C. c #B5745A",
"Z. c #B9755C",
"A. c #BB7A5C",
"S. c #B47B57",
"D. c #B86961",
"F. c #AA7666",
"G. c #BB7363",
"H. c #BD7C62",
"J. c #B57767",
"K. c #AA786B",
"L. c #9A6F68",
"P. c #C26D44",
"I. c #C16E49",
"U. c #C66B4A",
"Y. c #C27345",
"T. c #C4744B",
"R. c #C9764B",
"E. c #C5794A",
"W. c #CA7B4C",
"Q. c #C16D53",
"!. c #C26D5B",
"~. c #C47452",
"^. c #CA7553",
"/. c #C67A52",
"(. c #CB7B54",
"). c #C3755C",
"_. c #C37C5C",
"`. c #CC7D5A",
"'. c #CC765B",
"]. c #D17B58",
"[. c #D2774B",
"{. c #C26A64",
"}. c #C37D63",
"|. c #C77765",
" X c #C77A71",
".X c #D37F67",
"XX c #BC855D",
"oX c #B78659",
"OX c #AD835B",
"+X c #A88766",
"@X c #B98667",
"#X c #AA8B74",
"$X c #B78971",
"%X c #B89776",
"&X c #99877B",
"*X c #CB814C",
"=X c #C3804C",
"-X c #CD8154",
";X c #C3815E",
":X c #CD825B",
">X c #C68859",
",X c #D28454",
"<X c #D3845C",
"1X c #D68B5C",
"2X c #D78958",
"3X c #C8935A",
"4X c #D39A5E",
"5X c #E2925D",
"6X c #C48265",
"7X c #CA8564",
"8X c #C18B65",
"9X c #CB8C64",
"0X c #C48469",
"qX c #C9856B",
"wX c #C58D6A",
"eX c #CC8A6B",
"rX c #D88660",
"tX c #DC8B64",
"yX c #D28D6C",
"uX c #D68867",
"iX c #CA926D",
"pX c #CB9768",
"aX c #D49768",
"sX c #CC8D71",
"dX c #C38973",
"fX c #D38D75",
"gX c #CD9572",
"hX c #CD9974",
"jX c #C89678",
"kX c #D29276",
"lX c #D19A75",
"zX c #D6957B",
"xX c #D49C7A",
"cX c #DE9B7B",
"vX c #DB9777",
"bX c #E5936C",
"nX c #E49A6B",
"mX c #ED9C75",
"MX c #E49A77",
"NX c #EC9570",
"BX c #CEA466",
"VX c #DBA36A",
"CX c #D9A478",
"ZX c #E7A678",
"AX c #F3A47A",
"SX c #E5A86D",
"DX c #B99786",
"FX c #CD9584",
"GX c #DD9C81",
"HX c #D49A84",
"JX c #D08E80",
"KX c #DAA987",
"LX c #CFA88E",
"PX c #E4A283",
"IX c #E8A888",
"UX c #EFB188",
/* pixels */
"% gXY.q.0XtX<X$.2 hXY.q.Z.t.T.<.2 wXW.N.Z.t.e.k.2 hXE.q.N.t.h.$.1 jXB.d.9XuXqX` 2 hXY.q.Z.t.T.<.2 wXW.N.Z.t.e.k.& gXY.u.0.T.t.9.",
"o @X-XA.qXt./.8.2 lXE.u.N.t.T.8.3 iXW.N.H./.h.k.+ lXW.q.x.T.(.l.1 dX`.=X9Xc.).6.2 lXE.u.N.t.T.8.3 iXW.N.H.^.h.k.% hXW.u.0.T.T.G.",
"% 8X*XvX6X .t.l.2 lXE.u.l.t.T.k.3 gXW.N.H.rX(.8.+ lXW.q.Z.].<Xm.4 0X`.aX>Xy.c.a.2 lXE.u.l.t.T.k.3 gXW.N.H.rX/.8.% hXR.u.n.1X<XH.",
"2 iXY.cXN.(.t.8.2 gXY.u.x.(.T.k.2 gXE.u.H.bX(.<.2 gXY.q.0XtX<X,.4 gXT.aXg.'.i.6.2 gXY.u.x.(.T.k.2 gXE.u.H.bX(.<.% iXP.u.A.aX-Xl.",
"o hXE.;Xq.(.T.$.3 gXf.u.C.tX/.k.2 hXY.N.A.NX(.<.2 gXY.q.H.(.(.$.1 xX^.>X7.'.~.` 3 gXf.u.C.tX/.k.2 hXY.N.A.NX(.<.& iXY.u.C.<XT.9.",
"o hX,Xq.C.t./.8.7 iXf.N.C.mX/.k.2 lXY.N.Z.bX(.<.2 lXW.N.N.e.T.k.$ xX<X7.S.y.).6.7 iXt.x.C.mX/.k.2 lXY.N.Z.bX(.<.& hXW.B.0.f.t.Z.",
"* jX[ l.H.r.) k.3 iXY.N.C.mXT.k.2 lXY.Z.N.tXT.k.2 gXW.A.H.t.t.k.3 jX5.7.XXy.=.0.3 iXY.N.C.mXT.k.2 lXY.V.N.tXT.k.& wXW._.C.f.} Z.",
": $Xn C.m.B.N 2.2 gXE.B.N.mXt.8.2 hXt.B.q.<Xt.8.3 wXY.6XzX(.t.,.8 $Xn S.M.Z.N 1.2 gXE.B.N.mXt.8.2 hXt.B.q.<Xt.8.8 8XP.7XsX:Xt.l.",
"O 3.@X@XoX@XOXoX% xXY.q.N.mXR.8.8 1Xt.J.).e.qX5.u oXE.H.pXY.|.<.1 F.@XXXOX@XOXoX% xXf.q.N.mXR.8.8 1Xt.J.).e.qX{ u :XE.@X1XR.l.N.",
"= - 3 1 8 # 8   % iXE.u.C.rXT.,.% 1XT.P -.i.~ / 6 3XY.H.ZXW.!.<.= : % $ 3 . 3   % iXE.u.C.rXR.,.% 1X~.P -.i.~ / ; tXY.@XnX].l.N.",
"6 R ~ ! ~ *.:.~ 2 8X,XV.A.T.T.,.& ZXB.A H.}.m m.+ VXO.Z.ZXE.).0.6 R ~ ! ~ *.8.~ 2 8X,XV.A.T.T.,.& ZXB.A H.}.m m.> nXX.J.mX[.x.B.",
", #.j -.}.z.N 8.2 8X,XyXA.t.T.8.- K M Y D F L b 2 VX| x.9X .'.4.< #.j ) 6Xm.N 8.2 8X,XyXA.t.T.8.- K M Y D F L Z ; nX| m.<X+.N.g.",
": &XF <.F.2.F 2.2 iX*XMXC.t.P.k.- M x d 5 k C 7 2 3XY.v.j.) |.` 0 #XF <.F.2.F 2.2 iX*XMXC.t.P.k.t M z d 5 k C 7 * 1XY.m.I. .Z.u.",
", HXbXU.;.!.fXy.2 hXY.cXZ.t.t.k.t xX#.6 &.2.q &.2 3X-Xv.S.t.|.6., HXbXP.e.c.uXy.2 hXY.cXZ.t.t.k.t xX#.6 &.2.q &.> 1X(.F.h.T.C.N.",
"4 OXj.| W.[ E.o.% lXX.yX0Xt.P.8.: aXN.L $.B.*.8.; pX`.*.S.h.=.<.5 OXj.| W.[ E.o.% lXX.yX0Xt.P.8.: aXN.L $.c.*.8.: aX`.#.B.(./ N.",
"@ LXG.p.Z.z.v.v.2 lXf.;XkXt.T.8.2 5XR.dX^._ `.{ ; BXu.D l.w.G 1.1 LXH.y.Z.v.Z.N.2 lXf.;XkXt.T.8.2 5XR.dX^._ `.{ > vXu.Z 9.i.M q.",
"O gXY.IXx.t.<X%.> AXr.k.T.R.x.-.2 gXE.7X6X{ t.,.0 s.,.E &.1.*.>.% iX| UX9.T.<X%.X AXr.k.T.R.b.-.2 gXE.7X6X{ t.,.9 3.2.&.>.3.E 1.",
"@ lXW.eXq.T.mXk.e =Xf.dXt.P.qXq.2 iXY.;XkXT.(.k.> z < q @ < h , O gXW.yXq.T.AX8.e =Xf.dXt.P.qXq.3 iXY.;XkXT.(.k.+ 5 5 l , , w , ",
"O iXY.ZXA.T.<Xl.. nXf.G 5.) G / 9 iXf.N.PXT.Y.8.s LXP q Q #.l W 2 wXW.cX6Xt.tXk.. nXf.G 5.) G / 9 iXf.N.PXT.Y.8.a DXP < #.E V #.",
"% gX} IXA.t.{ 8.: UX9XL HXkX#.$X3 iXY.g.IXt.t.<.X hX4.Z #.$.! #.8 iX| IXH.t.t.<.: UX9XL HXkX#.$X3 iXY.g.IXt.t.<.@ %X<.m / 2.R <.",
"o lXY.A.N.T.T.8.t B P W P P T A O iXE.N.IXP.T.k.i oX(.dXN.t.|.k.% xXf.6Xq.T.T.8.t B P W P P T A O iXE.N.IXt.T.k.k @X6X|.h.N.G.V.",
"O 8X-X7.kXt.T.8.y K v 0 5 h 5 5 O gXE.g.zXt.T.8.6 aXP.b.>XR.p.[ 2 iXE.g.qXP.T.<.y K v 0 5 h 5 5 O gXE.g.zXt.T.8.< pXh.;.2X`.:.f.",
"% 8XE.B.PXT.{ 8.: ZX( q P $.F %.2 lXY.q.H.t.(.<.0 aXR.v.=X,XuX^ 3 8XE.V.GXT.t.<.: ZX( q P $.F %.2 lXY.q.A.t.(.,., hXB.p.2XuX|.} ",
"@ CX| g.H.bXt.k.3 ,Xr.2.8.).<.-.2 lX| q.N.(.tXn.: pXt.H.aXE.Z.<.O xXf.7.H.tX(.k.3 ,Xr.2.8.B.<.-.2 lX| q.N.(.tXn.6 jXg.).nX_.8.j.",
"o hXY.N.C.AX(.=.O CXt.N.qXrXt.k.O iXW.N.C.bXAXk.+ iXW.V.GXT.t.8.2 gXE.N.C.AX/.<.O CXt.N.qXrXt.k.O iXW.N.C.bXAXk.# gXW.B.GXh.t.Z.",
"# gXR.B.n.rXT.9.2 lXY.N.zX(.t.k.9 gXW.q.q.(.tX,.2 iXE.N.zX^.h.8.3 iXW.N.x.tXt.k.2 lXY.N.zX(.t.k.9 gXW.q.q.(.tX,.% gXR.N.xXh.t.v.",
"% iXR.x.l.f.t.l.7 wXE.N.GXI.t.k.2 wXE.q.8.t.(.$.3 iXY.u.sXT.T.8.9 wXW.N.l.T.{ l.7 iXE.N.GXI.t.k.2 wXE.q.8.t.(.$.& gXY.u.sXh.h.v.",
"% iXR.u.C.t.T.9.3 iXY.N.sXt.t.k.2 lX2XeXqX<XtXJ.3 iXY.q.H.I.T.8.8 wXW.q.C.I.t.k.3 iXY.N.sXt.t.k.2 lX2XeXqX<XtXJ.& gXY.u.H.t.i.v.",
"o gXR.u.H./.(.8.% lXY.x.C.T.t.<.2 lX2XeXfX<XrXH.2 hXE.x.l.t.T.<.2 iXE.u.}.(.T.<.% lXY.N.C.T.t.<.2 lX2XeXfX<XrXH.% hXY.u.n.e.i.x.",
". hXY.A.0X:X`.=.O xXf.u.8.T.T.<.% iXY.u.C.t.t.<.2 gXE.N.q.I.T.<.% gXE.A.0X<X(.<.O xXf.u.8.T.T.<.2 iXY.g.C.t.t.<.% hXY.x.l.f.T.v.",
". xXY.yX@XT.T.8.% gXE.N.l.t.T.8.3 lXY.u.H.T.T.<.2 gXY.B.l.(.:X8.+ lXE.eX6X(.t.8.+ gXE.N.l.t.T.8.9 lXY.u.H.T.T.<.& hXY.B.n./.`.v.",
"o CXY.cXH.r.{ k.3 8XW.N.H.{ T.k.O gXY.N.sX<X(.k.3 gXt.B.N.tXrX8.% xXE.cXH.t.{ k.3 8XW.N.H.{ T.k.O gXY.N.sX<X(.0.& gX| B.C.uXrXv.",
", FXc.NX^.Q.-.y.2 iX| B.N.(.<X8.0 pX/.v.a.AXy.] 3 iXE.N.N.tX(.<.< FXi.NX^.Q.y.y.2 iX| B.N.(.<X8.0 pX/.v.a.AXy.] & iX^.x...uX|.d.",
"  %XV.f.r.g.XX6.3 lXY.N.A.tX<X8.+ 3Xh.z.g.AX~.] 2 wXY.u.q.(.t.8.O %Xj.d.[ a.XX[ 3 lXY.N.A.tX<X8.+ 3Xh.z.g.AX~.] # wX^.x..._.b.d.",
"$ LXoX} h.V.a.7.2 gXE.q.A.bXT.,.q 3XR. X7.bXuX` 3 iXE.V.N.T.t.k.4 LXV.X.d.S.a.6.2 gXE.q.A.bXT.,.q 3XR. X7.bXuX` # iX'.A.j.h.b.d.",
"@ jX( _ p.x.n 5.2 gXE.4.A.mXt.<.+ VXt.z.V.,Xy.] 2 iXW.7XqXT.} k.@ jX( e.y.x.n 5.2 gXE.4.A.mXt.<.+ VXt.z.V.,Xy.] & hX'.}.3Xh.b.j.",
"r DX%.kXJXFX2.jX2 lXW.4.A.mXT.k.7 3XT.G.7.T.|.6.2 iXY.;XzXT.t.8.C DX%.zXFXFX2.dX2 lXW.4.A.mXT.k.7 3XT.G.7.T.|.6.& iXQ.).aXh.b.d.",
"X S A I A A L c 2 gXE.q.C.tXY.k.a oX(.J.6.i.{.,.3 gX| N.cXT.t.k.> S A I A A L c 2 gXE.q.C.tXY.k.a oX(.J.6.i.{.,.$ hXi.B.VXh.b.d.",
"  f A h c c A 5 O iXY.A.N.W.T.<.. CXw.D C.w.m <.3 lX| N.GXT.Y.k.. f b z c c A 4 O iXY.A.N.W.T.<.. CXw.D C.w.m <.$ lXI.B.SXh.D.d.",
", 2.~ ! v.J.$.l.2 gXE.eXC.t.T.<.a oXu.@.,.x.~ #.O lXY.N.PXP.t.<.w 2.~ ~ z.K.<.k.2 gXE.eXC.t.T.<.a oXu.@.,.x.~ #.# CXU.N.VXu.D.d.",
"> 8.j 1.G.y.M *.9 hXE.cXC.h.r.k.= c w u % i p # : aXh.K.p.^.l.8.; 1.J <.F.w.n #.9 hXE.cXC.h.r.k.= c w u % i p # 2 wX}.Z.e.}.2.i.",
"> zXg.M.G.p.` J.3 8XY.PXl.t./.<.a $XP C L R V I ; -XT.J.i.P.C.w.0 jXu.m.J.).) F.3 8XY.PXl.t./.<.a $XP C L R V I 1 9Xu.}.P.w.$XP.",
"  zX-X1.Z.t.V.z.1 aXY.MXA.t./.8.O lX/ m ^ =.H ` 8 bX,Xk.~.P.u.w.+ jX<X4.C.t.h.k.1 aXY.MXA.t./.8.O lX/ m ^ =.H ` 1 vX/.x.[.5.J.P.",
"% yXf.6.|.P.V.=.O PXO.9XeXt.t.k.1 aX~.C.] |.{.d.. nXh.F x.5.~ / 2 wXW.q.C.{ T.8.O PXO.9XeXt.t.k.1 aX~.C.] |.{.d.O iX@XG e.k.P ) ",
"# vXW.wX!._ j.9.1 lXO.;XH.t.T.8.2 XX_.sXd.Q.{.[ s iXM.W K.m.&.2.9 gXE.7XA.P.T.8.1 lXO.;XH.t.T.8.2 XX_.sXd.Q.{.` d $X+XR C.K.E n.",
"  vXW.CXc.P.3Xx.9 XXE._.l.i.:X<.8 gX).6XpXc.D.s.= M x i c v q k O lXW.cXN.E.<Xl.9 XXE._.l.i.:X<.8 gX).6XpXc.D.s.  I k c v q d z ",
". vXE.CX).].CXb.8 wXT.,.k.B.5.2.% iXc.l.VXi.D.s.g / M d Z F q Z O gX-XPXC.(.bXM.8 wXT.,.k.B.5.2.% iXc.l.VXc.D.s.: 1.Z C m Z d M ",
"* eXf.CXc.) >X=.o KXd.M J.u.n 2.9 eX'.B.SX~.|.` : CX^ q R 2.c #.9 8Xf.cXZ.{ :X,.o KXd.M J.u.n 2.9 eX'.B.SX~.|.` 3 hX#.5 P L.q ,.",
"o gXR.yXn.h.t.l.e ' XXK.+XOX$XOXO xXY.q.PXT.t.$.3 gXf./ C.{ h.8.3 wX(.eXx.T.t.l.e ' XXK.+XOX$XOXO xXY.q.PXT.t.$.: aXt.=.a.} c.N.",
"# iXR.6X@Xh.t.l.= x h i 4 5 l , + gXf.N.GXT.T.k.2 gXE.q.0XI.T.<.9 8X(._.6Xt.t.k.= x h i 4 5 l , + gXf.N.GXT.T.k.> aXT.v.XXh.c.u.",
"% gXY.B.gXh.t.9.U #XG V T P Z T 2 gXY.N.qXe.T.8.2 gXW.N.kX(.T.<.9 8XW.N.kXT.t.k.U #XG V T P Z T 2 gXY.N.qXe.T.8.; aXR.G.pX/.!.q.",
"# xXP.u.gXrXh.8.  BX( F ^ 6.G >.2 gXY.N.Z.I.<X<.3 iXE.N.kX(./.<.7 iXE.q.kX<XT.8.  BX( F ^ 6.G >.2 gXY.N.Z.I.<X<.; aXI.G.pX/.!.u.",
"  KX| u.@XMXT.8.2 4X*XH.s.,X`.] O gXY.N.C.rXmXm.2 iXE.N.kX(.T.<.O xXY.q.0XbX/.<.2 4X*XH.s.,X`.] O gXY.N.C.rXmXm.: pXI.G.pX/.c.u.",
"  KXP.x.C.vX(.8.0 >Xt. X6X^.!.4.O xXY.N.x.rXmXk.2 wXW.V.zX(.T.,.O xXE.q.C.bX(.8.0 >Xt. X6X^.!.4.O xXY.N.x.rXmXk.> pXT.|.aX/.c.q.",
"o xXY.B.n.(.T.8.0 lXt.D.PX(.y.l.2 xXf.N.l.T.(.,.2 wXW.B.kXT.h.<.2 iXW.u.N.(./.8.0 lXt.D.PX(.y.l.2 xXf.N.l.T.(.,.; pXT.G.pXY.c.x.",
"% wXR.B.C.} T.9.* BX*XN.4XO.h.` + lX .V.x.t.h.k.9 iXE.q.0Xt.i.k.9 @X-XN.C.{ T.k.* BX*XN.4XO.h.` + lX .V.x.t.h.k.: pXP.v.XXr.p.B.",
"o hXc.8.3XuX X` 3 gXY.u.A.e.T.8.2 iXY.B.x.I.{ k.+ xXt.q.C.e./.%.$ xXh.[ 9XuX_.` 7 gXY.u.A.e.T.8.2 iXY.B.x.I.{ k.& gXY.u.0.T.t.9.",
"% 8X`._.4Xi.{.] 2 gXY.N.C.e.T.k.3 gXE.B.C.(.t.k.O xXE.q.N.t.`.k.1 dX(.=XaXp.~.0.2 gXY.N.C.e.T.k.3 gXE.B.C.(.t.k.% hXW.u.0.T.T.G.",
"o 8XrXyXd.e.{.` 2 gXE.x.x.t.h.k.3 gXE.N.H.tX/.8.% gXW.q.Z.<X<Xm.1 0X].1Xj.y.c.` 2 gXE.N.x.t.h.k.3 gXE.N.H.tX/.8.% hXR.u.n.1X<XH.",
"2 iX`.PX..'.{.[ 2 gXY.u.x.(.T.k.2 gXY.N.H.bX(.<.2 wXW.q.}.bX(.<.4 gXT.SXd.'.^.` 2 gXY.u.x.(.T.k.2 gXY.N.H.bX(.<.% iXP.u.A.aX-Xl.",
"2 XXQ.kX..i.{.] 3 gXf.u.C.tX(.k.2 gXY.u.H.bX(.,.3 wXW.q.A.<XT.,.4 @Xt.aXg.Q.~.6.3 gXf.u.C.tX(.k.2 gXY.u.H.bX(.,.& iXY.u.C.<XT.9.",
"  iXqX8...y. X` 3 gXf.u.C.mX(.k.2 lXE.N.H.bX(.<.2 gX(.N.x.t.t.k.o jX:X[ a.p.|.,.3 gXf.u.C.mX(.k.2 lXE.N.H.bX(.<.& gXW.B.0.f.t.Z.",
"o KXZ.<.j.).D.` 2 gXE.N.C.AXT.8.2 gXE.N.C.rXT.8.2 hXE.A.H.{ T.k.# LXB.[ S.{.9.<.2 gXE.N.C.AXT.8.2 gXE.N.C.rXT.8.& iXW._.C.f. .Z.",
": +Xj z.j.-.l ` 2 gXW.N.x.mXT.<.2 gXY.N.N.(.t.8.2 gX| eXzXT.T.$.3 $Xj a.S.=.j 1.2 gXW.N.x.mXT.<.2 gXY.N.N.(.t.8.8 8XP.7XsX:Xt.l."
};
