/* XPM */
static char *_72bcfee88764e17ed5c205630fa5ee76nEVGtHmDw90F5pp[] = {
/* columns rows colors chars-per-pixel */
"64 64 237 2 ",
"   c #1B0000",
".  c #160806",
"X  c #260500",
"o  c #2A0B04",
"O  c #340300",
"+  c #3D0D00",
"@  c #350800",
"#  c #3C180D",
"$  c #240E11",
"%  c #291712",
"&  c #3C1A14",
"*  c #2B2415",
"=  c #3E2417",
"-  c #2C1322",
";  c #3C2A29",
":  c #471A08",
">  c #471C17",
",  c #521F0C",
"<  c #4F220D",
"1  c #452818",
"2  c #492E19",
"3  c #472314",
"4  c #572A15",
"5  c #573217",
"6  c #59250D",
"7  c #693C1D",
"8  c #4B2B24",
"9  c #472B21",
"0  c #4E312B",
"q  c #4D3221",
"w  c #583527",
"e  c #4D3A37",
"r  c #5E3A33",
"t  c #553736",
"y  c #542A27",
"u  c #6B3A23",
"i  c #683726",
"p  c #733E2B",
"a  c #683C36",
"s  c #723C30",
"d  c #5D4730",
"f  c #6F452A",
"g  c #61402F",
"h  c #74422D",
"j  c #7A452D",
"k  c #7C4E2C",
"l  c #77492B",
"z  c #765428",
"x  c #7B532C",
"c  c #644233",
"v  c #6A4233",
"b  c #6E4B35",
"n  c #64423D",
"m  c #6D4C3A",
"M  c #6B453B",
"N  c #7B4534",
"B  c #744C35",
"V  c #7C4C35",
"C  c #734C3B",
"Z  c #7D4D3B",
"A  c #794538",
"S  c #6C5139",
"D  c #615130",
"F  c #755235",
"G  c #7B5335",
"H  c #75523D",
"J  c #7B543B",
"K  c #7D593D",
"L  c #75593A",
"P  c #6F4745",
"I  c #744C41",
"U  c #794D42",
"Y  c #734746",
"T  c #6B564B",
"R  c #7C5443",
"E  c #7D5A44",
"W  c #7C5349",
"Q  c #7D594C",
"!  c #755944",
"~  c #725B50",
"^  c #7A6456",
"/  c #824E3D",
"(  c #854D33",
")  c #825336",
"_  c #8D5135",
"`  c #8C5B35",
"'  c #83543C",
"]  c #8B543C",
"[  c #825A3D",
"{  c #8C593E",
"}  c #865B30",
"|  c #945533",
" . c #94563C",
".. c #945C3D",
"X. c #9A5B3B",
"o. c #9A5936",
"O. c #8A502D",
"+. c #A35C3D",
"@. c #A15838",
"#. c #896130",
"$. c #9B623D",
"%. c #96603E",
"&. c #A3633E",
"*. c #AB643D",
"=. c #B3643A",
"-. c #BC703F",
";. c #824D40",
":. c #845542",
">. c #8A5642",
",. c #845B43",
"<. c #8C5B44",
"1. c #835B4A",
"2. c #8B5D4B",
"3. c #88554C",
"4. c #955543",
"5. c #985744",
"6. c #925B44",
"7. c #9C5B44",
"8. c #90574A",
"9. c #955E4A",
"0. c #9D5C4A",
"q. c #8C5D57",
"w. c #A15A45",
"e. c #A15E4D",
"r. c #A85E41",
"t. c #8C6046",
"y. c #84604C",
"u. c #8B624C",
"i. c #936245",
"p. c #9C6345",
"a. c #96624B",
"s. c #9B634C",
"d. c #9D6A4E",
"f. c #97684C",
"g. c #8D6D59",
"h. c #886657",
"j. c #936654",
"k. c #9C6552",
"l. c #9D6A52",
"z. c #9A6A59",
"x. c #946E57",
"c. c #A46444",
"v. c #A36944",
"b. c #AB6B45",
"n. c #A2634C",
"m. c #A26A4E",
"M. c #AC6B4C",
"N. c #AA654B",
"B. c #B56741",
"V. c #BB6C45",
"C. c #B46C4B",
"Z. c #BC6E4A",
"A. c #B66946",
"S. c #BD7244",
"D. c #B4734C",
"F. c #BD744C",
"G. c #BD794C",
"H. c #B67343",
"J. c #A36552",
"K. c #A36A52",
"L. c #AB6B53",
"P. c #A46D5B",
"I. c #AC6956",
"U. c #B26E52",
"Y. c #BA6E54",
"T. c #AA725C",
"R. c #A67458",
"E. c #B67454",
"W. c #BC7451",
"Q. c #BD7B52",
"!. c #BA745A",
"~. c #BC7C5B",
"^. c #B37959",
"/. c #AB734E",
"(. c #8B7361",
"). c #A57163",
"_. c #B77D65",
"`. c #C66B48",
"'. c #C17444",
"]. c #CB7A45",
"[. c #C3754D",
"{. c #C57A4C",
"}. c #CB7C4C",
"|. c #C6794A",
" X c #C36E52",
".X c #C37552",
"XX c #C37C53",
"oX c #CA7C54",
"OX c #C37D5B",
"+X c #CC7E5A",
"@X c #C37558",
"#X c #D17F59",
"$X c #D37C46",
"%X c #E27F5F",
"&X c #C27D62",
"*X c #CB7E64",
"=X c #D17D62",
"-X c #BF805D",
";X c #AE8768",
":X c #B78869",
">X c #BB8C72",
",X c #CD814E",
"<X c #D8824F",
"1X c #C48156",
"2X c #CB8255",
"3X c #C6825A",
"4X c #CB845B",
"5X c #CD8A5D",
"6X c #CB8A57",
"7X c #D18455",
"8X c #D2845D",
"9X c #D48B5C",
"0X c #DC8D5D",
"qX c #D68857",
"wX c #E1805D",
"eX c #C68562",
"rX c #CC8462",
"tX c #CE8A62",
"yX c #CE846B",
"uX c #D28561",
"iX c #DB8362",
"pX c #D38B63",
"aX c #DA8C63",
"sX c #D38B6A",
"dX c #D0866B",
"fX c #CB9368",
"gX c #D59065",
"hX c #D6916A",
"jX c #DA946B",
"kX c #DD996D",
"lX c #DE9162",
"zX c #CE9C79",
"xX c #DE9471",
"cX c #E49D6F",
"vX c #E3956E",
"bX c #E39F72",
"nX c #E18367",
/* pixels */
"F 5X8Xs.:.XX[.0.K W.Z.9.' XX[.4.[ XX8Xs.>.5XV.e.K W.Z.9.' XX[.4.[ XX8Xs.>.5XV.e.K W.Z.9.' XX[.4.[ XX8Xs.>.5XV.e.,.F.|.6.:.OXV.M.",
"J tX+Xs.) XXZ.5.,.OX.Xa.' XX[.0.[ 5X#Xs.) XXV.0.,.XX.X9.' XX[.0.[ 5X#Xs.) XXV.0.,.OX.Xa.' XX[.0.[ 5X#Xs.' XXV.0.,.[.|.i.' OX[.E.",
"J pX.Xs.V 1XV.0.,.4X+Xk.' XXoXL.J pX.Xk.V .XZ.0.,.4X+Xk.' XXoXL.J pX.Xk.V .XZ.0.,.4X+Xk.' XXoXL.J pX.Xk.V .XZ.0.,.XX,Xi.' OX{.~.",
"F tX[.a.V 4X[.J.J 3X4Xk.' XX+XI.F hXZ.J.V XXoXm.J 3X4Xk.' XX+XI.F hXZ.J.V XXoXJ.J 3X4Xk.' XX+XI.F hXZ.J.V XXoXJ.R 1X7Xs.' OX{.&X",
"H rX.X9.G 5XXXL.B 3X8Xl.' XXoXn.J sXZ.k.' 1X8XL.B 3X8XK.' XXoXn.J sXZ.k.' 1X8XL.B 3X8Xl.' XXoXn.J sXZ.k.' XX8XL.J 2X9Xf.' OX[.!.",
"H 3XXX>.' 3X2Xm.F 4X4Xk.' XX[.5.E rX.X<.,.1X2Xm.F 4X8Xk.' XX[.5.E 4X[.<.,.1X2Xm.F 4X4Xk.' XX[.5.E 4X[.<.,.1X2Xm.J XX7Xs.:.3X[.U.",
"m E..XV ,.G.2Xn.J 3X+Xs.' 3X.X4.R E..XV <.3X2Xn.J 3X+Xs.' 3X.X4.R E..XV <.3X2Xn.J 3X+Xs.' 3X.X4.R E..XV <.3X2Xn.R XX,Xi.:.4X[.U.",
"c b.W.h ,.G.6Xn.J OX.X9.' tX8X0.H &.W.p t.3X2Xn.J OX.X9.' tX4X0.H &.W.p t.3X2Xn.J OX.X9.' tX4X0.H &.W.p t.3X2Xn.,.XX|.{ ' tXoXU.",
"T ;X:Xg.u.H.,Xv.) 2XF.>.6.oXaX6.T ;X>Xg.u.H.,Xv.) 2XF.>.6.oXaX6.T ;X>Xg.u.H.,Xv.) 2XF.>.6.oXaX6.T ;X>Xg.u.H.,Xv.O.uXY...` rX=Xv.",
"  @ O X v pXaXp.J D.c.A :.+XaXp.  @ O X v pXaXp.J D.c.A :.+XaXp.  @ O X v pXaXp.J D.c.A :.+XaXp.  @ O X v pXaXp.x U.N.k ) *X=XD.",
"e Z s.M U rXZ.4.h.R.m.I 2.uX2Xp.e / a.M U rXZ.4.h.R.m.I 2.uX2Xp.e / a.M U rXZ.4.h.R.m.I 2.uX2Xp.e / a.M U rXZ.4.h.P.P.b t.yX+XD.",
"9 j n.I :.xX.Xk.e w u 8 U rX{.p.9 j n.C :.xX.XK.e w u 8 U rX{.p.9 j n.I :.xX.XK.e w u 8 U uX{.p.9 j n.C :.xX.XK.e y M 3 K *X.XD.",
"E &.b.V ) cX|.p.; : < & M OXS...E &.b.V ) cX|.p.; : < & M OXS...E &.b.V ) cX|.p.; : < & M OXS...E &.b.V ) cX|.p.9 : y o C _.Z.b.",
"G G.1Xi.k 9X'.p.~ ) j r W OX[.i.) G.1Xi.k 9X'.p.~ ) j r W OX[.i.) G.1Xi.k 9X'.p.~ ) j r W OX[.i.) G.1Xi.k 9X'.p.! Z N 5 K &X.X/.",
"' XXS.d.<.vXoX] E v.X.R 2.D..X<.' 1XS.d.<.vX.X] E v.X.R 2.D..X<.' 1XS.d.<.vX.X] E v.X.R 2.D..X<.' 1XS.d.<.vX.X] ) m.5.G [ !.Y./.",
"/ 4XA.9.N uXrXk.[ 1XQ.j.2.o.+.u / uXC.9.N uX+Xk.[ 1XQ.j.2.o.+.u / uXC.9.N uX+Xk.[ 1XQ.j.2.o.+.i / uXC.9.N uX+Xk.} *X!.f.) w.o.O.",
"! fX{.6.) OXoX7.J 4X{.z.n z.2.T T fX{.6.' OXoX5.J 4X{.z.n z.2.T T fX{.6.' OXoX5.J 4X{.z.n z.2.T T fX{.6.' OXoX5.F XXoXP.a z.j.~ ",
"m cX].~.V rXZ.0.,.pX8X2.& : O X b kX].~.( sX[.n.,.gX8X2.& : O X b kX].~.( sX[.n.,.gX8X2.& : O X b kX].~.( sX[.n.,.pX8X9.# : + o ",
"B 9X].p.V b.&.N J 2X7Xa.I V u c G 0X$X&.V b.*.N J 2X7Xa.I V u c V 0X$X&.V b.*.N J 2X7Xa.I N u c V 0X$X&.V b.*.N R 3X7Xk.I N p I ",
",.6X,Xi.j.^.:Xh.,.6X7X6.1.6.( a a.0X<X6.j.^.:Xh.,.6X7X6.1.6.( v a.0X<X6.j.^.:Xh.,.6X7X6.1.6.( v a.0X<X6.j.^.:Xh.2.pX7X6.1. ._ R ",
"S 3X*.,.0 J v 0 b 4X0Xa.2.~.~.z.Z 5X=.:.0 :.B e b 4X0Xa.2.~.~.z.Z 4X=.:.0 :.B e b 4X0Xa.2.~.~.z.Z 4X=.,.0 :.B e B 9X0X6.u.E.OX_.",
"! fXrXu.0 4 3 % J 2X7X .Z OXOX] W hX5X2.0 4 3 % J 2X7X .Z OXOX] W hX5Xu.0 4 3 % J 2X7X .Z OXOX] W hX5X2.0 4 3 % J 8X}.] ' ^..XL.",
"v G.pX>.W u ' r y.G.'.p.' jXjX..C .XaX<.W u ( w y.G.'.p.' jXjX..C .XaX<.W u ( w y.G.'.p.' jXjX..C .XaX<.W u ( w 1.oXS.p.>.sX8XE.",
"' 7X].m.2.M.b.2.E S.}.^.h +X8Xp.' 2X].m.2.L.M.2.E S.}.^.h +X8X7.' 2X].m.2.L.M.2.E S.}.^.h +X8Xp.' 2X].m.2.L.M.2.;.{.|.T.V Q.}.@X",
"J XXuXP.) 3XuXn.E F.0X_.:.OXuX .K XX8XP.' 4XuXe.E F.0X_.:.OXuX .K XX8XP.' 4XuXe.E F.0X_.:.OXuX .K XX8XP.' 4XuXe.,.F.9X:XZ 4X+XM.",
"K Q.oXk.) 4XuX0.1.F.{.K.:.yXaX7.K Q.oXd.) 4XuX0.1.F.{.K.:.yXaX7.K Q.oXd.) 4XuX0.1.F.{.K.:.yXsX7.K Q.oXd.) 4XuX0.2.F.|.l.G sX8XE.",
"K G.[.6.) 4X8X7.R G.S.{ Z OXoX7.E W.F.6.) 5X8X7.R G.S.{ Z OXoX7.K G.F.6.) 5X8X5.R G.S.{ Z OXoX7.K G.F.6.) 5X8X5.R G.-.6.V 4X[.U.",
"K XX[.6.) 3XoX5.,.jXaXK.2.OXF.n.K .X[.6.) 4XoX5.,.jXaXK.2.OXF.n.K .X[.6.) 4XoX5.,.jXaXK.2.OXF.n.K .X[.6.) 4XoX5.,.jX0XR.<.4XB.!.",
"J 3XoXa.' XX[.5.E kXlXK.a.OXV.c.J 3XoX9.' 1X[.5.E kXlXK.a.OXV.c.J 3XoX9.' 1X[.5.E kXlXK.a.OXV.c.J 3XoX9.' 1X[.5.,.kXlXR.<.3X=.E.",
"F tX8Xs.' XXF.7.H 3X'.] :.OXC.7.J tX8Xs.' XXF.5.H 3X'.] :.OXC.7.J tX8Xs.' XXF.5.H 3X'.] :.OXC.7.J tX8Xs.:.XXF.5.Z 3XS.{ G 3X=.U.",
"J pX8Xa.' XXF.0.R 3X|.6.:.rX+XL.J pX4X9.' XXF.0.R 3X|.6.:.rX+XL.J pX4X9.' XXF.0.R 3X|.6.:.rX+XL.J pX4X9.:.XXF.0.,.4X|.i.G tX[.&X",
"J pX+X6.' XX[.J.H 3X8Xd.' ~.oXL.J pXoX6.' XX[.n.H 4X8Xd./ ~.oXL.J pXoX6.' XX[.n.H 4X8Xd.' ~.oXL.J pXoX6.' XX[.n.R 5X7Xd.V OX[.eX",
") 9XG.t.V G.9Xl.F 2X8Xd.' 1X4XI.) 5XG.f.G G.5Xl.F 2X8Xd.' 1X4XL.) 5XG.f.G G.5Xl.F 2X8Xd.' 1X4XI.) 5XG.f.G G.5Xl.J 2X8Xl.>.2XoX&X",
"j 2X.Xa.] [.9Xd.B 1X2Xa.V F.F.4.j 2X.Xd.<.[.9XK.B 1X7Xa.V F.F.4.j 2X.Xd.<.[.9XK.B 1X2Xa.V F.F.4.j 2X.Xd.<.[.9XK.J XX8Xa.) G.=.N.",
"2.OXF.( >.[.8X6.J 3X8XK.>.4XoX0.2.OXF.' 6.[.8X5.J 3X8XK.>.4XoX0.2.OXF.' 6.[.8X5.J 3X8XK.>.4XoX0.2.OXF.' 6.[.8X5.' 3X8Xl.<.4X[.Y.",
"c $.b.f :.[.aXd.F XX.Xa.,.4XoX0.v $.b.h <.[.aXm.F XX.Xa.,.4XoX0.v $.b.h <.[.aXm.F XX.Xs.,.4XoX0.v $.b.h <.[.aXm.Z E..Xa.<.5X}.!.",
"~ :XzXj.x.Q.4Xf.1.3X.X9.' 3XXX5.^ :XzXg.x.Q.2Xf.1.3X.X9.' 3XXX5.^ :XzXg.x.Q.2Xf.1.3X.X9.' 3XXX5.^ :XzXg.x.Q.2Xf.1.Q.W.<.,.5X}.U.",
"% 5 7 1 b -X4Xl.y.~.C.<.,.tX4Xn.* 5 7 1 b 1X4Xl.y.~.C.<.,.tX4Xn.* 5 7 1 b 1X4Xl.y.~.C.<.,.tX4Xn.* 5 7 1 b 1X4Xl.y.~.Z.:.,.5XoX!.",
"; 4 6 > s 5X{.6.m c.@.V J 3X2Xp.; 4 6 # s rX[.6.m c.@.V J 3X2Xp.; 4 6 # s rX[.6.m c.@.V J 3X2Xp.; 4 6 # s rX[.6.I N.+.A V 5X}.U.",
"0 >.I.q.8.aX`.w.! M.+.' ' 5X2Xp.t >.J.q.8.aX`.w.! M.+./ ' 5X2Xp.t >.J.q.8.aX`.w.! M.+.' ' 5X2Xp.t >.J.q.8.aX`.w.W M.r.V K tXoXU.",
"q _ C.i ,.5X8Xn.* $ - . S !. Xd.q | C.i ,.5X8Xn.* $ - . S !. Xd.q | C.i ,.tX8Xn.* $ - . S !. Xd.q | C.i ,.5X8Xn.* $ - . H OXZ.T.",
"S ^.W.>.' kX|.7.D v a 9 [ +X X7.H ^.D.:.' kX[.5.D v a 9 [ +X X7.H ^.D.:.' kX[.5.D v a 9 [ +X X7.H ^.D.:.' kX[.5.S a a = G +X`.E.",
"E rXF.s.) cX|.7.z 7.4.f ` uX X+.E 4XC.9.' bX[.7.z 7.4.f ` 8X X+.E 4XC.9.) bX[.7.z 7.4.f ` uX X+.E 4XC.9.' bX[.7.z  .4.f ` iX`.C.",
"J XX[.{ { 9X}.7.#.OXY.` k C.@.j G XX[.{ { pXoXw.#.OXY.` k C.@.j G XX[.{ { pXoXw.#.OXY.` k C.@.j G XX[.{ { pXoXw.} @X@X{ } Y.| ( ",
"G 5XoX6.' {.[.7.z yXuXd.K ).P.2.G 2X}.6.' XX[.7.z yXuXd.K ).P.2.G 2X[.6.' XX[.7.z yXuXd.K ).P.2.G 2X}.6.' XX[.7.G yX=Xp.G P.J.P.",
"G jXoXT.G 1XS.s.L yX=X) 2 9 > o G jX{.R.G 1XF.s.L yX=X) 2 9 > o G jX}.R.G 1XF.s.L yX=X) 2 9 > o G jX{.R.G 1XF.s.H yX=X) 2 1 > # ",
"J hXoXP.,.D.D.6.L dXiX..d 0 r 3 J hXoXP.:.E.D.8.L dXiX..d 0 r 3 J hXoXP.:.E.D.8.L dXiX..d 0 r 3 J hXoXP.:.E.D.8.H yXnX%.S 0 y 2 ",
"E tXuX<.u.o.M.p L rXwX$.! n W w ,.tX8X>.u.X.M.s L rXwX$.! n W w ,.tX8X<.u.X.M.s L rXwX$.! n W w ,.tX8X>.u.X.M.s E =X%Xo.! n U C ",
"L 6X|.i.m >X:X(.B jX8X6.' Q.B.5.K 9X|.i.m >X:X(.B jX8X6.' Q.B.5.K 9X|.i.m >X:X(.B jX8X6.' Q.B.5.K 9X|.i.m >X:X(.C jX7Xi.Z OX=.U.",
"H 1X{.' # , +   F tX+X6.' 4X.X0.J 4X{.' # , +   F tX+X6.' 4X.X0.J 4X{.' # , +   F tX+X6.' 4X.X0.J 4X{.' # , +   Z pX,Xi.G rXV.E.",
"C Q.aX).Y N p r J XX.X9.) 5X8X0.I XXaX).P A p r J XX.X9.) 5X8X0.I XXaX).P A p r J XX.X9.) 5X8X0.I XXaX).P A p r R XX|.i.V pXoXE.",
"1.XX4Xk.W ] _ v K F.oXk.Z 4XuX5.y.XX4Xk.W ] _ v K F.oXk.Z 4XuX5.y.XX4Xk.W ] _ v K F.oXk.Z 4XuX5.y.XX4Xk.W ] _ v ,.F.}.l.B tX+XU.",
"J F.}.6.u.-XrXl.K F.8XT.Z 3XuX5.K G.}.6.2.~.eXl.K F.8XT.Z 3XuX5.K G.}.6.2.~.eXl.K F.8XT.Z 3XuX5.K G.}.6.2.~.eXl.R F.2XT.A rX2XM.",
"J 2XqXp.[ 1X2X$.K F.8XT.' 3XpX0.K 6XqXp.] 1X2X$.K F.8XT.' 3XpX0.K 6XqXp.] 1X2X$.K F.8XT.' 3XpX0.K 6XqXp.] 1X2X$.R F.2XT.V rX2XE.",
"B XX}.s.' rX4Xc.K F..Xk.) 3X8X0.C 1X}.p.' rX2Xc.K F..Xk.) 3X8X0.C 1X}.p.' rX2Xc.K F..Xk.) 3X8X0.C 1X}.p.' rX2Xc.,.G.|.l.V rXoXE.",
"3.OXV.s.;.sXoXw.,.F.Z.6.V XXoX5.Q OXV.0.;.dX@X7.,.F.Z.6.V XXoX5.Q OXV.0.;.dX@X7.,.F.Z.6.V XXoX5.Q OXV.0.;.dX@X7.1.F.-.i.B 3X[.M.",
"K 1X9Xa.' 3XB.0.R G.V.6.:.OX[. .[ 2X8Xa.' 4XB.0.R G.V.6.:.OX[. .[ 2X8Xa.' 4XB.0.R G.V.6.:.OX[. .[ 2X8Xa.' 4XB.0.,.G.'.<.' OXV.M.",
"F 1X+Xa.) 1XV.n.1.XX|.i.:.OX[.7.G 1XoXa.) 1XV.e.1.XX|.i.:.OX[.7.G 1XoXa.) 1XV.e.1.XX|.i.:.OX[.7.G 1XoXa.) 1XV.e.,..X|.i.' OX[.E.",
"J pX.XK.V XX[.n.1.3XoXs.:.OXoXM.K gX.Xl.V XX[.n.1.3XoXs.:.OXoXM.K gX.Xl.V XX[.n.1.3XoXs.:.OXoXM.K gX.Xl.V XX[.n.,.XX2Xi.' OXoX&X",
"J jXF.l.V Q..XJ.R 3X2Xd.:.OX+XL.J jXF.l.V Q..Xn.R 3X2Xd.:.OX+XL.J jXF.l.V Q..Xn.R 3X2Xd.:.OX+XL.J jXF.l.V Q..Xn.R 2X7Xf.' OXoX&X",
"b tXA.a.G Q.4XL.C 3X7Xd.:.OXoXc.C tXA.a.G Q.4XL.C 3X7Xd.:.OXoXc.C tXA.a.G Q.4XL.C 3X7Xd.:.OXoXc.C tXA.a.G Q.4XL.J 1XqXf.' XX[.!.",
"R eXW.<.,.1X4XK.H 3X2Xd.:.OX[.X.E eXW.<.,.1X4XK.H 3X2Xd.:.OX[.X.E eXW.<.,.1X4XK.H 3X2Xd.:.OX[.X.E eXW.<.,.1X4XK.Z XX7Xf.' OX[.U.",
"! E.OXZ <.1X2Xn.R 3XoXa.:.rX.X .Q E..XV <.1X1Xn.R 3XoXa.:.rX.X .Q E..XV <.1X1Xn.R 3XoXa.:.rX.X .Q E..XV <.1X1Xn.R XX,Xi.:.4X[.M.",
"g | A.i ,.3X2XK.R XX|.6.:.tX4X7.c | A.i ,.3X2XK.R XX|.6.:.tX4X7.c | A.i ,.3X2XK.R XX|.6.:.tX4X7.c | A.i ,.3X2XK.,.XX}.<.:.tXoXU."
};
