/* XPM */
static char *_808403ccc1a4b3f98945c9b06167a5eOYcW3YHh2QnvIEJi[] = {
/* columns rows colors chars-per-pixel */
"64 64 255 2 ",
"   c #0A0702",
".  c #140402",
"X  c #140B02",
"o  c #1C0D05",
"O  c #1D0E0A",
"+  c #161105",
"@  c #14100F",
"#  c #191308",
"$  c #1C140A",
"%  c #1C190C",
"&  c #020714",
"*  c #0B1619",
"=  c #1A1414",
"-  c #1A1917",
";  c #260803",
":  c #291705",
">  c #22140C",
",  c #24190E",
"<  c #3A150A",
"1  c #300C10",
"2  c #251717",
"3  c #241A12",
"4  c #2B1B14",
"5  c #361917",
"6  c #382000",
"7  c #26221C",
"8  c #37241D",
"9  c #0F1B22",
"0  c #2E1424",
"q  c #2A2424",
"w  c #282726",
"e  c #2D2A28",
"r  c #332B26",
"t  c #332D2A",
"y  c #392B2A",
"u  c #3B2D29",
"i  c #3D3024",
"p  c #33302C",
"a  c #3D322A",
"s  c #373134",
"d  c #4A1B0A",
"f  c #5B1601",
"g  c #4B0F14",
"h  c #461C15",
"j  c #51260E",
"k  c #472A1B",
"l  c #712E0E",
"z  c #672A1D",
"x  c #693517",
"c  c #4E1E2B",
"v  c #452626",
"b  c #572927",
"n  c #43352B",
"m  c #45372A",
"M  c #4A362A",
"N  c #4C3A2C",
"B  c #543C2A",
"V  c #5B3B29",
"C  c #472033",
"Z  c #463933",
"A  c #4B3B32",
"S  c #533D32",
"D  c #593D33",
"F  c #722D2B",
"G  c #663727",
"H  c #763C29",
"J  c #79451C",
"K  c #5C412B",
"L  c #594337",
"P  c #5D4234",
"I  c #544939",
"U  c #5B493A",
"Y  c #64452D",
"T  c #67472C",
"R  c #6B492E",
"E  c #724D2F",
"W  c #624434",
"Q  c #684839",
"!  c #734D3B",
"~  c #794938",
"^  c #64553E",
"/  c #7A5132",
"(  c #785237",
")  c #7F6432",
"_  c #2E2A43",
"`  c #5D4742",
"'  c #684A42",
"]  c #774645",
"[  c #6A5741",
"{  c #795945",
"}  c #785754",
"|  c #746345",
" . c #883D32",
".. c #96531C",
"X. c #8B522A",
"o. c #894837",
"O. c #9A4F3A",
"+. c #825636",
"@. c #875A39",
"#. c #97593A",
"$. c #A85A39",
"%. c #B65C3A",
"&. c #9A6F35",
"*. c #976238",
"=. c #A6693B",
"-. c #B5643D",
";. c #B6683D",
":. c #BC6D3D",
">. c #B2733D",
",. c #C6693E",
"<. c #C1723D",
"1. c #8C5E43",
"2. c #885946",
"3. c #8E534B",
"4. c #985C47",
"5. c #A95E46",
"6. c #A45C49",
"7. c #B35F4D",
"8. c #886747",
"9. c #936445",
"0. c #9C6345",
"q. c #95674C",
"w. c #9D644B",
"e. c #996857",
"r. c #957454",
"t. c #A36343",
"y. c #AC6442",
"u. c #A26A43",
"i. c #AB6B46",
"p. c #A3654D",
"a. c #AA654D",
"s. c #A16949",
"d. c #AD6B4C",
"f. c #B56547",
"g. c #B96541",
"h. c #B46B43",
"j. c #BC6C44",
"k. c #B26D4D",
"l. c #BC6D4A",
"z. c #AC7545",
"x. c #AB724C",
"c. c #B37245",
"v. c #BD7143",
"b. c #B3724D",
"n. c #BD724B",
"m. c #B87A4A",
"M. c #A46B52",
"N. c #AC6C52",
"B. c #A96857",
"V. c #B86757",
"C. c #B26E53",
"Z. c #BC6B52",
"A. c #B36E5A",
"S. c #AD7155",
"D. c #A97B51",
"F. c #A9765A",
"G. c #B47253",
"H. c #BA7454",
"J. c #B77B57",
"K. c #B5745A",
"L. c #B9765C",
"P. c #BB7A5D",
"I. c #9C7165",
"U. c #B86961",
"Y. c #A97864",
"T. c #AA7A6D",
"R. c #B47665",
"E. c #BB7363",
"W. c #BD7C62",
"Q. c #C85E43",
"!. c #C26D44",
"~. c #C16E49",
"^. c #CA6B48",
"/. c #D66843",
"(. c #C27345",
"). c #C4744B",
"_. c #C9764B",
"`. c #C57A4A",
"'. c #CA7B4C",
"]. c #D77947",
"[. c #C26D57",
"{. c #C47651",
"}. c #CB7555",
"|. c #C67B52",
" X c #CB7B54",
".X c #C3755C",
"XX c #C37D5C",
"oX c #CC7D5B",
"OX c #D17A58",
"+X c #EA7646",
"@X c #C26B64",
"#X c #C67965",
"$X c #C77971",
"%X c #AC824F",
"&X c #A98556",
"*X c #B88659",
"=X c #99877B",
"-X c #A98567",
";X c #B88566",
":X c #B58970",
">X c #B89770",
",X c #CA814C",
"<X c #DC804F",
"1X c #C8855A",
"2X c #D48756",
"3X c #D3845B",
"4X c #D68B5C",
"5X c #CA935B",
"6X c #D3975D",
"7X c #F78648",
"8X c #E28E5A",
"9X c #C88567",
"0X c #C18B64",
"qX c #C58D6B",
"wX c #CC8A6B",
"eX c #D88660",
"rX c #D58866",
"tX c #DC8B63",
"yX c #D28D6C",
"uX c #CC9B65",
"iX c #CA9569",
"pX c #CA936D",
"aX c #D59868",
"sX c #C18972",
"dX c #CB8D71",
"fX c #D38D75",
"gX c #CD9572",
"hX c #C89777",
"jX c #CE9974",
"kX c #D19A75",
"lX c #D99678",
"zX c #D49C7A",
"xX c #E5936C",
"cX c #E59B6B",
"vX c #E49A77",
"bX c #ED9C75",
"nX c #CDA365",
"mX c #DBA669",
"MX c #DCB26D",
"NX c #DAA579",
"BX c #E6A969",
"VX c #EEAE6F",
"CX c #EAA87B",
"ZX c #E9BB72",
"AX c #F5BD73",
"SX c #F5C476",
"DX c #F8C777",
"FX c #F8C878",
"GX c #BA9B86",
"HX c #CE9483",
"JX c #DC9B81",
"KX c #D6A88A",
"LX c #E4A283",
"PX c #E8A888",
"IX c #EEB185",
/* pixels */
"# hX(.d.9XtX3X4.> jX(.d.L.j.).w.> qX'.G.L.j.g.M.> jX`.d.G.j.n.4.: hXH.c.0XyX9X*.> jX(.d.L.j.).w.> qX'.G.L.j.g.M.% gX(.k.d.).j.a.",
"X ;X,XP.wXj.|.p.> kX`.k.G.j.).p., qX'.G.W.{.n.M.O kX'.d.A.). XN.: sXoX,X9XZ..Xs.> kX`.k.G.j.).p., pX'.G.W.{.n.M.# jX'.k.s.).).E.",
"$ 0X,XlX9X;.!.N.> kX`.k.N.j.).M., gX'.G.W.eX Xp.O kX'.d.L.OX3XS.: sXoXaX1Xf.Z.x.> kX`.k.N.j.).M., gX'.G.W.eX Xp.# jX_.k.S.4X3XW.",
"> pX(.lXG. Xj.p.> gX(.k.A. X).M.> gX`.k.W.xX X( 2 { Q Q [ { { P 7 { Q { Q ! ! @.> gX(.k.A. X).M.> gX`.k.W.xX Xw.# pX!.k.P.aX3XN.",
"X kX`.1Xd. X).4., gXv.k.K.tX|.M.> jX(.G.P.xX XD w a n n n n n Z n n Z n n a p W , gXv.k.K.tX|.M.> jX(.G.P.xX Xw.% pX(.k.K.3X).a.",
"X jX2Xd.K.j.{.p., pXv.G.K.bX|.M.> kX(.G.L.xX XP r ( 2.1.9.9.9.9.9.9.9.1.2.( A Q 3 pXj.C.K.bX|.M.> kX(.G.L.xX Xw.% gX'.H.d.v.j.K.",
"$ hX-.N.W.h.$.M., pX(.G.K.bX).M.> kX(.L.G.tX).W r @.9.9.d.x.x.x.x.x.x.0.*.@.A Q , pX(.G.K.bX).M.> kX(.J.G.tX).M.% qX'.XXK.v.;.L.",
"- :Xl K.F.H.l e.> gX`.J.G.bXj.p.> jXj.J.d.3Xj.W r E / +.0.s.s.s.s.s.w.+./ R n U > gX`.J.G.bXj.p.> jXj.J.d.3Xj.p.3 0X!.wXdX1Xj.N.",
"o I.;X;X*X;X&X*X> zXv.d.G.bX_.p.3 4Xj.T..Xg.9XG r E / +.0.s.s.s.s.s.s.+./ R m [ $ zXv.d.G.bX_.p.3 4Xj.T..Xg.9Xy.w 3X).;X4X_.N.G.",
"& * > : 3 + 3   $ pX`.k.K.eX).0.$ 4X{.~ 5.l.o.V r E / +.0.s.s.s.s.s.0.+./ R a - $ pX`.k.K.eX_.0.$ 4X{.~ 5.l.o.#.= tX(.;XcXOXN.G.",
"; ] o. .o.3.B.o.> 0X2XJ.P.).).0.% CXH.V W.#Xz Q r E / +.0.0.w.w.s.s.0.+./ R m D > 0X2XJ.P.).).0.% CXH.V W.#Xz F.@ cXv.R.bX'.C.H.",
"; 2.f 5.#XB.x p.> 0X2XyXP.j.).p.* J x ` G G Q 8 r E / +.0.w.w.w.s.s.0.+./ R n Q > 0X2XyXP.j.).p.* J x ` G G Q b = cX:.F.3X,.G.b.",
"- =XG w.Y.e.G e.> pX,XvXK.j.~.M.* x j y < h v > r E / +.0.s.s.s.s.s.0.+./ R n U > pX,XvXK.j.~.M.* x j y < h v 1 $ 4X(.F.~.-.L.k.",
". HXxX^.f.[.fXf.> jX(.lXL.j.j.M.9 zX2.O 2.e.5 S r E / +.0.s.s.s.s.s.0.+./ R M Q > jX(.lXL.j.j.M.9 zX2.O 2.e.5 2.@ 4X XY.).).K.G.",
": &Xm.:.'.-.`...$ kX:.yX9Xj.~.p.- aXG.Q 4.H.2.W e B K K ! ! ! ! ! ! ! P K B a K $ kX:.yX9Xj.~.p.- aXG.Q 4.Z.2.p.= aX|.2.H. X#.G.",
". KXE.V.L.B.A.A.> kXv.1XfXj.).p.> 8X_.sX{.%.oXG w e t t t p p p t t t t t r t ' > kXv.1XfXj.).p.> 8X_.sX{.%.oX-.@ lXk.b a.l.x d.",
"o gX(.PXC.j.3X4.@ CXh.M.).^.C.5.> gX`.9X9X;.j.D r o.o.o.O.O.O.O.O.O.O.o.o.~ N P @ CXh.M.)._.C.5.> gX`.9X9X;.j.0.4 r.e.3.8.e.} 9.",
". kX'.wXd.).bXM.7 ,Xv.sXj.!.wXk., pX(.XXdXy.i.D y $.$.%.Q.Q.Q.Q.Q.Q.Q.%.$.O.S L 2 z.h.sXj.!.wXd.> pX(.1XlX). XM.O 6 < h ; ; 1 ; ",
"o pX(.CXP.).3XN.  cXv.H y.$.H #.4 pXv.G.I.u w w w e e r r r r r r r r e e e w w - p @.H y.$.H #.4 pXv.G.LX).(.p.w GX! < 2.} c 2.",
"O gX;.PXP.j.-.p.- IXwX! zXfX2.:X, pXv.9.8.N n n m A S S S S S S S S S S S A m n n A { Q zXfX2.:X, pX(.b.PXj.j.w.. >Xw.z #.e.] w.",
"X kX(.P.G.).).p.9 l / [ ! ~ ' D o pXh.Q L R R R E 1.1.1.1.1.1.1.1.1.1.1.1.2./ R R R N Z ! ~ ' D o pX`.G.PXj.).M.h ;X9X#Xn.G.E.n.",
"o 0X,Xi.fXj.).p.9 J z 4 < d 1 < o gX(.w.{ M a a n A A A A A A A A A A A A Z n a a n N w < d 1 < o gX`.b.lXj.).p.; iXl.g.2XoX7.j.",
"$ 0X`.J.LX).;.p.- CXX.5 ~ 4.G 4.> kX(.d.q.V N r e S L U U U U U U U U U L S t t - U ~ 5 ~ 4.G 4.> kX(.d.W.j. Xw.; jXH.f.2XrX#X;.",
". NX:.b.W.xXj.M., 2Xh.e.p..Xw.6.> kX:.d.N.h.J.P m b.,X5X6XuX6X5X6X6X6X5X1Xk.W W 3 m.t.e.p..Xw.6.> kX:.d.G. XtXS.> hXC..XBXXXB.m.",
"X jX(.G.K.CX X6.o NXj.G.wXeXj.M.o pX'.G.K.rXq.{ D.BX*X8.BXAXBX5XBXAXAXr.r.BX*X{ 3 sXj.G.wXeXj.M.o pX'.G.K.xXCXM.+ gX'.H.JXn.j.K.",
"+ gX_.H.S.rX).a.> kX(.G.lX Xj.M.4 gX'.d.d.k.S 8.BXDX&X[ MXDXmXD.mXSXSX| 8.SXBX8.2 Y.(.G.lX Xj.M.4 gX'.d.d. XtX0.# gX_.G.zXn.j.A.",
"# pX_.C.N.v.j.N., qX`.G.JX~.j.M.> qX`.d.p.$.M 8.BXDXZXMXSXFXuX@.uXSXSXMXZXSXBX8.7 F.`.G.JX~.j.M.> qX`.d.p.j.'.4.% gX(.k.dXn.n.A.",
"# pX_.k.K.h.).a., pX(.G.dXj.j.M.> kX4XwXwX|.q.8.D.SXDXDXFXFXmXD.mXSXFXDXDXZX*X8.7 ;X(.G.dXj.j.M.> kX4XwXwX3XtXR.% gX(.k.W.j.l.A.",
"X gX_.k.W.|. Xp.$ kX(.C.K.).j.w.> kX4XwXgX3XeX' Z ZXFXFXFXFXAXVXAXSXFXFXFXMX[ Q > kX(.G.K.).j.w.> kX4XwXfX3XeXW.# jX(.k.S.h.n.A.",
"X jX(.P.9X1XoX6.o zXv.k.p.).).w.O pX(.k.K.j.j.D Z ZXFXFXFXFXSXAXSXDXFXFXFXMX^ W O zXv.b.p.).).w.$ pX(.b.K.j.j.w.# jX(.C.N.v.).A.",
"X zX(.yX;X).).p.$ gX`.G.N.j.).p., kX(.d.R.d.s.D Z ZXFXFXFXFXDXFXFXFXFXFXFXMX^ L 3 -Xn.k.N.j.).p.4 kX(.k.W.).).w.% jX(.H.S.|.oXA.",
"X NX(.vXW.h.;.N., 0X'.G.W.-.).M.o gX(.G.e.L A t Z ZXDXFXSXSXSXSXSXSXDXFXFXMXU t e I w.C.W.-.).M.o gX(.G.dX4X Xs.% gX:.H.K.rXeXA.",
"; HXZ.xX}.[.7.f.> pX:.J.G. X3Xp.2 uX|.B.{ A L m Z BXSXFXSXnX%X%X%X5XSXFXSXmX^ m D a @.G.G. X3Xp.2 uX|.B.x.CXf.=.% pX}.C.>.rX#Xc.",
"  >XJ.v.h.b.*Xu., jX(.G.P.tX3Xp.O 5Xn.B.{ L ( W A 1XBXSXZX*X+.+./ %XAXSXBX*XU W ( A 1.G.P.tX3Xp.O 5Xn.B.b.bX.Xu.+ pX}.C.>..XV.c.",
"+ KX*X>.n.J.x.i.> gX`.d.P.xX).0.8 5X_.$X( A R R B L D.VXVXcX6X6X6XaXVXVX*XL B Y R n 9.d.P.xX).0.5 5X_.$Xi.xXrX*.+ pX}.P.m.n.V.c.",
". hXX.%.l.k.l y.> gX`.t.P.bXj.w.O mXj.a.q.! K Y Y a ! D.D.D.D.D.D.D.D.D.{ n K Y M [ i.t.P.bXj.w.O mXj.a.J.3Xf.=.% jX}.#X5Xn.V.m.",
"8 GX4.fXHXHXw.hX, kX'.t.P.bX).M.> 5X).E.i.y.A B E K M p p p p p p p p p n K R B 4 F.'.t.P.bX).M.> 5X).E.i.).#Xu.# pX[.XXuXn.V.c.",
"  m B W B D Q k > gX`.d.K.tX(.M.w *X XR.t.h.4.B u p n n t Q t.u.t.! e n n u a 8 $ qX`.d.K.tX(.M.w *X XR.u.l.@X0.# jXl.H.mXn.V.c.",
"  i B d k k V : o pX(.P.G._.).w.. NXf.F K.f.z P w w n B a @.].<X<X#.e B M w w 4 O pX(.P.G.'.).w.. NXf.F K.f.z w.# kX~.H.BXn.U.c.",
"; e.o. .A.R.4.N.> gX`.wXK.j.).w.w %Xk.3.0.C.o.D w w n B u R v.6Xv.~ e B M w t Q > gX`.wXK.j.).w.w %Xk.3.0.C.3.9.+ NX~.G.mXl.U.c.",
"@ p.f q.E.f.x 3.4 gX`.lXK.n.g.M.& k 1 0 $ 0 0 # w n n a t ~ j.`.!.o.e a n a r L 3 gX`.lXK.n.h.M.& k 1 0 $ 0 0 + > qX#XK.g.#Xe.l.",
"@ lXb.F.E.l.*.R., 0X(.LXN.j.).w.w :X~ v Q ] c i r B n e t O./.%./.$.e e a B a ' , ;X(.LXS.j.).w.w :X~ v Q ] c Y ; 9Xk.#X^.y.:X~.",
"  lX1X0.L.j.J.B.: gX(.vXW.j.|.p.X kXO.z X.3.v n n a n n a #.+X/.+X$.e n n a M N > ;X(.vXP.j.|.p.X kXO.z X.6.F *.: lX|.C.].y.R.!.",
"# yXv.s.#X!.|.6.o LX<.wXwXj.j.M.: aX{.K.=.C.Z n K e n K a #.7X+X7X=.e V B t B n 2 ;X<.wXwXj.j.M.: aX{.K.=.#X@Xc.X pX;XH g.M.~ $.",
"+ lX'.qX.X%.m.a.; kX<.1XW.j.).p.> *X.XdXz.a.Z N R e N Y n #.7X7X7X=.e Y K t K B 2 F.<.1XW.j.).p.> *X.XdXz.[.@X*.r >X-X] K.T.} S.",
"  lX'.NXZ.!.5XC.4 *X`.XXN.l.3Xw.3 hX.X9XuXp.Z N R e N Y n #.7X7X7X=.e Y K t K B 7 q.`.XXN.l.3Xw.3 hX.X9XuXZ.U.z.  Y h k j 5 y d ",
"X lX`.NX.XOXNXC.3 qX).0.M.H.y.e.> pX[.N.mXt.Z M Y e N R a @.].].].#.e Y K t V M 7 F.).0.M.H.y.e.$ pXZ.N.mXZ.U.z.3 9.b v z b y x ",
"# wXv.NXH.$.1X6.X KXc.x R.k.l e.4 wXOXH.BXa.A e e w N R t t a a a t w Y K w e e - :Xc.x R.k.l e.4 wXOXH.BX{.#X*., jX2.< ~ I.8 0.",
"X gX_.yXS.n.j.N.7 &.*XT.-X*X:X&Xo zX(.d.LXi.M I [ e N R t t u u a t e Y K p U I 7 ) *XT.-X*X:X&Xo zX(.d.LX).j.4.- uXj.6.x.;.Z.G.",
"+ pX`.9X;Xn.j.N.& j d 0 1 < g ; o gXv.G.JXy.D 8.>Xp M Y a n B B B M r Y B Z &Xr.- j d 0 1 < g ; o gXv.G.JX).).M.@ uX).A.1Xn.Z.k.",
"# gX(.H.gXn.j.a._ :XH C ' ~ b ' > gX(.G.wX-.0.( ^ e t n M n u u u n M n a p ^ { s -XH C ' ] b ' > pX(.G.wXg.).p.= uX_.E.iX|.[.d.",
"+ zX!.k.gXrXl.p.  nXX.G @.u.H 8.> gX(.G.L.~.3X! w ` m t V n a A w n Y u s U U {   nXX.G @.u.H 8.> gX(.G.L.~.3Xw.- uX~.U.iX|.[.k.",
"  LX:.k.;XvX).p.> 6X,XW.z.2XoX=.o gX(.G.K.eXbXM.3 ;X! t Y M D 2.w M E a L wXb.q.: 6X,XW.z.2XoX=.o gX(.G.K.eXbXS.= uX~.E.pX|.H.k.",
"  LX!.C.K.xX Xp.2 1Xj.$X9X}.[.t.o zX(.G.A.eXbXM.> qX( t Y N P 2.7 N E a D xX Xw.2 1Xj.$X9X}.[.t.o zX(.G.A.eXbXM.@ uX_.#XgX|.Z.d.",
"X zX(.H.S. X).p.2 kXj.U.LX X7.N.> zXv.G.N.). X0.> ;X! t Y N P 1.w N E a S H.{.p.2 kXj.U.LX X7.N.> zXv.G.N.). X0.= uX).E.iX(.Z.k.",
"# qX_.H.K.;.).a.# nX,XG.6X<.n.*.O kX:.J.A.j.n.M.4 ` p t Y M P q.w M E a t S s.p.# nX,XG.6X<.n.*.O kX:.J.A.j.n.M.- uX~.A.*Xh.V.J.",
"X jXZ.p.5XtX$X*., gX(.k.P.g.).p.> pX(.J.A.~.-.2.3 U N N Y n P 2.7 M R B N P ( / , gX(.k.P.g.).p.> pX(.J.A.~.-.M.% gX(.k.d.).j.a.",
"O 0XoXP.6Xl.@X=.> gX(.G.K.g.).M., gX`.J.K. Xj.P r 9.@.E K n W e.7 n V E @.1.A Q > jX(.G.K.g.).M., gX`.J.K. Xj.M.# jX'.k.s.).).E.",
"X 0XeXyXc.f.@X*.> gX`.G.A.j.n.M., gX`.G.W.tX{.W w S N n m ! d.M.> { n n N A a W > gX`.G.A.j.n.M., gX`.G.W.tX{.p.# jX_.k.S.4X1XW.",
"> pXoXLX>.}.@X=.> gX(.k.A. X).M.> gX(.G.W.xX XQ 2 Z n a S S. Xw.: Y.M A a m A Q > gX(.k.A. X).M.> gX(.G.W.xX Xw.# pX!.k.P.aX3XN.",
"> *X[.fX>.l.@Xu., gXv.k.K.tX XM.> gX(.k.W.xX X1.3 Y.i.4.M.3X).0.: ;Xt.J.0.p.a.0.> gXv.k.K.tX XM.> gX(.k.W.xX X0.% pX(.k.K.3X).a.",
"  hXrXp.>.f.$X*., gXv.k.K.bX XM.> kX`.G.W.xX Xw.> gX XG.A.j.j.M.X hX3X=.x.V.#X0., gXv.k.K.bX XM.> kX`.G.W.xX Xw.% gX'.H.d.v.j.K.",
"X KXL.w.m..XU.*.> gX`.G.K.bX).p.> gX`.G.K.eX).p.> jX`.P.W.;.).M.+ KXH.*.J.#Xa.q.> gX`.G.K.bX).p.> gX`.G.K.eX).p.% pX'.XXK.v.;.L.",
"- -Xf B.D.5.f *.> gX'.G.A.bX).w.> gX(.G.A. Xj.p.> gX:.wXlX).).4., :Xf x.K.6.f 9.> gX'.G.A.bX).w.> gX(.G.A. Xj.p.3 0X!.wXdX1Xj.N."
};
