/* XPM */
static char *d2d09ce9919243eaaf71aa3f4640e4c1lPDYtQe5ZlG8ge1O[] = {
/* columns rows colors chars-per-pixel */
"64 64 236 2 ",
"   c #020100",
".  c #0B0501",
"X  c #0E0905",
"o  c #090808",
"O  c #120600",
"+  c #120A04",
"@  c #1B0C03",
"#  c #150D09",
"$  c #1C0D0A",
"%  c #161104",
"&  c #1D1204",
"*  c #15110D",
"=  c #1C130A",
"-  c #1C190C",
";  c #070F16",
":  c #191615",
">  c #1A151B",
",  c #2D0202",
"<  c #240B02",
"1  c #300B0E",
"2  c #241302",
"3  c #2D1301",
"4  c #2B1907",
"5  c #22140C",
"6  c #24190E",
"7  c #341601",
"8  c #3B1A02",
"9  c #391509",
"0  c #3B1A09",
"q  c #261616",
"w  c #251A12",
"e  c #2B1B13",
"r  c #361A16",
"t  c #25221A",
"y  c #3E2515",
"u  c #3A2619",
"i  c #0D1921",
"p  c #161F26",
"a  c #2E1723",
"s  c #2C2124",
"d  c #3B2729",
"f  c #3E3023",
"g  c #430202",
"h  c #461E02",
"j  c #481F02",
"k  c #47190A",
"l  c #5B1701",
"z  c #491816",
"x  c #6E0404",
"c  c #4C2307",
"v  c #572808",
"b  c #412616",
"n  c #452A1A",
"m  c #492C1A",
"M  c #532E14",
"N  c #702E0D",
"B  c #653403",
"V  c #763408",
"C  c #672A1D",
"Z  c #623115",
"A  c #693517",
"S  c #511F2D",
"D  c #442726",
"F  c #562A26",
"G  c #4C3226",
"H  c #573525",
"J  c #593929",
"K  c #6B2C2A",
"L  c #673B28",
"P  c #773B28",
"I  c #79441D",
"U  c #67442A",
"Y  c #6A452B",
"T  c #744A2D",
"R  c #684839",
"E  c #754933",
"W  c #7A4939",
"Q  c #795237",
"!  c #2E2A43",
"~  c #5F4342",
"^  c #724E49",
"/  c #860505",
"(  c #930505",
")  c #843B09",
"_  c #883C09",
"`  c #C60707",
"'  c #CA0707",
"]  c #99560E",
"[  c #A05C00",
"{  c #AE6300",
"}  c #8C4F2C",
"|  c #87502F",
" . c #874638",
".. c #895937",
"X. c #905135",
"o. c #955839",
"O. c #A95C37",
"+. c #B75E38",
"@. c #8F603A",
"#. c #92613A",
"$. c #98633A",
"%. c #9C6A3D",
"&. c #A5693D",
"*. c #B4643D",
"=. c #BA6A3C",
"-. c #AD743B",
";. c #B9703F",
":. c #CE7600",
">. c #C6693E",
",. c #C1723D",
"<. c #885A46",
"1. c #8C5649",
"2. c #945B45",
"3. c #995E45",
"4. c #955B4B",
"5. c #885850",
"6. c #A85D46",
"7. c #A45C48",
"8. c #B15E4E",
"9. c #8E6B4E",
"0. c #9B6246",
"q. c #9B6844",
"w. c #9D644B",
"e. c #996756",
"r. c #A76646",
"t. c #A36C43",
"y. c #A2654D",
"u. c #AA654E",
"i. c #AD6B4C",
"p. c #B26642",
"a. c #B96541",
"s. c #B46A43",
"d. c #BC6C44",
"f. c #B8644B",
"g. c #B26D4D",
"h. c #BC6C4B",
"j. c #AB7347",
"k. c #B27245",
"l. c #BD7143",
"z. c #B3734B",
"x. c #BE724B",
"c. c #B6794A",
"v. c #BB7C4B",
"b. c #A56B52",
"n. c #AC6C53",
"m. c #AA6959",
"M. c #B86757",
"N. c #B26D53",
"B. c #BC6C52",
"V. c #B36D5A",
"C. c #AC7255",
"Z. c #AA755C",
"A. c #B47253",
"S. c #BA7454",
"D. c #BB7B55",
"F. c #B5745A",
"G. c #B9755C",
"H. c #B37A59",
"J. c #BB7A5C",
"K. c #9A6F68",
"L. c #AE6A61",
"P. c #B86961",
"I. c #AB7867",
"U. c #B57767",
"Y. c #BA7463",
"T. c #BD7C62",
"R. c #C26D44",
"E. c #C26D49",
"W. c #C27345",
"Q. c #C4744B",
"!. c #C9764B",
"~. c #C5794A",
"^. c #CA7B4C",
"/. c #C26D58",
"(. c #C67A52",
"). c #CB7B54",
"_. c #C67759",
"`. c #CC7D5A",
"'. c #D27952",
"]. c #C26A64",
"[. c #C77765",
"{. c #C37D63",
"}. c #C77A71",
"|. c #E38200",
" X c #BF804E",
".X c #AD835B",
"XX c #BA855B",
"oX c #99877B",
"OX c #AD8C6E",
"+X c #B98667",
"@X c #B78971",
"#X c #C7814D",
"$X c #CA8458",
"%X c #D28754",
"&X c #D3845C",
"*X c #D68A5A",
"=X c #C8935A",
"-X c #D5975C",
";X c #E2955C",
":X c #E99B5E",
">X c #C88565",
",X c #C18B65",
"<X c #C9856B",
"1X c #C58D6A",
"2X c #CD8A6B",
"3X c #D88660",
"4X c #DC8B64",
"5X c #D48A69",
"6X c #CA936C",
"7X c #D29962",
"8X c #D49768",
"9X c #C88B72",
"0X c #D38D75",
"qX c #CD9572",
"wX c #CD9974",
"eX c #C89678",
"rX c #D19A75",
"tX c #D79578",
"yX c #D49C7A",
"uX c #ED9E60",
"iX c #E4936C",
"pX c #E49A6B",
"aX c #E69874",
"sX c #ED9C75",
"dX c #CEA466",
"fX c #DBA36A",
"gX c #D9A478",
"hX c #ECA365",
"jX c #EBA46E",
"kX c #F3A47A",
"lX c #B99786",
"zX c #CE9383",
"xX c #D99B82",
"cX c #D5A98A",
"vX c #E5A485",
"bX c #EFB188",
/* pixels */
"= qXW.i.<X4X&X3.5 wXW.i.G.d.Q.w.5 1X^.A.G.d.a.b.5 wX~.i.A.d.x.3.2 eXS.k.2X5X<X$.5 wXW.i.G.d.Q.w.5 1X^.A.G.d.a.b.- qXW.g.y.Q.d.u.",
"+ +X$XJ.<Xd.(.y.5 rX~.g.A.d.Q.y.6 6X^.A.T.(.r.<.$ I.&.o.2.&.r.2.2 Z.u.&.C.3.y...5 H.p.g.A.d.Q.y.6 6X^.A.T.).x.b.= wX^.g.y.Q.Q.Y.",
"= ,X#XtX>X=.d.n.5 rX~.g.n.d.Q.b.6 qX^.A.T._.e X   # + + + + + +   # + # + X + +   + m i.n.d.Q.b.6 qX^.A.T.3X(.y.= wX!.g.C.*X&XT.",
"5 6XW.tXA.).d.y.5 qXW.g.N.).Q.b.5 qX~.g.T.>X5   . . . . . . . . . . . . . . . .     b i.N.).Q.b.5 qX~.g.T.iX).w.= 6XR.g.J.8X$Xn.",
"+ wX~.$Xi.).Q.3.6 qXl.g.F.4X(.b.5 wXW.A.J.3X5   7 h h h h h h h h h h h h h h h 3   y i.F.4X(.b.5 wXW.A.J.aX).w.- 6XW.g.F.&XQ.u.",
"+ wX%Xi.F.d.(.y.w 6Xl.A.F.sX(.b.5 rXW.A.G.>X5   8 j h h h h h h h h h h h h h j 7   y n.F.sX(.b.5 rXW.A.G.iX).w.- wX^.S.y.l.d.G.",
"* eX&.n.T.s.O.b.6 6XW.A.F.sXQ.b.5 rXW.G.A.`.5   8 j h h h h h h h h h h h h h j 3   b N.F.sXQ.b.5 rXW.D.A.4XQ.b.- 1X^._.F.l.=.G.",
": @XN F.Z.S.P e.5 qX~.S.A.sXd.y.5 wXd.S.i.S.=   8 j h h h h h h h h h h h h h j 3   b A.A.sXd.y.5 wXd.S.i.&Xd.y.w ,XR.>X9X$Xd.n.",
"@ 9.+X+XXX+X.XXX= yXW.i.A.sX!.y.w *Xd.U._.O.5   8 j h h h h h h h h h h h h h j 3   y u.A.sX!.y.w *Xd.U._.a.<X*.a $X~.+X*X!.n.A.",
"; ; 6 2 w % w . = 6X~.g.F.3XQ.0.= *XQ.W 6.r.#   8 j h h h h h h h h h h h h h j 3   b i.F.3X!.0.= *X(.W 6.h. .o.: 4XW.+XpX`.n.A.",
"5 ^  . . .1.8. .5 ,X%XD.J.Q.Q.0.- jXS.J T.F.+   8 j h h h h h h h h h h h j h j 3   n D.J.Q.Q.0.- jXS.J T.{.C Z.* pX;.U.sX'.N.S.",
"< <.l 6.{.m.P y.5 ,X%X5XJ.d.Q.y.; I A ~ K H #   8 j h h h h h h h h h h j j h j 3   n 2XJ.d.Q.y.; I A ~ K L R F : pX=.Z.&X>.A.z.",
": oXL w.I.e.L e.5 6X#XaXF.d.R.b.; A v d 9 z X   8 j h h h h h h h h h h h h h j 3   n aXF.d.R.b.i A c d 9 z D w * *XW.Z.E.=.G.g.",
"< xXiXE.f./.0Xf.5 wXW.tXG.d.d.b.i yX<.5 5.5.X   8 j h h h h j h h h h h h h h j 3   b tXG.d.d.b.i yX<.5 5.e.r 5.* *X).I.x.Q.F.A.",
"4 .Xc.=.^.&.~.] = rX;.5X<Xd.R.y.: 8XA.R 3.u.$   8 j h h h h j h h h h h h h h j 7   y 2X<Xd.R.y.: 8XA.R 3.B.1.y.: 8X`.<.S.).o.A.",
"O cXY.f.G.m.V.V.5 rXl.$X0Xd.Q.y.5 ;X!.9X).O.5   8 h h h h h h h h h h h h h h h 3   b _.0Xd.Q.y.5 ;X!.9X).+.`.*.* tXg.F u.h.A i.",
"@ qXW.vXN.d.&X2.* kXs.b.Q.!.N.6.5 qX~.>X>XO.=   . O O O O O O O O O O O O O O O .   y b.Q.!.M.6.5 qX~.>X>X*.d.0.e e.e.5.<.9.^ q.",
"O rX^.2Xi.Q.sXb.t #Xl.9Xd.R.<Xi.5 6XW.$X0Xs.5             .                         b 9Xd.R.<Xi.6 6XW.$X0XQ.).b.$ 9 9 z < < 1 < ",
"@ 6XW.jXJ.Q.&Xn.X pXl.P p.O.P o.e 6Xl.A.vXs.= . x ( ( ( ( ( ( ( ( ( ( ( ( ( ( ( x   y P p.O.P o.e 6Xl.A.vXQ.W.y.s lXW 9 <.^ S <.",
"= qX=.vXJ.d.*.y.: bX2XR xX0X<.@X6 6XW.z.vX&.= . ( ' ` ` ` ` ` ` ` ` ` ` ` ` ` ' /   n R xX0X<.@X6 6XW.z.vXd.d.w.O @Xw.C o.e.^ w.",
"+ rXW.J.A.Q.Q.y.i N W ^ W W ^ J @ H.m n J b o   , g g g g g g g g g g g g g g g ,   X e e e u H @ 6X~.A.vXd.Q.b.z +X>X[.x.A.Y.D.",
"@ ,X$Xr.0Xd.Q.y.p I M q 9 k 9 9 @ Z..                                                       . 9 @ qX~.z.tXd.Q.y.9 6Xx.f.*X`.8.l.",
"= ,X~.S.vXQ.*.y.: jX} r W 3.L 2.5 1X| E Q Y # o T #.#.#.#.#.#.#.#.#.#.#.#.#.#.$.U   5 q G L m 2.5 rXW.i.J.d.).0.< wXS.f.*X5X[.=.",
"O gX=.z.T.iXd.b.6 %Xs.e.y._.w.6.5 rX=.i.A.x.5 + #XhXuXhXuXuXuXuXuXuXuXuXuXhXuXuXq.  y e.y.S.w.6.5 rX=.i.A.).4XC.5 eXz._.pX_.y.c.",
"+ wXW.A.F.kX).7.@ gXd.A.<X3Xd.b.@ 6X^.A.F.>Xw +  X:X@.Y #X:X:X:X:X:X:X:Xj.Y t.uXq.  y N.<X3Xd.b.@ 6X^.A.F.iXkXb.% qX^.S.xXx.d.G.",
"% qX!.S.C.3XQ.u.5 rXW.A.tX).d.b.e qX^.i.i.x.5 X v.:Xu   q.uX:X:X:X:X:X:XT   U uXq.  y A.tX).d.b.e qX^.i.i.).4X0.= qX!.A.yXx.d.V.",
"= 6X!.N.n.l.d.n.w 1X~.A.xXE.d.b.5 1X~.r.L Y T Q *X:Xn   q.uX:X:X:X:X:X:XT   Y uX#XQ T Y 9.d.d.b.5 1X~.i.y.d.).3.- qXW.g.9Xx.x.V.",
"= 6X!.g.F.d.Q.u.6 6XW.A.9Xd.d.b.5 rX*XH.# = %XuX:X;Xu   q.uX:X:X:X:X:X:XT   U :X:XhXk.. e *.d.b.5 rX*X2X<X&X4XU.- qXW.g.T.d.h.V.",
"+ qX!.g.T.(.).y.= rXW.N.F.Q.d.w.5 rX*XH.= = %X:X:X:X..Y  X:X:X:X:X:X:X:Xj.U t.:X:X:Xj.. w d.d.w.5 rX*X2X0X&X3XT.= wXW.g.C.a.h.N.",
"X wXW.J.<X$X`.7.@ yXl.g.y.Q.Q.w.= 6XW.3.# = %XuX:X:X:X:X:X:X:X:X:X:X:X:X:X:X:X:X:XuXk.. 5 d.Q.w.5 6XW.z.F.d.d.w.= wXW.N.n.l.Q.V.",
"X yXW.5X+XQ.Q.y.= qX~.A.n.d.Q.y.6 rXW.r.J H ..%.*X:X:X:X:X:X:X:X:X:X:X:X:X:X:X:X%X$...G J s.Q.y.e rXW.g.T.Q.Q.w.- wXW.S.C.(.`.V.",
"+ gXW.tXT.s.*.b.6 ,X^.A.T.*.Q.b.@ qXW.A.9X(.5 +  X:X:X:X:X:X:XuXuXuX:X:X:X:X:XuX%.  n A.T.*.Q.b.@ qXW.A.9X&X).y.- qX=.S.F.5X3XV.",
"< zXB.aX)./.6.f.5 6X=.S.A.).&Xy.q 6X(.m...b.# +  X:X:X:X:X:Xc.t.t.t.%X:X:X:X:XuX%.  e ..2.(.&Xy.q 6X(.V.j.kXf.&.- 6X).N.-.5X[.k.",
". @XD.l.s.z.XXt.6 rXW.A.J.4X&Xy.$ =Xx.4.= .   + #XuX:X:X:X;Xu       #.uX:X:X:XuXq.      e &X&Xy.$ =Xx.m.z.kX(.&.% 1X).N.-._.M.k.",
"& cXXX=.x.D.j.r.5 qX~.i.J.iXQ.0.r =X!.L.#   O & #.c.*X:X:X;XY u u u t.:X:X:X%Xc.Q O .   e 4XQ.0.r =X!.}.r.iX5X$.% 6X_.J.c.x.M.k.",
"O eX} +.f.N.N p.5 qX~.r.J.sXd.w.$ fXd.4.#   8 h O + c.uX:X:X:X:X:X:X:X:X:XuX... @ h 7   w iXd.w.$ fXd.m.D.%Xf.&.- wX_.{.=Xx.M.c.",
"u lX2.0XzXzXe.eX5 rX^.r.J.sXQ.b.w =XQ.m.u r 0 8 @ O #.v.v.v.v.v.v.v.v.v.v.v.T . @ 8 0 e G iXQ.b.w =XQ.Y.r.Q.[.t.- 6X/._.8Xx.M.k.",
"o G J Y J J R n 5 qX~.i.F.4XW.b.s XX).U.q.6.5 . 8 h & X + + X X X X X + + X 2 h 3   b r.A.4XW.b.s XX).U.t.h.].0.& wXh.S.fXx.M.k.",
". f J k n n J 9 @ 6XW.J.A.^.Q.w.X gXp.K y.X.@ O 8 h @ .     & 2 2 2 +     . 2 j 7 . b y.y.^.Q.w.X gXp.K F.p.C w.& rXE.S.jXx.P.k.",
"< e. . .V.U.3.n.5 qX~.2XF.d.Q.w.s XXg. .5 # 8 h h h h h O . [ :.:.:.B   < h h h h h 8 # u p.Q.w.s XXg.1.0.N. .<.% gXE.A.fXg.P.k.",
"* y.l q.Y.f.A 1.e wX~.tXF.x.s.b.; n 1 q     8 j h h h h @ . { |.|.|.B   2 j h h h j 7   w s.s.b.; n 1 a = a a % 5 1X{.G.a.{.e.h.",
"* tXz.C.Y.f.$.U.6 ,XW.vXn.d.(.w.s @XW d X . 8 j h h h h @ . { |.|.|.B   2 j h h h j 7   w p.(.w.s @XW D R ^ S Y 2 2Xg.{.R.p.@XR.",
". tX$Xq.G.d.D.m.2 8XW.aXJ.d.(.y.@ rXo.C + . 8 j h h h h @ . { |.|.|.B   2 j h h h j 7   e p.(.y.@ rXo.C ..7.K $.2 tX(.N.'.p.U.R.",
"= 5Xl.t.[.R.D.7.@ vX,.2X2Xd.d.b.2 8X(.w.# . 8 h O . 8 h @ . { |.|.|.B   2 j 3 . < j 7   e p.d.b.2 8X(.F.&.[.].k.@ 6X+XP a.b.W O.",
"% tX^.1X/.+.c.u.2 rX,.$XT.d.Q.y.5 XX_.U.# . c c +   7 j O . { |.|.|.B   2 c 3   @ c 0   e p.Q.y.5 XX_.9Xk./.].$.d @XOX^ F.I.^ C.",
". tX^.gXB.R.=XN.e XX~._.n.h.$Xw.w qX_.C.* # k.~.e   7 j @ . { |.|.|.B   2 c 3   m #X$.. w p.$Xw.w qX_.>X6XB.P.j.. Y z n M r d c ",
"X tX~.gX_.`.gXM.w 1XQ.0.b.S.p.e.= 6XB.0.u e v.#Xe   7 h O . [ :.:.:.v   < h 2   G *Xt.= u g.p.e.= 6XB.n.fXB.P.j.: q.F D C F d A ",
"* 2Xl.gXB.O.$X7.+ cXk.A U.g.N e.e 2X_.A.7Xr.u = .     .     @ 2 & & X     .     o = m Z m.g.N e.e 2X_.S.jX(.[.$.6 wX<.9 W K.r 0.",
"+ qX!.5XC.x.d.n.t %.XXI.OX.X@X.X@ yXW.i.vXs.e X                                   + G I.OX.X@X.X@ yXW.i.vXQ.d.3.: 8Xd.7.j.=.B.A.",
"% 6X!.>X+Xx.d.n.; v k a 4 9 z < $ qXl.A.xXW.p.<.X   3 8 8 8 O       2 8 8 8 <   o c k a 4 9 z < $ qXl.A.xXQ.Q.b.* 8XQ.V.XXx.B.g.",
"= qXW.S.qXx.d.u.! OXP S ^ W F ^ 5 qXW.A.<Xa.Q.w.X   7 j j h +       3 j j j 3   > OXP S ^ W F ^ 5 qXW.A.<Xa.Q.y.: 8X!.Y.6X(./.i.",
"% yXR.g.qX3Xx.y.. dX} L ..t.P <.5 qXW.A.G.E.&X3.X   7 j h h +       3 h j j 3   . dX} L ..t.P <.5 qXW.A.G.E.&Xw.: 8XE.Y.6X(./.g.",
". cX=.g.+XaXQ.y.5 -X#XT.j.%X`.&.@ qXW.A.F.3XsXb.X   7 j h h +       3 j h j 3   # -X#XT.j.%X`.&.@ qXW.A.F.3XsXZ.: 6XE.Y.6X(.B.g.",
". cXR.N.F.tX).y.q $Xd.}.>X)./.r.@ yXW.A.N.3XsXw.X   7 h h h +       3 h h j 3   # $Xd.}.>X)./.r.@ yXW.A.N.3XsXb.* 6XQ.[.8X(.B.i.",
"+ yXW.S.C.).Q.y.q rXd.P.vX).f.n.5 yXl.A.n.Q.(.2.+   7 j h h +       3 j j j 3   $ qXd.P.vX).f.n.5 yXl.A.n.Q.).0.: 6XQ.Y.6XW.B.N.",
"= 1X!.S.F.=.Q.u.* dX#XA.-X,.x.$.$ rX=.D.N.*.H u c v N V V N @       h V V V B v h n Y A.-X,.x.$.$ rX=.D.N.d.x.b.: 6XR.V.XXs.f.S.",
"+ wXB.y.=X5X}.$.6 qXW.g.J.a.Q.y.5 6XW.S.N.p.# . N _ ) ) ) V <       c ) ) ) ) _ v   y i.J.a.Q.y.5 6XW.S.N.E.*.b.- qXW.g.y.Q.d.u.",
"= ,X`._.-Xh.].&.5 qXW.A.F.a.Q.b.6 qX~.S.F.h.= . N ) ) ) ) V <       c ) ) ) ) ) v   b A.F.a.Q.b.6 qX~.S.F.).d.b.= wX^.g.y.Q.Q.Y.",
"+ ,X3X5Xk.a.].$.5 qX~.N.N.d.x.b.6 qX~.A.T.`.= . N ) ) ) ) V <       c _ ) ) ) _ v   b A.N.d.x.b.6 qX~.A.T.4X(.y.= wX!.g.C.*X&XT.",
"5 6X`.vX-._.].&.5 qXW.g.N.).Q.b.5 qXW.A.T.3X5   3 8 8 8 8 8 .       < 8 8 8 8 8 2   b i.N.).Q.b.5 qXW.A.T.iX).w.= 6XR.g.J.8X$Xn.",
"5 XX/.0X-.h.].&.6 qXl.g.F.4X).b.5 qXW.g.T.>X5                                       y i.F.4X).b.5 qXW.g.T.iX).0.- 6XW.g.F.&XQ.u.",
". 6X<Xy.-.f.}.$.6 qXl.g.F.sX).b.5 rX~.A.T.4X| J = Q T Y L L L L + ^ E L U L E J = Q | g.F.sX).b.5 rX~.A.T.iX).w.- qX^.S.y.l.d.G.",
"+ cXG.w.c._.P.$.5 qX~.A.F.kXQ.y.5 qX~.A.F.3XQ.y.5 wX~.J.T.*.Q.b.% cXS.&.H.].u.w.5 qX~.A.F.kXQ.y.5 qX~.A.F.3XQ.y.- 6X^._.F.l.=.G.",
": OXl m.c.6.z $.5 qX^.A.N.sXQ.w.5 qXW.A.A.).d.y.5 qX=.2XtXQ.Q.3.6 @Xl j.H.7.l q.5 qX^.A.N.sXQ.w.5 qXW.A.A.).d.y.w ,XR.>X9X$Xd.n."
};
