/* XPM */
static char *floor_overlay1695914072[] = {
/* columns rows colors chars-per-pixel */
"64 64 247 2 ",
"   c #0A0300",
".  c #0D0A04",
"X  c #130B02",
"o  c #1C0D04",
"O  c #1A0A08",
"+  c #161104",
"@  c #1C1404",
"#  c #15110E",
"$  c #1C130A",
"%  c #1C190C",
"&  c #030813",
"*  c #0B1619",
"=  c #191615",
"-  c #1B171A",
";  c #260803",
":  c #2F0C0F",
">  c #261604",
",  c #22140C",
"<  c #24190E",
"1  c #391509",
"2  c #321B0F",
"3  c #251715",
"4  c #2B1B13",
"5  c #321F19",
"6  c #391918",
"7  c #25221A",
"8  c #342116",
"9  c #3C261E",
"0  c #0F1A22",
"q  c #2E1723",
"w  c #192123",
"e  c #2A2226",
"r  c #3E2721",
"t  c #3E2822",
"y  c #362D2D",
"u  c #3A282A",
"i  c #511806",
"p  c #4A1915",
"a  c #49291B",
"s  c #522812",
"d  c #762C0B",
"f  c #662A1B",
"g  c #722B13",
"h  c #693517",
"j  c #7A3417",
"k  c #511F2D",
"l  c #412920",
"z  c #472B26",
"x  c #4E2D2B",
"c  c #55362B",
"v  c #59392A",
"b  c #443433",
"n  c #493638",
"m  c #583C35",
"M  c #662C27",
"N  c #762F2A",
"B  c #663829",
"V  c #7B3329",
"C  c #763B28",
"Z  c #673A38",
"A  c #79441D",
"S  c #42413F",
"D  c #59423A",
"F  c #6A472C",
"G  c #674335",
"H  c #684839",
"J  c #754637",
"K  c #7A4939",
"L  c #322D42",
"P  c #4B3948",
"I  c #553B46",
"U  c #633F44",
"Y  c #5B4149",
"T  c #574556",
"R  c #5B4A5D",
"E  c #4C5755",
"W  c #674747",
"Q  c #724E46",
"!  c #775A4B",
"~  c #654E59",
"^  c #68535C",
"/  c #795655",
"(  c #706153",
")  c #5D4D63",
"_  c #5F5067",
"`  c #5F5168",
"'  c #635264",
"]  c #685261",
"[  c #6D6D67",
"{  c #832F0D",
"}  c #8B320D",
"|  c #94340C",
" . c #9D360B",
".. c #832F1F",
"X. c #8C2E1D",
"o. c #843413",
"O. c #8F301E",
"+. c #943619",
"@. c #A73807",
"#. c #A83807",
"$. c #A33708",
"%. c #A4390A",
"&. c #883625",
"*. c #893D30",
"=. c #9B481B",
"-. c #8C4C2D",
";. c #94472B",
":. c #874738",
">. c #8A5635",
",. c #995537",
"<. c #955838",
"1. c #AA4F24",
"2. c #A85C39",
"3. c #B55E38",
"4. c #986239",
"5. c #9B6D38",
"6. c #A56A3D",
"7. c #B4653D",
"8. c #BA6A3C",
"9. c #B0733C",
"0. c #C6693E",
"q. c #C1723D",
"w. c #914D44",
"e. c #895A46",
"r. c #885648",
"t. c #955B46",
"y. c #9A5E45",
"u. c #865B53",
"i. c #A65D47",
"p. c #B15E4E",
"a. c #886449",
"s. c #9B6246",
"d. c #966448",
"f. c #9D644B",
"g. c #886855",
"h. c #996756",
"j. c #976852",
"k. c #8F7159",
"l. c #957458",
"z. c #A66846",
"x. c #A2654D",
"c. c #AA654E",
"v. c #AD6B4C",
"b. c #B96541",
"n. c #B56B43",
"m. c #BC6C44",
"M. c #B66549",
"N. c #B26D4D",
"B. c #BC6C4B",
"V. c #AA7448",
"C. c #B27245",
"Z. c #BD7143",
"A. c #B5754B",
"S. c #BE724B",
"D. c #A56B52",
"F. c #AC6C53",
"G. c #A96857",
"H. c #B86757",
"J. c #B26D53",
"K. c #BC6C52",
"L. c #B36D5A",
"P. c #AC7355",
"I. c #A9765B",
"U. c #B47253",
"Y. c #BA7454",
"T. c #BC7B55",
"R. c #B5745A",
"E. c #B9755C",
"W. c #B7785A",
"Q. c #BB7A5C",
"!. c #937166",
"~. c #B86961",
"^. c #A97768",
"/. c #B57767",
"(. c #BA7463",
"). c #BD7C62",
"_. c #B17F72",
"`. c #C26D44",
"'. c #C26D49",
"]. c #C27345",
"[. c #C4744B",
"{. c #C9764B",
"}. c #C5794A",
"|. c #CA7B4C",
" X c #C26D57",
".X c #C67A52",
"XX c #CB7B54",
"oX c #C67758",
"OX c #CC7D5A",
"+X c #D27952",
"@X c #C26A64",
"#X c #C77765",
"$X c #C37D63",
"%X c #C77A71",
"&X c #AD835C",
"*X c #BA855B",
"=X c #9B8474",
"-X c #A98766",
";X c #B98667",
":X c #B58868",
">X c #B8926D",
",X c #A88775",
"<X c #B78971",
"1X c #BC9873",
"2X c #C9814C",
"3X c #C9835A",
"4X c #D28454",
"5X c #D3845C",
"6X c #D68A5A",
"7X c #C8935A",
"8X c #D39A5E",
"9X c #E2925D",
"0X c #C88767",
"qX c #C18B65",
"wX c #C9856B",
"eX c #C48D6B",
"rX c #D88660",
"tX c #DC8B64",
"yX c #D48A69",
"uX c #CA936C",
"iX c #D49768",
"pX c #D99368",
"aX c #C98C72",
"sX c #D38D75",
"dX c #CD9572",
"fX c #C69A76",
"gX c #CD9974",
"hX c #D19A75",
"jX c #D89678",
"kX c #D49C7A",
"lX c #E5936C",
"zX c #E49A6B",
"xX c #E79874",
"cX c #ED9C75",
"vX c #CEA466",
"bX c #DBA36A",
"nX c #C9A278",
"mX c #D9A478",
"MX c #E6A773",
"NX c #F3A47A",
"BX c #908B82",
"VX c #B49686",
"CX c #CE9383",
"ZX c #DA9B82",
"AX c #D6A98A",
"SX c #E6A485",
"DX c #EFB188",
/* pixels */
"$ dX].v.wXrX5Xy., gX].v.E.m.[.f., eX|.U.E.m.b.D., dX}.v.U.m.[.y.> fXU.C.0XyX0X4., gX].v.E.m.[.f., eX|.U.E.m.b.D.% dX].N.D.[.m.c.",
"X ;X4XQ.wXm..Xx., gX}.N.U.m.[.x.< uX|.U.)..XS.D.3 eX|.v.J.[..XF.> aXOX2XuXB.oXz., hX}.N.U.8.S.x.< uX|.U.).+XB.D.$ gX|.N.D.[.[.(.",
", qX|.jX0X8.m.G., hX}.N.F.m.[.D.< dX|.U.).5XXXx.u g.S.z.R.XX3XD.> $XOXiX3XM.K.V., hX}.N.f.>.M.D.< dX|.U.).5X.Xx.$ gX{.N.P.6X5XQ.",
", uX].kXU.XXm.x., dX].N.J.XX[.D., dX}.N.).lXXXf.u b m m Q l.&X-Xl.>XU.I.s.H.z.s.< ^.<.K m f.[.D., dX}.N.).lXXXf.$ uX`.N.Q.iXXXF.",
"X gX[.3Xv..X[.y.< dXZ.N.R.tX.XD., gX].U.Q.xXXXf.< n b ! l.1X1XnXnX1XnXl.b n D c b b b b r.tX.XD., gX].U.Q.xXXXf.% uX].N.R.5X}.c.",
"X gX4Xv.R.m..Xx.3 uXZ.U.R.cX.XD., hX].U.E.lXXXi.< u.b =X1X>X,X1X>X&X1X! b b b b b n m e.U.cX.XD., hX].U.E.lXXXf.% gX|.Y.D.Z.m.E.",
"$ fX6.F.).n.2.D.< uX].U.R.cX[.D., hX].E.U.tXm.:.g *.H =X1X1X&XVXg.-XnX( b ! D b x J 2.v.R.xX[.D., hX].T.J.tX[.D.% eX|.oXR.Z.7.E.",
"= <Xd R.I.Y.j h., dX}.Y.U.cXm.x., dXm.Y.v.5Xb.*.O.&.l.eXnX>X&Xl.&XnXnX-X! -X! M ..O.&.&.y.cXm.x., gXm.Y.v.6Xm.x.< ;X`.0XaX5Xm.F.",
"o l.;X;X*X:XI.*X$ kX].v.U.cX{.x.3 6Xm./.oXM.wX;.j C >XnXnX1X-X1X1XnX-X-X-X-Xt.X.O.O.O.&.x.cX{.x.< 6Xm./.oXb.wX7.e 5X|.;X6X{.F.U.",
"& * < , < + 3   $ uX}.J.R.rX[.s.$ 6X[.K i.B.:.<.z k.nX-X( D D ! ( k.! g.l.e.&.O.O.O.&.i.R.rX{.y.$ 6XoXK i.B.:.<.= rX].;XzXOXF.U.",
": Q ;.*.:.r.p.:., qX4XT.Q.[.[.s.% MXY.v $X$Xf R.a -Xa.D b b y y b b ! -X*...O.X.X.;.}.T.Q.[.[.f.% MXY.c ).$Xf R.# zX8./.cX+XJ.Y.",
"; r.i i.$XG.j x., qX4XyXQ.m.[.x.* A h I M B H a 5 ,.j ! g.! ! ! H k.1Xd.X.O.O.X.j P.4XyXQ.m.[.x.* A h U M B G x = zX8.I.5X0.U.A.",
"- =XB f.^.h.B h.< uX2XxXR.m.`.D.* h s u 1 p l 3 , 2.&.r.D D ( -X>XnXD...+.O.O.&.I h.2XxXR.N.`.D.0 h p u 1 p z 3 # 6X].P.`.8.E.N.",
"; CXxX'.M. XsXM., gX].kXE.m.m.D.0 kXe., u.h.6 u., A.O.K n b D >XnX&X&.O.O.O...I ) ) f.xXE.m.m.D.0 kXr., u.h.6 u.# 6XXX^.'.[.R.U.",
"> &XA.q.XX6.}.=.$ hXZ.yXwXm.`.x.= iXJ.H t.Y.r.x.= &XV C b y n -X-X:.O.O.O.V W ) ) _ r.yX0Xm.`.x.= iXU.H y.H.r.x.= iXOXe.Y.XX<.J.",
"O AX(.M.R.G.R.L., hXm.*XsXm.[.x., 9X[.aX+X3.OX7.= ^.Z ..K ^ S =X=XJ O.O.O.W ) ) _ _ / $XdXm.[.x., 9X}.aX+X3.OX7.# jXB.x c.B.h v.",
"o dX[.SXJ.m.5Xt.# NXn.D.[.{.J.i., dX}.0X0X7.m.s.q / Z X.w.' E BX,XO.O.O.X.U ) ) ` ` ~ h.[.{.H.i., dX}.0X0X7.m.y.4 l.h.u.e.k./ s.",
"X hX|.uXv.[.cXD.7 2XC.eXm.`.wXv., uXS.OXsX[..XD.= n V O.K E E [ w.O.O.O.V T T T ` ` ` ^.m.`.wXv., uXZ.OXdX[.XXD.O 1 1 p ; ; : ; ",
"O uX].NXQ.[.5XF.. zXZ.C z.2.C <.4 uXm.U.SX[.].x.e ] U O.g.E [ =XX.O.X.V W ` ) T ) ) ` W z.3.C <.< dXZ.U.SX[.].x.e VXK 1 r.u.k e.",
"o dX7.SXQ.m.7.x.= DX0XH ZXsXe.<X< uX].A.SXm.m.f.- ' U ../ E [ e.O.X.N T ` ` ` ) T ` ` R aXsXe.<X< uX].N.SXm.m.f.X 1Xi.M <.h.Q x.",
"X hX].T.U.[.[.x.0 f K / K K W v o uX}.U.SX`.[.D.y ) R ..D E T &.X.N ) ` ` ` ` ) L ) ' ` W J W v o dX}.U.SXm.[.D.p ;X$X#XB.U.(.T.",
"o ;X4XV.sXm.[.x.w A s 3 1 i 1 1 o gX}.N.jXm.[.x.P ) R N D E Z X.Z ) ` ` ` ' ` ) e W ` ` n i 1 1 o dX}.A.jXm.[.x.1 uXS.M.6XOXp.Z.",
"$ qX}.Y.SX[.b.x.= MX-.6 K t.B t., hX].v.).m.XXe.) ) ~ U G E N Z ) ` _ _ ` ) ) ) - :XR ) ~ t.B t., hX].v.).m.XXf.; gXY.M.6XyX#Xn.",
"X mX8.N.).lXm.D.< 4Xn.h.x.oXf.i., hXm.v.U.XXyX/ ) T T W m D N ) _ _ _ _ ` ` ` ~ 3 D.T ) ' x.f.i., gX8.v.U.XXtXP.: fXA. XzXOXx.A.",
"X gX].U.E.NXXXi.o mXm.U.wXrXm.D.o uX|.U.R.lXjX~ ) ) T ) Z m ) _ _ _ _ _ _ _ _ ~ 3 !.) ) _ E.m.D.o uX|.U.R.lXNXD.X dX|.Y.ZXS.m.E.",
"o dX{.Y.P.5X[.c., hX].U.jXXXm.F.4 dX|.v.N.XX5X/ ) ) R ` I U _ _ _ _ _ _ _ _ ) ) n ' ) ) u.oXB.D.4 dX|.v.v.XXtXs.$ dX[.U.kX[.m.L.",
"$ uX{.J.F.m.m.G.3 eX}.U.ZX'.m.D., eX}.v.x.m..X/ ` ` T ` R ) _ _ _ _ _ _ _ ) _ ) R ` ` ' _.'.B.D., eX|.v.x.m.XXy.% dXZ.N.sXS.S.L.",
"$ uX{.N.R.m.}.c.< uX].U.aXm.m.D., hX6XwXwX5XtXh.) ` T ` _ _ _ _ _ _ _ _ _ _ ) R ` _ ` ^ aXB.m.x., hX6XwXwX5XtX/.% dX].N.).m.B.L.",
"X dX|.N.)..XXXx.$ hX].J.R.}.m.f., hX6XwXsX6XrX/.T P P ` ` ` _ _ ` ` ` ` T I n P T ) ) d.R.[.m.f., hX6XwXsX5XrX).$ gX].N.P.b.B.J.",
". dX].Q.0X5XOXi.o kXZ.N.x.[.[.f.$ uX].N.R.m.m.y.P n b ) ` ` _ _ ` ` ` I u l 9 9 t Y / z.x.[.[.f., uX].A.E.m.m.f.$ gX].J.D.Z.[.L.",
". kX].sX;X[.[.f.$ dX}.U.F.m.[.x.< hX].N.).[.[.f.n n n ` ` ` _ _ ) ` _ n 9 l l l 9 n z.U.F.m.[.x.4 hX].N.Q.[.}.f.% gX].Y.P..XOXL.",
"X mX].jX).n.7.D.< qX|.J.).7.[.D.o dX].U.aX6XXXD.5 y R ` ` ` _ _ ` ` ) P 9 r l 9 l I v.U.).7.[.D.o dX].U.aX5XXXD.% dX8.Y.E.yX5XL.",
"; CXB.xXXX Xi.M., uX8.Y.U.XX5Xx.3 uX.XL.V.NXB.6.< I ) _ _ _ _ _ ` ) ` T b r r r n ) r.Y.U.XX5Xx.3 uXXXL.V.NXM.6.% uX{.J.9.yX#XC.",
"  1XT.Z.b.A.*Xs.< hX].U.Q.tX5Xx.$ 7XS.G.N.NX.X6.5 ) ` _ _ _ _ _ ` ` ` ` ) T P n ) ` / F.Q.tX5Xx.O 7XS.G.A.NX.X6.X eXoXJ.9.oXH.C.",
"@ AX*X8.S.T.V.v., dX}.v.Q.lX[.s.6 7X|.%Xz.lXyX<.y ` _ _ _ _ _ _ ` ' ` ` _ _ ) ) ` ` ~ f.Q.lX[.s.6 7X{.%Xz.lXyX4.+ dXoXQ.A.S.H.C.",
"O fX-.3.M.F.d z., dX[.z.Q.cXm.f.O bXm.G.T.4XM.5.P ` _ _ _ _ _ _ ` ) ` ` _ _ _ _ ` ' ) r.Q.cXm.f.o bXm.G.T.4XM.6.% gXOX#X7XS.H.A.",
"4 VXt.sXsXCXh.fX, hX|.z.Q.cX[.D.3 7X[.(.z.}.#Xe.) ` ` ` _ _ _ _ ) ` ` ` _ _ _ _ _ _ _ ~ E.cX[.D.3 7X[.(.v.[.#Xz.% uX XoXiX[.L.C.",
". b v F v v H a , dX].v.R.tX].D.e *XXX/.z.B.@X/ ` ` _ _ ` ` _ _ ` ` ` _ _ _ _ _ _ _ ` ~ D.tX].D.e *XXX/.z.B.@Xs.@ gXB.Y.bXS.H.C.",
"  u v i a a v 1 o uX].Q.U.|.}.f.. mXb.M U.M.M ~ _ _ _ _ ` ` ` ` ` ` _ _ _ _ _ _ _ _ ) ' u.|.[.f.. mXb.M R.n.f f.@ hX'.Y.MXS.~.C.",
"; h.:.*.L./.y.F., gX}.wXR.m.[.f.e *XH.w.x.J.Z _ _ _ _ _ ` ` ` ` ) ` _ _ _ _ _ _ _ _ ` _ ^ M.[.f.e *Xv.w.s.J.:.r.+ mX`.U.bXN.~.C.",
"# f.i f.(.M.h t.4 gX}.kXE.[.n.D.& a : q $ q P _ ` ` ` ` ` _ ` ` ` ` ) ` _ _ ' ` ) ` ` ` ) y.n.D.& a : 3 , q q + , eX$XE.b.$Xh.B.",
"# jXV.P.(.M.<./.< ;X].MXF.B..Xf.e :XJ z H Q I ) ` ` ` ` _ _ ' ' ` ` ` ` ` ` ` ` ` ` _ _ / n..Xf.e <Xw.z H Q k F > 0XN.$X`.M.<X`.",
"  jX3Xd.E.m.Q.F.> iX].xXQ.m.XXx.o gX<.f >.i.N w.b / _ _ _ ` ` ' ` ` ` ` ) ` ` ) ) ] r.;XT.m..Xx.O dX<.f >.i.N 4.> jX}.J.{.n./.`.",
"$ sXZ.z.#X`.T.i.o SXq.0XwXm.m.D.> iXoXU.z.#X~.n.. pXx.v Z I U I I ^ ~ I W I Z r.4 jXq.wXwXm.m.D.> iXoXL.z.#X@XC.o uX;XC 7.D.K 2.",
"o jX|.uX X3.A.v.> gXq.;X).m.[.x., *XoXsXC. X@X6.e dXI.C { j { { f /.o.j j } } y.> hXq.0XQ.m.}.x., *XoXaXC.'.@X4.u :X^.Q E././ P.",
"  jX|.mXK.'.7XJ.3 3X}.OXF.B.OXf.3 gXoX$XuXB.H.V.& h s s | |  . .d eX=.| | $.%.i.4 *X}.oXF.B.OXf.< dXoXwXuXK.~.V.  F p a s 6 u s ",
". jX}.mXoXOXmXH.< eX[.s.D.Y.z.h.% uXK.F.bXB.~.V.w <.h a $.$.$.#.d eX1.@. .@.#.z.< eX{.s.D.Y.z.h.$ aXJ.F.bXK.L.V.= d.x z f x u h ",
"# yXZ.mXK.2.3Xi.X AXC.h /.N.d j.4 wXOXY.bX.X#X4.= mX<.p $.$.$.#.d ;X1.@.$.@.@.,.X AXC.h /.N.d h.4 wXOXY.MX.X#X4.< hXr.1 :.!.6 y.",
"X dX|.yXP.S.m.F.7 5.*X^.-X&X<X&Xo jX[.v.SX[.m.t.< dXZ.-.%.#.#.#.d ;X3.@.@.@.@.2.7 5.;X^.-XW.<X&Xo kX].v.SX[.m.y.- iXm.i.v.7.K.U.",
"+ uX}.0X;XS.m.F.& s i q > 1 p ; $ dXZ.U.ZX[.[.D., dX[.z.%.#.#.#.d *X3.@.@.@.@.,.& s i q > 1 p ; o hXm.U.ZX[.[.x.# iX[.L.*X[.K.N.",
"$ gXZ.Y.dXS.m.c.L ,XC k W K x Q , dX].U.wXb.[.x.% dX|.z.=.#.#.#.{ ;X7. .@.#.%.;.L ,XA k W K x H , dX].U.wXb.[.x.= iX{.(.uX.X XF.",
"+ jX`.N.dXrXS.x.  vX-.B >.z.C a., dX].U.E.`.5Xf.< uX[.v.+.#.#.#.{ qX7.$.#.#.%.=.  vX-.B >.z.C a., dX].U.E.'.5Xf.= iX'.(.uX.X XN.",
"  AX8.N.;XxX[.x.< 8X2X).9.2XOX6.o dX].U.R.rXcXI., uX}.z.=.$.@.@.} qX7. .#.#.#.+., iX2X;XV.4XOX6.o dX].U.R.5XcXI.= iX'.(.iX.XY.N.",
"  AX`.J.E.jXXXx.3 3Xm.%X0XoX Xz.o kX].U.J.rXcXD., eX}.;.| } } |  .N.C.| #.#.#.| 4 3X8.%X$XXX Xz.o kX].U.J.rXcXD.# uX[.#XiX.XB.v.",
"X kX].Y.P.XX}.x.3 kXm.~.SXXXM.F., kXZ.U.F.[.XXt.3 j.J g | | |  .| ,.n. .#.@.#.%.6 hXm.~.SXXXM.F., kXZ.U.F.[.XXs.= uX[.(.uX].K.J.",
"$ eX{.Y.R.7.}.c.# vX2XU.8Xq.S.<.o hX8.U.s.:.F c 9 a 9 a z a a a a ! n. .$.$.%.| 2 vX2XU.8Xq.B.4.o kX8.T.J.m.[.D.% uX`.L.*Xn.M.Y.",
"X dXK.j.7XyX%X4.< dX].N.Q.b.[.x., uX<.c z a a t a 9 t a a 9 9 r 9 g.2.|  . .| | p gX].N.T.M.[.x., uX].Y.H.'.7.D.% gX].N.D.[.m.v.",
"$ qXOXOX8XB.@X6., dX].U.R.b.[.D.< dX>.x z z z z 8 m v v G J t.r., wX[.A j { j f 4 dX].U.R.b.[.D.< dX}.Y.R.XXm.D.% gX|.N.x.].[.(.",
"X qXrXyXC.7.@X4., dX}.J.J.m.S.D.< dX}.x.D.T.v.t.% <X[.v.E.5X5XI.> 0XoXZ 9 t a 9 8 eX}.U.J.m.S.D.< dX}.U.).tX.Xx.$ gX|.N.P.6X5X).",
", uXXXSX9.OX@X6., dX].N.J.XX[.D., dX].U.).zXXXf., eX|.v.$XlXXXf.> dXn.v l l 9 9 t a.].N.J.XX}.D., dX].U.).lXXXf.$ eX`.N.T.iX4XG.",
", *X XsX9.S.~.z.< dXZ.N.R.tXXXD., dX].N.).lXXXf.< eX|.N.Q.5X[.s.> ;X7.a l t t 9 9 G n.N.R.tXXXD., dX].N.).lXXXs.% uX].N.R.5X[.c.",
"  uXwXx.9.M.%X4.< dXZ.J.R.cXXXD., hX}.U.).lXXXf., dXXXU.J.n.m.D.X fXT.c a t l l 9 D 8.N.R.cXXXD., hX}.U.).lXXXf.% dX|.Y.f.S.m.E.",
"X SXE.f.A.oX~.4., dX}.U.R.NX[.x., dX}.U.R.rX[.x., hX}.Q.).b..XD.o AX.X>.m x z z 8 I.}.U.R.NX[.x., dX}.U.R.rX}.x.% uX|.oXR.Z.8.E.",
"= -Xi G.S.i.p 4., dX|.U.J.cX[.f., dX].U.U.XXm.z., dX8.wXjX[.[.t.< <Xi V.P.<.i e., dX|.U.J.cX[.f., dX].U.U..Xm.D.< ;X`.0XaX5Xm.F."
};
