/* XPM */
static char *_f76736752534e9e9cd6bb8650ae6849xNOclgWANBaWGjJ2[] = {
/* columns rows colors chars-per-pixel */
"64 64 243 2 ",
"   c #010507",
".  c #080806",
"X  c #040708",
"o  c #0C0609",
"O  c #06090A",
"+  c #0B0B0B",
"@  c #120E0A",
"#  c #1B0A0C",
"$  c #14120C",
"%  c #1C130C",
"&  c #16190D",
"*  c #1B1E0B",
"=  c #070D15",
"-  c #141412",
";  c #1A1413",
":  c #1C1A15",
">  c #1C1A18",
",  c #2A0A0D",
"<  c #26190D",
"1  c #340C10",
"2  c #241A13",
"3  c #281B16",
"4  c #341A13",
"5  c #1F2110",
"6  c #26240E",
"7  c #38230F",
"8  c #2B211B",
"9  c #3B2414",
"0  c #35261A",
"q  c #3C2619",
"w  c #383711",
"e  c #0B1A2D",
"r  c #172633",
"t  c #272728",
"y  c #382A24",
"u  c #392E2C",
"i  c #461111",
"p  c #591217",
"a  c #68131A",
"s  c #77151C",
"d  c #452B12",
"f  c #452917",
"g  c #4A2C12",
"h  c #442B1B",
"j  c #5A2D17",
"k  c #493615",
"l  c #533416",
"z  c #5C3614",
"x  c #5E3914",
"c  c #603715",
"v  c #613914",
"b  c #5C1C26",
"n  c #432E26",
"m  c #483327",
"M  c #553A2C",
"N  c #583A29",
"B  c #443B33",
"V  c #533D34",
"C  c #5D3D31",
"Z  c #673D24",
"A  c #6F302F",
"S  c #454312",
"D  c #4A4514",
"F  c #5A4D16",
"G  c #6B4716",
"H  c #734E15",
"J  c #704E1E",
"K  c #625919",
"L  c #785718",
"P  c #736A17",
"I  c #4D4238",
"U  c #544535",
"Y  c #5B4838",
"T  c #6A4327",
"R  c #774627",
"E  c #745025",
"W  c #674636",
"Q  c #744B3A",
"!  c #725134",
"~  c #7D533E",
"^  c #1C1D4E",
"/  c #0A3550",
"(  c #2C2B55",
")  c #123662",
"_  c #503643",
"`  c #094762",
"'  c #534D4B",
"]  c #6F5145",
"[  c #755A47",
"{  c #7A634B",
"}  c #7E6C56",
"|  c #515E70",
" . c #727070",
".. c #8D161B",
"X. c #A7171D",
"o. c #B8181F",
"O. c #912C1E",
"+. c #871923",
"@. c #941824",
"#. c #A41A25",
"$. c #B91C28",
"%. c #8E2F26",
"&. c #AF2B30",
"*. c #C81E2B",
"=. c #DA1C27",
"-. c #C71F30",
";. c #E41C26",
":. c #EC1C24",
">. c #C42B37",
",. c #E0232A",
"<. c #88671A",
"1. c #88781B",
"2. c #96761A",
"3. c #824C2A",
"4. c #8D522C",
"5. c #97572C",
"6. c #84563D",
"7. c #985F38",
"8. c #A65E31",
"9. c #96653E",
"0. c #A76234",
"q. c #B36E3D",
"w. c #8C5947",
"e. c #955C4B",
"r. c #885552",
"t. c #965950",
"y. c #9B5B51",
"u. c #A45F54",
"i. c #996447",
"p. c #8A6B52",
"a. c #9A7B5B",
"s. c #A46A4C",
"d. c #A9734A",
"f. c #B7774A",
"g. c #A56253",
"h. c #AC6655",
"j. c #AD6A54",
"k. c #AD6B5B",
"l. c #B16B57",
"z. c #B27154",
"x. c #B47354",
"c. c #BB7557",
"v. c #B77B54",
"b. c #BF7857",
"n. c #B67258",
"m. c #BB7659",
"M. c #BF7958",
"N. c #927D70",
"B. c #BC7D61",
"V. c #C17F4F",
"C. c #C17052",
"Z. c #C47D59",
"A. c #9A881C",
"S. c #A68C1D",
"D. c #A7931B",
"F. c #BA9B1B",
"G. c #B6A41B",
"H. c #928820",
"J. c #B9A921",
"K. c #C3A81D",
"L. c #C7B419",
"P. c #D9BB1B",
"I. c #D5B82E",
"U. c #DEC71A",
"Y. c #E3CA1C",
"T. c #EACC1A",
"R. c #EED11A",
"E. c #F5D91A",
"W. c #F8DB1A",
"Q. c #FFE115",
"!. c #F9DA28",
"~. c #B98653",
"^. c #9A8979",
"/. c #A68463",
"(. c #B48A68",
"). c #BB946D",
"_. c #B7987D",
"`. c #C6805B",
"'. c #CA835C",
"]. c #C98958",
"[. c #D38C59",
"{. c #D98F5C",
"}. c #DF935D",
"|. c #E1965E",
" X c #E69A5E",
".X c #E89C5F",
"XX c #CDB744",
"oX c #C38261",
"OX c #C88663",
"+X c #C79668",
"@X c #D69A68",
"#X c #C49A72",
"$X c #C99F75",
"%X c #D69A74",
"&X c #E19964",
"*X c #E99C60",
"=X c #E29B76",
"-X c #CBA075",
";X c #D9A87A",
":X c #EAA166",
">X c #E2AB78",
",X c #E8B37E",
"<X c #F1BD7F",
"1X c #F5D55A",
"2X c #1E3784",
"3X c #283B95",
"4X c #23609D",
"5X c #2350A7",
"6X c #5863A9",
"7X c #2F79C4",
"8X c #897F8B",
"9X c #2089BC",
"0X c #1190CE",
"qX c #099EE4",
"wX c #06A9EA",
"eX c #898888",
"rX c #AF9B8C",
"tX c #AEABA8",
"yX c #C6A58F",
"uX c #C8A58F",
"iX c #C5A98A",
"pX c #D9AF87",
"aX c #C9A792",
"sX c #E2AC83",
"dX c #E5B382",
"fX c #E9B583",
"gX c #ECB885",
"hX c #EAB88A",
"jX c #ECBB8D",
"kX c #C9B9AC",
"lX c #F0CC8F",
"zX c #EDC49A",
"xX c #FDF19A",
"cX c #CAC2BE",
"vX c #EBCEB0",
"bX c #8A94C5",
"nX c #CECDCA",
"mX c #F0DBCA",
"MX c #F4E3CE",
"NX c #DEDFEB",
"BX c #E9E8E6",
"VX c #F2EFED",
"CX c #FBFBF8",
/* pixels */
"zX:XZ.y.r.aXB.h.}.Z.M.M.M.M.c.h.}.Z.M.M.M.M.m.k.hX:X.X*X*X*X|.`.|.`.M.M.M.M.c.h.}.`.oXM.M.oXm.h.}.Z.M.M.M.M.c.h.}.Z.M.M.M.M.c.u.",
"lX&XZ.u.t.aXB.h.}.Z.M.M.M.M.c.h.}.Z.Z.Z.n.W m m Y M M M M M M m M W c.Z.Z.M.c.h.}.OXuXoXoXuXB.h.}.Z.M.M.M.M.c.h.}.Z.M.M.M.M.c.u.",
"&XZ.c.n.n.B.n.h.}.Z.M.M.M.M.c.h.}.Z.j.j.i.;     $ * * * * * * * * 0 i.j.j.b.c.h.{.Z.B.m.m.B.n.h.}.Z.M.M.M.M.c.h.}.Z.M.M.M.M.c.u.",
"OXl.h.h.h.h.g.t.}.Z.M.M.M.M.c.h.|.s.3 ; - X   X A.Y.Y.Y.Y.Y.U.U.Y.J.3 - 3 s.M.h.Z.l.h.h.h.h.g.t.}.Z.M.M.M.M.c.h.}.Z.b.M.M.b.c.u.",
"hX&X}.}.}.}.{.M.|.Z.M.M.M.M.c.h.s.C X   + F P P H.D.D.D.D.D.L.Q.Q.Y.P w O C w.k.sX&X}.}.}.}.{.M.|.Z.M.M.M.M.c.h.}.`.oXM.M.oXm.u.",
":X'.OX`.`.OXZ.l.}.Z.M.M.M.M.c.g.n   X O 5 L.W.E.F . o o o . K E.E.E.W.P     y g.@X`.OX`.`.OXZ.l.}.Z.M.M.M.M.c.h.}.OXuXoXoXuXB.u.",
" XOXyXoXoXuXB.h.}.Z.M.M.M.Z.w.3 $ @ d 1.J.K S D O.$.o.o.o.o.O.D S S S 6     + 3 0 V yXoXoXaXB.h.}.Z.M.M.M.M.c.h.{.Z.B.m.m.B.n.y.",
".XZ.oXM.M.oXm.h.}.Z.M.M.M.Z.6.X   @ d 1.K.j 1 i @.o.o.o.o.o...% @ * w k S S S k < 8 w.e.i.m.m.h.}.Z.M.M.M.M.c.h.Z.l.h.h.h.h.h.r.",
".XZ.b.M.M.b.c.h.}.Z.M.M.M.Z.6.X   X . + < *.:.;.p . o o o o < z z L T.E.E.E.E.E.<.g + X ; s.c.h.}.Z.M.M.M.M.c.k.sX&X}.}.}.}.{.c.",
".XZ.M.M.M.M.c.h.}.Z.M.Z.n.W 0 X   # ......s a a f 7 7 K A.A.S.F.F.K.W.1XxXxXxXxXXXA.d 7 9 n ~ h.}.Z.M.M.M.M.c.h.&X'.OX`.`.OXZ.g.",
".XZ.M.M.M.M.c.h.}.Z.M.n.i.-     # i *.=.*.1 $ 6 F H H D.R.R.R.R.R.T.T.lXBXBXBXBX1XP.L H G 6 m y.{.Z.M.M.M.M.c.h.}.OXyXoXoXuXB.u.",
".XZ.M.M.M.M.c.h.}.Z.Z.W - X   . ..$.1 , , f <.Y.T.T.R.D.H H H H H H H E ! ! ! ! J <.Y.T.T.Y.A.; d.`.b.M.M.b.c.h.}.`.oXM.M.oXm.u.",
".XZ.M.M.M.M.c.h.}.`.oXC       . a s . w P 2.S.F.F.F.F.<.z z z z d 9 9 9 7 7 g z z H F.Y.Q.Q.F.3 T w.B.Z.M.oXm.h.}.Z.b.M.M.b.c.u.",
".XZ.M.M.M.M.c.h.}.OXaXW         + $ + 1.W.W.K.x x x x z z z z z 3 + .       < z z z z D.W.Q.K.v % t rXoXoXuXB.h.}.Z.M.M.M.M.c.u.",
".XZ.M.M.M.M.c.h.{.Z.B.C         1.L.L.S.<.<.L v v v v d % % % < p.a.+       O % % % % x 2.R.K.x % 2 n.c.m.B.n.h.}.Z.M.M.M.M.c.u.",
".XZ.M.M.M.M.c.h.Z.l.h.M X $ 6 S D.P.P.2.z z z g g g g <       X /.;XU 2 X 3 2         < l K.S.g 0 m g.h.h.h.g.t.}.Z.M.M.M.M.c.u.",
".XZ.M.M.M.M.c.k.sX&X|.Q . g <.E.2.v G v v v d O X . . .       O /.gXfX[ @ 4.T .       . @ x d + /.@X}.}.}.}.{.M.|.Z.M.M.M.M.c.u.",
".XZ.M.M.M.M.c.h.&Xv.C h d S.F.A.H z v g 4 4 %     $ Z 9 X   2 Z +XfXgX{ . f N Z 2       X < q W ].'.Z.Z.Z.Z.Z.l.}.Z.M.M.M.M.c.u.",
".XZ.M.M.M.M.c.h.|.s.+ 9 L P.K.x x x z 4         @ 9 5.l X > N q.@XfXgXp.$   f 8.9     @ % . y y.}.Z.M.M.M.M.c.h.}.Z.M.M.M.M.c.u.",
".XZ.b.M.M.b.c.h.|.s.+ P Y.<.G v v l $ O       . T 3.2 + - (.;X>XdXfXfX~.3.% f 0.9     N 4.% X ; d.`.M.M.M.M.c.h.}.Z.M.M.M.M.c.u.",
".XZ.oXM.M.oXm.h.i.W 3 L F.G z v g 4 X         . R 4.+   ; $XgXfXfXfXfX@Xv.2 2 Z 2   X q Z V 8 X s.`.M.M.M.M.c.h.}.Z.M.M.M.M.c.u.",
".XOXuXoXoXuXB.h.n @ z x x x x v <           . + R 4.@ . 2 #XdXfXfXfXfXfX;Xu O   + + X   - _.[ + d.`.M.M.M.M.c.h.}.Z.M.M.M.M.c.u.",
"|.Z.B.m.m.B.n.g.m @ z x x x v v <           0 3.l 2 X h 3.m { fXfXfXfX+Xf.kXeXO p.a.@   + s.s.] [.Z.M.b.M.M.c.h.}.Z.M.M.M.M.c.u.",
"OXl.h.h.h.h.g.t.n @ z x x v z g %           q 8.9 O 3 ~ (.' p.fXfXfXfX@Xf.kXeX0 _.iX-   + w.h.y.}.Z.M.M.M.M.c.h.}.Z.b.M.M.b.c.u.",
"hX&X}.}.}.}.{.b.m @ z v v v d O X           q 8.9 2 5.aXCXCXMXfXfXfXfXfX;Xy h 0.vXnX-   $ v.}.M.|.Z.M.M.M.M.c.h.}.`.oXM.M.oXm.u.",
":X'.OX`.`.OXZ.h.n @ z v z 7 4 9 $           m +Xm t kXrX ._.pXdXfXfXfXfX;X8 % h cXnX- y ~ m.Z.l.}.Z.M.M.M.M.c.h.}.OXuXoXoXuXB.u.",
" XOXyXoXoXuXB.h.M 2 l z z % < v <     @ ; . Y fX] ' CXeX. R d.fXfXfXfXfX;XI t t tXnX- W OXaXB.h.}.Z.M.M.M.M.c.h.{.Z.B.m.m.B.n.y.",
".XZ.oXM.M.oXm.h.[.w.$ 7 v z z z <     l 4.% U fX;XpXCXeX  o W fXfXfXfXfXhXmXBXBXvX_.- C Z.oXm.h.}.Z.M.M.M.M.c.h.Z.l.h.h.h.h.h.r.",
".XZ.b.M.M.b.c.h.|.x.C h 7 7 g c < @ f 7.~.3 U fXfXjXmXtX . .^.fXfXfXfXfXhXvXMXmXzX).- C Z.b.c.h.}.Z.M.M.M.M.c.k.sX&X}.}.}.}.{.c.",
".XZ.M.M.M.M.c.h.}.Z.Z.W X O 2 z < 2 5.].sXu Y dXdX,X,XvXCXCXMXfXfXfXfXfXfXfXfXdXfX).- Y Z.M.c.h.}.Z.M.M.M.M.c.h.&X'.OX`.`.OXZ.g.",
".XZ.M.M.M.M.c.h.}.Z.M.s.w.e.W % . 2 5.].fX#X$XfX].q.q.f.(.jXzXfXfXfXfXfXfXfXfXfX].7.+ C Z.M.c.h.}.Z.M.M.M.M.c.h.}.OXyXoXoXuXB.u.",
".XZ.M.M.M.M.c.h.}.Z.b.Z.Z.Z.e.3 0 n R d.%XdX,X@X].f.f.f.f.>XfXfXfXfXfXfXfXfX>X@X9.T 0 ~ Z.M.c.h.}.Z.b.M.M.b.c.h.}.`.oXM.M.oXm.u.",
".XZ.M.M.M.M.c.h.}.`.oXM.M.oXm.g.}.i.+ N q.;X@X0.@XfXdXdXdXfXfXfXfXfXfXfXfXfX@X0.q 3 j.b.M.M.c.h.}.`.oXM.M.oXm.h.}.Z.b.M.M.b.c.u.",
".XZ.M.M.M.M.c.h.}.OXuXoXoXuXB.h.|.x.Q N h Y U h i.`.V.@XgXgXfXfXfXfXfXfX,X].9.h W w.c.M.M.b.c.h.}.OXuXoXoXuXB.h.}.Z.M.M.M.M.c.u.",
".XZ.M.M.M.M.c.h.{.Z.B.m.m.B.n.h.}.Z.Z.W ; ; ; ; Z 4.4.v.-X-X-X-X-X-X-X-X#X7.Z ; d.`.M.M.M.M.c.h.{.Z.B.m.m.B.n.h.}.Z.M.M.M.M.c.u.",
".XZ.M.M.M.M.c.h.Z.l.h.h.h.h.g.t.}.Z.M.n.j.j.s.t.n @ $ ; : : > > : : : > > @ y y.}.Z.M.M.M.M.c.h.Z.l.h.h.h.h.g.t.}.Z.M.M.M.M.c.u.",
".XZ.M.M.M.M.c.k.sX&X}.}.}.}.{.M.|.Z.M.Z.Z.Z.s.C ] Y + 1 p a i X '  .b , X n Q h.}.Z.M.M.M.M.c.k.sX&X}.}.}.}.{.M.|.Z.M.M.M.M.c.u.",
".XZ.M.M.M.M.c.h.&X'.OX`.`.OXZ.l.}.Z.M.M.M.Z.~ X /.$X- a -.:.X.# tXmX>.a % i.n.h.}.Z.M.M.M.M.c.h.&X'.OX`.`.OXZ.l.}.Z.M.M.M.M.c.u.",
".XZ.M.M.M.M.c.h.}.OXyXoXoXuXB.h.}.Z.M.M.M.Z.~ X /.#X- a -.;.=.$.l.C.,.$.@.4 M h.|.Z.M.M.M.M.c.h.}.OXyXoXoXuXB.h.}.Z.M.M.M.M.c.u.",
".XZ.b.M.M.b.c.h.}.`.oXM.M.oXm.h.}.Z.M.M.c.w.Q I ).#X- a -.;.:.:.%.%.;.=.*., 3 ] ].Z.b.M.M.b.c.h.}.`.oXM.M.oXm.h.}.Z.M.M.M.M.c.u.",
".XZ.oXM.M.oXm.h.}.Z.b.M.M.b.c.h.}.Z.M.Z.x.2 U fXfX#X- a -.;.:.:.p 1 =.:.=., X O i.`.oXM.M.oXm.h.}.Z.b.M.M.b.c.h.}.Z.M.M.M.M.c.u.",
".XOXuXoXoXuXB.h.}.Z.M.M.M.M.c.h.}.Z.M.Z.x.> U fXfX%X+.#.-.;.:.:.$.#.*.;.;.@.p X 8 W yXoXoXaXB.h.}.Z.M.M.M.M.c.h.}.Z.M.M.M.M.c.u.",
"|.Z.B.m.m.B.n.h.}.Z.M.M.M.M.c.h.}.Z.M.x.e.- U fXfX=X>.-.*.;.:.:.=.*.-.=.;.-.+.. : u s.x.m.B.n.h.}.Z.M.M.M.M.c.h.}.Z.M.M.M.M.c.u.",
"OXl.h.h.h.h.g.t.}.Z.M.M.M.M.c.h.}.Z.Z.W +   U fXfX=X>.=.:.:.:.:.a i =.=.-.-.+.O a.(.2 C l.h.g.t.}.Z.M.M.M.M.c.h.}.Z.b.M.M.b.c.u.",
"hX&X}.}.}.}.{.M.|.Z.M.M.M.M.c.h.|.x.W W [ [ a.fXfX%Xs #.=.=.=.=.+.s =.#.a a A { -X#X+ ! |.}.{.M.|.Z.M.M.M.M.c.h.}.`.oXM.M.oXm.u.",
":X'.OX`.`.OXZ.l.}.Z.M.M.M.M.c.h.|.i.X { jXgXgXhXgX#X- a $.$.$.$.$.$.&.b = O Y dXdX).> W `.OXZ.l.}.Z.M.M.M.M.c.h.}.OXuXoXoXuXB.u.",
" XOXyXoXoXuXB.h.}.Z.M.M.M.M.c.h.}.i.X { gXfXzXVXzX#X- # , , , , , u 9X0X9X2X( y y B ^.z.oXuXB.h.}.Z.M.M.M.M.c.h.{.Z.B.m.m.B.n.y.",
".XZ.oXM.M.oXm.h.}.Z.M.M.M.M.c.h.`.i.y [ (.;XzXMXzX#X- = e / / / r ) wXqX0X6X| X 3 M B.Z.M.oXm.h.}.Z.M.M.M.M.c.h.Z.l.h.h.h.h.h.r.",
".XZ.b.M.M.b.c.h.}.Z.M.M.M.M.c.k.sX&X}.W ; #XgXfXgX#X- ^ 3XqXwXwX5X5XwX7X3XNXtXX i.Z.c.M.M.b.c.h.}.Z.M.M.M.M.c.k.sX&X}.}.}.}.{.c.",
".XZ.M.M.M.M.c.h.}.Z.M.M.M.M.c.h.&X'.OXi.Q Y Y Y Y ' ( 4X0XwX0X` ^ ) wX4X_ | ' Q ].`.M.M.M.M.c.h.}.Z.M.M.M.M.c.h.&X'.OX`.`.OXZ.g.",
".XZ.M.M.M.M.c.h.}.Z.M.M.M.M.c.h.}.OXyXoXn.y +   > ( 6X7XqX0X4X; 2 r 0X| T @ 8 w.v.s.b.M.M.M.c.h.}.Z.M.M.M.M.c.h.}.OXyXoXoXuXB.u.",
".XZ.M.M.M.M.c.h.}.Z.b.M.M.b.c.h.}.`.oXM.M.n.Q X tXVXVXbX3Xe u t.n.r.e } -X8 X + + 0 n.Z.M.b.c.h.}.Z.b.M.M.b.c.h.}.`.oXM.M.oXm.u.",
".XZ.M.M.M.M.c.h.}.`.oXM.M.oXm.h.}.Z.b.M.M.Z.6.O N.kXmX8X^ n Q k.sXv.+ p.fXp.{ { { [ Y e.Z.M.c.h.}.`.oXM.M.oXm.h.}.Z.b.M.M.b.c.u.",
".XZ.M.M.M.M.c.h.}.OXuXoXoXuXB.h.}.Z.M.M.M.Z.6.O R f.,Xp.% e.n.h.&Xs.+ { ,XgXgX<X<X+X- C n.b.c.h.}.OXuXoXoXuXB.h.}.Z.M.M.M.M.c.u.",
".XZ.M.M.M.M.c.h.{.Z.B.m.m.B.n.h.}.Z.M.M.M.Z.~ . a.>XfX~.3.0 M h.|.i.O h 6.;X1X!.!.I.x 9 8 s.c.h.{.Z.B.m.m.B.n.h.}.Z.M.M.M.M.c.u.",
".XZ.M.M.M.M.c.h.Z.l.h.h.h.h.g.t.}.Z.M.M.c.w.Q U ).gXfX].5.% y h.|.s.y q l a.~.G.G.A.k q n j.c.h.Z.l.h.h.h.h.g.t.}.Z.M.M.M.M.c.u.",
".XZ.M.M.M.M.c.k.sX&X}.}.}.}.{.M.|.Z.M.Z.x.2 U fXfXfXfX].5.% y h.}.Z.c.M . + + + + + . W M.M.c.k.sX&X}.}.}.}.{.M.|.Z.M.M.M.M.c.u.",
".XZ.M.M.M.M.c.h.&X'.OX`.`.OXZ.l.}.Z.M.Z.x.> 0 9.I.1XgX>X+X8 y h.}.Z.M.i.~ ~ ~ Q i.6.~ s.Z.M.c.h.&X'.OX`.`.OXZ.l.}.Z.M.M.M.M.c.u.",
".XZ.M.M.M.M.c.h.}.OXyXoXoXuXB.h.}.Z.M.Z.x.y 4 l D.I.#X$X).y m h.}.Z.M.Z.Z.Z.c.l.|.Z.Z.Z.M.M.c.h.}.OXyXoXoXuXB.h.}.Z.M.M.M.M.c.u.",
".XZ.b.M.M.b.c.h.}.`.oXM.M.oXm.h.}.Z.M.M.M.n.Q O $ & - - > w.y.t.}.Z.M.Z.M.M.c.h.}.Z.b.M.M.b.c.h.}.`.oXM.M.oXm.h.}.Z.M.M.M.M.c.u.",
".XZ.oXM.M.oXm.h.}.Z.b.M.M.b.c.h.}.Z.M.M.M.Z.i.V [ ! ! ! ~ ].}.M.|.Z.M.M.M.M.c.h.}.Z.oXM.M.oXm.h.}.Z.b.M.M.b.c.h.}.Z.M.M.M.M.c.u.",
".XOXuXoXoXuXB.h.}.Z.M.M.M.M.c.h.}.Z.M.M.M.M.c.l.&X'.OX`.`.OXZ.l.}.Z.M.M.M.M.c.h.}.OXuXoXoXuXB.h.}.Z.M.M.M.M.c.h.}.Z.M.M.M.M.c.u.",
"|.Z.B.m.m.B.n.h.}.Z.M.M.M.M.c.h.}.Z.M.M.M.M.c.h.}.OXyXoXoXuXB.h.}.Z.M.M.M.M.c.h.{.Z.B.m.m.B.n.h.}.Z.M.M.M.M.c.h.}.Z.M.M.M.M.c.u.",
"Z.g.u.u.u.u.y.t.}.Z.M.M.M.M.c.h.}.Z.M.M.M.M.c.h.}.`.oXM.M.oXm.h.}.Z.M.M.M.M.c.g.c.g.u.u.u.u.y.t.}.Z.M.M.M.M.c.h.}.Z.M.M.M.M.c.u."
};
