/* XPM */
static char *piedd1695907595[] = {
/* columns rows colors chars-per-pixel */
"64 64 255 2 ",
"   c #0B0601",
".  c #170B05",
"X  c #1C0D04",
"o  c #1C130A",
"O  c #191409",
"+  c #060D15",
"@  c #191616",
"#  c #1C1B19",
"$  c #2E0F0E",
"%  c #261604",
"&  c #22140C",
"*  c #24190E",
"=  c #391509",
"-  c #261915",
";  c #1C291C",
":  c #2A2619",
">  c #362415",
",  c #101B23",
"<  c #2E1624",
"1  c #2A2525",
"2  c #372929",
"3  c #35352C",
"4  c #50170B",
"5  c #4A290C",
"6  c #472A17",
"7  c #542D15",
"8  c #47361C",
"9  c #672B1C",
"0  c #6D3010",
"q  c #77381B",
"w  c #511F2D",
"e  c #4F2D2B",
"r  c #4A3628",
"t  c #573A28",
"y  c #663827",
"u  c #71362B",
"i  c #364319",
"p  c #33482E",
"a  c #295738",
"s  c #396B29",
"d  c #3D782C",
"f  c #356F38",
"g  c #584B1D",
"h  c #5C521E",
"j  c #79441D",
"k  c #584726",
"l  c #5E5324",
"z  c #504D33",
"x  c #66492B",
"c  c #645927",
"v  c #674A37",
"b  c #7A4939",
"n  c #675937",
"m  c #765639",
"M  c #456B2A",
"N  c #596B36",
"B  c #4B7636",
"V  c #6A6027",
"C  c #6C632B",
"Z  c #72692D",
"A  c #6B6436",
"S  c #746A33",
"D  c #727337",
"F  c #37384C",
"G  c #374E48",
"H  c #316A43",
"J  c #3E4766",
"K  c #554C4D",
"L  c #734E49",
"P  c #6B5948",
"I  c #4D6C49",
"U  c #776647",
"Y  c #78714F",
"T  c #484B66",
"R  c #53566D",
"E  c #495473",
"W  c #665966",
"Q  c #5D657C",
"!  c #706971",
"~  c #853C32",
"^  c #904B1D",
"/  c #894927",
"(  c #984C28",
")  c #894538",
"_  c #915636",
"`  c #A7552D",
"'  c #AC5B34",
"]  c #B55D34",
"[  c #8C6D3C",
"{  c #9A6F35",
"}  c #986239",
"|  c #A56A3D",
" . c #B8673C",
".. c #AF733C",
"X. c #C7683A",
"o. c #C6703D",
"O. c #89514B",
"+. c #895948",
"@. c #985D46",
"#. c #A65C48",
"$. c #B15E4E",
"%. c #866746",
"&. c #9B6246",
"*. c #9D644B",
"=. c #96684B",
"-. c #866A59",
";. c #996756",
":. c #9A6A56",
">. c #907653",
",. c #A76847",
"<. c #A2654D",
"1. c #AD6B4C",
"2. c #B96541",
"3. c #BC6C44",
"4. c #B26D4D",
"5. c #B86849",
"6. c #AA7449",
"7. c #BD7143",
"8. c #B47449",
"9. c #BE724B",
"0. c #A56B52",
"q. c #AC6C53",
"w. c #A96958",
"e. c #B26D53",
"r. c #BC6C52",
"t. c #B46B59",
"y. c #AA7457",
"u. c #B47253",
"i. c #BA7454",
"p. c #B97B57",
"a. c #B5745A",
"s. c #B9755C",
"d. c #BB7A5C",
"f. c #8A7765",
"g. c #8D726C",
"h. c #B86961",
"j. c #A77969",
"k. c #B87565",
"l. c #BD7C62",
"z. c #C26D44",
"x. c #C26E49",
"c. c #C27345",
"v. c #C4744B",
"b. c #C9764B",
"n. c #C5794A",
"m. c #CA7B4C",
"M. c #D67549",
"N. c #C26D57",
"B. c #C67A52",
"V. c #CB7B54",
"C. c #C87858",
"Z. c #C26A64",
"A. c #C57A64",
"S. c #C77A71",
"D. c #468736",
"F. c #548C37",
"G. c #4D993A",
"H. c #639B3E",
"J. c #58A93B",
"K. c #6BB53A",
"L. c #6DC739",
"P. c #74CD36",
"I. c #77D438",
"U. c #7FE134",
"Y. c #3F8B47",
"T. c #478A48",
"R. c #528B48",
"E. c #4A9746",
"W. c #5B954E",
"Q. c #6C8C52",
"!. c #56AA45",
"~. c #57A44B",
"^. c #5BB748",
"/. c #6CAE4A",
"(. c #6A9E60",
"). c #67C847",
"_. c #62C44C",
"`. c #6ED142",
"'. c #71D241",
"]. c #81DC33",
"[. c #84E231",
"{. c #878452",
"}. c #988557",
"|. c #AD835B",
" X c #BA855B",
".X c #948A6E",
"XX c #968877",
"oX c #A78568",
"OX c #BA8566",
"+X c #B98869",
"@X c #A88976",
"#X c #B78A71",
"$X c #B58F7A",
"%X c #B49474",
"&X c #B9A77A",
"*X c #C9814C",
"=X c #C9835A",
"-X c #D3845C",
";X c #D58858",
":X c #C8935A",
">X c #D39A5E",
",X c #E2925D",
"<X c #C68868",
"1X c #D88660",
"2X c #D88B66",
"3X c #C6916E",
"4X c #CA936C",
"5X c #D49768",
"6X c #DA906A",
"7X c #CA8C72",
"8X c #D38D75",
"9X c #CD9572",
"0X c #CD9974",
"qX c #C79778",
"wX c #D19A75",
"eX c #D99679",
"rX c #D49C7A",
"tX c #E5936D",
"yX c #E49A6B",
"uX c #E79874",
"iX c #ED9C75",
"pX c #D5A36A",
"aX c #D9A478",
"sX c #ECA676",
"dX c #586582",
"fX c #6C7690",
"gX c #74839A",
"hX c #7D8DA8",
"jX c #9D8F8B",
"kX c #AD988B",
"lX c #B89884",
"zX c #B6A794",
"xX c #8291A8",
"cX c #8998B1",
"vX c #8EA0B9",
"bX c #94A5BE",
"nX c #D08E80",
"mX c #C79A85",
"MX c #DB9C82",
"NX c #D0A98D",
"BX c #E5A484",
"VX c #EAB892",
"CX c #CDBCA2",
"ZX c #E8C5B3",
"AX c #99AAC2",
"SX c #A9B9CE",
"DX c #B9C6D8",
"FX c #C5C7D1",
"GX c #CECFD5",
"HX c #C1CCDC",
"JX c #CDD6E2",
"KX c #D0D7E1",
"LX c #DDE1E6",
"PX c #EDEFF0",
"IX c #F6F5F3",
/* pixels */
"o 9Xc.1.<X2X-X@.& 9Xc.1.s.3.n.*.& <Xm.u.a.7.2.0.& 0Xn.4.u.3.9.@.% qXp.8.<X2X<X} & 0Xc.1.s.3.v.*.& <Xm.u.s.3.2.0.o 9Xc.4.0.n.2.1.",
". OX*Xd.<X2.B.<.& wXn.4.u.3.v.<.* 4Xm.i.l.B.9.0.o 9Xm.1.t.b.V.q.% 7XC.n.2Xr.C.&.& wXn.4.u.3.v.<.* 4Xb.u.l.C.9.0.o 0Xm.4.<.n.v.k.",
"o +X*XeX<X .3.q.& wXb.4.e.2.v.0.* 9Xb.u.l.1XV.<.X 0Xm.1.s.V.-Xy.% <XC.5X=X5.r.6.& wXn.4.q.3.n.0.* 9Xm.i.l.1XV.y.2 mX0Xp.u.;X-Xl.",
"& 9X9.uXu.V.3.<.& 9Xc.4.e.V.v.0.& 9Xn.4.l.tXV.*.* qX9.1.<X2X-X&.% 9Xv.5Xu.C.3.,.& 9Xc.4.e.V.v.0.& 9Xn.4.l.tX5XlXP .X-.@Xl.5X=Xq.",
". 0Xn.C.1.V.v.@.* 9X7.4.a.2XV.0.& 0Xc.u.s.uXV.*.: Q.R.>.d.V.V.@.% rXB.=X,.C.N.} - 9X3.4.a.2XB.0.& 0Xc.u.mXVXzXP 8 r r P $X<Xn.,.",
". 0X;X1.a.3.B.<.- 4X7.u.a.iXB.0.& wXc.u.s.tXV.*.: R.K./.}.2.v.0.O wX-X5.p.4.C.,.& 4X3.e.a.iXB.0.& wX<X@X@XXXP 6 5 5 5 r f. Xv.s.",
"O qX| 1.l.4.' 0.* 4Xc.u.a.iXn.0.& wXc.s.i.2Xx.0.: E.I.L.(.9.3.0.* qX| ,. X5.#.*.* 4Xc.u.a.iXb.0.: qX.XY K r > 6 5 5 5 5 k j.l.a.",
"@ #X0 u.y.i.q ;.& 9Xn.i.u.iX2.<.& wX2.i.4.-X3.<.3 R.P.L.(.:X5.&.* #X0 p.y.s.q =.& 9Xn.i.u.iX3.q.K f.U A l k r 8 5 5 5 5 6 P $Xy.",
"X >.OXOX XOXy. Xo rXc.1.u.iXb.<.- ;X3.k.A.2.<X2.3 R.^.I.I.W.+X=.% j.OX X|.+X|. XO rX7.1.t.iXm.#X.XN Z Z S S A l 6 5 5 6 > P zXOX",
"+ @ & % * O -   o 4Xn.1.u.-Xb.&.O ;Xn.b #.5.) _ 1 E.^.I.I.T.(.>.+ @ o X O   *   O 4X9.p.+XMXqX.XY C [ D S S D Z k 5 6 > 8 P CXOX",
"& L ) ~ ) O.$.) & OX;Xp.d.v.b.&.o sXx.t l.A.9 y.1 R.^.`.I.K.E.Y $ b ) U U U <.) & +X:X#X@X.Xf.U A S D [ S Z C Z c r 8 k 8 ! NXOX",
"X O.4 #.<Xw.q <.& <X;X2Xd.3.v.<., j 0 K y y v e : R.!._.P.[.G.>.$ +.y /.J.W.m 0.: oX@X.XY U A C S Z Z Z Z Z C C C l l l 8 XX&Xp.",
"@ XXy #.j.;.y ;.& 4X*XuXa.3.z.0.+ y 5 2 = 6 e & : M G.^.`.U.E.Y - @X~.I.P.^.I >.P jXY P A A Z Z C C C C C C Z C C C l k 8 XXzXp.",
"$ 8XtXx.2.N.8X$.& 0Xv.eXs.3.3.0., wX+.$ O.;.$ -.: M D.^._._.E.>.3 /.I.`.~.Q.OXk.jXY A g c c V C C C C Z C C C V V V h g k XXlXp.",
"% p.8.3.m.| m.^ o 0X .5X<X3.3.<.@ 5Xt.v @.a.O.<.: M G.^._._.Y.W.W.P.I.G.D [ v.6.zXz A c c h c C C C C C Z V V V h h h k z kX|.a.",
". NXk.5.s.w.a.t.& wX3.<X8X3.v.<.& ,Xb.7XC.] C.2.- {.F.G.^.E.Y.E.).P.J.D =.w.a.$XjXz c C c c g h h c h h l g g h h V c k r zXm 6.",
"X 9Xc.BXu.3.-X@.O sX4.0.v.n.e.#.& 9Xb.<X<X .3.@.- 6.B d T.a H !._.^.d qX1.n.<X@XXXz l C V C c l h h h h l l c c V l g k r zXf.=.",
". wXm.7Xq.b.iX0.: *X7.3X3.z.<X1.& 4Xc.=X8Xv.B.0.# 7 B f s s a E.^.G.M OX1.b.BX@XXXz l l V C C C C V V V V C C V c k 8 v P XXe X ",
"X 4Xc.sXs.v.-Xw.  yX3.u #.' u } - 4X3.u.BXb.{.W.T.(.E.Y.Y.!.f f d B 6.rX<X2.6X$XXXr k k c C V C C A C C C C c l k t P f..Xg.w +.",
"o 7X .BXd.3. .<.# BX<XL MX8X+.#X* 4Xc.8.BX}./.L.L.L.L.^.!.E.a I i |.3.BXl.3.3.j.XXP k t k k k l c l l l n l k k k P .Xf.:.:.L ;.",
". wXc.d.u.v.v.<., 0 b L b b L t X 4Xn.u.&X/.P.[.U.U.U.L.^.H a Y O aX7.<X4.v.v.0.! XXP v x x x x k x k k 8 x v v Y XX&XA.v.u.k.p.",
"X OX;X,.8X3.v.<., j 7 - = 4 $ = X 3X*X}./.I.'._._._._.^.G.s a U * %Xp.6.+X8.8.=.3 .Xg.f.U U U b m m m m m m +.Y g.$Xx.$.;XV.$.c.",
"O <Xn.p.BXb. .*.@ sX/ > b @.y @.o rX}./.I.`.)._._.J.J.D.d I H P p W.W.W.W.W.W.W.p eXj.XX.Xg.f.f.-.Y -.>.>.f.f.@Xt qXi.5.;X2XA. .",
". aX .4.l.tX3.0.& ;X3.;.<.s.*.<.* .X/.I.'.).^.^.J.M d Q.oX}.H I I ~.^.^.K.].P.P.H.Q.Q..XkXNXzXjXXXjXkXg.g.kX@XoX< qX4.A.yXC.<.8.",
". 0X7.p.s.sXV.#.X aX3.t.<X1X3.0.s (.).P.G.G.D.D.d Y [ }.MXv.%.I f D.G.G.K.P.I.[.P.!.R.{.+X=X<.j.K mX+X$X$X9XwX0.. 0Xm.i.MX9.2.d.",
". 4Xn.i.y.1Xb.1.& 9Xc.u.eXV.3.0.I ^.!.J.N N D N p 3Xn.8.eXb.i.P a B N N B G.!.^.P.K.Q.Q.qXV.3.0.* 3Xm.1.4.V.2X&.O 3Xc.u.aX9.3.t.",
"o 4Xb.e.q.7.3.w.- <Xn.u.MXx.3.0.* Q.M A 0.3.B.*.* 4Xc.4.7Xn.b.K p 3XB.y.%.M M M s D 9.u.MXx.3.0.& <Xb.4.<.3.V.&.@ 9Xc.4.9X9.9.t.",
"o 4Xb.4.a.2.n.1.* 4Xc.u.7X3.3.0.% 3X X+X<X-X2Xk.* 4Xc.1.l.z.b.I p 3Xm.1.y.| | =.> +Xc.u.7X3.3.0.* wX;X7X<X-X2Xk.o 0Xc.4.l.3.r.t.",
". 4Xb.4.l.B.V.<.o wXc.e.a.v.3.*.& wX;X<X8X-X;X X& 0X}.Y Q.Y Q.I p 4Xb.4.A.V.n.*.o wXc.u.a.v.3.*.& wX;X4X8X-X1Xl.o 0Xc.4.q.2.3.t.",
"  0X9.d.<X=XC.#.X rX7.4.<.v.v.*.o 4Xc.4.a.z. .>.p oX/.J.J.J.E.H a oX>.}.}.|.V.*.X rX7.4.<.v.v.*.& 4Xc.4.a.3.3.*.o 0Xc.u.q.7.v.t.",
"  aX7.6XOXv.v.*.o 9Xn.u.q.3.v.*.* wXc.4.l.b.p..XG.E.I.[.[.[.E.Y.H a T.E.G.Q.6.*.* qXn.u.q.3.v.<.- wXc.4.d.b.n.*.@ wXc.i.y.B.=Xt.",
". aXv.eXl.5. .0.* <Xm.u.l. .v.0.X 9Xc.u.7X-X{./.[.[.P.).`.).!.E.H f ^.I.[.P.F.R.i <Xb.e.l. .n.q.X 9Xc.u.7X-XV.0.o 4X .u.a.2X1Xt.",
"X MXr.tXV.N.#.5.* 4X .i.i.V.-X<.- 4XB.a.6..XK.I.'.L.^.^._._.J.D.f H E.).L.I.P.I.F.}. .9.i.V.-X<.- 4XB.t.6.sX5.| o 4XV.e...2XA.4.",
"  %Xp.7.2.4.C.| * wXc.e.p.2X-X<.o :X9.0.{.~.L.`._._.^.^.^.!.D.Y p a f !._.).I.I.L./.>.8.d.2X-X<.o :X9.w.9.sXN.,.O 4Xb.t...C.t.8.",
"X NX X3.9.p.6.,.& 9Xn.1.d.tXn.&.< :Xm.j.T._._._._._.^.!.Y.f N =.3 H I D.J._._._.I.P.H.>.p.tX9.&.> :Xb.S.,.tX2X} O 4XC.p.8.9.t.2.",
". qX/ ] 5.u.0 #.& 9Xn.,.d.iX2.*.X pX7.=.B !.J.G.G.G.J.D.M B 6.0.; I _ A D.!._.!.^.I.I.R.|.iX3.*.X pX3.w.p.=X5.| O 0XC.A.:Xv.e.8.",
"> kX@.8XnXmX;.qX& wXm.,.p.iXv.0.- :Xn.k.=.B d d d d s Q.qXu.3.*.p I @.qXY d J.J.J.^.).T.y.iXv.0.$ <Xb.k.1.v.A.,.O 9XN.C.5X9.t.8.",
"  e t x t t L 6 & 9Xc.1.a.2Xc.w.<  XV.k.,.=.=.%.3 }.{ 6.uXv.3.0.1 G t x k z d d d D.d d >.2Xc.0.1  XC.k.,.3.h.&.O 0X3.i.pXv.r.8.",
"  2 t 4 6 6 t = X 3Xc.p.u.m.n.*.  aX5.9 a.2.9 *.- wX3.u.MXv.c.0.; G 7 4 6 8 z i 3 D S S y.m.v.*.  aX2.9 a.2.9 *.O wXz.i.sXr.t.5.",
"X ;.) ~ t.k.@.q.& 6Xb.7Xa.3.n.=.1  Xr.O.&.e.) +.X wXu.y.mXe.1.@.3 G L O.;.g.=.=.& 9Xv.4Xi.3.n.*.1  X4.O.*.e.) +.X aXx.4.pX4.t.8.",
"o #.4 &.k.5.9 O.* wXn.uXa.9.2.0.+ 6 $ < o < < . # 8XW T T T T G G J J T T T K O.< 0Xm.eXs.9.2.0.+ 6 $ < $ < < X & 3X<Xu.2.l.;.5.",
"+ eX8.y.d.5.} l.* <Xc.BXq.3.B.*.< #Xb e v L w L F W O.) t y O.z K _ _ y e y e K F :.v.BXq.3.B.*.< #Xb e y L w x % <X4.A.z.2.#Xx.",
"  eXC.=.s.z.p.w.% 5X9.uXd.3.V.<.X 0X_ 9 _ $.u Q fXK ( ( / ^ X.n z / ' ( ( ` / t Q ! +.eXd.3.B.<.. 0X_ 9 _ #.u } % eXm.u.M.,.k.z.",
"& 2X7.,.A.z.p.#.X BX..3X3X2.3.0.% 5XB.a.| A.W Q g./ ] X.X.] X.n 3 ^  .X.M.X.' / ;.fXW <X<X3.3.1.& 5XB.a.} S.Z.8.X 4XOXu 2.0.b ' ",
"X eXm.<XN.] 8.q.% wXo.=Xl.3.v.<.&  XC.7X5.x.g.! 1.] M.M.X.' ' n z ] X.M.X.] ] ' ,.-.fXd.l.2.v.<.*  XC.7X8.x.Z.} 2 +XoXL a.j.O.w.",
"  eXm.aXr.z.:Xe.-  Xn.C.q.r.V.*.- 9XC.<X4Xr.g.fXjX2.] ( q q ' z z ] M.( q ^ M.2.j.xX! C.q.9.=X#.* 9XC.<X4XN.t.6.  v 4 6 7 > 2 5 ",
"  eXn.aXA.C.rXr.* <Xn.*.0.i. .;.o 3Xr.q.yXN.fXfXAXzXO.^ `  .M.j g ^ / q 9 q  .mXAXxXfX@.0.i.,.;.& 7Xt.q.pX5.t.6.@ =.w 6 9 w 2 9 ",
"o 4X7.aXN.' =X#.X NX6.0 k.4.0 :.- <XC.i.sXZ.g.fXAXDXkXlX3X' ` ` ` ( ( ( <.$XNXFXSXxX! u k.4.0 ;.* 7XC.i.sXN.A.} - 0X+.= b j.> <.",
". 4Xb.2Xq.9.3.q.: {  Xj.oX|.%X|.X rXc.4.BXv.! fXAXSXPXIXGX%.%.C.uXtXtX6XZXIXIXHXAXhXQ j.oX|.#Xp.X rXc.4.BXv.3.@.@ 5X3.#.1. .r.u.",
"O 3Xn.<XOX9.3.q.+ 5 4 < % = 4 $ o 9X3.u.eXv.g.fXAXAXDXHXKXPXPXIXIXIXIXIXLXHXDXAXbXhXQ w % $ 4 X X 9Xc.u.MXv.v.q.O 5Xv.t. Xv.r.1.",
"o 9Xc.i.9Xv.z.<.F @Xq w P b e L & 9Xc.u.<X2.W Q hXAXAXSXJXJXJXKXJXJXJXJXJXDXAXbXcXfXT e L b e L & 9Xc.u.<X2.v.<.@ 5Xv.k.4XB.N.q.",
". wXz.4.9X-X9.<.  4X/ y _ ,.q +.& 9Xc.u.l.x.l.! dXhXAXSXDXJXDXHXHXDXJXDXDXDXbXcXfX! L t _ ,.u %.& 9Xc.u.s.x.-X*.@ 6Xx.k.4XB.N.4.",
"  NX .8.OXuXv.<.& >X*Xl.,.=XV.| X 9Xc.u.h.1XiX-.E fXvXAXDXDXDXHXHXHXHXDXSXSXbXhXE ! *Xd.6.;XV.| X 9Xc.u.a.-XiXy.@ 5Xz.k.5XB.i.4.",
"  BXz.e.a.eXC.<.- =X3.S.OXb.N.,.X rXc.u.t.1XiX-.E fXcXAXvXAXDXDXDXDXDXAXbXbXvXgXE f.3.S.<Xb.N.,.X rXc.u.t.1XiX0.O 4Xv.A.5XB.r.1.",
". rX9.i.y.V.n.<.- rX3.h.BXB.5.w.& rX7.i.q.v.V.*.2 R fXhXAXbXbXbXbXbXAXbXbXvXgXE F 0X3.h.BXV.5.q.& rX3.i.q.n.V.@.@ 4Xn.k.4X9.r.e.",
"O <Xn.i.a. .v.1.O pX*Xu.>Xo.9.} X 0X .p.e.3.9.0.1 T E fXhXhXhXhXxXxXxXxXcXgXE J 1 pX*Xu.>X .9.} X wX .p.e.3.v.0.@ 4Xz.u. X2.5.i.",
". 0Xr.;.:X2XS.} @ 9Xc.4.d.2.v.<.& 4Xc.i.e.x. .0.- T E E dXQ Q Q dXdXQ dXdXdXE J 3 qXv.4.d.2.v.<.& 4Xc.i.e.9. .0.o 9Xc.4.<.n.3.1.",
"O <XV.C.>X9.Z.| & 9Xc.u.a.2.v.0.* 9Xn.i.a.V.3.<.- E dXE F W W R F W W W T J dXJ 2 9Xx.u.a.2.v.0.* 9Xn.i.a.V.3.0.o 0Xm.4.0.c.v.k.",
". +X1X2X8. .Z.} & 9Xn.e.e.3.9.0.* 9Xn.u.l.2XV.<.1 R Q R W <X-Xj.: <XV.;X-.E fXJ 2 qXn.u.t.3.9.0.* 9Xn.u.l.1XB.<.o 0Xb.4.y.;X-Xl.",
"& 4XC.BX..C.h.| & 9Xc.4.e.V.v.0.& 9Xc.u.l.tXV.*.o #Xp.:.k.6XV.*.% 9Xb.sX6.k.l.%.* 9Xc.4.e.V.v.0.& 9Xc.u.l.tXV.*.o 4Xz.4.d.5XV.q.",
"&  XN.8X..5.Z.,.* 9X7.4.a.1XV.0.& 9Xc.4.l.tXV.&.* 3Xm.1.d.-Xn.@.% OXz.5X4.N.B.,.* 9X3.4.a.2XV.0.& 9Xc.4.l.tXV.*.@ 4Xc.4.s.-Xn.1.",
"  4X<X<...5.S.} * 9X7.4.a.iXV.0.& wXn.u.l.tXV.*.& 9XV.e.q.5.3.0.. 0XV.| 6.5.A.&.* 9X7.4.a.iXV.0.& 9Xm.i.l.tXV.*.o 9Xm.i.<.7.3.s.",
". BXs.*.p.C.h.} & 9Xn.u.s.sXb.<.& 9Xn.u.a.1Xb.<.* 0Xn.d.l. .b.0.O NX9.| s.N.<.*.* 9Xb.u.a.sXv.<.& 9Xv.u.a.;Xn.<.o 9Xm.C.s.7. .s.",
"@ oX4 w.8.#.4 } & 9Xb.u.t.iXn.*.& 9Xc.u.u.V.2.<.& wX .<XeXv.v.@.& #X4 6.p.#.4 *.* 4Xm.u.t.iXv.*.& 9Xc.u.u.V.7.<.* <Xz.<X7XV.3.q."
};
