/* XPM */
static const char *cGllZGRk[] = {
/* columns rows colors chars-per-pixel */
"64 64 252 2 ",
"   c #0B0601",
".  c #130B02",
"X  c #1C0D04",
"o  c #1B0A08",
"O  c #1C130A",
"+  c #191409",
"@  c #060D15",
"#  c #191616",
"$  c #1A1918",
"%  c #2F0E09",
"&  c #271604",
"*  c #22140C",
"=  c #24190E",
"-  c #261915",
";  c #381918",
":  c #2B2519",
">  c #3A2715",
",  c #3B2811",
"<  c #0F1B22",
"1  c #2E1624",
"2  c #1B2722",
"3  c #2A2525",
"4  c #372929",
"5  c #383824",
"6  c #312E32",
"7  c #50170B",
"8  c #4B2A0C",
"9  c #462A16",
"0  c #4E3016",
"q  c #6C2F10",
"w  c #672B1C",
"e  c #77381B",
"r  c #511F2D",
"t  c #4B302A",
"y  c #573B27",
"u  c #663827",
"i  c #71362B",
"p  c #364219",
"a  c #32482E",
"s  c #295738",
"d  c #396B29",
"f  c #3D782C",
"g  c #356F38",
"h  c #564B19",
"j  c #574D1D",
"k  c #79441D",
"l  c #564726",
"z  c #5E5228",
"x  c #4E4D34",
"c  c #584736",
"v  c #68472A",
"b  c #645B28",
"n  c #6E4D38",
"m  c #794938",
"M  c #655835",
"N  c #456B2A",
"B  c #596B36",
"V  c #4B7636",
"C  c #67602B",
"Z  c #6D642B",
"A  c #6C6534",
"S  c #6D6F35",
"D  c #756A35",
"F  c #7B7334",
"G  c #37384C",
"H  c #374E48",
"J  c #316A43",
"K  c #3E4766",
"L  c #544C4E",
"P  c #685947",
"I  c #755149",
"U  c #4D6C49",
"Y  c #736D4A",
"T  c #776656",
"R  c #484B66",
"E  c #53566D",
"W  c #495473",
"Q  c #665966",
"!  c #5D657C",
"~  c #6F6972",
"^  c #853C32",
"/  c #914D1C",
"(  c #894928",
")  c #984C28",
"_  c #894538",
"`  c #915636",
"'  c #A7552D",
"]  c #AC5B34",
"[  c #B55D34",
"{  c #9A6F35",
"}  c #986239",
"|  c #88723B",
" . c #A56A3D",
".. c #B8673C",
"X. c #AF733C",
"o. c #C7683A",
"O. c #C6703D",
"+. c #89514B",
"@. c #895948",
"#. c #985D46",
"$. c #A65C48",
"%. c #B15E4E",
"&. c #876646",
"*. c #9B6246",
"=. c #9D644B",
"-. c #96684C",
";. c #996756",
":. c #976A56",
">. c #8E7352",
",. c #A76847",
"<. c #A2654D",
"1. c #AD6B4C",
"2. c #B96541",
"3. c #BC6C44",
"4. c #B26D4D",
"5. c #B86849",
"6. c #AA7449",
"7. c #BD7143",
"8. c #B47449",
"9. c #BE724B",
"0. c #A56B52",
"q. c #AC6C53",
"w. c #A96958",
"e. c #B26D53",
"r. c #BC6C52",
"t. c #B56B59",
"y. c #AA7458",
"u. c #B47253",
"i. c #BA7454",
"p. c #B97B56",
"a. c #B5745A",
"s. c #B9755C",
"d. c #BB7A5C",
"f. c #89706B",
"g. c #B86961",
"h. c #A97869",
"j. c #B87565",
"k. c #BD7C62",
"l. c #C26D46",
"z. c #C27345",
"x. c #C4744B",
"c. c #C9764B",
"v. c #C5794A",
"b. c #CA7B4C",
"n. c #D67549",
"m. c #C26D57",
"M. c #C67A52",
"N. c #CB7B54",
"B. c #C87858",
"V. c #C26A64",
"C. c #C57964",
"Z. c #C77A71",
"A. c #468736",
"S. c #548C37",
"D. c #4D993A",
"F. c #639B3E",
"G. c #58A93B",
"H. c #6BB53A",
"J. c #6DC739",
"K. c #74CD36",
"L. c #77D438",
"P. c #3F8B47",
"I. c #478B48",
"U. c #528B48",
"Y. c #4A9746",
"T. c #5B954E",
"R. c #6D8B51",
"E. c #56AA45",
"W. c #57A34A",
"Q. c #5BB748",
"!. c #6CAE4A",
"~. c #6A9E60",
"^. c #67C847",
"/. c #62C44C",
"(. c #6ED142",
"). c #71D241",
"_. c #81DC33",
"`. c #84E231",
"'. c #878452",
"]. c #988557",
"[. c #AD835B",
"{. c #BA855B",
"}. c #948E69",
"|. c #978878",
" X c #BA8566",
".X c #B98867",
"XX c #AD8D70",
"oX c #B78A71",
"OX c #B9A77A",
"+X c #C9814C",
"@X c #C9835A",
"#X c #D3845C",
"$X c #D58858",
"%X c #C8935A",
"&X c #D39A5E",
"*X c #E2925D",
"=X c #C68868",
"-X c #D88660",
";X c #DC8B64",
":X c #D48B6A",
">X c #C4936E",
",X c #CA936C",
"<X c #D49768",
"1X c #CA8C72",
"2X c #D38D75",
"3X c #C69677",
"4X c #CD9572",
"5X c #CD9974",
"6X c #D19A75",
"7X c #D99679",
"8X c #D49C7A",
"9X c #E5936D",
"0X c #E39A6B",
"qX c #E79874",
"wX c #ED9C75",
"eX c #D5A36A",
"rX c #D9A478",
"tX c #E6A772",
"yX c #F3A47A",
"uX c #586582",
"iX c #6C7690",
"pX c #74839A",
"aX c #7D8DA8",
"sX c #9C938A",
"dX c #A49889",
"fX c #B49989",
"gX c #B3AD96",
"hX c #B4A898",
"jX c #8291A8",
"kX c #8998B1",
"lX c #8EA0B9",
"zX c #94A5BE",
"xX c #AEA6AD",
"cX c #CA9983",
"vX c #DB9C82",
"bX c #C9A88D",
"nX c #D0AB8F",
"mX c #E5A484",
"MX c #ECB58F",
"NX c #CAB1A0",
"BX c #DBC8AE",
"VX c #99AAC2",
"CX c #A9B9CE",
"ZX c #B9C6D8",
"AX c #D5CFC8",
"SX c #C5C7D1",
"DX c #C1CCDC",
"FX c #CDD6E2",
"GX c #D0D7E1",
"HX c #DDE1E6",
"JX c #EDEFF0",
"KX c #F6F5F3",
/* pixels */
"O 4Xz.1.=X;X#X#.* 5Xz.1.s.3.x.=.* =Xb.u.s.3.2.0.* 5Xv.1.u.3.9.#.& 3Xi.8.=X:X=X} * 5Xz.1.s.3.x.=.* =Xb.u.s.3.2.0.O 4Xz.4.0.x.3.1.",
".  X@Xd.=X3.M.<.* 6Xv.4.u.3.x.<.= ,Xb.u.k.M.9.0.o 6Xb.1.e.x.N.q.& 1XN.+X=Xr.B.,.* 6Xv.4.u.3.x.<.= ,Xb.u.k.B.9.0.4 oX3XcXa.x.x.j.",
"O =X+X7X=X..3.q.* 6Xv.4.q.3.x.0.= 4Xb.u.k.-XN.<.o 6Xb.1.s.N.#Xy.& =XN.<X@X5.r.6.* 6Xv.4.q.3.x.0.= 4Xb.u.k.-XM.oXgXT T P XX$X#Xk.",
"* ,Xz.7Xu.N.3.<.* 4Xz.4.e.N.x.0.* 4Xv.4.k.9XN.=.* 3X9.1.=X;X#X*.& 4Xx.<X8.B.9.,.* 4Xz.4.e.N.x.0.* 4Xv.4.k.MXBXhXc , 9 9 c bX@Xq.",
". 5Xv.@X1.N.x.#.= 4X7.4.a.;XM.0.* 5Xz.u.d.qXN.=.: R.U.>.k.N.N.#.& 8XB.@X,.B.M.} = 4X7.4.a.;XM.0.* 5XM.oXfX|.T 9 9 0 8 8 9 f..Xq.",
". 5X$X1.a.3.M.<.= ,X7.u.a.wXM.0.* 6Xz.u.s.9XN.=.: U.H.!.'.2.x.0.O 8X#X,.p.5.B.,.= ,X3.e.a.wXM.0.* 6X.X|.T t ; 9 8 8 8 8 8 9 }.oX",
"+ 3X .q.k.2.] 0.= ,Xz.u.a.wXx.0.* 6Xz.s.u.;Xx.0.: U.L.J.~.9.3.0.= 3X,.,.{.5.$.0.= ,Xz.u.a.wXx.0.- bXT M z b M l 0 8 8 8 0 > P bX",
"# oXq a.y.i.e ;.* 4Xv.i.u.wX3.<.* 5X3.i.1.#X3.<.: U.K.J.~.{.3.*.- oXq p.y.s.e -.* 4Xv.i.u.wX3.<.T gXx F F F F | M 9 8 8 9 > P BX",
"X >. X X{. X[.{.O 8Xz.1.u.wXc.<.- $X3.j.B.2.=X,.6 U.Q.L.L.T. X=.& h. X{.[. X[.{.O 8X7.1. XmXnXNX}.l D F F D Z Z F z , , 9 y T BX",
"@ @ = & - + -   O ,Xv.4.a.-Xx.*.O $Xx.m $.r._ ` : U.Q.L.L.I.R.>.@ # O X = . =   O ,Xv.y.XXXXT M z D F D F F Z Z Z Z l y M 9 |.bX",
"* I _ ^ _ +.%._ * =X$Xp.d.x.x.*.O tXi.y k.C.w y.: U.Q.(.L.H.Y.>.* I _ Y Y Y <._ *  X}.dXf.P A D D D Z Z Z Z Z Z Z Z Z b b , dXOX",
"X @.7 $.C.w.e <.* =X$X:Xd.3.x.<.@ k q L u u n 0 : U.E./.(.`.Y.>.% @.v !.E.T.n <.: dXdXP j A D Z Z Z Z Z Z Z Z Z Z Z Z b h t dXcX",
"# |.u =.h.;.u ;.* ,X+XqXa.3.l.0.@ q 8 4 % 9 t = : N D.Q.(._.Y.Y 1 }.W.L.L.Q.U :.* AXt D j b b b Z Z Z Z Z Z Z Z Z b b h l c dX3X",
"X vX9Xl.2.m.2X5.* 5Xz.7Xs.3.3.0.< 8X@.* @.;.; @.: N D.Q./.^.Y.>.5 !._.).E.R. X5.4 AXx A b j j j Z Z Z Z Z Z b b b h j b z c hX X",
"& [.8...b. .v./ O 6X..:X=X3.l.<.# <Xu.n #.i.+.<.: N D.Q././.Y.T.F.L.K.D.S } x./ L hXc b Z Z Z j h h j j h h h h j b C b y 5 BXu.",
". nXj.5.s.w.t.t.* 6X7.@X2X3.x.<.* *Xc.1XB.[ N...- '.S.D.E.Y.I.Y.^.L.G.S -.t.s.u.T sXc z Z Z Z Z Z b b b b b A Z Z Z z 0 c c gXq.",
"X 4Xz.mXe.3.#X#.+ yX2.0.x.c.e.$.* 4Xv.=X=X..3.*.- 6.B A.A.s J E./.E.d 3X1.x.#X#.L hXt l z b Z Z Z Z Z Z Z Z Z Z b l y y P |.|.-.",
". 6Xb.=X1.x.wX0.: +X7.1X3.l.=X1.* ,Xz.@X2Xx.N.0.# 0 V g d d s Y.Q.D.N .X1.x.yX<.x dXy l y l b Z C b Z Z Z Z b z l y y f.sXL ; X ",
"X ,Xz.tXd.x.#Xq.. 0X7.i ,.] i ` - ,X7.u.mXx.].T.I.~.Y.P.I.E.J g f V 6.7X=X3.;X0.. fXdXy y y 9 9 y l l l l z l y y c |.|.&.T r @.",
"O 4X..mXd.3...<.# MX=Xn vX2X@.oX= ,Xz.8.mX].!.J.J.J.J.Q.E.Y.s U p ]...mXk.3.3.=.# >XNXf.T &.-.>.n v n n l 9 I I P dX|.w ` ;.I =.",
". 6Xz.d.u.x.x.<.< q m P m m P y X ,Xv.y.OX!.K.`.`.`.`.K.E.g s T O 8X7.=X1.x.x.<.< q I sXdXT l y &.&.n n &.[.n >.|.|. XC.9.u.j.p.",
"X =X@X,.2X3.x.<.< k 0 - % 7 % % X 4Xv.].W.L.)./.^././.E.A.d s &.- oXp.6. X8.8.-.2 k 0 t T dXAXAXsXf.sXdXf.T hX|.T .X9.2.$XN.%.7.",
"O =Xv.i.mXx...<.# tX( ; m #.u #.* 6X].!._.(.^././.E.E.A.f I.J P a T.T.T.T.T.T.T.a tX( ; m y.n T T NXfXXXbXcXoX>.% 5Xi.5.$X:XC...",
". rX..8.k.9X3.0.= $X2.;.<.B.=.$.= }.!.L.)./.Q.E.G.f f Y XX].J U V W.Q.Q.^.L.L.L.S.R.R.:.<.i.=.$.* 5X..0.u.N.;Xq.* 3X8.B.0XB.<.8.",
". 5Xz.u.a.yXN.$.X rX3.u.=X-X3.0.a ~.^.K.D.D.A.A.V Y | 6.vXx.&.U g A.D.D.H.L.L.L.J.E.U.'. X-X3.0.X ,Xb.u.a.9XyX0.+ 4Xb.u.vX9.3.s.",
"+ 4Xc.i.q.-Xx.1.* 6Xz.u.7XN.3.0.U W.E.W.B B B B a >Xv.u.7XB.9.P s B B B V D.E.E.J.H.R.R.3XN.3.0.- 4Xb.1.1.N.;X*.O 4Xc.u.8X9.3.t.",
"O ,Xc.e.q.7.3.q.= =Xv.u.vXl.3.0.: Y N S 0.3.M.*.- ,Xz.4.1Xx.x.P a =Xb.u.Y N N N d Y v.u.7Xl.3.0.* =Xv.1.<.3.N.#.O 4Xz.4.1X9.9.t.",
"O ,Xc.4.a.3.x.1.= ,Xz.u.1X3.3.0.* >X{. X=X#X;Xj.= ,Xz.1.k.l.x.U a =Xb.1.q.,.,.-.: .Xz.u.1X3.3.0.* 6X$X=X=X#X;Xj.O 4Xz.4.k.3.9.t.",
". 4Xc.4.k.M.N.<.O 6Xz.e.a.x.3.=.* 6X$X=X2X#X-Xk.* 5X].R.R.Y R.U a ,Xv.4.C.N.x.=.O 6Xz.u.a.x.3.=.* 6X$X=X2X#X-Xk.O 5Xz.4.q.2.9.e.",
". 5Xz.d.=X@XN.$.X 8X7.4.<.x.x.=.O ,Xz.4.a.3.3.-.5 }.!.G.G.G.I.J s }.].].].[.N.=.X 8X7.4.<.x.x.=.* ,Xz.8.a.3.3.=.O 5Xz.e.q.7.x.t.",
". 8Xz.:X Xx.x.<.O 4Xv.u.q.3.x.<.= 6Xz.4.k.x.M.}.Y.D.L.`.`.L.Y.P.J s I.Y.Y.R.6.-.* 4Xv.u.q.3.x.<.- 6Xz.4.k.x.x.=.O 5Xz.i.q.M.N.t.",
". rXz.7Xk.2...0.= =Xb.u.k...x.0.X 4Xz.u.1X#X'.!.`.`.(.^.^.^.E.Y.J s Q.L.`.K.U.U.p =Xb.u.k...x.0.X 4Xz.u.1X#XN.0.O 4X..i.a.:X#Xt.",
"X cXr.qXB.m.$.5.* ,X..i.u.N.#X<.- ,XM.t.6.}.H.L.(.(.Q.Q././.E.A.g J Y.^.(.K.K.K.S.]...i.u.N.#X<.- ,XM.t.6.yX5. .O ,XB.e.X.:XC.8.",
"  oXp.7.2.8.{.,.= 6Xz.u.d.;X#X<.o %X9.w.'.W.J.)././.Q.Q.Q.W.A.S a J g E.Q.^.L.L.J.!.>.u.d.;X#X<.o %X9.w.8.yXM. .+ =XB.e.X.B.t.8.",
"O nX{...9.p.6.,.* 4Xv.1.d.9Xx.*.; %Xc.h.A.Q./.Q.Q.Q.Q.E.A.V B >.5 J B S.E././.Q.L.K.F.>.d.9Xx.*.; %Xc.Z.,.9X:X} + ,XB.d.8.9.t.8.",
". 3X( [ 5.e.q ,.* 4Xv.,.d.wX3.=.o eX3.:.V Q.E.D.D.D.D.A.N B ,.0.3 U ` A A.E.Q.E.Q.K.L.U.y.wX3.=.o eX3.w.p.$X5. .O 5XB.C.%X9.t.8.",
"> fX#.2XcXcX;.3X* 6Xb.,.d.wXx.0.= %Xx.j.-.B d d d d d '.3X8.3.<.5 U #.3X'.V E.E.E.Q.^.I.y.wXx.0.= %Xx.j.,.x.C.,.O ,Xm.B.<X9.t.8.",
"  t y v y y n 9 * 4Xv.1.a.;Xz.0.3 {.N.j.,.-.:.Y 5 ].{ y.7Xx.3.0.3 s y v l j f f f A.A.f >.;Xz.0.3 {.N.j.,.5.V.*.O 5X9.i.eX9.t.8.",
"  5 y 7 9 9 y % X ,Xz.d.u.b.x.=.. rX2.u a.2.w =.= 6X..u.vXx.z.0.2 s y 8 9 9 l p p Y D D 0.b.x.=.. rX2.u a.2.w =.O 6Xl.i.tX9.g.8.",
"X ;._ ^ t.j.#.q.* 4Xv.=Xa.3.x.=.3 {.4.+.*.e._ @.X 6X8.y.cXe.1.-.6 H I +.;.f.-.0.* 4Xv.=Xa.3.x.=.3 {.4.+.*.e._ @.+ rXl.u.eX4.g.8.",
"+ <.7 -.j.5.q +.- 5Xv.7Xa.9.2.0.@ 9 ; 1 O 1 1 + $ ,XQ R R R R H H R R R R R L @.- 4Xv.7Xa.9.2.0.@ 9 ; 1 O 1 1 + * =XC.s.2.C.;.5.",
"+ 7X8.y.j.5.} j.= =Xz.mXq.3.M.=.3 oXm t n I r n G Q @.m y u ` x x #.` i y y y L G f.z.mXq.3.M.=.3 oXm t n I r v & =X4.C.l.2.oXl.",
"  7X@X-.s.3.p.w.& <Xz.qXd.3.M.<.X 6X` w ` $.i ~ uXL ` ' ( ) o.M x ( [ ) ) ' ( y ! ~ @.7Xd.3.M.<.X 6X` w ` $.i } & 7XM.e.n.,.j.l.",
"O :X7.,.C.l.p.$.X mXO.=X=X3.3.0.& <XM.a. .C.Q ! f.( [ o.o.[ O.M x ( ..o.o.o.[ ( f.iXQ =X=X3.3.0.& <XM.a. .C.V.8.X ,X Xi 2.0.m ] ",
"+ 7Xb.=Xm.[ 8.1.& 6XO.@Xk.3.x.<.* {.B.1X8.m.f.~ ,.[ O.n.o.] [ x x [ n.n...] [ [ ..f.~  Xk.3.x.<.* {.B.1X8.m.V.} 4 oXXXI a.h.T q.",
"  7Xb.rXr.l.%Xe.- {.v.B.q.9.@X=.- 4XB.=X,Xr.f.iXsX..[ ) e e ' x x [ n.) e ( n...|.jX~ k.q.9.@X=.- 4XB.=X,Xr.g.6.  v 9 9 0 ; 4 8 ",
". 7Xv.rXB.N.rXt.- =Xx.*.0.i.,.;.O ,Xr.q.eXr.f.iXzXhX@.( ' ..O.( y ( ( e w e ..fXxXaX~ =.0.i.,.;.O ,Xr.q.eXr.g.6.# -.t t w t 4 q ",
"+ =X7.rXr.] @X$.. nX8.q j.4.q ;.- 1XB.i.tXM.f.iXVXZXhXfX4X] ' ' ) ) ) ) 0.fXnXSXCXaX~ u j.4.q ;.- =XB.i.tXM.C.} = 5X@.% m h.; *.",
". 4Xc.:Xq.9.3.q.: { {.h.[.[.oX[.X 8Xz.1.mXx.f.iXVXZXJXKXAX&.@.=X9X9X9X9XBXKXJXDXCXaX~ h.[.[.oX[.X 8Xz.1.mXx.3.#.# <X3.$.6...r.u.",
"+ ,Xc.=X X9.3.q.@ 8 7 1 & % 7 X o 4X7.u.vXx.f.iXzXVXZXDXGXJXJXKXKXKXKXKXHXDXZXVXVXaXE 4 & % 7 X o 4X7.u.vXx.x.0.+ <Xx.t.{.9.r.4.",
"O 4Xz.i.4X9.3.1.G XXi r P m t P * 4Xz.u.=X2.T uXjXzXVXCXDXFXFXFXFXFXFXFXFXZXVXVXkXiXR r P m t P * 4Xz.u.=X2.x.<.# <Xc.j.,XM.m.1.",
"+ 8Xl.4.4X-X9.<.  eX( u ` ,.i &.* 4Xz.u.s.l.j.~ uXjXlXCXDXDXZXZXZXZXDXDXDXZXzXkXiX~ I u ` ,.i &.* 4Xz.u.s.l.#X=.# <Xl.j.,XM.m.4.",
"  nX..4. XqXx.<.* &X+Xk.6.$XN. .X 4Xz.u.a.-XwXf.W pXlXCXCXZXZXDXDXDXDXZXCXCXzXaXW T +Xk.6.$XN. .X 4Xz.u.a.-XwXy.# ,Xl.j.,XM.r.4.",
"  nXl.e.a.7XN.<.- @X3.Z.=XB.m.,.X 8Xz.u.e.-XwXf.R iXkXzXzXVXZXZXZXZXZXVXzXzXlXpXW f.3.Z.=XB.m.,.X 8Xz.u.e.-XwX0.+ ,Xx.C.<XM.r.1.",
". 8Xz.i.q.N.x.<.- 6X3.g.mXN.5.q.* 8X7.u.q.x.N.*.4 E iXkXzXzXVXVXVXVXVXzXzXlXpXW G 5X3.g.mXN.5.q.* 8X7.u.q.x.N.*.# ,Xx.j.,Xz.r.e.",
"O =Xc.i.a...x.1.+ eX+Xu.&XO.9.} o 6X..p.e.3.9.0.3 R W iXjXjXjXjXjXjXjXjXjXpXW K 6 eX+Xu.&XO.9.} o 6X..p.e.3.9.0.# ,Xl.t.{.2.5.i.",
". 5Xr.<.%X:XZ.} = 4Xz.4.d.2.x.<.* ,Xz.i.e.l...0.- R W ! uXuXuXuXuXuXuXuXuXuXW K 6 4Xz.4.d.2.x.<.* ,Xz.i.e.l...0.O 4Xz.4.0.x.3.1.",
"O =XN.B.&Xr.V. .* 4Xz.u.a.2.x.0.= 4Xv.i.a.N.3.0.- W uXW K Q Q E G Q Q Q E W uXR 6 4Xz.u.a.2.x.0.= 4Xv.i.a.N.3.0.O 5Xb.4.0.x.x.j.",
". =X#X:X8.2.V.} * 4Xv.e.e.3.9.0.= 4Xv.u.k.;XM.<.: E ! E L =X#Xy.= =XN.$X>.E uXR 6 4Xv.u.e.3.9.0.= 4Xv.u.k.;XM.<.O 5Xc.4.q.$X#Xk.",
"* ,XN.mXX.B.V. .* 4Xz.4.e.N.x.0.* 4Xz.u.k.9XN.=.* oXp.;.j.9XN.=.& 4Xx.tX6.j.s.&.- 4Xz.4.e.N.x.0.* 4Xz.u.k.9XN.=.O ,Xl.4.d.<X@Xq.",
"* {.m.2XX.9.V. .= 4X7.4.a.;XN.0.* 4Xz.4.k.9XN.*.= =Xb.1.d.#Xx.*.&  X3.<X8.m.M.,.= 4X7.4.a.;XN.0.* 4Xz.4.k.9XN.*.O ,Xz.4.a.#Xx.1.",
"  ,X=X<.X.5.Z.} = 4X7.4.a.wXN.0.* 6Xv.u.k.9XN.=.* 4XN.u.e.3.3.0.. 3X@X .6.5.C.*.= 4X7.4.a.wXN.0.* 6Xv.u.k.9XN.=.O 4Xb.i.0.7.3.s.",
". mXs.=.8.B.g.} * 4Xv.u.a.yXx.<.* 4Xv.u.a.-Xx.<.* 5Xv.d.k...x.0.+ nXi. .p.V.1.=.* 4Xv.u.a.yXx.<.* 4Xv.u.a.-Xx.<.O ,Xb.B.a.7...s.",
"# XX7 w.8.$.7 } * 4Xb.u.e.wXx.=.* 4Xz.u.u.N.3.<.* 4X..=X7Xx.x.#.= oX7 6.p.$.7 -.* 4Xb.u.e.wXx.=.* 4Xz.u.u.N.3.<.- =Xl.=X1X@X3.q."
};
