/* XPM */
static char *_1c1205ac750419cbe931962041ae70bwC0mhZDIhz4DNmc5[] = {
/* columns rows colors chars-per-pixel */
"64 64 236 2 ",
"   c #0A0300",
".  c #0C0A04",
"X  c #160402",
"o  c #130B02",
"O  c #1C0D04",
"+  c #1D0D0A",
"@  c #161104",
"#  c #1C1404",
"$  c #15110E",
"%  c #1C130A",
"&  c #1C190C",
"*  c #030813",
"=  c #0B1619",
"-  c #191615",
";  c #1D1C1B",
":  c #260803",
">  c #360C0A",
",  c #241503",
"<  c #2A1805",
"1  c #22140C",
"2  c #24190E",
"3  c #391509",
"4  c #250B11",
"5  c #251517",
"6  c #241A12",
"7  c #2A1B13",
"8  c #381918",
"9  c #282218",
"0  c #0D1921",
"q  c #161F26",
"w  c #2E1823",
"e  c #192123",
"r  c #2A2226",
"t  c #392829",
"y  c #3C3227",
"u  c #48190A",
"i  c #5B1701",
"p  c #4A1816",
"a  c #47291A",
"s  c #522810",
"d  c #672A1D",
"f  c #722E10",
"g  c #693517",
"h  c #511F2D",
"j  c #462C2A",
"k  c #562A26",
"l  c #583829",
"z  c #6D2C2B",
"x  c #663727",
"c  c #773B28",
"v  c #79441D",
"b  c #6A472C",
"n  c #684839",
"m  c #7A4939",
"M  c #2E2A43",
"N  c #5D4A43",
"B  c #794845",
"V  c #6F524D",
"C  c #6E6555",
"Z  c #853C32",
"A  c #96531B",
"S  c #8E4F2C",
"D  c #894538",
"F  c #895734",
"G  c #955838",
"H  c #AA5D38",
"J  c #B75E38",
"K  c #9A6F35",
"L  c #986239",
"P  c #A8673A",
"I  c #A36C3E",
"U  c #B5643D",
"Y  c #B8683C",
"T  c #BC6D3D",
"R  c #B2733D",
"E  c #C6693E",
"W  c #C1723D",
"Q  c #924C46",
"!  c #885A47",
"~  c #8E5249",
"^  c #975B47",
"/  c #995E46",
"(  c #855B53",
")  c #A65C48",
"_  c #B15E4E",
"`  c #876547",
"'  c #9B6246",
"]  c #966649",
"[  c #9D644B",
"{  c #996756",
"}  c #9B675C",
"|  c #92745A",
" . c #A66846",
".. c #A2654D",
"X. c #AA654E",
"o. c #AD6B4C",
"O. c #B96541",
"+. c #B66846",
"@. c #BC6C44",
"#. c #B6644B",
"$. c #B26D4D",
"%. c #BC6C4B",
"&. c #A87548",
"*. c #B27245",
"=. c #BD7143",
"-. c #B3724C",
";. c #BE724B",
":. c #B87A4A",
">. c #A56B52",
",. c #AC6C53",
"<. c #AA6858",
"1. c #B86757",
"2. c #B26D53",
"3. c #BC6C52",
"4. c #B36D5A",
"5. c #AB7255",
"6. c #A9745B",
"7. c #B47253",
"8. c #BA7454",
"9. c #B87B57",
"0. c #B5745A",
"q. c #B9755C",
"w. c #BB7A5C",
"e. c #947968",
"r. c #B86961",
"t. c #A87767",
"y. c #B57767",
"u. c #B97563",
"i. c #BD7C62",
"p. c #C26D44",
"a. c #C26E49",
"s. c #C27345",
"d. c #C4744B",
"f. c #C9764B",
"g. c #C5794A",
"h. c #CA7B4C",
"j. c #C26D57",
"k. c #C67A52",
"l. c #CB7B54",
"z. c #C67758",
"x. c #CC7D5A",
"c. c #D17A54",
"v. c #C26A64",
"b. c #C77765",
"n. c #C37D63",
"m. c #C77A71",
"M. c #AC835A",
"N. c #B78659",
"B. c #BB855B",
"V. c #8D8B73",
"C. c #958A77",
"Z. c #98957D",
"A. c #AB8767",
"S. c #B98667",
"D. c #AA8B75",
"F. c #B68A71",
"G. c #BE8E7A",
"H. c #B39673",
"J. c #9BA17F",
"K. c #C8814C",
"L. c #C98359",
"P. c #D28454",
"I. c #D3845C",
"U. c #D68A5B",
"Y. c #C8935A",
"T. c #D39A5E",
"R. c #E2925D",
"E. c #C48265",
"W. c #C18B65",
"Q. c #C9856B",
"!. c #C58D6A",
"~. c #C98868",
"^. c #D88660",
"/. c #DC8B64",
"(. c #D48B6A",
"). c #CA936C",
"_. c #D49768",
"`. c #C88B72",
"'. c #D38D75",
"]. c #CD9572",
"[. c #CD9974",
"{. c #C89779",
"}. c #D29276",
"|. c #D19A75",
" X c #D49C7A",
".X c #DA987A",
"XX c #E5936C",
"oX c #E49A6B",
"OX c #E79874",
"+X c #ED9C75",
"@X c #CEA466",
"#X c #DBA36A",
"$X c #D9A478",
"%X c #E5A86D",
"&X c #E7A579",
"*X c #F3A47A",
"=X c #9B8F84",
"-X c #9B9683",
";X c #A89B85",
":X c #B89886",
">X c #9CA281",
",X c #A8A889",
"<X c #B9A388",
"1X c #ACB38C",
"2X c #ABA691",
"3X c #B5AA94",
"4X c #ADB391",
"5X c #B5B797",
"6X c #B5B1A4",
"7X c #CE9383",
"8X c #D99B82",
"9X c #CBA78A",
"0X c #D5AE8B",
"qX c #E5A485",
"wX c #EFB188",
"eX c #BBC398",
"rX c #BCC0A5",
"tX c #CFC699",
"yX c #C5C8A7",
"uX c #CCD4A4",
"iX c #CED6A9",
"pX c #D6D2AA",
"aX c #D3DCAA",
"sX c #CDCEB3",
"dX c #D6DAB7",
"fX c #D7E0AC",
"gX c #D8E1AE",
"hX c #DBE4B3",
"jX c #DBE4B7",
"kX c #E2EBBC",
"lX c #D8DCC4",
"zX c #DEE2C6",
"xX c #E5ECC6",
"cX c #ECF4C7",
"vX c #EFF5D0",
"bX c #F7FCD7",
/* pixels */
"% ].s.o.E./.I./ 1 [.s.o.q.@.d.[ 1 !.h.7.q.@.O.>.1 [.g.o.7.@.;./ , {.8.*.~.(.Q.L 1 [.s.o.q.@.d.[ 1 !.h.7.q.@.O.>.& ].s.$...d.@.X.",
"o S.P.w.Q.@.k...1 |.g.$.7.@.d...2 ).h.7.i.k.;.>.+ |.h.o.2.d.l.,., `.x.K.~.3.z. .1 |.g.$.7.@.d...2 ).h.7.i.l.;.>.% [.h.$...d.d.u.",
"% W.K..XE.Y @.,.1 |.g.$.,.@.d.>.2 ].h.7.i.^.l...+ |.h.o.q.c.I.6.< E.x._.L.#.3.&.1 |.g.$.,.@.d.>.2 ].h.7.i.^.k...% [.f.$.5.U.I.i.",
"1 ).s..X7.l.@...1 ].s.$.2.l.d.>.1 ].g.$.i.XXl.[ 1 ].s.o.E./.I.' < ].d._.-.z.%. .1 ].s.$.2.l.d.>.1 ].g.$.i.XXl.[ % ).p.$.w._.P.,.",
"o [.g.L.o.l.d./ 2 ].=.$.0./.k.>.1 [.s.7.w.OXl.[ 1 ].s.o.i.l.l./ ,  Xl.L. .x.k.L 2 ].=.$.0./.k.>.1 [.s.7.w.OXl.[ & ).s.$.0.I.d.X.",
"o [.P.o.0.@.k...2 ).=.7.0.+Xk.>.1 |.s.7.q.XXl.[ 1 |.h.7.7.O.d.>.#  XI. .9.#.z. .2 ).@.2.0.+Xk.>.1 |.s.7.q.XXl.[ & [.h.8...=.@.q.",
"$ {.P ,.i.+.H >.2 ).s.7.0.+Xd.>.1 |.s.q.7./.d.>.1 ].h.w.i.@.@.>.2 {. . .B.#.) ..2 ).s.7.0.+Xd.>.1 |.s.9.7./.d.>.& !.h.z.0.=.Y q.",
"- F.f 0.6.8.f { 1 ].g.8.7.+X@...1 [.@.8.o.I.@...2 !.s.E..Xl.@.' 6 F.f 9.6.q.f ] 1 ].g.8.7.+X@...1 [.@.8.o.I.@...6 W.p.~.`.L.@.,.",
"O | S.S.N.S.M.N.%  Xs.o.7.+Xf...6 U.@.y.z.O.Q. .w N.g.i.).s.b.[ , t.S.B.M.S.M.N.%  X=.o.7.+Xf...6 U.@.y.z.O.Q.U w L.g.S.U.f.,.7.",
"* = 2 , 6 @ 6   % ).g.$.0.^.d.' % U.d.m ) %.D G 4 Y.s.i.&Xh.j.[ * - % # 2 . 2   % ).g.$.0.^.f.' % U.k.m ) %.D G - /.s.S.oXc.,.7.",
"4 B D Z D ~ _ D 1 W.P.9.w.d.d.' & &X8.l i.n.d 6.+ #XW q.&Xg.z...4 B D Z D ~ ..D 1 W.P.9.w.d.d.' & &X8.l i.n.d 6.$ oXT y.+Xh.2.8.",
": ! i ) n.<.f ..1 W.P.(.w.@.d...= v g N z x n k 1 #XT 2.~.Y z. .> ! i H E.6.f ..1 W.P.(.w.@.d...= v g N z x n k - oXT 6.I.E 7.-.",
"- C.x [ t.{ x { 1 ).K.OX0.@.p.>.= g s t 3 p j 2 1 Y.s.4.:.H b.L 5 D.x [ t.{ x { 1 ).K.OX0.@.p.>.0 g u t 3 p j 2 $ U.s.6.a.Y q.$.",
": 8XXXa.#.j.'.#.1 [.s..Xq.@.@.>.0  X! 4 ( { 8 ( 1 Y.P.4.9.@.b. .: 8XXXp.O.3.(.#.1 [.s..Xq.@.@.>.0  X! 4 ( { 8 ( $ U.l.t.;.d.0.7.",
"< M.:.T h.P g.A % |.T (.E.@.p...- _.7.n / 8.~ ..- ).x.~ 9.;.) [ 3 M.:.T h.P g.A % |.T (.E.@.p...- _.7.n / 3.~ ..- _.x.! 8.l.G 7.",
"X 9Xu.#.q.<.4.4.1 |.=.L.}.@.d...1 R.f.`.l.J x.U - @X$.z ,.+.c ] , 9Xi.#.q.4.q.7.1 |.=.L.}.@.d...1 R.f.`.l.J x.U $ .X$.k X.%.g o.",
"O ].s.qX2.@.I.^ $ *X+.>.d.f.2.) 1 ].g.~.E.U @.' 5 &.' V ( ] ~ ` % ).T wXX.d.I.^ . *X+.>.d.f.1.) 1 ].g.~.E.U @.' 7 | { ( ` | V ] ",
"X |.h.~.o.d.+X>.9 K.=.`.@.p.Q.o.1 ).s.L.}.d.l.>.$ u > 8 X > u : O ].h.(.o.d.*X..9 K.=.`.@.p.Q.o.2 ).s.L.}.d.l.>.+ 3 3 p : : > : ",
"O ).s.&Xw.d.I.,.. oX=.c  .H c G 7 ).=.7.qXd.s...r 9Xm 8 C ! p V 1 !.h..XE.@./.>.. oX=.c  .H c G 7 ).=.7.qXd.s...r :Xm > ! V h ! ",
"% ].Y qXw.@.U ..- wX~.n 8X}.! F.2 ).s.-.qX@.@.[ . [. .k ! / Z ! 6 ).T qXi.@.@.[ - wX~.n 8X}.! F.2 ).s.-.qX@.@.[ X H.[ d G { B [ ",
"o |.s.w.7.d.d...0 f m V m m N l O ).g.7.qXp.d.>.w N.l.`.7.@.b.>.%  X=.E.o.d.d...0 f m V m m N l O ).g.7.qX@.d.>.p S.E.b.;.7.u.9.",
"O W.P. .}.@.d...q v s 5 3 u 3 3 O ].g.-..X@.d...4 _.p.1.L.f.#.P 1 ).g.-.Q.p.d.[ q v s 5 3 u 3 3 O ].g.-..X@.d...> ).;.#.U.x._ =.",
"% W.g.8.qXd.U ..- &XS 8 m / x ^ 1 |.s.o.i.@.l.[ 5 _.;.} 6.A.;Xe.C D.D.t.G.%.@.[ - &XS 8 m / x ^ 1 |.s.o.w.@.l.' : [.8.#.U.(.b.Y ",
"X $XT -.i.XX@.>.2 P.+.{ ..z.[ ) 1 |.T o.7.l./.5.; D.3XdXlXvXbXbXbXbXvXzXsX3XF.>.2 P.+.{ ..8.[ ) 1 |.T o.7.l./.5.4 {.-.z.oXz...:.",
"o [.s.7.0.*Xl.) O $X@.7.Q.^.@.>.O ).h.7.0.XX*Xt.-XdXxXkXdXtXtXtXtXtXtXpXjXjXdX:XO $X@.7.Q.^.@.>.O ).h.7.0.XX*X>.@ ].h.8.8X;.@.q.",
"@ ].f.8.5.^.d.X.1 |.s.7..Xl.@.>.7 ].h.o.[ D.<X2XlXdXtXH.M.&.&.&.&.&.&.&.H.9XdX6X1 |.s.7..Xl.@.>.7 ].h.o.o.l./.' % ].f.7. X;.@.4.",
"% ).f.2.,.=.@.,.2 !.g.7.8Xa.@.>.1 !.g.' ,XyXyXsXiXzXpX9XS.N.N.N.N.N.N.H.9X0XzXC.2 ).g.7.8Xa.@.>.1 !.g.o...@.l./ & ].s.$.`.;.;.4.",
"% ).f.$.0.@.d.X.2 ).s.7.`.@.@.>.1 |.U.y.5Xt.w.3XuXaXgXjXdXpXpXpXpXpXdXdXjXgXiXe.2 ).s.7.`.@.@.>.1 |.U.~.Q.I./.y.& ].s.$.i.@.%.4.",
"o ].f.$.i.k.l...% |.s.2.0.d.@.[ 1 |.U.y.4X6.^.6.N uXgXfXfXfXfXfXfXfXfXaXfXfXuX| % |.s.7.0.d.@.[ 1 |.U.~.'.I.^.i.% [.s.$.5.O.%.2.",
". [.s.w.E.L.x.) O  X=.$...d.d.[ % ).s...J.6.+.[ t eXfXgXgXgXgXgXgXgXhXhXfXfXeX` O  X=.$...d.d.[ 1 ).s.-.0.@.@.[ % [.s.2.,.=.d.4.",
".  Xs.(.S.d.d...% ].g.7.,.@.d...2 |.s.$.6.A.A.| C eXfXhXkXkXkXjXkXkXkXkXgXaXeXC y A.s.7.,.@.d...7 |.s.$.i.d.d.[ & [.s.8.5.k.x.4.",
"o $Xs..Xi.+.U >.2 W.h.7.i.U d.>.O ].s.7.A.J.eX6X>XeXfXhXkXkXkXkXkXkXkXkXhXaX1X1XeXZ.` ..i.U d.>.O ].s.7.`.I.l...& ].T 8.0.(.^.4.",
": 7X3.OXl.j.) #.1 ).T 8.7.l.I...5 ).k.6.5XuX4X5X4XeXaXgXkXkXkXkXkXxXxXjXgXuXJ.yXuXiXiXJ.>.l.I...5 ).k.4.&.*X#.I & ).l.2.R (.b.*.",
"  H.9.=.+.-.B. .2 |.s.7.w./.I...+ Y.5.yXaXuXuX1X4XeXuXaXgXgXjXhXhXjXhXgXaXeX,XuXuXdXcXxXD./.I...+ Y.;.<.-.*Xk.I @ !.l.2.R z.1.*.",
"# 9XN.Y ;.9.&. .1 ].g.o.w.XXd.' 8 Y.6.xXxXhXuXuXeX1X1XuXaXaXaXaXaXaXaXiXuX,XeXuXiXkXcXbXyX~.d.' 8 Y.f.m. .XX(.L @ ).z.w.:.;.1.*.",
"X {.S J #.2.f  .1 ].g. .w.+X@.[ + #X5.dXvXcXjXaXuXuX5X1XaXaXgXhXhXhXaXuX,X1XuXaXkXcXbXbXyX(.@.[ + #X@.<.9.P.#.I & [.z.n.Y.;.1.:.",
"8 :X^ }.7X7X{ {.1 |.h. .w.+Xd.>.2 Y.S.2XdXbXvXcXkXhXeX>XdXjXjXjXjXjXhXeXJ.iXjXcXvXbXbXsX2X&Xd.>.2 Y.d.u. .d.b. .& ).j.z._.;.1.*.",
". j l b l l n a 1 ].g.o.0./.s.>.r N.:X3X-X5XxXbXbXcXdX,X,XeXyXyXyXyXeXJ.5XxXvXbXbXxXrX;X3X_.s.>.r N.l.y. .%.v.' # [.%.8.#X;.1.*.",
"  y l u a a l 3 O ).s.w.7.h.d.[ . $X0.;X3X;XZ.sXlXxXbXvXdX5X4X4X4X4X5XdXvXbXvXzX5X-X-X3XH.h.d.[ . $X+.z 0.+.d [ # |.a.8.%X;.r.*.",
": { D Z 4.y./ ,.1 ].g.~.0.@.d.[ r N.$.} ;X5X2X-XV.Z.,X5XyXdXxXxXxXxXdXyXrX2XZ.C.-X2X3X<Xq.@.d.[ r N.$.Q ' 2.D ! @ $Xa.7.#X$.r.*.",
"$ ..i ] u.#.g ~ 7 [.g..X0.;.+.>.* a > w 7 C =X3X3X,XZ.C.V.V.V.V.V.V.V.V.V.Z.2X3X2X3XF..X0.;.+.>.* a > w % w w @ 1 !.n.q.O.n.{ %.",
"$ .X-.6.u.#.L y.2 W.s.qX,.@.k.[ r F.m j n B k ` C <X<X3X3X3X2X2X,X2X3X3X3X<XF.D.j W.s.qX,.@.k.[ r F.m j n B h b , ~.$.n.p.+.F.p.",
"  .XP.] q.@.9.<., _.s.OXw.@.k...O |.G d F ) z L 6 XXP.6.E.k.w.0.j {.).6.y.;.;.>., _.s.OXw.@.k...O |.G d F ) z L , .Xk.2.c. .y.p.",
"% (.=. .b.p.9.) O qXW ~.~.@.@.>., _.k.0.I b.v.*.. oX;.x 2. .D G 1 !.h.o.0.U d...O qXW ~.~.@.@.>., _.k.0.I b.v.*.O ).S.c O.>.m H ",
"@ .Xh.!.j.J :.X., |.W L.i.@.d...1 B.z.`.*.j.v.P r ).6.V t.6.( { 7 ].g.~.w.p.d..., |.W L.i.@.d...1 B.z.`.*.j.v.L t F.A.B 0.t.V 5.",
"  .Xh.$X3.p.Y.2.7 B.g.z.,.%.L.[ 6 ].z.E.).3.r.&.* g s w a s 8 p O |.h..X7.g.I.,.7 B.g.z.,.%.L.[ 6 ].z.E.).3.r.&.  b p a s 8 t u ",
". .Xg.$Xz.c.$X1.6 !.d.' >.8. .{ % ).3.,.#X%.r.&.e G g t k x 8 k O ].P.qX0.l.XX6.6 !.d.' >.8. .{ % ).3.,.#X3.r.&.- ] k j d k t g ",
"$ ~.=.$X3.H L.) o 0X*.g y.$.f { 7 ~.z.8.%Xk.b.L - $XF 8 B { a ! 7 W.=..Xq.U L.' o 0X*.g y.$.f { 7 ~.z.8.%Xk.b.L 2 [.! 3 m e.8 ' ",
"o ].f.(.5.;.@.,.9 K B.t.A.M.F.M.O  Xs.o.qXd.@./ 2 ].=.G 0.U ;...2 !.l.~.2.d.@.,.9 K B.t.A.M.F.M.O  Xs.o.qXd.@./ - _.@.) &.Y 3.7.",
"@ ).f.E.S.;.@.,.* s u w < 3 p : + ].=.7.8Xd.d.>.1 ].g.o.E.a.d.[ 7 W.l.z.E.@.@.>.* s u w < 3 p : + ].=.7.8Xd.d.>.$ _.d.4.B.;.3.$.",
"% ].s.8.].;.@.X.M D.c h N m k N 1 ].s.7.Q.O.d...1 ].h.7.}.l.d.[ 7 W.h.7.}.d.@.>.M D.c h N m k N 1 ].s.7.Q.O.d...- _.f.u.).k.j.o.",
"@  Xp.$.].^.;...  @XS x F  .c ` 1 ].s.7.q.a.I.[ 2 ).g.7.}.l.k.[ 2 ).g.o.}.I.d...  @XS x F  .c ` 1 ].s.7.q.a.I.[ - _.a.u.).k.j.$.",
"  0XT $.S.OXd...1 T.K.i.&.P.x.I O ].s.7.0.^.+X6.1 ).g.7.}.l.d.[ O  Xs.o.E.XXk.[ 1 T.K.i.&.P.x.I O ].s.7.0.^.+X6.- ).a.u.).k.3.$.",
"  0Xp.2.0..Xl...5 L.@.m.E.l.j. .O  Xs.7.2.^.+X>.1 !.h.9..Xl.d.' O  Xg.o.0.XXl...5 L.@.m.E.l.j. .O  Xs.7.2.^.+X>.$ ).d.b._.k.3.o.",
"o  Xs.8.5.l.d...5 |.@.r.qXl.#.,.1  X=.7.,.d.l.' 1 !.h.8.}.d.;.[ 1 ).h.$.7.l.k...5 |.@.r.qXl.#.,.1  X=.7.,.d.l.' - ).d.u.).s.3.2.",
"% !.f.8.0.Y d.X.$ @XK.7.T.W ;.L + |.Y 9.2.@.;.>.7 ).g.o.E.@.%.>.7 S.P.7.0.U d.>.$ @XK.7.T.W ;.L + |.Y 9.2.@.;.>.- ).p.4.B.+.#.8.",
"o [.3...Y.(.m.L 2 ].s.$.w.O.d...1 ).s.8.2.a.U >.+  X@.o.0.O.k.^ #  X;.P ~.(.z.L 2 ].s.$.w.O.d...1 ).s.8.2.a.U >.& ].s.$...d.@.X.",
"% W.x.z.T.%.v.I 1 ].s.7.0.O.d.>.2 ].g.8.0.l.@.>.O  Xg.o.7.@.x.>., `.l.K._.#.k...1 ].s.7.0.O.d.>.2 ].g.8.0.l.@.>.% [.h.$...d.d.u.",
"o W.^.(.*.O.v.L 1 ].g.2.2.@.;.>.2 ].g.7.i./.k...% ].h.o.q.I.I.6., E.c.U.:.#.3.L 1 ].g.7.2.@.;.>.2 ].g.7.i./.k...% [.f.$.5.U.I.i.",
"1 ).x.qXR z.v.P 1 ].s.$.2.l.d.>.1 ].s.7.i.XXl.[ 1 !.h.o.n.XXl.[ < ].d.%X*.z.l.L 1 ].s.$.2.l.d.>.1 ].s.7.i.XXl.[ % ).p.$.w._.P.,.",
"1 B.j.}.R %.v.I 2 ].=.$.0./.l.>.1 ].s.$.i.XXl.' 2 !.h.o.w.I.d.' < S.@._.-.j.k. .2 ].=.$.0./.l.>.1 ].s.$.i.XXl.' & ).s.$.0.I.d.X.",
"  ).Q...R #.m.L 2 ].=.$.0.+Xl.>.1 |.g.7.i.XXl.[ 1 ].l.7.2.@.@.>.o {.L.P &.#.b.' 2 ].=.$.0.+Xl.>.1 |.g.7.i.XXl.[ & ].h.8...=.@.q.",
"o 0Xq.[ :.z.r.L 1 ].g.7.0.*Xd...1 ].g.7.0.^.d...1 [.g.w.i.U d.>.@ 9X8.P 9.v.X.[ 1 ].g.7.0.*Xd...1 ].g.7.0.^.d...& ).h.z.0.=.Y q.",
"- A.i <.:.) p L 1 ].h.7.2.+Xd.[ 1 ].s.7.7.l.@...1 ].T ~..Xd.d./ 2 F.i &.9.) i ] 1 ].h.7.2.+Xd.[ 1 ].s.7.7.l.@...6 W.p.~.`.L.@.,."
};
