/* XPM */
static char *c028bd1c40e346e2fbc1ec5b6c29cb91HxX70INWAODxZx78[] = {
/* columns rows colors chars-per-pixel */
"64 64 191 2 ",
"   c #3B2733",
".  c #3C2833",
"X  c #3B2639",
"o  c #452E34",
"O  c #482F35",
"+  c #412A3C",
"@  c #4C3236",
"#  c #45353A",
"$  c #4E3439",
"%  c #47383D",
"&  c #513539",
"*  c #55343A",
"=  c #553C3B",
"-  c #5C3D3B",
";  c #5C403B",
":  c #63453F",
">  c #442B42",
",  c #4B2E42",
"<  c #4B2F49",
"1  c #493041",
"2  c #4E324A",
"3  c #513544",
"4  c #5E3B41",
"5  c #563453",
"6  c #5A3656",
"7  c #5E3953",
"8  c #5C3759",
"9  c #5E3859",
"0  c #633645",
"q  c #653B48",
"w  c #743A4A",
"e  c #6C3C56",
"r  c #623959",
"t  c #6B3C5B",
"y  c #7A3F51",
"u  c #733F5C",
"i  c #5C4342",
"p  c #5B4246",
"a  c #5B4C4A",
"s  c #6D4643",
"d  c #6A4946",
"f  c #624A4A",
"g  c #744C45",
"h  c #67534C",
"j  c #7C5046",
"k  c #7C5549",
"l  c #7F5B4D",
"z  c #6C4858",
"x  c #794051",
"c  c #75415B",
"v  c #7E425C",
"b  c #7B4D5E",
"n  c #7E5C52",
"m  c #79605C",
"M  c #7D6560",
"N  c #82484C",
"B  c #835345",
"V  c #855A47",
"C  c #835349",
"Z  c #8D534D",
"A  c #875D4A",
"S  c #8B5B4B",
"D  c #91554F",
"F  c #915B4C",
"G  c #814355",
"H  c #8E4656",
"J  c #85465C",
"K  c #8A475C",
"L  c #8E495D",
"P  c #944657",
"I  c #954B52",
"U  c #924A5D",
"Y  c #994C5F",
"T  c #8C5959",
"R  c #9A5B51",
"E  c #96595A",
"W  c #A45F54",
"Q  c #82604F",
"!  c #94614B",
"~  c #9B644E",
"^  c #836454",
"/  c #896855",
"(  c #9F6550",
")  c #926B52",
"_  c #9E6A52",
"`  c #98745B",
"'  c #9D755B",
"]  c #A0674E",
"[  c #A36452",
"{  c #AC6655",
"}  c #AE6955",
"|  c #AD6B5B",
" . c #B16C56",
".. c #B36D58",
"X. c #AC7455",
"o. c #AD765C",
"O. c #B47356",
"+. c #BB7557",
"@. c #BF7957",
"#. c #B67258",
"$. c #BB7659",
"%. c #B77F5B",
"&. c #BF7958",
"*. c #9C4C60",
"=. c #935861",
"-. c #A24E61",
";. c #A84F63",
":. c #A55162",
">. c #AC5164",
",. c #A65963",
"<. c #B45366",
"1. c #BA5567",
"2. c #BC5866",
"3. c #BC5668",
"4. c #BE5868",
"5. c #857666",
"6. c #8C7461",
"7. c #877868",
"8. c #8A7A6A",
"9. c #937C6D",
"0. c #AE7C61",
"q. c #B37A60",
"w. c #BC7D61",
"e. c #C47E59",
"r. c #C45C67",
"t. c #C95F67",
"y. c #C25A68",
"u. c #CC6167",
"i. c #D46666",
"p. c #D76867",
"a. c #BD855C",
"s. c #94826E",
"d. c #968672",
"f. c #BD846B",
"g. c #BE926C",
"h. c #A88871",
"j. c #BD9376",
"k. c #C6805B",
"l. c #CB845D",
"z. c #CC8959",
"x. c #D78D5C",
"c. c #D98F5C",
"v. c #DF935D",
"b. c #E1965E",
"n. c #E79B5E",
"m. c #E89C5F",
"M. c #C28161",
"N. c #C68562",
"B. c #C78662",
"V. c #C88567",
"C. c #CB8964",
"Z. c #DD9663",
"A. c #D69669",
"S. c #D6966F",
"D. c #DD9870",
"F. c #E39B64",
"G. c #D0A67A",
"H. c #E9A166",
"J. c #EAAA74",
"K. c #EDB27A",
"L. c #F1B075",
"P. c #BA9E8D",
"I. c #C7A58F",
"U. c #C8A58F",
"Y. c #D6AB83",
"T. c #C3A797",
"R. c #CAA690",
"E. c #E1AC83",
"W. c #E2AC83",
"Q. c #EDBB85",
"!. c #EAB689",
"~. c #E3BC8A",
"^. c #C3AEA0",
"/. c #D4C29B",
"(. c #D9C89E",
"). c #EFC08A",
"_. c #F6C48B",
"`. c #EBC795",
"'. c #F2C491",
"]. c #F5CB93",
"[. c #F6CB99",
"{. c #F4CF9A",
"}. c #F6D29C",
"|. c #E6D0A2",
" X c #EDDBAC",
".X c #F7DAA5",
"XX c #F4DFAD",
"oX c #F6E0AD",
"OX c #F6E5B2",
"+X c #F9E7B4",
"@X c #FBE9B6",
/* pixels */
"[.H.e.R T ^.w.{ v.e.&.&.&.&.+.{ v.e.&.&.&.&.+.| !.H.n.m.m.m.b.e.b.e.&.&.&.&.+.{ v.k.M.&.&.M.$.{ v.e.&.&.&.&.+.{ v.e.&.&.&.&.+.W ",
"'.F.e.W T T.w.{ v.e.&.&.&.&.+.{ v.e.&.&.&.&.+.} F.l.N.e.e.N.e. .v.e.&.&.&.&.+.{ v.N.U.M.M.U.w.{ v.e.&.&.&.&.+.{ v.e.&.&.&.&.+.W ",
"F.e.+.#.#.w.#.{ v.e.&.&.&.&.+.{ v.e.&.&.&.&.+.{ v.N.I.M.M.U.w.{ v.e.&.&.&.&.+.{ c.e.w.$.$.w.#.{ v.e.&.&.&.&.+.{ v.e.&.&.&.&.+.W ",
"N. .{ } } { [ R v.e.&.&.&.&.+.{ v.e.@.&.&.@.+.{ v.k.M.&.&.M.$.{ v.e.&.&.&.&.+.{ e. .{ { { { [ R v.e.&.&.&.&.+.{ v.e.@.&.&.@.+.W ",
"!.F.v.v.v.v.c.&.b.e.&.&.&.&.+.{ v.k.M.&.&.M.$.{ v.e.@.&.&.@.+.{ v.e.&.&.&.&.+.| E.F.v.v.v.v.c.&.b.e.&.&.&.&.+.{ v.k.M.&.&.M.$.W ",
"H.l.N.k.k.N.e. .v.e.&.&.&.&.+.{ v.N.U.M.M.U.w.{ v.e.&.&.&.&.+.{ v.e.&.&.&.&.+.} F.l.N.k.k.N.e. .v.e.&.&.&.&.+.{ v.N.U.M.M.U.w.W ",
"n.N.I.M.M.U.w.{ v.e.&.&.&.&.+.{ c.e.w.$.$.w.#.{ v.e.&.&.&.&.+.{ v.e.&.&.&.&.+.{ v.N.I.M.M.U.w.{ v.e.&.&.&.&.+.{ c.e.w.$.$.w.#.R ",
"m.e.M.&.&.M.$.{ v.e.&.&.&.&.+.{ e. .{ { { { [ R v.e.&.&.&.&.+.{ v.e.@.&.&.@.+.{ v.k.M.&.&.M.$.{ v.e.&.&.&.&.+.{ e. .{ { { { { Z ",
"m.e.@.&.&.@.+.{ v.e.&.&.&.&.+.| E.F.v.v.v.v.c.&.b.e.&.&.&.&.+.{ v.k.M.&.&.M.$.{ v.e.@.&.&.@.+.{ v.e.&.&.&.&.+.| E.F.v.v.v.v.c.+.",
"m.e.&.&.&.&.+.{ v.e.&.&.&.&.+.} F.l.N.k.k.N.e. .v.e.&.&.&.&.+.{ v.N.U.M.M.U.w.{ v.e.&.&.&.&.+.{ v.e.&.&.&.&.+.} F.l.N.k.k.N.e.[ ",
"m.e.&.&.&.&.+.{ v.e.&.&.&.&.+.{ v.N.I.M.M.U.w.{ v.e.&.&.&.&.+.{ c.e.w.$.$.w.#.{ v.e.&.&.&.&.+.{ v.e.&.&.&.&.+.{ v.N.I.M.M.U.w.W ",
"m.e.&.&.&.&.+.{ v.e.@.&.&.@.+.{ v.k.M.&.&.M.$.{ v.e.&.&.&.&.+.{ e. .{ { { { [ R v.e.&.&.&.&.+.{ v.e.@.&.&.@.+.{ v.k.M.&.&.M.$.W ",
"m.e.&.&.&.&.+.{ v.k.M.&.&.M.$.{ v.e.@.&.&.@.+.{ v.e.&.&.&.&.+.| E.F.v.v.v.v.c.&.b.e.&.&.&.&.+.{ v.k.M.&.&.M.$.{ v.e.@.&.&.@.+.W ",
"m.e.&.&.&.&.+.{ v.N.U.M.M.U.w.{ v.e.&.&.&.&.+.{ v.e.&.&.&.&.+.} F.l.N.k.k.N.e. .v.e.&.&.&.&.+.{ v.N.U.M.M.U.w.{ v.e.&.&.&.&.+.W ",
"m.e.&.&.&.&.+.{ c.e.w.$.$.w.#.{ v.e.&.&.&.&.+.{ v.e.&.&.&.&.+.{ v.N.I.M.M.U.w.{ v.e.&.&.&.&.+.{ c.e.w.$.$.w.#.{ v.e.&.&.&.&.+.W ",
"m.e.&.&.&.&.+.{ e. .{ { { { [ R v.e.&.&.&.&.+.{ v.e.@.&.&.@.+.{ v.k.M.&.&.M.$.{ v.e.&.&.&.&.+.{ e. .{ { { { [ R v.e.&.&.&.&.+.W ",
"m.e.&.&.&.&.+.| E.F.v.v.v.v.c.&.b.e.&.&.&.&.+.{ v.k.M.&.&.M.$.{ v.e.@.&.&.@.+.{ v.e.&.&.&.&.+.| E.F.v.v.v.v.c.&.b.e.&.&.&.&.+.W ",
"m.e.&.&.&.&.+.} F.l.N.k.k.N.e. .v.e.&.&.&.&.+.{ v.N.U.M.M.U.w.{ v.e.&.&.&.&.+.{ v.e.&.&.&.&.+.} F.l.e.e.e.e.e. .v.e.&.&.&.&.+.W ",
"m.e.&.&.&.&.+.{ v.N.I.M.M.U.w.{ v.e.&.&.&.&.+.{ c.e.w.$.$.w.#.{ v.e.&.&.&.&.+.{ v.e.&.&.&.&.+.{ v.e.&.&.&.&.+.{ v.e.&.&.&.&.+.W ",
"m.e.@.&.&.@.+.{ v.k.M.&.&.M.$.{ v.e.&.&.&.&.+.{ e. .{ } } } { R v.e.e.e.e.e.+.{ v.e.@.&.&.@.+.{ v.e.&.&.&.&.+.{ v.e.&.&.&.&.+.W ",
"m.e.M.&.&.M.$.{ v.e.@.&.&.@.+.{ v.e.&.&.&.&.+.| E.F.v.z.z.z.k.X.z.O.} } } } #.} v.k.M.&.&.M.$.{ v.e.&.&.&.&.+.{ v.e.&.&.&.&.+.W ",
"m.N.U.M.M.U.w.{ v.e.&.&.&.&.+.{ v.e.&.&.&.&.#.{ Z.k.o.= @ @ @ O @ O O O O O F { v.M.I.w.M.U.w.{ v.e.&.&.&.&.+.{ v.e.&.&.&.&.+.W ",
"b.e.w.$.$.w.#.{ v.e.&.&.&.&.+.{ v.e.&.&.e.} - & ; = p H P P P P P P P P P y 4 $ ; = p ! &.w.#.{ v.e.&.&.&.&.+.{ v.e.&.&.&.&.+.W ",
"N. .{ { { { [ R v.e.&.&.&.&.+.{ v.e.@.e.] g 0 w w w N r.r.r.t.t.t.t.t.t.t.2.I x w w 0 q C } { R v.e.&.&.&.&.+.{ v.e.@.&.&.@.+.W ",
"!.F.v.v.v.v.c.&.b.e.&.&.&.&.+.{ v.k.M.} g , Y <.3.3.4.u.4.t.p.i.u.i.i.i.i.i.p.u.r.r.:.q s @.x.e.b.e.&.&.&.&.+.{ v.k.M.&.&.M.$.W ",
"H.l.N.k.k.N.e. .v.e.&.&.&.&.+.{ v.N.P.f , u >.<.1.1.1.1.3.t.i.u.4.u.i.i.i.i.i.i.i.i.y.-.w = } } v.e.&.&.&.&.+.{ v.N.U.M.M.U.w.W ",
"n.N.I.M.M.U.w.{ v.e.&.&.&.&.+.{ c.+.p 2 c ;.Y Y >.1.1.1.u.t.3.3.1.u.i.i.i.i.i.u.y.i.i.y.-.x $ F b.e.&.&.&.&.+.{ c.e.w.$.$.w.#.R ",
"m.e.M.&.&.M.$.{ v.k.F - - - ( { e.{ o < c Y u J >.1.1.1.y.4.1.3.u.t.u.i.t.i.t.t.u.y.y.t.2.G   Z b.} - - - F $.{ e. .{ { { { { Z ",
"m.e.@.&.&.@.+.{ v.~ & % 5.7.n E E.Z.& < t c c *.<.1.1.1.1.1.1.3.t.4.y.t.1.t.4.y.t.1.1.2.:.G   F @.^ 7.7.7./ S | E.F.v.v.v.v.c.+.",
"m.e.&.&.&.&.+.{ v.- # 8.OXOX6.g %._ o > 5 r L -.>.<.1.1.1.1.1.1.1.1.1.1.1.1.1.1.1.1.1.-.Y H * C V 6.OX+X@Xd.@ { F.l.N.k.k.N.e.[ ",
"m.e.&.&.&.&.+.{ v.- 9.XXOXOX).' # # # o 3 c K t J -.1.1.1.1.1.1.1.1.1.1.1.1.1.1.1.1.1.1.1.<.<.4 ' ).OXoX Xs.= { v.N.I.M.M.U.w.W ",
"m.e.&.&.&.&.+.{ v.- ) ].OXOXXX|./././.G.A.f.c *.>.<.1.1.1.1.1.1.1.1.1.1.1.1.1.1.1.1.1.1.1.1.2.V.~.oXXXQ.^ k } { v.k.M.&.&.M.$.W ",
"m.e.&.&.&.&.+.{ v._ l ' '.oXOXOX+X+X+X.X_.J.f.,.-.-.-.1.1.1.1.1.1.1.1.1.1.1.1.1.1.1.1.1.<.-.:.D.{.OXOX}.g.A j { v.e.@.&.&.@.+.W ",
"m.e.&.&.&.&.+.{ v.C.m : K.XXOXOXOXOXOXOX{.L.J.=.J Y -.>.<.1.<.>.1.>.<.<.>.1.1.1.<.>.<.<.-.L J S.{.@X+XOX}.` @ { v.e.&.&.&.&.+.W ",
"m.e.&.&.&.&.+.{ c.O.k Q Q.oXOXOXOXOXOXOX{.J.S.b v *.>.Y >.<.>.*.>.-.-.>.*.>.1.<.>.Y >.*.U J 7 0.Y././.OX@Xd.@ [ v.e.&.&.&.&.+.W ",
"m.e.&.&.&.&.+.{ &.- ) Q.oXOXOXXX X X X X`.S.E L L U U U >.-.*.>.Y >.-.Y <.Y >.>.Y <.Y U U G . o # # a (.XXd.& F v.e.&.&.&.&.+.W ",
"m.e.&.&.&.&.+.| Y.i ) _.+X+X].h.a a a a z b t K U U U U Y Y U Y U Y Y U Y U Y Y U Y U U U G   k j.a.X.h a / k.&.b.e.&.&.&.&.+.W ",
"m.e.&.&.&.&.+.} Z.~ A ^ 5.5.^ C ! B B @ X 8 9 J U U U U U U U U U U U U U U U U U U U U J c C [ F.l.M.S B X.e. .v.e.&.&.&.&.+.W ",
"m.e.&.&.&.&.+.{ v.C.9.- - f - C b.k.e.: + 9 9 c K U U U U J v v v v v v v v v v J L U J e q #.} v.N.U.M.M.R.w.{ v.e.&.&.&.&.+.W ",
"m.e.@.&.&.@.+.{ v.k.w.&.&.w.$.{ v.e.&.d 1 5 9 9 c K K K K e 5 5 5 5 5 5 5 5 6 9 r J K e 2 -  .} v.k.M.&.&.M.$.{ v.e.&.&.&.&.+.W ",
"m.e.M.&.&.M.$.{ v.e.@.&.&.&.+.{ v.e.&.#.k + 6 8 9 r r r r ,     . .         2 8 9 r r , f q.$.{ v.e.@.&.&.@.+.{ v.e.&.&.&.&.+.W ",
"m.N.U.M.M.U.w.{ v.e.&.&.&.&.+.{ v.e.&.e.O.S + X X X X X X d ~ Z O.] ~ ~ ~ ~ 4 X X X X g o.R.w.{ v.e.&.&.&.&.+.{ v.e.&.&.&.&.+.W ",
"b.e.w.$.$.w.#.{ v.e.&.&.&.&.+.{ v.e.&.&.e.#.j s A k M k k h.w.} b.k.e.e.e.e.F s V g g ( &.w.#.{ v.e.&.&.&.&.+.{ v.e.&.&.&.&.+.W ",
"N. .{ { { { [ R v.e.e.&.&.&.+.{ v.e.@.&.&.e.$.} b.k.M.e.e.M.$.{ v.e.&.&.&.&.$.{ N...} } { { [ R v.e.&.&.&.&.+.{ v.e.@.&.&.@.+.W ",
"!.F.v.v.v.v.c.&.b.e.&.&.&.&.+.{ v.k.M.&.&.M.$.{ v.e.@.&.&.@.+.{ v.e.&.&.&.&.+.| E.F.v.v.v.v.c.&.b.e.&.&.&.&.+.{ v.k.M.&.&.M.$.W ",
"H.l.N.k.k.N.e. .v.e.&.&.&.&.+.{ v.N.U.M.M.U.w.{ v.e.&.&.&.&.+.{ v.e.&.&.&.&.+.} F.l.N.k.k.N.e. .v.e.&.&.&.&.+.{ v.N.U.M.M.U.w.W ",
"n.N.I.M.M.U.w.{ v.e.&.&.&.&.+.{ c.e.w.$.$.w.#.{ v.e.&.&.&.&.+.{ v.e.&.&.&.&.+.{ v.N.I.M.M.U.w.{ v.e.&.&.&.&.+.{ c.e.w.$.$.w.#.R ",
"m.e.M.&.&.M.$.{ v.e.&.&.&.&.+.{ e. .{ { { { [ R v.e.&.&.&.&.+.{ v.e.@.&.&.@.+.{ v.k.M.&.&.M.$.{ v.e.&.&.&.&.+.{ e. .{ { { { { Z ",
"m.e.@.&.&.@.+.{ v.e.&.&.&.&.+.| E.F.v.v.v.v.c.&.b.e.&.&.&.&.+.{ v.k.M.&.&.M.$.{ v.e.@.&.&.@.+.{ v.e.&.&.&.&.+.| E.F.v.v.v.v.c.+.",
"m.e.&.&.&.&.+.{ v.e.&.&.&.&.+.} F.l.N.k.k.N.e. .v.e.&.&.&.&.+.{ v.N.U.M.M.U.w.{ v.e.&.&.&.&.+.{ v.e.&.&.&.&.+.} F.l.N.k.k.N.e.[ ",
"m.e.&.&.&.&.+.{ v.e.&.&.&.&.+.{ v.N.I.M.M.U.w.{ v.e.&.&.&.&.+.{ c.e.w.$.$.w.#.{ v.e.&.&.&.&.+.{ v.e.&.&.&.&.+.{ v.N.I.M.M.U.w.W ",
"m.e.&.&.&.&.+.{ v.e.@.&.&.@.+.{ v.k.M.&.&.M.$.{ v.e.&.&.&.&.+.{ e. .{ { { { [ R v.e.&.&.&.&.+.{ v.e.@.&.&.@.+.{ v.k.M.&.&.M.$.W ",
"m.e.&.&.&.&.+.{ v.k.M.&.&.M.$.{ v.e.@.&.&.@.+.{ v.e.&.&.&.&.+.| E.F.v.v.v.v.c.&.b.e.&.&.&.&.+.{ v.k.M.&.&.M.$.{ v.e.@.&.&.@.+.W ",
"m.e.&.&.&.&.+.{ v.N.U.M.M.U.w.{ v.e.&.&.&.&.+.{ v.e.&.&.&.&.+.} F.l.N.k.k.N.e. .v.e.&.&.&.&.+.{ v.N.U.M.M.U.w.{ v.e.&.&.&.&.+.W ",
"m.e.&.&.&.&.+.{ c.e.w.$.$.w.#.{ v.e.&.&.&.&.+.{ v.e.&.&.&.&.+.{ v.N.I.M.M.U.w.{ v.e.&.&.&.&.+.{ c.e.w.$.$.w.#.{ v.e.&.&.&.&.+.W ",
"m.e.&.&.&.&.+.{ e. .{ { { { [ R v.e.&.&.&.&.+.{ v.e.@.&.&.@.+.{ v.k.M.&.&.M.$.{ v.e.&.&.&.&.+.{ e. .{ { { { [ R v.e.&.&.&.&.+.W ",
"m.e.&.&.&.&.+.| E.F.v.v.v.v.c.&.b.e.&.&.&.&.+.{ v.k.M.&.&.M.$.{ v.e.@.&.&.@.+.{ v.e.&.&.&.&.+.| E.F.v.v.v.v.c.&.b.e.&.&.&.&.+.W ",
"m.e.&.&.&.&.+.} F.l.N.k.k.N.e. .v.e.&.&.&.&.+.{ v.N.U.M.M.U.w.{ v.e.&.&.&.&.+.{ v.e.&.&.&.&.+.} F.l.N.k.k.N.e. .v.e.&.&.&.&.+.W ",
"m.e.&.&.&.&.+.{ v.N.I.M.M.U.w.{ v.e.&.&.&.&.+.{ c.e.w.$.$.w.#.{ v.e.&.&.&.&.+.{ v.e.&.&.&.&.+.{ v.N.I.M.M.U.w.{ v.e.&.&.&.&.+.W ",
"m.e.@.&.&.@.+.{ v.k.M.&.&.M.$.{ v.e.&.&.&.&.+.{ e. .{ { { { [ R v.e.&.&.&.&.+.{ v.e.@.&.&.@.+.{ v.k.M.&.&.M.$.{ v.e.&.&.&.&.+.W ",
"m.e.M.&.&.M.$.{ v.e.@.&.&.@.+.{ v.e.&.&.&.&.+.| E.F.v.v.v.v.c.&.b.e.&.&.&.&.+.{ v.k.M.&.&.M.$.{ v.e.@.&.&.@.+.{ v.e.&.&.&.&.+.W ",
"m.N.U.M.M.U.w.{ v.e.&.&.&.&.+.{ v.e.&.&.&.&.+.} F.l.N.k.k.N.e. .v.e.&.&.&.&.+.{ v.N.U.M.M.U.w.{ v.e.&.&.&.&.+.{ v.e.&.&.&.&.+.W ",
"b.e.w.$.$.w.#.{ v.e.&.&.&.&.+.{ v.e.&.&.&.&.+.{ v.N.I.M.M.U.w.{ v.e.&.&.&.&.+.{ c.e.w.$.$.w.#.{ v.e.&.&.&.&.+.{ v.e.&.&.&.&.+.W ",
"e.[ W W W W R D v.e.&.&.&.&.+.{ v.e.&.&.&.&.+.{ v.k.M.&.&.M.$.{ v.e.&.&.&.&.+.[ $.[ W W W W R D v.e.&.&.&.&.+.{ v.e.&.&.&.&.+.W "
};
