/* XPM */
static char *don_right1696717619[] = {
/* columns rows colors chars-per-pixel */
"64 64 247 2 ",
"   c #0A0300",
".  c #0C0A04",
"X  c #130B02",
"o  c #1C0D04",
"O  c #1A0A08",
"+  c #161104",
"@  c #1C1404",
"#  c #15110E",
"$  c #1C130A",
"%  c #1C190C",
"&  c #030813",
"*  c #0B1619",
"=  c #191615",
"-  c #1E1A1B",
";  c #260803",
":  c #2F0C0F",
">  c #271605",
",  c #22140C",
"<  c #24190E",
"1  c #391509",
"2  c #391B0E",
"3  c #261715",
"4  c #2B1C14",
"5  c #371A18",
"6  c #27221A",
"7  c #372015",
"8  c #3C261E",
"9  c #0F1A22",
"0  c #2E1824",
"q  c #192123",
"w  c #2A2125",
"e  c #3E2720",
"r  c #3E2922",
"t  c #39282B",
"y  c #382E31",
"u  c #47190B",
"i  c #5B1701",
"p  c #491816",
"a  c #49291B",
"s  c #532811",
"d  c #762C0C",
"f  c #662A1B",
"g  c #712C12",
"h  c #693517",
"j  c #793317",
"k  c #511F2D",
"l  c #412921",
"z  c #462A25",
"x  c #562A26",
"c  c #4A312B",
"v  c #543429",
"b  c #593829",
"n  c #443433",
"m  c #4F3634",
"M  c #493738",
"N  c #6E2E28",
"B  c #663829",
"V  c #7A3329",
"C  c #773B28",
"Z  c #673B38",
"A  c #79441D",
"S  c #42413F",
"D  c #59433B",
"F  c #694436",
"G  c #694839",
"H  c #754736",
"J  c #724D33",
"K  c #7A4939",
"L  c #2E2A43",
"P  c #4B3A46",
"I  c #533E49",
"U  c #633D44",
"Y  c #5B4249",
"T  c #574556",
"R  c #5A4A5D",
"E  c #4C5755",
"W  c #664748",
"Q  c #794948",
"!  c #6B5448",
"~  c #755C4B",
"^  c #644D5A",
"/  c #68525B",
"(  c #795555",
")  c #706153",
"_  c #5C4D63",
"`  c #5F5067",
"'  c #5F5168",
"]  c #614F62",
"[  c #655264",
"{  c #6D6D67",
"}  c #832F0D",
"|  c #8B320D",
" . c #94340C",
".. c #9C360A",
"X. c #9D390D",
"o. c #832F1F",
"O. c #8C2E1D",
"+. c #843212",
"@. c #8F301E",
"#. c #953619",
"$. c #A73807",
"%. c #A83807",
"&. c #A33708",
"*. c #A53809",
"=. c #873525",
"-. c #893C2F",
";. c #9A481C",
":. c #8B4C2C",
">. c #964A2D",
",. c #884639",
"<. c #875437",
"1. c #955839",
"2. c #AF5A34",
"3. c #A95C38",
"4. c #9A6F35",
"5. c #986239",
"6. c #A9653B",
"7. c #A36C3E",
"8. c #B8683C",
"9. c #AD743B",
"0. c #B9703F",
"q. c #C6693E",
"w. c #C1723D",
"e. c #8F4C44",
"r. c #895A46",
"t. c #885648",
"y. c #965C47",
"u. c #995E46",
"i. c #855C56",
"p. c #A85D46",
"a. c #A45B48",
"s. c #B15E4E",
"d. c #89674B",
"f. c #9B6246",
"g. c #966449",
"h. c #9D644B",
"j. c #876855",
"k. c #996756",
"l. c #9D6A57",
"z. c #957357",
"x. c #AD6441",
"c. c #A56946",
"v. c #A2654D",
"b. c #AA654E",
"n. c #AD6B4C",
"m. c #B96541",
"M. c #B46A43",
"N. c #BC6C44",
"B. c #B9674A",
"V. c #B26D4D",
"C. c #AA7448",
"Z. c #B27245",
"A. c #BD7143",
"S. c #B3724C",
"D. c #BE724B",
"F. c #B87A4A",
"G. c #A66953",
"H. c #A56B52",
"J. c #AC6C53",
"K. c #AA6958",
"L. c #B86757",
"P. c #B26D53",
"I. c #BC6C52",
"U. c #B36D5A",
"Y. c #AC7255",
"T. c #AA775C",
"R. c #B47253",
"E. c #BA7454",
"W. c #B97B56",
"Q. c #B5745A",
"!. c #B9755C",
"~. c #BB7A5C",
"^. c #8F6F66",
"/. c #B86961",
"(. c #AB7968",
"). c #B57767",
"_. c #BB7363",
"`. c #BD7C62",
"'. c #C26D44",
"]. c #C26E49",
"[. c #C27345",
"{. c #C4744B",
"}. c #C9764B",
"|. c #C5794A",
" X c #CA7B4C",
".X c #C26D57",
"XX c #C67A52",
"oX c #CB7B54",
"OX c #C77858",
"+X c #D17A54",
"@X c #C26A64",
"#X c #C77765",
"$X c #C37D63",
"%X c #C77A71",
"&X c #AD835B",
"*X c #BA855B",
"=X c #9B8474",
"-X c #A98767",
";X c #B98567",
":X c #B38C6A",
">X c #B8926D",
",X c #A88775",
"<X c #B78971",
"1X c #BD8B79",
"2X c #BC9873",
"3X c #C8814C",
"4X c #C9825A",
"5X c #D28454",
"6X c #D3845C",
"7X c #D68A5B",
"8X c #C8935A",
"9X c #D39A5E",
"0X c #E2925D",
"qX c #C18B65",
"wX c #C98668",
"eX c #C58D6B",
"rX c #D88660",
"tX c #DC8B64",
"yX c #D48A69",
"uX c #CA936C",
"iX c #D09466",
"pX c #D49768",
"aX c #C98C72",
"sX c #D38D75",
"dX c #CD9572",
"fX c #C59A76",
"gX c #CD9974",
"hX c #D19A75",
"jX c #D89678",
"kX c #D49C7A",
"lX c #E5936C",
"zX c #E49A6B",
"xX c #E69975",
"cX c #ED9C75",
"vX c #CEA466",
"bX c #DBA36A",
"nX c #C9A278",
"mX c #D9A478",
"MX c #E6A773",
"NX c #F3A47A",
"BX c #908B82",
"VX c #B49686",
"CX c #CE9383",
"ZX c #DA9C82",
"AX c #D6A98A",
"SX c #E5A384",
"DX c #EFB188",
/* pixels */
"$ dX[.n.wXrX6Xu., gX[.n.!.N.{.h., eX XR.!.N.m.H., gX|.n.R.N.D.f.> fXE.Z.wXyXwX5., gX[.n.!.N.{.h., eX XR.!.N.m.H.$ dX[.V.v.{.N.b.",
"X ;X5X~.wXN.XXv., hX|.V.R.N.{.v.< uX|.R.`.XXD.H.o hX Xn.R.{.XXJ.> aXoX3XiXI..Xf.< gX|.V.R.N.{.v.< uX XR.$XOXD.H.$ gX XV.c.{.{._.",
"$ eX3XjXwX8.N.J., hX{.V.J.N.{.H.< dXN.t.K.rXoXh., hX Xn._.oX4XY.> `.OXpX4Xp.b.J t uX|.V.J.N.{.H.< dX XR.`.7XXXv.$ gX}.V.Y.7X6X`.",
", uX[.jXR.oXN.v., dX[.V.P.oX{.H., uX{.r.D r.u.r., <XM.f.H.Y.*X&Xz.>XT.z.G G D M t dX[.V.P.oX{.H., gX|.V.`.lXOXv.$ uX].V.~.pX5XJ.",
"X gX|.4Xn.OX{.u.< gXA.V.Q.tXXXH., gX[.R.t.M n M n Z m m n d.2X2XnXnX2X2Xz.~ n M 4 sXN.V.Q.tXXXH., gX[.R.~.cXoXf.% uX[.S.Q.6X{.H.",
"X gX5Xn.Q.N.XXv.3 uXA.R.Q.cXXXH., gX[.R.Q.G.F M M y n y M ~ 2X-X:X2X:X>X2X=Xn G 3 eXN.P.Q.cXXXH., hX[.R.!.lXoXf.% gX XE.v.A.N.!.",
"$ fX6.H.`.M.3.H., uX[.R.Q.cX{.H., gX[.!.R.6X3.B c n D ! Y d.nX&Xj.VXz.fX2X=XG =.f 3.N.R.Q.cX{.G., hX[.W.P.tX{.H.% eX XOXQ.A.8.!.",
"= <Xd Q.T.E.j k., dX|.E.R.cXN.v., gXN.E.1.-.=.#.=.B d.-X! :XnX2X&X=X&X>XnX2Xz.=.O.>.A.E.R.cXN.v., gXN.E.V.6XN.v.< qX'.wXaX4XN.J.",
"o z.;X;X*X;X&X;X$ kX[.n.R.cX}.v.3 7XN.).b.=.O.O.@.@.y.-X&X:X:XfX2XfX&X>XnXnX>XC V J.N.n.R.cX}.v.3 7XN.).OXm.wX8.0 4X|.;X7X}.J.Q.",
"& * , > 3 + 3   $ uX|.V.Q.rX{.f.$ 7X{.K p.x.=.#.@.@.@.r.z.) ~ j.) ~ D D ~ -XnXz.a wX|.V.Q.rX}.f.$ 6XXXK a.B.,.1.= tX[.;XzX+XJ.R.",
", Q ,.-.,.t.K.-., qX5XW.~.{.{.f.% MXE.v `.$Xf =.@.@.@.O.:.-X~ n n y y n n M d.:Xz qX5XW.~.{.{.f.% MXR.b `.$Xf Q.# zXN.).cX+XP.E.",
"; t.i p.$XH.j u., qX5XyX~.N.{.v.* A h U N B G x j @.O.O.=.g.2Xz.G ~ ~ ~ j.t.j ,.7 ;X5XyXW.N.{.v.* A h U N B G x = zX0.Y.6Xq.R.S.",
"= =XB l.(.k.B k., uX3XxXQ.N.].H.* h s t 1 p t t I =.O.O.@.=.H.fX>X>X! D D <.O.,.% uX3XxXQ.N.].H.9 h u y 1 p l , # 7X[.T.].8.E.V.",
"; CXlX].B..XsXB., gX[.jX!.N.N.H.9 kXt., i.k.t _ R U =.@.@.O.=.(.nX>XD n S J O.3., gX[.kX~.N.N.H.9 kXr., i.k.5 i.# 7XoX(.D.{.Q.R.",
"> &XF.q. X6.|.;.% hXZ.yXwXN.].v.= iXP.G y.I.( ] _ _ U =.@.@.O.,.-X=XS y n B V :.$ hX0.yXwXN.].v.= pXR.G u..Xt.v.= pX+Xr.E.oX1.R.",
"X AX_.B.!.K.Q.U., hXA.4XsXN.{.v., lX}.aX+X2.( ' ' _ ] U O.@.O.-.=X=XS ! ,.o.W k., hXA.4XsXN.{.v., 0X{.aX.X8.+Xm.# jXV.x b.B.h n.",
"O dX[.SXR.N.6Xy.# NXM.H.{. XP.a., dX[.wXwX3.[ [ ' _ _ U =.@.@.O.1XBXE E e.O.U ( & NXM.H.}.}.L.p., dX{.wXwX6.N.f.4 z.k.t.r.z.( g.",
"X hX XaXn.{.cXH.6  XA.1XN.'.eXn., uX[.wXdXv.] ] _ _ T I =.@.@.O.r.{ E E H O.V Q 6 |.A.eXN.'.wXV.< uXD.4XjX{.oXH.O 1 u p ; ; 5 ; ",
"O uX[.NX!.{.6XJ.. zXA.C 6.3.C 1.4 uXN.R.SXi.' [ _ I _ ' I V @.@.=.,X{ E i.O.Z ^ X zXA.C x.3.C 1.4 uXA.R.SX{.[.v.w VXK : r.( k t.",
"o dX8.SX~.N.8.v.= DXwXG ZXsXr.<X< uX[.S.ZX[ ' ' T _ ` ' ' ] V @.O.y.{ E ( =.U ] w DXeXG ZXsXr.<X, uX[.S.SXN.N.h.O 2Xf.f 1.k.Q f.",
"X hX[.~.R.{.{.v.9 g H ! K K W b o uX}.R.1X] ' ] M _ ' ' ' ' _ N O.=.Y E G V T _ y g H ! K K W b o uX|.R.SXN.{.G.p ;XwX#X{.R._.W.",
"o qX5Xc.sXN.{.v.q A s 0 1 u 1 1 o dX|.S.^._ ] / 0 _ ' ' ' [ ] _ Z O.F E D V R _ S J s - 1 u 1 1 o gX|.S.jXN.{.v.1 uXN.s.7XoXs.A.",
"$ qX XE.SX{.8.l.= MX:.5 K f.B y., hX[.v.[ ] _ t.0 ^ ' ' ' ' _ ' ^ Z V E Z U _ _ _ dX:.5 K y.B u., hX[.n.`.N.oXf.; gXE.B.7XyX#XM.",
"X mX8.S.~.lXN.H.< 5XM.k.v.OXh.a., hX'.u.] _ T i.- ] ' ' ' ' ' ' ] ] Z m Z I T T _ i.x.k.v.E.f.p., gX8.V.R.oXtXY., dXJ.OXzXOXv.F.",
"X dX[.R.Q.NXoXa.o mXN.R.wXrXN.G.o uX Xl._ _ _ ( 3 _ ` ` ' ' ' ' ' ' _ Z Z _ I ` ' [ x.R.wXrXN.H.O uX XR.Q.lXNXH.X dX XE.ZXD.N.!.",
"o dX}.E.Y.rX{.b., hX[.R.jXoXN.G.4 dX Xb.( ' ' ] n _ ` ` ' ' _ ' ' ' [ I I _ _ ` ' j.A.R.jXOXN.H.4 gX Xn.n.oXtXu.$ dX}.R.kXD.N.U.",
"$ uX}.P.J.N.N.J.< eX|.R.ZX{.N.G., eX[.n.i._ ` ` R _ _ ` ' ' _ ' ' ' ' ` _ _ T _ ` ^.|.R.ZX].N.H., eX|.n.v.N.oXu.% dX{.V.aX{.D.U.",
"$ uX}.V.Q.N.{.b.< uX[.R.aXN.N.G., gX7XyXwX( ` [ _ _ _ ] [ ' ' ' ' ] ' ' _ _ _ _ _ (.[.R.aX].N.H., hX6XyXwX6XtX).% dX[.V.`.N.B.U.",
"X dX}.V.`.XXoXG.$ hX[.P.Q.{.N.h., hX7XyXsXH.] ] I P M I T ' ' ' ` ` ` ` _ ` I I T 1X[.R.Q.{.N.h., hX7XyXsX6X7X`.$ gX[.V.Y.m.D.P.",
". gX'.`.wX6XoXa.O kXA.V.v.{.{.f.$ uX[.V.Q.M.( I e e e e r T _ ' ` ` ` ` ` _ y P P gXA.V.v.{.{.f., uX[.S.Q.N.N.h.$ hX[.P.J.A.{.U.",
". kX[.pX;X{.{.v.$ gX}.R.J.N.{.v.< hX[.V.`.{.b.n e e l e 8 n ` ' ` ` ` ` ` _ P n n dX|.R.J.N.{.v.4 hX[.V.`.}.}.h.% gX[.E.Y.}.oXU.",
"X mX[.jX`.M.6.G.< qX XR.`.8.{.H.o dX[.R.aX6Xn.P e e e e 8 P ' ' ` ` ` ` ` ` _ z 4 qX XR.`.m.{.H.o dXA.R.aX6XXXH.% dX8.!.Q.yXrXU.",
"; CX.XlX}..Xa.B., uX0.E.R.oX6Xv.3 uXXXU.S.SXt._ M e e t n R ' ] ` ` ` ` ` ` _ P 4 yXN.E.R.oX6Xv.3 uXXXU.S.NXB.7.% eX}.L.9.yX#XZ.",
"  2XW.N.M.S.*Xc.< hX[.R.~.tX6Xv.o 8X{.K.S.cX( ' _ M P I _ ' ' ' ` ` ` ` ` ` ` ^ 6 hX[.R.~.tX6Xh.$ 8XD.K.S.NXXX7.+ eXOXP.9.OXL.Z.",
"@ AX*X8.D.W.C.x., dX|.c.~.lX{.f.5 8X}.%Xn.wX[ ' _ ` ` ' _ ' ' ' ` ` ` ` ` ' ` _ y gX|.b.~.lX}.f.5 8X}.%Xc.lXyX5.+ uXOX`.F.D.L.Z.",
"X fX:.8.B.P.d p., dX|.c.~.cXN.h.O bXN.K.W.v._ ' ` ` ' ' ' ' ] _ ` ` ` ` ` ' ' ' P eX|.c.~.cXN.h.O bXN.K.E.5XB.7.% gXOX#X8XD.L.F.",
"4 VXy.sXCXCXk.fX, hX Xx.~.cX{.H.3 8X{._.c.( _ ' ` ` ` ` ' _ ' ' ` ` ` ` ` ` ` ` _ (. Xc.~.cX{.H.3 8X{._.n.{.#Xc.% uX.XOXpXD.L.Z.",
". n b J b v G a , dX{.n.Q.tX[.H.w *XoX).u.] _ [ ` ` ` ` ' ' ' ' ` ` ` ` ` ` ` ` _ ^.|.n.Q.tX[.H.w *XoX).c.B.@Xf.@ gXN.E.bXD.L.Z.",
"  r b u a a b 1 O uX[.W.R. X}.h.. mXm.N i.] ` ` ` ` ` ` ' ' _ ' ` ` ` ` ` ` ` ` ' [ M.~.R. X{.h.X mXx.N Q.M.f f.@ hX].E.MXD./.Z.",
"; k.,.-.U.).u.J.% dX|.yXQ.N.{.h.w *XH.e.^ ` ` ` ` ` ` ` ' ' [ ' ` ` ` ` ` ` ` ` ' ' g.yXQ.N.{.h.w *XV.e.f.P.,.r.+ mX].R.bXV./.Z.",
"# v.i g.`.B.h t.4 gX|.jXR.{.M.H.& a : 0 _ ' ' ' ` ` ` ` ` ` ' ' ` ' ' ' ' _ [ ' ' ' ( jXQ.D.M.G.& a : 0 o 0 0 X , eX$X!.m.$Xk.B.",
"# jXZ.T._.B.1.).< qX[.SXJ.N.XXh.w <XK z Y ] ' ] ` ' ` ` ` ` ' ] ` ] ` ` ' _ ' ' ' _ r.SXJ.N.XXh.w <XK z G Q k J > wXV.$X'.M.<X].",
"  jXoXg.!.].W.K.> iX[.xX~.N.XXv.o hX1.f <.t.U ^ _ _ ` ` ' [ ' _ ' [ ' ' _ _ ] / n -X{.xXW.N.XXv.o hX1.f <.p.V 1.> jXXXP.+X6.).'.",
"$ yXD.h.#X'.W.p.o SXw.wXaXN.N.H.> iX{.Q.c.#X@Xc.= l.Z F Y Y T ^ I I U U Z H b.h.o SXw.wXaXN.N.H.> pX{.Q.c.#X@XZ.o uX;XC 8.H.K 3.",
"@ jX|.eX.X2.F.b.> hXw.qX`.N.{.v., *XOXaXZ..X@X6.w ;X#.| } j j r.f +.} d } >.{.v.> dX0.4X`.N.{.v., *XOXdXZ.E.@X5.t :X-XQ !.).( Y.",
"  jX XmXI.].8XP.4 *X|.OXJ.B.6Xf.3 gX.XwXiXI.U.C.& h  .X. . .j p g .... . .2.6XJ.4 *X|.OXJ.I.4Xf.3 dX!.wXiXI.U.C.  F p a s 5 t u ",
". jX}.mXOX+XmXL.< eX{.h.H.E.6.k.$ uX.Xn.bXI.U.C.q >.*.%...%.d x d $.&...&.2.lXY.< wX}.f.H.E.x.k.o dXI.J.bXI.U.C.= g.x z f x t h ",
"# yXD.mXI.6.4Xp.X AXZ.h ).V.d k.4 aXOXE.MX{.#X5.= XX*.*.*.%.g t.d &...$.&.>.5Xf.X AXZ.h ).S.d k.4 wXOXE.MX.X#X5.< gXr.1 H (.5 f.",
"X dX}.yXY.D.N.J.6 4.*X(.-X&X<X&Xo kX{.n.SX}.N.y.< V.$.%.%.$.2.f.d %.%.%.&.6.N.J.4 4.*X(.-X&X<X&Xo kX[.n.SX{.N.u.= pXN.a.C.m.I.R.",
"+ uX}.wX;XD.N.J.& s u 0 > 1 p ; o dXN.R.ZX{.{.H., M.$.%.*.*.2.g.d %.%.%.X.3.N.H.& s u 0 > 1 p ; $ sXA.R.ZX{.{.G.# pX}.U.*X{.I.n.",
"$ dXA.E.dXD.N.b.L ,XC x W K x W , dX[.R.wXm.{.v., 3.$.%.%.&.3.u.} %.%.%.X.V.N.H.L ,XC x W ,.x W , dX[.R.wXm.{.G.= pX}._.uXXX.XJ.",
"+ kX'.V.dX6XD.v.  vX:.B <.c.C g., dX[.R.!.].6Xh., >.%.%.*.*.M.y.} %.%.%.;.OX{.v.  vX:.B <.7.C d., gX[.R.!.].6Xh.= pX]./.uXXX.XV.",
"  AX0.V.;XxX}.v., 9X3X$XC.6XoXc.o gX[.R.Q.rXcXY., ;.%.%.%.X.M.y. .$.&.$.#.6XXXh., pX3X;XC.5XoX7.O dX[.R.!.rXcXY.= uX]._.iXXXI.S.",
"  AX'.P.E.jXXXv.3 4XN.%X4X}.I.c.o kX[.R.L.rXcXH.< X.%.%.%.X.B.:... .| |  .3.XXh.3 4XN.%XwX}.!.a.o kX[.R.P.rXcXH.# iX{.#XpX3XI.n.",
"X kX[.E.Y.OX}.v.3 kXN./.SXoXB.J., kXA.R.J.{.XXf.2 X.%.$.%.X.x.:. . . . .| g H t.3 eXN.U.SXXXB.J., kXA.R.J.{.oXf.= iX{._.uX{.I.P.",
"$ eX XE.!.8.{.b.# vX3XR.9X0.D.5.o hX8.W.P.N.D.H.p  ...$.*.X.3.G z s a a a a 8 l r F H <.W.8.D.5.o hX8.W.P.N.D.H.= uX'.U.*XM.B.E.",
"X gXI.h.8XyX%X5.3 dX[.V.~.m.{.v., uX[.E.P.D.8.H.u  ....... .x.F 8 l r r r r l l 8 a 8 8 z b 1.v., uX[.E.P.].8.H.% fX[.V.v.|.N.b.",
"% eXOXOX9XD.@X7., dX[.R.Q.m.{.H.< dX|.E.Q.OXN.H., f j } } V {.l.< l.1.K K B b c 8 c z z c a <.H.< dX|.E.Q.OXN.H.@ gX XV.H.[.{._.",
"X qXrXsXZ.8.@X5., dX|.P.P.N.F.H.< dX|.R.`.tXXXy.7 r r l r B oXQ.> wX+X7XF.B.I.5., ;XM.h.f.6.D.H.< dX|.R.`.tXOXv.% gX}.V.Y.7X6X`.",
", uX+XSX9.OX@X6., dX[.V.P.oX{.H., dX[.R.`.lXoXH r 8 r l r b E.h.> dX{.MXZ.OX{.5., dX[.V.R.oX}.H., dX[.R.`.lXoXh.$ uX'.V.W.pX4XJ.",
", *X.XsX9.B.@Xc.< dXA.V.Q.tXoXH., gX[.V.`.lX|.v a 8 l l e c M.f.> ;XN.pXS..X.Xc.< dXA.V.Q.tXXXH., dX[.V.`.lXoXf.% uX[.V.Q.6X}.v.",
"  uXwXv.9.B.%X1.< dXA.V.Q.cXoXH., gX}.R.`.lX{.c r r a r 8 v 6.H.X gX4X6.C.B.#Xf.< dXA.V.Q.cXoXH., hX|.R.`.lXoXh.% dX XW.H.A.N.!.",
"X AX!.h.F.OX/.5., dX}.R.!.NX{.v., dX|.R.Q.rX}.t.4 v z c Z 1.D.H.@ AXR.7.W.@Xb.h., dX|.R.Q.NX{.v., dX|.R.Q.rX{.v.% uX XOXQ.A.8.!.",
"= -Xi K.F.p.p 5., dX XR.P.cX{.f., dX}.R.R.oXN.v., :X3.T.dX{.{.u.3 <Xi C.W.a.i g., dX XR.P.cX}.h., dX[.R.R.oXN.v.< qX'.wXaX+XN.J."
};
