/* XPM */
static char *lamp21696713339[] = {
/* columns rows colors chars-per-pixel */
"64 64 241 2 ",
"   c #0A0300",
".  c #0C0A04",
"X  c #160402",
"o  c #130B02",
"O  c #1C0D04",
"+  c #1D0D0A",
"@  c #161104",
"#  c #1C1404",
"$  c #15110E",
"%  c #1C130A",
"&  c #1C190C",
"*  c #030813",
"=  c #0B1619",
"-  c #191615",
";  c #260803",
":  c #360C0C",
">  c #241503",
",  c #2A1805",
"<  c #22140C",
"1  c #24190E",
"2  c #391509",
"3  c #250B11",
"4  c #261617",
"5  c #241A12",
"6  c #2A1B13",
"7  c #371817",
"8  c #381918",
"9  c #282218",
"0  c #0D1921",
"q  c #161F26",
"w  c #2A1625",
"e  c #331822",
"r  c #2A2226",
"t  c #3B2929",
"y  c #48190A",
"u  c #5B1701",
"i  c #4A1816",
"p  c #631D00",
"a  c #47291A",
"s  c #522812",
"d  c #712B0A",
"f  c #672A1D",
"g  c #693517",
"h  c #733116",
"j  c #511F2D",
"k  c #452928",
"l  c #562A26",
"z  c #593323",
"x  c #583829",
"c  c #6D2C2B",
"v  c #663727",
"b  c #773B28",
"n  c #79441D",
"m  c #5D4532",
"M  c #6A472C",
"N  c #63453A",
"B  c #684839",
"V  c #764A3D",
"C  c #7A4939",
"Z  c #2E2A43",
"A  c #5F4342",
"S  c #694A45",
"D  c #794845",
"F  c #74554E",
"G  c #7F6256",
"H  c #853C32",
"J  c #96531B",
"K  c #8E4F2C",
"L  c #894538",
"P  c #895635",
"I  c #985134",
"U  c #955838",
"Y  c #A85D39",
"T  c #B75E38",
"R  c #9A6F35",
"E  c #986239",
"W  c #A5633C",
"Q  c #A8673A",
"!  c #A36C3E",
"~  c #B5643D",
"^  c #B8683C",
"/  c #BC6D3D",
"(  c #AD743B",
")  c #B9703F",
"_  c #C1723D",
"`  c #924C46",
"'  c #885A47",
"]  c #8B5448",
"[  c #955C44",
"{  c #995E46",
"}  c #905F49",
"|  c #855B53",
" . c #A85D46",
".. c #A45C49",
"X. c #B15E4E",
"o. c #9B6246",
"O. c #966649",
"+. c #9D644B",
"@. c #906E4F",
"#. c #856758",
"$. c #956753",
"%. c #996756",
"&. c #A86746",
"*. c #A26A44",
"=. c #A2654D",
"-. c #AA654E",
";. c #AD6B4C",
":. c #B66745",
">. c #B96541",
",. c #BC6C44",
"<. c #B6644B",
"1. c #B26D4D",
"2. c #BC6C4B",
"3. c #AA7348",
"4. c #B27245",
"5. c #BD7143",
"6. c #B3724C",
"7. c #BE724B",
"8. c #B87A4A",
"9. c #A56B52",
"0. c #AC6C53",
"q. c #AE6658",
"w. c #AA6858",
"e. c #B86757",
"r. c #B26D53",
"t. c #BC6C52",
"y. c #B36D5A",
"u. c #AC7256",
"i. c #A37359",
"p. c #AC735B",
"a. c #B47253",
"s. c #BA7454",
"d. c #B47B57",
"f. c #BB7B55",
"g. c #B5745A",
"h. c #B9755C",
"j. c #BB7A5C",
"k. c #967066",
"l. c #B86961",
"z. c #AA7867",
"x. c #B57767",
"c. c #BA7463",
"v. c #BD7C62",
"b. c #C26D44",
"n. c #C26E49",
"m. c #C27345",
"M. c #C4744B",
"N. c #C9764B",
"B. c #C5794A",
"V. c #CA7B4C",
"C. c #C26D57",
"Z. c #C47452",
"A. c #CA7553",
"S. c #C67A52",
"D. c #CB7B54",
"F. c #C3755C",
"G. c #C7795C",
"H. c #CC7D5A",
"J. c #D17A54",
"K. c #C26A64",
"L. c #C77765",
"P. c #C37D63",
"I. c #C77A71",
"U. c #AC8157",
"Y. c #AD835B",
"T. c #B88756",
"R. c #B6865A",
"E. c #BC855D",
"W. c #A68766",
"Q. c #B98666",
"!. c #B38E68",
"~. c #B98B68",
"^. c #B9986D",
"/. c #AB8F72",
"(. c #B78971",
"). c #BE8974",
"_. c #B89975",
"`. c #BBAA7A",
"'. c #C8814C",
"]. c #C9825A",
"[. c #D28454",
"{. c #D3845C",
"}. c #D68A5B",
"|. c #C8935A",
" X c #D39A5E",
".X c #E2925D",
"XX c #C48265",
"oX c #C88766",
"OX c #C18B65",
"+X c #C9856B",
"@X c #C48D6A",
"#X c #CC8A6B",
"$X c #D88660",
"%X c #D68867",
"&X c #DC8B64",
"*X c #D28C6B",
"=X c #CA936C",
"-X c #C39968",
";X c #D49768",
":X c #C38973",
">X c #CC8D71",
",X c #D38D75",
"<X c #CD9572",
"1X c #CD9974",
"2X c #C89678",
"3X c #D29276",
"4X c #D19A75",
"5X c #D6957B",
"6X c #D49C7A",
"7X c #DD9979",
"8X c #E5936C",
"9X c #E49A6B",
"0X c #E89874",
"qX c #ED9C75",
"wX c #CEA466",
"eX c #DBA36A",
"rX c #CFAE7A",
"tX c #D9A478",
"yX c #E5A86D",
"uX c #E7A678",
"iX c #F3A47A",
"pX c #BAA283",
"aX c #CE9483",
"sX c #DA9B82",
"dX c #CFA88E",
"fX c #D6AF8D",
"gX c #C5B685",
"hX c #CBBE85",
"jX c #E4A283",
"kX c #E8A888",
"lX c #EFB188",
"zX c #CDC186",
"xX c #CEC389",
"cX c #D1C593",
"vX c #D4CC93",
"bX c #D6CB95",
"nX c #DBD59B",
"mX c #E9D09F",
"MX c #EAD0AC",
"NX c #E6D8AA",
"BX c #E9E3A9",
/* pixels */
"% <Xm.;.XX&X{.{ < 1Xm.;.h.,.M.+.< @XV.a.h.,.>.9.< 1XN.;.a.,.7.{ > 2Xs.4.@X&X+XE < <Xm.;.h.,.M.+.1 @XV.r.h.,.>.9.& <Xm.1.9.M.,.-.",
"o Q.[.j.+X,.D.=.< 4XB.1.a.,.M.=.1 =XV.a.v.S.M.9.+ 1XV.;.r.M.D.0.> :XH.S.oX7.F.*.< 4XB.1.a.,.M.=.1 =XV.a.v.A.7.9.% 1XV.1.=.M.M.c.",
"% OX'.7XXX^ ,.0.< 4XM.1.0.,.M.9.1 <XV.a.v.}.A.=.+ 1XV.;.c.J.{.p., XXH.;X].<.t.3.< 4XB.1.0.,.M.9.1 <XV.a.v.$XD.=.% 1XN.1.0.}.{.v.",
"< =Xm.7Xa.D.,.=.< 1Xm.1.r.D.M.9.< <XB.1.v.8XD.+.1 <Xm.;.XX&X{.o., 1XM.;X6.G.2.*.1 =Xm.1.r.D.M.9.1 <XB.1.j.8XD.+.% =Xb.1.j.;X[.0.",
"o 1XB.].;.S.M.{ 1 <X5.1.g.&XS.9.< 1Xm.a.j.0XD.+.< <Xm.;.v.D.D.{ > 6XD.].;.G.Z.E 1 <X,.1.g.&XS.9.< <Xm.a.j.0XD.+.& =Xm.1.g.{.M.;.",
"o 1X[.;.g.,.S.9.4 =X5.a.g.qXS.9.< 4Xm.a.h.8XD.+.< 4XV.a.a.>.M.9.# 4X{.&.d.<.F.*.4 =X,.r.g.qXS.9.< 4Xm.a.h.8XD.+.& 1XV.s.=.5.,.g.",
"$ 2XQ 0.v.:.Y 9.1 =Xm.a.g.qXM.9.< 4Xm.h.r.&XM.0.< <XV.j.v.,.,.9.1 2X:.&.E.<...9.1 =Xm.a.g.qXM.9.< 4Xm.f.a.&XM.9.& @XV.G.g.5.~ g.",
"- (.d g.p.s.h %.< <XB.s.a.qX,.=.< 1X,.s.1.{.,.=.1 @Xm.XX5XD.,.o.5 (.d d.u.j.h O.1 <XM.s.a.qX,.=.< 1X,.s.;.{.,.=.5 OXb.oX>X].2.0.",
"+ @.Q.Q.R.Q.Y.E.% 6Xm.;.a.qXN.=.5 }.,.x.F.>.+XQ w T.M.v.=Xm.L.+.> z.Q.E.Y.Q.Y.T.% 6X,.;.a.qXN.=.5 }.,.x.F.^ +X~ w ].V.Q.}.N.0.a.",
"* = 5 > 5 @ 5   % =XM.1.g.}.M.o.% }.M.C  .2.L U 3 |.m.v.uXV.C.+.* - % # 1 . 1   % =XB.1.g.$XN.o.% }.Z.C  .2.L U - &Xm.Q.9XJ.0.a.",
"3 D L H L ] X.L < OX[.f.j.M.M.o.& uXs.x v.v.f i.+ eX_ h.uXV.F.9.3 D L H L ] =.L 1 OX[.f.j.M.M.o.% uXs.x P.P.f u.$ 9X) x.qXJ.r.s.",
"; ' u  .P.w.h =.< OX[.*Xj.,.M.=.= n g A c v B z < eX_ 1.oX^ H.E z ' u Y XXx.h =.< OX[.*Xj.,.M.=.= n g A c v B l - 9X/ p.[.b.a.6.",
"- pXl } z.%.v %.1 =X'.0Xg.,.b.9.= g s t 2 i k 5 < |.m.y.U.U 0.C /.k.x ] z.%.v %.< =X'.0Xg.2.b.9.0 g y t 2 i k 4 % }.m.p.n.^ h.1.",
"; sX8Xn.X.C.,X<.1 1Xm.7Xh.,.,.9.0 6X' 3 | %.8 | < |.[.9.#.G G S #.F #.#.#.X.%X<.< 1Xm.7Xh.,.,.9.0 6X' 3 | %.7 | $ }.D.z.n.M.g.a.",
", R.6./ V.Q B.J % 1X,.*XXX,.b.=.- ;Xa.B o.s.` =.- =XH.' /.cX/.G F #.^.nXhXo.Z.J % 4X,.#X+X,.b.=.- ;Xa.B { e.] +.- ;XH.' s.D.U a.",
"X dXc.<.h.w.y.y.< 4X5.XX3X,.M.=.< .XM.:XA.T H.~ - wX;.V `.vXvXhXgXzXnXBXnXi.h.a.< 4X5.].1X,.M.=.1 .XB.:XA.~ H.~ $ 7X1.l -.2.g ;.",
"O <Xm.kXr.,.{.[ $ iX4.9.M.M.r. .< <XB.oXXX~ ,.o.4 3.O.#.`.vXnXzXzXxXNXBXnXd.{.{ . iX:.9.M.N.e. .1 <XB.oXXX~ ,.o.6 @.%.| } @.G O.",
"X 4XV.#X;.M.qX9.9 '.,.:X,.b.+X;.< =X7.].3XM.D.9.$ a : B `.vXvXzXzXxXnXBXnXY.iX=.9 '.5.:X,.b.+X;.1 @Xm.].3XM.D.9.+ 2 : i ; ; : ; ",
"O =XM.uXj.M.{.0.. 9X5.b &.Y b U 6 #X5.a.jXM.m.=.r dXC V `.nXvXzXzXxXnXBXnXW.$X9.. ;X5.b :.Y b U 4 =X5.a.jXM.m.=.r pXC : ] | j ' ",
"% <X~ kXj.,.~ =.- lX#XN sX3X' (.1 =Xm.6.kX,.,.+.. 1XE #.rXnXvXzXzXzXnXBXBX^.~ +.- lXoXN sX>X' (.1 =Xm.6.kX,.,.+.X _.+.f U %.D %.",
"o 4Xm.j.a.M.M.=.0 d V F C C S x O =XB.a.kXb.M.9.e T.Z.W.hXvXcXhXzXzXnXBXBX^.) =.0 d V F C C S x O =XB.a.kX,.M.9.i Q.XXL.7.a.c.f.",
"O ~.[.&.3X,.M.=.q n s 4 2 y 2 2 O <XB.6.5X,.M.=.3 ;X,.W.rXvXcXhXzXzXnXBXBX^.4.+.q n s 4 2 y 2 2 O <XB.1.5X,.M.=.: =X7.>.{.H.X.5.",
"% OXB.s.jXM.~ =.- uXK 8 C { v { < 4Xm.;.v.,.D.+.4 ;X4.W.hXnXvXhXzXzXnXBXNX`.:.+.- uXK 8 C { v [ 1 4Xm.;.j.,.D.o.; 1Xs.<.}.%XL.:.",
"X tX/ 6.v.8X,.9.1 [.:.%.=.F.+. .< 4X/ ;.a.D.&Xu.- -X3./.gXnXvXzXzXzXnXBXBX`.7.9.5 [.4.%.=.s.+. .< 4X/ ;.a.D.&Xu.< 2X6.F.9XG.+.8.",
"o 1Xm.a.g.iXH...O tX,.r.+X}.,.9.O =XV.a.g.8XiX9.+ =XN.$.`.bXhX`.`.`.vXNXgXz.B.+.O tX,.a.+X}.,.9.O =XV.6.g.8XiX9.@ <XV.s.sX7.,.h.",
"@ <XN.s.0.}.M.-.1 1Xm.a.5XD.,.9.6 <XV.;.;.D.&X{ < =XB.r.:Xj.3.] #.@.d.z.w.$X,.9.< 4Xm.r.5XD.,.9.6 <XV.;.;.H.&Xo.% <XN.a.6X7.,.y.",
"% =XN.r.0.,.,.0.4 @XB.a.sXn.,.9.< @XB.;.=.,.D.{ 1 =Xm.1.>XN.N.U !.Q.B.a.0.M.~ 0.4 =XB.a.sXn.,.9.< @XB.;.=.,.H.[ & <Xm.1.>X7.7.y.",
"% =XN.1.g.,.M.-.1 =Xm.a.>X,.,.9.< 4X}.#X+X{.&Xx.1 =Xm.;.v.2.M.[ !.Q.V.;.g.2.,.9.1 =Xm.a.>X,.,.0.< 4X}.#X+X{.&Xx.& <Xm.1.v.,.2.y.",
"o <XN.1.v.S.D.9.% 4Xm.r.g.M.,.+.< 4X}.#X,X{.$Xv.< 1XB.r.0.,.M.[ ~.~.B.1.P.H.M.+.% 4Xm.a.g.M.,.+.< 4X}.#X,X{.$Xv.% 1Xm.1.u.~ 2.r.",
"o 1Xm.j.XX{.H...O 6X5.1.=.M.M.+.% =Xm.1.a.,.,.+.< <XB.a.;.n.m.' ~.~.B.j.XX{.D.+.O 6X5.1.=.M.M.+.< =Xm.6.g.,.,.+.% 1Xm.r.0.,.M.y.",
". 6Xm.*X~.M.M.+.% =XB.a.0.,.M.=.1 4Xm.1.v.M.M.+.< <Xm.s.0.D.{.[ !.~.B.#XXXD.,.=.+ <XB.a.0.,.M.=.6 4Xm.1.v.M.N.+.& 1Xm.s.u.S.H.y.",
"o tXm.7Xv.:.~ 9.1 OXV.a.P.~ M.9.O <Xm.r.>X}.D.9.1 <X,.s.a.&X$X[ !.@XB.7Xv.,.~ 9.1 OXV.a.v.~ M.9.O <Xm.a.#X{.H.=.& <X/ s.g.&X$Xy.",
"; aXt.0XA.C. .<.< =X/ s.a.D.{.=.4 =XB.y.3.iX<.! 1 =XB.a.a.$XS.[ !.).2.0XA.C.<.<.< #X/ s.a.H.{.=.4 =XS.y.3.iX<.! & =XA.r.( %XL.4.",
"  _.f.5.:.6.E.*.1 4Xm.a.j.&X{.=.+ |.M.w.6.iXZ.! < @Xm.1.;.H.,.[ !.!.8.4.Q 3.E.Q 1 4Xm.a.j.$X}.=.+ |.7.w.6.iXZ.! @ @XA.r.( G.e.4.",
"# dXT.~ 7.f.6.&.< <XB.;.j.8XM.o.8 |.N.I.;.8X%XE 1 =XB.f.a.M.,.o.!.2Xd.5.4.a.3.*.< <XM.-.j.8XM.o.8 |.V.I.&.8X%XE @ =XG.j.8.7.e.4.",
"X <XK T <.a.d &.< <XM.&.j.qX,.+.+ eX,.w.f.[.<.! < =XV.oX#XM.^ [ !.~.K ,.<.r.d :.1 =XB.*.j.qX,.+.+ eX,.w.f.[.<.! & 1XH.L.|.7.e.8.",
"8 pXO.<X,XaX%.2X< 4XV.*.j.uXM.9.4 |.M.c.3.m.L.*.< =Xm.G.5XN.,.} !./.} 6XaXaX%.:X< 1XV.&.j.qXM.9.4 |.M.c.&.M.L.*.& =XC.F.;X7.e.4.",
". k x M x x N a < <Xm.;.g.&Xm.9.r T.D.x.*.2.K.o.1 <X/ a.7XM.,.o.!.N x M x x B a < <XB.;.g.&Xm.9.r T.S.x.*.2.K.o.% <X2.s.eX7.e.4.",
"  t x y a a x 2 O =Xm.j.a.V.M.+.. tX:.c g.:.f +.1 4X/ a.sXM.m.o.!.m z y a a x , O =Xm.j.a.N.M.+.. tX>.c g.:.f +.# 4Xn.s.yX7.l.4.",
"; %.L H y.x.{ 0.< 4XM.#Xa.,.M.+.r T.;.` o.r.L ' O 4X7.a.jXb.,.[ ~.%.L L w.z.+.9.1 <XB.#Xg.,.M.+.r T.1.` o.r.L ' @ tXm.a.eX1.l.4.",
"$ 9.u O.c.<.g ] 6 1XB.7Xg.M.:.9.* a : w % e w + - ;X7.z.<.A.0.[ !.O.p =.z.:.d ' 6 1XB.7Xg.7.:.9.* a : w < e w @ < @XP.h.>.P.$.2.",
"$ 5X6.u.c.<.E v.1 OXm.jX0.,.S.+.r (.C k N D j M - ].M.x.n.b.g.Y !.~.6.p.x.F.Y z.< OXm.jX0.,.S.+.w (.C k N D l M > oX1.P.b.:.(.b.",
"  5XH.O.h.,.j.w.> ;Xm.0Xj.,.S.=.O 4XU f P ..c E 5 8X[.9.Z.b.1.U !.~.{.&.g.,.M.9.> ;Xm.0Xj.,.S.=.@ 4XU c P ..c W > 7XV.w.N.:.x.b.",
"% *X,.*.L.b.f...% jX/ OX#X,.,.9.> ;XM.g.! L.K.7.. 9X7.x r.&.L I !.~.N.;.g.~ M.=.O jX_ @X#X,.,.9.> ;XZ.g.*.L.K.4.; =X~.b ~ 9.C Y ",
"o 7XV.@XC.T 8.-.> 4X_ ].v.,.M.=.1 E.G.>X4.C.K.Q r <Xp.F z.g.| ' ~.Q.V.oXj.m.M.=.> 4X_ ].v.,.N.+.< E.G.>X4.C.K.E t (.W.D h.z.| 0.",
"  7XV.tXt.b.|.r.6 E.V.G.0.2.H.+.5 <XF.XX=Xt.y.3.* g s 8 a s 7 z U.Q.N.7Xa.B.{.0.6 E.B.G.0.2.H.+.1 <XF.oX-Xt.e.3.  M i a s 7 t y ",
". 7XB.tXF.H.tXe.4 OXM.o.9.s.:.$.% =Xt.0.eX2.e.3.q U g t l v 7 P rXR.D.jXg.D.8Xp.1 @XN.o.9.s.:.$.% =Xt.0.eXt.l.3.- O.l k f l t g ",
"@ #Xm.tXt.Y ]...o fX4.g x.1.d %.6 +XG.s.yXZ.L.E - tXP 7 D %.z T.mX^.W 7Xh.^ ].{ o fX4.g x.;.d $.6 #XG.s.yXZ.L.E 5 1X' 2 C k.8 +.",
"o <XM.*X0.7.,.0.9 R Q.z.W.Y.(.Y.O 6Xm.;.jXM.,.{ 1 <X,.U u.o.' ^.NXfXO.9.;.M.,.0.9 R E.z.W.R.(.Y.O 6Xm.;.jXM.,.{ - ;X,...3.~ t.a.",
"@ =XN.XXQ.7.,.0.* s y e , 2 i ; + <X,.a.sXM.M.0.< <XB.;.d.Y.^.fXtXMXrXR.u.,.,.9.* s y e , 2 i ; + <X5.a.sXM.N.9.$ ;XN.y.Q.M.t.1.",
"% 1Xm.s.<XM.,.-.Z /.b j S C l S < =Xm.a.+X>.M.=.1 <XV.a.x.i.MXMX^.mXMXW.x.B.,.9.Z /.b j S C l S < <Xm.a.+X>.M.=.- ;XN.c.=XS.C.;.",
"@ 6Xb.1.<X}.7.=.  wXK v P *.b ' < 4Xm.a.j.b.{.+.1 =XB.a.<X6.).Q.N R.OXo.<X{.M.=.  wXK v P *.b ' < <Xm.a.h.,.$X+.- ;Xn.l.=XS.C.1.",
"  fX/ 1.Q.0XM.=.< ;X'.v.3.[.H.! O <Xm.a.g.$XqXp.< #XB.a.3XD.M.O.O <X5.;.XX8XS.+.% ;XV.v.3.[.H.! O <Xm.a.h.}.qXp.- =Xb.c.-XV.t.6.",
"  jXb.r.h.7XD.=.4 |.,.I.XXV.C.&.O 6Xm.a.r.}.qX9.1 @XV.f.5XD.M.o.O 6XB.;.g.8XH.=.4 ].,.I.XXA.C.*.O 6Xm.a.r.{.qX9.$ =XN.L.;XD.t.;.",
"o 6Xm.s.u.H.M.=.4 6X,.e.jXH.<.0.< 6X,.a.0.M.D.o.% @XV.s.3XN.7.+.& #XV.1.a.D.S.9.4 4X,.l.jXD.<.0.< 6X5.a.q.M.D.o.- ;XM.c.=Xm.t.r.",
"% @XM.s.g.~ M.=.@ wX'.a. X_ 7.U + 6X~ f.r.,.7.9.6 =XB.;.XX,.2.9.4 Q.[.a.g.~ M.9.$ wX'.a. X_ 7.E + 4X^ f.r.,.m.9.- -Xb.y.E.4.<.s.",
"o 1Xt.=.|.&XI.E 5 1Xm.1.j.>.M.=.< =Xm.s.r.n.~ 9.+ 6X,.;.g.>.S.[ # 6X7.Q @X&XG.E 4 =Xm.1.j.>.M.=.< =XM.s.r.n.~ 9.& =Xm.1.9.M.,.-.",
"% OXH.G. Xn.K.! < <Xm.a.g.>.M.9.1 <XB.s.g.D.,.9.O 6XB.;.a.,.H.9.> :XD.'.;X<.Z.=.< <Xm.a.g.>.M.9.1 <XB.s.g.D.,.9.% 4XV.1.=.M.M.c.",
"o OX$X*X4.>.K.E < <XM.r.r.,.7.9.1 <XB.a.v.&XS.=.% <XV.;.h.{.{.p.> +XH.}.8.<.t.E < <XB.a.r.,.7.9.1 <XB.a.v.&XS.=.% 1XN.1.u.}.{.v.",
"1 =XH.jX( G.K.Q < <Xm.1.r.D.M.9.< <Xm.a.v.8XD.+.1 @XV.;.L.8XD.+., <XM.yX4.H.A.E < <Xm.1.r.D.M.9.< <Xm.a.v.8XD.+.% =Xb.1.j.;X[.0.",
"< E.t.3X( 2.K.*.1 <X5.1.g.&XD.9.< <Xm.1.v.8XD.o.1 @XV.;.j.}.M.{ , Q.,.;X6.C.A.*.1 <X5.1.g.&XD.9.< <Xm.1.v.8XD.o.& =Xm.6.g.{.M.-.",
"  =X+X=.( <.I.U 1 <X5.1.g.qXD.9.< 4XM.a.v.8XD.+.< <XD.a.r.,.,.9.o 2X{.Q 3.<.L.o.1 <X5.1.g.qXD.9.< 4XB.a.v.8XD.+.& 1XV.s.=.5.,.h.",
"X fXh.+.8.F.l.E < <XB.a.g.iXM.=.< <XM.a.g.}.M.=.< 2XB.j.v.~ M.9.o dXs.Q d.K.-.+.< <XB.a.g.iXM.=.< <XB.a.g.}.M.=.& =XN.G.g.5.^ h.",
"- W.u w.8. .i E < <XV.a.r.qXM.+.< 4Xm.a.a.D.,.=.< <X/ #X5XM.M.{ 5 (.u 3.d...u O.< <XV.a.r.qXM.+.< <Xm.a.a.D.,.=.5 OXb.+X#X].,.0."
};
