/* XPM */
static char *perso21695915092[] = {
/* columns rows colors chars-per-pixel */
"64 64 241 2 ",
"   c #0A0300",
".  c #0C0A04",
"X  c #160604",
"o  c #130B02",
"O  c #1C0D04",
"+  c #1D0D0A",
"@  c #161104",
"#  c #1C1404",
"$  c #15110D",
"%  c #1C130A",
"&  c #1C190C",
"*  c #030813",
"=  c #0B1619",
"-  c #171615",
";  c #191615",
":  c #260803",
">  c #370C0E",
",  c #261604",
"<  c #22140C",
"1  c #24190E",
"2  c #391509",
"3  c #250B11",
"4  c #251617",
"5  c #241A12",
"6  c #2A1B13",
"7  c #381918",
"8  c #262218",
"9  c #36271B",
"0  c #111B23",
"q  c #2A1625",
"w  c #331922",
"e  c #192123",
"r  c #2B2226",
"t  c #3B2B27",
"y  c #3E3023",
"u  c #511806",
"i  c #4A1816",
"p  c #482A1A",
"a  c #512710",
"s  c #6E2B0A",
"d  c #672A1D",
"f  c #693517",
"g  c #6A361C",
"h  c #77371A",
"j  c #511F2D",
"k  c #482E29",
"l  c #562A26",
"z  c #44362A",
"x  c #4C3D2E",
"c  c #543A27",
"v  c #533D2C",
"b  c #593A29",
"n  c #4F3F30",
"m  c #6D2C2A",
"M  c #653727",
"N  c #663C24",
"B  c #773B28",
"V  c #79441D",
"C  c #49442E",
"Z  c #54412F",
"A  c #5D422C",
"S  c #4F4030",
"D  c #4B4931",
"F  c #514131",
"G  c #5B4533",
"H  c #594A34",
"J  c #67462B",
"K  c #774B2C",
"L  c #7B522D",
"P  c #664834",
"I  c #644A35",
"U  c #654B39",
"Y  c #6A4B39",
"T  c #734C39",
"R  c #7A4939",
"E  c #6B5238",
"W  c #6C523D",
"Q  c #73523D",
"!  c #7B563B",
"~  c #2E2A43",
"^  c #5F4342",
"/  c #684A45",
"(  c #755744",
")  c #76514A",
"_  c #786448",
"`  c #95370E",
"'  c #8B3812",
"]  c #853C32",
"[  c #96531B",
"{  c #8B4D2B",
"}  c #89542A",
"|  c #955828",
" . c #894538",
".. c #855837",
"X. c #955938",
"o. c #9E5C3D",
"O. c #A85D39",
"+. c #B35E35",
"@. c #8D633B",
"#. c #986239",
"$. c #986738",
"%. c #AB6228",
"&. c #B86928",
"*. c #A4693A",
"=. c #B5643D",
"-. c #BA6A3C",
";. c #AD743B",
":. c #BA703E",
">. c #C46D28",
",. c #CB7128",
"<. c #C1723D",
"1. c #924C46",
"2. c #885746",
"3. c #895B46",
"4. c #965B45",
"5. c #995E46",
"6. c #855B53",
"7. c #A85D46",
"8. c #A45C49",
"9. c #B15E4E",
"0. c #886649",
"q. c #956747",
"w. c #9B6246",
"e. c #9C644B",
"r. c #9B714B",
"t. c #996756",
"y. c #996A53",
"u. c #947456",
"i. c #A76743",
"p. c #A2654D",
"a. c #AA654E",
"s. c #A36A4D",
"d. c #AD6B4C",
"f. c #B66747",
"g. c #B96541",
"h. c #BC6C44",
"j. c #B26D4D",
"k. c #BC6C4B",
"l. c #A97546",
"z. c #B27245",
"x. c #BD7143",
"c. c #B3724C",
"v. c #BE724B",
"b. c #B87B49",
"n. c #A56B52",
"m. c #AC6C53",
"M. c #AA6858",
"N. c #B86757",
"B. c #B26D53",
"V. c #BC6C52",
"C. c #B36D5A",
"Z. c #AB7255",
"A. c #A9735A",
"S. c #B47253",
"D. c #BA7454",
"F. c #BB7B55",
"G. c #B5745A",
"H. c #B9755C",
"J. c #BB7A5C",
"K. c #9A6F68",
"L. c #B86961",
"P. c #AB7966",
"I. c #B57767",
"U. c #B97563",
"Y. c #BD7C62",
"T. c #C26D44",
"R. c #C26E49",
"E. c #C27345",
"W. c #C4744B",
"Q. c #C9764B",
"!. c #C5794A",
"~. c #CA7B4C",
"^. c #C26D57",
"/. c #C47452",
"(. c #C67A52",
"). c #CB7B54",
"_. c #C6775A",
"`. c #CC7D5A",
"'. c #D27952",
"]. c #C26A64",
"[. c #C77765",
"{. c #C37D63",
"}. c #C77A71",
"|. c #BB854A",
" X c #AD835B",
".X c #B78559",
"XX c #BB855C",
"oX c #9C8473",
"OX c #AD8B6C",
"+X c #B98667",
"@X c #B98A69",
"#X c #B78971",
"$X c #C8854C",
"%X c #CC924E",
"&X c #C9825A",
"*X c #D28454",
"=X c #D3845C",
"-X c #D68A5A",
";X c #CF9550",
":X c #C8935A",
">X c #D39956",
",X c #DC9D54",
"<X c #E2925D",
"1X c #DFA055",
"2X c #C78565",
"3X c #C18B65",
"4X c #C9856B",
"5X c #C58D6A",
"6X c #CC8A6B",
"7X c #D88660",
"8X c #DC8B64",
"9X c #D48B6A",
"0X c #C8946B",
"qX c #CA936C",
"wX c #D59F67",
"eX c #D49768",
"rX c #C98C72",
"tX c #D38D75",
"yX c #CD9572",
"uX c #C89677",
"iX c #CD9974",
"pX c #D19A75",
"aX c #D89678",
"sX c #D49C7A",
"dX c #E5936C",
"fX c #E49A6B",
"gX c #E79974",
"hX c #ED9C75",
"jX c #CEA466",
"kX c #DBA36A",
"lX c #D4A075",
"zX c #D9A478",
"xX c #E6A774",
"cX c #F3A47A",
"vX c #B99786",
"bX c #CE9383",
"nX c #DA9B82",
"mX c #D7A989",
"MX c #E4A283",
"NX c #E8A988",
"BX c #EFB188",
/* pixels */
"% yXE.d.2X8X=X5.< iXE.d.H.h.W.e.< 5X~.S.H.h.g.n.1 yX!.d.S.h.v.5., uXF.z.2X9X4X#.< iXE.d.H.h.W.e.< 5X~.S.H.h.g.n.& yXE.j.s.W.h.a.",
"o +X*XJ.4Xh.(.p.< pX!.j.S.h.W.p.1 qX~.S.Y.(.v.n.+ pX~.d.m.h.v.p., #X_.b.:XN._.i.< pX!.j.S.h.W.p.1 qX~.S.Y./.W.n.% yX~.j.n.W.W.U.",
"% 3X~.aX2X=.h.m.< pX!.j.m.h.W.n.5 yX~.S.Y.7X).p.+ pX~.w.2.Y ( U y ( 2.q.q.4.a.i.< pX!.j.m.h.W.n.1 yX~.S.Y.7X(.a.% iXQ.j.Z.-X=XY.",
"< qX!.aXS.).h.p.< yXE.j.B.).W.n.< yX!.j.Y.dX).e.< yXE.w.( n n n x x x x x G ..q.< yXE.j.B.).W.n.< yX!.j.Y.dX).e.% qXT.j.J.eX).m.",
"o iX!.&Xd.).W.5.1 yXx.j.G.8X(.n.< iXE.S._.dX).e.< yXE.q.Y F F S F S F S F F 2.X.1 yXh.j.G.8X(.n.< iXE.S.J.dX).e.& qXE.j.G.=XW.a.",
"o iX*Xd.G.h.(.p.4 qXx.S.G.hX(.n.< pXE.S.H.dX).e.< pX~.e.Y F S F S F S F v G q.q.4 qXh.B.G.hX(.n.< pXE.S.J.dX).e.& iX~.D.s.x.h.H.",
"% uX*.m.Y.f.O.n.1 qXE.S.G.hXW.n.< pXE.H.S.8XW.n.< yX~.n.W F S F F F F S F A ..p.5 qXE.S.G.hXW.n.< pXE.F.D.8XW.n.& 5X~.`.G.x.=.J.",
"- #Xs H.A.D.h t.< yX!.D.S.hXh.p.< iXh.D.d.=Xh.p.1 5XE.n.( S F S F S F S F G m q.< yX!.D.S.hXh.p.< iXh.D.d.=Xh.p.5 3XR.2XrX&Xh.m.",
"O u.+X2X.X+XP..X% sXE.d.S.hXQ.p.5 7Xh.I._.g.4Xi.q .X!.n.W S Z v S F S F n U u..X% sXx.d.S.hXQ.p.5 -Xh.I.^.g.4Xg.q &X~.+X-X~.m.S.",
"* = 1 , 5 @ 5   % qX!.j.G.7XW.w.% =XW.R 7.k. .X.3 :Xx.y.( S S C F S F S n z 6   % qX!.j.G.7XQ.w.% -X/.R 7.k. .X.; 8XE.+XfX'.m.S.",
"3 )  .]  .2.9. .< 3X*XF.J.W.W.w.& xXS.b Y.{.d M.% kX<.e.W Z C Z F F S F F U 5. .< 3X*XF.J.W.W.w.& xXD.b Y.{.d A.$ fX:.I.hX'.B.D.",
": 2.u 7.{.M.h a.< 3X*X9XJ.h.W.p.= V f ^ m M U c < wX=.X.K N A A b b Z Z b T h p.< 3X*X9XJ.h.W.p.= K g ^ m M U l ; fX-.A.=XT.S.c.",
"; oXM e.P.t.M t.< qX$XgXG.h.T.n.= f a t 2 i k < < r...K ' ` ` ` ' ' ` ' ' { M 0.< qX$XgXH.h.T.n.= f u t 2 i k < % -XE.A.T.=.H.j.",
": bXdXR.9.^.tXf.< iX!.aXH.h.h.n.0 sX2.3 6.t.7 6.< q.Q G A J g h h h h h g N Q T 6 0XE.aXH.h.h.n.0 sX3.3 6.t.7 6.$ -X).P.R.W.H.S.",
",  Xb.T.~.*.!.[ % pXh.9X4Xh.T.p.; eXC.Y 4.S.2.a.; 0XD.! ! E E E I Z H D Z Z U J 6 0Xh.9X4Xh.T.p.- eXZ.U 5.V.1.p.- eX).3.D.).X.S.",
"X mXL.k.H.M.C.C.< pXz.&XtXh.W.p.< <XW.rX).+.`.=.3 jXd...|.|.|.|.l.|.l.$.L @.m.m.< pXz.2XtXh.!.e.< <XW.rX/.=.`.g.$ aXj.l a.k.f d.",
"+ yXE.NXB.h.=X5.$ cXf.n.W.W.B.7.< yX!.2X2X=.h.w.4 l.q.y.%X%X%X1X>X1X1X1X;X$X`.4.  cXf.n.W.Q.N.7.< yX!.4X2Xg.h.w.6 u.t.6.0.u.) e.",
"X pX~.6Xd.W.hXn.8 $Xx.5Xh.T.4Xd.< yXx.&XtXW.).n.. a 2 K $X,X,X,X1X1X1X>X%X|.gXe.8 $Xx.5Xh.T.4Xm.5 5XE.&XtXW.(.n.+ 2 2 i : : 7 : ",
"O qXE.xXJ.W.=Xm.. fXz.B i.O.B X.6 qXx.S.MXW.v.p.r oXJ ! ;X1X1X1X,X,X1X%X;.K t.4.. fXh.B i.O.B X.6 yXx.S.MXW.E.p.r vXR 2 2.) j 2.",
"% yX=.NXJ.h.g.p.; BX6XU nXtX2.#X< qXW.c.NXh.h.e.$ W x ..;X,X,X,X;X|.;.q.! v z P 8 NX6XU nXtX2.#X< qXE.c.NXh.h.e.X #Xe.d 4.t.) e.",
"o iXE.J.S.W.W.e.0 s T ) R R / b + qX!.S.NXT.W.n.w Q Z Q |.,X;X;X%X_ D Z n n F P 0 s R / T R / b O qX!.S.NXh.W.n.i +X2X[.R.B.U.F.",
"+ 3X*Xi.tXh.W.p.e V a q 2 i 2 2 O yX!.c.aXh.W.p.3 0.v v ! |.,X;X|.! A C F F F ! e K a 4 2 u 2 2 O yXW.c.aXh.W.p.2 qXR.9.-X`.9.E.",
"% 3X!.D.MXW.g.p.- xX{ 7 R 4.M 5.< pXE.d.Y.h.).e.4 r.A z J | *.;.@.J C C n F U 4.; xXX.7 R 5.M 4.< pXE.d.J.h.).w.: yXD.f.-X9X[.g.",
"X zX:.c.Y.dXh.n.1 *Xh.t.p.^.e.7.< pX-.d.S.).8XZ.- u.J J | &.$.%.} A x v v F ! q.1 *Xf.t.p.D.e.7.< pX:.d.S.).8XZ.3 uXc._.fX_.e.b.",
"o iXE.S.G.cX).8.+ zXh.S.4X-Xh.n.O qX~.S.G.dXcXs.< ( G K %.&.$.&.} A x x x S Z P 1 lXh.S.4X-Xh.n.O qX~.S.G.dXcXn.@ yX~.D.nXv.h.G.",
"@ yXQ.D.Z.7XW.a.< pXE.S.aX).T.n.6 yX~.d.d.(.8X4.9 G x K %.&.%.%.K Z Z v x S S x 9 5XE.S.aX).h.n.6 yX~.d.d.).8Xw.% yXW.S.sX!.h.C.",
"% qXQ.B.m.x.h.m.1 5X!.S.nXR.h.n.< 5X!.d.e.h./.T c A x J %.>.&.$.! I Z C x S S x t P.!.S.nXE.h.n.< 5X!.d.p.h.).5.& yXE.j.rXv.v.C.",
"% qXQ.j.G.h.W.a.1 qXE.S.rXh.h.n.< pX-X6X4X`.s.P A b x A } &.*.|.|.@.H C F F F x 9 +XE.S.tXh.h.n.< pX-X6X4X=X8XI.& yXE.j.Y.h.k.C.",
"o yX~.j.Y.(.(.p.% pXE.B.G.W.h.e.< pX-X6X4Xp.G b c x S Z A L $.l.q.E F n S F x I 1 yXE.S.G.W.h.e.< pX-X4XtX=X7XY.% iXE.j.Z.g.k.B.",
". iXE.J.4X&X`.8.O sXx.j.p.W.W.e.% qXE.j.e.P n n x C x Z S S H G Z Z S n x x v 2.O sXx.j.p.W.W.e.< qXE.c.G.h.h.e.% pXE.B.m.x.W.C.",
". sXE.6X+X!.W.p.% yXW.S.m.h.W.p.1 pXE.j.n.P Z S x x x S S F S x S S x x x Z P 5.+ yX!.S.m.h.W.p.6 pXE.j.{.W.W.e.& iXE.D.m.).`.C.",
"o zXE.gXY.f.=.n.1 3X~.S.{.=.W.n.O yXE.S.rXZ...U z Z x v A F F S v C x x n F P e.1 3X~.S.Y.=.W.m.O yXE.S.rX=X).s.& yX-.D.G.9X-XC.",
": nXV.dXQ.^.7.f.1 qX-.D.S.(.=Xp.4 qX(.C.c.cXf.#.y G Z } %.| J v x x n S S F Y 7.< qX-.D.S.).=Xp.4 qX(.G.l.cXf.i.& qX/.N.;.9X[.z.",
". #XF.x.f.c.+Xi.1 pXE.S.J.8X=Xp.+ :XW.M.c.cX/.#.y F J | >.&.| v x x F F F F E #.1 iXE.S.J.8X=Xp.+ :Xv.M.c.cX/.*.@ 5X).B.;._.N.z.",
"@ mXXX-.v.F.c.i.< yX!.d.J.dXW.e.7 :X~.}.i.dX9X..y F J %.,.>.| Z S S F S S F U w.< yXE.a.J.dXW.w.7 :XQ.}.d.dX9X$.@ qX`.J.b.v.N.z.",
"X uX{ +.k.B.s 7.< yXW.i.J.hXh.e.+ kXh.M.F.*Xf.q.z S L %.,.>.| Z S F S F F Z c o.< yX!.i.J.hXh.e.+ kXh.M.F.=Xf.$.& iX_.[.:XW.N.b.",
"8 vX4.aXbXbXt.uX< pX~.i.J.hXW.n.4 :XW.U.i.W.[...z F L &.,.>.{ Z S S F S S F G P.< pX~.i.J.hXW.n.4 :XW.U.i.W.[.i.& qX^._.eXv.N.z.",
". k b I b b P p < yX!.a.G.8XE.n.r .X).I.i.k.L.! x F } &.,.>.} c S F S F F S F p < yX!.d.G.8XE.n.r .X(.I.i.k.].w.# yXk.D.kXv.N.z.",
"  9 b i p p b 2 + qXE.J.S.!.!.e.. zXg.m G.g.d Q C Z } &.,.>.} Z S F F S S S F 9 + qXE.J.S.~.W.e.o zX=.m G.f.d e.# iXR.D.xXv.L.z.",
": y. .] C.I.5.d.< yX!.6XG.h.W.e.r .Xd.1.w.j. .U x G | &.&.%.L Z S F S F S Z Z 3.1 yX!.6XG.h.W.e.r .Xj.1.w.B. .3.@ zXR.c.kXj.L.z.",
"$ p.u w.Y.f.f 1.6 iX!.aXJ.v.h.s.* p > q % w q 7 x Z } %.%.%.} x S S F S F F F ( 6 pX!.aXG.v.f.n.* p > q : w q % < 5X{.H.g.{.t.k.",
"$ aXc.A.U.k.#.I.1 3XE.MXm.h.(.e.r #XR k U ) j v x x c b b J v x S F S F S F F ( 6 3XE.MXm.h.!.e.r #XR k Y ) j J , 6Xj.{.T.f.#XT.",
"  aX*Xq.H.h.F.M., eXE.gXJ.h.(.p.O pXX.d ..8.m T n n x x x x z x S S F S v S F Q , eXE.hXJ.h.(.p.O yXX.d ..8.m #., aX!.B.'.i.I.T.",
"% tXh.w.[.T.F.8.+ MX<.2X6Xh.h.n., eXW.G.i.[.].X.9 Q G n Z Z x x n S S F F G G T < MX<.6X6Xh.h.m., eX/.G.i.[.].z.O qX+XB =.n.R O.",
"# aX~.5X^.+.b.a., pX<.XXY.h.W.a.< XX_.rXz./.].*.r +X3.n v n n z z x x F ! *.i.w., pX:.&XY.h.W.p.< XX_.rXz./.].#.t #XP.) D.I.) U.",
"  aX~.zXV.R.:XN.6 XXW.`.m.k.`.e.5 iX_.2X0XD.N.l.* f p z n x z n n n S / 4.W.=Xm.6 XX!.`.m.k.&Xp.4 yX_.2X0XV.N.l.  J i p a 7 t a ",
". aX!.zX[.'.zXN.5 5XW.w.n.D.i.t.% qXV.m.kXk.L.l.e X.M t n x z n n S S ( y.(.dXZ.5 5XW.w.n.D.i.t.% qXN.m.kXV.L.l.- q.l k d l r g ",
"% 6Xx.zXN.*.&X7.o mXz.g I.j.s t.6 6X_.v.xX/.[.o.; zX..p F n x x n n F ( t.=.=X5.o mXz.f I.d.s t.6 6X_.D.xX/.[.#.< iX3.2 R K.7 w.",
"o yXQ.9Xm.v.h.m.8 $.+XP.OXG.#X XO sXE.d.MXW.h.5.1 yXh...Q F F x x F x ( 5.W.h.m.8 $.+XP. X X#X XO sXE.d.MXQ.h.5.; eXh.7.c.=.V.S.",
"@ qXW.2X+Xv.h.m.* a i q , 2 i : + yXx.S.nXW.W.n.1 yXE.p.6.F F G z F F E Z.h.h.n.* a u w 1 2 i : + yXx.S.nXW.W.n.$ eXQ.C.XXv.V.c.",
"% yXE.D.yXv.h.a.~ OXB l / T l / < yXE.S.4X=.Q.p.< yX~.s.0.n F Y z F Z U I.!.h.n.~ OXB l / R l / < yXE.S.4Xg.W.p.; eXQ.L.qX(.H.a.",
"@ sXT.j.yX7XW.p.  jX} M } i.B 0.< yXE.S.H.R.=Xe.1 qX!.d.y.F F T y G x I P.=XW.p.  jX{ M ..i.B 0.< yXE.S.H.R.=Xe.; eXR.U.0X).^.j.",
"  mX-.j.+XgXW.p.5 >X$XY.l.*X`.i.O yXE.S.G.7XhXA.< qX!.Z.A.G F Q 9 H n U y.dX(.p.; >X$XY.l.*X`.*.O yXE.S.G.-XhXA.- eXR.U.0X(.V.j.",
"  mXT.B.G.aX).p.4 &XT.}.2X/.^.i.O sXE.S.B.7XhXn.< 5X~.D.P.G S Q 9 U n G 3.dX).p.4 &Xk.}.2X_.^.7.O sXE.S.N.7XhXn.$ qXQ.[.wX~.V.d.",
"o sXE.D.Z.(.W.p.4 pXk.L.MX).f.m.< pXx.S.m.W.).w.< 5X~.c.A.H Z T 9 W F G ( )._.p.4 pXh.L.MX).f.m.< sXx.S.m.W.).w.; 0XW.U.qXE.V.B.",
"< 5XQ.D.G.-.W.d.$ jX$XS.>XE.v.X.3 pX-.F.B.h.v.n.6 qXW.p.y.F S W 9 W F F Q O.W.n.% jX$XS.>XE.k.#.+ pX-.F.B.h.v.n.& 0XR.B.XXf.k.D.",
"o iXV.m.:X9X}.#.5 yXE.j.J.g.W.p.< qXE.D.B.R.=.n.+ sXh.p.3.F F U 6 ( F Z W _._.$.4 yXE.j.J.=.W.p.< qXE.D.B.R.=.n.& yXE.j.s.W.h.a.",
"% 3X`._.>Xk.].*.< yXE.S.G.g.W.n.1 yXW.D.G.).h.n.+ pXE.q.( n n U 8 ( S n Y 4./.s.< yXE.S.G.g.W.n.< yX!.D.H.).h.n.% iX~.j.s.W.W.U.",
"o 3X=X9Xc.g.].#.< yXW.B.B.h.v.n.1 yX!.S.Y.8X(.e.% @Xi.! F n C H 9 U x C F R B.#.< yX!.S.B.h.W.n.5 yX!.S.Y.8X(.p.% iXQ.j.Z.-X=XY.",
"< qX`.MX;._.].*.< yXE.j.B.).W.n.1 yXE.S.Y.dX(.4.9 W H C C C C H 9 H C z Z Y /.#.< yXE.j.B.).!.n.< yXE.S.Y.dX).e.% qXT.j.J.eX*Xm.",
"< XX^.tX;.R.].i.5 yXx.j.G.8X).n.< yXE.j.+X8X/.U C D D D D D D H z C D D D H j.i.1 yXx.j.G.8X).n.< yXE.j.Y.dX).w.& qXE.j.G.=X!.a.",
"  qX4Xp.;.9.}.#.1 yXx.j.G.hX).n.< pXW.S.Y.dXv.0.( _ _ _ _ _ u._ D D D D D H n.q.1 yXx.j.G.hX).n.< pX!.S.Y.dX).e.& yX~.D.s.x.h.H.",
"o MXH.e.b._.L.#.< yX!.S.G.cXW.p.< yX!.S.G.7Xx.y.U OX X XP.d.F.r._ _ _ _ _ 0.5.w.< yX!.S.G.cXW.p.< yX!.S.G.7XW.p.& qX~.`.G.h.=.G.",
"- OXu M.b.7.i $.< yX~.S.B.hXW.e.1 yXE.S.S.).h.p.< 0X-.3XaXW.!.q.H OXA.@X#Xm.u q.< yX~.S.B.hXW.e.< yXE.S.S.).h.p.5 3XT.2XrX=Xh.m."
};
