/* XPM */
static char *persof1695915093[] = {
/* columns rows colors chars-per-pixel */
"64 64 246 2 ",
"   c #0A0300",
".  c #0D0A05",
"X  c #160402",
"o  c #130B02",
"O  c #1C0D04",
"+  c #1D0D0A",
"@  c #161104",
"#  c #1C1405",
"$  c #15110E",
"%  c #1C130A",
"&  c #1C190C",
"*  c #040913",
"=  c #0B1619",
"-  c #191615",
";  c #260803",
":  c #370C0E",
">  c #271705",
",  c #22140C",
"<  c #24190E",
"1  c #391509",
"2  c #250B11",
"3  c #251617",
"4  c #251A12",
"5  c #2A1C13",
"6  c #381918",
"7  c #2A2217",
"8  c #352419",
"9  c #0F1A22",
"0  c #291724",
"q  c #331823",
"w  c #192123",
"e  c #2B2225",
"r  c #3B2B25",
"t  c #3D3325",
"y  c #501806",
"u  c #4A1816",
"i  c #4D2911",
"p  c #462A1A",
"a  c #512811",
"s  c #6F2B0A",
"d  c #672A1D",
"f  c #693517",
"g  c #68351C",
"h  c #743419",
"j  c #511F2D",
"k  c #452826",
"l  c #562A26",
"z  c #443326",
"x  c #4A3626",
"c  c #463629",
"v  c #483629",
"b  c #453D29",
"n  c #4C3A2C",
"m  c #563825",
"M  c #533C2C",
"N  c #593B2A",
"B  c #563E30",
"V  c #6B2C2A",
"C  c #663726",
"Z  c #633A23",
"A  c #743D21",
"S  c #773B28",
"D  c #79441D",
"F  c #47422A",
"G  c #4A442C",
"H  c #59412D",
"J  c #564732",
"K  c #5C4232",
"L  c #63422B",
"P  c #6B4629",
"I  c #764A2A",
"U  c #624533",
"Y  c #674A37",
"T  c #694A39",
"R  c #764D36",
"E  c #7A4A39",
"W  c #6B543D",
"Q  c #775238",
"!  c #2E2A43",
"~  c #5F4342",
"^  c #684A45",
"/  c #7A4E4B",
"(  c #6A5746",
")  c #795844",
"_  c #78644A",
"`  c #94370E",
"'  c #893916",
"]  c #853C32",
"[  c #96531B",
"{  c #8A4E2A",
"}  c #895329",
"|  c #975829",
" . c #884639",
".. c #875738",
"X. c #945939",
"o. c #9A5D3C",
"O. c #AD5D30",
"+. c #AA5D38",
"@. c #8C633A",
"#. c #986239",
"$. c #966839",
"%. c #AC642C",
"&. c #B56529",
"*. c #B96628",
"=. c #BB692A",
"-. c #A5693B",
";. c #B5643D",
":. c #BA6A3C",
">. c #AC743C",
",. c #B9703F",
"<. c #C46C29",
"1. c #C86F29",
"2. c #C1723D",
"3. c #924C46",
"4. c #8A5446",
"5. c #895A46",
"6. c #955C44",
"7. c #995E46",
"8. c #975A4A",
"9. c #855B53",
"0. c #A85D46",
"q. c #A45C49",
"w. c #B15E4E",
"e. c #896549",
"r. c #966647",
"t. c #9B6246",
"y. c #9D644B",
"u. c #996756",
"i. c #906F50",
"p. c #976C54",
"a. c #967357",
"s. c #A96643",
"d. c #A26A44",
"f. c #A2654D",
"g. c #AA654E",
"h. c #A46A4C",
"j. c #AD6B4C",
"k. c #B96541",
"l. c #B46B43",
"z. c #BC6C44",
"x. c #B66549",
"c. c #B26D4D",
"v. c #BC6C4B",
"b. c #AB7546",
"n. c #B27345",
"m. c #BD7143",
"M. c #B27A43",
"N. c #B3734C",
"B. c #BE724B",
"V. c #B67B49",
"C. c #A56B52",
"Z. c #AC6C53",
"A. c #AA6758",
"S. c #B26D53",
"D. c #BC6C52",
"F. c #B86758",
"G. c #B36D5A",
"H. c #AC7255",
"J. c #A9765C",
"K. c #B47253",
"L. c #BA7454",
"P. c #BB7B55",
"I. c #B5745A",
"U. c #B9755C",
"Y. c #B27A59",
"T. c #BB7A5C",
"R. c #967265",
"E. c #B86961",
"W. c #A87A65",
"Q. c #B57767",
"!. c #BB7363",
"~. c #BD7C62",
"^. c #C26D44",
"/. c #C26D49",
"(. c #C27345",
"). c #C4744B",
"_. c #C9764B",
"`. c #C5794A",
"'. c #CA7B4C",
"]. c #C26D58",
"[. c #C67A52",
"{. c #CB7B54",
"}. c #C77859",
"|. c #D27952",
" X c #C26A64",
".X c #C77765",
"XX c #C37D63",
"oX c #C77A71",
"OX c #BA8247",
"+X c #AD835B",
"@X c #B98652",
"#X c #B78559",
"$X c #BC855C",
"%X c #99877B",
"&X c #AC8B6C",
"*X c #BA8666",
"=X c #B88769",
"-X c #B78971",
";X c #BE8F72",
":X c #C6864B",
">X c #CC924D",
",X c #D9994F",
"<X c #C88459",
"1X c #D28454",
"2X c #D3845C",
"3X c #D68B5C",
"4X c #CE9550",
"5X c #C8935A",
"6X c #D29957",
"7X c #DB9D52",
"8X c #E2925D",
"9X c #DDA155",
"0X c #C48363",
"qX c #C18B65",
"wX c #C98769",
"eX c #C58D6A",
"rX c #D88660",
"tX c #DC8B64",
"yX c #D48B6A",
"uX c #C59165",
"iX c #CA936C",
"pX c #D49768",
"aX c #C98C72",
"sX c #D38D75",
"dX c #C79476",
"fX c #CD9572",
"gX c #CD9974",
"hX c #D19A75",
"jX c #D89678",
"kX c #D49C7A",
"lX c #E08F69",
"zX c #E5936C",
"xX c #E49A6B",
"cX c #E79874",
"vX c #ED9C75",
"bX c #CEA466",
"nX c #DBA36A",
"mX c #D9A478",
"MX c #E6A773",
"NX c #F3A47A",
"BX c #B99786",
"VX c #CE9383",
"CX c #D99B82",
"ZX c #D6A889",
"AX c #E6A485",
"SX c #EFB188",
/* pixels */
"% fX(.j.wXtX{.7., hX(.j.U.z.).y., eX'.K.U.z.k.C., gX`.j.K.;.d...5 W.t.r.H.}.wX#., gX(.j.U.z.).y., eX'.K.U.z.k.C.& fX(.c.h.).z.g.",
"o *X1XT.wXz.}.f., hX`.c.K.z.).f.< iX'.K.~.[.B.C.+ hX'.f.5.R T U t U Y Y T R f.y., hX`.c.K.z.).f.< iX'.K.~.{.v.C.% gX'.c.f.).).!.",
"% qX'.jX0X:.z.Z., hX`.c.Z.z.).C.4 fX'.K.~.rX{.f., hX'.f.( M B n n M n n n C 5.b., hX`.c.Z.z.).C.< fX'.K.~.rX).f.% gX_.c.I.3X3X~.",
", iX`.jXS.{.z.f., fX(.c.S.{.).C., fX`.c.~.zX{.y., iX(.t./ G n n n n n n n B ..d., fX(.c.S.{.).C., fX_.c.XXzX{.y.% iX^.c.T.pX{.C.",
"o gX`.<Xj.{.).7.4 fXm.c.I.tX{.C., gX(.K.}.zX{.y., fX(.f.Q M n B n B G n n K 6.#.3 fXm.c.I.tX[.C., gX(.K.T.cX{.y.& iX(.c.I.2X`.g.",
"o gX1Xj.I.z.{.f., iXm.K.I.vX[.C., hX(.K.U.zX{.f., hX'.h.^ M B n n M n n n K 7.t., iXz.S.I.vX[.C., hX(.K.U.zX{.y.& dX'.L.f.m.z.U.",
"$ dX-.Z.~.l.+.C.4 iX(.K.I.vX).C., hX(.U.K.tX(.C., fX'.K.) B M n n n n n n C ..y.4 iX(.K.I.vX).C., hX(.P.K.tX).C.& eX'.}.I.m.;.T.",
"- -Xs U.J.L.h u., fX`.L.K.vXz.f., gXz.L.j.2Xz.f., eX(.~.e.B n M n B n n b U C r., fX`.L.K.vXz.f., gXz.L.c.2Xz.f.4 qX^.0XsX<Xz.Z.",
"O a.*X0X#X=X+X#X% kX(.j.K.vX_.f.3 3Xz.Q.}.k.aX0.0 #X`.I.e.B J n n n n n n Y i.#X% kXm.j.K.vX'.f.4 3Xz.Q.].k.wX;.0 <X`.*X3X_.Z.K.",
"* = < > 4 @ 3   % iX`.c.I.rX).t.% 3X).E q.v. .X.2 5X(.U.i.B n G G n n n n 8 7   % iX`.c.I.rX_.t.% 3X].E 0.v. .X.- tX`.*XxX|.Z.K.",
"2 /  .]  .4.w. ., qX1XT.U.).).t.& MXL.M ~.XXd I.+ nX2.G.d.A g g Z Z N C d C X. ., *X1XP.T.).).t.& MXK.N ~.XXd H.- xX,.Q.vX|.S.L.",
"; 4.y 0.XXA.h f., qX1XyXT.z.).f.= D f ~ V C T p , uXo.) { ` ` ` ` ` ` ` ' ' g E 5 #X1XyXT.z.).f.= I f ^ V C Y l - xX:.H.2X^.K.N.",
"- %XC y.W.u.V u., iX1XcXI.z.^.C.= f a r 1 u k , 4 Q H H H f h h h h h h f Z x M t 5.`.cXY.v.^.C.= f y r 1 u k 3 $ 3X(.I.^.:.U.c.",
"; VXzX/.x.].sXx., dX(.kXU.z.z.C.9 kX4.2 9.u.6 9.< e.R K G G H b M M m G x x J N 8 J.(.jXU.z.z.C.9 kX5.2 9.u.6 9.$ 3X{.W./.).U.S.",
"> +XV.,.'.-.`.[ % hXm.yXwXz.^.f.- pXG.T 7.L.4.C.- *Xj.Q @.@.$.@.r.@.$.) $.@.X.[ 4 dX,.iXwXz.z.f.- pXI.Y 7.D.4.f.- pX}.5.L.{.X.K.",
"X ZXE.v.U.A.G.I., hXn.}.sXz.`.f., 8X).aX_.;.{.:.- bXV.V.@X>X4X@X:X>X4X>X>XOXOXOXp gXm.<XsXz.).f., tX).aX|.;.}.;.$ jXc.l g.v.f j.",
"O hX(.AXK.z.2X8.$ NXl.u.).'.S.0., fX).wX0X;.z.t.3 h.h.b.5X6X9X9X,X,X,X,X,X:XV.b.- NXl.C.)._.F.q., fX`.wX0X;.z.y.5 a.u.9.e.i./ p.",
"X hX'.sXj.).vXC.3 :Xm.aXz.^.aXj., eX(.<XsX).{.C.$ i 1 m $.4X9X9X7X7X7X,X,X:XP.6.7 :Xz.eXz.^.wXj.< iXm.<XsX).{.C.+ 1 1 u ; ; : ; ",
"O iX(.MXT.).2XZ.o xX/.S s.+.S X.5 iXz.K.AX).(.f.e R.B v d.6X9X9X7X7X,X,X,XOX..J 4 $Xz.S s.+.S X.5 iXm.K.AX).(.f.e BXR : 9./ j 5.",
"% fX;.AXT.z.;.f.- SXwXT CXsX5.-X< iX(.N.AXz.z.y.. T v v $.6X9X6X>X,X>X,X,XOXI z r e.0XT CXsX5.-X4 iX(.N.AXz.z.y.X ;Xy.d o.u./ y.",
"o hX`.T.K.).).f.= s E ( E E ^ m O iX`.K.AX^.).C.6 Y n z Q OX9X9X7X7X,X,X:X@.m z z p E ( E E ^ M O iX`.K.AXz.).C.u *XXX.XB.K.!.P.",
"O *X1Xs.sXz.).f.w I a 0 1 y 1 1 O fX`.N.kXz.).f.2 i.n c H Q b.>X4X4X>X>.%.P x t t Z a 0 1 y 1 1 O fX`.N.jXz.).f.1 iX/.x.3X{.A.m.",
"% qX`.L.AX).;.f.- MX{ 6 E 8.C 8., hX(.j.~.z.{.y.3 *XL c H | %.-.b.>.>.%.*.{ m z r eX{ u R 7.C 8., hX(.j.~.z.{.y.; gXL.x.3XyX.X;.",
"X mX,.N.~.zXz.C., 1Xl.u.u.}.y.0., hX:.j.K.}.tXZ.3 e.H x b D | &.%.>.%.&.| I m v 8 h.l.u.f.L.y.0., hX:.j.K.{.tXH.2 dXN.}.xX}.f.V.",
"o gX(.K.U.NX{.q.O mXz.K.aXrXz.C.O eX_.N.H.3XcXy.8 J M n n N } &.=.>.=.&.} m x x r W -.C.~.3Xz.C.O iX_.K.U.zXNXC.@ fX_.L.CXB.z.U.",
"@ fX_.L.H.rX).g., hX(.K.jX}.z.C.8 #XB.f.K.:X3X5.r b n n n J I &.1.=.<.%.P x b x z J +.N.*X[.z.C.5 fX'.j.j.{.tX7.% fX_.K.kX).z.G.",
"% iX_.S.Z.z.z.Z.3 eX`.K.cX/.z.C.8 b.M.d.N.OX[.6.r n n n n n P %.1.1.<.D m b z c c M X.OX<Xz.z.f.p $X(.j.f.z.{.7.& fX(.c.iXB.B.G.",
"% iX_.c.I.z.).g.< iX(.K.aXz.z.C.7 @XV.V.>X4X<Xu.z n n n M n L | 1.1.%.L n x c z b n I OX<X>.l.M.@.5X1XwXaX2XtXQ.& fX(.c.~.z.v.G.",
"o fX_.c.~.[.{.f.% hX(.S.I.).z.y., @XOXb.@X@XM.Q v n n n n n H } <.<.| m b v c z b x P :X:XM.M.>.P uX1XyXsX2XrX~.% gX(.c.Z.k.v.S.",
"o gX`.T.wX<X}.q.O kXm.c.f.).).y.% *XM.M.OXOX$.H n n n n B n M } <.<.I M v v c z z x R OX>.>.>.r.8 eX(.N.I.z.z.y.% fX(.S.Z.m.).G.",
". kX(.yX*X).).f.% fX`.K.Z.z.).f.< iXl.r.OXOX@.L v n n n n n B R =.=.P m v x c c z m } ,.OX>.l.t.5 hX(.c.~.).).y.& gX(.L.Z.[.}.I.",
"o mX(.jX~.l.;.C.< qX'.K.~.;.).C.O hXm...Q I I H v n n n B n B P =.=.P n n b c c x m I $.@...s.C.O fX(.K.aX3X{.h.& fX,.L.U.yXrXG.",
"; VXD.cX{.].q.x., iX:.L.K.{.2Xf.3 iX[.8.R U M M n t n n G n n I &.*.P x x x b z z z m H N ..L.f.3 iX{.G.b.NXx.-.& fX|.S.>.yX.Xl.",
". ;XL.^.l.N.$Xd.< hX(.K.T.tX2Xf.% 5XB.A.r.e.n n n n B n B n M I &.*.P b v n v x z z v M ..}.<Xf.+ 5XB.A.N.NX].-.@ eX}.S.>.}.F.n.",
"# ZX$X:.B.P.j.s., fX`.j.T.zX).7.6 5X_.oX-.S.T n t ~ B n n n n I &.&.P x n x v v r n M R H.tX[.t.6 5X_.oXj.zXyX#.@ iX}.T.V.B.F.n.",
". dX{ O.v.S.s x., fX).s.T.vXz.f.+ nXz.A.P.[.6.R e J n n n B B I &.*.L x b v v b r e.o.o.I.vXz.y.+ nXz.A.P.1Xx.-.& gX}.XX5XB.F.V.",
"6 BX8.dXVXVXu.aX, hX'.d.T.vX).C.4 5X).!.j.^..X#.6 G M n n n n I *.*.L x v n c n 8 =X`.d.T.vX).C.3 5X).!.s.)..Xd.& iX].}.pXB.F.n.",
". c N P N N T p , fX`.j.I.tX(.C.0 #X{.Q.d.v.E.6.r n M n B M J I *.*.P n x v b c t p.`.j.I.tX(.C.e #X[.Q.d.v. Xt.@ fXv.L.nXB.F.n.",
"  r N u p p m 1 O iX(.T.K.'.).y.. mXl.V I.l.d 5.t n B n n n M I <.*.P m b x x b z ) m.T.K.'.).f.. mXl.V I.k.d y.# hX/.L.MX/.E.n.",
"; u. .] G.Q.7.Z., fX`.wXI.z.).y.e #Xc.3.t.Z. .^ n B n n n M H } <.<.P n b v v v c T l.wXI.z.).y.e @Xc.3.y.S. .5.@ mX/.K.nXc.E.n.",
"$ f.y y.U.x.f 3.5 gX`.jXI.(.l.C.* p : 0 % q q 6 n B n n n n B R | | L x v v v b c H -.jXU.v.l.C.* p : 0 + q q O , eXXXU.k.XXu.v.",
"$ jXN.J.!.v.#.Q.< qX(.AXZ.z.[.y.e -XE k T / k n n n B n B n n B L N x x b v n c c G ..AXZ.z.[.y.e -XE k T / j P > wXc.XX^.l.-X^.",
"  jX{.r.U.z.P.A.> pX(.cXT.z.[.f.O fXX.d ..q.V B B n B n n n n n n b z x v v v v c M I cXT.z.[.f.O hXX.d ..q.V #.> jX`.S.|.s.Q.^.",
"% yXm.y.XX^.P.q.O AX,.eXaXz.z.C.> pX).I.d.E.8.K n n n n n n n n n n z c b v v v v n P 0XwXz.z.C.> pX].I.-..X Xn.O iX*XS ;.C.E +.",
"@ jX'.eX].;.B.g.> fX2.<XXXz.).f., $X}.aXn.D.A.{ t ( U n n c c n n n z z v z M N 8 e.-.T.~.z._.f., $X}.aXb.].].o.r -X+X/ U.W./ J.",
"  jX'.mXD./.5XS.5 $X`.}.Z.v.<Xf.4 fX.X0XiXD.E.d.* g i r c n n n z Y v b x v R 5.5 #XB.}.Z.v.<Xy.4 fX}.0XiXD.E.b.  P u k a u r i ",
". jX`.mX}.{.mXF.5 eX).7.C.L.s.u.% iXD.Z.nXv.E.b.w X.f k v n n n 8 e.n v b M r.p.3 eX).t.C.L.s.u., iXD.C.nXv.E.b.- r.l k d l r d ",
"% aXm.mXD.+.<X0.o ZXn.f Q.c.s u.5 wX}.K.MX)..X$.- mX..q B n n J 8 p.n x v N 6.7.o ZXn.f Q.N.s u.5 aX}.L.MX[..X$.3 dX5.1 E R.6 7.",
"o fX_.yXH.B.z.Z.7 $.$XW.&X#X-X+XO kX(.j.AX).z.7., fXm.E U n n K 7 J.M x b C X.C.7 $.*XW.&X+X-X+XO kX^.j.AX).z.7.- pXz.q.j.;.L.K.",
"@ iX_.0X=XB.z.C.* a u q > 1 u ; + fXm.K.CX).).C., fX`.o.^ n n K 8 J.H n n U X.C.* a y 6 > 1 u ; + fXm.K.CX).).g.$ pX).G.$XB.D.c.",
"% fX(.L.fXB.z.g.! &XS j ^ E l ^ , fX(.K.wXk.).f., fX'.f.) B B K 7 Y.H n c K X.C.! &XS j ^ E l ^ , fX(.K.wXk.).f.- pX_.!.iX}.].j.",
"@ kX^.c.fXrXB.f.  bX{ C } d.S e., fX(.K.U./.2Xf.< iX`.h.) B n U 5 *XL v v U o.y.  bX{ C ..s.A e., fX(.K.U./.2Xy.- pX/.!.iX{.].c.",
"  ZX:.c.*XcX).f., pX'.XXb.1X}.-.O fX(.K.I.rXvXJ., iX`.h.) H n K , dXL n v R f.y.% 6X:X~.b.1X}.d.O fX(.K.U.2XvXJ.- iX/.!.pX[.L.j.",
"  ZX^.S.I.jX{.f.3 <Xz.oX0X}.].s.O kX(.K.S.rXvXC., eX'.j.) M B K # eXL n v Q s.f.0 <Xv.oX0X_.].s.O kX(.K.S.rXvXC.$ iX)..XpX`.D.j.",
"O kX(.L.H.1X).f.3 hXz.E.AX{.x.C., kXz.K.Z.).{.t., eX'.f.) n n U 5 *XL v v U 7.f.3 hXz.E.AX{.x.Z., kXm.S.S.).{.t.- iX`.!.iX`.D.S.",
"% eX_.L.I.;.).g.$ bX:XS.6X(.).#.+ hX:.P.S.z.).C.5 iX`.5.T n n K 8 J.K n v N ..u.% bX:XK.pX2.B.#.+ hX:.P.S.z.B.C.- pX^.S.$Xl.x.L.",
"o gXD.f.5XyXoX#.< gX(.c.T.k.`.f., iX(.L.S./.;.C.+ kXl.Q K n n K < =XM x c x R .., fX(.c.T.k.).f., iX(.L.S./.;.C.& iX(.N.h.).z.g.",
"% eX{.XX6Xv. X-., fX(.K.I.k.).C.< fX`.L.I.{.z.C.O kXo.K n v b G 7 J.H c b z M Q , fX(.K.I.k.).C.< fX`.L.I.{.z.C.& gX_.c.f.).).!.",
"o qXrXyXN.k. X#., fX`.S.S.z.B.C.< fX`.K.~.tX[.y.4 i.Y G F b F J 5 H.H n b b F G 7 eX`.K.S.z.B.C.< fX`.K.~.tX[.f.% gX`.c.Z.3X3X~.",
", iX|.AX>.}. X-., fX(.c.S.{.).C., fX(.K.~.lXc.T t J G G G G F J 8 *XH G F b F b t e.z.c.S.{.).C., fX(.K.~.zX{.y.% iX^.c.T.pX1XC.",
", *X].sX>.v. Xd.< fXm.c.I.tX{.C., fX(.c.~.0X..G F F F G F G J ( p J.U G b b b b F J @.j.I.tX{.C., fX(.c.~.zX{.t.& iX(.c.I.2X(.g.",
"  iXwXf.>.x.oX#.< fXm.c.I.vX{.C., hX`.K.T.*Xi._ ( ( W _ _ i.a.a.7 ;Xr.) W J G G Y ( @.c.I.vX{.C., hX`.K.~.zX{.y.& fX'.L.C.m.z.!.",
"o ZXU.y.V.}.E.#., fX`.K.I.NX).f., fX`.K.I.}.H.a.i.+X+X+XJ.C.H.u.# ZXc.r.a.a.a.a.p.a.h.S.I.NX).f., fX`.K.I.rX`.f.& iX_.}.U.z.:.U.",
"- +Xy A.B.0.u #., fX'.K.S.vX).y., fX(.K.K.{.c.u.r =Xj.&XdXB.).7.4 &Xy b.H.y.I i.M =X`.K.S.vX).y., fX(.K.K.{.z.f.3 qX^.wXiX<Xz.Z."
};
