/* XPM */
static char *plaant21696713339[] = {
/* columns rows colors chars-per-pixel */
"64 64 243 2 ",
"   c #0B0804",
".  c #130C03",
"X  c #1C0D04",
"o  c #190B08",
"O  c #0D1307",
"+  c #181204",
"@  c #14120D",
"#  c #1C130B",
"$  c #141C0B",
"%  c #1C1A0C",
"&  c #070F16",
"*  c #181712",
"=  c #191616",
"-  c #260803",
";  c #2F0C0E",
":  c #261604",
">  c #22140C",
",  c #24190E",
"<  c #391509",
"1  c #251516",
"2  c #241A12",
"3  c #2A1B13",
"4  c #361B17",
"5  c #17270C",
"6  c #19340D",
"7  c #1C3A0E",
"8  c #1D2218",
"9  c #1F3B10",
"0  c #25310E",
"q  c #2A2817",
"w  c #342718",
"e  c #283814",
"r  c #36361A",
"t  c #0F1A22",
"y  c #2E1724",
"u  c #2C2223",
"i  c #3A2A29",
"p  c #3B3625",
"a  c #47190A",
"s  c #5B1701",
"d  c #4B1817",
"f  c #462A1D",
"g  c #482A1C",
"h  c #542C14",
"j  c #6D2C15",
"k  c #683418",
"l  c #511F2D",
"z  c #462A24",
"x  c #493827",
"c  c #533526",
"v  c #57312B",
"b  c #58392A",
"n  c #6C2D2A",
"m  c #653727",
"M  c #633C29",
"N  c #763B29",
"B  c #24410F",
"V  c #274813",
"C  c #364A18",
"Z  c #2D5216",
"A  c #365817",
"S  c #3C641A",
"D  c #3D4120",
"F  c #46531D",
"G  c #79441D",
"H  c #426B1A",
"J  c #48691B",
"K  c #4A741D",
"L  c #4B791E",
"P  c #517B1D",
"I  c #53462B",
"U  c #574233",
"Y  c #68472C",
"T  c #6E4B33",
"R  c #694836",
"E  c #774A35",
"W  c #7A4A39",
"Q  c #7C543A",
"!  c #506A22",
"~  c #4D7B20",
"^  c #537C20",
"/  c #666236",
"(  c #2E2A43",
")  c #5F4342",
"_  c #6E4F4A",
"`  c #774B43",
"'  c #7B5445",
"]  c #6E6F70",
"[  c #7B7B7C",
"{  c #853C32",
"}  c #96531B",
"|  c #894D2C",
" . c #864937",
".. c #875639",
"X. c #8E563B",
"o. c #945839",
"O. c #985A3B",
"+. c #AE5E38",
"@. c #9A6F35",
"#. c #986239",
"$. c #A6683C",
"%. c #B8683D",
"&. c #B0733C",
"*. c #C2703D",
"=. c #895446",
"-. c #895A45",
";. c #975D47",
":. c #885750",
">. c #A65D47",
",. c #B15E4E",
"<. c #876448",
"1. c #9B6246",
"2. c #98654B",
"3. c #9D644B",
"4. c #996756",
"5. c #936F57",
"6. c #996C58",
"7. c #A2654D",
"8. c #A76848",
"9. c #AD6B4C",
"0. c #B86747",
"q. c #BC6C44",
"w. c #B26D4D",
"e. c #AA7349",
"r. c #B27245",
"t. c #BD7143",
"y. c #B4724C",
"u. c #BE724B",
"i. c #B87A4A",
"p. c #A56B52",
"a. c #AC6C53",
"s. c #A86857",
"d. c #B86757",
"f. c #B26D53",
"g. c #BC6C52",
"h. c #B36D5A",
"j. c #AC7255",
"k. c #A87559",
"l. c #B47253",
"z. c #BA7454",
"x. c #B97B56",
"c. c #B5745A",
"v. c #B9755C",
"b. c #BB7A5C",
"n. c #8D7871",
"m. c #B86961",
"M. c #AA7867",
"N. c #B87565",
"B. c #BD7C62",
"V. c #C26D44",
"C. c #C26D49",
"Z. c #C27345",
"A. c #C4744B",
"S. c #C9764B",
"D. c #C5794A",
"F. c #CA7B4C",
"G. c #C26D57",
"H. c #C67A52",
"J. c #CB7B54",
"K. c #C77859",
"L. c #D17A54",
"P. c #C26A64",
"I. c #C77765",
"U. c #C37D63",
"Y. c #C77A71",
"T. c #54821F",
"R. c #548221",
"E. c #5C8A24",
"W. c #5E9126",
"Q. c #659726",
"!. c #6DA12A",
"~. c #73A82B",
"^. c #AD835B",
"/. c #BA865B",
"(. c #8A827D",
"). c #99877B",
"_. c #A9856A",
"`. c #B98667",
"'. c #B78869",
"]. c #B88A72",
"[. c #B09074",
"{. c #C8814C",
"}. c #C98359",
"|. c #D38555",
" X c #D3845C",
".X c #D68A5B",
"XX c #C8935A",
"oX c #D39A5E",
"OX c #C78868",
"+X c #C58D6A",
"@X c #D88660",
"#X c #DC8B64",
"$X c #D48B6A",
"%X c #C7906C",
"&X c #CA936C",
"*X c #D49768",
"=X c #C98C72",
"-X c #D38D75",
";X c #C69476",
":X c #CD9572",
">X c #CD9974",
",X c #D19A75",
"<X c #D79879",
"1X c #E5936C",
"2X c #E49A6B",
"3X c #E79873",
"4X c #ED9C75",
"5X c #D7A369",
"6X c #D9A478",
"7X c #E6A773",
"8X c #F3A47A",
"9X c #7D7F81",
"0X c #7D8386",
"qX c #8A8583",
"wX c #838A8D",
"eX c #948B86",
"rX c #9A938F",
"tX c #B99786",
"yX c #B2B0AF",
"uX c #CE9383",
"iX c #D99B83",
"pX c #D5A98B",
"aX c #E5A485",
"sX c #EFB188",
"dX c #C8B4AC",
"fX c #C6BCB7",
"gX c #CCC1BD",
"hX c #D5C4BC",
"jX c #B0BEC5",
"kX c #B8C4CB",
"lX c #BDCAD1",
"zX c #C4CCD1",
"xX c #CED0D2",
"cX c #D8DADC",
"vX c #E0D3CC",
"bX c #E1DFDF",
"nX c #E1E0DF",
"mX c #E7E5E5",
"MX c #E8E6E6",
"NX c #E2E6E9",
"BX c #E4E8EA",
"VX c #ECEBEB",
"CX c #F2F0F0",
/* pixels */
"# :XZ.9.U.#X X;.> >XZ.9.v.q.A.3.> +XF.l.v.q.0.7.> >XD.9.l.q.u.;.: ;Xv.r.OX$XOX#.> >XZ.9.v.q.A.3.> +XF.l.v.q.0.a.% :XZ.w.p.A.q.8.",
". `.}.b.OXq.J.7.> ,XD.w.l.q.A.7., &XF.l.B.H.u.p.> :XF.9.h.A.J.a.: =XK.{.$Xu.K.8.> ,XD.w.l.q.A.7., &XF.l.U.K.u.7.# :XF.w.7.A.A.B.",
"# +X{.<XOX%.q.a.> ,XD.w.a.q.A.p., :XF.l.B.@XJ.7.o ,XF.w.v.L. Xj.: OXK.*X}.0.g.e.> ,XD.w.a.q.A.p., :XF.l.B.@XA.7.# >XS.w.j..X XB.",
"> &XZ.3Xl.J.q.7.> :XZ.w.f.J.A.p.> :XD.w.B.1XJ.3.> :XZ.9.OX#X X1.: >XA.*Xy.K.u.1.> :XZ.w.f.J.A.p.> :XD.w.B.1XJ.3.# &XV.w.b.*XJ.a.",
". :XD.}.9.J.A.;., :Xt.w.c.#XH.p.> >XZ.l.b.1XJ.3.> :XZ.9.B.J.J.;.: 6XS.}.8.K.K.#., :Xt.w.c.#XH.p.> >XZ.l.b.3XJ.3.% &XZ.w.c. XA.9.",
". >X|.9.c.q.J.7.1 &Xt.l.c.4XJ.p.> ,XZ.l.v.1XJ.1.> ,XF.h.f.%.D.a.+ <X X8.x.0.K.1.1 &Xq.f.c.4XH.p.> ,XZ.l.v.1XJ.3.% >XF.z.7.t.q.v.",
"@ ;X$.a.B.0.+.p., &XZ.l.c.4XA.p.> ,XZ.v.7.;.E R > ,XF.-.` E E 7., ;X$.9./.0.>.p.> &XA.l.c.4XA.p.> ,XZ.x.g.#XD.p.% +XF.K.c.t.0.v.",
"* ].j z.k.z.j 6.> :XD.z.f.4Xq.7.> >Xq.9.I e C 9 8 k.O.F A F B Y 2 ].j c.2._ k Q @ '.D.z.l.4Xq.7.> >Xq.z.9. Xq.7., OXV.OX=X}.q.a.",
"X 5.`.`./.'.x./.# <XZ.9.y.4XS.7.2 .X8.U 5 9 P P 9 x r H W.E.R.C % M.`.j.I $ q p O x O.w.l.4XS.7.2 .Xq.N.G.0.U.0.y }.D.'..XF.a.l.",
"& & , : 2 + 2   # &XD.w.c..XA.3.% @XO.O r N I K A 9 S A Z e C A O = + .   O   O $ r 4 ;.c.@XS.1.# .XG.W >.C. .o.* #XZ.'.2XL.a.l.",
"; `  .{  .=.,.{ > `.|.x.b.A.A.1.% 7X9.i ' R z I K W.J Y I T W e & R  .n O r r 5 5 p O ..b.A.A.1.% 7Xz.b U.U.k k.@ 2Xq.N.4XL.f.z.",
"- =.s >.I.s.N 7.> +X|.$Xb.q.A.7.= G h 4 r ^ F 8 K Q.6 4 C x w.E o ' s | $ 6 6 5 $ 7 B x p.q.A.7.t G k ) n m R l = 2X%.j.|.V.l.y.",
"= ).M 3.M.4.m 4.> &X{.3Xc.q.V.p.t h 0 K ^ ~ K A P J Y q Z A x ..1 _.m 1.b O O p $ 6 Z 5 -.q.V.p.t k a i < d z 1 @ .XZ.k.C.%.v.0.",
"- uX1XC.,.G.-X0.> >XD.<Xv.q.q.p.= M.5 J C 0 6 K T.Z w e T.Q.Z x > uX1XV.E z W 1 5 7 9 % 2.q.q.p.t >X-.> :.4.4 :.@ .XJ.M.u.A.c.l.",
": ^.i.q.F.$.D.} # ,Xr.$XOXq.V.7.= /.# q b p v J ~ Z 0 6 H R.L q < ^.i.O.3 c A.h   % $ % s.q.q.7.* *Xl.R ;.G.=.7.= *XK.-.z.J.o.l.",
"o pXN.0.v.s.h.h.> ,Xq.}.-Xq.A.7.> .XE = e C J ~.~ 5 Y 3 Z A r Q > pXB. .w 7.v.9.@ _.$.8.=Xq.A.p.> 1XA.=XL.+.L.0.@ <X0.v 8.g.k 9.",
"X :XZ.aXh.q. X;.@ 8X9.p.A.A.f.>.> M.q B S Q.~.~.T.Z 6 b u u W <.# &X$.k.w w. X;.  <X#.2.C.S.d.>.> :XA.OXOX%.q.;.3 5.4.:.<.5.' 4.",
". ,XF.=X9.D.4Xp.q {.t.+Xq.V.OX9.> k.$ A P T.E.R.P S Z 5   3 a - X 6.w e V Y 3X1.= e q p X.q.OX9., &Xt.}.-XA.J.p.o < < d - - 4 - ",
"- &XZ.7Xv.A. Xa.. 2XA.N 8.+.N o.3 /.w A T.K R.A P K B 6 $ ` d _ # 2 V S T.J T I Z P H S e G N o.3 &Xt.l.aXA.Z.7.u tXW ; :.' l =.",
"o :X%.aXb.q.%.7.= sXOXR iX-X-.]., &Xo.e L S R.Z Z H F 5 O ' { ' O p 9 Z K Q.P A T.S 7 q r U ..].2 &XZ.y.aXq.q.3.o [.7.j O.4.` 3.",
". >XZ.b.l.A.A.7.t j W _ W W _ v X &Xr.x 7 K E.9 7 p e._ 1 O.I.2.@ <.F W.~.!.!.Q.P H 9 p x R ) b X &XD.l.aXq.A.p.a `.OXI.u.c.N.x.",
"X OX}.9.-Xq.A.7.t G h 1 < a < < X &XD.-.5 Z A 5 O j.V.d.x Y 0.$.% ! Q.~ V Z R.W.K T.L C q a < < X :XD.y.<Xq.A.7.< &Xu.,..XJ.,.V.",
"# +XD.z.aXA.%.7.= 7X| 4 W ;.m ;.> ,XZ.1.x 5 r x = *XA.h.z @ c. .8 ~ D R U 7 T.W.Z B S K e U m ;.> ,XZ.9.B.q.J.1.- :Xz.0..X$XI.0.",
". 6X%.y.B.1Xq.p., |.0.4.7.G.7.>.> ,Xq.9.3.T j.j.= &Xq.B.x . 4.;.  0 R Y I S W.W.S Z 6 x q @ W >.> >X%.w.l.J.#Xj.; ;Xy.K.2XK.3.i.",
". ,XZ.l.v.8XJ.>.X 6Xq.l.OX@XV.p.X &XF.l.c.1X8Xp.o %XF.x.6.w ;.;.  5 Y ! L W.!.~.Q.~ V x ' W %.p.X &XF.l.c.1X8Xp.. ;XF.z.iXA.q.c.",
". &XS.z.j. XA.8.> <XZ.l.<XJ.q.p.3 :XF.9.9.J.#X3., &XS.l.-Xc O.3.O V ^ W.H e ~ !.J R.!.S _ z.q.p.3 :XF.9.9.J.#X1.# :XS.l.<Xu.q.h.",
"# &XS.f.a.t.q.a.1 +XD.l.iXC.q.p.> +XD.9.7.q.J.;., :XZ.w.OXz c =.$ K ^ B q M S H * / A R.V O.q.p.> +XS.9.7.q.J.;.% :XZ.w.=Xu.u.c.",
"# &XS.w.c.q.A.s.> &XZ.l.=Xq.q.p.> ,X.X$XOX X#XN., +Xt.9.B.w . ..$ Z e Z 0 r K ^ 5 ' | I % o.q.p.> ,X.X=XOX X#XN.% :XZ.w.b.q.g.h.",
". :XS.w.B.H.J.7.# ,XZ.f.c.A.q.3.> >X.X$X-X X.XB.# I x =.a.f 6 w 5 r E e A ^ ~.W.Z D o.b * O.q.3.> ,X.XOX-X X@XB.# ,XZ.w.j.0.q.f.",
"  >XD.b.OX}.K.>.X <Xt.w.7.A.A.3.# &XZ.w.c.q.q.E C L ~ F =.$.q 6 $ <.x S ^ C R.~.~ Z q Q =.u.A.3.> &XZ.y.c.q.q.3.# >XZ.h.a.Z.A.h.",
". <XZ.$X`.A.A.7.# &XD.l.a.q.A.3., ,XZ.w.B.u...F L ~ ~ Z w 8.w 9 6 q B J I R F T.K K q ..f.V.A.7.3 ,XZ.w.B.D.D.7.% >XZ.z.j.H.K.h.",
". 6XZ.<XB.0.%.p., +XF.l.B.%.A.p.X :XZ.l.=X;.C T.K S S V q p.r 7 7 6 3 / ' e R.W.Z B  .f.B.%.A.p.X :XZ.z.=X XJ.7.% &X%.z.c.#X@Xh.",
"- iXG.1XK.C.>.0., &X%.z.l.J. X7.1 &XH.m.e.k.C L A A C q -.Q ! V 6 q 8.1XX.q S K 5 <.&.z.l.J. X7.1 &XJ.h.e.8X0.$.% &XS.d.&.$XI.r.",
"  ].x.q.0.y./.8., ,XZ.l.b.@X X7.# XXu.s.y.8XX.q O w X.7.9.y.q 9 6 q r.r.$.Q e 0 @ 6XZ.z.b.#X|.7.# XXu.s.i.8XG.$.+ +XJ.h.&.b.d.r.",
"+ pX/.%.t.x.r.8.> :XD.9.b.1XD.1.4 XXD.N.8.%XN.<.p _.k.k.k.9.3 7 6 u k.e.5.k.R U u ].l.p.M.3XA.3.4 XXS.Y.8.1X$X#.+ &XK.b.i.u.d.r.",
". ;X| %.0.f.j 8.> :XD.8.b.4Xq.3.> 5Xp.qXeXwXwX9XwX0X9X9X(.[ 8 9 7 t ] 0X9X[ ] 0X] qX0X[ n.].w.3.> 5Xq.s.x.}.0.$.% >XK.U.XXu.d.i.",
"4 tX;.<X-XuX6.;X> ,XF.8.b.4XA.p.1 /.(.yXrXrXrX9XrXrX9X9X9X] 8 6 7 8 ] [ 9X] ] [ 0X9X9X9XyXeXy.p.> XXA.N.8.S.I.8.# &XG.K.*Xu.d.r.",
"  z v Y b b R f > :XZ.9.c.#XZ.p.y ^.rXgXU T R ` b M M z f w O 9 7 . w f c M b k R T M b yXrXr.p.y /.K.N.8.q.P.;.+ :Xg.z.5XA.d.r.",
"  i b a f f b < X %XZ.b.l.F.A.3.  ;XqXyXT p.3.p.X.X.E c f f . 7 9 @ f f c E X.X.3.3.X.M fXrXy.3.. 6X0.n c.0.j 2.: ,XC.z.7Xu.m.r.",
"- 4. .{ h.N.;.a.> :XA.$Xc.q.A.3.u ^.qXrXM ..3.3.X.o.m g g f 2 5 $ , g g g M X.X.3.M.k.R dXeXu.3.u /.9.=.1.f. .=.+ 6XC.y.5Xw.m.r.",
"@ 7.s 2.N.0.k =.3 >XD.3Xc.u.0.p.& f qXfXY ..3.3.o.X.E h z g f 3 3 f f f c E X.X.3.k.k.R fXeX8.p.& f ; y > y y X > +XU.v.0.U.4.0.",
"@ <Xy.j.B.0.O.N., '.Z.aXa.t.H.3.u _.qXfXR p.o.W E X.o.E Y U z f f f b 5.2.o.E E p.3.X.M dXeXu.7.y ].W i R ` l Y : OXw.U.*.0.].V.",
"  <XJ.2.v.q.x.s.: *XD.3Xb.q.H.7.X ;XeXfXb ..X... .X.k.2.o.X.E N W :...k.3.X...| 3.1.s._ yXeXu.7.X >Xo.j X.>.n #.: <XF.f.S.8.N.V.",
"o $Xt.7.I.V.x.>.X aX*.OX+Xq.q.p.: '.eXNXfXfXhXyXyXhXvXgXfXhXhXvXhXvXfXdXdXdXdXfXhXfXhXgXnXeX9.p.: *XK.c.$.I.P.r.+ &X`.N %.p.W +.",
"+ <XD.+XG.%.u.8.: ,X*./.K.q.A.7., M.(.jXlXlXlXjXkXlXlXkXlXlXlXlXlXkXlXkXkXkXkXkXlXkXkXkXkX(.r.7.> /.K.=Xr.G.P.#.i ].M.` d.N.' M.",
"  <XF.6Xg.C.XXf.3 /.D.K.a.g.}.;.2 ].n.jXNXNXNXNXNXNXNXNXBXNXNXNXBXBXBXBXNXNXBXBXBXMXNXNXyX[ }.3.2 :XG.OX&Xg.d.e.  Y d f h 4 i a ",
". <XD.6XI.J.6Xd.2 +XA.1.p.z.%.4.# '.qXbXVXVXVXVXxXcXVXVXVXVXVXVXVXVXVXMXVXVXVXVXVXVXMXVXcXqX8.4.# &Xg.a.5Xg.h.e.* 2.v i j l i k ",
"# OXt.6Xg.+.}.>.. pXr.k N.w.j 6.3 `.eXVXMXMXMXBXbXnXmXmXmXmXmXMXMXMXmXmXVXCXmXmXMXmXzXcXNX(.j 4.3 =XK.v.7XA.I.#., >X=.< W M.4 3.",
". :XS.$Xa.u.q.a.q @.}.M._.^.].^.X ;XeXCXNXMXVXCXMXmXmXmXMXMXMXmXmXmXmXmXMXMXmXmXmXNXbXmXmXwX_.^.X <XZ.9.aXS.q.;.= *Xq.>.e.%.g.l.",
". &XS.OX`.u.q.a.& h a y : < d - # +XeXVXMXMXMXMXmXMXmXMXVXNXmXmXmXmXcXmXMXmXmXmXmXmXmXMXcXn.d - o :Xt.z.iXC.A.a.@ *XS.h./.C.g.w.",
"# :XZ.z.:XA.q.s.( _.N l _ W v ) > '.eXCXMXMXMXMXmXmXmXMXCXMXmXmXmXcXlXnXMXMXmXmXmXmXMXMXmXn.v ) > :XZ.l.OX0.A.7.= *XS.N.&XH.G.a.",
"+ <XV.w.:X Xu.7.  &X| M ..$.N <., ].qXVXMXMXMXmXMXmXMXmXMXmXMXmXMXMXmXMXmXmXmXmXMXmXMXNXnXqXN <.> :XZ.l.v.C. X3.= *XC.m.&XH.G.w.",
"  pX%.w.`.3XA.7.> oX{.B.&.|.J.8.X ].(.nXMXMXbXcXmXmXMXMXMXMXMXmXMXmXmXMXMXMXMXNXmXmXVXMXbXeXz.$.X :XZ.z.c.@X4Xk.* &XV.N.&XH.z.w.",
"  pXV.h.v.<XJ.7.1 }.q.Y.OXA.g.8.X ;X).nXmXNXcXxXmXmXVXMXMXMXmXMXmXmXmXmXMXcXcXMXmXmXCXVXbXeXh.8.+ <Xt.z.a.@X4Xp.@ *XA.I.*XF.g.9.",
". <XZ.z.j.J.A.7.y >Xq.m.aXJ.0.a., ;XqXzXMXMXMXMXMXMXCXMXMXMXMXMXMXMXMXMXMXcXxXMXMXMXMXMXnXqX8.a.> <Xt.z.a.D.J.1.= &XA.N.&XZ.g.f.",
"X +XS.z.l.%.A.9.O 5X{.l.oX*.u.#.o ].[ yXzXzXzXzXzXzXzXzXzXzXzXzXzXzXzXzXzXzXzXzXzXzXzXzXlXn.w.O.o ,X%.x.f.q.u.p.* *XV.c./.0.0.z.",
". >Xg.7.XX@XY.#., >XZ.w.b.%.A.7.> %XM.wXwXwXwXwXwXwXwXwXwXwXwXwX0XwXwXwXwXwXwXwX0XwXwXwXwXn.A.7.> &XZ.z.f.V.%.p.% :XZ.w.p.A.q.8.",
"# +XJ.K.oXu.P.8.# :XZ.l.c.0.A.p., :Xi.k.6.l.7.5.w ].e.4.6.7.N.4.i _.j.k.'.3.k.5.i _.k.5.k.%.A.p.1 :XD.z.c.K.q.p.# >XF.w.7.A.A.N.",
". `.@X=Xr.0.P.#.> :XD.f.f.q.A.p., :XD.l.B.#XJ.7.% ;XF.9.b. X Xk.: OXL..Xu.0.h.#.> :XD.l.f.q.u.p., &XD.l.B.#XH.7.# >XF.w.j..X|.B.",
"> &XJ.aX&.K.G.$.> :XZ.w.f.J.A.p.> :XZ.l.B.1XJ.3.> +XF.9.U.1XJ.3.: :XA.7Xr.K.H.#.> :XZ.w.f.K.A.p.> :XZ.l.B.1XJ.3.# +XV.w.b.*XJ.a.",
"> /.G.-X$.u.P.8., :Xq.w.c.#XJ.p.> :XZ.w.B.1XJ.1., +XF.9.v. XA.1.: `.q.*Xy.G.G.8., :Xt.w.c.#XJ.p.> :XZ.w.B.1XJ.1.% &XZ.w.v. XA.a.",
"  &XOX7.&.0.Y.#., :Xt.w.c.4XJ.p.> ,XD.l.B.1XJ.3.> :XJ.l.f.0.q.p.. ;X X$.e.0.I.3., :Xt.w.c.4XJ.p.> ,XD.l.B.1XJ.7.% :XF.z.7.t.q.v.",
". pXv.7.i.K.m.#.> :XD.l.c.8XA.7.> :XD.l.c.@XA.7.> >XD.b.B.%.D.p.+ pXx.$.x.P.8.3.> :XD.l.c.8XA.7.> :XD.l.c. XA.7.% &XF.K.c.V.%.v.",
"= _.s s.i.>.d #.> :XF.l.f.4XA.3.> :XZ.l.l.J.q.7.> :X%.$X<XA.A.;., ].s e.j.>.s 3.> :XF.l.d.4XD.3.> :XZ.l.l.J.q.7., +XV.OX=X}.q.a."
};
