/* XPM */
static char *perso_right1695915429[] = {
/* columns rows colors chars-per-pixel */
"64 64 247 2 ",
"   c #0A0300",
".  c #0D0A04",
"X  c #160402",
"o  c #130B02",
"O  c #1C0D04",
"+  c #1D0D0A",
"@  c #161104",
"#  c #1D1305",
"$  c #15110D",
"%  c #1C130A",
"&  c #1C190C",
"*  c #030813",
"=  c #0B1619",
"-  c #191615",
";  c #260803",
":  c #370C0E",
">  c #251603",
",  c #22140C",
"<  c #24190E",
"1  c #391509",
"2  c #250B11",
"3  c #241A12",
"4  c #2B1C13",
"5  c #261618",
"6  c #301A1A",
"7  c #381918",
"8  c #2B2217",
"9  c #352519",
"0  c #0D1921",
"q  c #161F26",
"w  c #2E1724",
"e  c #192123",
"r  c #2B2225",
"t  c #3A2B26",
"y  c #3D3126",
"u  c #48190A",
"i  c #5B1701",
"p  c #4A1816",
"a  c #47291A",
"s  c #522911",
"d  c #6E2B0A",
"f  c #672A1D",
"g  c #693517",
"h  c #6B341A",
"j  c #7A371A",
"k  c #511F2D",
"l  c #432826",
"z  c #562A26",
"x  c #443527",
"c  c #4C3D2E",
"v  c #5A3B27",
"b  c #523E2D",
"n  c #593A29",
"m  c #4E3F30",
"M  c #523F30",
"N  c #6D2C2B",
"B  c #663727",
"V  c #673B25",
"C  c #733E22",
"Z  c #773B28",
"A  c #79441D",
"S  c #46442E",
"D  c #4B432F",
"F  c #54412F",
"G  c #5D432D",
"H  c #4F4030",
"J  c #514131",
"K  c #5B4533",
"L  c #5B4936",
"P  c #67472C",
"I  c #754B29",
"U  c #7B512C",
"Y  c #644A34",
"T  c #684A35",
"R  c #644C3A",
"E  c #694939",
"W  c #754D38",
"Q  c #7A4939",
"!  c #66543C",
"~  c #785439",
"^  c #2E2A43",
"/  c #5F4342",
"(  c #684A44",
")  c #7B4E4B",
"_  c #6B5944",
"`  c #7C5943",
"'  c #776349",
"]  c #833815",
"[  c #913810",
"{  c #853C32",
"}  c #96531B",
"|  c #8A4D2A",
" . c #895429",
".. c #965928",
"X. c #894538",
"o. c #865838",
"O. c #955939",
"+. c #995E3E",
"@. c #AE5E31",
"#. c #A95D39",
"$. c #8B653D",
"%. c #986239",
"&. c #98693A",
"*. c #AA652B",
"=. c #BA6927",
"-. c #A66637",
";. c #A36B3D",
":. c #B5643D",
">. c #BA6A3C",
",. c #AD743C",
"<. c #B9703F",
"1. c #CB7128",
"2. c #C1723D",
"3. c #875545",
"4. c #895A46",
"5. c #89564F",
"6. c #945D46",
"7. c #995E46",
"8. c #955E48",
"9. c #A85D46",
"0. c #A45C49",
"q. c #B15E4E",
"w. c #886448",
"e. c #9B6246",
"r. c #95644A",
"t. c #9A6748",
"y. c #9D644B",
"u. c #956E4C",
"i. c #996756",
"p. c #946C52",
"a. c #997456",
"s. c #A96646",
"d. c #A26A44",
"f. c #A2654D",
"g. c #A36A4D",
"h. c #AD6B4C",
"j. c #B96541",
"k. c #B46C43",
"l. c #BC6C44",
"z. c #B76548",
"x. c #B5644B",
"c. c #B26D4D",
"v. c #BC6C4B",
"b. c #A97546",
"n. c #B27245",
"m. c #BD7143",
"M. c #B3724C",
"N. c #BE724B",
"B. c #B77B49",
"V. c #A56B52",
"C. c #AC6C53",
"Z. c #AA6858",
"A. c #B86757",
"S. c #B26D53",
"D. c #BC6C52",
"F. c #B36D5A",
"G. c #AC7255",
"H. c #A97759",
"J. c #B47253",
"K. c #BA7454",
"L. c #B47A56",
"P. c #BB7B55",
"I. c #B5745A",
"U. c #B9755C",
"Y. c #BB7A5C",
"T. c #9A6F68",
"R. c #B86961",
"E. c #AA7769",
"W. c #B57767",
"Q. c #BB7363",
"!. c #BD7C62",
"~. c #C26D44",
"^. c #C26E49",
"/. c #C27345",
"(. c #C4744B",
"). c #C9764B",
"_. c #C5794A",
"`. c #CA7B4C",
"'. c #C26D57",
"]. c #C67A52",
"[. c #CB7B54",
"{. c #C87758",
"}. c #C37C5C",
"|. c #D27952",
" X c #C26A64",
".X c #C77765",
"XX c #C37D63",
"oX c #C77A71",
"OX c #BA854C",
"+X c #AC825A",
"@X c #B78659",
"#X c #BC855D",
"$X c #99877B",
"%X c #A98766",
"&X c #B98764",
"*X c #B98667",
"=X c #B78971",
"-X c #B49173",
";X c #C8854C",
":X c #CB924F",
">X c #C8835A",
",X c #D28454",
"<X c #D3845C",
"1X c #D68A5A",
"2X c #C89358",
"3X c #D39856",
"4X c #DC9E54",
"5X c #E2975A",
"6X c #DFA055",
"7X c #C78565",
"8X c #C18B65",
"9X c #C9856B",
"0X c #C48D6A",
"qX c #CC8A6B",
"wX c #D88660",
"eX c #D68867",
"rX c #DC8B64",
"tX c #D28D6C",
"yX c #C7916E",
"uX c #CA936C",
"iX c #D29567",
"pX c #D49768",
"aX c #C38973",
"sX c #CC8D71",
"dX c #D38D75",
"fX c #C79577",
"gX c #CD9572",
"hX c #CD9974",
"jX c #D19A75",
"kX c #D89678",
"lX c #D49C7A",
"zX c #E5936C",
"xX c #E49A6B",
"cX c #E79874",
"vX c #ED9C75",
"bX c #CEA466",
"nX c #DBA36A",
"mX c #D9A478",
"MX c #E6A774",
"NX c #F3A47A",
"BX c #B99786",
"VX c #CE9383",
"CX c #DA9B82",
"ZX c #D5A889",
"AX c #E4A283",
"SX c #E8A888",
"DX c #EFB188",
/* pixels */
"% gX/.h.7XrX<X7., hX/.h.U.l.(.y., 0X`.J.U.l.j.V.< hX_.h.J.l.N.7.> fXK.n.8XeX9X%., hX/.h.Y.l.(.y., 0X`.J.Q.l.j.V.& gX/.c.g.(.l.f.",
"o *X,XY.9Xl.].f., jX_.c.J.l.(.f.< uX`.J.!.].v.V.+ 0Xk.6.6.6.6.~ 9 5.4.d.>XK.{.d., jX_.c.S.l.(.f.< uX`.J.!.).N.V.% hX`.c.g.(.).Q.",
", 8X;XkX7X:.l.C., jX_.c.C.l.(.V.< gX`.J.!.1X[.f.% a.E L L K K K c J K w.L.x.D.b., jX_.c.C.l.(.V.< gX`.J.!.wX].f.% hX).c.G.1X<X!.",
", uX/.kXS.[.l.f., gX/.c.S.[.(.V., gX_.c.!.zX[.y.4 ` J F H m m H D H H ` d.{.v.d., gX/.c.S.[.(.V., gX_.c.!.zX[.y.% uX~.c.Y.pX[.C.",
"o hX_.>Xh.[.(.7.< gXl.c.I.rX].V., hX/.J.Y.cX[.y.3 w.J J J J J H J J J ~ e.{.{.%.< gXm.c.I.rX].V., hX/.J.Y.cX[.y.& uX/.c.U.<X(.h.",
"o hX,Xh.I.l.{.f.3 uXm.J.I.vX].V., jX/.J.U.zX[.y.3 p.J J J M J H H J J T y.x.}.d.3 qXl.S.I.vX].V., jX/.J.U.zX[.y.& hX`.K.g.m.l.I.",
"$ fX-.C.!.k.#.V.< uX/.J.I.vX(.V., jX/.U.D.rX_.V.3 a.M M J J H J J H H T G.x.0.g.< uX/.J.I.vX(.V., jX/.P.D.rX_.V.& 0X`.}.I.m.j.U.",
"- =Xd U.H.K.j i., gX_.K.J.vXl.f., hXl.K.h.<Xl.f.3 a.K M H J J H J J F E p.U.j r.< gX_.K.J.vXl.f., hXl.K.h.<Xl.f.3 *X^.7XqX<Xl.Z.",
"O a.*X*X@X*XH.@X% lX/.h.J.vX).f.3 1Xl.W.}.j.9Xs.6 u.K H D b F D H J J _ u.*X@X@X% lXm.h.J.vX).f.3 1Xl.W.{.j.9X:.r ,X`.*X1X`.C.J.",
"* = < > 3 % 3   % qX_.c.I.wX_.y.% 1X(.Q 0.v.X.O.2 +XY F F D F F H J H y 8   <   % uX_.c.I.<X).e.% 1X'.Q 0.v.X.O.- eX/.*XxX[.C.J.",
"2 ) X.{ X.5.q.X., 8X,XP.Y.(.(.e.& MXI.z !.XXf I.O #XP F b c D F b F G V X.3.f.X.< 8X,XP.Y.(.(.e.& MXJ.n !.XXf H.$ xX<.W.vX|.S.K.",
"; 3.i 9.XXZ.j f., 8X,XtXY.l.(.f.= A g ( N B E a & 2X| ] j j ] A ] [ [ ] 4.4.h f., *X,XtXY.l.(.f.= I h / N B R z - zX>.G.<X~.J.M.",
"- $XV y.E.i.B i., uX;XvXI.l.~.V.= h s t 1 p l 6 9 ~ I ] ] ] ] ] ] j A v G Y n 5., uX;XcXI.l.^.V.0 g u t 1 p l 5 $ 1X(.H.~.>.U.z.",
"; VXzX^.q.'.dXx., hX/.kXU.l.l.V.0 lX3.2 w.i.7 ( y Y b n v v v G G P Y T o.6.!.x., hX/.kXY.l.l.V.0 kX4.2 5.i.7 5.$ 1X[.E.^.(.I.J.",
"> +XB.>.`.-._.} % jX<.qX7Xl.~.f.- pXS.E 8.U.3.7.8 u.~ P ' &.&.$.b.,.b.b.n.-._.} % jX>.tX7Xl.^.f.- iXJ.E 7.^.5.f.- iX[.4.K.[.O.J.",
"X ZXQ.v.Y.Z.F.F., jXl.7XdXl.(.f., 5X).aX).:.[.:.- 2XB.OX:X:X3X:X3X:X:XOXM.C.U.J., jXm.7XdXl.(.f., 5X_.aX{.:.|.:.$ kXc.z h.v.g h.",
"+ gX/.SXS.l.<X7.$ NXk.V.(.).S.9., gX(.7X7X:.l.e.r B.;X:X4X6X6X6X6X6X3X3XM.m.<X8.. NXk.V.(.).A.9., gX_.7X7X:.l.e.4 a.i.5.w.a.) u.",
"X jX].qXh.(.vXV.8 ;Xl.=Xl.~.9Xh., uX/.>XdX(.[.i.- s I OX4X6X6X6X4X6X5X3Xt.e.qXe.5 ;Xm.aXl.~.9Xh.3 uX/.}.dX(.[.V.+ 1 1 p ; ; : ; ",
"O uX/.MXY.(.<XC.. xXl.Z s.#.Z O.4 uXl.J.AX(./.4.y L P t.OXOX:X4X4X4X4X:X$.J 3.8.. xXm.Z s.#.Z O.4 uXm.J.AX(./.f.r BXQ : 5.) z 5.",
"% gX>.SXY.l.:.f.- DX0XR CXdX4.=X3 uX/.M.SXl.j.o.y c D L G T ;.:X:X3X3X:XW b W 6.- DX7XE CXdX4.=X3 uX/.M.SXl.l.y.X -Xy.f O.i.) r.",
"o jX/.Y.S.(.(.f.0 d Q ) Q Q ( n O uX_.J.SXl.(.r.y J m H D F $.:X4X4X:X$.K b o.y.0 d W _ Q Q ( n O uX_.J.SXl.(.V.p *XXX.XB.I.Q.P.",
"O *X,Xh.dXl.(.f.q I s 5 1 u 1 1 O gX_.M.kXl.(.6.6 R J J H D ~ ;.B.,...G c n O.8.q I s 5 1 u 1 1 O gX_.M.kXl._.f.1 uX^.z.<X[.q.m.",
"% 8X_.K.AX_.j.f.- MX| 7 Q 7.B 7., jX_.h.!.l.[.y.8 ` c c D c P $.-.&.=.U M P O.y.- MXX.7 Q 7.B 7., jX/.h.Y.l.[.y.; hXK.x.1XeX.Xk.",
"X mX>.M.!.zXl.V.3 ,Xz.i.f.{.y.9., jX>.h.J.[.eXr.r Y c b c c P ..*.*.=.*.I K 4.e.3 ,Xl.i.f.K.f.9., jX>.h.J.[.rXC.2 fXc.}.xX}.f.B.",
"o hX/.J.I.NX[.0.; mXv.J.9X1Xl.V.O qX`.J.I.zXpXW x m m m F D G U *.*.=.*.P D P ~ O mXl.J.9X1Xl.V.O uX`.J.U.zXNXV.@ uX`.K.CXN.l.Y.",
"@ gX).K.J.1X(.f., jX/.J.kX[.l.V.4 gX`.h.c.].C.Y J m m m D F G U *.=.1...P D G T 4 jX/.J.kX[.l.V.4 gX`.h.h.[.rXe.% gX).J.lX(.l.F.",
"% uX).S.C.l.l.C.3 0X_.J.CX^.l.V., 0X_.h.f.l.f.K m H m H D T $.b.,.*.1...G c v P z H._.J.CX^.l.V., 0X_.h.f.l.].7.& gX/.c.sXN.v.F.",
"% uX).c.I.l.(.Z., uX/.J.sXl.l.V., jX1XqX9X<X}.` x H J H D G ` b.,.&. .Y F b b F v _ ;.S.sXl.l.V., jX1XqX9X<XrXW.& gX/.c.!.l.v.F.",
"o gX).c.!.].[.f.% jX/.S.I.(.l.y., jX1XqXdX<X<XZ.9 J c m H J K T ~ T K J F F c c c J ~ s.I.(.l.y., jX1XqXdX<XrX!.% hX/.c.G.j.v.S.",
". hX(.Y.7X<X{.0.O lXm.c.f.(.(.y.% uX/.c.I.l.l.7.6 L c c c c H J D F J m c c c D J J Y e.f.(.(.y., uX/.k.I.l.l.y.% jX/.S.C.m._.F.",
"o lX/.iX*X(.(.y.% gX_.J.C.l.(.f.< jX/.c.!.(.(.y.8 E J c c c m m F m c b b c c F x _ %.C.C.l.(.f.4 jX/.c.!.(.(.y.& hX/.K.G.].{.F.",
"o mX/.kX!.k.:.V.< 8X`.J.!.:.(.V.O gX/.J.sX<X[.V.8 ! J H H c c c c G U ..I b J T 9 H.N.S.!.:.(.V.O hX/.J.sX<X[.g.& gX>.K.I.eXwXF.",
"; VX'.zX_.'.0.x., uX>.K.J.[.<Xf.5 uX].F.h.NXx.;.8 ! H J H H m m G  .=.1. .P H W , uX>.K.J.[.<Xf.5 uX[.F.b.NXx.;.& uX).S.,.eX.Xn.",
"  -XP.~.k.M.#Xd.< jX/.S.Y.rX<Xf.+ 2XN.Z.M.NX(.;.8 ( J J J H m H P ..1.1...P J T 4 jX/.J.Y.rX<Xf.+ 2XN.Z.n.NX].d.@ 0X{.S.,.}.A.n.",
"> ZX@X>.(.P.h.h., gX_.h.Y.zX(.e.7 2X).oXh.xXeX+.8 Y J H H J H H G ..1.1.*.T J T 3 gX(.h.Y.zX(.y.7 2X`.oXh.zXeX%.@ uX{.!.B.v.A.n.",
"o fX| :.z.S.d s., gX_.s.Y.vXl.y.+ nXl.V.P.,Xz.;.8 R H J H J H H G ..1.1.*.I F Y 4 gX_.-.Y.vXl.y.+ nXl.Z.P.,Xx.;.& hX{..X2X(.A.B.",
"6 BX8.dXdXVXi.fX, jX`.s.Y.vX_.V.5 2X(.Q.s.(..X&.8 Y M J J J H H G ..1.1.=.U F R 8 jX`.f.Y.vX(.V.3 2X^.Q.k.(..Xd.& sXD.{.pXN.A.n.",
". x n T v v R a , gX(.h.U.eX/.V.r @X[.W.d.v. X6.9 L J H H J J H G ..1.1.=. .F c 9 gX_.h.U.eX(.V.r @X[.W.t.v. Xe.# hXv.K.nX(.A.n.",
"  t n u a a v 1 O uX/.Y.S.`._.y.. mXk.N I.x.f r.9 L H J J H H H F  .=.=.=. .G x 9 gX/.Y.J.`.(.y.  mXj.N I.z.f y.# hX^.K.MXN.R.n.",
"; i.X.{ F.W.7.C., hX_.9XI.l._.y.r @Xx.3.y.S.X.` 9 J H J H J H m G  .=.=.=. .G L 9 uX_.qXU.l.(.y.r #Xc.3.e.S.X.4.@ mX^.M.nXS.R.n.",
"$ f.i r.Q.x.h 5.4 hX_.kXY.N.k.V.* a : w % w w + t H H H J J H H F P I A I n J J x uX_.cXU.(.k.V.* l : w + w w O , 0XXXY.j.XXi.v.",
"$ kXn.H.Q.v.+.W.< 8X/.AXC.l.].y.r =XQ l E ) z P y H H H J H m m c c b b F x c J y &XN.AXC.l.].e.w =XQ l E ) z P > 0Xc.XX~.z.=X~.",
"  kX[.r.U.l.P.Z.> iX/.cXY.l.].f.O jXO.f o.0.N o.y J m M H H H m c c H H c J K T 9 pX/.vXY.l.(.f.O hXO.f o.0.N -.> kX_.S.).:.W.~.",
"% tXm.g..X~.P.9.O AX<.7XqXl.l.V.> pX'.K.d..X Xs.& V.o.c H c c c x c H c G Q s.4.O AX<.0XqXl.l.V.> pX).F.d..X Xn.O uX*XZ j.V.Q #.",
"# kX`.0X'.@.P.s.> jX2.>X!.l./.f., #X}.qXk.D. X-.r =XV.L K c c m c c c c ! #.N.f.> jX2.>X!.l._.f., #X}.qXn.D. X%.t =X%X) U.E.5.H.",
"  kX`.mXD.~.2XS.4 #X_.}.C.v.<Xf.5 gX{.7XiXD.F.b.* h s t c m m m H x H J 3.M.<XC.4 #X_.}.C.v.].f.3 gX{.7XuXD.F.b.  P p a s 7 t u ",
". kX_.mX}.|.mXA.3 0X(.e.V.K.s.i.% 0XD.C.nXv.R.b.e O.h l m m m m c c H ( r.].zXH.< 0X_.e.V.K.s.i.% uXA.Z.nXD.R.b.- r.z l f z t h ",
"% qX^.mXD.#.>X0.o ZXn.h W.c.d i.4 qX[.K.MX(..X7.- mXo.9 M m M m c c H w.V.:.>X7.o ZXn.g W.c.d i.4 qX{.K.MX(..X%.& hX5.1 Q T.7 y.",
"o gX).tXG.N.l.C.8 &.*XE.%X@X=X+XO lX/.h.AX(.l.7.< gXl.U K J J M x H H r.f.(.l.C.8 &.*XE.%XH.=X+XO lX/.h.AX(.l.7.- pXl.0.M.:.D.J.",
"@ uX_.7X*XN.l.C.* s u w > 1 p ; + gXm.J.CX(.(.V., gX(.6.L J K Y y J c 4.!.l.l.V.* s u w > 1 p ; + gXm.J.CX(.(.V.$ pX(.F.#XN.D.c.",
"% gX/.K.gXv.l.f.^ -XC k ( Q z ( , gX/.J.9X>.(.f., gX_.r.R m J E y b J 4.aX(.l.V.^ %XZ z ( Q z ( 3 gX/.J.9Xj.(.f.- pX).Q.uX].'.h.",
"o lX~.c.gXwX(.f.  bX| B o.d.Z w., gX/.J.U.^.<Xy.< uXm.4.L m Y E t H K 4.qX<X(.f.  bX| V O.d.Z w., gX/.J.U.^.<Xy.- pX^.Q.uX].'.c.",
"  ZX>.c.*XvX(.f.< iX`.XXb.,X[.;.O hX/.J.U.wXvXH., uX(.` L m Y ~ 9 J L e.*XzX(.y., 3X;X!.b.,X[.d.O gX/.J.I.1XvXG.- iX^.Q.uX].D.c.",
"X ZX~.S.I.kX[.f.5 >Xl.oXXX{.'.s.O lX/.J.S.wXvXV., 0X(.~ L m E W 9 K G r.I.zX[.f.w >Xv.oX7X{.'.s.O lX/.J.S.1XvXV.$ uX(..XpX;XD.h.",
"o lX/.K.G.].(.f.5 hXl.R.AX[.x.C., lX/.S.Z.(.[.e., 0Xm.T J J W ~ y J J e.S.[.].f.5 hXl.R.AX[.x.C., lXl.J.C.^.[.y.- uX(.Q.uX/.D.S.",
"% 0X).K.I.>.(.h.$ bX;XJ.3X2.N.+.; jX:.P.S.l.N.V.4 yXb.Y J M W 3.x H G r.G.:.(.V.$ bX;XJ.3X/.N.%.+ jX>.P.S.l.(.V.& uX~.I.#Xk.z.K.",
"o hXD.f.2XeXoX%.< hX/.c.Y.j.(.f., uX/.K.S.^.:.V.+ hX+.J M m ~ W y F F ~ #XwX}.%.3 gX/.k.Y.j.(.f., uX/.K.S.^.j.V.& hX/.c.V.(.l.f.",
"% 0X[.}.3Xv. X;., gX/.J.I.>.(.V.< gX_.K.I.[.l.V.O aXo.H m H W ! x H H Y H.s.(.g., gX/.S.U.j.(.V.< gX_.K.I.[.l.V.% hX`.c.g._.(.Q.",
"o 8XrXdXM.j. X%., gX_.S.S.l.N.V.< gX_.J.!.rX].f.% *XY c c c ! ! y S S D L T ` U - gX_.J.S.l.N.V.< gX_.J.!.eX].f.% hX_.c.G.1X<XXX",
", uX[.AX,.{. X-., gX/.c.S.[.(.V., gX/.J.!.zX[.y.& H.K S S S L D S S S S S D J L 9 uX/.c.S.[.(.V., gX/.J.!.zX[.f.% uX^.c.Y.iX[.C.",
", #X'.dX,.v. X;.< gXm.c.I.rX[.V., gX/.c.!.zX[.e.3 a.S S S S S S _ ' _ ! ! ! ! _ J 0Xm.c.I.rX[.V., gX/.c.!.zX[.7.& uX/.c.I.<X_.f.",
"  uX9Xf.,.x.oX+.< gXm.c.I.vX[.V., jX_.J.!.zX[.y., H._ _ ! ! _ _ L -XH.u.+Xa.a.u.b 0Xm.c.I.vX[.V., jX_.J.!.zX[.e.& gX`.K.g.m.~.U.",
"o ZXU.y.B.}.R.%., gX_.J.I.NX(.f., gX_.J.I.wX_.f.< -X+X%X%X+X+Xa.8 ZXL.d.H.R.a.t.4 gX_.J.I.NX(.f., gX_.J.U.1X(.f.& uX`.}.I.m.>.U.",
"- %Xi Z.N.9.p %., gX`.J.S.vX(.y., gX/.J.J.[.l.s., uXn.8XfXP.N.e.< -Xi M.L.0.i u., gX`.J.S.vX(.y., gX/.J.J.[.l.f.3 8X~.7XsX[.~.Z."
};
