/* XPM */
static char *_fdbda71d1294a8ca124a9d028c59ae594mIei9G05AmwKnN[] = {
/* columns rows colors chars-per-pixel */
"64 64 249 2 ",
"   c #000000",
".  c #0B0602",
"X  c #160B04",
"o  c #1C130A",
"O  c #191409",
"+  c #070F16",
"@  c #191615",
"#  c #2E0D09",
"$  c #261604",
"%  c #22140C",
"&  c #24190E",
"*  c #251912",
"=  c #221F1C",
"-  c #24211D",
";  c #362514",
":  c #271922",
">  c #2B2725",
",  c #372B28",
"<  c #37312C",
"1  c #38332F",
"2  c #3D3834",
"3  c #52180A",
"4  c #4B2F0E",
"5  c #523C06",
"6  c #6E3015",
"7  c #53342D",
"8  c #443B37",
"9  c #423C37",
"0  c #653229",
"q  c #5A4207",
"w  c #5C4916",
"e  c #795A0C",
"r  c #6D5116",
"t  c #4D4330",
"y  c #4B443F",
"u  c #554433",
"i  c #6A5726",
"p  c #704F34",
"a  c #786537",
"s  c #4D4741",
"d  c #534C45",
"f  c #594D46",
"g  c #564E48",
"h  c #575049",
"j  c #5B534D",
"k  c #5F5751",
"l  c #70544A",
"z  c #645B54",
"x  c #665C55",
"c  c #766947",
"v  c #6B615A",
"b  c #71675F",
"n  c #7C6D58",
"m  c #766B64",
"M  c #796D65",
"N  c #776968",
"B  c #7D7169",
"V  c #7F7072",
"C  c #853C32",
"Z  c #8A5E13",
"A  c #886514",
"S  c #AC7607",
"D  c #8E4E37",
"F  c #AF5D38",
"G  c #84692C",
"H  c #836A32",
"J  c #986238",
"K  c #917634",
"L  c #A76E38",
"P  c #B9693C",
"I  c #A8763B",
"U  c #C6693E",
"Y  c #895847",
"T  c #975E46",
"R  c #915D53",
"E  c #A55D48",
"W  c #AF5E50",
"Q  c #8F6B4F",
"!  c #9A6549",
"~  c #9B7549",
"^  c #85745B",
"/  c #8B7B58",
"(  c #937257",
")  c #A2654D",
"_  c #A76849",
"`  c #AD6B4C",
"'  c #B96847",
"]  c #BC6C44",
"[  c #B26D4D",
"{  c #AB744B",
"}  c #BD7143",
"|  c #B47449",
" . c #BD724B",
".. c #A56B52",
"X. c #AB6B53",
"o. c #B26D53",
"O. c #B86B56",
"+. c #AC7257",
"@. c #B47253",
"#. c #BA7454",
"$. c #B4745A",
"%. c #B9755C",
"&. c #B97A59",
"*. c #9A6F68",
"=. c #82756C",
"-. c #8D7568",
";. c #967869",
":. c #887975",
">. c #8B7D74",
",. c #947D74",
"<. c #AF7465",
"1. c #B87564",
"2. c #BD7C62",
"3. c #C26D46",
"4. c #C27345",
"5. c #C4744B",
"6. c #C5794A",
"7. c #C9794B",
"8. c #C97355",
"9. c #C77957",
"0. c #CB7B54",
"q. c #C36F68",
"w. c #C57A64",
"e. c #AC8227",
"r. c #A58433",
"t. c #AD8932",
"y. c #AB8935",
"u. c #C78A15",
"i. c #D59810",
"p. c #F2AE08",
"a. c #F3B008",
"s. c #E3A612",
"d. c #DEA728",
"f. c #DDAB2D",
"g. c #DBAC39",
"h. c #F6C13D",
"j. c #F8C23D",
"k. c #9C8652",
"l. c #AB8A56",
"z. c #BA855B",
"x. c #978768",
"c. c #9B8476",
"v. c #92847A",
"b. c #9C867B",
"n. c #9A897E",
"m. c #A68368",
"M. c #AF896B",
"N. c #B6886A",
"B. c #B0916C",
"V. c #A88974",
"C. c #A28579",
"Z. c #A69876",
"A. c #B49578",
"S. c #B8A57B",
"D. c #CB8358",
"F. c #D4865B",
"G. c #C89054",
"H. c #CDA954",
"J. c #ECBB4A",
"K. c #C58868",
"L. c #D88965",
"P. c #C3926F",
"I. c #CA936B",
"U. c #D59768",
"Y. c #C88B72",
"T. c #CD9572",
"R. c #CD9974",
"E. c #C89678",
"W. c #D59978",
"Q. c #E5956C",
"!. c #EC9B74",
"~. c #D7A772",
"^. c #EDAA74",
"/. c #F8C549",
"(. c #FAC749",
"). c #F8C954",
"_. c #E7C36A",
"`. c #FAD06A",
"'. c #F1CB75",
"]. c #F7D278",
"[. c #FFDA7E",
"{. c #3A6EBF",
"}. c #7C788B",
"|. c #4F70B4",
" X c #6F79AB",
".X c #3470C4",
"XX c #3C72C4",
"oX c #4777C4",
"OX c #527BC4",
"+X c #887B87",
"@X c #7183B6",
"#X c #6E8AC6",
"$X c #8E8080",
"%X c #9D8C83",
"&X c #9A8988",
"*X c #938A93",
"=X c #9D9294",
"-X c #9D959A",
";X c #A38D87",
":X c #B48C81",
">X c #A39185",
",X c #A6948B",
"<X c #BA9A84",
"1X c #A99B97",
"2X c #B19C93",
"3X c #ADA295",
"4X c #BAA898",
"5X c #8E94B3",
"6X c #A39CA4",
"7X c #9BA1B9",
"8X c #A9A2A5",
"9X c #B8A9A2",
"0X c #B4ABAD",
"qX c #B2AEAC",
"wX c #BAB6BA",
"eX c #BBB9BA",
"rX c #D29683",
"tX c #C5A58A",
"yX c #C5AC96",
"uX c #C0A99E",
"iX c #CEB190",
"pX c #E4A283",
"aX c #C0ADA0",
"sX c #C7B5A5",
"dX c #D3BFA1",
"fX c #C7BDB7",
"gX c #D3C29B",
"hX c #E7C881",
"jX c #F8D786",
"kX c #FFDC83",
"lX c #FFE197",
"zX c #D4C7AD",
"xX c #E7D5AC",
"cX c #FEE6AA",
"vX c #F9E6B5",
"bX c #FFECBC",
"nX c #899AC4",
"mX c #97A4C5",
"MX c #B0B6C9",
"NX c #C2BFC1",
"BX c #BBC0CE",
"VX c #C4C1C2",
"CX c #CBC6C5",
"ZX c #C9CACD",
"AX c #D5D4D3",
"SX c #E4DFD5",
"DX c #F6E9CA",
"FX c #E3E2E3",
"GX c #FAF5E9",
/* pixels */
"o T.4.` K.L.F.T % R.4.` %.] 5.! % K.7.@.%.] ' ..% R.6.` @.]  .T $ E.#.| K.L.K.J % R.4.` %.] 5.! % K.7.@.%.] ' ..o T.4.[ ) 5.] _ ",
"X N.D.&.K.] 0.) % R.6.[ @.] 5.) & I.7.@.2.0. ...o R.7.` o.5.0.X.$ Y.0.D.K.O.9._ % R.6.[ @.] 5.) & I.7.@.2.8. ...o R.7.[ ) 5.5.1.",
"o K.D.W.K.P ] X.% R.6.[ X.] 5...& T.7.@.2.L.0.) o R.7.` %.0.F.+.$ K.0.U.D.' O.{ % R.6.[ X.) C.2X0X0X8X1X,X:X9.) o R.7.[ +.F.F.2.",
"% I.4.W.@.0.] ) % T.4.[ o.0.5...% T.6.[ 2.Q.0.! % T.4.` K.L.F.! $ T.5.U.| 9.] _ % T.4.[ <.fXCX9X>Xb.b.b.;X=X&X..o I.3.[ &.U.D.X.",
"X R.6.D.` 0.5.T & T.} [ $.L.0...% R.4.@.&.!.0.! % T.4.` 2.0.0.T $ W.8.D.` 9.8.J & T.} V.4XsXyX<XB.m.m.m.c.C.b.,Xp K.4.[ $.F.5._ ",
"X R.F.` $.] 0.) * I.} @.$.!.0...% R.4.@.%.Q.0.! % R.7.@.@.' 5...O W.F._ &.' 9._ * I.] ;.4XfXsX4XA.V.V.V.C.;Xb.;.;.;.T #.) } ] %.",
"O E.L X.2.' F ..& I.4.@.$.!.5...% R.4.%.@.L.5...% T.7.&.2.] ] ..& E._ _ z.' E ) & I.4.c.2XaXyXtXA.M.M.M.V.C.c.-.&X0XN K.$.} P %.",
"@ N.6 $.+.#.6 ) % T.6.#.@.!.] ) % R.] #.` F.] ) & K.4.K.~ r r w ; i 6 &.+.%.6 ! % T.5.2X1X;.~ I I L I I ~ ( ,.=X:.$XV K.Y.D.] X.",
"X ( N.N.z.N.l.z.o W.4.` @.!.7.) * F.] 1.9.' K._ : { J ! H i i i i i Q J ~ N.l.z.o ( ;.,.VXAXCX1X>Xn.b.%X&X-X-X&X-.$. .N.F.7.X.@.",
"+ + & $ * X * . % I.6.[ @.F.5.! % F.5.p E ] D J % G 5 5 Q Z.Z.Z.Z.Z.w 5 5 O & . p N 0X$X8XFXFXAXVXwXwXwX8X6X-X%Xv.L.4.N.Q.0.X.@.",
"% l D C D Y W D S u.u.u.u.u.u.u.S i.u.S u.u.S u.4 k.S.e e K gXSXsXi e K S.i Z S S =.$X:.&X1XVXZXNXwXNXeX8X=X;.1X=XQ.P 1.!.7.o.#.",
"# Y 3 E w.X.6 ) i.s.f.f.f.f.f.f.f.f.f.f.f.f.f.f.K k.B.K G ~ xXGXAXa G k.B.K t.f.f.g.G.A.$X=X&X6X8X1X1X1X,XwXCXVX=.U.P +.F.U @.| ",
"@ b.0 ! <.) 0 ) p./.kX[.[.[.[.[.[.[.[.[.[.[.[.[.[.r.w x.Z.S.xXGXSXZ.Z.Q q ^.kX[.[.[.[.B.,X-X6X8XwXwXwXVXAXFXFX8X-.;.D +.3.P %.[ ",
"# rXQ.3.) C.4X0X0X8X1X,X<X'.[.[.[.[.[.[.[.[.[.kXkXr.5 w w a xXGXzXw w q q A.~.kX[.[.[.V.2X2X=X8XeXNXwXNXZXVX8X-.&X0XN N. .5.$.@.",
"$ l.| %.fXCX9X>Xb.b.b.&X=X&X'.[.[.[.[.[.[.kX_.G.H.G q q 5 i xXDXaX5 q q q CXfXP.].[.kXsX1X( Q C.1X,X2X2X1X;.;.=X:.$XV Y #.0.J @.",
"X tX:X4XsXyX<XB.m.m.m.c.C.b.,X'.].[.].'.'.'.l.e e e a Q q i xXxXS.5 r B.<XyXsX4XiX'.'.A.VXAXCX,X>Xn.b.%X&X-X-Xb., K.X.7 _ ] 6 ` ",
"X T.;.4XfXsX4XA.V.V.V.C.;Xb.;.;.;.B.I A A A k.qXqX}.;.;.a i xXGXzX5 Z.A.4XsXfX4X;.A A G 9XFXFXAXVXwXwXwX8X6X-XH.* ( ) R Y ( l ! ",
"X R.b.2XaXyXtXA.M.M.M.V.C.c.-.&X0XN B.x.x.v.5X#X XN 0X&Xc i yXzX,X5 1XA.<XyXaX2Xn.x.x.x.l.4XVXZXNXwXNXeX8X=XH.h.o # # 3 # # # # ",
"X I.2X1X;.~ I I L I I ~ ( ,.=X:.v.V 3XMXnX.X.X.X|.V v.:.c w Z.Z./ 5 1XI I ~ ;.1X6X#XnXmX>.a ^ 4XdXdXyX4XiXJ.g.h.> <Xp # Y l 7 Y ",
"o T.;.VXAXCX,X>Xn.b.%X&X-X-X>.Z.1X8X7XoX.X.X.X.X.X|.|.|.c w Z.Z./ 5 1X>X,XCXAXVX+XXXoXOXOX#X7X~ r.[.[.[.[./.h.h.X A.! 6 J ) l ! ",
"X R.] 9XFXFXAXVXwXwXwX8X6X-Xx.qXVXnX.X.X.X.X.X.X.X.X.X.X4Xx.a a Q Z.0X2X,X1X8X0X0X6X*X|..X.X.X@Xl.y.'.kX[./.h.h.3 N.K.w. .@.1.&.",
"X K.D...uXVXZXNXwXNXeX8X=X/ eXVXmX.X.XXXXX.X.X|.*X6X0X0X6XfXi i / wX&X=X;Xb.b.b.>X9XCXfX X.X.X.X5XG H.'.[./.h.h.# I. .' F.0.W } ",
"o K.6.#.W.<.2X2XtXyX4X;.x.qXeXeX#XoXoXoX.X.X XfXCX9X>Xb.&X X.X.X5X*Xb.C.c.m.m.m.M.<XyXsX4X5X.X.X#XqXH y.[./.h.h.# R.#.' F.L.w.P ",
"X ~.P | 2.Q.] ..p./._.e Z.VXwXeX.X.X.X.X.X5X4XsXyX<XM.m.,. X.X.X X:.b.;XC.V.V.V.A.4XsXfX4X,..X.X.XeXG r.[./.h.h.% E.| 9.Q.9.) | ",
"X R.4.@.$.^.0.E p./._.e Z.VXMXMX#X.X.X.X.X+X4XfXsX4XA.V.&X X.X.X X:.c.C.V.M.M.M.A.tXyXaX2X$X.X.X#XeXG r.[./.h.h.X T.7.#.pX .] %.",
"X T.7.#.+.L.5._ p./._.e Z.VXMXZXMX.X.X.X.X+X1XaXyXtXA.M.%X X.X.X X*X,.( ~ I I L I I ~ ;.1X7X.X.XmXeXG r.[./.h.h.o T.7.@.W. .] o.",
"o I.7.o.X.} ] X.p./.].H.l.>X,X6X8X0X0X5X|.|.5X+X( I I ~ +X|..X.X X+X=X-X&X%Xb.n.,X1XNXZXMX}..XmX3X~ H._.[./.h.h.o T.4.[ Y. . .o.",
"o I.7.[ $.] 5._ p./.kX'.&X=X;Xb.b.b.>X6XOX.XXXOXnX-X*X XXX.X.X.X@X}.-X5X5X7X7X7XmXnX#X#X5X|.MX9XB.K _.kX[./.h.h.o T.4.[ 2.] ] o.",
"X T.7.[ 2.0.0.) p.J.'.,Xb.b.c.m.m.m.B.<X@X.X.X.X.XoXoX.X.X.X.X.X@X|.|.|.XXXX.X.X.X.X#X5X7XZXAX~ K [.[.[.[./.h.h.o R.4.[ +.'  .o.",
". R.4.&.K.D.0.E e.;.;.;.b.;XC.V.V.V.A.4X7XoX.X.X.X.X.X.X.X.X.X.X|..X.X.X.X.X.XoX@X7X7XZXZ.H K H._.[.[.lXcX).h.h.o R.4.o.X.} 5.o.",
". W.4.I.N.5.5.$.N 0X&X-.c.C.V.M.M.M.A.tXyXaX1X XOXXX.X.X.X.X.X.X{..X.XXXOX#XmXBX4X4X4X4Xl.I r._.kX[.[.lXbX).h.h.o R.4.#.+.0.0.o.",
"X ~.4.W.2.' P ..V v.:.=X,.( ~ I I L I I ~ ;.1XwXAXAXAXZXBXMXmXnXmXMXZXAXAXAXAXzXG e e e H.[.[.[.[.[.[.lXvX).h.h.o T.P #.$.L.L.o.",
"# rXO.!.8.8.E ' d.H.hX%X-X-X&X%Xb.n.>X1XCXAXVX-.G G G G H H H H H H G G G G G K H._._._.].[.[.[.[.[.[.kXkX/.h.h.o I.8.o.I L.w.| ",
". A.&.} ' | z._ p.).lX~.-X6X8XwXwXwXVXAXFXFX9Xr.y.y.y.y.y.y.y.y.y.y.y.y.y.y.y.y.].kXkXkX[.[.[.[.[.[.[.kXlX/.h.h.X K.8.o.I 9.O.| ",
"O iXz.P  .&.{ _ p.`.bXjXhX=X8XeXNXwXNXZXVXdXjXkXkXkXkXkXkXkXkXkXkXkXkXkXkXkXkXkXkXkXkXkXkXkXkXkXkXkXkXlXbX).h.h.X I.9.&.|  .O.| ",
"X E.D F ' o.6 _ p.`.DXbXxXxXzX9XsXzXzXzXgXvXbXbXbXbXbXbXbXbXbXbXbXbXbXbXbXbXbXbXbXbXbXbXbXbXbXbXbXbXbXDXbX).h.h.o R.9.w.G. .O.| ",
"; <XT T.rXrX) E.a.h.`.`.`.`.`.`.`.`.`.`.`.`.`.`.`.`.`.`.`.`.`.`.`.`.`.`.`.`.`.`.`.`.`.`.`.`.`.`.`.`.`.`.`./.j.j.o I.8.9.U. .O.| ",
". 7 7 p 7 7 p 4 i.s.s.s.s.s.s.s.s.s.s.s.s.s.s.s.s.s.s.s.s.s.s.s.s.s.s.s.s.s.s.s.s.s.s.s.s.s.s.s.s.s.s.s.s.g.g.g.O R.] #.~. .O.| ",
". , 7 3 4 4 7 # t l ^ n ^ ^ ^ ^ ^ ^ ^ ^ ^ ^ ^ ^ ^ ^ ^ ^ ^ ^ ^ ^ ^ ^ ^ ^ ^ ^ ^ ^ ^ ^ ^ ^ ^ ^ ^ ^ ^ ^ ^ ^ ^ u t t O R.3.#.^. .O.| ",
"# ) D C o.1.T X.< j m d s < @ X                                                                   . O z m 9 < 1 X ~.3.@.U.[ O.| ",
"O ) 3 ! 1.' 6 Y 1 j v s j j s < @ O       y =.-X0X0X8X1X,XC.u                                 . @ < s g b 9 1 1 % K.w.%.' w.)  .",
"O W.| +.1.' J 1.1 g x j >.B z j s 1 = @ z fXCX9X>Xb.b.b.;X=X&X7 .                       . O > 9 j M v.v v 9 1 1 $ K.[ w.3.' N.3.",
". W.D.! %.] &.X.1 g v j v.,X%XB z j d v 3XuXyX<XB.m.m.m.c.C.b.,Xu ;     8 =.-X0X0X8X1X;X,.j v :.%X,Xn.v v 9 1 1 $ W.0.o.7._ 1.3.",
"o I.} _ w.3.&.E 1 g v h M v.%X>X%X=.z z m %X4X2XA.V.V.V.C.;Xb.;.;.*.> z fXzX9X>Xb.,.=.M B n.>X>Xn.>.=.z v 9 1 1 X I.N.0 ' ..p F ",
"X W.7.K.8.F | _ 1 g x d b M =.>.n.>X%X:.v z b -.m.m.M.M.V.C.c.-.&X0XN yXsXyXA.x.^ m >.%X,X%Xv.:.B M m j v 9 1 1 , N.m.l $.<.l +.",
". W.7.~.O.3.G.o.1 g x d b m m M =.>.n.>X%X>.v k l c I I ~ ( ,.=X:.$XV 4XaX,X=.=.n.>X>Xn.>.=.M M m m m j v 9 < 1 . p 3 4 4 ; , 3 ",
". W.6.~.9.0.~.O.1 g x d b m m m M M =.>.n.%X%X>.k j ,.%X&X-X-X:.> 8 >.,Xv z v.>X%Xv.:.B M m m m m m m j v 9 1 1 @ ! 7 7 6 7 , 6 ",
"O K.} ~.O.F D.E 1 g x d b m m m m m M M =.>.n.%XM j 8XwX8X6X-Xf     =X,Xd M v.v.:.B M m m m m m m m m j v 9 1 1 & R.Y # p *.; ! ",
"X T.7.I.+. .] X.1 g x d b m m m m m m m M =.>.v.v.v qXeX8X=Xg o     B wXk v.v.:.v.B m m m m m m m m m j v 9 1 1 @ U.] E { P O.@.",
"X I.7.K.N. .] X.1 g v g b m m m m m m m m =.v.:.%Xm +X=XN , ;       ; -Xz n.v.:.=.m m m m m m m m m m j v 9 1 1 O U.5.o.z. .O.[ ",
"o T.4.#.T. .] _ 1 g v j m m m m m m m m m b =.:.%Xm -               . 9 j n.v.x g b m m m m m m m m m z v 9 1 1 @ U.7.1.I.0.8.` ",
"X W.3.[ T.L. .) 1 g v d m M m m m m m m m j d =.%Xm -                 @ g n.v.j y b m m m m m m m m m j v 9 1 1 @ U.3.1.I.0.8.[ ",
". pXP [ N.!.5.) 1 g x s z m m m m m m m m k 8 B %Xm -                 @ g n.v.z j m m m m m m m m m v d v 9 1 1 @ I.3.1.I.0.O.[ ",
". pX3.o.$.W.0.) 1 g v 2 d z v m m m m m m v g B %Xm -                 @ g n.v.m b m m m m m m v z j d s v 9 1 1 O I.5.w.U.0.O.` ",
"X W.4.#.+.0.5.) 1 j m x k g j z v m m m m m v =.%XM z v v v v v v v v z j n.v.M m m m m m v z j g g k v m 8 1 1 @ I.5.1.I.4.O.o.",
"o K.7.#.$.P 5._ > 9 s y y y s d j z b m m M m =.%XM s y y y y y y y y y h n.v.M m m v z k g s s y y y s s < > > @ I.3.o.z.' ' #.",
"X R.O.) G.L.w.J = = = = = = > > 2 s j v m m m =.%Xm < = = = = = = = = > g :.=.m v z j s 9 < > - - = = = = - - - o T.4.[ ) 5.] _ ",
"o K.0.9.U. .q.L % T.4.@.$.' 5...* <.Y l z v m B n.M | ` @.] 0...$ Y.0.| f x v z g l T ) $.' 5...& T.6.#.$.0.] ..o R.7.[ ) 5.5.1.",
"X K.L.I.| ' q.J % T.6.o.o.]  ...& T. .Q l k z v B v | ` %.F.F.+.$ K.0.D.d f f p , P.5.@.o.]  ...& T.6.@.2.L.0.) o R.7.[ +.F.F.2.",
"% I.0.pXI 9.q.L % T.4.[ o.0.5...% T.4.@.$.$.l j z j | ` w.Q.0.! $ T.5.U.p T [ J & T.4.[ o.0.5...% T.4.@.2.Q.0.! o I.3.[ &.U.D.X.",
"% z.8.T.I ] q.L & T.} [ $.L.0...% T.4.[ 2.L.| l s g | ` &.F.5.! $ N.] U.` O.5._ & T.} [ $.L.0...% T.4.[ 2.Q.0.! o I.4.[ $.F.5._ ",
". I.K.) I ' w.J & T.} [ $.!.0...% R.6.@.2.Q.0.! , Q #.@.o.] ] ..X E.D.L { ' w.! & T.} [ $.!.0...% R.6.@.2.Q.0.! o T.7.#.) } ] %.",
"X pX%.! | 9.O.J % T.6.@.$.^.5.) % T.6.@.$.L.5.) % P.5.&.2.P 5...X iX#.L &.q._ ! % T.6.@.$.^.5.) % T.6.@.$.L.5.) o I.7.9.$.} P %.",
"@ m.3 X.| E 3 J % T.7.@.o.!.5.! % T.4.@.@.0.] ) % T.P K.W.5.5.T & N.3 { &.E 3 ! % T.7.@.o.!.5.! % T.4.@.@.0.] ) * K.3.K.Y.D.] X."
};
