/* XPM */
static char *result[] = {
/* columns rows colors chars-per-pixel */
"64 64 252 2 ",
"   c #0B0501",
".  c #170A03",
"X  c #171207",
"o  c #1C130A",
"O  c #1C190C",
"+  c #070F16",
"@  c #191615",
"#  c #260803",
"$  c #261604",
"%  c #22140C",
"&  c #24190E",
"*  c #33110E",
"=  c #251912",
"-  c #221F1C",
";  c #2A2218",
":  c #271922",
">  c #322927",
",  c #38312B",
"<  c #38332F",
"1  c #52180A",
"2  c #4B2F0E",
"3  c #523C06",
"4  c #6E3015",
"5  c #543128",
"6  c #423C37",
"7  c #443F3A",
"8  c #653229",
"9  c #5A4207",
"0  c #5C4916",
"q  c #795A0C",
"w  c #6D5116",
"e  c #474139",
"r  c #4A443E",
"t  c #514631",
"y  c #6A5726",
"u  c #734F30",
"i  c #786537",
"p  c #4D4741",
"a  c #534C46",
"s  c #594F45",
"d  c #564E48",
"f  c #5A5148",
"g  c #59524C",
"h  c #5D5650",
"j  c #70534C",
"k  c #635B54",
"l  c #685F57",
"z  c #6A6057",
"x  c #6A6058",
"c  c #736855",
"v  c #776C64",
"b  c #786D65",
"n  c #786969",
"m  c #7D7169",
"M  c #7F7072",
"N  c #853C32",
"B  c #8A5E13",
"V  c #886514",
"C  c #AC7607",
"Z  c #8E4E37",
"A  c #AF5D38",
"S  c #84692C",
"D  c #836A35",
"F  c #996238",
"G  c #917634",
"H  c #A76E38",
"J  c #B9693C",
"K  c #A8763B",
"L  c #C6693E",
"P  c #8B594A",
"I  c #995E46",
"U  c #A55D48",
"Y  c #AF5E50",
"T  c #996646",
"R  c #9D644B",
"E  c #906A4E",
"W  c #9A7549",
"Q  c #85745B",
"!  c #8B7B58",
"~  c #937257",
"^  c #A2654D",
"/  c #A76849",
"(  c #AD6B4C",
")  c #B96747",
"_  c #BC6C44",
"`  c #B26D4D",
"'  c #AB744B",
"]  c #BD7143",
"[  c #B47549",
"{  c #BE724B",
"}  c #A56B52",
"|  c #AC6C53",
" . c #AA6A58",
".. c #B26D53",
"X. c #B86B56",
"o. c #AC7257",
"O. c #B47253",
"+. c #BA7454",
"@. c #B5745A",
"#. c #B9755C",
"$. c #B97A59",
"%. c #88766C",
"&. c #957868",
"*. c #897A75",
"=. c #947973",
"-. c #AE7265",
";. c #B87564",
":. c #BD7C62",
">. c #C26D46",
",. c #C27345",
"<. c #C4744B",
"1. c #C9764B",
"2. c #C5794A",
"3. c #CA7B4C",
"4. c #C16D56",
"5. c #C67A52",
"6. c #CB7B54",
"7. c #C87859",
"8. c #D17A54",
"9. c #C36F68",
"0. c #C57A64",
"q. c #AC8227",
"w. c #A58433",
"e. c #AD8932",
"r. c #AB8935",
"t. c #C78A15",
"y. c #D59810",
"u. c #DCA213",
"i. c #F2AE08",
"p. c #F3B008",
"a. c #E3A612",
"s. c #D4A42D",
"d. c #DDAB2D",
"f. c #DBAC39",
"g. c #E8B136",
"h. c #F6C13D",
"j. c #F8C23D",
"k. c #9B8654",
"l. c #AB8A56",
"z. c #BA855B",
"x. c #978865",
"c. c #9D8476",
"v. c #918379",
"b. c #9C867B",
"n. c #938879",
"m. c #A68367",
"M. c #AF896B",
"N. c #B98667",
"B. c #B18A6D",
"V. c #A8946A",
"C. c #A68876",
"Z. c #B78F70",
"A. c #A69876",
"S. c #B49577",
"D. c #B8A57B",
"F. c #C88E53",
"G. c #CB8358",
"H. c #D4865B",
"J. c #CDA954",
"K. c #ECBB4A",
"L. c #C58968",
"P. c #D88965",
"I. c #CA936B",
"U. c #D49768",
"Y. c #DD9568",
"T. c #C88B72",
"R. c #CD9572",
"E. c #CD9974",
"W. c #C89678",
"Q. c #D19A75",
"!. c #D79979",
"~. c #E5946C",
"^. c #EB9A74",
"/. c #D6A872",
"(. c #ECAA73",
"). c #F8C549",
"_. c #FAC749",
"`. c #F8C954",
"'. c #E7C36A",
"]. c #FAD06A",
"[. c #EFCA78",
"{. c #F2CD73",
"}. c #F7D278",
"|. c #FFDA7E",
" X c #7A7893",
".X c #4F72B8",
"XX c #5775B8",
"oX c #637AB9",
"OX c #3370C4",
"+X c #877C91",
"@X c #5E80C2",
"#X c #6785C3",
"$X c #8E8080",
"%X c #9C8A83",
"&X c #9B8A8A",
"*X c #948A90",
"=X c #9D9294",
"-X c #9D9499",
";X c #A28E86",
":X c #B38B81",
">X c #A29186",
",X c #A8968C",
"<X c #BB9B84",
"1X c #A99B96",
"2X c #B19F93",
"3X c #B49A96",
"4X c #ACA494",
"5X c #B9A797",
"6X c #979AB3",
"7X c #A29CA2",
"8X c #A9A2A4",
"9X c #B8AAA4",
"0X c #B5ACAD",
"qX c #B7B2AA",
"wX c #B3AFB0",
"eX c #B7B4B3",
"rX c #BAB4B5",
"tX c #BAB6BA",
"yX c #BEBEBE",
"uX c #D29683",
"iX c #C5A58A",
"pX c #C5AC96",
"aX c #CEB190",
"sX c #E4A283",
"dX c #C0ADA0",
"fX c #C7B5A5",
"gX c #D3BFA1",
"hX c #C6BDB8",
"jX c #D3C29B",
"kX c #F8D786",
"lX c #FFDC83",
"zX c #FFE197",
"xX c #D4C7AD",
"cX c #E7D5AC",
"vX c #FEE6AA",
"bX c #F9E6B5",
"nX c #FFECBC",
"mX c #899CC8",
"MX c #B4B8C5",
"NX c #C2BFC1",
"BX c #BFC0C0",
"VX c #C3C2C3",
"CX c #CBC3C1",
"ZX c #CDCCCD",
"AX c #CECDCD",
"SX c #D4D3D1",
"DX c #D7D7D8",
"FX c #DBDBDB",
"GX c #E4DFD5",
"HX c #F6E9CA",
"JX c #E3E3E3",
"KX c #FAF5E9",
/* pixels */
"o R.,.( 0.P.H.I % Q.,.( #._ <.R % L.3.O.#._ J ^ % R.<.( O._ <.I $ W.+.[ I.P.L.F % E.,.( #._ <.R % L.3.O.#._ ) } o R.,.` } <._ / ",
". N.G.$.L.) 6.^ % Q.2.` O._ <.^ & I.3.O.:.5.{ } % Q.1.( ..4.6.| o T.7.5.H.X.#./ % Q.2.` O._ <.^ & I.3.O.:.5._ } o E.3.` } <.<.;.",
"o L.G.Y.L.J _ | % Q.1.` | _ <.} & R.3.O.:.P.6.^ o E.3.( #.8.H.o.$ L.7.U.G.) X.' % Q.2.` | _ 1.} & R.3.O.:.P.6.^ o E.1.` o.H.H.:.",
"% I.,.!.O.6._ ^ % R.,.` ..6.<.} % R.2.` :.~.6.R % R.1.( L.P.H.T $ U.<.U.[ 7._ / % R.,.` ..6.<.} % R.2.` :.~.6.R o I.>.` $.U.8.| ",
". E.1.7.( 6.<.I & R.] ` @.P.6.} % E.,.O.#.^.6.R % R.1.( :.6.6.I $ !.7.F./ 7.4.F & R._ ` +.P.6.} % E.,.O.$.^.7.R O I.,.` @.H.<./ ",
". E.G.( @._ 5.^ = I.] O.@.^.5.} % Q.,.O.#.~.6.R % Q.1.O.O.) 1.} X !.H.H $.) $./ = I._ ..@.!.:X,X7X8X0X0X3X:Xo.R O E.3.+.} ] _ #.",
"X W.H | :._ A } & I.,.O.#.^.<.} % Q.>.#.O.P.<.} % R.1.$.$.) _ ( & W.A / N.) U } & I.{ O.;.&X=X&XC.b.b.>X9XxXMX-.& L.3.7.#._ J #.",
"@ B.4 @.o.+.4 ~ % R.2.+.O.^._ ^ % E._ +.` H.>.^ & L.,.L.W w 4 0 * y 4 $.o.$.4 T o E.2.@.>Xc.c.c.m.m.m.B.iXpXfX5X%.N.>.L.T.G._ | ",
"# ~ N.N.z.N.@.$.o !.,.( O.^.3./ - H._ ;.7.) L.U : ' F D i y y y y y D W E l.k.z.o &.&.&.&.C.;XC.C.C.S.S.iXfXhX5X&.G.2.N.H.2.| O.",
"+ + & $ O X -   % I.,.' O.H.,.T & F.2.u U ) Z Z % S 9 9 i A.V.A.D.V.0 3 9 X &   u n 0X&X%.c.C.C.M.M.M.S.iXpXdX2Xv.P.,.Z.~.H.| O.",
"% j N N Z P Y P C t.t.t.t.t.t.t.C t.t.C t.t.C t.2 k.D.q q k.jXGXfXq q G D.y q t.C M +X=.=X=.E W K K F K ' W &.1X=X~.J ;.^.8...+.",
"# P 1 U 0. .4 ^ y.u.d.d.d.d.d.d.d.d.d.d.d.d.d.s.G k.x.w.q k.cXKXSXS S k.V.w.e.d.f.f.e.I.$X-X1X&X%XC.%X&X1XxXSXNX%.Y.J o.H.L O.[ ",
"@ c.8 R -.~ 8 ^ i._.lXlX}.|.|.|.|.|.|.|.|.|.|.|.|.w.0 x.A.D.cXKXGXV.A.c 9 '.|.|.kXlX|.V.,X-X7X8XtXtXtXVXDXJXJX0X%.&.P -.>.J #.` ",
"# uX~.>. .=.5X0X0X8X1X,X<X[.|.|.|.|.|.|.|.|.|.|.|.w.3 0 0 i cXKXxX0 0 9 9 S./.|.|.|.lXA.2X2X=X7XyXhXtXBXZXxX7X%.%X0Xv ;.{ <.@.O.",
"$ l.{ :.hXCX9X>Xb.C.C.,X=X&X[.lXlX|.|.|.|.lX`.J.J.G 9 9 9 y cXHXqX3 9 9 9 AXxXE.}.|.|.pX1X&.E C.1X,X1X2X1X&.=.&X*.+X%.P O.6.Z +.",
". aX:X5XfXpX<XB.m.m.&.c.c.c.;X[.}.|.{.{.{.{.l.w q q y D 9 y jXcXD.9 w V.W.pXqX5XaX{.{.S.CXSXCX,X&Xb.%XC.&X-X=XC.> L./ 5 ( { 4 ( ",
". R.m.9XhXfXiXS.C.M.C.C.%Xb.x.&.&.Z.G V V V k.qX8Xv.&.&.j y cXKXhX3 >XS.pXfXhX9Xx.V V i qXJXJXDXNXrXtXtX7X7X-XJ.& ~ ^ P P &.j R ",
". !.C.3XdXpX<XS.M.M.M.C.C.c.%.&X0Xb V.x.k.x.4XyXhXn wX&Xc w 5XxX,X3 4XS.iXpXpX2Xv.k.k.x.l.4XxXSXMXyXNXhX4X=XJ.).o * * 1 # # * # ",
". I.3X3X&.~ ' K H K K W ~ =.=X*.v.*.4XVXBXBXyXyXMXM +X*.c w A.A.k.9 4XK K W &.1X0XBXBXBXk.y c 5XaXgXpX9XaXK.g.h.> <Xu # P j 5 P ",
"% T.&.NXSXxX1X>X%Xb.C.&X-X=Xv.b.1X8XyXBXBXyXyXyXxXwX5XeXi 0 A.A.k.; 1X;X,XNXSXVX,XMXBXBXhXeXqXE w.|.|.|.|._.h.h.. Z.^ 8 I ^ j R ",
". E.[ 9XJXJXFXNXtXtXtX8X7X-Xv.qXBXBXBXMXBXAXAXSXAXAXSXAX9Xx.i u i >XqX,X1X1X8XwXwXeX1X1XMXBXMX1Xx.r.{.|.|.).h.h.1 N.0.0.4.X.;.$.",
". L.G.} 5XNXZXNXtXVXyX8X=X! eXVXBXBXBXxXVXFXFXeX8XhX0X0X8XhXy y k.eX%X=X&Xb.C.b.>X5XCXhXtXxXxXVX4XS J.{.|.).h.h.* I.+.) 8.8.Y ] ",
"o L.2.+.!.-.3X3XiXpX4Xv.x.eXMXBXMXVXyXZXFXFXZXyXCX9X>Xb.*X.XOXOXXX*Xn.b.c.m.m.M.B.W.pXfXqXqXyXVXxXeXi r.}._.h.h.# E.+.) H.P.0.) ",
". /._ [ 0.~._ ^ p._.'.q A.VXxXMXVXSXAXDXFXCX5XdXpX<XB.m.+X.XOXOXXX+Xb.>XC.C.C.C.S.5XfXhX5X>XyXyXBXyXi e.|.j.h.h.% W.' 7.~.7.^ [ ",
". E.,.O.@.(.8.U i._.'.B A.VXBXVXZXFXFXFXFX>X5XhXgX3XS.B.+XoXOXOXXX Xc.b.C.M.M.M.S.<XpXqX4X;XVXVXBXhXi w.|.).h.h.X R.1.+.sX{ _ #.",
". I.1.+.| P.<.| i.).'.q A.MXyXSXFXFXFXFXFX&X2XdXpXiXS.B.+XXXOXOX.X*X=.~ K K K H w.K W &.2XrXFXVXyXeXS w.}.).h.h.o R.1...!.{ _ o.",
"o I.1...| _ _ | i._.}.J.k.:X,X7X8X0XeXrX8X1X4X&.W K K H +X.XOXOX.X X7X-X&X%Xn.b.=X1XxXSXCX1XFXZX4XG J.'.}._.h.h.O R.,.` T.<.{ X.",
"o I.1.` @._ <.} i.).lXkX&X=X,Xb.C.b.>X5XCXhXhXSXVX1X>Xb.*X.XOXOXXX X-X6X8XtXtXtXBXFXJXJXtXZXFXqXV.w.'.|.|._.h.h.O R.,.` :._ X. .",
". R.1.` :.5.6.^ i.K.(.,Xn.C.c.m.m.m.B.D.aXfX9XCXJXDXCXtX6X#XOXOX.X XwX=X8XyXMXtXBXAXVXBXAXDXSXG G |.|.|.|.).h.h.o E.,.` o.J ) X.",
"  E.,.:.L.G.7.U q.&.=.&.b.;XC.M.C.S.S.5XfXhX9XC.VXZXMXtXMX#XOXOX@XMXVXZXtX0XrXhXBXxXBXSXA.G i J.'.|.|.zXvX).h.h.o E.,.X.| ] <.X.",
". Q.{ U.N.1.<.o.n 0X;X&.c.C.C.M.M.M.S.iXpXpX2X;XhXNXhXyX6X@XOXOX#XZXFXFXFXFXFXSXaX4X5X4Xl.w.w.'.|.|.|.zXnX`.h.h.O E.,.+.o.6.7.@.",
". /.<.!.;.) J } %.+X*.=X=.~ W K K F K K W &.1XrXSXSXSXSXZXMXmXmXMXZXSXSXSXSXDXxXi q q q J.|.|.|.|.|.|.zXnX`.h.h.O R.J +.@.P.P. .",
"# uX<.^.<.4.U ) d.J.[.>X-X1X&X;X%X%X;X,XxXSXVX*.S S i G D D D i c S G i S S S w.J.'.'.'.}.|.|.|.|.|.|.lXlX).h.h.O I.5...H P.0.[ ",
"  S.+.J _ [ z./ p.`.zX/.-X7X7XtXtXtXVXDXJXJXqXw.r.r.e.r.r.r.r.r.r.r.r.r.r.r.r.r.}.lXlXlX|.|.|.|.|.|.lXlXzX_.h.h.X L.7.O.K 7.X.` ",
"o aXz.J { +.( / p.].nX|.aX,X7XNXNXtXNXZXVXxX[.lXlXlXlXlXlXlXlXlXlXlXlXlXlXlXlXlXlXlXlXlXlXlXlXlXlXlXlXzXnX`.j.j.X I.7.$.[ { X._ ",
". R.Z A ) ..4 U p.}.HXnXbXcXjXqXfXhXxXhXjXbXnXnXnXnXnXnXnXHXnXnXnXnXnXnXnXnXnXHXnXnXnXnXnXnXnXnXnXnXnXHXnX`.h.j.O E.7.0.F.{ X.[ ",
"* <XI T.uXuX~ uXp.h.].].].].].].].].].].].].].].].].].].].].].].].].].].].].].].].].].].].].].].].].].].].).j.j.O T.4.7.Q.<.X.[ ",
"  6 5 u 5 5 s 1 u.a.a.a.a.a.a.a.a.a.a.a.a.a.a.a.a.a.a.a.a.a.a.a.a.a.a.a.a.a.a.a.a.a.a.a.a.a.a.a.a.a.a.a.a.d.f.f.o R.{ +./.,.X.( ",
"  , 5 1 2 2 5 * t j Q Q Q Q Q Q Q Q Q Q ! Q m ! Q Q x.c Q Q ! m Q Q Q Q Q ! ! m Q Q Q Q Q Q Q Q ! Q Q Q b t t t X Q.>.+.^.{ X.[ ",
"# E Z N o.:.T ' , f v g h g g g g g h f g g f g g h g h g g g h h g g g g h g g g g g h g g g g g g h k v 6 < < X /.>.` /.( X.[ ",
"X ^ 1 T :.Y 4 P < g x r a g g s g f g f g d g g g d g g p p 7 7 e p d g g g g g d g g d g g d g g f 7 s v 7 < < % L.0.+.) 0.E { ",
"X uX' o.;.) F ;.< d x r *.4X2X2X2X2X2X2X2X2X2X2X4X4X2X2X*.x r 7 a v >X4X2X4X2X2X2X2X2X2X2X2X2X2X2X,Xk s l 7 < < $ I.{ 0.>.) B.>.",
"  !.7.T #._ +.| < s x a b v.v.v.v.v.v.v.v.v.v.v.n.v.v.v.b.v.r 7 k %Xn.v.v.v.v.v.v.v.v.v.v.v.v.v.v.=.h h l 6 < < $ !.1.+.8.U ;.>.",
"@ P._ / 0.>.$.U < a z s z v v v b v v v v v v v b m m v >X>Xr 7 x 5X%.m M b v v v v v v v v v v v v h h l 6 < < . I.N.8 J  .u A ",
"X !.3.I.4.A { ( < d l r l b v v v v v v v v v v v %X4Xb >X>Xp 7 x 4X%.v.2Xm v v v v v v v v v b v v a d x 7 < < , C.-.j X.-.n  .",
"  !.3.!.4.>.F...< d l r k b v b b v b v v v v v b k a v >X>Xr 7 x 5X*.l d c v v v v v v v v v v v v a d l 6 < <   u 1 1 2 1 > 1 ",
". !.<./.4.8./.X.< a l r k b v v v v b v v v v v b 7 > v >X%Xr 7 x 5X*.a - x v v v v v v v v v v v v p d x 7 < < @ R 5 > 4 5 > 4 ",
"o L.<./.X.A L.U < d l r k b v v b v v v v v v v b r > x ,X%Xr 7 x 4X*.a > x b v v v v v b v v b v v a d l 6 < < = W.P * u -.: R ",
". R.1.I.o.{ _ | < d l r k b v v v v v v v b v b v x k v >X>Xp 7 l 5X*.x k v v v v v v v v b v v v v p a x p < < @ I._ U ' J X.X.",
". I.1.0.N.{ _ | < d l a l v v v b v b v v v v v v b b v >X>Xp 7 x 5X%.v v v b v b v b v v v v v v v d d x < < < @ U.<.X.z.{ X.` ",
"o E.,.+.R._ _ / < d l f z b v b v v v v v v b v b v v v >X%Xp 7 l 2X*.v v v v v v v v b v v v v v v g k x p < < @ U.1.;.I.5.4.( ",
"X !.>.` R.P.{ ^ < d l p l b b b b b b v b b b b b b b b m v r 7 g %.b b v v b v b b b b b b v v v v a g x < < < @ U.>.;.I.5.4.` ",
"  sXJ ` N.^.1.^ < d l r f k k k k k k k k k k k k k k k k g r e p k k k k k k k k k k k k k k k k k p a l < < < @ I.>.;.U.5.+.` ",
"  aX>...@.!.6.^ < s l p r r r r r r r r r r r r r r r r r r r r p e e p r r r r r r r r r r r r r e p g x 7 < < o I.<.0.U.5.X.( ",
". !.,.+.o.6.<.^ < f v l l l l l l l l l l l x l l l x x l x x x x k x k l l l l l l l l l l l l x x x c v 7 < < @ I.<.;.I.,.{ ..",
"X L.3.+.@.J <.^ > 6 a r p r r r r p r p r r r r r r r r r r r r p p p p p r r p r p r r p r r p r r r r p < > > @ I.>...z.) ) +.",
". E.X.^ F.P.9.F - - - - - - - - - - - - - - - - - - - - - - - : @ - - - - - - - - - - - - - - - - - - - - - - - O I.,.` } <._ ^ ",
"O L.8.7.U.) 9./ % R.,.O.#.) <.} & R.2.+.@.6._ } X !.2.( O.] 7.} o T.3.z.U.) 5.^ % R.,.O.@.J <.} & R.2.+.#.6._ } o Q.3.` / <.<.:.",
". N.P.I.[ _ 9.F % R.1....._ { } & R.2.O.:.P.6.^ O R.3.( #.H.H.o.$ L.8.H.{ Y X.F % R.1.O..._ { } & R.2.O.:.P.1.^ o E.1.` o.H.H.:.",
"% I.6.sXH 7.;.A % R.] ` ..6.<.} % R.,.O.:.~.6.R % L.3.( 0.~.6.R $ E.<.(.[ 7.8.F % E.{ ` ..6.<.} % R.,.O.:.~.7.R o I.>.` $.U.6.| ",
"% z.4.R.K <.9.H & E.{ ` @.P.6.} % R.,.` :.~.6.T & L.3.( #.H.<.I $ N._ U.[ 4.<./ & R.] ` #.P.6.} % R.,.` :.~.6.T O I.,.` #.H.<./ ",
"  I.L.^ H ` 9.T & I.] ` @.^.6.} % Q.2.O.:.~.6.R % R.6.O..._ _ } . W.G.H ' ) 0.I & R.] ` @.^.6.} % Q.1.O.:.~.6.R O R.3.O.} ] _ #.",
". sX#.^ +.7.X.F % R.2.O.#.(.1.^ % R.1.O.@.P.1.^ % E.1.$.;.J <.} X aX{ A O.9./ ^ % R.1.O.@.(.<.^ % R.2.O.@.P.<.^ O I.3.7.@.>.J #.",
"@ m.1  .O.U 1 F % R.1.X...^.<.R % I.,.+...5._ ^ % E.J T.!.<.<.I = N.1 ' $.U 1 T % E.3.O.X.^.<.R % R.,.O.O.6._ ^ & L._ P.T.G.) | "
};
