/* XPM */
static char *_1573eb249ea47bda5d2bc1eb948001b8OjULTGnRtkZS0mv[] = {
/* columns rows colors chars-per-pixel */
"64 64 251 2 ",
"   c #000000",
".  c #0B0501",
"X  c #160A04",
"o  c #1C130A",
"O  c #191409",
"+  c #050C15",
"@  c #191614",
"#  c #2E0D09",
"$  c #261604",
"%  c #22140C",
"&  c #24190E",
"*  c #231D18",
"=  c #24211D",
"-  c #362514",
";  c #071B36",
":  c #271922",
">  c #2B2725",
",  c #342D2E",
"<  c #38312B",
"1  c #38332F",
"2  c #52180A",
"3  c #4B2F0E",
"4  c #523C06",
"5  c #6E3015",
"6  c #53342D",
"7  c #423C37",
"8  c #653229",
"9  c #5B450E",
"0  c #6E5214",
"q  c #4B443D",
"w  c #554433",
"e  c #6A5726",
"r  c #714F34",
"t  c #786537",
"y  c #0F2648",
"u  c #252F50",
"i  c #4D4743",
"p  c #534C45",
"a  c #594D46",
"s  c #564E48",
"d  c #575049",
"f  c #5B534C",
"g  c #4E4C53",
"h  c #5C5654",
"j  c #72554A",
"k  c #645C55",
"l  c #655C56",
"z  c #796946",
"x  c #6B615A",
"c  c #72675F",
"v  c #5B5866",
"b  c #686264",
"n  c #766C64",
"m  c #796D65",
"M  c #766B6A",
"N  c #7D7169",
"B  c #6A6679",
"V  c #7E7174",
"C  c #853C32",
"Z  c #8A5E13",
"A  c #886514",
"S  c #AC7607",
"D  c #8E4E37",
"F  c #AF5D38",
"G  c #85692B",
"H  c #986238",
"J  c #8A7036",
"K  c #A86C3A",
"L  c #B9693C",
"P  c #A8763B",
"I  c #C6693E",
"U  c #8B594A",
"Y  c #975E46",
"T  c #A55D48",
"R  c #AF5E50",
"E  c #8F6A4F",
"W  c #9A6549",
"Q  c #9B7549",
"!  c #8B7C56",
"~  c #85745B",
"^  c #947256",
"/  c #A2654D",
"(  c #A76849",
")  c #AD6B4C",
"_  c #B96847",
"`  c #BC6C44",
"'  c #B26D4D",
"]  c #AB744B",
"[  c #BD7143",
"{  c #B47449",
"}  c #BD724B",
"|  c #A56B52",
" . c #AA6B55",
".. c #B26D53",
"X. c #B86B56",
"o. c #AC7257",
"O. c #B47253",
"+. c #BA7454",
"@. c #B4745A",
"#. c #B9755C",
"$. c #B97A59",
"%. c #9A6F68",
"&. c #8B7567",
"*. c #82756C",
"=. c #967869",
"-. c #897A75",
";. c #947D74",
":. c #AE7466",
">. c #BA7964",
",. c #C26D46",
"<. c #C27345",
"1. c #C4744B",
"2. c #C8794B",
"3. c #C97355",
"4. c #C77957",
"5. c #CB7B54",
"6. c #C36F68",
"7. c #C57A64",
"8. c #AC8227",
"9. c #AF8A33",
"0. c #AB8936",
"q. c #C78A15",
"w. c #D59810",
"e. c #D69F1E",
"r. c #F2AE08",
"t. c #E3A612",
"y. c #DDAB2D",
"u. c #DBAA39",
"i. c #E9AC2C",
"p. c #F6C13D",
"a. c #F8C23D",
"s. c #9D8553",
"d. c #A98855",
"f. c #BA855B",
"g. c #988666",
"h. c #908578",
"j. c #968478",
"k. c #9C867B",
"l. c #9B897E",
"z. c #A68368",
"x. c #AF896B",
"c. c #B6886A",
"v. c #B1916D",
"b. c #A68876",
"n. c #A79875",
"m. c #B49578",
"M. c #B8A57B",
"N. c #CB8358",
"B. c #D4865B",
"V. c #C89054",
"C. c #D2A854",
"Z. c #EEBC49",
"A. c #C58868",
"S. c #D88965",
"D. c #CA936B",
"F. c #C8976A",
"G. c #D59768",
"H. c #C88B72",
"J. c #CD9572",
"K. c #CD9974",
"L. c #C89678",
"P. c #D59978",
"I. c #E5956C",
"U. c #EC9B74",
"Y. c #D8A972",
"T. c #EDAA74",
"R. c #F8C549",
"E. c #FAC749",
"W. c #F8C953",
"Q. c #FAD06A",
"!. c #ECC772",
"~. c #F2CD73",
"^. c #F7D278",
"/. c #FFDA7D",
"(. c #2B528E",
"). c #295CA3",
"_. c #386DBC",
"`. c #3E70BE",
"'. c #435D93",
"]. c #4A6296",
"[. c #5A6B9A",
"{. c #6D7391",
"}. c #4F6DAB",
"|. c #4772BD",
" X c #5775B9",
".X c #7078A7",
"XX c #667CB6",
"oX c #3470C4",
"OX c #3B72C3",
"+X c #4274C3",
"@X c #4A77C3",
"#X c #567CC2",
"$X c #8A798B",
"%X c #6A82BC",
"&X c #7C88B3",
"*X c #5C81C6",
"=X c #728CC4",
"-X c #8E8080",
";X c #9D8C83",
":X c #998888",
">X c #8D8892",
",X c #998D95",
"<X c #9D9294",
"1X c #9D949A",
"2X c #A28D87",
"3X c #B08B8A",
"4X c #A49185",
"5X c #A6948C",
"6X c #BA9A84",
"7X c #A99A97",
"8X c #B19C93",
"9X c #ACA194",
"0X c #BAA799",
"qX c #8E92B0",
"wX c #A39CA5",
"eX c #A19EB2",
"rX c #9AA0B7",
"tX c #A9A2A6",
"yX c #B8A8A2",
"uX c #B4ABAD",
"iX c #AAA7B0",
"pX c #BAB7BA",
"aX c #D29683",
"sX c #C5A58B",
"dX c #D0B48E",
"fX c #C5AC96",
"gX c #C0A99E",
"hX c #E4A283",
"jX c #C0ADA0",
"kX c #C7B4A4",
"lX c #C7BDB7",
"zX c #FFDC83",
"xX c #F5D58A",
"cX c #E3CA98",
"vX c #EFD292",
"bX c #D5CAB1",
"nX c #E7D4A9",
"mX c #FEE6AA",
"MX c #F9E7BA",
"NX c #FFECBC",
"BX c #889AC6",
"VX c #95A3C6",
"CX c #AFB4C6",
"ZX c #C2BFC2",
"AX c #BBC1D2",
"SX c #C9C4C4",
"DX c #D3D0CB",
"FX c #D5D4D5",
"GX c #EDE3CD",
"HX c #E2E2E3",
"JX c #FAF5E9",
/* pixels */
"o J.<.) A.S.B.Y % K.<.) #.` 1.W % A.2.O.#.` _ | % K.2.) O.` } Y $ L.+.{ A.S.A.H % K.<.) #.` 1.W % A.2.O.#.` _ | o J.<.' / 1.` ( ",
"X c.N.$.A.` 5./ % K.2.' O.` 1./ & D.2.O.>.5.} | o K.2.) ..1.5. .$ H.5.N.A.X.4.( % K.2.' O.` 1./ & D.2.O.>.3.} | o K.2.' / 1.1.>.",
"o A.N.P.A.L `  .% K.2.'  .` 1.| & J.2.O.>.S.5./ o K.2.) #.5.B.o.$ A.5.G.N._ X.] % K.2.'  ./ b.8XuXuXtX7X5X3X4./ o K.2.' o.B.B.>.",
"% D.<.P.O.5.` / % J.<.' ..5.1.| % J.2.' >.I.5.W % J.<.) A.S.B.W $ J.1.G.' 4.` ( % J.<.' :.lXSXyX4Xk.k.k.2X<X:X| o D.,.' $.G.N. .",
"X K.2.N.) 5.1.Y & J.[ ' @.S.5.| % K.<.O.$.U.5.W % J.<.) >.5.5.Y $ P.3.N.) 4.3.H & J.[ b.0XkXfX6Xv.z.z.z.j.b.k.4Xr A.<.' @.B.1.( ",
"X K.B.) @.` 5./ & D.[ O.@.U.5.| % K.<.O.#.I.5.W % K.2.O.O._ 1.| O P.B.( $._ 4.( & D.` =.0XlXkX0Xm.v.x.b.b.4Xk.=.=.=.Y +./ [ ` #.",
"O L.K  .>._ F | & D.<.O.@.U.1.| % K.<.#.O.S.1.| % J.2.$.>.` ` | & L.( ( f._ T / & D.<.k.8XjXfXsXm.x.x.x.b.b.j.&.:XuXM A.@.[ L #.",
"@ c.5 @.o.+.5 ^ % J.2.+.O.U.` / % K.` +.) B.` / & A.<.A.Q 0 0 9 - e 5 $.o.#.5 W % J.1.8X7X=.Q P P K P P Q ^ ;.<X-.-XV A.H.N.`  .",
"X ^ c.c.f.c.d.f.o P.<.) O.U.2./ & B.` >.4._ A.( : ] H W G e e e e e J H Q c.d.f.o ^ =.;.SXDXSX7X4Xl.k.;X:X1X<X:X&.@.} c.B.2. .O.",
"+ + & $ & X & . % D.2.' @.B.1.W % B.1.r T ` D H % G 4 4 E n.n.n.n.n.0 4 4 O & . r M uX-XtXHXHXFXSXpXpXpXtXwX1X;Xj.S.<.c.I.5. .O.",
"% j D C D U R D S q.q.q.q.q.q.q.S e.q.S q.q.S q.3 s.M.0 0 J cXGXkXe 0 J M.e Z S S *.-X-.,X7XSXDXZXpXZXpXtX<X=.7X<XI.L >.U.2...+.",
"# U 2 T 7. .5 / w.e.y.y.y.y.y.y.y.y.y.y.y.y.y.y.J s.v.J G Q nXJXDXt J s.v.J 9.y.y.u.V.m.-X,X:X7XtX7X7X7X5XpXSXSX*.G.L o.B.I O.' ",
"@ k.8 W :.^ 8 ^ r.R.zX/./././././././././././././.0.9 g.n.M.nXJXGXn.n.E 9 Y.zX/./././.v.5X1XwXtXpXpXpXSXFXHXHXtX&.=.D o.,.L #.' ",
"# aXI.,./ b.0XuXuXtX7X5X6X~././././././././././.zX0.4 9 9 t nXJXbX9 9 9 9 m.Y.zX/././.b.8X8X,XtXpXZXpXZXDXSXtX=.:XuXM c.} 1.@.O.",
"$ d.{ #.lXSXyX4Xk.k.k.2X<X:X~./././././././.!.V.C.G 9 9 4 e nXGXjX4 9 9 9 SXlXF.^./.zXkX7X^ ^ b.7X5X8X8X8X=.=.<X-.-XV U +.5.D O.",
"X sX3X0XkXfX6Xv.z.z.z.j.b.k.4X!.^./.~.~.~.~.d.0 0 0 t E 9 e nXnXM.4 0 v.6XfXkX0XdX~.~.m.SXFXSX7X4Xl.k.;X:X1X<Xk.< A. .6 ( ` 5 ) ",
"X J.=.0XlXkX0Xm.v.b.b.b.4Xk.=.=.=.v.P A A A s.uXuX{.=.=.t e nXJXbX4 ;Xm.0XkXlX0X=.A A G yXHXHXFXSXpXpXpXtXwX1XC.& ^ ^ U U ^ j W ",
"X K.k.8XjXfXsXm.x.x.x.b.b.j.=.:XuXM v.g.g.h.qX=XXXM uX:Xz e fXbX5X4 9Xm.6XfXjX8Xl.g.g.g.d.0XSXDXZXpXZXpXtX<XC.i.o # # 2 # # # # ",
"X D.8X7X=.Q P P K P P Q ^ ;.<X-.$XV 9XCXBXoXoXoX|.V h.-.z 9 n.n.! 4 7XP P Q =.7XeX=XBXVXh.t ~ 0XkXkXfX0XdXZ.u.p.> 6Xr # U j 6 U ",
"o J.=.SXDXSX5X4Xl.k.;X:X1X<X$X>X%X%X=X+XoXoXoXoXoX|.}.|.z 9 n.n.! 4 7X2X5XSXFXSX$XOX+X@X#X%XrXJ 0././././.R.p.p.X m.W 5 D ^ j W ",
"X K.` yXHXHXFXSXpXpXpXtXwX1X{.#XOXoXoXoXoXoXoXoXoXoXoXoX0Xg.t t E n.uX5X5X7XtXuXuXeX>X[.oXoXoX&Xd.9.!././.R.p.p.2 c.A.7.} O.>.$.",
"X A.N.| gXSXDXZXpXZXpXtX,X{.*XOXoXoXoXOXOXoXoX[.>XeXuXuXwXlXe e ! pX:X<X<Xk.k.k.4XyXSXlXXXoXoXoXqXz C.~./.R.p.p.# D.1._ B.5.R [ ",
"o A.2.+.P.:.8X8XsXfX0X;.>X#XOXOXoXoXOX+XoXoXXXlXSXyX4Xk.:X.XoXoXqX,Xk.b.j.z.z.z.v.6XfXkX0XqXoXoX#XqXm 0./.R.p.p.# K.+._ B.S.7.L ",
"X Y.L { >.I.` | r.R.!.j XXOXoXoXoXoXoXoXoXqX0XkXfX6Xx.z.;..XoXoX.X-.k.4Xb.b.b.v.m.0XkXlX0X$XoXoXoX+X[.s./.R.p.p.% L.' 4.I.4./ { ",
"X K.<.O.@.T.5.T r.R.!.z  XoXOXOXoXoXoXoXoX$X0XlXkX0Xm.v.:X.XoXoX.X-.j.b.b.x.x.x.m.sXfXjX8X-XoXoXoXoX}.s./.R.p.p.X J.2.+.hX} ` #.",
"X J.2.+.o.S.1.( r.R.!.t >X=X=XBX=XoXoXoXoX>X8XjXfXsXm.x.;X.XoXoX.X,X;.^ Q P P K P P Q =.7XqXoXoXoXoX[.s./.R.p.p.o J.2.O.P.} ` ..",
"o D.2... .[ `  .r.R.^.C.d.2X7XwXtXuXuXqX|.|.qX$X^ P P ^ $X XoXoX.X$X1X1X,X:X:X:X,X7XCXCXVX XoXoXoX`.4X!./.R.p.p.o J.<.' H.} } ..",
"o D.2.' @.` 1.( r.R.zX~.:X<X2Xk.k.k.4XwX#XoXOX#XBX1X>XXXOXoXoXoXXX{.qX&X%X=X=X#X*X#X@X@X@XOXOXoXoX XY.zX/.R.p.p.o J.<.' >.` ` ..",
"X J.2.' >.5.5./ r.Z.!.4Xk.k.j.z.z.z.v.6X%XoXoXoXoX+X+XoXoXoXoXoX+XOXOXoXoXoXoXoXoXoXoXoXOX#X=XOXOXeXxX/./.R.p.p.o K.<.' o._ } ..",
". K.<.$.A.N.5.T 8.=.=.=.k.4Xb.b.b.v.m.0XrX@XoXoXoXoXoXoXoXoXoXoXoXoXoXoXoXoXoXOX+XOXOX#XXX{.{. X+X&XcXxXmXW.p.p.o K.<... .[ 1...",
". P.<.D.c.1.1.@.M uX:X&.j.b.b.x.x.x.m.sXfXjX1X XoXoXoXoXoXoXoXoXoXoXoXoXOX*XBXCXqXXXOXOX X$X-.XXOX+XuXvXNXW.p.p.o K.<.+.o.5.5...",
"X Y.<.P.>._ L | V h.-.<X;.^ Q P P K P P Q =.7X&XoXoX@XCXCXCXBX=XVXCXAXDXDXDXDXbXE B |.oXOXqXkX%XoX+XuXvXNXW.p.p.o J.L +.@.S.S...",
"# aXX.U.3.3.T _ y.C.cX:X1X1X:Xb.k.l.4X7XSXDXCX XoXoX`.M G J J J J G G G G G G J C.Y.fXqX#X%XrX%XoXOXeXxXzXR.p.p.o D.3...P S.7.{ ",
". m.$.[ _ { f.( i.dXeXqX&XqXwXpXpXpXSXFXHXAX%X|.oXoX Xg.0.0.0.0.0.0.0.0.0.0.0.9.^.zXzXcXiX%X#X#XOXOXeXxXzXR.p.p.X A.3...P 4.X.{ ",
"O sXf.L } $.] ( i.tX+XOX X XqXpXCXpXCXSXCX%XOXoXoXOXeXxXzXzXzXzXzXzXzXzXzXzXzXzXzXzXzXzXcXqX+X+XOXOXeXmXNXW.p.p.X D.4.$.{ } X.{ ",
"X L.D F _ ..5 ( i.dXBX@XOXOX#X%XqXrXrXqX=X+XOXOXOX*XbXMXNXNXNXNXNXMXMXMXNXNXNXNXNXNXNXNXMXCX#XoXoXOXVXMXNXW.p.p.o K.4.7.V.} X.{ ",
"- 6XY J.aXaX^ L.r.Z.cXtX%X@XOXOX#X X#XOXOXoXoX+X@XwX!.Q.Q.Q.Q.Q.Q.Q.Q.Q.Q.Q.Q.Q.Q.Q.Q.Q.Q.dX%XoXoXOXeX~.Q.R.a.a.o D.3.4.G.} X.{ ",
". 6 6 r 6 6 r 3 w.t.t.C.6X.X@X+X X X|.OXoX+XXX,X,XF.y.t.t.t.t.t.t.t.t.t.t.t.t.t.t.t.t.t.t.C.qXoXoXOX,Xu.t.u.u.u.O K.` +.Y.} X.{ ",
". < 6 2 3 3 6 # w j ~ c {.}.|.}.[.{.[.}.}.[.V *.*.~ ~ ~ ~ ~ ~ ~ ~ ~ ~ ~ ~ ~ ~ ~ ~ ~ ~ ~ ~ *.}.oXoXoX[.*.~ w w w O K.,.+.T.} X.{ ",
"# ^ D C ..>.Y  .< f n g '._._.(.y ; ; y y ; +                                             ; (.oXoXoX(.l n 7 < 1 X Y.,.O.G.' X.{ ",
"O / 2 W >._ 5 U 1 f x g ].oX_.(.> O       q *.1XuXuXtX7X5Xb.w                             ; ).oXoXoX'.g c 7 1 1 % A.7.#._ 7.^ } ",
"O P.' o.>._ H >.1 s l v  XoXoX].g 1 * @ l lXSXyX4Xk.k.k.2X<X:X6 .                       . y _.oXoXoX XB x 7 1 1 $ A.' 7.,._ c.,.",
". P.N.W #.` $. .1 s x h .X+X|.{.l f p x 9X0XfX6Xx.z.z.z.b.b.k.4Xw -     7 *.1XuXuXtX7X2X;.v |.oXoXoX+X[.b 7 1 1 $ P.5...2.( >.,.",
"o D.[ ( 7.,.$.T 1 s x f {..X&X,X;X*.l l n ;X0X8Xm.v.b.b.b.4Xk.=.=.%.> l lXbXyX4Xk.;.*.m *.-XXXoXoXoXoX].b 7 1 1 X D.c.8 _ | r F ",
"X P.2.A.3.F { ( 1 s l p n M V -.l.4X;X-.x l c &.z.z.x.x.b.b.j.&.:XuXM fXkXfXm.g.~ n -.;X4X;X$X X|.OXoX}.b 7 1 1 , c.z.j @.:.j o.",
". P.2.Y.X.,.V...1 s l p c n n m *.h.l.4X;X-.x f j z P P Q ^ ;.<X-.-XV 0XjX5X*.*.j.4X4Xl.-.*.m B [.|.OX].b 7 < 1 . r 2 3 3 - , 2 ",
". P.2.Y.4.5.Y.X.1 s l p c n n n m m *.-.l.;X;X-.h f ;.;X:X1X<X-.> 7 ;.5Xx l h.4X;Xh.-.N m n n M [.`.`.].b 7 1 1 @ W 6 6 5 6 , 5 ",
"O A.[ Y.X.F N.T 1 s l p c n n n n m m m *.-.l.;Xm f tXpXtXwX1Xa     <X5Xp m j.h.-.N m n n n n M [.`.`.].b 7 1 1 & K.U # r %.- W ",
"X J.2.D.o.} `  .1 s l p c n n n n n n n m *.-.h.h.x uXpXtX<Xs o     N pXh h.h.-.h.N n n n n n M [.`.`.].b 7 1 1 @ G.` T ] L X.O.",
"X D.2.A.c.} `  .1 s x s c n n n n n n n n *.h.-.;Xn $X<XM < -       - 1Xl l.h.-.*.n n n n n n M [.`.`.].b 7 1 1 O G.1...f.} X.' ",
"o J.<.+.J.} ` ( 1 s x f n n n n n n n n n c *.-.;Xn =               . 7 f l.h.l s c n n n n n M [.`.`.].b 7 1 1 @ G.2.>.F.5.3.) ",
"X P.,.' J.S.} / 1 s x p n m n n n n n n n f p *.;Xn =                 @ s l.h.f q c n n n n n M [.`.`.].b 7 1 1 @ G.,.>.F.5.3.' ",
". hXL ' c.U.1./ 1 s l i l n n n n n n n n h 7 N ;Xn =                 @ s l.h.l f n n n n n n M [.`.`.'.b 7 1 1 @ F.,.>.F.5.X.' ",
". hX,...@.P.5./ 1 s x 1 p l x n n n n n n x s N ;Xn =                 @ s l.h.n c n n n n n n b [.`._.'.b 7 1 1 O F.1.7.G.5.X.) ",
"X P.<.+.o.5.1./ 1 f n l h s f l x n n n n n x *.;Xm l x x x x x x x x l f l.h.m n n n n n x l h '._.`.[.M 7 1 1 @ F.1.>.F.<.X...",
"o A.2.+.@.L 1.( > 7 i q q q i p f l c n n m n *.;Xm i q q q q i q q q q d l.h.m n n x l h s i g '._._.'.g < > > @ F.,.X.f._ _ +.",
"X K.X./ V.S.7.H * * * * * * > > 1 i f x n n n *.;Xn , * * * * * * * * > s -.*.n x l f i 7 < > , (._._.(., = * = o J.<.' / 1.` ( ",
"o A.5.4.G.} 6.K % J.<.O.@._ 1.| * :.U j l x n N l.m { ) O.` 5.| $ H.5.{ a l x l s j Y / @._ 1.| (. X X$X:.5.` | o K.2.' / 1.1.>.",
"X A.S.D.{ _ 6.H % J.2.....` } | & J.} E j f l c N x { ) #.B.B.o.$ A.5.N.p a a r < A.1.O...` } | (. X X$X>.S.5./ o K.2.' o.B.B.>.",
"% D.5.hXP 4.6.K % J.<.' ..5.1.| % J.<.O.@.@.j f l f { ) 7.I.5.W $ J.1.G.r Y ' H & J.<.' ..5.1.| (. X X$X>.I.5.W o D.,.' $.G.N. .",
"% f.3.J.P ` 6.K & J.[ ' @.S.5.| % J.<.' >.S.{ j i s { ) $.B.1.W $ c.` G.) X.1.( & J.[ ' @.S.5.| (.XX X$X>.I.5.W o D.<.' @.B.1.( ",
". D.A./ P _ 7.H & J.[ ' @.U.5.| % K.2.O.>.I.5.W , E +.O...` ` | X L.N.K ] _ 7.W & J.[ ' @.U.5.| u 1X$X:.>.I.5.W o J.2.+./ [ ` #.",
"X hX#.W { 4.X.H % J.2.O.@.T.1./ % J.2.O.@.S.1./ % D.1.$.>.L 1.| X sX+.K $.6.( W % J.2.O.@.T.1./ * L.4.O.@.S.1./ o D.2.4.@.[ L #.",
"@ z.2  .{ T 2 H % J.2.O...U.1.W % J.<.O.O.5.` / % J.L A.P.1.1.Y & c.2 ] $.T 2 W % J.2.O...U.1.W % J.<.O.O.5.` / & A.,.A.H.N.`  ."
};
