/* XPM */
static char *_47e10e5863f41daa87a965ee28b2465UgBuNwWLbt4Qvkrd[] = {
/* columns rows colors chars-per-pixel */
"64 64 251 2 ",
"   c #000000",
".  c #0B0602",
"X  c #160B04",
"o  c #1C130A",
"O  c #191409",
"+  c #070F16",
"@  c #191615",
"#  c #2E0D09",
"$  c #261604",
"%  c #22140C",
"&  c #24190E",
"*  c #251912",
"=  c #221F1C",
"-  c #24211D",
";  c #362514",
":  c #271922",
">  c #2B2725",
",  c #372B28",
"<  c #37312C",
"1  c #38332F",
"2  c #3D3834",
"3  c #52180A",
"4  c #4B2F0E",
"5  c #523C06",
"6  c #6E3015",
"7  c #53342D",
"8  c #443B37",
"9  c #423C37",
"0  c #653229",
"q  c #5B450E",
"w  c #795A0C",
"e  c #6D5116",
"r  c #4D4330",
"t  c #4B443F",
"y  c #554433",
"u  c #6A5726",
"i  c #704F33",
"p  c #786537",
"a  c #4D4741",
"s  c #534C45",
"d  c #594D46",
"f  c #564E48",
"g  c #575049",
"h  c #5B534D",
"j  c #5F5751",
"k  c #70544A",
"l  c #645B54",
"z  c #665C55",
"x  c #766947",
"c  c #6B615A",
"v  c #71675F",
"b  c #7C6D58",
"n  c #766B64",
"m  c #796D65",
"M  c #776968",
"N  c #7D7169",
"B  c #7F7072",
"V  c #853C32",
"C  c #8A5E13",
"Z  c #886514",
"A  c #AC7607",
"S  c #8E4E37",
"D  c #AF5D38",
"F  c #84692C",
"G  c #836A32",
"H  c #986238",
"J  c #917634",
"K  c #A76E38",
"L  c #B9693C",
"P  c #A8763B",
"I  c #C6693E",
"U  c #8B594A",
"Y  c #975E46",
"T  c #A55D48",
"R  c #AF5E50",
"E  c #8F6B4F",
"W  c #9A6549",
"Q  c #9B7548",
"!  c #85745B",
"~  c #8B7B58",
"^  c #947256",
"/  c #A2654D",
"(  c #A76849",
")  c #AD6B4C",
"_  c #B96847",
"`  c #BC6C44",
"'  c #B26D4D",
"]  c #AB744B",
"[  c #BD7143",
"{  c #B47449",
"}  c #BD724B",
"|  c #A56B52",
" . c #AB6B53",
".. c #B26D53",
"X. c #B86B56",
"o. c #AC7257",
"O. c #B47253",
"+. c #BA7454",
"@. c #B4745A",
"#. c #B9755C",
"$. c #B97A59",
"%. c #9A6F68",
"&. c #82756C",
"*. c #8D7568",
"=. c #967869",
"-. c #887975",
";. c #8B7D74",
":. c #947D74",
">. c #AF7465",
",. c #B87564",
"<. c #BD7C62",
"1. c #C26D46",
"2. c #C27345",
"3. c #C4744B",
"4. c #C5794A",
"5. c #C9794B",
"6. c #C97355",
"7. c #C77957",
"8. c #CB7B54",
"9. c #C36F68",
"0. c #C57A64",
"q. c #AC8227",
"w. c #AD8932",
"e. c #AA8835",
"r. c #C78A15",
"t. c #D59810",
"y. c #F2AE08",
"u. c #F3B008",
"i. c #E3A612",
"p. c #DEA728",
"a. c #DDAB2D",
"s. c #DBAC39",
"d. c #F6C13D",
"f. c #F8C23D",
"g. c #9B8654",
"h. c #AB8A56",
"j. c #BA855B",
"k. c #988765",
"l. c #9B8476",
"z. c #92847A",
"x. c #9C867B",
"c. c #9A897E",
"v. c #A68368",
"b. c #AF896B",
"n. c #B6886A",
"m. c #B0916C",
"M. c #A88974",
"N. c #A28579",
"B. c #A69876",
"V. c #B49578",
"C. c #B8A57B",
"Z. c #CB8358",
"A. c #D4865B",
"S. c #C89054",
"D. c #CDA954",
"F. c #ECBB4A",
"G. c #C58868",
"H. c #D88965",
"J. c #C3926F",
"K. c #CA936B",
"L. c #D59768",
"P. c #C88B72",
"I. c #CD9572",
"U. c #CD9974",
"Y. c #C89678",
"T. c #D59978",
"R. c #E5956C",
"E. c #EC9B74",
"W. c #D7A772",
"Q. c #EDAA74",
"!. c #F8C549",
"~. c #FAC749",
"^. c #F8C954",
"/. c #E7C36A",
"(. c #FAD06A",
"). c #F1CB75",
"_. c #F7D278",
"`. c #FFDA7E",
"'. c #7F778B",
"]. c #5174B8",
"[. c #6E79AB",
"{. c #3470C4",
"}. c #3B72C4",
"|. c #4B78C4",
" X c #607FC1",
".X c #897D89",
"XX c #7784B3",
"oX c #6A87C5",
"OX c #8E8082",
"+X c #9D8C83",
"@X c #9A8989",
"#X c #9A8F8E",
"$X c #9D9294",
"%X c #9D959A",
"&X c #A28D86",
"*X c #B48C81",
"=X c #A39185",
"-X c #A6948B",
";X c #BA9B84",
":X c #A89B97",
">X c #B19C93",
",X c #B2A58E",
"<X c #ABA398",
"1X c #BAA898",
"2X c #9496AD",
"3X c #A39CA2",
"4X c #9EA2BA",
"5X c #A8A2A5",
"6X c #B8A9A3",
"7X c #B5ABAC",
"8X c #B7B2AA",
"9X c #AEABB6",
"0X c #B9B4B6",
"qX c #BAB6BA",
"wX c #BEBEBE",
"eX c #D29683",
"rX c #C5A58A",
"tX c #C5AC96",
"yX c #C0A99E",
"uX c #CEB190",
"iX c #E4A283",
"pX c #C0ADA0",
"aX c #C7B5A5",
"sX c #D3BFA1",
"dX c #C6BCB7",
"fX c #D3C29B",
"gX c #E7C881",
"hX c #F8D786",
"jX c #FFDC83",
"kX c #FFE197",
"lX c #D4C7AD",
"zX c #E7D5AC",
"xX c #FEE6AA",
"cX c #F9E6B5",
"vX c #FFECBC",
"bX c #8C9BC4",
"nX c #9CAACE",
"mX c #ACB3CA",
"MX c #B8BBC4",
"NX c #C2BFC2",
"BX c #BDC1CE",
"VX c #C3C2C3",
"CX c #CAC4C2",
"ZX c #CDCCCD",
"AX c #D0CFCF",
"SX c #D5D3D2",
"DX c #D8D8DA",
"FX c #E4DFD5",
"GX c #F6E9CA",
"HX c #E3E2E3",
"JX c #FAF5E9",
/* pixels */
"o I.2.) G.H.A.Y % U.2.) #.` 3.W % G.5.O.#.` _ | % U.4.) O.` } Y $ Y.+.{ G.H.G.H % U.2.) #.` 3.W % G.5.O.#.` _ | o I.2.' / 3.` ( ",
"X n.Z.$.G.` 8./ % U.4.' O.` 3./ & K.5.O.<.8.} | o U.5.) ..3.8. .$ P.8.Z.G.X.7.( % U.4.' O.` 3./ & K.5.O.<.6.} | o U.5.' / 3.3.,.",
"o G.Z.T.G.L `  .% U.4.'  .` 3.| & I.5.O.<.H.8./ o U.5.) #.8.A.o.$ G.8.L.Z._ X.] % U.4.'  ./ N.>X7X7X5X:X-X*X7./ o U.5.' o.A.A.<.",
"% K.2.T.O.8.` / % I.2.' ..8.3.| % I.4.' <.R.8.W % I.2.) G.H.A.W $ I.3.L.{ 7.` ( % I.2.' >.dXCX6X=Xx.x.x.&X$X@X| o K.1.' $.L.Z. .",
"X U.4.Z.) 8.3.Y & I.[ ' @.H.8.| % U.2.O.$.E.8.W % I.2.) <.8.8.Y $ T.6.Z.) 7.6.H & I.[ M.1XaXtX;Xm.v.v.v.l.N.x.=Xi G.2.' @.A.3.( ",
"X U.A.) @.` 8./ * K.[ O.@.E.8.| % U.2.O.#.R.8.W % U.5.O.O._ 3.| O T.A.( $._ 7.( * K.` =.1XdXaX1XV.M.M.M.N.&Xx.=.=.=.Y +./ [ ` #.",
"O Y.K  .<._ D | & K.2.O.@.E.3.| % U.2.#.O.H.3.| % I.5.$.<.` ` | & Y.( ( j._ T / & K.2.l.>XpXtXrXV.b.b.b.M.N.l.*.@X7XM G.@.[ L #.",
"@ n.6 @.o.+.6 / % I.4.+.O.E.` / % U.` +.) A.` / & G.2.G.Q e e q ; u 6 $.o.#.6 W % I.3.>X:X=.Q P P K P P Q ^ :.$X-.OXB G.P.Z.`  .",
"X ^ n.n.j.n.h.j.o T.2.) O.E.5./ * A.` ,.7._ G.( : ] H W G u u u u u E H Q n.h.j.o ^ =.:.VXSXCX-X=Xc.x.+X@X%X%XOX*.@.} n.A.5. .O.",
"+ + & $ * X * . % K.4.' @.A.3.W % A.3.i T ` S H % F 5 5 E B.B.B.B.B.e 5 5 O & . i M 7XOX5XHXHXDXVXqXqX0X5X3X%X+Xz.H.2.n.R.8. .O.",
"% k S V S U R S A r.r.r.r.r.r.r.A t.r.A r.r.A r.4 g.C.w w J fXFXaXu w J C.u C A A &.OX-.#X:XVXZXNXqXNXwX5X$X=.:X$XR.L ,.E.5...+.",
"# U 3 T 0. .6 / t.i.a.a.a.a.a.a.a.a.a.a.a.a.a.a.J g.m.J F Q zXJXSXp F g.m.J w.a.a.s.S.V.OX#X@X3X<X:X:X:X-X0XCXVX&.L.L o.A.I O.{ ",
"@ x.0 W >./ 0 / y.!.jX`.`.`.`.`.`.`.`.`.`.`.`.`.`.e.q k.B.C.zXJXFXB.B.E q Q.jX`.`.`.`.m.-X%X3X5X0XqXqXVXDXHXHX5X*.=.S o.1.L #.' ",
"# eXR.1./ N.1X7X7X5X:X-X;X).`.`.`.`.`.`.`.`.`.jXjXe.5 q q p zXJXlXq q q q V.W.jX`.`.`.M.>X>X$X5XwXNXqXNXZXVX<X*.@X7XM n.} 3.@.O.",
"$ h.{ #.dXCX6X=Xx.x.x.#X$X@X).`.`.`.`.`.`.jXQ.S.D.F q q 5 u zXGXpX5 q q q CXdXJ._.`.jXaX:X^ ^ N.:X-X>X>X>X=.=.$X-.OXB U +.8.H O.",
"X rX*X1XaXtX;Xm.v.v.v.l.N.x.=X)._.`._.).).).h.w w w p E q u zXzXC.5 e m.;XtXaX1XuX).).V.CXSXCX-X=Xc.x.+X@X%X$Xx., G. .7 ( ` 6 ) ",
"X I.=.1XdXaX1XV.M.M.M.N.&Xx.=.=.=.m.P Z Z Z g.8X8Xz.=.=.p u zXJXlX5 B.V.1XaXdX1X=.Z Z F 8XHXHXDXVXqXqX0X5X3X%XD.* ^ / U U ^ k W ",
"X U.x.>XpXtXrXV.b.b.b.M.N.l.*.@X7XM m.k.k.k.,XVXdXM 7X@Xx u tXlX,X5 <XV.;XtXpX>Xx.k.k.k.h.1XVXZXNXqXNXwX5X$XD.d.o # # 3 # # # # ",
"X K.>X:X=.Q P P K P P Q ^ :.$X-.z.B <XVXBXBXBXMXqXB z.-.x q B.B.~ 5 :XP P Q =.:X7XVXVXVXg.u ! 1XsXsXtX1XuXF.s.d.> ;Xi # U k 7 U ",
"o I.=.VXSXCX-X=Xc.x.+X#X%X$X;.B.:X5XwXwXMXMXMXMXwX8X5X0Xx q B.B.~ 5 :X=X-XCXSXVX#XwXwXwX0X8X8XJ e.`.`.`.`.!.d.d.X V.W 6 S / k W ",
"X U.` 6XHXHXDXVXqXqX0X5X3X%Xk.8XVXwXwXwXVXZXAXAXZXZXZXZX<Xk.p p E B.7X>X-X:X5X7X7X7X:X:XMXVXwX-Xh.e.).jX`.!.d.d.3 n.G.0.} O.,.$.",
"X G.Z.| yXVXZXNXqXNXwX5X$X~ qXVXwXwXwXVXCXDXDX5X:X9X7X7X3XdXu u ~ 0X@X$X&Xx.x.x.=X1XCXdX0XwXwXVX<XF D.).`.!.d.d.# K.} _ A.8.R [ ",
"o G.4.+.T.>.>X>XrXtX1X=.l.8XwXwXwXwXwXZXSXMX4XdXCX6X=Xx.OX[.{.{.2X#Xx.N.l.v.v.v.b.;XtXaX1X8XwXwXwX8XG e.`.!.d.d.# U.+._ A.H.0.L ",
"X W.L { <.R.` | y.!./.w B.VXwXwXVXZXAXAXnX2X1XaXtX;Xb.v.:.[.{.{.[.-.x.&XN.M.M.M.V.1XaXdX1X=XwXwXMXqXF e.`.!.d.d.% Y.{ 7.R.7./ { ",
"X U.2.O.@.Q.8.T y.!./.w B.VXmXMXZXDXDXBX|..X1XdXaX1XV.M.@X[.{.{.[.-.l.N.M.b.b.b.V.;XtXpX>X=XCXVXwXqXF e.`.!.d.d.X I.5.+.iX} ` #.",
"X I.5.+.o.H.3.( y.!./.w B.VXMXAXDXDXDXmXoXOX>XpXtXrXV.b.&X[.{.{.[.$X:.^ Q P P K P P Q =.:X0XDXCXwXqXG e.`.!.d.d.o I.5.O.T.} ` ..",
"o K.5... .[ `  .y.!._.D.h.=X-X3X5X7X7X4X[.[.2X:.^ P P Q .X[.{.{.[..X$X%X@X+Xc.c.=X-XVXAXNX:XDXZX<XQ D./.`.!.d.d.o I.2.' P.} } ..",
"o K.5.' @.` 3.( y.!.jX).@X$X&Xx.x.x.=X3XoX|. XoXnX:X#X.X].}.{.{.XX'.%X3X2X9X9X9XmXmXnXnX9XZXDX8Xm.J /.jX`.!.d.d.o I.2.' <.` ` ..",
"X I.5.' <.8.8./ y.F.).=Xx.N.l.v.v.v.m.;XXX|.{.{.|.oXoX|.{.{.{.{.XX].].[.].oX|.|.}.}.bXmXZXSXSXQ J `.`.`.`.!.d.d.o U.2.' o._ } ..",
". U.2.$.G.Z.8.T q.=.=.=.x.&XN.M.M.M.V.1X4X X{.{.{.{.{.{.{.{.{.{.].{.{.{.{.{.{.oX4XqXdXSXB.G J D./.`.`.kXxX^.d.d.o U.2... .[ 3...",
". T.2.K.n.3.3.@.M 7X@X*.l.N.M.b.b.b.V.rXtXpX:X[.oX|.}.{.{.{.{.{.].}.{.oXnXBXDXSX1X,X,X1Xh.P q./.jX`.`.kXvX^.d.d.o U.2.+.o.8.8...",
"X W.2.T.<._ L | B OX-.$X:.^ Q P P K P P Q =.:X0XSXSXSXZXBXMXnXbXnXmXZXSXSXSXSXlXF w w w D.`.`.`.`.`.`.kXcX^.d.d.o I.L +.@.H.H...",
"# eXX.E.6.6.T _ p.D.gX+X$X%X@X+Xx.c.=X-XCXSXVX*.F F F F G G G G G G F F F F F J D./././._.`.`.`.`.`.`.jXjX!.d.d.o K.6...P H.0.{ ",
". V.$.[ _ { j.( y.^.kXW.%X3X5XqXqXqXVXDXHXHX8Xe.e.e.e.e.e.e.e.e.e.e.e.e.e.e.e.w._.jXjXjX`.`.`.`.`.`.`.jXkX!.d.d.X G.6...P 7.X.{ ",
"O uXj.L } $.] ( y.(.vXhXgX$X5XwXNXqXNXZXVXsXhXjXjXjXjXjXjXjXjXjXjXjXjXjXjXjXjXjXjXjXjXjXjXjXjXjXjXjXjXkXvX^.d.d.X K.7.$.{ } X.{ ",
"X Y.S D _ ..6 ( y.(.GXvXzXzXlX8XaXlXlXlXfXcXvXvXvXvXvXvXvXvXvXvXvXvXvXvXvXvXvXvXvXvXvXvXvXvXvXvXvXvXvXGXvX^.d.d.o U.7.0.S.} X.{ ",
"; ;XY I.eXeX/ Y.u.d.(.(.(.(.(.(.(.(.(.(.(.(.(.(.(.(.(.(.(.(.(.(.(.(.(.(.(.(.(.(.(.(.(.(.(.(.(.(.(.(.(.(.(.!.f.f.o K.6.7.L.} X.{ ",
". 7 7 i 7 7 i 4 t.i.i.i.i.i.i.i.i.i.i.i.i.i.i.i.i.i.i.i.i.i.i.i.i.i.i.i.i.i.i.i.i.i.i.i.i.i.i.i.i.i.i.i.i.s.s.s.O U.` +.W.} X.{ ",
". , 7 3 4 4 7 # r k ! b ! ! ! ! ! ! ! ! ! ! ! ! ! ! ! ! ! ! ! ! ! ! ! ! ! ! ! ! ! ! ! ! ! ! ! ! ! ! ! ! ! y r r O U.1.+.Q.} X.{ ",
"# / S V ..,.Y  .< h n s a < @ X                                                                   . O l n 9 < 1 X W.1.O.L.' X.{ ",
"O / 3 W ,._ 6 U 1 h c a h h a < @ O       t &.%X7X7X5X:X-XN.y                                 . @ < a f v 9 1 1 % G.0.#._ 0./ } ",
"O T.{ o.,._ H ,.1 f z h ;.N l h a 1 = @ l dXCX6X=Xx.x.x.&X$X@X7 .                       . O > 9 h m z.c c 9 1 1 $ G.' 0.1._ n.1.",
". T.Z.W #.` $. .1 f c h z.-X+XN l h s c <XyXtX;Xm.v.v.v.l.N.x.=Xy ;     8 &.%X7X7X5X:X&X:.h c -.+X=Xc.c c 9 1 1 $ T.8...5.( ,.1.",
"o K.[ ( 0.1.$.T 1 f c g m z.+X=X+X&.l l n +X1X,XV.M.M.M.N.&Xx.=.=.%.> l dXlX6X=Xx.:.&.m N c.=X=Xc.;.&.l c 9 1 1 X K.n.0 _ | i D ",
"X T.5.G.6.D { ( 1 f z s v m &.;.c.=X+X-.c l v *.v.v.b.b.M.N.l.*.@X7XM tXaXtXV.k.! n ;.+X=X+Xz.-.N m n h c 9 1 1 , n.v.k @.>.k o.",
". T.5.W.X.1.S...1 f z s v n n m &.;.c.=X+X;.c j k x P P Q ^ :.$X-.OXB 1XpX-X&.&.c.=X=Xc.;.&.m m n n n h c 9 < 1 . i 3 4 4 ; , 3 ",
". T.4.W.7.8.W.X.1 f z s v n n n m m &.;.c.+X+X;.j h :.+X@X%X$X-.> 8 ;.-Xc l z.=X+Xz.-.N m n n n n n n h c 9 1 1 @ W 7 7 6 7 , 6 ",
"O G.[ W.X.D Z.T 1 f z s v n n n n n m m &.;.c.+Xm h 5X0X5X3X%Xd     $X-Xs m z.z.-.N m n n n n n n n n h c 9 1 1 & U.U # i %.; W ",
"X I.5.K.o.} `  .1 f z s v n n n n n n n m &.;.z.z.c 7XwX5X$Xf o     N qXj z.z.-.z.N n n n n n n n n n h c 9 1 1 @ L.` T ] L X.O.",
"X K.5.G.n.} `  .1 f c f v n n n n n n n n &.z.-.+Xn .X$XM , ;       ; %Xl c.z.-.&.n n n n n n n n n n h c 9 1 1 O L.3...j.} X.' ",
"o I.2.+.I.} ` ( 1 f c h n n n n n n n n n v &.-.+Xn -               . 9 h c.z.z f v n n n n n n n n n l c 9 1 1 @ L.5.,.K.8.6.) ",
"X T.1.' I.H.} / 1 f c s n m n n n n n n n h s &.+Xn -                 @ f c.z.h t v n n n n n n n n n h c 9 1 1 @ L.1.,.K.8.6.' ",
". iXL ' n.E.3./ 1 f z a l n n n n n n n n j 8 N +Xn -                 @ f c.z.l h n n n n n n n n n c s c 9 1 1 @ K.1.,.K.8.X.' ",
". iX1...@.T.8./ 1 f c 2 s l c n n n n n n c f N +Xn -                 @ f c.z.n v n n n n n n c l h s a c 9 1 1 O K.3.0.L.8.X.) ",
"X T.2.+.o.8.3./ 1 h n z j f h l c n n n n n c &.+Xm l c c c c c c c c l h c.z.m n n n n n c l h f f j c n 8 1 1 @ K.3.,.K.2.X...",
"o G.5.+.@.L 3.( > 9 a t t t a s h l v n n m n &.+Xm a t t t t t t t t t g c.z.m n n c l j f a a t t t a a < > > @ K.1...j._ _ +.",
"X U.X./ S.H.0.H = = = = = = > > 2 a h c n n n &.+Xn < = = = = = = = = > f -.&.n c l h a 9 < > - - = = = = - - - o I.2.' / 3.` ( ",
"o G.8.7.L.} 9.K % I.2.O.@._ 3.| * >.U k l c n N c.m { ) O.` 8.| $ P.8.{ d z c l f k Y / @._ 3.| & I.4.+.@.8.` | o U.5.' / 3.3.,.",
"X G.H.K.{ _ 9.H % I.4.....` } | & I.} E k j l c N c { ) #.A.A.o.$ G.8.Z.s d d i , J.3.O...` } | & I.4.O.<.H.8./ o U.5.' o.A.A.<.",
"% K.8.iXP 7.9.K % I.2.' ..8.3.| % I.2.O.@.@.k h l h { ) 0.R.8.W $ I.3.L.i Y ' H & I.2.' ..8.3.| % I.2.O.<.R.8.W o K.1.' $.L.Z. .",
"% j.6.I.P ` 9.K & I.[ ' @.H.8.| % I.2.' <.H.{ k a f { ) $.A.3.W $ n.` L.) X.3.( & I.[ ' @.H.8.| % I.2.' <.R.8.W o K.2.' @.A.3.( ",
". K.G./ P _ 0.H & I.[ ' @.E.8.| % U.4.O.<.R.8.W , E +.O...` ` | X Y.Z.K ] _ 0.W & I.[ ' @.E.8.| % U.4.O.<.R.8.W o I.5.+./ [ ` #.",
"X iX#.W { 7.X.H % I.4.O.@.Q.3./ % I.4.O.@.H.3./ % J.3.$.<.L 3.| X uX+.K $.9.( W % I.4.O.@.Q.3./ % I.4.O.@.H.3./ o K.5.7.@.[ L #.",
"@ v.3  .{ T 3 H % I.5.O...E.3.W % I.2.O.O.8.` / % I.L G.T.3.3.Y & n.3 ] $.T 3 W % I.5.O...E.3.W % I.2.O.O.8.` / * G.1.G.P.Z.`  ."
};
