/* XPM */
static char *_2664e13b8c24d599f15cfd8becb5d7aDrXzO5ZkRFo1Rvjq[] = {
/* columns rows colors chars-per-pixel */
"64 64 244 2 ",
"   c #0A0300",
".  c #0D0A04",
"X  c #130B03",
"o  c #130D09",
"O  c #1C0C06",
"+  c #161104",
"@  c #15110E",
"#  c #1C130A",
"$  c #1C190C",
"%  c #1C1404",
"&  c #030813",
"*  c #191615",
"=  c #1D1816",
"-  c #0B1619",
";  c #260803",
":  c #22150C",
">  c #24190E",
",  c #271705",
"<  c #250B11",
"1  c #251B13",
"2  c #2B1C13",
"3  c #251816",
"4  c #38150F",
"5  c #2B221A",
"6  c #332213",
"7  c #3A2512",
"8  c #3D2814",
"9  c #39281C",
"0  c #37230F",
"q  c #0D1921",
"w  c #161F26",
"e  c #2E1724",
"r  c #2A2225",
"t  c #3B2C22",
"y  c #382A28",
"u  c #3D3532",
"i  c #3D312A",
"p  c #192123",
"a  c #4A1915",
"s  c #521806",
"d  c #51280E",
"f  c #462C15",
"g  c #482E17",
"h  c #462B1A",
"j  c #4A2E19",
"k  c #4C321A",
"l  c #46311D",
"z  c #54361B",
"x  c #56391D",
"c  c #583A1E",
"v  c #542610",
"b  c #712B0A",
"n  c #672A1D",
"m  c #6D3417",
"M  c #511F2D",
"N  c #442927",
"B  c #4A3423",
"V  c #473529",
"C  c #533A24",
"Z  c #5B3E22",
"A  c #58392A",
"S  c #533824",
"D  c #453A36",
"F  c #533E34",
"G  c #542B28",
"H  c #6D3529",
"J  c #79441D",
"K  c #5D4023",
"L  c #574339",
"P  c #644324",
"I  c #694625",
"U  c #6B4929",
"Y  c #694728",
"T  c #734E29",
"R  c #784F2A",
"E  c #76512B",
"W  c #78502A",
"Q  c #6A4A3A",
"!  c #664838",
"~  c #7A4939",
"^  c #724A38",
"/  c #755338",
"(  c #2E2A43",
")  c #5D4945",
"_  c #634C42",
"`  c #684B45",
"'  c #6A5245",
"]  c #7A5A43",
"[  c #775849",
"{  c #78514E",
"}  c #7B6356",
"|  c #853C32",
" . c #8E4F2C",
".. c #894538",
"X. c #905837",
"o. c #B05D38",
"O. c #986239",
"+. c #996E38",
"@. c #A46B3D",
"#. c #B8683D",
"$. c #A97538",
"%. c #B6763B",
"&. c #96531B",
"*. c #C1723D",
"=. c #C6693E",
"-. c #895A46",
";. c #89584A",
":. c #985E46",
">. c #875C52",
",. c #924C46",
"<. c #A65C48",
"1. c #B15E4E",
"2. c #886349",
"3. c #9B6246",
"4. c #96664A",
"5. c #9D644B",
"6. c #896A59",
"7. c #9A6756",
"8. c #976A56",
"9. c #967258",
"0. c #9B7447",
"q. c #A2654D",
"w. c #AD6B4C",
"e. c #A76847",
"r. c #B96541",
"t. c #BC6C44",
"y. c #B6644B",
"u. c #B26D4D",
"i. c #B86A48",
"p. c #AA7448",
"a. c #B27245",
"s. c #BD7143",
"d. c #BE724B",
"f. c #B5754B",
"g. c #A56B52",
"h. c #AC6C53",
"j. c #AA6959",
"k. c #A06B5B",
"l. c #B86757",
"z. c #B26D53",
"x. c #BC6C52",
"c. c #B36D5A",
"v. c #AC7355",
"b. c #AA745B",
"n. c #B47253",
"m. c #BA7454",
"M. c #B5745A",
"N. c #B9755C",
"B. c #BB7A5C",
"V. c #B97B57",
"C. c #937E77",
"Z. c #8E726A",
"A. c #B86961",
"S. c #AA7968",
"D. c #B57767",
"F. c #BD7C62",
"G. c #B97663",
"H. c #AC7C71",
"J. c #C26D49",
"K. c #C26D44",
"L. c #C27345",
"P. c #C4744B",
"I. c #C9764B",
"U. c #C5794A",
"Y. c #CA7B4C",
"T. c #C26D57",
"R. c #C67A52",
"E. c #CB7B54",
"W. c #C77858",
"Q. c #D17A54",
"!. c #C26A64",
"~. c #C77765",
"^. c #C47D64",
"/. c #C77A71",
"(. c #B7813D",
"). c #AA835A",
"_. c #B78659",
"`. c #BC865D",
"'. c #B88748",
"]. c #9A867D",
"[. c #B98667",
"{. c #BA876A",
"}. c #B78971",
"|. c #BB8A76",
" X c #B08D6D",
".X c #C68549",
"XX c #C9835A",
"oX c #D68A5A",
"OX c #D3845A",
"+X c #C8935A",
"@X c #CA9854",
"#X c #D39B5E",
"$X c #CC964D",
"%X c #C18B65",
"&X c #C58D6A",
"*X c #C98768",
"=X c #D88660",
"-X c #D68866",
";X c #D98B66",
":X c #CA936C",
">X c #C7976C",
",X c #D49768",
"<X c #D49869",
"1X c #CA8C72",
"2X c #CD9572",
"3X c #CD9974",
"4X c #C9967A",
"5X c #C59777",
"6X c #DB9777",
"7X c #D19A75",
"8X c #D6997A",
"9X c #D38D75",
"0X c #E5936C",
"qX c #E49A6B",
"wX c #ED9C75",
"eX c #E79874",
"rX c #D9A46A",
"tX c #D9A478",
"yX c #D7AC72",
"uX c #CEA466",
"iX c #F3A47A",
"pX c #E6A773",
"aX c #9C8B88",
"sX c #9D9396",
"dX c #8F8081",
"fX c #A8958A",
"gX c #AB9B96",
"hX c #B08F84",
"jX c #ABA2A5",
"kX c #B4ABAC",
"lX c #BAB6B8",
"zX c #A19BA1",
"xX c #C79786",
"cX c #DA9C81",
"vX c #C99689",
"bX c #C7A598",
"nX c #D7A88A",
"mX c #E5A484",
"MX c #EFB188",
"NX c #C7AEA7",
"BX c #C2BFC2",
"VX c #C8C4C5",
"CX c #D6D4D5",
"ZX c #E3E3E4",
/* pixels */
"# 2XL.w.*X;XOX:.: 3XL.w.N.t.P.5.: &XY.n.N.t.r.g.: 3XU.w.n.t.{.NXgXNX|.a.*X-X*XO.: 3XL.w.N.t.P.5.: &XY.n.N.t.r.g.$ 2XL.u.q.P.t.w.",
"X [.XXB.*Xt.R.q.: 7XU.u.n.t.P.q.> :XY.n.F.R.d.g.O 7XY.w.z.P.E.b.9 xXxX.X*Xx.W.e.: 7XU.u.n.t.P.q.> :XY.n.F.E.d.g.# 3XY.u.q.P.P.G.",
"# %X.X6X*X#.t.h.: 7XU.u.h.t.P.g.> 2XY.n.F.=XE.q.O 7XY.w.{.Q.OXb., vX1X,XXXy.x.p.: 7XU.u.h.t.P.g.> 2XY.n.F.=XR.q.# 3XI.u.v.oXOXF.",
": :XL.6Xn.E.t.q.: 2XL.u.z.E.P.g.: 2XU.u.F.0XE.5.: 2XL.w.xXNX-X5.} bXP.,Xf.W.d.e.: 2XL.u.z.E.P.g.: 2XU.u.F.0XE.5.# :XK.u.B.,XXXh.",
"X 3XU.XXw.E.P.:.> 2Xs.u.M.;XR.g.: 3XL.n.B.eXE.5.: 2XL.h.xXxXE.S.} cXE.XXe.W.R.O.> 2Xs.u.M.;XR.g.: 3XL.n.B.eXE.5.$ :XL.u.M.OXP.w.",
"X 3XOXw.M.t.R.q.> :Xs.n.M.wXR.g.: 7XL.n.N.0XE.5.: 7XY.xX}.r.W.hX> 8XOXe.V.y.W.e.> :Xt.z.M.wXR.g.: 7XL.n.N.0XE.5.$ 3XY.m.q.s.t.N.",
"@ 4X@.h.F.i.o.g.> :XL.n.M.wXP.g.: 7XL.N.n.;XP.g.: 2XY.bXbXd.d.hXy 4Xe.e.`.y.<.q.> :XL.n.M.wXP.g.: 7XL.V.n.;XP.g.$ &XY.W.M.s.#.N.",
"* }.b M.b.m.m 7.: 2XU.m.n.wXt.q.: 3Xt.m.w.OXt.q.> &XL.&XbX4Xt.5.2 }.b V.b.N.m 4.: 2XU.m.n.wXt.q.: 3Xt.m.w.OXt.q.1 %XK.*X1XXXt.h.",
"O 9.[.[._.[.)._.# 8XL.w.n.wXI.q.1 oXt.D.W.r.*Xe.e _.U.F.5XbX~.5., S.[.`.).{.)._.# 8Xs.w.n.wXI.q.1 oXt.D.W.r.*X#.e XXU.[.oXI.h.n.",
"& - > , 1 + 1   # :XU.u.M.=XP.3.# oXP.~ <.d...X.< +XL.F.mX2XT.5.& * # % > . >   # :XU.u.M.=XI.3.# oXR.~ <.i...X.* ;XL.[.qXQ.h.n.",
"< { ..| ..,.1...: %XOXV.B.P.P.3.$ pXm.A F.^.n b.O rX%.M.5XM.D.8.V { ..| ..,.q...: %XOXV.B.P.P.3.$ pXm.A F.^.n b.@ qX%.D.wXI.z.m.",
"; -.s <.^.j.m q.: %XOX-XB.t.P.q.- J m ) H H Q z : >XS.aXkXkXkXjXgXfX6.g.F.b.m q.: %XOX-XB.t.P.q.- J m ) H H Q G * qX#.b.OX=.n.f.",
"* ].H 5.S.7.H 7.: :X.XeXM.t.K.g.- m d y 4 a N > D gXfX_.[.[.).).).). XgXaX8.H 7.: :X.XeXM.t.K.g.q m d y 4 a N > @ oXL.b.J.#.N.u.",
"; cX0XJ.y.T.9Xy.: 3XL.6XN.t.t.g.q 8X-.< >.7.4 6.aX X'.@X$X.X(.%.$.$.$.p.fXH.-Xy.: 3XL.6XN.t.t.g.q 8X-.< >.7.4 >.@ oXE.S.d.P.M.n.",
", ).f.#.Y.@.U.&.# 7X%.-X*Xt.K.7.r {.8.` ' * o i 9.$.@XyXyX#X@X.X(.$.%.$.0.Z.) y o o * [ S.e.w.4.r ,Xn.Q :.x.,.q.* ,XE.-.m.E.X.n.",
"X nXG.y.N.j.c.c.: 7Xs.XX9Xm.%X[ y D u u V P P ' C.+.$.@XuX@X.X.X.X%.$.+.6.aXkXZ.P P P V D u D i D 6XE.1XE.o.E.#.@ 6Xu.G w.d.m w.",
"O 2XL.mXz.t.OX:.@ iXi.g.R.Q V C c c x x P E R ] jXgXZ.0.$.$.$.$.%.0.9.C.sXC.aXC.E E E P x x x c B D Q *X*X#.t.3.2 9.7.>.2.9.} 4.",
"X 7XY.*Xw.P.wXg.5 .Xs.|.Q l K U E E E E E T T / C.VXCXVXgXfX].].aXaXsXsXdX[ } 6.T T T T E E E E U K B ' 4XP.E.g.O 4 4 a ; ; 4 ; ",
"O :XL.pXB.P.OXh.. qXf.) B U W T T T T T T T T T ] kXZXZXCXVXlXlXlXjXzXsXZ.] ] E T T T T T T T T T E U B 6.d.L.q.r hX~ 4 -.} M -.",
"# 2X#.mXB.t.#.q.* MX[.u 6 U T T T T T T T T T T / C.kXVXCXBXlXBXlXjXsXC.} / E T T T T T T T T T T T U 6 L i.t.5.X |.5.n X.7.{ 5.",
"X 7XL.B.n.P.P.q.q b ~ u 2 z z I T T T T T T T T T E ] C.kXkXjXjXjXaX} / T T T T T T T T T T T T I z z 2 ) i.P.g.a [.*X~.d.n.G.V.",
"O %XXXe.9Xt.P.q.w J n D y 6 f k x z z z P T T T T T T / ] ] ] ] ] ] E T T T T T T T T P z x x x k f 0 V |.t.P.q.4 :Xd.y.oXE.1.s.",
"# %XU.m.mXP.#.q.* pX .N V 6 k f f f f f k c c c c c c c c x x c c c c c c c c c c c c k f f f f f k 6 F [.t.E.3.; 3Xm.y.oX-X~.#.",
"X tX#.f.F.0Xt.g.> OXi.8.;.t # 7 j g j j g f f f f f f f f f f f f f f f f f f f f f f g j j j k 7 # 9 4.M.E.;Xv.< 4Xf.W.qXW.q.f.",
"X 3XL.n.M.iXE.<.O tXt.n.*XD.4.F # : : : 6 g f g g g g g g j j j g g g g g g g g j j j 6 : : : # y Z.b.n.M.0XiXg.+ 2XY.m.cXd.t.N.",
"+ 2XI.m.v.=XP.w.: 7XL.n.8XE.d.6.u 6.2.[ L : 1 > > > : : : : : : : : : : : : : > > > : L 6.>.[ ' u 3XY.w.w.E.;X3.# 2XI.n.8Xd.t.c.",
"# :XI.z.h.s.t.h.> &XU.n.cXJ.t.g.: &XU.w.8.! ^ F 3 F   : > : : : : : : > :   B ! 3 ' Q 9.cXJ.t.g.: &XU.w.q.t.E.:.$ 2XL.u.1Xd.d.c.",
"# :XI.u.M.t.P.w.> :XL.n.1Xt.t.g.: 7XoX*X*XOX;XD.> &XQ 6 f g g g g g g f 6 Q u.g.> :XL.n.1Xt.t.g.: 7XoX*X*XOX;XD.$ 2XL.u.F.t.d.c.",
"X 2XI.u.F.R.E.q.# 7XL.z.M.P.t.5.: 7XoX*X9XOX=XF.: 5X2.h f f f f f f f f 9 2.m.5.# 7XL.n.M.P.t.5.: 7XoX*X9XOX=XF.# 3XL.u.v.r.d.z.",
". 3XL.B.*XXXE.<.O 8Xs.u.q.P.P.5.# :XL.u.M.t.t.5.: 9.: U x f f f f f f c U : :.5.O 8Xs.u.q.P.P.5.: :XL.f.M.t.t.5.# 3XL.z.h.s.P.c.",
". 8XL.-X[.P.P.q.# 2XU.n.h.t.P.q.> 7XL.u.F.P.P.5.: }.! C U c x x c c c U C ! w.q.O 2XU.n.h.t.P.q.2 7XL.u.F.P.P.5.$ 3XL.m.v.R.E.c.",
"X tXL.6XF.i.#.g.> %XY.n.F.#.P.g.O 2XL.n.1XOXE.g.> 2Xv._ C T T T T T T C _ v.#.g.> %XY.n.F.#.P.g.O 2XL.n.1XOXE.q.$ 2X#.m.M.-X=Xc.",
"; vXx.eXE.T.<.y.: :X#.m.n.E.OXq.3 :XR.c.p.iXy.@.> :XU.S.2 P I I I I P 5 G.T.y.y.: :X#.m.n.E.OXq.3 :XR.c.p.iXy.@.$ :XE.z.$.-X~.a.",
"  |.V.s.i.f.`.e.> 7XL.n.B.;XOXq.O +Xd.j.f.iXR.@.: &XL.b.2 k g f f g k 2 g.p.`.@.> 7XL.n.B.;XOXq.O +Xd.j.f.iXR.@.+ &XE.z.$.W.l.a.",
"% nX_.#.d.V.p.e.: 2XU.w.B.0XP.3.4 +XI./.e.0X-XO.> :XU.S.5 I z z z z P 5 b.V.p.e.: 2XU.w.B.0XP.3.4 +XI./.e.0X-XO.+ :XW.B.f.d.l.a.",
"X 4X .o.y.z.b e.: 2XU.e.B.wXt.5.O rXt.j.V.OXy.@.: :XY.}.2 Y T T T T Y 2 j.z.b e.: 2XU.e.B.wXt.5.O rXt.j.V.OXy.@.$ 3XW.^.+Xd.l.f.",
"6 hX:.9XvXvX7.4X: 7XY.e.B.wXP.g.> +XP.G.e.P.~.e.: :XL.{.L j I Y Y I h L xXvX7.1X: 7XY.e.B.wXP.g.> +XP.G.e.P.~.e.$ :XT.W.,Xd.l.a.",
". V A Y A A Q h : 2XU.w.M.;XL.g.r _.E.D.e.i.!.3.> 2X#.n.}.1 f k k f 1 ! A A ! h : 2XU.w.M.;XL.g.r _.E.D.e.i.!.3.% 3Xd.m.rXd.l.a.",
"  t A s h h A 4 O :XL.B.n.Y.P.5.. tXr.H M.r.n 5.> 7X#.n.}.2 8 f f 8 2 h j h A , O :XL.B.n.Y.P.5.. tXr.H M.r.n 5.% 7XJ.m.pXd.A.a.",
"; 7...| c.D.:.h.: 2XU.*XM.t.P.5.r _.u.,.3.z...-.O 7XL.b.L C k k k k C V S.S.5.g.: 2XU.*XM.t.P.5.r _.u.,.3.z...-.+ tXJ.n.rXu.A.a.",
"@ q.s 4.G.y.m ,.2 3XU.6XM.d.i.g.& h 4 e # e e + * ,Xd.H.k.9 K I I K 9 6.H.r.b -.2 3XU.6XM.d.i.g.& h 4 e # e e + : &X^.N.r.^.7.i.",
"@ 8Xf.b.G.y.O.D.> %XL.mXh.t.R.5.r }.~ N ! { M Y * XXP.H.F Z z z z z C F H.W.o.S.> %XL.mXh.t.R.5.r }.~ N ! { M Y , *Xu.^.K.r.}.K.",
"  8XXX4.N.t.V.j., ,XL.eXB.t.R.q.O 7XX.n X.<.H O.1 0XOX9.t U U I I U U 9 S.t.d.g., ,XL.eXB.t.R.q.O 7XX.n X.<.H O., 6XR.z.I.e.D.K.",
"# -Xs.e.~.K.V.<.O mX*.*X*Xt.t.g., ,XR.M.@.~.!.a.. qXd.H 9.9 I T T Y 9 9.F.#.P.q.O mX*.*X*Xt.t.g., ,XR.M.@.~.!.a.O :X[.H r.g.~ o.",
"+ 6XY.&XT.o.f.w., 7X*.XXF.t.P.q.: `.W.1Xa.T.!.@.r :Xb.} ) C z z z z C _ [.K.P.q., 7X*.XXF.t.P.q.: `.W.1Xa.T.!.O.y }. X{ M.S.} v.",
"  6XY.tXx.K.+Xz.2 `.U.W.h.d.XX5.1 2XW.*X:Xx.A.p.& m d y t 9 Z I I Z 9 6.M.U.OXh.2 `.U.W.h.d.XX5.1 2XW.*X:Xx.A.p.  Y a h v 4 y d ",
". 6XU.tXW.Q.tXl.1 &XP.3.g.m.e.7.# :Xx.h.rXd.A.p.p X.^ D i @ k c c k @ ) D.E.0Xb.1 &XP.3.g.m.e.7.# :Xx.h.rXx.A.p.* 4.G N n G y m ",
"@ *Xs.tXx.o.XX<.X nXa.m D.u.b 7.2 *XW.m.pXR.~.O.* 5XL l 6 o 8 f f 8 o 9 ' e.XX3.X nXa.m D.u.b 7.2 *XW.m.pXR.~.O.> 3X-.4 ~ Z.4 3.",
"X 2XI.-Xv.d.t.h.5 +.`.S. X).}.).O 8XL.w.mXP.t.:.y L C T k o 8 g g f o l B F e.h.5 +.`.S. X).}.).O 8XL.w.mXP.t.:.* ,Xt.<.p.#.x.n.",
"+ :XI.*X[.d.t.h.& d s e , 4 a ; O 2Xs.n.cXP.P.9.V S U x 7 o 7 > : 7 o 7 P 2 X.g.& d s e , 4 a ; O 2Xs.n.cXP.P.g.@ ,XP.c.`.d.x.u.",
"# 2XL.m.2Xd.t.w.(  XH M ` ~ G ` : 2XL.n.*Xr.P.[ 2 U x 8 # o 6 X 6 > . 8 x B ' S.(  XH M ` ~ G ` : 2XL.n.*Xr.P.q.* ,XI.G.:XR.T.w.",
"+ 8XK.u.2X=Xd.q.  uX .H X.e.H 2.: 2XL.n.N.J.n.L C U 8 V L o 6 # P h . # f Z l _ = uX .H X.e.H 2.: 2XL.n.N.J.OX5.* ,XJ.G.:XR.T.u.",
"  nX#.u.[.eXP.q.: #X.XF.p.OXE.@.O 2XL.n.M.=X7.6 U Z 6 D 1X[ 2 o U U 1 L t 7 Z l D `..XF.p.OXE.@.O 2XL.n.M.=XwXb.* :XJ.G.:XR.x.u.",
"  nXK.z.M.6XE.q.3 XXt./.*XE.T.e.O 8XL.n.z.*X[ l x 8 t 6.8X*X' @ Z P 2 4.6.t 8 Z l ' 4.Z.D.E.T.e.O 8XL.n.z.=XwXg.@ :XP.~.,XR.x.w.",
"X 8XL.m.v.E.P.q.3 7Xt.A.mXE.y.h.: 8Xs.n.7./ l c 8 6 -.B.9XP.B.5 j Z 2 5.B.-.6 > k B 9 9 ' M.y.h.: 8Xs.n.h.P.E.3.* :XP.G.:XL.x.z.",
"# &XI.m.M.#.P.w.@ uX.Xn.#X*.d.O.O |.-.6.' l K 7 5 6.Y.w.*Xt.M.5 j I B [ D.i.-._ 5 8 k k 1 -.P.O.O 7X#.V.z.t.d.g.* :XK.c.`.i.y.m.",
"X 3Xx.q.+X-X/.O.> 2XL.u.B.r.P.q.5 [ 9 9 S z 2 t u cXt.w.M.r.XX_ 9 P T t }.-X*Xe.u _ Q _ _ 7.P.q.: :XL.m.z.J.#.g.$ 2XL.u.q.P.t.w.",
"# %XE.W.#Xd.!.@.: 2XL.n.M.r.P.g.o 6 Z C l t 9 [ 1 8XU.w.n.t.E.4.o f T 5 5Xy.R.q.> 2Xs.n.M.r.P.g.> 2XU.m.M.E.t.g.# 3XY.u.q.P.P.G.",
"X %X=X-Xa.r.!.O.: 2XU.z.z.t.d.g.5 L L F L b.R.q.# 2XY.w.N.OXOXb.5 B U 6 b.y.x.O.: 2XU.n.z.t.d.g.> 2XU.n.F.;XR.q.# 3XI.u.v.oXOXF.",
": :XE.mX$.W.!.@.: 2XL.u.z.E.P.g.2 7XR.B.{.eXE.5.: &XY.w.^.0XE.5.9 D S B 9.~.E.O.: 2XL.u.z.E.P.g.: 2XL.n.F.0XE.5.# :XK.u.B.,XXXh.",
": `.T.9X$.d.!.@.> 2Xs.u.M.;XE.g.: 2XL.u.F.0XE.3.> &XY.w.B.OXP.3.6 ) 8 U t 7.R.e.> 2Xs.u.M.;XE.g.: 2XL.u.F.0XE.3.$ :XL.u.M.OXP.w.",
"  :X*Xq.$.y./.O.> 2Xs.u.M.wXE.g.: 7XU.n.F.0XE.5.: 2XE.n.z.t.t.g.X 5XV c B >.~.3.> 2Xs.u.M.wXE.g.: 7XU.n.F.0XE.5.$ 2XY.m.q.s.t.N.",
"X nXN.5.f.W.A.O.: 2XU.n.M.iXP.q.: 2XU.n.M.=XP.q.: 3XU.B.F.#.P.g.+ bX' l C V ;.5.: 2XU.n.M.iXP.q.: 2XU.n.M.=XP.q.$ :XY.W.M.s.#.N.",
"*  Xs j.f.<.a O.: 2XY.n.z.wXP.5.: 2XL.n.n.E.t.q.: 2X#.*X8XP.P.:.> }.v 5 X o v 4.: 2XY.n.z.wXP.5.: 2XL.n.n.E.t.q.1 %XK.*X1XXXt.h."
};
