/* XPM */
static char *_6d5b5fd73754106b784e02c8518214bhaaq1QYVZ1Nwjl6M[] = {
/* columns rows colors chars-per-pixel */
"64 64 250 2 ",
"   c #0A0300",
".  c #0C0A04",
"X  c #160603",
"o  c #130B02",
"O  c #1C0D04",
"+  c #1D0D0A",
"@  c #161104",
"#  c #1C1404",
"$  c #15110E",
"%  c #1C130A",
"&  c #1C190C",
"*  c #030813",
"=  c #0B1619",
"-  c #191615",
";  c #260803",
":  c #370C0C",
">  c #271705",
",  c #22140C",
"<  c #24190E",
"1  c #391509",
"2  c #250B11",
"3  c #261717",
"4  c #241A12",
"5  c #2B1C13",
"6  c #381918",
"7  c #2A221A",
"8  c #382618",
"9  c #0D1921",
"0  c #161F26",
"q  c #2E1723",
"w  c #192123",
"e  c #2B2326",
"r  c #392A26",
"t  c #373130",
"y  c #521806",
"u  c #491816",
"i  c #51270E",
"p  c #432B16",
"a  c #492E17",
"s  c #452B1A",
"d  c #492E19",
"f  c #4C3117",
"g  c #4C321A",
"h  c #54371D",
"j  c #712B0A",
"k  c #672A1D",
"l  c #693517",
"z  c #733116",
"x  c #511F2D",
"c  c #442A24",
"v  c #483528",
"b  c #563B26",
"n  c #51332F",
"m  c #593A2A",
"M  c #6D2C2A",
"N  c #663727",
"B  c #773B28",
"V  c #79441D",
"C  c #5C4128",
"Z  c #5A4335",
"A  c #634223",
"S  c #694625",
"D  c #6C4926",
"F  c #6B482B",
"G  c #704C27",
"H  c #734E29",
"J  c #674738",
"K  c #694A3B",
"L  c #704F3D",
"P  c #7A4939",
"I  c #725133",
"U  c #775338",
"Y  c #2E2A43",
"T  c #553E42",
"R  c #5F4342",
"E  c #674A45",
"W  c #734E48",
"Q  c #795845",
"!  c #7B5B56",
"~  c #7E6253",
"^  c #7C6D6E",
"/  c #853C32",
"(  c #96531B",
")  c #8E4F2C",
"_  c #894538",
"`  c #804E3A",
"'  c #885635",
"]  c #985E37",
"[  c #955838",
"{  c #A95D38",
"}  c #B75E38",
"|  c #986239",
" . c #996E38",
".. c #A56A3D",
"X. c #B5643D",
"o. c #B8683C",
"O. c #BC6D3D",
"+. c #A97538",
"@. c #B5763B",
"#. c #C6693E",
"$. c #C1723D",
"%. c #924C46",
"&. c #895A46",
"*. c #895748",
"=. c #975C47",
"-. c #995E46",
";. c #855B53",
":. c #A85D46",
">. c #A45C49",
",. c #B15E4E",
"<. c #896447",
"1. c #9B6246",
"2. c #9F6B40",
"3. c #95654A",
"4. c #9D644B",
"5. c #8E6A56",
"6. c #996756",
"7. c #996A53",
"8. c #957352",
"9. c #A96643",
"0. c #A26A44",
"q. c #A2654D",
"w. c #AA654E",
"e. c #A36A4D",
"r. c #AD6B4C",
"t. c #B96541",
"y. c #B66846",
"u. c #BC6C44",
"i. c #B6644B",
"p. c #B26D4D",
"a. c #BC6C4B",
"s. c #A97447",
"d. c #B27245",
"f. c #BD7143",
"g. c #B3724C",
"h. c #BE724B",
"j. c #B87A4A",
"k. c #A56B52",
"l. c #AC6C53",
"z. c #AA6858",
"x. c #B86757",
"c. c #B26D53",
"v. c #BC6C52",
"b. c #B36D5A",
"n. c #AB7255",
"m. c #AB755A",
"M. c #B47253",
"N. c #BA7454",
"B. c #B37B57",
"V. c #BB7B55",
"C. c #B5745A",
"Z. c #B9755C",
"A. c #BB7A5C",
"S. c #94766C",
"D. c #937D76",
"F. c #B86961",
"G. c #A97968",
"H. c #B57767",
"J. c #BB7363",
"K. c #BD7C62",
"L. c #C26D44",
"P. c #C26D49",
"I. c #C27345",
"U. c #C4744B",
"Y. c #C9764B",
"T. c #C5794A",
"R. c #CA7B4C",
"E. c #C26D58",
"W. c #C67A52",
"Q. c #CB7B54",
"!. c #C67658",
"~. c #CC7D5A",
"^. c #D17953",
"/. c #C26A64",
"(. c #C77765",
"). c #C47C63",
"_. c #C77A71",
"`. c #B7813D",
"'. c #B88748",
"]. c #AA835A",
"[. c #B78659",
"{. c #BB865D",
"}. c #9A867D",
"|. c #AE8B6F",
" X c #B28766",
".X c #B98667",
"XX c #B78971",
"oX c #BD8C75",
"OX c #C68449",
"+X c #CC964D",
"@X c #C9825A",
"#X c #D28454",
"$X c #D3845C",
"%X c #D68A5B",
"&X c #CA9854",
"*X c #C8935A",
"=X c #D39B5E",
"-X c #E2925D",
";X c #C18B65",
":X c #C88668",
">X c #C58D6A",
",X c #D88660",
"<X c #DC8B64",
"1X c #D48B6A",
"2X c #C6926F",
"3X c #CA936C",
"4X c #D49768",
"5X c #DC916D",
"6X c #C88B72",
"7X c #D38D75",
"8X c #C79577",
"9X c #CD9572",
"0X c #CD9974",
"qX c #D19A75",
"wX c #D89678",
"eX c #D49C7A",
"rX c #E5936C",
"tX c #E49A6B",
"yX c #E79874",
"uX c #ED9C75",
"iX c #CEA466",
"pX c #D9A46A",
"aX c #DBA775",
"sX c #D9A478",
"dX c #E6A774",
"fX c #F3A47A",
"gX c #8F7F81",
"hX c #8E8080",
"jX c #9C8A88",
"kX c #9D9498",
"lX c #A9958A",
"zX c #AE988F",
"xX c #ADA0A1",
"cX c #AAA2A5",
"vX c #B4ABAC",
"bX c #B7AFB0",
"nX c #BBB8BA",
"mX c #CD9383",
"MX c #D89B83",
"NX c #CFA88E",
"BX c #D5A98C",
"VX c #E5A485",
"CX c #EFB188",
"ZX c #C7B7B3",
"AX c #C9C1BF",
"SX c #C2BFC2",
"DX c #C7C3C4",
"FX c #CECBCD",
"GX c #D4CFCE",
"HX c #E3E3E4",
/* pixels */
"% 9XI.r.:X<X$X-., 0XI.r.Z.u.U.4., >XR.M.Z.u.t.k., 0XT.r.M.u.h.-.> 8XN.d.:X1X:X| , 0XI.r.Z.u.U.4., >XR.M.Z.u.t.k.& 9XI.p.e.U.u.w.",
"o .X#XA.:Xu.W.q., qXT.p.M.u.U.q.< 3XR.M.K.W.h.k.+ qXR.r.c.U.Q.l.> 6X~.OX:Xv.!.0., qXT.p.M.u.U.q.< 3XR.M.K.Q.h.k.% 0XR.p.e.U.U.J.",
"% ;XOXwX:Xo.u.l., qXT.p.l.u.U.k.< 9XR.M.K.,XQ.q.+ qXR.r.Z.^.$Xm.> :X~.4X@Xi.v.s., qXT.p.l.u.U.k.< 9XR.M.K.,XW.q.% 0XY.p.n.%X$XK.",
", 3XI.wXM.Q.u.q., 9XI.p.c.Q.U.k., 9XT.p.K.rXQ.4., 9XI.r.:X<X$X1.< qXU.4Xg.!.a.0., 9XI.p.c.Q.U.k., 9XT.p.K.rXQ.4.% 3XL.p.A.4X#Xl.",
"o 0XT.@Xr.Q.U.-.< 9Xf.p.C.<XW.k., 0XI.M.A.yXQ.4., 9XI.r.K.Q.I.G.vXNXFX@X9.~.W.| < 9Xf.p.C.<XW.k., 0XI.M.A.yXQ.4.& 3XI.p.C.$XU.w.",
"o 0X#Xr.C.u.W.q.< 3Xf.M.C.uXW.k., qXI.M.Z.rXQ.4., qXR.M.M.t.Y.ZXDXFXNX9.B.i.!.0.< 3Xu.c.C.uXW.k., qXI.M.Z.rXQ.4.& 0XR.N.e.f.u.Z.",
"$ 8X..l.K.y.{ k.< 3XI.M.C.uXU.k., qXI.Z.M.<XU.k., 9XR.A.K.u.I.AXFXMXU.` {.i.>.e.< 3XI.M.C.uXU.k., qXI.V.M.<XU.k.& >XR.!.C.f.o.Z.",
"- XXj C.m.N.z 6., 9XT.N.M.uXu.q., 0Xu.N.r.$Xu.q.< >XI.:XwXQ.I.vXFXFXZXJ m.Z.z 3., 9XT.N.M.uXu.q., 0Xu.N.r.$Xu.q.4 ;XL.:X6X@Xu.l.",
"O 8..X.X[..X].[.% eXI.r.M.uXY.q.4 %Xu.H.!.t.:X9.q [.T.K.3XI.U.k.kXDXFXDX]..X].[.% eXf.r.M.uXY.q.4 %Xu.H.!.t.:XX.q @XT..X%XY.l.M.",
"* = < > 4 @ 4   % 3XT.p.C.,XU.1.% %XU.P :.a._ [ 2 *XI.K.dXR.E.k.= &.FXDX< . <   % 3XT.p.C.,XY.1.% %XW.P :.a._ [ - <XI..XtX^.l.M.",
"2 W _ / _ %.,._ , ;X#XV.A.U.U.1.& dXN.m K.).k m.+ pX$.Z.dXT.).G.e FXFXT _ %.q._ , ;X#XV.A.U.U.1.& dXN.m K.).k m.$ tXO.H.uX^.c.N.",
"; &.y :.).z.z q., ;X#X1XA.u.U.q.= V l R M N J h , pXO.c.:Xo.(.k.nXFX.X{ :Xm.z q., ;X#X1XA.u.U.q.= V l R M N J n - tXO.m.$X#.M.g.",
"- }.N 4.G.6.N 6., 3XOXyXC.u.L.k.= l i r 1 u c < , *XI.b.j.{ (.e.FXDXY.4.G.6.N 6., 3XOXyXC.u.L.k.9 l i r 1 u c < $ %XI.m.P.o.Z.p.",
"; MXrXP.i.E.7Xi., 0XI.wXZ.u.u.k.9 eX&.2 ;.6.6 ;., *X#Xb.B.u.(.:.vXNXR.L.t.v.1Xi., 0XI.wXZ.u.u.k.9 eX&.2 ;.6.6 ;.$ %XQ.G.h.U.C.M.",
"> ].j.O.R...T.( % qXO.1X:Xu.L.q.- 4XM.J -.N.%.q.- 3X~.%.B.h.>.C., 3Xj.O.R...T.( % qXO.1X:Xu.L.q.- 4XM.J -.v.%.q.- 4X~.&.N.Q.[ M.",
"X NXJ.i.Z.z.b.b., qXf.@X7Xu.U.q., -XY.6XQ.} ~.X.- iXp.M l.y.B 7.> NXK.i.Z.b.Z.M., qXf.@X7Xu.U.q., -XY.6XQ.} ~.X.$ wXp.n w.a.l r.",
"O 9XI.VXc.u.$X=.$ fXy.k.U.Y.c.:., 9XT.:X:XX.u.1.3 s.1.! ;.3.%.<.& 3XO.CXw.U.$X=.. fXy.k.U.Y.x.:., 9XT.:X:XX.u.1.5 8.6.;.<.8.! 3.",
"X qXR.:Xr.U.uXk.7 OXf.6Xu.L.:Xr., 3XI.@X7XU.Q.k.$ i : 6 + u J c v XXR.1Xr.U.fXq.7 T.f.6Xu.L.:Xr.< 3XI.@X7XU.Q.k.+ 1 1 u ; ; : ; ",
"O 3XI.dXA.U.$Xl.. tXf.B 9.{ B [ 5 3Xf.M.VXU.I.q.e NXQ ! jXvXbXvXcXxXlXlX|.y.<Xk.. tXf.B 9.{ B [ 5 3Xf.M.VXU.I.q.e zXP : &.! x &.",
"% 9Xo.VXA.u.X.q.- CX:XJ MX7X&.XX< 3XI.g.VXu.u.4.. oXlXlX X[. X].].].].|.zX|.y.4.- CX:XJ MX7X&.XX< 3XI.g.VXu.u.4.X oX4.k [ 6.W 4.",
"o qXI.A.M.U.U.q.9 j P W P P E m O 3XT.M.VXL.U.k.n zX|.'.&X+XOX`.@.+.+.+.s.zXG.q.9 j P W P P E m O 3XT.M.VXu.U.k.u .X:X(.h.M.J.V.",
"O ;X#X9.7Xu.U.q.0 V i 3 1 y 1 1 O 9XT.g.wXu.U.q.n 8.+.&XaXpX=X&XOX`.+.@.+.2.S.S.t V i 3 1 y 1 1 O 9XT.g.wXu.U.q.: 3Xh.i.%X~.,.f.",
"% ;XT.N.VXU.X.q.- dX) 6 P -.N =., qXI.r.K.u.Q.4.n D. .+.&XiX&XOXOXOX@.+. .5.jXbX^ sX) 6 P -.N =., qXI.r.A.u.Q.1.; 0XN.i.%X1X(.o.",
"X sXO.g.K.rXu.k.< #Xy.6.q.!.4.:., qXO.k.k.C.:XW v cXxXS.8.+.+. .+.@.2.8.D.kXD.hX^ 7.e.5.7.N.4.:., qXO.r.M.Q.<Xn.2 8Xg.!.tX!.q.j.",
"o 0XI.M.C.fXQ.>.O sXu.M.:X,Xu.k.O 2XA.! t v v b K D.DXGXDXzXlX}.}.jXjXkXkXgXQ ! ~ v v v Z G.g.k.O 3XR.M.C.rXfXk.@ 9XR.N.MXh.u.Z.",
"@ 9XY.N.n.,XU.w., qXI.M.wXQ.u.k.7 5.m C A A A D H Q bXHXHXGXDXnXnXnXcXkXkXS.Q Q I S A A A m m 3.7 9XR.r.r.Q.<X1.% 9XY.M.eXh.u.b.",
"% 3XY.c.l.f.u.l.< >XT.M.MXP.u.k.t C D H H H H H H U D.bXDXFXSXnXSXnXcXkXD.! U I H H H H H H S Z e >XT.r.q.u.Q.-.& 9XI.p.6Xh.h.b.",
"% 3XY.p.C.u.U.w.< 3XI.M.6Xu.u.7.e d G H H H H H H H I Q D.vXvXcXxXcXjX~ I H H H H H H H H H G 8 7 0X%X:X:X$X<XH.& 9XI.p.K.u.a.b.",
"o 9XY.p.K.W.Q.q.% qXI.c.C.U.u.4.t 8 g C D S S D H H H H U Q Q Q Q Q Q H H H H H H D D D S h g r e qX%X:X7X$X,XK.% 0XI.p.n.t.a.c.",
". 0XI.A.:X@X~.>.O eXf.p.q.U.U.4.r v p a f g d h A A A A A A A A A A A A A A A A A h f g f a 8 Z 7 3XI.g.C.u.u.4.% 0XI.c.l.f.U.b.",
". eXI.1X.XU.U.q.% 9XT.M.l.u.U.q.7 ~ 5 8 a a d a a a a a a a a a a a a a a a a a a a g d a 5 8 &.5 qXI.p.K.U.U.4.& 0XI.N.n.W.~.b.",
"o sXI.wXK.y.X.k.< ;XR.M.K.X.U.k.O 2Xe.K 7 8 8 8 p p p p p p p p p p p p p p p p 8 8 8 7 r Q n.k.O 9XI.M.6X$XQ.e.& 9XO.N.C.1X,Xb.",
"; mXv.yXQ.E.:.i., 3XO.N.M.Q.$Xq.3 3XW.z.3.>X=.L 4 v v 5 % , , , , , , , @ 8 c c 4 5.1.7.7.W.$Xq.3 3XW.b.s.fXi...& 3XQ.c.+.1X(.d.",
"  oXV.f.y.g.{.0.< qXI.M.A.<X$Xq.+ *Xh.z.g.fXW.2.,  X9.&.r 8 p p p 8 8 8 v 3.m.] 4 0XI.M.A.<X$Xq.+ *Xh.z.g.fXW...@ >XQ.c.+.!.x.d.",
"# NX[.o.h.V.s.9., 9XT.r.A.rXU.1.6 *XY._.9.rX1X| < 3XT.n.Z a a a a a a s Q B.s.0., 9XT.r.A.rXU.1.6 *XY._.9.rX1X| @ 3X!.A.j.h.x.d.",
"X 8X) } i.c.j 9., 9XT.9.A.uXu.4.+ pXu.z.V.#Xi..., 3XR.&.b C f f f f h A 8 3.j 9., 9XT.9.A.uXu.4.+ pXu.z.V.#Xi...& 0X!.).*Xh.x.j.",
"8 zX=.7XmXmX6.8X, qXR.9.A.uXU.k.< *XU.J.9.U.(.0., 3XI.B.~ C S S S S S Z S.mX6.6X, qXR.9.A.uXU.k.< *XU.J.9.U.(.0.& 3XE.!.4Xh.x.d.",
". v m F m m J s , 9XT.r.C.<XI.k.e [.Q.H.0.a./.1.< 9XO.M.8Xc A S S S g Z m m J s , 9XT.r.C.<XI.k.e [.Q.H.0.a./.1.# 0Xa.N.pXh.x.d.",
"  r m y s s m 1 O 3XI.A.M.R.U.4.. sXy.M C.y.k 4.< qXO.M.MXr h a a f s v s s m > O 3XI.A.M.R.U.4.. sXy.M C.y.k 4.# qXP.N.dXh.F.d.",
"; 6._ / b.H.-.l., 9XT.:XC.u.U.4.e [.p.%.1.c._ &.O qXI.M.MX8 S A A A b J z.G.4.k., 9XT.:XC.u.U.4.e [.p.%.1.c._ &.@ sXP.M.pXp.F.d.",
"$ q.y 3.J.i.l %.5 0XT.wXC.h.y.k.* s : q % q q @ - 4Xh.G.c.m h S D S s Q G.y.j &.5 0XT.wXC.h.y.k.* s : q % q q @ , >X).Z.t.).6.a.",
"$ wXg.m.J.i.| H.< ;XI.VXl.u.W.4.e XXP c J W x F - #XU.H.a.9.5 a f p v m.H.!.{ G.< ;XI.VXl.u.W.4.e XXP c J W x F > :Xp.).L.y.XXL.",
"  wX#X3.Z.u.V.z.> 4XI.yXA.u.W.q.O qX[ k ' >.M | 4 rX#Xk.!.' 8 a a a m &.C.u.h.k.> 4XI.yXA.u.W.q.O qX[ k ' >.M | > wXW.c.^.9.H.L.",
"% 1Xf.0.(.L.V.>.O VX$.:X:Xu.u.k.> 4XW.C...(./.d.. tXh.N C.&.v b A b Z 7.C.X.U.q.O VX$.:X:Xu.u.k.> 4XW.C...(./.d.O 3X.XB t.k.P { ",
"@ wXR.>XE.} j.w.> qX$.@XK.u.U.q., {.!.6Xd.E./...e 3Xm.W G.Z b h h h m 7.A.L.U.q.> qX$.@XK.u.U.q., {.!.6Xd.E./.| r XX XW C.G.! n.",
"  wXR.sXv.L.*Xc.5 {.T.!.l.a.@X4.4 9X!.:X3Xv.F.s.* l i q v c C D D D C G.M.T.$Xl.5 {.T.!.l.a.@X4.4 9X!.:X3Xv.F.s.  F u s i 6 r i ",
". wXT.sX!.^.sXx.4 >XU.1.k.N.9.6.% 3Xv.l.pXa.F.s.w [ l r n Z v h A b Z oXC.Q.rXm.4 >XU.1.k.N.9.6.% 3Xv.l.pXv.F.s.- 3.n c k n r l ",
"$ :Xf.sXv.{ @X>.o BXd.l H.p.j 6.5 :X!.N.dXW.(.| - sX' 6 W W s A A b b XXZ.X.@X1.o BXd.l H.p.j 6.5 :X!.N.dXW.(.| < 0X&.1 P S.6 1.",
"o 9XY.1Xn.h.u.l.7  .{.G. X].XX].O eXI.r.VXU.u.-.< 9Xf.[ ! n % f h d 5 5.l.U.u.l.7  .{.G. X].XX].O eXI.r.VXU.u.-.- 4Xu.>.s.o.v.M.",
"@ 3XY.:X.Xh.u.l.* i y q > 1 u ; + 9Xf.M.MXU.U.k., 9Xj.K C s % p a 8 < m ;.y.u.k.* i y q > 1 u ; + 9Xf.M.MXU.U.k.$ 4XU.b.{.h.v.p.",
"% 9XI.N.9Xh.u.w.Y |.B x E P n E , 9XI.M.:Xt.U.q., 2X&.b A p % 8 5 8 , h 8 0.u.k.Y |.B x E P n E , 9XI.M.:Xt.U.q.- 4XY.J.3XW.E.r.",
"@ eXL.p.9X,Xh.q.  iX) N ' 0.B <., 9XI.M.Z.P.$X4.< G.8 S g 4 % < 7 < % g v <.N.q.  iX) N ' 0.B <., 9XI.M.Z.P.$X4.- 4XP.J.3XW.E.p.",
"  BXO.p..XyXU.q., =XOXK.s.#X~...O 9XI.M.C.,XuXm., K C b c U 8 < b g 4 8 f b Q 3., =XOXK.s.#X~...O 9XI.M.C.,XuXm.- 3XP.J.3XW.v.p.",
"  BXL.c.C.wXQ.q.3 @Xu._.:XQ.E.9.O eXI.M.c.,XuXk.7 b b s E V.4.r g A v Q 8 g b K t B.u._.:XQ.E.9.O eXI.M.c.,XuXk.$ 3XU.(.4XW.v.r.",
"o eXI.N.n.Q.U.q.3 qXu.F.VXQ.i.l., eXf.M.l.U.Q.<.r h 8 c XXU.h.K 8 b b k.Q 7 8 v 5 n =.F.VXQ.i.l., eXf.M.l.U.Q.1.- 3XU.J.3XI.v.c.",
"% >XY.N.C.o.U.w.$ iXOXM.=X$.h.| + qXo.V.l.&.Q J g s m 3.:Xu.a.Q 8 S C 7.Z.&.L v 8 v Q C.=X$.h.| + qXo.V.c.u.h.k.- 3XL.b.{.y.i.N.",
"o 0Xv.q.*X1X_.| < 9XI.p.A.t.U.q., 3XI.N.J v g g 7 Z e.r.C.t.W.*.4 h m U :X1XK.U e G.r.p.A.t.U.q., 3XI.N.c.P.X.k.& 9XI.p.e.U.u.w.",
"% ;X~.!.=Xa./..., 9XI.M.C.t.U.k.< 9XT.N.K m m n 7 8XT.r.M.u.~.k.4 v b <.4Xi.W.e., 9XI.M.C.t.U.k.< 9XT.N.C.Q.u.k.% 0XR.p.e.U.U.J.",
"o ;X%X1Xd.t./.| , 9XT.c.c.u.h.k.< 9XT.M.:X5X@Xk.4 9XR.r.Z.$X$Xm.7 n b &.B.i.v.| , 9XT.M.c.u.h.k.< 9XT.M.K.<XW.q.% 0XY.p.n.%X$XK.",
", 3X~.VX+.!./..., 9XI.p.c.Q.U.k., 9XI.M.K.rXQ.4., >XR.r.).rXQ.4.5 5.v b <.~.Q.| , 9XI.p.c.Q.U.k., 9XI.M.K.rXQ.4.% 3XL.p.A.4X#Xl.",
", {.E.7X+.a./...< 9Xf.p.C.<XQ.k., 9XI.p.K.rXQ.1.< >XR.r.A.$XU.1.> XXm b m w.W.0.< 9Xf.p.C.<XQ.k., 9XI.p.K.rXQ.1.& 3XI.p.C.$XU.w.",
"  3X:Xq.+.i._.| < 9Xf.p.C.uXQ.k., qXT.M.K.rXQ.4., 9XQ.M.c.u.u.k.o 8X3.4 % -.(.1.< 9Xf.p.C.uXQ.k., qXT.M.K.rXQ.4.& 9XR.N.e.f.u.Z.",
"o BXZ.4.j.!.F.| , 9XT.M.C.fXU.q., 9XT.M.C.,XU.q., 0XT.A.K.X.U.k.@ NXN...B./.w.4., 9XT.M.C.fXU.q., 9XT.M.C.,XU.q.& 3XR.!.C.f.o.Z.",
"-  Xy z.j.:.u | , 9XR.M.c.uXU.4., 9XI.M.M.Q.u.q., 9XO.:XwXU.U.-.< XXy s.B.>.y 3., 9XR.M.c.uXU.4., 9XI.M.M.Q.u.q.4 ;XL.:X6X@Xu.l."
};
