/* XPM */
static char *_8f713a0efa24be6c0f52b696e908d2bb8GJkuDmuZ3DUlZw[] = {
/* columns rows colors chars-per-pixel */
"64 64 245 2 ",
"   c #0A0300",
".  c #0C0A04",
"X  c #160603",
"o  c #130B02",
"O  c #1C0D04",
"+  c #1D0D0A",
"@  c #161104",
"#  c #1C1404",
"$  c #15110E",
"%  c #1C130A",
"&  c #1C190C",
"*  c #030813",
"=  c #0B1619",
"-  c #191615",
";  c #260803",
":  c #360C0B",
">  c #241503",
",  c #2A1907",
"<  c #22140C",
"1  c #24190E",
"2  c #391509",
"3  c #250B11",
"4  c #261717",
"5  c #241A12",
"6  c #2B1C13",
"7  c #381918",
"8  c #2A221A",
"9  c #382618",
"0  c #0D1921",
"q  c #161F26",
"w  c #2E1723",
"e  c #192123",
"r  c #2B2326",
"t  c #392A26",
"y  c #3B322F",
"u  c #48190A",
"i  c #5B1701",
"p  c #491816",
"a  c #51270E",
"s  c #432B16",
"d  c #492E17",
"f  c #452B1A",
"g  c #492E19",
"h  c #4C3117",
"j  c #4C321A",
"k  c #54371D",
"l  c #712B0A",
"z  c #672A1D",
"x  c #693517",
"c  c #733116",
"v  c #511F2D",
"b  c #442A24",
"n  c #483528",
"m  c #563B26",
"M  c #51332F",
"N  c #593A2A",
"B  c #6D2C2A",
"V  c #663727",
"C  c #773B28",
"Z  c #79441D",
"A  c #5C4128",
"S  c #5A4335",
"D  c #634223",
"F  c #694625",
"G  c #6C4926",
"H  c #6B482B",
"J  c #704C27",
"K  c #734E29",
"L  c #674739",
"P  c #694A3B",
"I  c #704F3D",
"U  c #7A4939",
"Y  c #725133",
"T  c #775338",
"R  c #2E2A43",
"E  c #5F4342",
"W  c #674A45",
"Q  c #794946",
"!  c #6C544B",
"~  c #795845",
"^  c #7B5B56",
"/  c #7E6253",
"(  c #7C6D6E",
")  c #853C32",
"_  c #96531B",
"`  c #8E4F2C",
"'  c #894538",
"]  c #885635",
"[  c #985E37",
"{  c #955838",
"}  c #AA5D38",
"|  c #B75E38",
" . c #986239",
".. c #996E38",
"X. c #A56A3D",
"o. c #B5643D",
"O. c #B8683C",
"+. c #BC6D3D",
"@. c #A97538",
"#. c #B5763B",
"$. c #C6693E",
"%. c #C1723D",
"&. c #924C46",
"*. c #895A46",
"=. c #895749",
"-. c #975C47",
";. c #995E46",
":. c #855B53",
">. c #A65C48",
",. c #B15E4E",
"<. c #896347",
"1. c #9B6246",
"2. c #9F6B40",
"3. c #95654A",
"4. c #9D644B",
"5. c #8E6A56",
"6. c #996756",
"7. c #996A54",
"8. c #957352",
"9. c #A26A44",
"0. c #A76846",
"q. c #A2654D",
"w. c #AA654E",
"e. c #AD6B4C",
"r. c #B96541",
"t. c #B66846",
"y. c #BC6C44",
"u. c #B6644B",
"i. c #B26D4D",
"p. c #BC6C4B",
"a. c #A97447",
"s. c #B27245",
"d. c #BD7143",
"f. c #B3724C",
"g. c #BE724B",
"h. c #B97A4A",
"j. c #A56B52",
"k. c #AC6C53",
"l. c #AA6858",
"z. c #B86757",
"x. c #B26D53",
"c. c #BC6C52",
"v. c #B36D5A",
"b. c #AB7255",
"n. c #AB755A",
"m. c #B47253",
"M. c #BA7454",
"N. c #B37B57",
"B. c #BB7B55",
"V. c #B5745A",
"C. c #B9755C",
"Z. c #BB7A5C",
"A. c #94766C",
"S. c #937D76",
"D. c #B86961",
"F. c #A97868",
"G. c #B57767",
"H. c #BB7363",
"J. c #BD7C62",
"K. c #C26D44",
"L. c #C26D49",
"P. c #C27345",
"I. c #C4744B",
"U. c #C9764B",
"Y. c #C5794A",
"T. c #CA7B4C",
"R. c #C26D58",
"E. c #C67A52",
"W. c #CB7B54",
"Q. c #C67658",
"!. c #CC7D5A",
"~. c #D17953",
"^. c #C26A64",
"/. c #C77765",
"(. c #C37D63",
"). c #C77A71",
"_. c #B7813D",
"`. c #B88748",
"'. c #AA835A",
"]. c #B78659",
"[. c #BB865D",
"{. c #9A867D",
"}. c #AE8B6F",
"|. c #B28766",
" X c #B98667",
".X c #B78971",
"XX c #BD8C75",
"oX c #C68449",
"OX c #CC964D",
"+X c #C9825A",
"@X c #D28454",
"#X c #D3845C",
"$X c #D68A5B",
"%X c #CA9854",
"&X c #C8935A",
"*X c #D39B5E",
"=X c #E2925D",
"-X c #C18B65",
";X c #C88668",
":X c #C58D6A",
">X c #D88660",
",X c #DC8B64",
"<X c #D48B6A",
"1X c #C6926F",
"2X c #CA936C",
"3X c #D49768",
"4X c #DC916D",
"5X c #C88B72",
"6X c #D38D75",
"7X c #C79577",
"8X c #CD9572",
"9X c #CD9974",
"0X c #D19A75",
"qX c #D89678",
"wX c #D49C7A",
"eX c #E5936C",
"rX c #E49A6B",
"tX c #E79874",
"yX c #ED9C75",
"uX c #CEA466",
"iX c #D9A46A",
"pX c #DBA775",
"aX c #D9A478",
"sX c #E6A774",
"dX c #F3A47A",
"fX c #8F7F81",
"gX c #8E8080",
"hX c #9C8A88",
"jX c #9D9396",
"kX c #A9958A",
"lX c #AE988F",
"zX c #A59DA2",
"xX c #AAA2A5",
"cX c #B4ABAC",
"vX c #BAB6B8",
"bX c #CD9383",
"nX c #D89B83",
"mX c #CFA88E",
"MX c #DAA987",
"NX c #E5A485",
"BX c #EFB188",
"VX c #C2BFC2",
"CX c #C8C4C5",
"ZX c #D6D4D5",
"AX c #E3E3E4",
/* pixels */
"% 8XP.e.;X,X#X;.< 9XP.e.C.y.I.4.< :XT.m.C.y.r.j.< 9XY.e.m.y.g.;.> 7XM.s.;X<X;X .< 9XP.e.C.y.I.4.< :XT.m.C.y.r.j.& 8XP.i.q.I.y.w.",
"o  X@XZ.;Xy.E.q.< 0XY.i.m.y.I.q.1 2XT.m.J.E.g.j.+ 0XT.e.x.I.W.k.> 5X!.oX;Xc.Q.9.< 0XY.i.m.y.I.q.1 2XT.m.J.W.g.j.% 9XT.i.q.I.I.H.",
"% -XoXqX;XO.y.k.< 0XY.i.k.y.I.j.1 8XT.m.J.>XW.q.+ 0XT.e.C.~.#Xn., ;X!.3X+Xu.c.a.< 0XY.i.k.y.I.j.1 8XT.m.J.>XE.q.% 9XU.i.b.$X#XJ.",
"< 2XP.qXm.W.y.q.< 8XP.i.x.W.I.j.< 8XY.i.J.eXW.4.< 8XP.e.;X,X#X1., 8XI.3Xf.Q.p.9.< 8XP.i.x.W.I.j.< 8XY.i.J.eXW.4.% 2XK.i.Z.3X@Xk.",
"o 9XY.+Xe.W.I.;.1 8Xd.i.V.,XE.j.< 9XP.m.Z.tXW.4.< 8XP.e.J.W.W.;.> wXW.+X0.Q.E. .1 8Xd.i.V.,XE.j.< 9XP.m.Z.tXW.4.& 2XP.i.V.#XI.w.",
"o 9X@Xe.V.y.E.q.1 2Xd.m.V.yXE.j.< 0XP.m.C.eXW.4.< 0XT.m.m.r.I.j.# wX#X0.N.u.Q.9.1 2Xy.x.V.yXE.j.< 0XP.m.C.eXW.4.& 9XT.M.q.d.y.C.",
"$ 7XX.k.J.t.} j.1 2XP.m.V.yXI.j.< 0XP.C.m.,XI.j.< 8XT.Z.J.y.y.j.1 7X0.0.[.u.>.q.1 2XP.m.V.yXI.j.< 0XP.B.m.,XI.j.& :XT.Q.V.d.O.C.",
"- .Xl V.n.M.c 6.< 8XY.M.m.yXy.q.< 9Xy.M.e.#Xy.q.1 :XP.;XqXW.y.1.5 .Xl N.n.C.c 3.< 8XY.M.m.yXy.q.< 9Xy.M.e.#Xy.q.5 -XK.;X5X+Xy.k.",
"O 8. X X]. X'.].% wXP.e.m.yXU.q.5 $Xy.G.Q.r.;X0.w ].Y.J.2XP./.4.> F. X[.'. X'.].% wXd.e.m.yXU.q.5 $Xy.G.Q.r.;Xo.w +XY. X$XU.k.m.",
"* = 1 > 5 @ 5   % 2XY.i.V.>XI.1.% $XI.U >.p.' { 3 &XP.J.sXT.R.4.* - % # 1 . 1   % 2XY.i.V.>XU.1.% $XE.U >.p.' { - ,XP. XrX~.k.m.",
"3 Q ' ) ' &.,.' < -X@XB.Z.I.I.1.& sXM.N J.(.z n.+ iX%.C.sXY.Q.q.3 Q ' ) ' &.q.' < -X@XB.Z.I.I.1.& sXM.N J.(.z n.$ rX+.G.yX~.x.M.",
"; *.i >.(.l.c q.< -X@X<XZ.y.I.q.= Z x E B V L k < iX+.x.;XO.Q.0.: *.i } ;Xn.c q.< -X@X<XZ.y.I.q.= Z x E B V L M - rX+.n.#X$.m.f.",
"- {.V 4.F.6.V 6.< 2XoXtXV.y.K.j.= x a t 2 p b 1 < &XP.v.h.} /. .4 }.V 4.F.6.V 6.< 2XoXtXV.y.K.j.0 x u t 2 p b 1 $ $XP.n.L.O.C.i.",
"; nXeXL.u.R.6Xu.< 9XP.qXC.y.y.j.0 wX*.3 :.6.7 :.< &X@Xv.N.y./.9.; nXeXK.r.c.<Xu.< 9XP.qXC.y.y.j.0 wX*.3 :.6.7 :.$ $XW.F.g.I.V.m.",
", '.h.+.T.X.Y._ % 0X+.<X;Xy.K.q.- 3Xm.L ;.M.&.q.- 2X!.&.N.g.>.4.2 '.h.+.T.X.Y._ % 0X+.<X;Xy.K.q.- 3Xm.L ;.c.&.q.- 3X!.*.M.W.{ m.",
"X mXH.u.C.l.v.v.< 0Xd.+X6Xy.I.q.< =XU.5XW.| !.o.- uXi.B k.t.C 3.> mXJ.u.C.v.C.m.< 0Xd.+X6Xy.I.q.< =XU.5XW.| !.o.$ qXi.M w.p.x e.",
"O 8XP.NXx.y.#X-.$ dXt.j.I.U.x.>.< 8XY.;X;Xo.y.1.4 a.1.^ :.3.&.<.% 2X+.BXw.I.#X-.. dXt.j.I.U.z.>.< 8XY.;X;Xo.y.1.6 8.6.:.<.8.^ 3.",
"X 0XT.;Xe.I.yXj.8 oXd.5Xy.K.;Xe.< 2XP.+X6XI.W.j.$ u : 7 + p L b n .XT.<Xe.I.dXq.8 Y.d.5Xy.K.;Xe.1 2XP.+X6XI.W.j.+ 2 2 p ; ; : ; ",
"O 2XP.sXZ.I.#Xk.. rXd.C 0.} C { 6 2Xd.m.NXI.P.q.r mX~ ^ hXcXcXcXxXzXkXkX}.t.,Xj.. rXd.C 0.} C { 6 2Xd.m.NXI.P.q.r lXU : *.^ v *.",
"% 8XO.NXZ.y.o.q.- BX;XL nX6X*..X1 2XP.f.NXy.y.4.. XXkXkX|.].|.'.'.'.'.}.lX}.t.4.- BX;XL nX6X*..X1 2XP.f.NXy.y.4.X XX4.z { 6.Q 4.",
"o 0XP.Z.m.I.I.q.0 l U ! U U W N O 2XY.m.NXK.I.j.M lX}.`.%XOXoX_.#.@.@.@.a.lXF.q.0 l U ! U U W N O 2XY.m.NXy.I.j.p  X;X/.g.m.H.B.",
"O -X@X0.6Xy.I.q.q Z a 4 2 u 2 2 O 8XY.f.qXy.I.q.M 8.@.%XpXiX*X%XoX_.@.#.@.2.A.A.y Z a 4 2 u 2 2 O 8XY.f.qXy.I.q.: 2Xg.u.$X!.,.d.",
"% -XY.M.NXI.o.q.- sX` 7 U ;.V -.< 0XP.e.J.y.W.4.M S...@.%XuX%XoXoXoX#.@...5.hXcX( aX` 7 U ;.V -.< 0XP.e.Z.y.W.1.; 9XM.u.$X<X/.O.",
"X aX+.f.J.eXy.j.1 @Xt.6.q.Q.4.>.< 0X+.j.j.V.;X! n xXzXA.8.@.@...@.#.2.8.S.jXS.gX( 7.0.5.7.M.4.>.< 0X+.e.m.W.,Xb.3 7Xf.Q.rXQ.q.h.",
"o 9XP.m.V.dXW.>.O aXy.m.;X>Xy.j.O 1XZ.^ y n n m P S.CXZXCXlXkX{.{.hXhXjXjXfX~ ^ / n n n S F.f.j.O 2XT.m.V.eXdXj.@ 8XT.M.nXg.y.C.",
"@ 8XU.M.b.>XI.w.< 0XP.m.qXW.y.j.8 5.N A D D D G K ~ cXAXAXZXCXvXvXvXxXzXjXA.~ ~ Y F D D D N N 3.8 8XT.e.e.W.,X1.% 8XU.m.wXg.y.v.",
"% 2XU.x.k.d.y.k.1 :XY.m.nXL.y.j.y A G K K K K K K T S.cXCXZXVXvXVXvXxXjXS.^ T K K K K K K K F S r :XY.e.q.y.W.;.& 8XP.i.5Xg.g.v.",
"% 2XU.i.V.y.I.w.1 2XP.m.5Xy.y.7.r g J K K K K K K K Y ~ S.cXcXxXzXxXhX/ Y K K K K K K K K K J 9 8 9X$X;X;X#X,XG.& 8XP.i.J.y.p.v.",
"o 8XU.i.J.E.W.q.% 0XP.x.V.I.y.4.y 9 j A G F F G K K K K T ~ ~ ~ ~ ~ ~ K K K K K K G G G F k j t r 0X$X;X6X#X>XJ.% 9XP.i.b.r.p.x.",
". 9XP.Z.;X+X!.>.O wXd.i.q.I.I.4.t n s d h j g k D D D D D D D D D D D D D D D D D k h j h d 9 S 8 2XP.f.V.y.y.4.% 9XP.x.k.d.I.v.",
". wXP.<X XI.I.q.% 8XY.m.k.y.I.q.8 / 6 9 d d g d d d d d d d d d d d d d d d d d d d j g d 6 9 *.6 0XP.i.J.I.I.4.& 9XP.M.b.E.!.v.",
"o aXP.qXJ.t.o.j.1 -XT.m.J.o.I.j.O 1Xj.P 8 9 9 9 s s s s s s s s s s s s s s s s 9 9 9 8 t ~ b.j.O 8XP.m.5X#XW.q.& 8X+.M.V.<X>Xv.",
"; bXc.tXW.R.>.u.< 2X+.M.m.W.#Xq.4 2XE.l.3.:X-.I 5 n n 6 % < < < < < < < @ 9 b b 5 5.1.7.7.E.#Xq.4 2XE.v.a.dXu.X.& 2XW.x.@.<X/.s.",
"  XXB.d.t.f.[.9.1 0XP.m.Z.,X#Xq.+ &Xg.l.f.dXE.2.< |.0.*.t 9 s s s 9 9 9 n 3.n.[ 5 9XP.m.Z.,X#Xq.+ &Xg.l.f.dXE.X.@ :XW.x.@.Q.z.s.",
"# mX].O.g.B.a.0.< 8XY.e.Z.eXI.1.7 &XU.).0.eX<X .1 2XY.b.S d d d d d d f ~ N.a.9.< 8XY.e.Z.eXI.1.7 &XU.).0.eX<X .@ 2XQ.Z.h.g.z.s.",
"X 7X` | u.x.l 0.< 8XY.0.Z.yXy.4.+ iXy.l.B.@Xu.X.< 2XT.*.m A h h h h k D 9 3.l 0.< 8XY.0.Z.yXy.4.+ iXy.l.B.@Xu.X.& 9XQ.(.&Xg.z.h.",
"9 lX-.6X6XbX6.7X< 0XT.0.Z.yXI.j.1 &XI.H.0.I./.9.< 2XP.N./ A F F F F F S A.bX6.5X< 0XT.0.Z.yXI.j.1 &XI.H.0.I./.9.& 2XR.Q.3Xg.z.s.",
". n N H N N L f < 8XY.e.V.,XP.j.r ].W.G.9.p.^.1.1 8X+.m.7Xb D F F F j S N N L f < 8XY.e.V.,XP.j.r ].W.G.9.p.^.1.# 9Xp.M.iXg.z.s.",
"  t N u f f N 2 O 2XP.Z.m.T.I.4.. aXt.B V.t.z 4.1 0X+.m.nXt k d d h f n f f N , O 2XP.Z.m.T.I.4.. aXt.B V.t.z 4.# 0XL.M.sXg.D.s.",
"; 6.' ) v.G.;.k.< 8XY.;XV.y.I.4.r ].i.&.1.x.' *.O 0XP.m.nX9 F D D D m L l.F.4.j.< 8XY.;XV.y.I.4.r ].i.&.1.x.' *.@ aXL.m.iXi.D.s.",
"$ q.i 3.H.u.x &.6 9XY.qXV.g.t.j.* f : w % w w @ - 3Xg.F.x.N k F G F f ~ F.t.l *.6 9XY.qXV.g.t.j.* f : w % w w @ < :X(.C.r.(.6.p.",
"$ qXf.n.H.u. .G.1 -XP.NXk.y.E.4.r .XU b L Q v H - @XI.G.p.0.6 d h s n n.G.Q.} F.1 -XP.NXk.y.E.4.r .XU b L Q v H > ;Xi.(.K.t..XK.",
"  qX@X3.C.y.B.l.> 3XP.tXZ.y.E.q.O 0X{ z ] >.B  .5 eX@Xj.Q.] 9 d d d N *.V.y.g.j.> 3XP.tXZ.y.E.q.O 0X{ z ] >.B  .> qXE.x.~.0.G.K.",
"% <Xd.9./.K.B.>.O NX%.;X;Xy.y.j.> 3XE.V.X./.^.s.. rXg.V V.*.n m D m S 7.V.o.I.q.O NX%.;X;Xy.y.j.> 3XE.V.X./.^.s.O 2X XC r.j.U } ",
"@ qXT.:XR.| h.w.> 0X%.+XJ.y.I.q.< [.Q.5Xs.R.^.X.r 2Xn.! F.S m k k k N 7.Z.K.I.q.> 0X%.+XJ.y.I.q.< [.Q.5Xs.R.^. .t .X|.Q V.F.^ b.",
"  qXT.aXc.K.&Xx.6 [.Y.Q.k.p.+X4.5 8XQ.;X2Xc.D.a.* x a w n b A G G G A F.m.Y.#Xk.6 [.Y.Q.k.p.+X4.5 8XQ.;X2Xc.D.a.  H p f a 7 t u ",
". qXY.aXQ.~.aXz.5 :XI.1.j.M.0.6.% 2Xc.k.iXp.D.a.e { x t M S n k D m S XXV.W.eXn.5 :XI.1.j.M.0.6.% 2Xc.k.iXc.D.a.- 3.M b z M t x ",
"$ ;Xd.aXc.} +X>.o MXs.x G.i.l 6.6 ;XQ.M.sXE./. .- aX] 7 Q ! f D D m m .XC.o.+X1.o MXs.x G.i.l 6.6 ;XQ.M.sXE./. .1 9X*.2 U A.7 1.",
"o 8XU.<Xb.g.y.k.8 ..[.F.|.'..X'.O wXP.e.NXI.y.;.1 8Xd.{ ^ M % h k g 6 5.k.I.y.k.8 ..[.F.|.'..X'.O wXP.e.NXI.y.;.- 3Xy.>.a.O.c.m.",
"@ 2XU.;X Xg.y.k.* a u w , 2 p ; + 8Xd.m.nXI.I.j.< 8Xh.P A f % s d 9 1 N :.t.y.j.* a u w , 2 p ; + 8Xd.m.nXI.I.j.$ 3XI.v.[.g.c.i.",
"% 8XP.M.8Xg.y.w.R }.C v W U M W < 8XP.m.;Xr.I.q.< 1X*.m D s % 9 6 9 < k 9 9.y.j.R }.C v W U M W < 8XP.m.;Xr.I.q.- 3XU.H.2XE.R.e.",
"@ wXK.i.8X>Xg.q.  uX` V ] 9.C <.< 8XP.m.C.L.#X4.1 F.9 F j 5 % 1 8 1 % j n <.M.q.  uX` V ] 9.C <.< 8XP.m.C.L.#X4.- 3XL.H.2XE.R.i.",
"  MX+.i. XtXI.q.< *XoXJ.a.@X!.X.O 8XP.m.V.>XyXn.< P A m b T 9 1 m j 5 9 h m ~ 3.< *XoXJ.a.@X!.X.O 8XP.m.V.>XyXn.- 2XL.H.2XE.c.i.",
"  MXK.x.V.qXW.q.4 +Xy.).;XW.R.0.O wXP.m.x.>XyXj.8 m m f W B.4.t j D n ~ 9 j m P y N.y.).;XW.R.0.O wXP.m.x.>XyXj.$ 2XI./.3XE.c.e.",
"o wXP.M.b.W.I.q.4 0Xy.D.NXW.u.k.< wXd.m.k.I.W.<.t k 9 b .XI.g.P 9 m m j.~ 8 9 n 6 M -.D.NXW.u.k.< wXd.m.k.I.W.1.- 2XI.H.2XP.c.x.",
"% :XU.M.V.O.I.w.$ uXoXm.*X%.g. .+ 0XO.B.k.*.~ L j f N 3.;Xy.p.~ 9 F A 7.C.*.I n 9 n ~ V.*X%.g. .+ 0XO.B.x.y.g.j.- 2XK.v.[.t.u.M.",
"o 9Xc.q.&X<X). .1 8XP.i.Z.r.I.q.< 2XP.M.L n j j 8 S e.e.V.r.E.=.5 k N T ;X<XJ.T r F.e.i.Z.r.I.q.< 2XP.M.x.L.o.j.& 8XP.i.q.I.y.w.",
"% -X!.Q.*Xp.^.X.< 8XP.m.V.r.I.j.1 8XY.M.P N N M 8 7XY.e.m.y.!.j.5 n m <.3Xu.E.q.< 8XP.m.V.r.I.j.1 8XY.M.V.W.y.j.% 9XT.i.q.I.I.H.",
"o -X>X<Xs.r.^. .< 8XY.x.x.y.g.j.1 8XY.m.;X4X+Xj.5 8XT.e.C.#X#Xn.8 M m *.N.u.c. .< 8XY.m.x.y.g.j.1 8XY.m.J.,XE.q.% 9XU.i.b.$X#XJ.",
"< 2X!.NX@.Q.^.X.< 8XP.i.x.W.I.j.< 8XP.m.J.eXW.4.< :XT.e.(.eXW.4., 5.n m <.!.W. .< 8XP.i.x.W.I.j.< 8XP.m.J.eXW.4.% 2XK.i.Z.3X@Xk.",
"< [.R.6X@.p.^.X.1 8Xd.i.V.,XW.j.< 8XP.i.J.eXW.1.1 :XT.e.Z.#XI.1., .XN m N w.E.9.1 8Xd.i.V.,XW.j.< 8XP.i.J.eXW.1.& 2XP.i.V.#XI.w.",
"  2X;Xq.@.u.). .1 8Xd.i.V.yXW.j.< 0XY.m.J.eXW.4.< 8XW.m.x.y.y.j.o 7X3.5 % ;./.1.1 8Xd.i.V.yXW.j.< 0XY.m.J.eXW.4.& 8XT.M.q.d.y.C.",
"o MXC.4.h.Q.D. .< 8XY.m.V.dXI.q.< 8XY.m.V.>XI.q.< 9XY.Z.J.o.I.j.@ mXM.X.N.^.w.4.< 8XY.m.V.dXI.q.< 8XY.m.V.>XI.q.& 2XT.Q.V.d.O.C.",
"- |.i l.h.>.p  .< 8XT.m.x.yXI.4.< 8XP.m.m.W.y.q.< 8X+.;XqXI.I.;.1 .Xi a.N.>.i 3.< 8XT.m.x.yXI.4.< 8XP.m.m.W.y.q.5 -XK.;X5X+Xy.k."
};
