/* XPM */
static char *_cbda7f6fe684726ecc3a6be816678ff1m6wPEVVt07i3jRj[] = {
/* columns rows colors chars-per-pixel */
"64 64 249 2 ",
"   c #0A0300",
".  c #0C0A04",
"X  c #160603",
"o  c #130B02",
"O  c #1C0D04",
"+  c #1D0D0A",
"@  c #161104",
"#  c #1C1404",
"$  c #15110E",
"%  c #1C130A",
"&  c #1C190C",
"*  c #030813",
"=  c #0B1619",
"-  c #191615",
";  c #260803",
":  c #370C0C",
">  c #271705",
",  c #22140C",
"<  c #24190E",
"1  c #391509",
"2  c #250B11",
"3  c #261717",
"4  c #241A12",
"5  c #2B1C13",
"6  c #30161C",
"7  c #381918",
"8  c #2A221A",
"9  c #382618",
"0  c #0D1921",
"q  c #161F26",
"w  c #2E1723",
"e  c #192123",
"r  c #2B2326",
"t  c #392A26",
"y  c #3B322F",
"u  c #521806",
"i  c #491816",
"p  c #51270E",
"a  c #432B16",
"s  c #492E17",
"d  c #452B1A",
"f  c #492E19",
"g  c #4C3117",
"h  c #4C321A",
"j  c #54371D",
"k  c #712B0A",
"l  c #672A1C",
"z  c #693517",
"x  c #733116",
"c  c #511F2D",
"v  c #442A24",
"b  c #483528",
"n  c #563B26",
"m  c #51332F",
"M  c #593A2A",
"N  c #6D2C2A",
"B  c #663727",
"V  c #773B28",
"C  c #79441D",
"Z  c #5C4128",
"A  c #5A4335",
"S  c #634223",
"D  c #694625",
"F  c #6C4926",
"G  c #6B482B",
"H  c #704C27",
"J  c #734E29",
"K  c #674739",
"L  c #694A3B",
"P  c #704F3D",
"I  c #7A4939",
"U  c #725133",
"Y  c #775338",
"T  c #2E2A43",
"R  c #5F4342",
"E  c #674A45",
"W  c #734E48",
"Q  c #795845",
"!  c #7B5B56",
"~  c #7E6253",
"^  c #7C6D6E",
"/  c #853C32",
"(  c #96531B",
")  c #8E4F2C",
"_  c #894538",
"`  c #885635",
"'  c #985E37",
"]  c #955838",
"[  c #AA5D38",
"{  c #B75E38",
"}  c #986239",
"|  c #996E38",
" . c #A56A3D",
".. c #B5643D",
"X. c #B8683C",
"o. c #BC6D3D",
"O. c #A97538",
"+. c #B5763B",
"@. c #C6693E",
"#. c #C1723D",
"$. c #924C46",
"%. c #895A46",
"&. c #895849",
"*. c #995E46",
"=. c #965B48",
"-. c #855B53",
";. c #A65D48",
":. c #B15E4E",
">. c #896347",
",. c #9B6246",
"<. c #9F6B40",
"1. c #95654A",
"2. c #9D644B",
"3. c #8E6A56",
"4. c #996756",
"5. c #996A54",
"6. c #957352",
"7. c #A96643",
"8. c #A26A44",
"9. c #A2654D",
"0. c #AA654E",
"q. c #A36A4D",
"w. c #AD6B4C",
"e. c #B96541",
"r. c #B66846",
"t. c #BC6C44",
"y. c #B6644B",
"u. c #B26D4D",
"i. c #BC6C4B",
"p. c #A97447",
"a. c #B27245",
"s. c #BD7143",
"d. c #B3724C",
"f. c #BE724B",
"g. c #B97A4A",
"h. c #A56B52",
"j. c #AC6C53",
"k. c #AA6858",
"l. c #B86757",
"z. c #B26D53",
"x. c #BC6C52",
"c. c #B36D5A",
"v. c #AB7255",
"b. c #AB755A",
"n. c #B47253",
"m. c #BA7454",
"M. c #B37B57",
"N. c #BB7B55",
"B. c #B5745A",
"V. c #B9755C",
"C. c #BB7A5C",
"Z. c #94766C",
"A. c #937D76",
"S. c #B86961",
"D. c #A97868",
"F. c #B57767",
"G. c #BB7363",
"H. c #BD7C62",
"J. c #C26D44",
"K. c #C26D49",
"L. c #C27345",
"P. c #C4744B",
"I. c #C9764B",
"U. c #C5794A",
"Y. c #CA7B4C",
"T. c #C26D58",
"R. c #C67A52",
"E. c #CB7B54",
"W. c #C67658",
"Q. c #CC7D5A",
"!. c #D17953",
"~. c #C26A64",
"^. c #C77765",
"/. c #C47D63",
"(. c #C77A71",
"). c #B7813D",
"_. c #B88748",
"`. c #AA835A",
"'. c #B78659",
"]. c #BB865D",
"[. c #9A867D",
"{. c #AE8B6F",
"}. c #B38765",
"|. c #B98667",
" X c #B78971",
".X c #BA8B76",
"XX c #C68449",
"oX c #CC964D",
"OX c #C9825A",
"+X c #D28454",
"@X c #D3845C",
"#X c #D68A5B",
"$X c #CA9854",
"%X c #C8935A",
"&X c #D39B5E",
"*X c #E2925D",
"=X c #C18B65",
"-X c #C88668",
";X c #C58D6A",
":X c #D88660",
">X c #DC8B64",
",X c #D48B6A",
"<X c #C6926F",
"1X c #CA936C",
"2X c #D49768",
"3X c #DC916D",
"4X c #C88B73",
"5X c #D38D75",
"6X c #C79577",
"7X c #CD9572",
"8X c #CD9974",
"9X c #D19A75",
"0X c #D89678",
"qX c #D49C7A",
"wX c #E5936C",
"eX c #E49A6B",
"rX c #E79874",
"tX c #ED9C75",
"yX c #CEA466",
"uX c #D9A46A",
"iX c #DBA775",
"pX c #D9A478",
"aX c #E6A774",
"sX c #F3A47A",
"dX c #8F7F81",
"fX c #8E8080",
"gX c #9C8A88",
"hX c #9D9295",
"jX c #A7948B",
"kX c #B69586",
"lX c #A89B95",
"zX c #ACA1A0",
"xX c #AAA2A5",
"cX c #B4ABAC",
"vX c #B7AFB0",
"bX c #BAB7B9",
"nX c #CC9583",
"mX c #D89C82",
"MX c #CFA88E",
"NX c #D9A888",
"BX c #E5A485",
"VX c #EFB188",
"CX c #C5BAB7",
"ZX c #CBC1BE",
"AX c #C3BFC1",
"SX c #C8C4C5",
"DX c #CCC5C4",
"FX c #D6D4D5",
"GX c #E3E3E4",
/* pixels */
"% 7XL.w.-X>X@X*., 8XL.w.V.t.P.2., ;XY.n.V.t.e.h., 8XU.w.n.t.f.*.> 6Xm.a.-X,X-X} , 8XL.w.V.t.P.2., ;XY.n.V.t.e.h.& 7XL.u.q.P.t.0.",
"o |.+XC.-Xt.R.9., 9XU.u.n.t.P.9.< 1XY.n.H.R.f.h.+ 9XY.w.z.P.E.j.> 4XQ.XX-Xx.W.8., 9XU.u.n.t.P.9.< 1XY.n.H.W.f.h.% 8XY.u.q.P.P.G.",
"% =XXX0X-XX.t.j., 9XU.u.j.t.P.h.< 7XY.n.H.:XE.9.+ 9XY.w.V.!.@Xb.> -XQ.2XOXy.x.p., 9XU.u.j.t.P.h.< 7XY.n.H.:XR.9.% 8XI.u.v.#X@XH.",
", 1XL.0Xn.E.t.9., 7XL.u.z.E.P.h., 7XU.u.H.wXE.2., 7XL.w.-X>X@X,.> 7XP.2Xd.W.i.8., 7XL.u.z.E.P.h., 7XU.u.H.wXE.2.% 1XJ.u.C.2X+Xj.",
"o 8XU.OXw.E.P.*.< 7Xs.u.B.>XR.h., 8XL.n.C.rXE.2., 7XL.w.H.E.E.*.lXqXW.OX7.W.R.} < 7Xs.u.B.>XR.h., 8XL.n.C.rXE.2.& 1XL.u.B.@XP.0.",
"o 8X+Xw.B.t.R.9.< 1Xs.n.B.tXR.h., 9XL.n.V.wXE.2., 9XY.n.n.e.P.kXDXmX@X7.M.y.W.8.< 1Xt.z.B.tXR.h., 9XL.n.V.wXE.2.& 8XY.m.q.s.t.V.",
"$ 6X .j.H.r.[ h.< 1XL.n.B.tXP.h., 9XL.V.n.>XP.h., 7XY.C.H.t.t.CXSXnX7.7.].y.;.q.< 1XL.n.B.tXP.h., 9XL.N.n.>XP.h.& ;XY.W.B.s.X.V.",
"-  Xk B.b.m.x 4., 7XU.m.n.tXt.9., 8Xt.m.w.@Xt.9.< ;XL.-X0XE.t.h.AXDXCX Xb.V.x 1., 7XU.m.n.tXt.9., 8Xt.m.w.@Xt.9.4 =XJ.-X4XOXt.j.",
"O 6.|.|.'.|.`.'.% qXL.w.n.tXI.9.4 #Xt.F.W.e.-X7.w '.U.H.1XL.^.2.5 .XZXDX`.|.`.'.% qXs.w.n.tXI.9.4 #Xt.F.W.e.-X..w OXU.|.#XI.j.n.",
"* = < > 4 @ 4   % 1XU.u.B.:XP.,.% #XP.I ;.i._ ] 2 %XL.H.aXY.T.2.* r SXbX4 . <   % 1XU.u.B.:XI.,.% #XR.I ;.i._ ] - >XL.|.eX!.j.n.",
"2 W _ / _ $.:._ , =X+XN.C.P.P.,.& aXm.M H./.l b.+ uX#.V.BXDX-Xq.6 DXCX_ _ $.9._ , =X+XN.C.P.P.,.& aXm.M H./.l b.$ eXo.F.tX!.z.m.",
"; %.u ;./.k.x 9., =X+X,XC.t.P.9.= C z R N B K j , uXo.B.DXDX/.8.jXDXl [ -Xb.x 9., =X+X,XC.t.P.9.= C z R N B K m - eXo.b.@X@.n.d.",
"- [.B 2.D.4.B 4., 1XXXrXB.t.J.h.= z p t 1 i v < , %XL.G.DXn.^.} SXcXB 2.D.4.B 4., 1XXXrXB.t.J.h.0 z p t 1 i v < $ #XL.b.K.X.V.u.",
"; mXwXK.y.T.5Xy., 8XL.0XV.t.t.h.0 qX%.2 -.4.7 -., %X+XB.DXDXnXq.hXMXwXJ.e.x.,Xy., 8XL.0XV.t.t.h.0 qX%.2 -.4.7 -.$ #XE.D.f.P.B.n.",
"> `.g.o.Y. .U.( % 9Xo.,X-Xt.J.9.- 2Xn.K *.m.$.9.- 1XQ.$.}.DXDXh.1 `.g.o.Y. .U.( % 9Xo.,X-Xt.J.9.- 2Xn.K *.x.$.9.- 2XQ.%.m.E.] n.",
"X MXG.y.V.k.c.c., 9Xs.OX5Xt.P.9., *XI.4XW.{ Q...- yXu.N j.u.CX5.> MXH.y.V.c.V.n., 9Xs.OX5Xt.P.9., *XI.4XW.{ Q...$ 0Xu.m 0.i.z w.",
"O 7XL.BXz.t.@X=.$ sXr.h.P.I.z.;., 7XU.-X-X..t.,.3 p.,.! -.1.&.>.% 1Xo.VX0.P.@X=.. sXr.h.P.I.l.;., 7XU.-X-X..t.,.5 6.4.-.>.6.! 1.",
"X 9XY.-Xw.P.tXh.8 XXs.4Xt.J.-Xw., 1XL.OX5XP.E.h.$ p : 7 + i K v b  XY.,Xw.P.sX9.8 U.s.4Xt.J.-Xw.< 1XL.OX5XP.E.h.+ 1 1 i ; ; : ; ",
"O 1XL.aXC.P.@Xj.. eXs.V 7.[ V ] 5 1Xs.n.BXP.L.9.r MXQ ! gXcXvXcXxXzXjXjX{.r.>Xh.. eXs.V 7.[ V ] 5 1Xs.n.BXP.L.9.r kXI : %.! c %.",
"% 7XX.BXC.t...9.- VX-XK mX5X%. X< 1XL.d.BXt.t.2.. .XjXkX}.'.}.`.`.`.`.{.lX{.r.2.- VX-XK mX5X%. X< 1XL.d.BXt.t.2.X .X2.l ] 4.W 2.",
"o 9XL.C.n.P.P.9.0 k I W I I E M O 1XU.n.BXJ.P.h.m lX{._.$XoXXX).+.O.O.O.p.jXD.9.0 k I W I I E M O 1XU.n.BXt.P.h.i |.-X^.f.n.G.N.",
"O =X+X7.5Xt.P.9.q C p 3 1 u 1 1 O 7XU.d.0Xt.P.9.m 6.O.$XiXuX&X$XXX).O.+.O.<.Z.Z.y C p 3 1 u 1 1 O 7XU.d.0Xt.P.9.: 1Xf.y.#XQ.:.s.",
"% =XU.m.BXP...9.- aX) 7 I *.B =., 9XL.w.H.t.E.2.m A.| O.$XyX$XXXXXXX+.O.| 3.gXvX^ pX) 7 I *.B =., 9XL.w.C.t.E.,.; 8Xm.y.#X,X^.X.",
"X pXo.d.H.wXt.h.< +Xr.4.9.W.2.;., 9Xo.h.h.B.-XW b xXlXZ.6.O.O.| O.+.<.6.A.hXA.fX^ 5.q.3.5.m.2.;., 9Xo.w.n.E.>Xv.2 6Xd.W.eXW.9.g.",
"o 8XL.n.B.sXE.;.O pXt.n.-X:Xt.h.O <XC.! y b b n L A.SXFXDXlXjX[.[.gXgXhXhXdXQ ! ~ b b b A D.d.h.O 1XY.n.B.wXsXh.@ 7XY.m.mXf.t.V.",
"@ 7XI.m.v.:XP.0., 9XL.n.0XE.t.h.8 3.M Z S S S F J Q vXGXGXFXSXbXbXbXxXxXhXZ.Q Q U D S S S M M 1.8 7XY.w.w.E.>X,.% 7XI.n.qXf.t.c.",
"% 1XI.z.j.s.t.j.< ;XU.n.mXK.t.h.y Z F J J J J J J Y A.vXSXDXAXbXAXbXxXhXA.! Y J J J J J J J D A r ;XU.w.9.t.E.*.& 7XL.u.4Xf.f.c.",
"% 1XI.u.B.t.P.0.< 1XL.n.4Xt.t.5.r f H J J J J J J J U Q A.cXcXxXzXxXgX~ U J J J J J J J J J H 9 8 8X#X-X-X@X>XF.& 7XL.u.H.t.i.c.",
"o 7XI.u.H.R.E.9.% 9XL.z.B.P.t.2.y 9 h Z F D D F J J J J Y Q Q Q Q Q Q J J J J J J F F F D j h t r 9X#X-X5X@X:XH.% 8XL.u.v.e.i.z.",
". 8XL.C.-XOXQ.;.O qXs.u.9.P.P.2.t b a s g h f j S S S S S S S S S S S S S S S S S j g h g s 9 A 8 1XL.d.B.t.t.2.% 8XL.z.j.s.P.c.",
". qXL.,X|.P.P.9.% 7XU.n.j.t.P.9.8 ~ 5 9 s s f s s s s s s s s s s s s s s s s s s s h f s 5 9 %.5 9XL.u.H.P.P.2.& 8XL.m.v.R.Q.c.",
"o pXL.0XH.r...h.< =XY.n.H...P.h.O <Xh.L 8 9 9 9 a a a a a a a a a a a a a a a a 9 9 9 8 t Q v.h.O 7XL.n.4X@XE.q.& 7Xo.m.B.,X:Xc.",
"; nXx.rXW.T.;.y., 1Xo.m.n.E.@X9.3 1XR.k.1.;X=.P 4 b b 5 % , , , , , , , @ 9 v v 4 3.,.5.5.R.@X9.3 1XR.c.p.sXy. .& 1XW.z.O.,X^.a.",
"  .XN.s.r.d.].8.< 9XL.n.C.>X@X9.+ %Xf.k.d.sXR.<., }.7.%.t 9 a a a 9 9 9 b 1.b.' 4 8XL.n.C.>X@X9.+ %Xf.k.d.sXR. .@ ;XW.z.O.W.l.a.",
"# MX'.X.f.N.p.7., 7XU.w.C.wXP.,.7 %XI.(.7.wX,X} < 1XU.h.A s s s s s s d Q M.p.8., 7XU.w.C.wXP.,.7 %XI.(.7.wX,X} @ 1XW.C.g.f.l.a.",
"X 6X) { y.z.k 7., 7XU.8.C.tXt.2.+ uXt.k.N.+Xy. ., 1XY.%.n Z g g g g j S 9 1.k 7., 7XU.8.C.tXt.2.+ uXt.k.N.+Xy. .& 8XW./.%Xf.l.g.",
"9 kX=.5XnXnX4.6X, 9XY.8.C.tXP.h.< %XP.G.7.P.^.8., 1XL.M.~ Z D D D D D A Z.nX4.4X, 9XY.8.C.tXP.h.< %XP.G.7.P.^.8.& 1XT.W.2Xf.l.a.",
". b M G M M K d , 7XU.w.B.>XL.h.r '.E.F.8.i.~.,.< 7Xo.n.6Xv S D D D h A M M K d , 7XU.w.B.>XL.h.r '.E.F.8.i.~.,.# 8Xi.m.uXf.l.a.",
"  t M u d d M 1 O 1XL.C.n.Y.P.2.. pXr.N B.r.l 2.< 9Xo.n.mXt j s s g d b d d M > O 1XL.C.n.Y.P.2.. pXr.N B.r.l 2.# 9XK.m.aXf.S.a.",
"; 4._ / c.F.*.j., 7XU.-XB.t.P.2.r '.u.$.,.z._ %.O 9XL.n.mX9 D S S S n K k.D.2.h., 7XU.-XB.t.P.2.r '.u.$.,.z._ %.@ pXK.n.uXu.S.a.",
"$ 9.u 1.G.y.z $.5 8XU.0XB.f.r.h.* d : w % w w @ - 2Xf.D.z.M j D F D d Q D.r.k %.5 8XU.0XB.f.r.h.* d : w % w w @ , ;X/.V.e./.4.i.",
"$ 0Xd.b.G.y.} F.< =XL.BXj.t.R.2.r  XI v K W c G - +XP.F.i.7.5 s g a b b.F.W.[ D.< =XL.BXj.t.R.2.r  XI v K W c G > -Xu./.J.r. XJ.",
"  0X+X1.V.t.N.k.> 2XL.rXC.t.R.9.O 9X] l ` ;.N } 4 wX+Xh.W.` 9 s s s M %.B.t.f.h.> 2XL.rXC.t.R.9.O 9X] l ` ;.N } > 0XR.z.!.7.F.J.",
"% ,Xs.8.^.J.N.;.O BX#.-X-Xt.t.h.> 2XR.B. .^.~.a.. eXf.B B.%.b n S n A 5.B...P.9.O BX#.-X-Xt.t.h.> 2XR.B. .^.~.a.O 1X|.V e.h.I [ ",
"@ 0XY.;XT.{ g.0.> 9X#.OXH.t.P.9., ].W.4Xa.T.~. .r 1Xb.W D.A n j j j M 5.C.J.P.9.> 9X#.OXH.t.P.9., ].W.4Xa.T.~.} t  X{.W B.D.! v.",
"  0XY.pXx.J.%Xz.5 ].U.W.j.i.OX2.4 7XW.-X1Xx.S.p.* z p w b v Z F F F Z D.n.U.@Xj.5 ].U.W.j.i.OX2.4 7XW.-X1Xx.S.p.  G i d p 7 t p ",
". 0XU.pXW.!.pXl.4 ;XP.,.h.m.7.4.% 1Xx.j.uXi.S.p.e ] z t m A b j S n A .XB.E.wXb.4 ;XP.,.h.m.7.4.% 1Xx.j.uXx.S.p.- 1.m v l m t z ",
"$ -Xs.pXx.[ OX;.o NXa.z F.u.k 4.5 -XW.m.aXR.^.} - pX` 7 W W d S S n n  XV...OX,.o NXa.z F.u.k 4.5 -XW.m.aXR.^.} < 8X%.1 I Z.7 ,.",
"o 7XI.,Xv.f.t.j.8 | ].D.{.`. X`.O qXL.w.BXP.t.*.< 7Xs.] ! m % g j f 5 3.j.P.t.j.8 | ].D.{.`. X`.O qXL.w.BXP.t.*.- 2Xt.;.p.X.x.n.",
"@ 1XI.-X|.f.t.j.* p u w > 1 i ; + 7Xs.n.mXP.P.h., 7Xg.L Z d % a s 9 < M -.r.t.h.* p u w > 1 i ; + 7Xs.n.mXP.P.h.$ 2XP.c.].f.x.u.",
"% 7XL.m.7Xf.t.0.T {.V c E I m E , 7XL.n.-Xe.P.9., <X%.n S a % 9 5 9 , j 9 8.t.h.T {.V c E I m E , 7XL.n.-Xe.P.9.- 2XI.G.1XR.T.w.",
"@ qXJ.u.7X:Xf.9.  yX) B ` 8.V >., 7XL.n.V.K.@X2.< D.9 D h 4 % < 8 < % h b >.m.9.  yX) B ` 8.V >., 7XL.n.V.K.@X2.- 2XK.G.1XR.T.u.",
"  NXo.u.|.rXP.9., &XXXH.p.+XQ. .O 7XL.n.B.:XtXb., L Z n v Y 9 < n h 4 9 g n Q 1., &XXXH.p.+XQ. .O 7XL.n.B.:XtXb.- 1XK.G.1XR.x.u.",
"  NXJ.z.B.0XE.9.3 OXt.(.-XW.T.8.O qXL.n.z.:XtXh.8 n n d E N.2.t h S b Q 9 h n L y M.t.(.-XW.T.8.O qXL.n.z.:XtXh.$ 1XP.^.2XR.x.w.",
"o qXL.m.v.E.P.9.3 9Xt.S.BXE.y.j., qXs.n.j.P.E.>.t j 9 v  XP.f.L 9 n n h.Q 8 9 b 5 m *.S.BXE.y.j., qXs.n.j.P.E.,.- 1XP.G.1XL.x.z.",
"% ;XI.m.B.X.P.0.$ yXXXn.&X#.f.} + 9XX.N.j.%.Q K h d M 1.-Xt.i.Q 9 D Z 5.V.%.P b 9 b Q B.&X#.f.} + 9XX.N.z.t.f.h.- 1XJ.c.].r.y.m.",
"o 8Xx.9.%X,X(.} < 7XL.u.C.e.P.9., 1XL.m.K b h h 8 A q.w.B.e.R.&.4 j M Y -X,XH.Y r D.w.u.C.e.P.9., 1XL.m.z.K...h.& 7XL.u.q.P.t.0.",
"% =XQ.W.&Xi.~. ., 7XL.n.B.e.P.h.< 7XU.m.L M M m 8 6XU.w.n.t.Q.h.4 b n >.2Xy.P.q., 7XL.n.B.e.P.h.< 7XU.m.B.E.t.h.% 8XY.u.q.P.P.G.",
"o =X:X,Xa.e.~.} , 7XU.z.z.t.f.h.< 7XU.n.-X3XOXh.4 7XY.w.V.@X@Xb.8 m n %.M.y.x.} , 7XU.n.z.t.f.h.< 7XU.n.H.>XR.9.% 8XI.u.v.#X@XH.",
", 1XQ.BXO.W.~. ., 7XL.u.z.E.P.h., 7XL.n.H.wXE.2., ;XY.w./.wXE.2.> 3.b n >.Q.W.} , 7XL.u.z.E.P.h., 7XL.n.H.wXE.2.% 1XJ.u.C.2X+Xj.",
", ].T.5XO.i.~. .< 7Xs.u.B.>XE.h., 7XL.u.H.wXE.,.< ;XY.w.C.@XP.,.>  XA n M 0.R.8.< 7Xs.u.B.>XE.h., 7XL.u.H.wXE.,.& 1XL.u.B.@XP.0.",
"  1X-X9.O.y.(.} < 7Xs.u.B.tXE.h., 9XU.n.H.wXE.2., 7XE.n.z.t.t.h.o 6X1.4 % *.^.,.< 7Xs.u.B.tXE.h., 9XU.n.H.wXE.2.& 7XY.m.q.s.t.V.",
"o NXV.2.g.W.S.} , 7XU.n.B.sXP.9., 7XU.n.B.:XP.9., 8XU.C.H...P.h.@ MXm. .M.~.0.2., 7XU.n.B.sXP.9., 7XU.n.B.:XP.9.& 1XY.W.B.s.X.V.",
"- {.u k.g.;.i } , 7XY.n.z.tXP.2., 7XL.n.n.E.t.9., 7Xo.-X0XP.P.*.<  Xu p.M.;.u 1., 7XY.n.z.tXP.2., 7XL.n.n.E.t.9.4 =XJ.-X4XOXt.j."
};
