/* XPM */
static char *_4142941a9d34d278857f2871e0f3ef1Mz0ObYJ2tzl1McH7[] = {
/* columns rows colors chars-per-pixel */
"64 64 250 2 ",
"   c #0A0300",
".  c #0C0A04",
"X  c #160603",
"o  c #130B02",
"O  c #1C0D04",
"+  c #1D0D0A",
"@  c #161104",
"#  c #1C1404",
"$  c #15110E",
"%  c #1C130A",
"&  c #1C190C",
"*  c #030813",
"=  c #0B1619",
"-  c #191615",
";  c #260803",
":  c #370C0C",
">  c #271705",
",  c #22140C",
"<  c #24190E",
"1  c #391509",
"2  c #250B11",
"3  c #261717",
"4  c #241A12",
"5  c #2B1C14",
"6  c #381918",
"7  c #2A221A",
"8  c #382618",
"9  c #0D1921",
"0  c #161F26",
"q  c #2E1723",
"w  c #192123",
"e  c #2B2326",
"r  c #392A26",
"t  c #373130",
"y  c #521806",
"u  c #491816",
"i  c #51270E",
"p  c #432B16",
"a  c #492E17",
"s  c #452B1A",
"d  c #492E19",
"f  c #4C3117",
"g  c #4C321A",
"h  c #54371D",
"j  c #712B0A",
"k  c #672A1D",
"l  c #693517",
"z  c #733116",
"x  c #511F2D",
"c  c #442A24",
"v  c #483528",
"b  c #563B26",
"n  c #51332F",
"m  c #593A2A",
"M  c #6D2C2B",
"N  c #663727",
"B  c #6F3329",
"V  c #773B28",
"C  c #79441D",
"Z  c #5C4128",
"A  c #5A4335",
"S  c #634223",
"D  c #694625",
"F  c #6C4926",
"G  c #6B482B",
"H  c #704C27",
"J  c #734E29",
"K  c #674738",
"L  c #69493A",
"P  c #704F3D",
"I  c #7A4939",
"U  c #725133",
"Y  c #775338",
"T  c #2E2A43",
"R  c #513F43",
"E  c #5F4342",
"W  c #674A45",
"Q  c #734E48",
"!  c #795845",
"~  c #7B5B56",
"^  c #7E6253",
"/  c #7C6D6E",
"(  c #853C32",
")  c #96531B",
"_  c #8E4F2C",
"`  c #894538",
"'  c #885635",
"]  c #985E37",
"[  c #955838",
"{  c #AA5D38",
"}  c #B75E38",
"|  c #986239",
" . c #996E38",
".. c #A56A3D",
"X. c #B5643D",
"o. c #B8683C",
"O. c #BC6D3D",
"+. c #A97538",
"@. c #B5763B",
"#. c #C6693E",
"$. c #C1723D",
"%. c #895A46",
"&. c #89574F",
"*. c #885848",
"=. c #975C47",
"-. c #995E46",
";. c #A85D46",
":. c #A45C49",
">. c #B15E4E",
",. c #896347",
"<. c #9B6246",
"1. c #9F6B40",
"2. c #95654A",
"3. c #9D644B",
"4. c #8E6957",
"5. c #996756",
"6. c #996A54",
"7. c #957352",
"8. c #A76746",
"9. c #A26A44",
"0. c #A2654D",
"q. c #AA654E",
"w. c #AD6B4C",
"e. c #B96541",
"r. c #B66846",
"t. c #BC6C44",
"y. c #B6644B",
"u. c #B26D4D",
"i. c #BC6C4B",
"p. c #A97447",
"a. c #B27245",
"s. c #BD7143",
"d. c #B3724C",
"f. c #BE724B",
"g. c #B97A4A",
"h. c #A56B52",
"j. c #AC6C53",
"k. c #AA6858",
"l. c #B86757",
"z. c #B26D53",
"x. c #BC6C52",
"c. c #B36D5A",
"v. c #AB7255",
"b. c #AB755A",
"n. c #B47253",
"m. c #BA7454",
"M. c #B37B57",
"N. c #BB7B55",
"B. c #B5745A",
"V. c #B9755C",
"C. c #BB7A5C",
"Z. c #94766C",
"A. c #937D76",
"S. c #B86961",
"D. c #A97968",
"F. c #B57767",
"G. c #BB7363",
"H. c #BD7C62",
"J. c #C26D44",
"K. c #C26D49",
"L. c #C27345",
"P. c #C4744B",
"I. c #C9764B",
"U. c #C5794A",
"Y. c #CA7B4C",
"T. c #C26D57",
"R. c #C67A52",
"E. c #CB7B54",
"W. c #C67658",
"Q. c #CC7D5A",
"!. c #D17953",
"~. c #C26A64",
"^. c #C77765",
"/. c #C37D63",
"(. c #C77A71",
"). c #B7813D",
"_. c #B88748",
"`. c #AA835A",
"'. c #B78659",
"]. c #BB865D",
"[. c #9A867D",
"{. c #AE8B6F",
"}. c #B28766",
"|. c #B98667",
" X c #B78971",
".X c #BC8A74",
"XX c #C68449",
"oX c #CC964D",
"OX c #C9825A",
"+X c #D28454",
"@X c #D3845C",
"#X c #D68A5B",
"$X c #CA9854",
"%X c #C8935A",
"&X c #D39B5E",
"*X c #E2925D",
"=X c #C48265",
"-X c #C18B65",
";X c #C98769",
":X c #C58D6A",
">X c #D88660",
",X c #DC8B64",
"<X c #D48B6A",
"1X c #C6916D",
"2X c #CA936C",
"3X c #D49768",
"4X c #DC916D",
"5X c #C78B72",
"6X c #D38D75",
"7X c #C79577",
"8X c #CD9572",
"9X c #CD9974",
"0X c #D29275",
"qX c #D19A75",
"wX c #D49C7A",
"eX c #DB9879",
"rX c #E5936C",
"tX c #E49A6B",
"yX c #E79874",
"uX c #ED9C75",
"iX c #CEA466",
"pX c #D9A46A",
"aX c #DBA775",
"sX c #D9A478",
"dX c #E6A773",
"fX c #F3A47A",
"gX c #8F7F81",
"hX c #8E8080",
"jX c #9C8A88",
"kX c #9D9498",
"lX c #A9958B",
"zX c #AE988F",
"xX c #ADA0A1",
"cX c #AAA2A5",
"vX c #B4ABAC",
"bX c #B7AFB0",
"nX c #BBB8BA",
"mX c #CB9584",
"MX c #D89B83",
"NX c #CFA78D",
"BX c #D6A98B",
"VX c #E5A485",
"CX c #EFB188",
"ZX c #C9B6AF",
"AX c #C9C1BF",
"SX c #C2BFC2",
"DX c #C8C4C4",
"FX c #CECBCD",
"GX c #D4CFCE",
"HX c #E3E3E4",
/* pixels */
"% 8XL.w.=X,X@X-., 9XL.w.V.t.P.3., :XY.n.V.t.e.h., 9XU.w.n.t.f.-.> 7Xm.a.;X<X;X| , 9XL.w.V.t.P.3., :XY.n.V.t.e.h.& 8XL.u.0.P.t.q.",
"o |.+XC.;Xt.R.0., qXU.u.n.t.P.0.< 2XY.n.H.R.f.h.+ qXY.w.z.P.E.j.> 5XQ.XX;Xx.W.9., qXU.u.n.t.P.0.< 2XY.n.H.E.f.h.% 9XY.u.0.P.P.G.",
"% -XXXeX=Xo.t.j., qXU.u.j.t.P.h.< 8XY.n.H.>XE.0.+ qXY.w.V.!.@Xb.> =XQ.3XOXy.x.p., qXU.u.j.t.P.h.< 8XY.n.H.>XR.0.% 9XI.u.v.#X@XH.",
", 2XL.eXn.E.t.0., 8XL.u.z.E.P.h., 8XU.u.H.rXE.3., 8XL.w.=X,X@X<.< qXP.3Xd.W.i.9., 8XL.u.z.E.P.h., 8XU.u.H.rXE.3.% 2XJ.u.C.3X+Xj.",
"o 9XU.OXw.E.P.-.< 8Xs.u.B.,XR.h., 9XL.n.C.yXE.3., 8XL.w.H.@XL.D.vXNXFXOX8.Q.R.| < 8Xs.u.B.,XR.h., 9XL.n.C.yXE.3.& 2XL.u.B.@XP.q.",
"o 9X+Xw.B.t.R.0.< 2Xs.n.B.uXR.h., qXL.n.V.rXE.3., qXY.n.n.uXI.ZXDXFXmXF.M.y.W.9.< 2Xt.z.B.uXR.h., qXL.n.V.rXE.3.& 9XY.m.0.s.t.V.",
"$ 7X..j.H.r.{ h.< 2XL.n.B.uXP.h., qXL.V.n.,XP.h., 8XY.C.B.>XP.AXFXMXP.I ].y.:.0.< 2XL.n.B.uXP.h., qXL.N.n.,XP.h.& :XY.W.B.s.o.V.",
"-  Xj B.b.m.z 5., 8XU.m.n.uXt.0., 9Xt.m.w.@Xt.0.< :XL.=XC.P.P.vXFXFXZXK b.V.z 2., 8XU.m.n.uXt.0., 9Xt.m.w.@Xt.0.4 -XJ.;X5XOXt.j.",
"O 7.|.|.'.|.`.'.% wXL.w.n.uXI.0.4 #Xt.F.W.e.;X8.q '.U.=XC.t.P.h.kXDXFXDX`.|.`.'.% wXs.w.n.uXI.0.4 #Xt.F.W.e.;XX.q OXU.|.#XI.j.n.",
"* = < > 4 @ 4   % 2XU.u.B.>XP.<.% #XP.I ;.i.` [ 2 %XL.eXB.f.P.h.= %.FXDX< . <   % 2XU.u.B.>XI.<.% #XR.I ;.i.` [ - ,XL.|.tX!.j.n.",
"2 Q ` ( ` *.>.` , -X+XN.C.P.P.<.& dXm.m H./.k b.+ pX$.eX.XDXFXD.e FXFXR ` *.0.` , -X+XN.C.P.P.<.& dXm.m H./.k b.$ tXO.F.uX!.z.m.",
"; %.y ;./.k.z 0., -X+X<XC.t.P.0.= C l E M N K h , pXO.0XFXFXFXh.nXFX|.L =Xb.z 0., -X+X<XC.t.P.0.= C l E M N L n - tXO.b.@X#.n.d.",
"- [.N 3.D.5.N 5., 2XXXyXB.t.J.h.= l i r 1 u c < , %XL.7XFXZXR.h.FXDXI.3.D.5.N 5., 2XXXyXB.t.J.h.9 l i r 1 u c < $ #XL.b.K.o.V.u.",
"; MXrXK.y.T.6Xy., 9XL.eXV.t.t.h.9 wX%.2 &.5.6 &., %XU.D.FXZXB.;.vXNX@XJ.e.x.<Xy., 9XL.eXV.t.t.h.9 wX%.2 &.5.6 &.$ #XE.D.f.P.B.n.",
"> `.g.O.Y...U.) % qXO.<X=Xt.J.0.- 3Xn.L -.m.*.0.- 2XP.5XZXFXFXB., 1Xg.O.Y...U.) % qXO.<X=Xt.J.0.- 3Xn.L -.x.*.0.- 3XQ.%.m.E.[ n.",
"X NXG.y.V.k.c.c., qXs.OX0Xt.P.0., *XI.5XE.} Q.X.- iXu.B 8..XFXD.5 NXH.y.V.c.V.n., qXs.OX0Xt.P.0., *XI.5XE.} Q.X.$ eXu.n q.i.l w.",
"O 8XL.VXz.t.@X=.$ fXr.h.P.I.z.;., 8XU.;X=XX.t.<.3 p.<.~ 4.0XlX X% 2XO.CXq.P.@X=.. fXr.h.P.I.l.;., 8XU.;X=XX.t.<.5 7.5.&.,.7.~ 2.",
"X qXY.;Xw.P.uXh.7 XXs.5Xt.J.;Xw., 2XL.OX0XP.E.h.$ i : 6 + u K c v  XY.<Xw.P.fX0.7 U.s.5Xt.J.;Xw.< 2XL.OX0XP.E.h.+ 1 1 u ; ; : ; ",
"O 2XL.dXC.P.@Xj.. tXs.V 8.{ V [ 5 2Xs.n.VXP.L.0.e NX! ~ jXvXbXvXcXxXlXlX{.r.,Xh.. tXs.V 8.{ V [ 5 2Xs.n.VXP.L.0.e zXI : %.~ x %.",
"% 8Xo.VXC.t.X.0.- CX;XL MX0X%. X< 2XL.d.VXt.t.3.. .XlXlX}.'.}.`.`.`.`.{.zX{.r.3.- CX;XL MX0X%. X< 2XL.d.VXt.t.3.X .X3.k [ 5.Q 3.",
"o qXL.C.n.P.P.0.9 j I Q I I W m O 2XU.n.VXJ.P.h.n zX{._.$XoXXX).@.+.+.+.p.zXD.0.9 j I Q I I W m O 2XU.n.VXt.P.h.u |.=X^.f.n.G.N.",
"O -X+X8.0Xt.P.0.0 C i 3 1 y 1 1 O 8XU.d.eXt.P.0.n 7.+.$XaXpX&X$XXX).+.@.+.1.Z.Z.t C i 3 1 y 1 1 O 8XU.d.eXt.P.0.: 2Xf.y.#XQ.>.s.",
"% -XU.m.VXP.X.0.- dX_ 6 I -.N =., qXL.w.H.t.E.3.n A. .+.$XiX$XXXXXXX@.+. .4.jXbX/ sX_ 6 I -.N =., qXL.w.C.t.E.<.; 9Xm.y.#X<X^.o.",
"X sXO.d.H.rXt.h.< +Xr.5.0.W.3.;., qXO.h.h.B.=XQ v cXxXZ.7.+.+. .+.@.1.7.A.kXA.hX/ 6.8.4.6.m.3.;., qXO.w.n.E.,Xv.2 7Xd.W.tXW.0.g.",
"o 9XL.n.B.fXE.:.O sXt.n.;X>Xt.h.O 1XC.~ t v v b L A.DXGXDXzXlX[.[.jXjXkXkXgX! ~ ^ v v v A D.d.h.O 2XY.n.B.rXfXh.@ 8XY.m.MXf.t.V.",
"@ 8XI.m.v.>XP.q., qXL.n.eXE.t.h.7 4.m Z S S S F J ! bXHXHXGXDXnXnXnXcXkXkXZ.! ! U D S S S m m 2.7 8XY.w.w.E.,X<.% 8XI.n.wXf.t.c.",
"% 2XI.z.j.s.t.j.< :XU.n.MXK.t.h.t Z F J J J J J J Y A.bXDXFXSXnXSXnXcXkXA.~ Y U J J J J J J D A e :XU.w.0.t.E.-.& 8XL.u.5Xf.f.c.",
"% 2XI.u.B.t.P.q.< 2XL.n.5Xt.t.6.e d H J J J J J J J U ! A.vXvXcXxXcXjX^ U J J J J J J J J J H 8 7 9X#X;X;X@X,XF.& 8XL.u.H.t.i.c.",
"o 8XI.u.H.R.E.0.% qXL.z.B.P.t.3.t 8 g Z F D D F J J J J Y ! ! ! ! ! ! J J J J J J F F F D h g r e qX#X;X6X@X>XH.% 9XL.u.v.e.i.z.",
". 9XL.C.=XOXQ.:.O wXs.u.0.P.P.3.r v p a f g d h S S S S S S S S S S S S S S S S S h f g f a 8 A 7 2XL.d.B.t.t.3.% 9XL.z.j.s.P.c.",
". wXL.<X|.P.P.0.% 8XU.n.j.t.P.0.7 ^ 5 8 a a d a a a a a a a a a a a a a a a a a a a g d a 5 8 *.5 qXL.u.H.P.P.3.& 9XL.m.v.R.Q.c.",
"o sXL.eXH.r.X.h.< -XY.n.H.X.P.h.O 1Xh.L 7 8 8 8 p p p p p p p p p p p p p p p p 8 8 8 7 r ! v.h.O 8XL.n.5X@XE.0.& 8XO.m.B.<X>Xc.",
"; mXx.yXE.T.;.y., 2XO.m.n.E.@X0.3 2XR.k.2.:X=.P 4 v v 5 % , , , , , , , @ 8 c c 4 4.<.6.6.R.@X0.3 2XR.c.p.fXy...& 2XE.z.+.<X^.a.",
"  .XN.s.r.d.].9.< qXL.n.C.,X@X0.+ %Xf.k.d.fXR.1., }.8.%.r 8 p p p 8 8 8 v 2.b.] 4 9XL.n.C.,X@X0.+ %Xf.k.d.fXR...@ :XE.z.+.W.l.a.",
"# NX'.o.f.N.p.8., 8XU.w.C.rXP.<.6 %XI.(.8.rX<X| < 2XU.v.A a a a a a a s ! M.p.9., 8XU.w.C.rXP.<.6 %XI.(.8.rX<X| @ 2XW.C.g.f.l.a.",
"X 7X_ } y.z.j 8., 8XU.8.C.uXt.3.+ pXt.k.N.+Xy..., 2XY.*.b Z f f f f h S 8 2.j 8., 8XU.8.C.uXt.3.+ pXt.k.N.+Xy...& 9XW./.%Xf.l.g.",
"8 zX=.0XmXmX5.7X, qXY.8.C.uXP.h.< %XP.G.8.P.^.9., 2XL.M.^ Z D D D D D A Z.mX5.5X, qXY.8.C.uXP.h.< %XP.G.8.P.^.9.& 2XT.W.3Xf.l.a.",
". v m G m m K s , 8XU.w.B.,XL.h.e '.E.F.9.i.~.<.< 8XO.n.7Xc S D D D g A m m L s , 8XU.w.B.,XL.h.e '.E.F.9.i.~.<.# 9Xi.m.pXf.l.a.",
"  r m y s s m 1 O 2XL.C.n.Y.P.3.. sXr.M B.r.k 3.< qXO.n.MXr h a a f s v s s m > O 2XL.C.n.Y.P.3.. sXr.M B.r.k 3.# qXK.m.dXf.S.a.",
"; 5.` ( c.F.-.j., 8XU.;XB.t.P.3.e '.u.*.<.z.` %.O qXL.n.MX8 D S S S b K k.D.3.h., 8XU.;XB.t.P.3.e '.u.*.<.z.` %.@ sXK.n.pXu.S.a.",
"$ 0.y 2.G.y.l *.5 9XU.eXB.f.r.h.* s : q % q q @ - 3Xf.D.z.m h D F D s ! D.r.j %.5 9XU.eXB.f.r.h.* s : q % q q @ , :X/.V.e./.5.i.",
"$ eXd.b.G.y.| F.< -XL.VXj.t.R.3.e  XI c K Q x G - +XP.F.i.8.5 a f p v b.F.W.{ D.< -XL.VXj.t.R.3.e  XI c K Q x G > ;Xu./.J.r. XJ.",
"  eX+X2.V.t.N.k.> 3XL.yXC.t.R.0.O qX[ k ' :.M | 4 rX+Xh.W.' 8 a a a m %.B.t.f.h.> 3XL.yXC.t.R.0.O qX[ k ' :.M | > eXR.z.!.8.F.J.",
"% <Xs.9.^.J.N.:.O VX$.;X;Xt.t.h.> 3XR.B...^.~.a.. tXf.N B.%.v b S b A 6.B.X.P.0.O VX$.;X;Xt.t.h.> 3XR.B...^.~.a.O 2X|.V e.h.I { ",
"@ eXY.:XT.} g.q.> qX$.OXH.t.P.0., ].W.5Xa.T.~...e 2Xb.Q D.A b h h h m 6.C.J.P.0.> qX$.OXH.t.P.0., ].W.5Xa.T.~.| r  X}.Q B.D.~ v.",
"  eXY.sXx.J.%Xz.5 ].U.W.j.i.OX3.4 8XW.=X2Xx.S.p.* l i q v c Z F F F Z D.n.U.@Xj.5 ].U.W.j.i.OX3.4 8XW.=X2Xx.S.p.  G u s i 6 r i ",
". eXU.sXW.!.sXl.4 :XP.<.h.m.8.5.% 2Xx.j.pXi.S.p.w [ l r n A v h S b A .XB.E.rXb.4 :XP.<.h.m.8.5.% 2Xx.j.pXx.S.p.- 2.n c k n r l ",
"$ ;Xs.sXx.{ OX:.o BXa.l F.u.j 5.5 ;XW.m.dXR.^.| - sX' 6 Q Q s S S b b .XV.X.OX<.o BXa.l F.u.j 5.5 ;XW.m.dXR.^.| < 9X%.1 I Z.6 <.",
"o 8XI.<Xv.f.t.j.7  .].D.}.`. X`.O wXL.w.VXP.t.-.< 8Xs.[ ! n & g h d 5 4.j.P.t.j.7  .].D.}.`. X`.O wXL.w.VXP.t.-.- 3Xt.:.p.o.x.n.",
"@ 2XI.=X|.f.t.j.* i y q > 1 u ; + 8Xs.n.MXP.P.h., 8Xg.L Z s % p a 8 < m *.r.t.h.* i y q > 1 u ; + 8Xs.n.MXP.P.h.$ 3XP.c.].f.x.u.",
"% 8XL.m.8Xf.t.q.T {.V x W I n W , 8XL.n.;Xe.P.0., 7X%.b S p % 8 5 8 , h 8 9.t.h.T {.V x W I n W , 8XL.n.;Xe.P.0.- 3XI.G.2XR.T.w.",
"@ wXJ.u.8X>Xf.0.  iX_ N ' 9.V ,., 8XL.n.V.K.@X3.< D.8 D g 4 % < 7 < % g v ,.m.0.  iX_ N ' 9.V ,., 8XL.n.V.K.@X3.- 3XK.G.2XR.T.u.",
"  BXO.u.|.yXP.0., &XXXH.p.+XQ...O 8XL.n.B.>XuXb., L Z b c Y 8 < b g 4 8 f b ! 2., &XXXH.p.+XQ...O 8XL.n.B.>XuXb.- 2XK.G.2XR.x.u.",
"  BXJ.z.B.eXE.0.3 OXt.(.=XE.T.8.O wXL.n.z.>XuXh.7 b b s W N.3.r g S v ! 8 g b L t M.t.(.=XE.T.8.O wXL.n.z.>XuXh.$ 2XP.^.3XR.x.w.",
"o wXL.m.v.E.P.0.3 qXt.S.VXE.y.j., wXs.n.j.P.E.,.r b 8 c  XP.f.L 8 b b h.! 7 8 v 5 n =.S.VXE.y.j., wXs.n.j.P.E.<.- 2XP.G.2XL.x.z.",
"% :XI.m.B.o.P.q.$ iXXXn.&X$.f.| + qXo.N.j.%.! K g s m 2.=Xt.i.! 8 D Z 6.B.%.P v 8 v ! B.&X$.f.| + qXo.N.z.t.f.h.- 2XJ.c.].r.y.m.",
"o 9Xx.0.%X<X(.| < 8XL.u.C.e.P.0., 2XL.m.K v g g 7 A w.j.B.e.R.%.4 h m Y ;X<XH.Y e D.w.u.C.e.P.0., 2XL.m.z.K.X.h.& 8XL.u.0.P.t.q.",
"% -XQ.W.&Xi.~..., 8XL.n.B.e.P.h.< 8XU.m.L m m n 7 7XU.w.n.t.Q.h.4 v b ,.3Xy.R.0., 8XL.n.B.e.P.h.< 8XU.m.B.E.t.h.% 9XY.u.0.P.P.G.",
"o -X>X<Xa.e.~.| , 8XU.z.z.t.f.h.< 8XU.n.=X4XOXh.4 8XY.w.V.@X@Xb.7 n b %.M.y.x.| , 8XU.n.z.t.f.h.< 8XU.n.H.,XR.0.% 9XI.u.v.#X@XH.",
", 2XQ.VX+.W.~..., 8XL.u.z.E.P.h., 8XL.n.H.rXE.3., :XY.w./.rXE.3.5 4.v b ,.Q.E.| , 8XL.u.z.E.P.h., 8XL.n.H.rXE.3.% 2XJ.u.C.3X+Xj.",
", ].T.0X+.i.~...< 8Xs.u.B.,XE.h., 8XL.u.H.rXE.<.< :XY.w.C.@XP.<.>  Xm b m q.R.9.< 8Xs.u.B.,XE.h., 8XL.u.H.rXE.<.& 2XL.u.B.@XP.q.",
"  2X;X0.+.y.(.| < 8Xs.u.B.uXE.h., qXU.n.H.rXE.3., 8XE.n.z.t.t.h.o 7X2.4 % -.^.<.< 8Xs.u.B.uXE.h., qXU.n.H.rXE.3.& 8XY.m.0.s.t.V.",
"o BXV.3.g.W.S.| , 8XU.n.B.fXP.0., 8XU.n.B.>XP.0., 9XU.C.H.X.P.h.@ NXm...M.~.q.3., 8XU.n.B.fXP.0., 8XU.n.B.>XP.0.& 2XY.W.B.s.o.V.",
"- }.y k.g.;.u | , 8XY.n.z.uXP.3., 8XL.n.n.E.t.0., 8XO.;XeXP.P.-.<  Xy p.M.:.y 2., 8XY.n.z.uXP.3., 8XL.n.n.E.t.0.4 -XJ.;X5XOXt.j."
};
