/* XPM */
static char *_ae0c7d2d7be4b13fcb18b7a59e217aa9z2ePzaacIcrqsAP[] = {
/* columns rows colors chars-per-pixel */
"64 64 247 2 ",
"   c #0A0300",
".  c #0C0A04",
"X  c #160603",
"o  c #130B02",
"O  c #1C0D04",
"+  c #1D0D0A",
"@  c #161104",
"#  c #1C1404",
"$  c #15110E",
"%  c #1C130A",
"&  c #1C190C",
"*  c #030813",
"=  c #0B1619",
"-  c #191615",
";  c #1A1918",
":  c #260803",
">  c #370C0C",
",  c #241503",
"<  c #2A1907",
"1  c #22140C",
"2  c #24190E",
"3  c #391509",
"4  c #260C12",
"5  c #261717",
"6  c #241A12",
"7  c #2B1C13",
"8  c #381A18",
"9  c #2A221A",
"0  c #382618",
"q  c #0D1921",
"w  c #161F26",
"e  c #2E1723",
"r  c #192123",
"t  c #2B2326",
"y  c #392A26",
"u  c #3B322F",
"i  c #48190A",
"p  c #5B1701",
"a  c #491816",
"s  c #51270E",
"d  c #432B16",
"f  c #492E17",
"g  c #452B1A",
"h  c #4C3117",
"j  c #4C321A",
"k  c #54371D",
"l  c #712B0A",
"z  c #672A1D",
"x  c #693517",
"c  c #733116",
"v  c #511F2D",
"b  c #442A24",
"n  c #483528",
"m  c #563B26",
"M  c #51332F",
"N  c #593A2A",
"B  c #6D2C2A",
"V  c #663727",
"C  c #773B28",
"Z  c #79441D",
"A  c #5C4128",
"S  c #5A4335",
"D  c #634223",
"F  c #694625",
"G  c #6C4926",
"H  c #6B482B",
"J  c #704C27",
"K  c #734E29",
"L  c #674739",
"P  c #694A3B",
"I  c #704F3D",
"U  c #7A4939",
"Y  c #725133",
"T  c #775338",
"R  c #2E2A43",
"E  c #5F4342",
"W  c #674A45",
"Q  c #794946",
"!  c #6C544B",
"~  c #795845",
"^  c #7B5B56",
"/  c #7E6253",
"(  c #7C6D6E",
")  c #853C32",
"_  c #96531B",
"`  c #8E4F2C",
"'  c #894538",
"]  c #885635",
"[  c #985E37",
"{  c #955838",
"}  c #AA5D38",
"|  c #B75E38",
" . c #986239",
".. c #996E38",
"X. c #A56A3D",
"o. c #B5643D",
"O. c #B8683C",
"+. c #BC6D3D",
"@. c #A97538",
"#. c #B5763B",
"$. c #C6693E",
"%. c #C1723D",
"&. c #924C46",
"*. c #895A46",
"=. c #895849",
"-. c #995E46",
";. c #965B48",
":. c #855B53",
">. c #A65D48",
",. c #B15E4E",
"<. c #896347",
"1. c #9B6246",
"2. c #9F6B40",
"3. c #95654A",
"4. c #9D644B",
"5. c #8E6A56",
"6. c #996756",
"7. c #996A54",
"8. c #957352",
"9. c #A96643",
"0. c #A26A44",
"q. c #A2654D",
"w. c #AA654E",
"e. c #A36A4D",
"r. c #AD6B4C",
"t. c #B96541",
"y. c #B66846",
"u. c #BC6C44",
"i. c #B6644B",
"p. c #B26D4D",
"a. c #BC6C4B",
"s. c #A97447",
"d. c #B27245",
"f. c #BD7143",
"g. c #B3724C",
"h. c #BE724B",
"j. c #B97A4A",
"k. c #A56B52",
"l. c #AC6C53",
"z. c #AA6858",
"x. c #B86757",
"c. c #B26D53",
"v. c #BC6C52",
"b. c #B36D5A",
"n. c #AB7255",
"m. c #AB755A",
"M. c #B47253",
"N. c #BA7454",
"B. c #B37B57",
"V. c #BB7B55",
"C. c #B5745A",
"Z. c #B9755C",
"A. c #BB7A5C",
"S. c #94766C",
"D. c #937D76",
"F. c #B86961",
"G. c #A97868",
"H. c #B57767",
"J. c #BB7363",
"K. c #BD7C62",
"L. c #C26D44",
"P. c #C26D49",
"I. c #C27345",
"U. c #C4744B",
"Y. c #C9764B",
"T. c #C5794A",
"R. c #CA7B4C",
"E. c #C26D58",
"W. c #C67A52",
"Q. c #CB7B54",
"!. c #C67658",
"~. c #CC7D5A",
"^. c #D17953",
"/. c #C26A64",
"(. c #C77765",
"). c #C47D63",
"_. c #C77A71",
"`. c #B7813D",
"'. c #B88748",
"]. c #AA835A",
"[. c #B78659",
"{. c #BB865D",
"}. c #9A867D",
"|. c #AE8B6F",
" X c #B38765",
".X c #B98667",
"XX c #B78971",
"oX c #BD8C75",
"OX c #C68449",
"+X c #CC964D",
"@X c #C9825A",
"#X c #D28454",
"$X c #D3845C",
"%X c #D68A5B",
"&X c #CA9854",
"*X c #C8935A",
"=X c #D39B5E",
"-X c #E2925D",
";X c #C18B65",
":X c #C88668",
">X c #C58D6A",
",X c #D88660",
"<X c #DC8B64",
"1X c #D48B6A",
"2X c #C6926F",
"3X c #CA936C",
"4X c #D49768",
"5X c #DC916D",
"6X c #C88B73",
"7X c #D38D75",
"8X c #C79577",
"9X c #CD9572",
"0X c #CD9974",
"qX c #D19A75",
"wX c #D89678",
"eX c #D49C7A",
"rX c #E5936C",
"tX c #E49A6B",
"yX c #E79874",
"uX c #ED9C75",
"iX c #CEA466",
"pX c #D9A46A",
"aX c #DBA775",
"sX c #D9A478",
"dX c #E6A774",
"fX c #F3A47A",
"gX c #8F7F81",
"hX c #8E8080",
"jX c #9C8A88",
"kX c #9D9396",
"lX c #A9958A",
"zX c #AE988F",
"xX c #A59DA2",
"cX c #AAA2A5",
"vX c #B4ABAC",
"bX c #BAB6B8",
"nX c #CD9383",
"mX c #D89B83",
"MX c #CFA88E",
"NX c #DAA987",
"BX c #E5A485",
"VX c #EFB188",
"CX c #C2B8B6",
"ZX c #C2BFC2",
"AX c #CBC5C5",
"SX c #D6D4D5",
"DX c #E3E3E4",
/* pixels */
"% 9XI.r.:X<X$X-.1 0XI.r.Z.u.U.4.1 >XR.M.Z.u.t.k.1 0XT.r.M.u.h.-., 8XN.d.:X1X:X .1 0XI.r.Z.u.U.4.1 >XR.M.Z.u.t.k.& 9XI.p.e.U.u.w.",
"o .X#XA.:Xu.W.q.1 qXT.p.M.u.U.q.2 3XR.M.K.W.h.k.+ qXR.r.c.U.Q.l., 6X~.OX:Xv.!.0.1 qXT.p.M.u.U.q.2 3XR.M.K.!.h.k.% 0XR.p.e.U.U.J.",
"% ;XOXwX:XO.u.l.1 qXT.p.l.u.U.k.2 9XR.M.K.,XQ.q.+ qXR.r.Z.^.$Xm.< :X~.4X@Xi.v.s.1 qXT.p.l.u.U.k.2 9XR.M.K.,XW.q.% 0XY.p.n.%X$XK.",
"1 3XI.wXM.Q.u.q.1 9XI.p.c.Q.U.k.1 9XT.p.K.rXQ.4.1 9XI.r.:X<X$X1.< 9XU.4Xg.!.a.0.1 9XI.p.c.Q.U.k.1 9XT.p.K.rXQ.4.% 3XL.p.A.4X#Xl.",
"o 0XT.@Xr.Q.U.-.2 9Xf.p.C.<XW.k.1 0XI.M.A.yXQ.4.1 9XI.r.K.Q.Q.-., eX!.@X9.!.W. .2 9Xf.p.C.<XW.k.1 0XI.M.A.yXQ.4.& 3XI.p.C.$XU.w.",
"o 0X#Xr.C.u.W.q.2 3Xf.M.C.uXW.k.1 qXI.M.Z.rXQ.4.1 qXR.M.M.t.U.k.# eX$X9.B.i.!.0.2 3Xu.c.C.uXW.k.1 qXI.M.Z.rXQ.4.& 0XR.N.e.f.u.Z.",
"$ 8XX.l.K.y.} k.2 3XI.M.C.uXU.k.1 qXI.Z.M.<XU.k.1 9XR.A.K.u.u.k.2 8X9.9.{.i.>.e.2 3XI.M.C.uXU.k.1 qXI.V.M.<XU.k.& >XR.!.C.f.O.Z.",
"- XXl C.m.N.c 6.1 9XT.N.M.uXu.q.1 0Xu.N.r.$Xu.q.2 >XI.:XwXQ.u.1.6 XXl B.m.Z.c 3.1 9XT.N.M.uXu.q.1 0Xu.N.r.$Xu.q.6 ;XL.:X6X@Xu.l.",
"O 8..X.X[..X].[.% eXI.r.M.uXY.q.6 %Xu.H.!.t.:X9.e [.T.K.3XI.(.4., G..X{.]..X].[.% eXf.r.M.uXY.q.6 %Xu.H.!.t.:Xo.e @XT..X%XY.l.M.",
"* = 2 , 6 @ 6   % 3XT.p.C.,XU.1.% %XU.U >.a.' { 4 *XI.K.dXR.E.4.* ; % # 2 . 2   % 3XT.p.C.,XY.1.% %XW.U >.a.' { - <XI..XtX^.l.M.",
"4 Q ' ) ' &.,.' 1 ;X#XV.A.U.U.1.& dXN.N K.).z m.+ pX%.Z.BXAX:Xe.4 Q ' ) ' &.q.' 1 ;X#XV.A.U.U.1.& dXN.N K.).z m.$ tX+.H.uX^.c.N.",
": *.p >.).z.c q.1 ;X#X1XA.u.U.q.= Z x E B V L k 1 pX+.C.AXAX).0.3 *.p } :Xm.c q.1 ;X#X1XA.u.U.q.= Z x E B V L M - tX+.m.$X$.M.g.",
"- }.V 4.G.6.V 6.1 3XOXyXC.u.L.k.= x s y 3 a b 2 1 *XI.J.AXM.(. .5 |.V 4.G.6.V 6.1 3XOXyXC.u.L.k.q x i y 3 a b 2 $ %XI.m.P.O.Z.p.",
": mXrXP.i.E.7Xi.1 0XI.wXZ.u.u.k.q eX*.4 :.6.8 :.1 *X#XJ.AXAX8Xe.8 mXrXL.t.v.1Xi.1 0XI.wXZ.u.u.k.q eX*.4 :.6.8 :.$ %XQ.G.h.U.C.M.",
"< ].j.+.R.X.T._ % qX+.1X:Xu.L.q.- 4XM.L -.N.&.q.- 3X~.&. XAXAXk.3 ].j.+.R.X.T._ % qX+.1X:Xu.L.q.- 4XM.L -.v.&.q.- 4X~.*.N.Q.{ M.",
"X MXJ.i.Z.z.b.b.1 qXf.@X7Xu.U.q.1 -XY.6X!.| ~.o.- iXp.B l.p.CX7., MXK.i.Z.b.Z.M.1 qXf.@X7Xu.U.q.1 -XY.6X!.| ~.o.$ wXp.M w.a.x r.",
"O 9XI.BXc.u.$X;.$ fXy.k.U.Y.c.>.1 9XT.:X:Xo.u.1.5 s.1.^ :.3.=.<.% 3X+.VXw.U.$X;.. fXy.k.U.Y.x.>.1 9XT.:X:Xo.u.1.7 8.6.:.<.8.^ 3.",
"X qXR.:Xr.U.uXk.9 OXf.6Xu.L.:Xr.1 3XI.@X7XU.Q.k.$ i > 8 + a L b n XXR.1Xr.U.fXq.9 T.f.6Xu.L.:Xr.2 3XI.@X7XU.Q.k.+ 3 3 a : : > : ",
"O 3XI.dXA.U.$Xl.. tXf.C 9.} C { 7 3Xf.M.BXU.I.q.t MX~ ^ jXvXvXvXcXxXlXlX|.y.<Xk.. tXf.C 9.} C { 7 3Xf.M.BXU.I.q.t zXU > *.^ v *.",
"% 9XO.BXA.u.o.q.- VX:XL mX7X*.XX2 3XI.g.BXu.u.4.. oXlXlX X[. X].].].].|.zX|.y.4.- VX:XL mX7X*.XX2 3XI.g.BXu.u.4.X oX4.z { 6.Q 4.",
"o qXI.A.M.U.U.q.q l U ! U U W N O 3XT.M.BXL.U.k.M zX|.'.&X+XOX`.#.@.@.@.s.zXG.q.q l U ! U U W N O 3XT.M.BXu.U.k.a .X:X(.h.M.J.V.",
"O ;X#X9.7Xu.U.q.w Z s 5 3 i 3 3 O 9XT.g.wXu.U.q.M 8.@.&XaXpX=X&XOX`.@.#.@.2.S.S.u Z s 5 3 i 3 3 O 9XT.g.wXu.U.q.> 3Xh.i.%X~.,.f.",
"% ;XT.N.BXU.o.q.- dX` 8 U -.V ;.1 qXI.r.K.u.Q.4.M D...@.&XiX&XOXOXOX#.@...5.jXvX( sX` 8 U -.V ;.1 qXI.r.A.u.Q.1.: 0XN.i.%X1X(.O.",
"X sX+.g.K.rXu.k.2 #Xy.6.q.!.4.>.1 qX+.k.k.C.:X! n cXxXS.8.@.@...@.#.2.8.D.kXD.hX( 7.e.5.7.N.4.>.1 qX+.r.M.Q.<Xn.4 8Xg.!.tX!.q.j.",
"o 0XI.M.C.fXQ.>.O sXu.M.:X,Xu.k.O 2XA.^ u n n m P D.AXSXAXzXlX}.}.jXjXkXkXgX~ ^ / n n n S G.g.k.O 3XR.M.C.rXfXk.@ 9XR.N.mXh.u.Z.",
"@ 9XY.N.n.,XU.w.1 qXI.M.wXQ.u.k.9 5.N A D D D G K ~ vXDXDXSXAXbXbXbXcXxXkXS.~ ~ Y F D D D N N 3.9 9XR.r.r.Q.<X1.% 9XY.M.eXh.u.b.",
"% 3XY.c.l.f.u.l.2 >XT.M.mXP.u.k.u A G K K K K K K T D.vXAXAXZXbXZXbXcXkXD.^ T K K K K K K K F S t >XT.r.q.u.Q.-.& 9XI.p.6Xh.h.b.",
"% 3XY.p.C.u.U.w.2 3XI.M.6Xu.u.7.t f J K K K K K K K Y ~ D.vXvXcXxXcXjX/ Y K K K K K K K K K J 0 9 0X%X:X:X$X<XH.& 9XI.p.K.u.a.b.",
"o 9XY.p.K.W.Q.q.% qXI.c.C.U.u.4.u 0 j A G F F G K K K K T ~ ~ ~ ~ ~ ~ K K K K K K G G G F k j y t qX%X:X7X$X,XK.% 0XI.p.n.t.a.c.",
". 0XI.A.:X@X~.>.O eXf.p.q.U.U.4.y n d f h j f k D D D D D D D D D D D D D D D D D k h j h f 0 S 9 3XI.g.C.u.u.4.% 0XI.c.l.f.U.b.",
". eXI.1X.XU.U.q.% 9XT.M.l.u.U.q.9 / 7 0 f f f f f f f f f f f f f f f f f f f f f f j f f 7 0 *.7 qXI.p.K.U.U.4.& 0XI.N.n.W.~.b.",
"o sXI.wXK.y.o.k.2 ;XR.M.K.o.U.k.O 2Xk.P 9 0 0 0 d d d d d d d d d d d d d d d d d 0 0 9 y ~ n.k.O 9XI.M.6X$XQ.e.& 9X+.N.C.1X,Xb.",
": nXv.yX!.E.>.i.1 3X+.N.M.Q.$Xq.5 3XW.z.3.>X;.I 6 n n 7 % 1 1 1 1 1 1 1 @ 0 b b 6 5.1.7.7.W.$Xq.5 3XW.b.s.fXi.X.& 3X!.c.@.1X(.d.",
"  oXV.f.y.g.{.0.2 qXI.M.A.<X$Xq.+ *Xh.z.g.fXW.2.1  X9.*.y 0 d d d 0 0 0 n 3.m.[ 6 0XI.M.A.<X$Xq.+ *Xh.z.g.fXW.X.@ >X!.c.@.!.x.d.",
"# MX[.O.h.V.s.9.1 9XT.r.A.rXU.1.8 *XY._.9.rX1X .2 3XT.k.S f f f f f f g ~ B.s.0.1 9XT.r.A.rXU.1.8 *XY._.9.rX1X .@ 3X!.A.j.h.x.d.",
"X 8X` | i.c.l 9.1 9XT.0.A.uXu.4.+ pXu.z.V.#Xi.X.1 3XR.*.m A h h h h k D 0 3.l 9.1 9XT.0.A.uXu.4.+ pXu.z.V.#Xi.X.& 0X!.).*Xh.x.j.",
"0 zX;.7X7XnX6.8X1 qXR.0.A.uXU.k.2 *XU.J.9.U.(.0.1 3XI.B./ A F F F F F S S.nX6.6X1 qXR.0.A.uXU.k.2 *XU.J.9.U.(.0.& 3XE.!.4Xh.x.d.",
". n N H N N L g 1 9XT.r.C.<XI.k.t [.Q.H.0.a./.1.2 9X+.M.8Xb D F F F j S N N L g 1 9XT.r.C.<XI.k.t [.Q.H.0.a./.1.# 0Xa.N.pXh.x.d.",
"  y N i g g N 3 O 3XI.A.M.R.U.4.. sXy.B C.y.z 4.2 qX+.M.mXy k f f h g n g g N < O 3XI.A.M.R.U.4.. sXy.B C.y.z 4.# qXP.N.dXh.F.d.",
": 6.' ) b.H.-.l.1 9XT.:XC.u.U.4.t [.p.&.1.c.' *.O qXI.M.mX0 F D D D m L z.G.4.k.1 9XT.:XC.u.U.4.t [.p.&.1.c.' *.@ sXP.M.pXp.F.d.",
"$ q.p 3.J.i.x &.7 0XT.wXC.h.y.k.* g > e % e e @ - 4Xh.G.c.N k F G F g ~ G.y.l *.7 0XT.wXC.h.y.k.* g > e % e e @ 1 >X).Z.t.).6.a.",
"$ wXg.m.J.i. .H.2 ;XI.BXl.u.W.4.t XXU b L Q v H - #XU.H.a.9.7 f h d n m.H.!.} G.2 ;XI.BXl.u.W.4.t XXU b L Q v H , :Xp.).L.y.XXL.",
"  wX#X3.Z.u.V.z., 4XI.yXA.u.W.q.O qX{ z ] >.B  .6 rX#Xk.!.] 0 f f f N *.C.u.h.k., 4XI.yXA.u.W.q.O qX{ z ] >.B  ., wXW.c.^.9.H.L.",
"% 1Xf.0.(.L.V.>.O BX%.:X:Xu.u.k., 4XW.C.X.(./.d.. tXh.V M.*.n m D m S 7.C.o.U.q.O BX%.:X:Xu.u.k., 4XW.C.X.(./.d.O 3X.XC t.k.U } ",
"@ wXR.>XE.| j.w., qX%.@XK.u.U.q.1 {.!.6Xd.E./.X.t 3Xm.! G.S m k k k N 7.A.L.U.q., qX%.@XK.u.U.q.1 {.!.6Xd.E./. .y XX|.Q C.G.^ n.",
"  wXR.sXv.L.*Xc.7 {.T.!.l.a.@X4.6 9X!.:X3Xv.F.s.* x s e n b A G G G A G.M.T.$Xl.7 {.T.!.l.a.@X4.6 9X!.:X3Xv.F.s.  H a g s 8 y i ",
". wXT.sX!.^.sXx.6 >XU.1.k.N.9.6.% 3Xv.l.pXa.F.s.r { x y M S n k D m S oXC.Q.rXm.6 >XU.1.k.N.9.6.% 3Xv.l.pXv.F.s.- 3.M b z M y x ",
"$ :Xf.sXv.} @X>.o NXd.x H.p.l 6.7 :X!.N.dXW.(. .- sX] 8 Q ! g D D m m XXZ.o.@X1.o NXd.x H.p.l 6.7 :X!.N.dXW.(. .2 0X*.3 U S.8 1.",
"o 9XY.1Xn.h.u.l.9 ..{.G.|.].XX].O eXI.r.BXU.u.-.2 9Xf.{ ^ M % h k f 7 5.l.U.u.l.9 ..{.G.|.].XX].O eXI.r.BXU.u.-.- 4Xu.>.s.O.v.M.",
"@ 3XY.:X.Xh.u.l.* s i e < 3 a : + 9Xf.M.mXU.U.k.1 9Xj.P A g % d f 0 2 N :.y.u.k.* s i e < 3 a : + 9Xf.M.mXU.U.k.$ 4XU.b.{.h.v.p.",
"% 9XI.N.9Xh.u.w.R |.C v W U M W 1 9XI.M.:Xt.U.q.1 2X*.m D d % 0 7 0 1 k 0 0.u.k.R |.C v W U M W 1 9XI.M.:Xt.U.q.- 4XY.J.3XW.E.r.",
"@ eXL.p.9X,Xh.q.  iX` V ] 0.C <.1 9XI.M.Z.P.$X4.2 G.0 F j 6 % 2 9 2 % j n <.N.q.  iX` V ] 0.C <.1 9XI.M.Z.P.$X4.- 4XP.J.3XW.E.p.",
"  NX+.p..XyXU.q.1 =XOXK.s.#X~.X.O 9XI.M.C.,XuXm.1 P A m b T 0 2 m j 6 0 h m ~ 3.1 =XOXK.s.#X~.X.O 9XI.M.C.,XuXm.- 3XP.J.3XW.v.p.",
"  NXL.c.C.wXQ.q.5 @Xu._.:X!.E.0.O eXI.M.c.,XuXk.9 m m g W V.4.y j D n ~ 0 j m P u B.u._.:X!.E.0.O eXI.M.c.,XuXk.$ 3XU.(.4XW.v.r.",
"o eXI.N.n.Q.U.q.5 qXu.F.BXQ.i.l.1 eXf.M.l.U.Q.<.y k 0 b XXU.h.P 0 m m k.~ 9 0 n 7 M -.F.BXQ.i.l.1 eXf.M.l.U.Q.1.- 3XU.J.3XI.v.c.",
"% >XY.N.C.O.U.w.$ iXOXM.=X%.h. .+ qXO.V.l.*.~ L j g N 3.:Xu.a.~ 0 F A 7.Z.*.I n 0 n ~ C.=X%.h. .+ qXO.V.c.u.h.k.- 3XL.b.{.y.i.N.",
"o 0Xv.q.*X1X_. .2 9XI.p.A.t.U.q.1 3XI.N.L n j j 9 S e.r.C.t.W.=.6 k N T :X1XK.T t G.r.p.A.t.U.q.1 3XI.N.c.P.o.k.& 9XI.p.e.U.u.w.",
"% ;X~.!.=Xa./.X.1 9XI.M.C.t.U.k.2 9XT.N.P N N M 9 8XT.r.M.u.~.k.6 n m <.4Xi.W.e.1 9XI.M.C.t.U.k.2 9XT.N.C.Q.u.k.% 0XR.p.e.U.U.J.",
"o ;X,X1Xd.t./. .1 9XT.c.c.u.h.k.2 9XT.M.:X5X@Xk.6 9XR.r.Z.$X$Xm.9 M m *.B.i.v. .1 9XT.M.c.u.h.k.2 9XT.M.K.<XW.q.% 0XY.p.n.%X$XK.",
"1 3X~.BX@.!./.X.1 9XI.p.c.Q.U.k.1 9XI.M.K.rXQ.4.1 >XR.r.).rXQ.4.< 5.n m <.~.!. .1 9XI.p.c.Q.U.k.1 9XI.M.K.rXQ.4.% 3XL.p.A.4X#Xl.",
"1 {.E.7X@.a./.X.2 9Xf.p.C.<XQ.k.1 9XI.p.K.rXQ.1.2 >XR.r.A.$XU.1.< XXN m N w.W.0.2 9Xf.p.C.<XQ.k.1 9XI.p.K.rXQ.1.& 3XI.p.C.$XU.w.",
"  3X:Xq.@.i._. .2 9Xf.p.C.uXQ.k.1 qXT.M.K.rXQ.4.1 9XQ.M.c.u.u.k.o 8X3.6 % -.(.1.2 9Xf.p.C.uXQ.k.1 qXT.M.K.rXQ.4.& 9XR.N.e.f.u.Z.",
"o NXZ.4.j.!.F. .1 9XT.M.C.fXU.q.1 9XT.M.C.,XU.q.1 0XT.A.K.o.U.k.@ MXN.X.B./.w.4.1 9XT.M.C.fXU.q.1 9XT.M.C.,XU.q.& 3XR.!.C.f.O.Z.",
"- |.p z.j.>.a  .1 9XR.M.c.uXU.4.1 9XI.M.M.Q.u.q.1 9X+.:XwXU.U.-.2 XXp s.B.>.p 3.1 9XR.M.c.uXU.4.1 9XI.M.M.Q.u.q.6 ;XL.:X6X@Xu.l."
};
